<svg width="331" height="91" viewBox="0 0 331 91" fill="none" xmlns="http://www.w3.org/2000/svg">
<path d="M0.471863 15.553V74.2818L14.3206 90.2987H315.436L330.472 74.2818V17.8411L315.436 0.298706H14.3206L0.471863 15.553Z" fill="white"/>
<path d="M32.3663 77.3353V74.4713L33.4383 75.8713H33.9103L34.9663 74.4713V77.3353H36.4383V72.1593H35.0223L33.6383 74.0553L32.1903 72.1593H30.9343V77.3353H32.3663ZM41.2033 77.3753L41.2673 76.4153C41.1953 76.4233 41.0993 76.4313 41.0353 76.4313C40.8753 76.4313 40.8113 76.3193 40.8113 76.0873V74.8153C40.8113 73.7433 40.1713 73.1993 39.0833 73.1993C38.1073 73.1993 37.4993 73.6953 37.2193 74.3593L38.2353 74.7833C38.3713 74.5033 38.6113 74.2713 38.9233 74.2713C39.2113 74.2713 39.4033 74.4793 39.4033 74.7593V74.9033L38.5873 75.0473C37.6113 75.2233 37.0673 75.6953 37.0673 76.3673C37.0673 77.0153 37.5633 77.4553 38.2513 77.4553C38.8113 77.4553 39.2593 77.1673 39.5313 76.7913C39.7553 77.2793 40.1793 77.4553 40.6673 77.4553C40.8593 77.4553 41.0593 77.4233 41.2033 77.3753ZM38.8833 76.4713C38.6433 76.4713 38.4993 76.3273 38.4993 76.1353C38.4993 75.9033 38.6833 75.7593 38.9873 75.6953L39.4033 75.6233V76.2313C39.2673 76.3753 39.0753 76.4713 38.8833 76.4713ZM45.6253 77.3353V74.7753C45.6253 73.8713 45.0493 73.1993 44.2973 73.1993C43.8093 73.1993 43.3933 73.4713 43.1133 73.9033V73.3273H41.7373V77.3353H43.1773V74.5833C43.3053 74.4633 43.5053 74.3673 43.7053 74.3673C44.0093 74.3673 44.1853 74.5833 44.1853 74.9193V77.3353H45.6253ZM50.2094 77.3353V73.3273H48.7694V76.0553C48.6494 76.1833 48.4654 76.2793 48.2654 76.2793C47.9854 76.2793 47.8014 76.0633 47.8014 75.7353V73.3273H46.3614V75.8713C46.3614 76.7673 46.9214 77.4473 47.6734 77.4473C48.1454 77.4473 48.5614 77.1833 48.8334 76.7433V77.3353H50.2094ZM54.7064 76.4073L53.6984 75.9673C53.5304 76.2553 53.2584 76.4233 52.9864 76.4233C52.5864 76.4233 52.3144 76.1353 52.2424 75.6233H54.7544C54.7704 75.5273 54.8024 75.2713 54.8024 75.0553C54.8024 73.9433 54.0024 73.1993 52.8904 73.1993C51.6744 73.1993 50.8024 74.1513 50.8024 75.3993C50.8024 76.6233 51.6504 77.4553 52.8744 77.4553C53.7224 77.4553 54.4264 77.0393 54.7064 76.4073ZM52.8824 74.2073C53.2104 74.2073 53.4104 74.4553 53.4424 74.8793H52.2584C52.3464 74.4473 52.5624 74.2073 52.8824 74.2073ZM56.8414 71.8233H55.4014V77.3353H56.8414V71.8233ZM61.1336 73.8313H61.1656L61.6776 75.3113H60.6216L61.1336 73.8313ZM59.9256 77.3353L60.2296 76.4473H62.0696L62.3816 77.3353H63.9736L61.9736 72.1593H60.4216L58.4296 77.3353H59.9256ZM68.38 77.4553C68.38 76.8473 67.908 76.4713 66.924 76.4153L66.244 76.3673C65.748 76.3433 65.476 76.2953 65.476 76.1993C65.476 76.1433 65.516 76.0633 65.556 75.9993C65.724 76.0313 65.892 76.0473 66.068 76.0473C67.1 76.0473 67.9 75.5353 67.9 74.6713C67.9 74.5033 67.868 74.3433 67.796 74.1833C68.02 74.1273 68.316 74.0873 68.556 74.0873V73.0393C68.044 73.0393 67.636 73.3113 67.412 73.6793C67.084 73.3913 66.596 73.2073 65.988 73.2073C64.94 73.2073 64.124 73.7993 64.124 74.6153C64.124 75.1513 64.46 75.5593 64.956 75.8073C64.636 76.0073 64.38 76.3193 64.38 76.5273C64.38 76.7273 64.532 76.9193 64.772 77.0713C64.252 77.2313 63.9 77.4873 63.9 77.8713C63.9 78.4793 64.764 78.8313 65.972 78.8313C67.476 78.8313 68.38 78.2873 68.38 77.4553ZM66.148 78.0153C65.572 78.0153 65.22 77.8553 65.22 77.6473C65.22 77.5273 65.3 77.4153 65.412 77.3433C65.572 77.3833 65.74 77.4073 65.9 77.4233L66.516 77.4713C66.876 77.5033 67.036 77.5513 67.036 77.7113C67.036 77.9273 66.66 78.0153 66.148 78.0153ZM65.46 74.6313C65.46 74.2873 65.74 74.0713 66.02 74.0713C66.284 74.0713 66.572 74.2713 66.572 74.6313C66.572 74.9913 66.292 75.1833 66.02 75.1833C65.748 75.1833 65.46 74.9913 65.46 74.6313ZM72.9066 77.3353V74.7753C72.9066 73.8713 72.3306 73.1993 71.5786 73.1993C71.0906 73.1993 70.6746 73.4713 70.3946 73.9033V73.3273H69.0186V77.3353H70.4586V74.5833C70.5866 74.4633 70.7866 74.3673 70.9866 74.3673C71.2906 74.3673 71.4666 74.5833 71.4666 74.9193V77.3353H72.9066ZM77.3627 76.4073L76.3547 75.9673C76.1867 76.2553 75.9147 76.4233 75.6427 76.4233C75.2427 76.4233 74.9707 76.1353 74.8987 75.6233H77.4107C77.4267 75.5273 77.4587 75.2713 77.4587 75.0553C77.4587 73.9433 76.6587 73.1993 75.5467 73.1993C74.3307 73.1993 73.4587 74.1513 73.4587 75.3993C73.4587 76.6233 74.3067 77.4553 75.5307 77.4553C76.3787 77.4553 77.0827 77.0393 77.3627 76.4073ZM75.5387 74.2073C75.8667 74.2073 76.0667 74.4553 76.0987 74.8793H74.9147C75.0027 74.4473 75.2187 74.2073 75.5387 74.2073ZM79.4977 71.8233H78.0577V77.3353H79.4977V71.8233ZM81.7477 71.8233H80.3077V77.3353H81.7477V71.8233ZM83.9977 73.3273H82.5577V77.3353H83.9977V73.3273ZM83.9977 71.8393H82.5577V72.9033H83.9977V71.8393ZM85.6877 77.1593V76.2713H84.8877V77.2873H85.2637C85.2637 77.6953 85.1277 77.9993 84.8237 78.3273L85.1037 78.5913C85.4957 78.1913 85.6877 77.7113 85.6877 77.1593ZM89.8328 73.0713L88.3208 73.7033L88.5208 74.2473L89.6728 73.7993V76.7753H88.4168V77.3353H91.4408V76.7753H90.3528V73.0713H89.8328ZM95.8666 75.9353C95.8666 75.1273 95.1706 74.5353 94.1866 74.5353C93.6346 74.5353 93.0586 74.7353 92.6826 75.1353C92.7226 74.2153 93.2426 73.5513 94.0666 73.5513C94.5546 73.5513 94.9946 73.7833 95.2826 74.1193L95.7466 73.7753C95.4026 73.3113 94.7546 72.9833 94.0426 72.9833C92.8266 72.9833 91.9786 73.9433 91.9706 75.2473C91.9626 76.5273 92.7866 77.4393 94.0266 77.4393C95.0506 77.4393 95.8666 76.8073 95.8666 75.9353ZM94.0266 76.8713C93.3786 76.8713 92.9066 76.4313 92.7466 75.7753C93.0666 75.3273 93.5386 75.1033 94.0906 75.1033C94.7706 75.1033 95.1466 75.4473 95.1466 75.9193C95.1466 76.4713 94.6426 76.8713 94.0266 76.8713ZM100.262 72.9753H100.278L101.102 75.2473H99.4375L100.262 72.9753ZM98.6775 77.3353L99.2055 75.8713H101.334L101.862 77.3353H102.63L100.694 72.1593H99.8935L97.9575 77.3353H98.6775ZM105.095 76.8713C104.719 76.8713 104.303 76.6713 104.063 76.3833V74.4553C104.271 74.1353 104.663 73.8233 105.127 73.8233C105.791 73.8233 106.287 74.4233 106.287 75.3353C106.287 76.2393 105.791 76.8713 105.095 76.8713ZM107.007 75.3353C107.007 74.1193 106.239 73.2633 105.303 73.2633C104.695 73.2633 104.247 73.6313 104.039 73.9593V73.3673H103.383V78.7913H104.063V76.9193C104.319 77.2313 104.759 77.4393 105.231 77.4393C106.231 77.4393 107.007 76.5513 107.007 75.3353ZM108.625 77.3353V74.9673C108.689 74.4393 109.009 73.9433 109.625 73.9433C109.761 73.9433 109.953 73.9673 110.065 73.9993V73.3273C109.985 73.2953 109.793 73.2633 109.657 73.2633C109.193 73.2633 108.761 73.6713 108.601 74.1753V73.3673H107.945V77.3353H108.625ZM111.524 73.3673H110.844V77.3353H111.524V73.3673ZM111.524 71.7913H110.844V72.5833H111.524V71.7913ZM113.438 71.7033H112.758V77.3353H113.438V71.7033ZM117.856 76.4313L117.312 76.2233C117.104 76.6313 116.72 76.8793 116.288 76.8793C115.624 76.8793 115.144 76.3273 115.096 75.4953H117.848C117.872 75.3913 117.888 75.1753 117.888 74.9993C117.888 73.9833 117.192 73.2633 116.224 73.2633C115.168 73.2633 114.384 74.1593 114.384 75.3833C114.384 76.5833 115.168 77.4393 116.248 77.4393C116.96 77.4393 117.576 77.0633 117.856 76.4313ZM116.232 73.8153C116.792 73.8153 117.184 74.2633 117.208 74.9513H115.136C115.256 74.2633 115.68 73.8153 116.232 73.8153ZM124.112 77.3353V76.7353H121.416L122.576 75.9033C123.104 75.5193 123.784 74.9833 123.784 74.2473C123.784 73.5193 123.08 72.9753 122.208 72.9753C121.4 72.9753 120.696 73.4393 120.4 74.1273L120.944 74.3753C121.136 73.8873 121.608 73.5513 122.136 73.5513C122.64 73.5513 123.064 73.8633 123.064 74.3033C123.064 74.7273 122.696 75.0393 122.24 75.3913L120.424 76.7753V77.3353H124.112ZM124.736 75.1993C124.736 76.4953 125.568 77.4393 126.712 77.4393C127.856 77.4393 128.688 76.4953 128.688 75.1993C128.688 73.9113 127.856 72.9753 126.712 72.9753C125.568 72.9753 124.736 73.9113 124.736 75.1993ZM125.456 75.1993C125.456 74.2473 125.984 73.5433 126.712 73.5433C127.44 73.5433 127.968 74.2473 127.968 75.1993C127.968 76.1673 127.44 76.8713 126.712 76.8713C125.984 76.8713 125.456 76.1673 125.456 75.1993ZM133.088 77.3353V76.7353H130.392L131.552 75.9033C132.08 75.5193 132.76 74.9833 132.76 74.2473C132.76 73.5193 132.056 72.9753 131.184 72.9753C130.376 72.9753 129.672 73.4393 129.376 74.1273L129.92 74.3753C130.112 73.8873 130.584 73.5513 131.112 73.5513C131.616 73.5513 132.04 73.8633 132.04 74.3033C132.04 74.7273 131.672 75.0393 131.216 75.3913L129.4 76.7753V77.3353H133.088ZM135.169 73.0713L133.657 73.7033L133.857 74.2473L135.009 73.7993V76.7753H133.753V77.3353H136.777V76.7753H135.689V73.0713H135.169Z" fill="black"/>
<path d="M30.8983 25.613L33.0703 28.049L33.6343 27.605L32.2063 25.409L33.6343 23.213L33.0703 22.769L30.8983 25.205V25.613ZM33.8143 25.613L35.8303 27.797L36.3823 27.341L35.0623 25.409L36.3823 23.477L35.8303 23.021L33.8143 25.205V25.613ZM39.0948 20.357H37.9908V28.121H39.0948V20.357ZM46.0738 28.121V24.185C46.0738 22.913 45.1858 22.013 44.0218 22.013C43.1698 22.013 42.4498 22.517 42.0538 23.081V22.169H41.0698V28.121H42.0898V23.801C42.4618 23.273 43.1098 22.877 43.7818 22.877C44.5258 22.877 45.0538 23.429 45.0538 24.257V28.121H46.0738ZM53.0565 27.425C52.0365 27.425 51.2685 26.525 51.2685 25.193C51.2685 23.837 52.0245 22.853 53.0925 22.853C53.6805 22.853 54.2565 23.177 54.6045 23.645V26.573C54.3165 27.041 53.7165 27.425 53.0565 27.425ZM55.6245 30.305V22.169H54.6285V22.925C54.2445 22.373 53.5725 22.013 52.8285 22.013C51.3885 22.013 50.1885 23.309 50.1885 25.181C50.1885 26.981 51.3285 28.277 52.7925 28.277C53.5485 28.277 54.2205 27.917 54.6045 27.377V30.305H55.6245ZM62.276 28.121V22.169H61.256V26.273C60.956 26.933 60.38 27.413 59.672 27.413C58.94 27.413 58.412 26.837 58.412 26.033V22.169H57.392V26.105C57.392 27.365 58.232 28.277 59.384 28.277C60.26 28.277 60.944 27.773 61.292 27.137V28.121H62.276ZM68.8965 26.765L68.0805 26.453C67.7685 27.065 67.1925 27.437 66.5445 27.437C65.5485 27.437 64.8285 26.609 64.7565 25.361H68.8845C68.9205 25.205 68.9445 24.881 68.9445 24.617C68.9445 23.093 67.9005 22.013 66.4485 22.013C64.8645 22.013 63.6885 23.357 63.6885 25.193C63.6885 26.993 64.8645 28.277 66.4845 28.277C67.5525 28.277 68.4765 27.713 68.8965 26.765ZM66.4605 22.841C67.3005 22.841 67.8885 23.513 67.9245 24.545H64.8165C64.9965 23.513 65.6325 22.841 66.4605 22.841ZM74.9263 26.489C74.9263 25.385 73.9903 24.929 72.6463 24.641C71.6383 24.413 71.0623 24.233 71.0623 23.705C71.0623 23.201 71.6263 22.853 72.4183 22.853C73.2463 22.853 73.7983 23.201 74.0743 23.777L74.8903 23.453C74.5423 22.721 73.8103 22.013 72.4303 22.013C71.0263 22.013 70.0663 22.757 70.0663 23.765C70.0663 24.797 71.0383 25.277 72.3583 25.553C73.3783 25.769 73.9423 25.973 73.9423 26.537C73.9423 27.077 73.4383 27.449 72.5623 27.449C71.5663 27.449 70.9303 27.005 70.6303 26.417L69.7903 26.741C70.1983 27.677 71.1583 28.277 72.5143 28.277C74.0263 28.277 74.9263 27.545 74.9263 26.489ZM79.6569 28.085V27.233C79.4049 27.329 78.9849 27.401 78.6129 27.401C77.8569 27.401 77.5569 27.029 77.5569 26.465V23.009H79.6209V22.169H77.5569V20.717H76.5369V22.169H75.6609V23.009H76.5369V26.633C76.5369 27.677 77.2449 28.277 78.4329 28.277C78.8769 28.277 79.3929 28.181 79.6569 28.085ZM86.0657 25.157C86.0657 23.333 84.8537 22.013 83.1857 22.013C81.5177 22.013 80.2937 23.333 80.2937 25.157C80.2937 26.957 81.5177 28.277 83.1857 28.277C84.8537 28.277 86.0657 26.957 86.0657 25.157ZM81.3737 25.157C81.3737 23.837 82.1297 22.865 83.1857 22.865C84.2297 22.865 84.9857 23.837 84.9857 25.157C84.9857 26.453 84.2297 27.413 83.1857 27.413C82.1297 27.413 81.3737 26.453 81.3737 25.157ZM92.7979 27.425C92.2339 27.425 91.6099 27.125 91.2499 26.693V23.801C91.5619 23.321 92.1499 22.853 92.8459 22.853C93.8419 22.853 94.5859 23.753 94.5859 25.121C94.5859 26.477 93.8419 27.425 92.7979 27.425ZM95.6659 25.121C95.6659 23.297 94.5139 22.013 93.1099 22.013C92.1979 22.013 91.5259 22.565 91.2139 23.057V22.169H90.2299V30.305H91.2499V27.497C91.6339 27.965 92.2939 28.277 93.0019 28.277C94.5019 28.277 95.6659 26.945 95.6659 25.121ZM101.85 26.765L101.034 26.453C100.722 27.065 100.146 27.437 99.4977 27.437C98.5017 27.437 97.7817 26.609 97.7097 25.361H101.838C101.874 25.205 101.898 24.881 101.898 24.617C101.898 23.093 100.854 22.013 99.4017 22.013C97.8177 22.013 96.6417 23.357 96.6417 25.193C96.6417 26.993 97.8177 28.277 99.4377 28.277C100.506 28.277 101.43 27.713 101.85 26.765ZM99.4137 22.841C100.254 22.841 100.842 23.513 100.878 24.545H97.7697C97.9497 23.513 98.5857 22.841 99.4137 22.841ZM104.351 28.121V24.569C104.447 23.777 104.927 23.033 105.851 23.033C106.055 23.033 106.343 23.069 106.511 23.117V22.109C106.391 22.061 106.103 22.013 105.899 22.013C105.203 22.013 104.555 22.625 104.315 23.381V22.169H103.331V28.121H104.351ZM108.699 22.169H107.679V28.121H108.699V22.169ZM108.699 19.805H107.679V20.993H108.699V19.805ZM115.878 25.157C115.878 23.333 114.666 22.013 112.998 22.013C111.33 22.013 110.106 23.333 110.106 25.157C110.106 26.957 111.33 28.277 112.998 28.277C114.666 28.277 115.878 26.957 115.878 25.157ZM111.186 25.157C111.186 23.837 111.942 22.865 112.998 22.865C114.042 22.865 114.798 23.837 114.798 25.157C114.798 26.453 114.042 27.413 112.998 27.413C111.942 27.413 111.186 26.453 111.186 25.157ZM119.641 27.425C118.645 27.425 117.937 26.477 117.937 25.181C117.937 23.849 118.681 22.877 119.713 22.877C120.349 22.877 120.937 23.165 121.249 23.621V26.561C120.901 27.077 120.265 27.425 119.641 27.425ZM122.269 28.121V19.673H121.249V22.817C120.841 22.337 120.145 22.013 119.497 22.013C117.961 22.013 116.845 23.345 116.845 25.193C116.845 26.981 117.925 28.277 119.413 28.277C120.097 28.277 120.865 27.857 121.309 27.269V28.121H122.269ZM129.449 25.157C129.449 23.333 128.237 22.013 126.569 22.013C124.901 22.013 123.677 23.333 123.677 25.157C123.677 26.957 124.901 28.277 126.569 28.277C128.237 28.277 129.449 26.957 129.449 25.157ZM124.757 25.157C124.757 23.837 125.513 22.865 126.569 22.865C127.613 22.865 128.369 23.837 128.369 25.157C128.369 26.453 127.613 27.413 126.569 27.413C125.513 27.413 124.757 26.453 124.757 25.157ZM138.161 26.489C138.161 25.385 137.225 24.929 135.881 24.641C134.873 24.413 134.297 24.233 134.297 23.705C134.297 23.201 134.861 22.853 135.653 22.853C136.481 22.853 137.033 23.201 137.309 23.777L138.125 23.453C137.777 22.721 137.045 22.013 135.665 22.013C134.261 22.013 133.301 22.757 133.301 23.765C133.301 24.797 134.273 25.277 135.593 25.553C136.613 25.769 137.177 25.973 137.177 26.537C137.177 27.077 136.673 27.449 135.797 27.449C134.801 27.449 134.165 27.005 133.865 26.417L133.025 26.741C133.433 27.677 134.393 28.277 135.749 28.277C137.261 28.277 138.161 27.545 138.161 26.489ZM140.574 22.169H139.554V28.121H140.574V22.169ZM140.574 19.805H139.554V20.993H140.574V19.805ZM147.357 28.217L147.405 27.437C147.333 27.449 147.213 27.461 147.141 27.461C146.781 27.461 146.601 27.209 146.601 26.885V24.149C146.601 22.769 145.761 22.013 144.465 22.013C143.433 22.013 142.533 22.589 142.101 23.525L142.893 23.849C143.193 23.285 143.661 22.865 144.369 22.865C145.101 22.865 145.581 23.369 145.581 24.113V24.581L144.189 24.749C142.869 24.917 141.933 25.553 141.933 26.657C141.933 27.605 142.689 28.277 143.745 28.277C144.585 28.277 145.245 27.869 145.629 27.233C145.773 27.917 146.217 28.277 146.889 28.277C147.069 28.277 147.213 28.253 147.357 28.217ZM144.021 27.449C143.421 27.449 143.001 27.089 143.001 26.585C143.001 25.973 143.577 25.613 144.369 25.517L145.581 25.373V26.465C145.269 27.041 144.681 27.449 144.021 27.449ZM156.848 28.121V24.185C156.848 22.913 155.984 22.013 154.868 22.013C154.076 22.013 153.38 22.493 152.96 23.129C152.636 22.445 152.012 22.013 151.28 22.013C150.488 22.013 149.828 22.517 149.48 23.081V22.169H148.496V28.121H149.516V23.777C149.852 23.273 150.428 22.877 151.016 22.877C151.676 22.877 152.156 23.429 152.156 24.257V28.121H153.176V24.185C153.176 24.005 153.164 23.837 153.128 23.669C153.488 23.213 154.064 22.877 154.64 22.877C155.324 22.877 155.828 23.429 155.828 24.257V28.121H156.848ZM163.937 25.157C163.937 23.333 162.725 22.013 161.057 22.013C159.389 22.013 158.165 23.333 158.165 25.157C158.165 26.957 159.389 28.277 161.057 28.277C162.725 28.277 163.937 26.957 163.937 25.157ZM159.245 25.157C159.245 23.837 160.001 22.865 161.057 22.865C162.101 22.865 162.857 23.837 162.857 25.157C162.857 26.453 162.101 27.413 161.057 27.413C160.001 27.413 159.245 26.453 159.245 25.157ZM172.649 26.489C172.649 25.385 171.713 24.929 170.369 24.641C169.361 24.413 168.785 24.233 168.785 23.705C168.785 23.201 169.349 22.853 170.141 22.853C170.969 22.853 171.521 23.201 171.797 23.777L172.613 23.453C172.265 22.721 171.533 22.013 170.153 22.013C168.749 22.013 167.789 22.757 167.789 23.765C167.789 24.797 168.761 25.277 170.081 25.553C171.101 25.769 171.665 25.973 171.665 26.537C171.665 27.077 171.161 27.449 170.285 27.449C169.289 27.449 168.653 27.005 168.353 26.417L167.513 26.741C167.921 27.677 168.881 28.277 170.237 28.277C171.749 28.277 172.649 27.545 172.649 26.489ZM177.38 28.085V27.233C177.128 27.329 176.708 27.401 176.336 27.401C175.58 27.401 175.28 27.029 175.28 26.465V23.009H177.344V22.169H175.28V20.717H174.26V22.169H173.384V23.009H174.26V26.633C174.26 27.677 174.968 28.277 176.156 28.277C176.6 28.277 177.116 28.181 177.38 28.085ZM183.451 28.217L183.499 27.437C183.427 27.449 183.307 27.461 183.235 27.461C182.875 27.461 182.695 27.209 182.695 26.885V24.149C182.695 22.769 181.855 22.013 180.559 22.013C179.527 22.013 178.627 22.589 178.195 23.525L178.987 23.849C179.287 23.285 179.755 22.865 180.463 22.865C181.195 22.865 181.675 23.369 181.675 24.113V24.581L180.283 24.749C178.963 24.917 178.027 25.553 178.027 26.657C178.027 27.605 178.783 28.277 179.839 28.277C180.679 28.277 181.339 27.869 181.723 27.233C181.867 27.917 182.311 28.277 182.983 28.277C183.163 28.277 183.307 28.253 183.451 28.217ZM180.115 27.449C179.515 27.449 179.095 27.089 179.095 26.585C179.095 25.973 179.671 25.613 180.463 25.517L181.675 25.373V26.465C181.363 27.041 180.775 27.449 180.115 27.449ZM187.973 28.085V27.233C187.721 27.329 187.301 27.401 186.929 27.401C186.173 27.401 185.873 27.029 185.873 26.465V23.009H187.937V22.169H185.873V20.717H184.853V22.169H183.977V23.009H184.853V26.633C184.853 27.677 185.561 28.277 186.749 28.277C187.193 28.277 187.709 28.181 187.973 28.085ZM190.133 22.169H189.113V28.121H190.133V22.169ZM190.133 19.805H189.113V20.993H190.133V19.805ZM199.549 28.121V22.169H198.529V26.273C198.229 26.933 197.653 27.413 196.945 27.413C196.213 27.413 195.685 26.837 195.685 26.033V22.169H194.665V26.105C194.665 27.365 195.505 28.277 196.657 28.277C197.533 28.277 198.217 27.773 198.565 27.137V28.121H199.549ZM206.398 28.121V24.185C206.398 22.913 205.51 22.013 204.346 22.013C203.494 22.013 202.774 22.517 202.378 23.081V22.169H201.394V28.121H202.414V23.801C202.786 23.273 203.434 22.877 204.106 22.877C204.85 22.877 205.378 23.429 205.378 24.257V28.121H206.398ZM209.199 22.169H208.179V28.121H209.199V22.169ZM209.199 19.805H208.179V20.993H209.199V19.805ZM214.434 28.085V27.233C214.182 27.329 213.762 27.401 213.39 27.401C212.634 27.401 212.334 27.029 212.334 26.465V23.009H214.398V22.169H212.334V20.717H211.314V22.169H210.438V23.009H211.314V26.633C211.314 27.677 212.022 28.277 213.21 28.277C213.654 28.277 214.17 28.181 214.434 28.085ZM216.594 22.169H215.574V28.121H216.594V22.169ZM216.594 19.805H215.574V20.993H216.594V19.805ZM225.986 26.765L225.17 26.453C224.858 27.065 224.282 27.437 223.634 27.437C222.638 27.437 221.918 26.609 221.846 25.361H225.974C226.01 25.205 226.034 24.881 226.034 24.617C226.034 23.093 224.99 22.013 223.538 22.013C221.954 22.013 220.778 23.357 220.778 25.193C220.778 26.993 221.954 28.277 223.574 28.277C224.642 28.277 225.566 27.713 225.986 26.765ZM223.55 22.841C224.39 22.841 224.978 23.513 225.014 24.545H221.906C222.086 23.513 222.722 22.841 223.55 22.841ZM234.854 26.657L233.99 26.321C233.702 26.981 233.222 27.401 232.562 27.401C231.59 27.401 230.882 26.477 230.882 25.193C230.882 23.849 231.566 22.877 232.514 22.877C233.114 22.877 233.63 23.249 233.918 23.945L234.806 23.585C234.386 22.625 233.582 22.013 232.49 22.013C230.93 22.013 229.802 23.345 229.802 25.193C229.802 26.981 230.942 28.277 232.526 28.277C233.618 28.277 234.47 27.593 234.854 26.657ZM241.421 25.157C241.421 23.333 240.209 22.013 238.541 22.013C236.873 22.013 235.649 23.333 235.649 25.157C235.649 26.957 236.873 28.277 238.541 28.277C240.209 28.277 241.421 26.957 241.421 25.157ZM236.729 25.157C236.729 23.837 237.485 22.865 238.541 22.865C239.585 22.865 240.341 23.837 240.341 25.157C240.341 26.453 239.585 27.413 238.541 27.413C237.485 27.413 236.729 26.453 236.729 25.157ZM247.824 28.121V24.185C247.824 22.913 246.936 22.013 245.772 22.013C244.92 22.013 244.2 22.517 243.804 23.081V22.169H242.82V28.121H243.84V23.801C244.212 23.273 244.86 22.877 245.532 22.877C246.276 22.877 246.804 23.429 246.804 24.257V28.121H247.824ZM254.153 26.489C254.153 25.385 253.217 24.929 251.873 24.641C250.865 24.413 250.289 24.233 250.289 23.705C250.289 23.201 250.853 22.853 251.645 22.853C252.473 22.853 253.025 23.201 253.301 23.777L254.117 23.453C253.769 22.721 253.037 22.013 251.657 22.013C250.253 22.013 249.293 22.757 249.293 23.765C249.293 24.797 250.265 25.277 251.585 25.553C252.605 25.769 253.169 25.973 253.169 26.537C253.169 27.077 252.665 27.449 251.789 27.449C250.793 27.449 250.157 27.005 249.857 26.417L249.017 26.741C249.425 27.677 250.385 28.277 251.741 28.277C253.253 28.277 254.153 27.545 254.153 26.489ZM260.478 28.217L260.526 27.437C260.454 27.449 260.334 27.461 260.262 27.461C259.902 27.461 259.722 27.209 259.722 26.885V24.149C259.722 22.769 258.882 22.013 257.586 22.013C256.554 22.013 255.654 22.589 255.222 23.525L256.014 23.849C256.314 23.285 256.782 22.865 257.49 22.865C258.222 22.865 258.702 23.369 258.702 24.113V24.581L257.31 24.749C255.99 24.917 255.054 25.553 255.054 26.657C255.054 27.605 255.81 28.277 256.866 28.277C257.706 28.277 258.366 27.869 258.75 27.233C258.894 27.917 259.338 28.277 260.01 28.277C260.19 28.277 260.334 28.253 260.478 28.217ZM257.142 27.449C256.542 27.449 256.122 27.089 256.122 26.585C256.122 25.973 256.698 25.613 257.49 25.517L258.702 25.373V26.465C258.39 27.041 257.802 27.449 257.142 27.449ZM264.185 27.425C263.621 27.425 262.997 27.125 262.637 26.693V23.801C262.949 23.321 263.537 22.853 264.233 22.853C265.229 22.853 265.973 23.753 265.973 25.121C265.973 26.477 265.229 27.425 264.185 27.425ZM267.053 25.121C267.053 23.297 265.901 22.013 264.497 22.013C263.585 22.013 262.913 22.565 262.601 23.057V22.169H261.617V30.305H262.637V27.497C263.021 27.965 263.681 28.277 264.389 28.277C265.889 28.277 267.053 26.945 267.053 25.121ZM273.236 26.765L272.42 26.453C272.108 27.065 271.532 27.437 270.884 27.437C269.888 27.437 269.168 26.609 269.096 25.361H273.224C273.26 25.205 273.284 24.881 273.284 24.617C273.284 23.093 272.24 22.013 270.788 22.013C269.204 22.013 268.028 23.357 268.028 25.193C268.028 26.993 269.204 28.277 270.824 28.277C271.892 28.277 272.816 27.713 273.236 26.765ZM270.8 22.841C271.64 22.841 272.228 23.513 272.264 24.545H269.156C269.336 23.513 269.972 22.841 270.8 22.841ZM273.976 22.169L276.124 28.121H277.18L279.316 22.169H278.284L276.7 26.801H276.664L275.08 22.169H273.976ZM285.73 25.157C285.73 23.333 284.518 22.013 282.85 22.013C281.182 22.013 279.958 23.333 279.958 25.157C279.958 26.957 281.182 28.277 282.85 28.277C284.518 28.277 285.73 26.957 285.73 25.157ZM281.038 25.157C281.038 23.837 281.794 22.865 282.85 22.865C283.894 22.865 284.65 23.837 284.65 25.157C284.65 26.453 283.894 27.413 282.85 27.413C281.794 27.413 281.038 26.453 281.038 25.157ZM288.148 19.673H287.128V28.121H288.148V19.673ZM291.019 22.169H289.999V28.121H291.019V22.169ZM291.019 19.805H289.999V20.993H291.019V19.805ZM293.879 27.857V26.525H292.679V28.049H293.243C293.243 28.661 293.039 29.117 292.583 29.609L293.003 30.005C293.591 29.405 293.879 28.685 293.879 27.857ZM34.8703 38.009V37.169H32.6983V36.929C32.6983 35.945 33.1903 35.369 33.9823 35.369C34.3063 35.369 34.7023 35.429 34.9663 35.537L34.9903 34.685C34.7143 34.601 34.2343 34.517 33.8743 34.517C32.5063 34.517 31.6783 35.417 31.6783 36.941V37.169H30.9103V38.009H31.6783V43.121H32.6983V38.009H34.8703ZM40.7283 43.217L40.7763 42.437C40.7043 42.449 40.5843 42.461 40.5123 42.461C40.1523 42.461 39.9723 42.209 39.9723 41.885V39.149C39.9723 37.769 39.1323 37.013 37.8363 37.013C36.8043 37.013 35.9043 37.589 35.4723 38.525L36.2643 38.849C36.5643 38.285 37.0323 37.865 37.7403 37.865C38.4723 37.865 38.9523 38.369 38.9523 39.113V39.581L37.5603 39.749C36.2403 39.917 35.3043 40.553 35.3043 41.657C35.3043 42.605 36.0603 43.277 37.1163 43.277C37.9563 43.277 38.6163 42.869 39.0003 42.233C39.1443 42.917 39.5883 43.277 40.2603 43.277C40.4403 43.277 40.5843 43.253 40.7283 43.217ZM37.3923 42.449C36.7923 42.449 36.3723 42.089 36.3723 41.585C36.3723 40.973 36.9483 40.613 37.7403 40.517L38.9523 40.373V41.465C38.6403 42.041 38.0523 42.449 37.3923 42.449ZM46.4866 41.657L45.6226 41.321C45.3346 41.981 44.8546 42.401 44.1946 42.401C43.2226 42.401 42.5146 41.477 42.5146 40.193C42.5146 38.849 43.1986 37.877 44.1466 37.877C44.7466 37.877 45.2626 38.249 45.5506 38.945L46.4386 38.585C46.0186 37.625 45.2146 37.013 44.1226 37.013C42.5626 37.013 41.4346 38.345 41.4346 40.193C41.4346 41.981 42.5746 43.277 44.1586 43.277C45.2506 43.277 46.1026 42.593 46.4866 41.657ZM52.502 41.765L51.686 41.453C51.374 42.065 50.798 42.437 50.15 42.437C49.154 42.437 48.434 41.609 48.362 40.361H52.49C52.526 40.205 52.55 39.881 52.55 39.617C52.55 38.093 51.506 37.013 50.054 37.013C48.47 37.013 47.294 38.357 47.294 40.193C47.294 41.993 48.47 43.277 50.09 43.277C51.158 43.277 52.082 42.713 52.502 41.765ZM50.066 37.841C50.906 37.841 51.494 38.513 51.53 39.545H48.422C48.602 38.513 49.238 37.841 50.066 37.841ZM58.9878 43.121V39.185C58.9878 37.913 58.0998 37.013 56.9358 37.013C56.0838 37.013 55.3638 37.517 54.9678 38.081V37.169H53.9838V43.121H55.0038V38.801C55.3758 38.273 56.0238 37.877 56.6958 37.877C57.4398 37.877 57.9678 38.429 57.9678 39.257V43.121H58.9878ZM63.133 42.425C62.137 42.425 61.429 41.477 61.429 40.181C61.429 38.849 62.173 37.877 63.205 37.877C63.841 37.877 64.429 38.165 64.741 38.621V41.561C64.393 42.077 63.757 42.425 63.133 42.425ZM65.761 43.121V34.673H64.741V37.817C64.333 37.337 63.637 37.013 62.989 37.013C61.453 37.013 60.337 38.345 60.337 40.193C60.337 41.981 61.417 43.277 62.905 43.277C63.589 43.277 64.357 42.857 64.801 42.269V43.121H65.761ZM72.9407 40.157C72.9407 38.333 71.7287 37.013 70.0607 37.013C68.3927 37.013 67.1687 38.333 67.1687 40.157C67.1687 41.957 68.3927 43.277 70.0607 43.277C71.7287 43.277 72.9407 41.957 72.9407 40.157ZM68.2487 40.157C68.2487 38.837 69.0047 37.865 70.0607 37.865C71.1047 37.865 71.8607 38.837 71.8607 40.157C71.8607 41.453 71.1047 42.413 70.0607 42.413C69.0047 42.413 68.2487 41.453 68.2487 40.157ZM76.2103 37.169L78.3583 43.121H79.4143L81.5503 37.169H80.5183L78.9343 41.801H78.8983L77.3143 37.169H76.2103ZM87.4122 41.765L86.5962 41.453C86.2842 42.065 85.7082 42.437 85.0602 42.437C84.0642 42.437 83.3442 41.609 83.2722 40.361H87.4002C87.4362 40.205 87.4602 39.881 87.4602 39.617C87.4602 38.093 86.4162 37.013 84.9642 37.013C83.3802 37.013 82.2042 38.357 82.2042 40.193C82.2042 41.993 83.3802 43.277 85.0002 43.277C86.0682 43.277 86.9922 42.713 87.4122 41.765ZM84.9762 37.841C85.8162 37.841 86.4042 38.513 86.4402 39.545H83.3322C83.5122 38.513 84.1482 37.841 84.9762 37.841ZM91.258 42.425C90.262 42.425 89.554 41.477 89.554 40.181C89.554 38.849 90.298 37.877 91.33 37.877C91.966 37.877 92.554 38.165 92.866 38.621V41.561C92.518 42.077 91.882 42.425 91.258 42.425ZM93.886 43.121V34.673H92.866V37.817C92.458 37.337 91.762 37.013 91.114 37.013C89.578 37.013 88.462 38.345 88.462 40.193C88.462 41.981 89.542 43.277 91.03 43.277C91.714 43.277 92.482 42.857 92.926 42.269V43.121H93.886ZM100.514 41.765L99.6977 41.453C99.3857 42.065 98.8097 42.437 98.1617 42.437C97.1657 42.437 96.4457 41.609 96.3737 40.361H100.502C100.538 40.205 100.562 39.881 100.562 39.617C100.562 38.093 99.5177 37.013 98.0657 37.013C96.4817 37.013 95.3057 38.357 95.3057 40.193C95.3057 41.993 96.4817 43.277 98.1017 43.277C99.1697 43.277 100.094 42.713 100.514 41.765ZM98.0777 37.841C98.9177 37.841 99.5057 38.513 99.5417 39.545H96.4337C96.6137 38.513 97.2497 37.841 98.0777 37.841ZM103.016 43.121V39.569C103.112 38.777 103.592 38.033 104.516 38.033C104.72 38.033 105.008 38.069 105.176 38.117V37.109C105.056 37.061 104.768 37.013 104.564 37.013C103.868 37.013 103.22 37.625 102.98 38.381V37.169H101.996V43.121H103.016ZM110.955 41.765L110.139 41.453C109.827 42.065 109.251 42.437 108.603 42.437C107.607 42.437 106.887 41.609 106.815 40.361H110.943C110.979 40.205 111.003 39.881 111.003 39.617C111.003 38.093 109.959 37.013 108.507 37.013C106.923 37.013 105.747 38.357 105.747 40.193C105.747 41.993 106.923 43.277 108.543 43.277C109.611 43.277 110.535 42.713 110.955 41.765ZM108.519 37.841C109.359 37.841 109.947 38.513 109.983 39.545H106.875C107.055 38.513 107.691 37.841 108.519 37.841ZM113.445 42.857V41.525H112.245V43.049H112.809C112.809 43.661 112.605 44.117 112.149 44.609L112.569 45.005C113.157 44.405 113.445 43.685 113.445 42.857ZM122.483 41.657L121.619 41.321C121.331 41.981 120.851 42.401 120.191 42.401C119.219 42.401 118.511 41.477 118.511 40.193C118.511 38.849 119.195 37.877 120.143 37.877C120.743 37.877 121.259 38.249 121.547 38.945L122.435 38.585C122.015 37.625 121.211 37.013 120.119 37.013C118.559 37.013 117.431 38.345 117.431 40.193C117.431 41.981 118.571 43.277 120.155 43.277C121.247 43.277 122.099 42.593 122.483 41.657ZM128.726 43.121V39.197C128.726 37.913 127.838 37.013 126.674 37.013C125.846 37.013 125.138 37.481 124.742 38.033V34.673H123.722V43.121H124.742V38.801C125.114 38.273 125.762 37.877 126.434 37.877C127.178 37.877 127.706 38.429 127.706 39.257V43.121H128.726ZM135.283 41.765L134.467 41.453C134.155 42.065 133.579 42.437 132.931 42.437C131.935 42.437 131.215 41.609 131.143 40.361H135.271C135.307 40.205 135.331 39.881 135.331 39.617C135.331 38.093 134.287 37.013 132.835 37.013C131.251 37.013 130.075 38.357 130.075 40.193C130.075 41.993 131.251 43.277 132.871 43.277C133.939 43.277 134.863 42.713 135.283 41.765ZM132.847 37.841C133.687 37.841 134.275 38.513 134.311 39.545H131.203C131.383 38.513 132.019 37.841 132.847 37.841ZM144.079 41.489C144.079 40.385 143.143 39.929 141.799 39.641C140.791 39.413 140.215 39.233 140.215 38.705C140.215 38.201 140.779 37.853 141.571 37.853C142.399 37.853 142.951 38.201 143.227 38.777L144.043 38.453C143.695 37.721 142.963 37.013 141.583 37.013C140.179 37.013 139.219 37.757 139.219 38.765C139.219 39.797 140.191 40.277 141.511 40.553C142.531 40.769 143.095 40.973 143.095 41.537C143.095 42.077 142.591 42.449 141.715 42.449C140.719 42.449 140.083 42.005 139.783 41.417L138.943 41.741C139.351 42.677 140.311 43.277 141.667 43.277C143.179 43.277 144.079 42.545 144.079 41.489ZM146.492 37.169H145.472V43.121H146.492V37.169ZM146.492 34.805H145.472V35.993H146.492V34.805ZM153.275 43.217L153.323 42.437C153.251 42.449 153.131 42.461 153.059 42.461C152.699 42.461 152.519 42.209 152.519 41.885V39.149C152.519 37.769 151.679 37.013 150.383 37.013C149.351 37.013 148.451 37.589 148.019 38.525L148.811 38.849C149.111 38.285 149.579 37.865 150.287 37.865C151.019 37.865 151.499 38.369 151.499 39.113V39.581L150.107 39.749C148.787 39.917 147.851 40.553 147.851 41.657C147.851 42.605 148.607 43.277 149.663 43.277C150.503 43.277 151.163 42.869 151.547 42.233C151.691 42.917 152.135 43.277 152.807 43.277C152.987 43.277 153.131 43.253 153.275 43.217ZM149.939 42.449C149.339 42.449 148.919 42.089 148.919 41.585C148.919 40.973 149.495 40.613 150.287 40.517L151.499 40.373V41.465C151.187 42.041 150.599 42.449 149.939 42.449ZM162.766 43.121V39.185C162.766 37.913 161.902 37.013 160.786 37.013C159.994 37.013 159.298 37.493 158.878 38.129C158.554 37.445 157.93 37.013 157.198 37.013C156.406 37.013 155.746 37.517 155.398 38.081V37.169H154.414V43.121H155.434V38.777C155.77 38.273 156.346 37.877 156.934 37.877C157.594 37.877 158.074 38.429 158.074 39.257V43.121H159.094V39.185C159.094 39.005 159.082 38.837 159.046 38.669C159.406 38.213 159.982 37.877 160.558 37.877C161.242 37.877 161.746 38.429 161.746 39.257V43.121H162.766ZM169.855 40.157C169.855 38.333 168.643 37.013 166.975 37.013C165.307 37.013 164.083 38.333 164.083 40.157C164.083 41.957 165.307 43.277 166.975 43.277C168.643 43.277 169.855 41.957 169.855 40.157ZM165.163 40.157C165.163 38.837 165.919 37.865 166.975 37.865C168.019 37.865 168.775 38.837 168.775 40.157C168.775 41.453 168.019 42.413 166.975 42.413C165.919 42.413 165.163 41.453 165.163 40.157ZM176.383 42.425C175.387 42.425 174.679 41.477 174.679 40.181C174.679 38.849 175.423 37.877 176.455 37.877C177.091 37.877 177.679 38.165 177.991 38.621V41.561C177.643 42.077 177.007 42.425 176.383 42.425ZM179.011 43.121V34.673H177.991V37.817C177.583 37.337 176.887 37.013 176.239 37.013C174.703 37.013 173.587 38.345 173.587 40.193C173.587 41.981 174.667 43.277 176.155 43.277C176.839 43.277 177.607 42.857 178.051 42.269V43.121H179.011ZM185.639 41.765L184.823 41.453C184.511 42.065 183.935 42.437 183.287 42.437C182.291 42.437 181.571 41.609 181.499 40.361H185.627C185.663 40.205 185.687 39.881 185.687 39.617C185.687 38.093 184.643 37.013 183.191 37.013C181.607 37.013 180.431 38.357 180.431 40.193C180.431 41.993 181.607 43.277 183.227 43.277C184.295 43.277 185.219 42.713 185.639 41.765ZM183.203 37.841C184.043 37.841 184.631 38.513 184.667 39.545H181.559C181.739 38.513 182.375 37.841 183.203 37.841ZM188.141 37.169H187.121V43.121H188.141V37.169ZM188.141 34.805H187.121V35.993H188.141V34.805ZM195.325 42.425C194.761 42.425 194.137 42.125 193.777 41.693V38.801C194.089 38.321 194.677 37.853 195.373 37.853C196.369 37.853 197.113 38.753 197.113 40.121C197.113 41.477 196.369 42.425 195.325 42.425ZM198.193 40.121C198.193 38.297 197.041 37.013 195.637 37.013C194.725 37.013 194.053 37.565 193.741 38.057V37.169H192.757V45.305H193.777V42.497C194.161 42.965 194.821 43.277 195.529 43.277C197.029 43.277 198.193 41.945 198.193 40.121ZM200.621 43.121V39.569C200.717 38.777 201.197 38.033 202.121 38.033C202.325 38.033 202.613 38.069 202.781 38.117V37.109C202.661 37.061 202.373 37.013 202.169 37.013C201.473 37.013 200.825 37.625 200.585 38.381V37.169H199.601V43.121H200.621ZM209.113 40.157C209.113 38.333 207.901 37.013 206.233 37.013C204.565 37.013 203.341 38.333 203.341 40.157C203.341 41.957 204.565 43.277 206.233 43.277C207.901 43.277 209.113 41.957 209.113 40.157ZM204.421 40.157C204.421 38.837 205.177 37.865 206.233 37.865C207.277 37.865 208.033 38.837 208.033 40.157C208.033 41.453 207.277 42.413 206.233 42.413C205.177 42.413 204.421 41.453 204.421 40.157ZM213.886 38.009V37.169H211.714V36.929C211.714 35.945 212.206 35.369 212.998 35.369C213.322 35.369 213.718 35.429 213.982 35.537L214.006 34.685C213.73 34.601 213.25 34.517 212.89 34.517C211.522 34.517 210.694 35.417 210.694 36.941V37.169H209.926V38.009H210.694V43.121H211.714V38.009H213.886ZM219.412 41.765L218.596 41.453C218.284 42.065 217.708 42.437 217.06 42.437C216.064 42.437 215.344 41.609 215.272 40.361H219.4C219.436 40.205 219.46 39.881 219.46 39.617C219.46 38.093 218.416 37.013 216.964 37.013C215.38 37.013 214.204 38.357 214.204 40.193C214.204 41.993 215.38 43.277 217 43.277C218.068 43.277 218.992 42.713 219.412 41.765ZM216.976 37.841C217.816 37.841 218.404 38.513 218.44 39.545H215.332C215.512 38.513 216.148 37.841 216.976 37.841ZM225.442 41.489C225.442 40.385 224.506 39.929 223.162 39.641C222.154 39.413 221.578 39.233 221.578 38.705C221.578 38.201 222.142 37.853 222.934 37.853C223.762 37.853 224.314 38.201 224.59 38.777L225.406 38.453C225.058 37.721 224.326 37.013 222.946 37.013C221.542 37.013 220.582 37.757 220.582 38.765C220.582 39.797 221.554 40.277 222.874 40.553C223.894 40.769 224.458 40.973 224.458 41.537C224.458 42.077 223.954 42.449 223.078 42.449C222.082 42.449 221.446 42.005 221.146 41.417L220.306 41.741C220.714 42.677 221.674 43.277 223.03 43.277C224.542 43.277 225.442 42.545 225.442 41.489ZM231.383 41.489C231.383 40.385 230.447 39.929 229.103 39.641C228.095 39.413 227.519 39.233 227.519 38.705C227.519 38.201 228.083 37.853 228.875 37.853C229.703 37.853 230.255 38.201 230.531 38.777L231.347 38.453C230.999 37.721 230.267 37.013 228.887 37.013C227.483 37.013 226.523 37.757 226.523 38.765C226.523 39.797 227.495 40.277 228.815 40.553C229.835 40.769 230.399 40.973 230.399 41.537C230.399 42.077 229.895 42.449 229.019 42.449C228.023 42.449 227.387 42.005 227.087 41.417L226.247 41.741C226.655 42.677 227.615 43.277 228.971 43.277C230.483 43.277 231.383 42.545 231.383 41.489ZM233.797 37.169H232.777V43.121H233.797V37.169ZM233.797 34.805H232.777V35.993H233.797V34.805ZM240.976 40.157C240.976 38.333 239.764 37.013 238.096 37.013C236.428 37.013 235.204 38.333 235.204 40.157C235.204 41.957 236.428 43.277 238.096 43.277C239.764 43.277 240.976 41.957 240.976 40.157ZM236.284 40.157C236.284 38.837 237.04 37.865 238.096 37.865C239.14 37.865 239.896 38.837 239.896 40.157C239.896 41.453 239.14 42.413 238.096 42.413C237.04 42.413 236.284 41.453 236.284 40.157ZM247.378 43.121V39.185C247.378 37.913 246.49 37.013 245.326 37.013C244.474 37.013 243.754 37.517 243.358 38.081V37.169H242.374V43.121H243.394V38.801C243.766 38.273 244.414 37.877 245.086 37.877C245.83 37.877 246.358 38.429 246.358 39.257V43.121H247.378ZM250.18 37.169H249.16V43.121H250.18V37.169ZM250.18 34.805H249.16V35.993H250.18V34.805ZM256.579 41.489C256.579 40.385 255.643 39.929 254.299 39.641C253.291 39.413 252.715 39.233 252.715 38.705C252.715 38.201 253.279 37.853 254.071 37.853C254.899 37.853 255.451 38.201 255.727 38.777L256.543 38.453C256.195 37.721 255.463 37.013 254.083 37.013C252.679 37.013 251.719 37.757 251.719 38.765C251.719 39.797 252.691 40.277 254.011 40.553C255.031 40.769 255.595 40.973 255.595 41.537C255.595 42.077 255.091 42.449 254.215 42.449C253.219 42.449 252.583 42.005 252.283 41.417L251.443 41.741C251.851 42.677 252.811 43.277 254.167 43.277C255.679 43.277 256.579 42.545 256.579 41.489ZM261.309 43.085V42.233C261.057 42.329 260.637 42.401 260.265 42.401C259.509 42.401 259.209 42.029 259.209 41.465V38.009H261.273V37.169H259.209V35.717H258.189V37.169H257.313V38.009H258.189V41.633C258.189 42.677 258.897 43.277 260.085 43.277C260.529 43.277 261.045 43.181 261.309 43.085ZM263.469 37.169H262.449V43.121H263.469V37.169ZM263.469 34.805H262.449V35.993H263.469V34.805ZM272.861 41.765L272.045 41.453C271.733 42.065 271.157 42.437 270.509 42.437C269.513 42.437 268.793 41.609 268.721 40.361H272.849C272.885 40.205 272.909 39.881 272.909 39.617C272.909 38.093 271.865 37.013 270.413 37.013C268.829 37.013 267.653 38.357 267.653 40.193C267.653 41.993 268.829 43.277 270.449 43.277C271.517 43.277 272.441 42.713 272.861 41.765ZM270.425 37.841C271.265 37.841 271.853 38.513 271.889 39.545H268.781C268.961 38.513 269.597 37.841 270.425 37.841ZM35.9983 56.657L35.1343 56.321C34.8463 56.981 34.3663 57.401 33.7063 57.401C32.7343 57.401 32.0263 56.477 32.0263 55.193C32.0263 53.849 32.7103 52.877 33.6583 52.877C34.2583 52.877 34.7743 53.249 35.0623 53.945L35.9503 53.585C35.5303 52.625 34.7263 52.013 33.6343 52.013C32.0743 52.013 30.9463 53.345 30.9463 55.193C30.9463 56.981 32.0863 58.277 33.6703 58.277C34.7623 58.277 35.6143 57.593 35.9983 56.657ZM42.2417 58.121V54.197C42.2417 52.913 41.3537 52.013 40.1897 52.013C39.3617 52.013 38.6537 52.481 38.2577 53.033V49.673H37.2377V58.121H38.2577V53.801C38.6297 53.273 39.2777 52.877 39.9497 52.877C40.6937 52.877 41.2217 53.429 41.2217 54.257V58.121H42.2417ZM48.7989 56.765L47.9829 56.453C47.6709 57.065 47.0949 57.437 46.4469 57.437C45.4509 57.437 44.7309 56.609 44.6589 55.361H48.7869C48.8229 55.205 48.8469 54.881 48.8469 54.617C48.8469 53.093 47.8029 52.013 46.3509 52.013C44.7669 52.013 43.5909 53.357 43.5909 55.193C43.5909 56.993 44.7669 58.277 46.3869 58.277C47.4549 58.277 48.3789 57.713 48.7989 56.765ZM46.3629 52.841C47.2029 52.841 47.7909 53.513 47.8269 54.545H44.7189C44.8989 53.513 45.5349 52.841 46.3629 52.841ZM57.6663 56.657L56.8023 56.321C56.5143 56.981 56.0343 57.401 55.3743 57.401C54.4023 57.401 53.6943 56.477 53.6943 55.193C53.6943 53.849 54.3783 52.877 55.3263 52.877C55.9263 52.877 56.4423 53.249 56.7303 53.945L57.6183 53.585C57.1983 52.625 56.3943 52.013 55.3023 52.013C53.7423 52.013 52.6143 53.345 52.6143 55.193C52.6143 56.981 53.7543 58.277 55.3383 58.277C56.4303 58.277 57.2823 57.593 57.6663 56.657ZM64.2337 55.157C64.2337 53.333 63.0217 52.013 61.3537 52.013C59.6857 52.013 58.4617 53.333 58.4617 55.157C58.4617 56.957 59.6857 58.277 61.3537 58.277C63.0217 58.277 64.2337 56.957 64.2337 55.157ZM59.5417 55.157C59.5417 53.837 60.2977 52.865 61.3537 52.865C62.3977 52.865 63.1537 53.837 63.1537 55.157C63.1537 56.453 62.3977 57.413 61.3537 57.413C60.2977 57.413 59.5417 56.453 59.5417 55.157ZM73.9843 58.121V54.185C73.9843 52.913 73.1203 52.013 72.0043 52.013C71.2123 52.013 70.5163 52.493 70.0963 53.129C69.7723 52.445 69.1483 52.013 68.4163 52.013C67.6243 52.013 66.9643 52.517 66.6163 53.081V52.169H65.6323V58.121H66.6523V53.777C66.9883 53.273 67.5643 52.877 68.1523 52.877C68.8123 52.877 69.2923 53.429 69.2923 54.257V58.121H70.3123V54.185C70.3123 54.005 70.3003 53.837 70.2643 53.669C70.6243 53.213 71.2003 52.877 71.7763 52.877C72.4603 52.877 72.9643 53.429 72.9643 54.257V58.121H73.9843ZM80.5215 56.765L79.7055 56.453C79.3935 57.065 78.8175 57.437 78.1695 57.437C77.1735 57.437 76.4535 56.609 76.3815 55.361H80.5095C80.5455 55.205 80.5695 54.881 80.5695 54.617C80.5695 53.093 79.5255 52.013 78.0735 52.013C76.4895 52.013 75.3135 53.357 75.3135 55.193C75.3135 56.993 76.4895 58.277 78.1095 58.277C79.1775 58.277 80.1015 57.713 80.5215 56.765ZM78.0855 52.841C78.9255 52.841 79.5135 53.513 79.5495 54.545H76.4415C76.6215 53.513 77.2575 52.841 78.0855 52.841ZM88.153 58.085V57.233C87.901 57.329 87.481 57.401 87.109 57.401C86.353 57.401 86.053 57.029 86.053 56.465V53.009H88.117V52.169H86.053V50.717H85.033V52.169H84.157V53.009H85.033V56.633C85.033 57.677 85.741 58.277 86.929 58.277C87.373 58.277 87.889 58.181 88.153 58.085ZM94.2244 58.217L94.2724 57.437C94.2004 57.449 94.0804 57.461 94.0084 57.461C93.6484 57.461 93.4684 57.209 93.4684 56.885V54.149C93.4684 52.769 92.6284 52.013 91.3324 52.013C90.3004 52.013 89.4004 52.589 88.9684 53.525L89.7604 53.849C90.0604 53.285 90.5284 52.865 91.2364 52.865C91.9684 52.865 92.4484 53.369 92.4484 54.113V54.581L91.0564 54.749C89.7364 54.917 88.8004 55.553 88.8004 56.657C88.8004 57.605 89.5564 58.277 90.6124 58.277C91.4524 58.277 92.1124 57.869 92.4964 57.233C92.6404 57.917 93.0844 58.277 93.7564 58.277C93.9364 58.277 94.0804 58.253 94.2244 58.217ZM90.8884 57.449C90.2884 57.449 89.8684 57.089 89.8684 56.585C89.8684 55.973 90.4444 55.613 91.2364 55.517L92.4484 55.373V56.465C92.1364 57.041 91.5484 57.449 90.8884 57.449ZM96.3827 49.673H95.3627V58.121H96.3827V49.673ZM99.2538 52.169H98.2338V58.121H99.2538V52.169ZM99.2538 49.805H98.2338V50.993H99.2538V49.805ZM112.223 58.121V54.185C112.223 52.913 111.359 52.013 110.243 52.013C109.451 52.013 108.755 52.493 108.335 53.129C108.011 52.445 107.387 52.013 106.655 52.013C105.863 52.013 105.203 52.517 104.855 53.081V52.169H103.871V58.121H104.891V53.777C105.227 53.273 105.803 52.877 106.391 52.877C107.051 52.877 107.531 53.429 107.531 54.257V58.121H108.551V54.185C108.551 54.005 108.539 53.837 108.503 53.669C108.863 53.213 109.439 52.877 110.015 52.877C110.699 52.877 111.203 53.429 111.203 54.257V58.121H112.223ZM118.76 56.765L117.944 56.453C117.632 57.065 117.056 57.437 116.408 57.437C115.412 57.437 114.692 56.609 114.62 55.361H118.748C118.784 55.205 118.808 54.881 118.808 54.617C118.808 53.093 117.764 52.013 116.312 52.013C114.728 52.013 113.552 53.357 113.552 55.193C113.552 56.993 114.728 58.277 116.348 58.277C117.416 58.277 118.34 57.713 118.76 56.765ZM116.324 52.841C117.164 52.841 117.752 53.513 117.788 54.545H114.68C114.86 53.513 115.496 52.841 116.324 52.841ZM121.262 58.121V54.569C121.358 53.777 121.838 53.033 122.762 53.033C122.966 53.033 123.254 53.069 123.422 53.117V52.109C123.302 52.061 123.014 52.013 122.81 52.013C122.114 52.013 121.466 52.625 121.226 53.381V52.169H120.242V58.121H121.262ZM125.609 52.169H124.589V58.121H125.609V52.169ZM125.609 49.805H124.589V50.993H125.609V49.805ZM130.844 58.085V57.233C130.592 57.329 130.172 57.401 129.8 57.401C129.044 57.401 128.744 57.029 128.744 56.465V53.009H130.808V52.169H128.744V50.717H127.724V52.169H126.848V53.009H127.724V56.633C127.724 57.677 128.432 58.277 129.62 58.277C130.064 58.277 130.58 58.181 130.844 58.085ZM133.004 52.169H131.984V58.121H133.004V52.169ZM133.004 49.805H131.984V50.993H133.004V49.805ZM139.787 58.217L139.835 57.437C139.763 57.449 139.643 57.461 139.571 57.461C139.211 57.461 139.031 57.209 139.031 56.885V54.149C139.031 52.769 138.191 52.013 136.895 52.013C135.863 52.013 134.963 52.589 134.531 53.525L135.323 53.849C135.623 53.285 136.091 52.865 136.799 52.865C137.531 52.865 138.011 53.369 138.011 54.113V54.581L136.619 54.749C135.299 54.917 134.363 55.553 134.363 56.657C134.363 57.605 135.119 58.277 136.175 58.277C137.015 58.277 137.675 57.869 138.059 57.233C138.203 57.917 138.647 58.277 139.319 58.277C139.499 58.277 139.643 58.253 139.787 58.217ZM136.451 57.449C135.851 57.449 135.431 57.089 135.431 56.585C135.431 55.973 136.007 55.613 136.799 55.517L138.011 55.373V56.465C137.699 57.041 137.111 57.449 136.451 57.449ZM149.277 58.121V54.185C149.277 52.913 148.413 52.013 147.297 52.013C146.505 52.013 145.809 52.493 145.389 53.129C145.065 52.445 144.441 52.013 143.709 52.013C142.917 52.013 142.257 52.517 141.909 53.081V52.169H140.925V58.121H141.945V53.777C142.281 53.273 142.857 52.877 143.445 52.877C144.105 52.877 144.585 53.429 144.585 54.257V58.121H145.605V54.185C145.605 54.005 145.593 53.837 145.557 53.669C145.917 53.213 146.493 52.877 147.069 52.877C147.753 52.877 148.257 53.429 148.257 54.257V58.121H149.277ZM156.367 55.157C156.367 53.333 155.155 52.013 153.487 52.013C151.819 52.013 150.595 53.333 150.595 55.157C150.595 56.957 151.819 58.277 153.487 58.277C155.155 58.277 156.367 56.957 156.367 55.157ZM151.675 55.157C151.675 53.837 152.431 52.865 153.487 52.865C154.531 52.865 155.287 53.837 155.287 55.157C155.287 56.453 154.531 57.413 153.487 57.413C152.431 57.413 151.675 56.453 151.675 55.157ZM162.895 57.425C161.899 57.425 161.191 56.477 161.191 55.181C161.191 53.849 161.935 52.877 162.967 52.877C163.603 52.877 164.191 53.165 164.503 53.621V56.561C164.155 57.077 163.519 57.425 162.895 57.425ZM165.523 58.121V49.673H164.503V52.817C164.095 52.337 163.399 52.013 162.751 52.013C161.215 52.013 160.099 53.345 160.099 55.193C160.099 56.981 161.179 58.277 162.667 58.277C163.351 58.277 164.119 57.857 164.563 57.269V58.121H165.523ZM168.394 52.169H167.374V58.121H168.394V52.169ZM168.394 49.805H167.374V50.993H168.394V49.805ZM177.787 56.765L176.971 56.453C176.659 57.065 176.083 57.437 175.435 57.437C174.439 57.437 173.719 56.609 173.647 55.361H177.775C177.811 55.205 177.835 54.881 177.835 54.617C177.835 53.093 176.791 52.013 175.339 52.013C173.755 52.013 172.579 53.357 172.579 55.193C172.579 56.993 173.755 58.277 175.375 58.277C176.443 58.277 177.367 57.713 177.787 56.765ZM175.351 52.841C176.191 52.841 176.779 53.513 176.815 54.545H173.707C173.887 53.513 174.523 52.841 175.351 52.841ZM183.817 56.489C183.817 55.385 182.881 54.929 181.537 54.641C180.529 54.413 179.953 54.233 179.953 53.705C179.953 53.201 180.517 52.853 181.309 52.853C182.137 52.853 182.689 53.201 182.965 53.777L183.781 53.453C183.433 52.721 182.701 52.013 181.321 52.013C179.917 52.013 178.957 52.757 178.957 53.765C178.957 54.797 179.929 55.277 181.249 55.553C182.269 55.769 182.833 55.973 182.833 56.537C182.833 57.077 182.329 57.449 181.453 57.449C180.457 57.449 179.821 57.005 179.521 56.417L178.681 56.741C179.089 57.677 180.049 58.277 181.405 58.277C182.917 58.277 183.817 57.545 183.817 56.489ZM189.758 56.489C189.758 55.385 188.822 54.929 187.478 54.641C186.47 54.413 185.894 54.233 185.894 53.705C185.894 53.201 186.458 52.853 187.25 52.853C188.078 52.853 188.63 53.201 188.906 53.777L189.722 53.453C189.374 52.721 188.642 52.013 187.262 52.013C185.858 52.013 184.898 52.757 184.898 53.765C184.898 54.797 185.87 55.277 187.19 55.553C188.21 55.769 188.774 55.973 188.774 56.537C188.774 57.077 188.27 57.449 187.394 57.449C186.398 57.449 185.762 57.005 185.462 56.417L184.622 56.741C185.03 57.677 185.99 58.277 187.346 58.277C188.858 58.277 189.758 57.545 189.758 56.489ZM195.928 56.765L195.112 56.453C194.8 57.065 194.224 57.437 193.576 57.437C192.58 57.437 191.86 56.609 191.788 55.361H195.916C195.952 55.205 195.976 54.881 195.976 54.617C195.976 53.093 194.932 52.013 193.48 52.013C191.896 52.013 190.72 53.357 190.72 55.193C190.72 56.993 191.896 58.277 193.516 58.277C194.584 58.277 195.508 57.713 195.928 56.765ZM193.492 52.841C194.332 52.841 194.92 53.513 194.956 54.545H191.848C192.028 53.513 192.664 52.841 193.492 52.841ZM198.43 58.121V54.569C198.526 53.777 199.006 53.033 199.93 53.033C200.134 53.033 200.422 53.069 200.59 53.117V52.109C200.47 52.061 200.182 52.013 199.978 52.013C199.282 52.013 198.634 52.625 198.394 53.381V52.169H197.41V58.121H198.43ZM206.369 56.765L205.553 56.453C205.241 57.065 204.665 57.437 204.017 57.437C203.021 57.437 202.301 56.609 202.229 55.361H206.357C206.393 55.205 206.417 54.881 206.417 54.617C206.417 53.093 205.373 52.013 203.921 52.013C202.337 52.013 201.161 53.357 201.161 55.193C201.161 56.993 202.337 58.277 203.957 58.277C205.025 58.277 205.949 57.713 206.369 56.765ZM203.933 52.841C204.773 52.841 205.361 53.513 205.397 54.545H202.289C202.469 53.513 203.105 52.841 203.933 52.841ZM214.001 58.085V57.233C213.749 57.329 213.329 57.401 212.957 57.401C212.201 57.401 211.901 57.029 211.901 56.465V53.009H213.965V52.169H211.901V50.717H210.881V52.169H210.005V53.009H210.881V56.633C210.881 57.677 211.589 58.277 212.777 58.277C213.221 58.277 213.737 58.181 214.001 58.085ZM216.16 58.121V54.569C216.256 53.777 216.736 53.033 217.66 53.033C217.864 53.033 218.152 53.069 218.32 53.117V52.109C218.2 52.061 217.912 52.013 217.708 52.013C217.012 52.013 216.364 52.625 216.124 53.381V52.169H215.14V58.121H216.16ZM224.279 58.217L224.327 57.437C224.255 57.449 224.135 57.461 224.063 57.461C223.703 57.461 223.523 57.209 223.523 56.885V54.149C223.523 52.769 222.683 52.013 221.387 52.013C220.355 52.013 219.455 52.589 219.023 53.525L219.815 53.849C220.115 53.285 220.583 52.865 221.291 52.865C222.023 52.865 222.503 53.369 222.503 54.113V54.581L221.111 54.749C219.791 54.917 218.855 55.553 218.855 56.657C218.855 57.605 219.611 58.277 220.667 58.277C221.507 58.277 222.167 57.869 222.551 57.233C222.695 57.917 223.139 58.277 223.811 58.277C223.991 58.277 224.135 58.253 224.279 58.217ZM220.943 57.449C220.343 57.449 219.923 57.089 219.923 56.585C219.923 55.973 220.499 55.613 221.291 55.517L222.503 55.373V56.465C222.191 57.041 221.603 57.449 220.943 57.449ZM228.801 58.085V57.233C228.549 57.329 228.129 57.401 227.757 57.401C227.001 57.401 226.701 57.029 226.701 56.465V53.009H228.765V52.169H226.701V50.717H225.681V52.169H224.805V53.009H225.681V56.633C225.681 57.677 226.389 58.277 227.577 58.277C228.021 58.277 228.537 58.181 228.801 58.085ZM233.325 58.085V57.233C233.073 57.329 232.653 57.401 232.281 57.401C231.525 57.401 231.225 57.029 231.225 56.465V53.009H233.289V52.169H231.225V50.717H230.205V52.169H229.329V53.009H230.205V56.633C230.205 57.677 230.913 58.277 232.101 58.277C232.545 58.277 233.061 58.181 233.325 58.085ZM239.396 58.217L239.444 57.437C239.372 57.449 239.252 57.461 239.18 57.461C238.82 57.461 238.64 57.209 238.64 56.885V54.149C238.64 52.769 237.8 52.013 236.504 52.013C235.472 52.013 234.572 52.589 234.14 53.525L234.932 53.849C235.232 53.285 235.7 52.865 236.408 52.865C237.14 52.865 237.62 53.369 237.62 54.113V54.581L236.228 54.749C234.908 54.917 233.972 55.553 233.972 56.657C233.972 57.605 234.728 58.277 235.784 58.277C236.624 58.277 237.284 57.869 237.668 57.233C237.812 57.917 238.256 58.277 238.928 58.277C239.108 58.277 239.252 58.253 239.396 58.217ZM236.06 57.449C235.46 57.449 235.04 57.089 235.04 56.585C235.04 55.973 235.616 55.613 236.408 55.517L237.62 55.373V56.465C237.308 57.041 236.72 57.449 236.06 57.449ZM243.919 58.085V57.233C243.667 57.329 243.247 57.401 242.875 57.401C242.119 57.401 241.819 57.029 241.819 56.465V53.009H243.883V52.169H241.819V50.717H240.799V52.169H239.923V53.009H240.799V56.633C240.799 57.677 241.507 58.277 242.695 58.277C243.139 58.277 243.655 58.181 243.919 58.085ZM246.078 52.169H245.058V58.121H246.078V52.169ZM246.078 49.805H245.058V50.993H246.078V49.805ZM253.041 55.613L250.869 58.049L250.305 57.605L251.733 55.409L250.305 53.213L250.869 52.769L253.041 55.205V55.613ZM250.125 55.613L248.109 57.797L247.557 57.341L248.877 55.409L247.557 53.477L248.109 53.021L250.125 55.205V55.613Z" fill="black"/>
</svg>
