<svg width="331" height="91" viewBox="0 0 331 91" fill="none" xmlns="http://www.w3.org/2000/svg">
<path d="M0.499817 15.553V74.2818L14.3486 90.2987H315.464L330.5 74.2818V17.8411L315.464 0.298706H14.3486L0.499817 15.553Z" fill="white"/>
<path d="M31.193 25.613L33.365 28.049L33.929 27.605L32.501 25.409L33.929 23.213L33.365 22.769L31.193 25.205V25.613ZM34.109 25.613L36.125 27.797L36.677 27.341L35.357 25.409L36.677 23.477L36.125 23.021L34.109 25.205V25.613ZM40.8174 20.225C39.2574 20.225 37.9494 21.185 37.9494 22.493C37.9494 23.861 39.0894 24.353 40.6614 24.737C41.9814 25.061 42.5814 25.337 42.5814 26.057C42.5814 26.825 41.8494 27.329 40.8534 27.329C39.6894 27.329 38.9694 26.789 38.5854 25.913L37.6014 26.273C38.1174 27.497 39.2694 28.265 40.8414 28.265C42.4974 28.265 43.6974 27.341 43.6974 25.949C43.6974 24.617 42.5934 24.077 40.9854 23.681C39.6654 23.357 39.0774 23.105 39.0774 22.409C39.0774 21.689 39.8694 21.161 40.8174 21.161C41.7774 21.161 42.4494 21.653 42.7854 22.457L43.7574 22.073C43.3014 21.053 42.3174 20.225 40.8174 20.225ZM46.2281 22.169H45.2081V28.121H46.2281V22.169ZM46.2281 19.805H45.2081V20.993H46.2281V19.805ZM53.0112 28.217L53.0592 27.437C52.9872 27.449 52.8672 27.461 52.7952 27.461C52.4352 27.461 52.2552 27.209 52.2552 26.885V24.149C52.2552 22.769 51.4152 22.013 50.1192 22.013C49.0872 22.013 48.1872 22.589 47.7552 23.525L48.5472 23.849C48.8472 23.285 49.3152 22.865 50.0232 22.865C50.7552 22.865 51.2352 23.369 51.2352 24.113V24.581L49.8432 24.749C48.5232 24.917 47.5872 25.553 47.5872 26.657C47.5872 27.605 48.3432 28.277 49.3992 28.277C50.2392 28.277 50.8992 27.869 51.2832 27.233C51.4272 27.917 51.8712 28.277 52.5432 28.277C52.7232 28.277 52.8672 28.253 53.0112 28.217ZM49.6752 27.449C49.0752 27.449 48.6552 27.089 48.6552 26.585C48.6552 25.973 49.2312 25.613 50.0232 25.517L51.2352 25.373V26.465C50.9232 27.041 50.3352 27.449 49.6752 27.449ZM62.5015 28.121V24.185C62.5015 22.913 61.6375 22.013 60.5215 22.013C59.7295 22.013 59.0335 22.493 58.6135 23.129C58.2895 22.445 57.6655 22.013 56.9335 22.013C56.1415 22.013 55.4815 22.517 55.1335 23.081V22.169H54.1495V28.121H55.1695V23.777C55.5055 23.273 56.0815 22.877 56.6695 22.877C57.3295 22.877 57.8095 23.429 57.8095 24.257V28.121H58.8295V24.185C58.8295 24.005 58.8175 23.837 58.7815 23.669C59.1415 23.213 59.7175 22.877 60.2935 22.877C60.9775 22.877 61.4815 23.429 61.4815 24.257V28.121H62.5015ZM69.5908 25.157C69.5908 23.333 68.3788 22.013 66.7108 22.013C65.0428 22.013 63.8188 23.333 63.8188 25.157C63.8188 26.957 65.0428 28.277 66.7108 28.277C68.3788 28.277 69.5908 26.957 69.5908 25.157ZM64.8988 25.157C64.8988 23.837 65.6548 22.865 66.7108 22.865C67.7548 22.865 68.5108 23.837 68.5108 25.157C68.5108 26.453 67.7548 27.413 66.7108 27.413C65.6548 27.413 64.8988 26.453 64.8988 25.157ZM78.303 26.489C78.303 25.385 77.367 24.929 76.023 24.641C75.015 24.413 74.439 24.233 74.439 23.705C74.439 23.201 75.003 22.853 75.795 22.853C76.623 22.853 77.175 23.201 77.451 23.777L78.267 23.453C77.919 22.721 77.187 22.013 75.807 22.013C74.403 22.013 73.443 22.757 73.443 23.765C73.443 24.797 74.415 25.277 75.735 25.553C76.755 25.769 77.319 25.973 77.319 26.537C77.319 27.077 76.815 27.449 75.939 27.449C74.943 27.449 74.307 27.005 74.007 26.417L73.167 26.741C73.575 27.677 74.535 28.277 75.891 28.277C77.403 28.277 78.303 27.545 78.303 26.489ZM83.0335 28.085V27.233C82.7815 27.329 82.3615 27.401 81.9895 27.401C81.2335 27.401 80.9335 27.029 80.9335 26.465V23.009H82.9975V22.169H80.9335V20.717H79.9135V22.169H79.0375V23.009H79.9135V26.633C79.9135 27.677 80.6215 28.277 81.8095 28.277C82.2535 28.277 82.7695 28.181 83.0335 28.085ZM89.105 28.217L89.153 27.437C89.081 27.449 88.961 27.461 88.889 27.461C88.529 27.461 88.349 27.209 88.349 26.885V24.149C88.349 22.769 87.509 22.013 86.213 22.013C85.181 22.013 84.281 22.589 83.849 23.525L84.641 23.849C84.941 23.285 85.409 22.865 86.117 22.865C86.849 22.865 87.329 23.369 87.329 24.113V24.581L85.937 24.749C84.617 24.917 83.681 25.553 83.681 26.657C83.681 27.605 84.437 28.277 85.493 28.277C86.333 28.277 86.993 27.869 87.377 27.233C87.521 27.917 87.965 28.277 88.637 28.277C88.817 28.277 88.961 28.253 89.105 28.217ZM85.769 27.449C85.169 27.449 84.749 27.089 84.749 26.585C84.749 25.973 85.325 25.613 86.117 25.517L87.329 25.373V26.465C87.017 27.041 86.429 27.449 85.769 27.449ZM93.6273 28.085V27.233C93.3753 27.329 92.9553 27.401 92.5833 27.401C91.8273 27.401 91.5273 27.029 91.5273 26.465V23.009H93.5913V22.169H91.5273V20.717H90.5073V22.169H89.6313V23.009H90.5073V26.633C90.5073 27.677 91.2153 28.277 92.4033 28.277C92.8473 28.277 93.3633 28.181 93.6273 28.085ZM95.7867 22.169H94.7667V28.121H95.7867V22.169ZM95.7867 19.805H94.7667V20.993H95.7867V19.805ZM103.895 23.009V22.169H101.723V21.929C101.723 20.945 102.215 20.369 103.007 20.369C103.331 20.369 103.727 20.429 103.991 20.537L104.015 19.685C103.739 19.601 103.259 19.517 102.899 19.517C101.531 19.517 100.703 20.417 100.703 21.941V22.169H99.9354V23.009H100.703V28.121H101.723V23.009H103.895ZM109.974 25.157C109.974 23.333 108.762 22.013 107.094 22.013C105.426 22.013 104.202 23.333 104.202 25.157C104.202 26.957 105.426 28.277 107.094 28.277C108.762 28.277 109.974 26.957 109.974 25.157ZM105.282 25.157C105.282 23.837 106.038 22.865 107.094 22.865C108.138 22.865 108.894 23.837 108.894 25.157C108.894 26.453 108.138 27.413 107.094 27.413C106.038 27.413 105.282 26.453 105.282 25.157ZM112.392 28.121V24.569C112.488 23.777 112.968 23.033 113.892 23.033C114.096 23.033 114.384 23.069 114.552 23.117V22.109C114.432 22.061 114.144 22.013 113.94 22.013C113.244 22.013 112.596 22.625 112.356 23.381V22.169H111.372V28.121H112.392ZM119.104 28.085V27.233C118.852 27.329 118.432 27.401 118.06 27.401C117.304 27.401 117.004 27.029 117.004 26.465V23.009H119.068V22.169H117.004V20.717H115.984V22.169H115.108V23.009H115.984V26.633C115.984 27.677 116.692 28.277 117.88 28.277C118.324 28.277 118.84 28.181 119.104 28.085ZM125.043 28.121V22.169H124.023V26.273C123.723 26.933 123.147 27.413 122.439 27.413C121.707 27.413 121.179 26.837 121.179 26.033V22.169H120.159V26.105C120.159 27.365 120.999 28.277 122.151 28.277C123.027 28.277 123.711 27.773 124.059 27.137V28.121H125.043ZM131.892 28.121V24.185C131.892 22.913 131.004 22.013 129.84 22.013C128.988 22.013 128.268 22.517 127.872 23.081V22.169H126.888V28.121H127.908V23.801C128.28 23.273 128.928 22.877 129.6 22.877C130.344 22.877 130.872 23.429 130.872 24.257V28.121H131.892ZM138.605 28.217L138.653 27.437C138.581 27.449 138.461 27.461 138.389 27.461C138.029 27.461 137.849 27.209 137.849 26.885V24.149C137.849 22.769 137.009 22.013 135.713 22.013C134.681 22.013 133.781 22.589 133.349 23.525L134.141 23.849C134.441 23.285 134.909 22.865 135.617 22.865C136.349 22.865 136.829 23.369 136.829 24.113V24.581L135.437 24.749C134.117 24.917 133.181 25.553 133.181 26.657C133.181 27.605 133.937 28.277 134.993 28.277C135.833 28.277 136.493 27.869 136.877 27.233C137.021 27.917 137.465 28.277 138.137 28.277C138.317 28.277 138.461 28.253 138.605 28.217ZM135.269 27.449C134.669 27.449 134.249 27.089 134.249 26.585C134.249 25.973 134.825 25.613 135.617 25.517L136.829 25.373V26.465C136.517 27.041 135.929 27.449 135.269 27.449ZM143.127 28.085V27.233C142.875 27.329 142.455 27.401 142.083 27.401C141.327 27.401 141.027 27.029 141.027 26.465V23.009H143.091V22.169H141.027V20.717H140.007V22.169H139.131V23.009H140.007V26.633C140.007 27.677 140.715 28.277 141.903 28.277C142.347 28.277 142.863 28.181 143.127 28.085ZM145.287 22.169H144.267V28.121H145.287V22.169ZM145.287 19.805H144.267V20.993H145.287V19.805ZM148.146 27.857V26.525H146.946V28.049H147.51C147.51 28.661 147.306 29.117 146.85 29.609L147.27 30.005C147.858 29.405 148.146 28.685 148.146 27.857ZM157.496 28.217L157.544 27.437C157.472 27.449 157.352 27.461 157.28 27.461C156.92 27.461 156.74 27.209 156.74 26.885V24.149C156.74 22.769 155.9 22.013 154.604 22.013C153.572 22.013 152.672 22.589 152.24 23.525L153.032 23.849C153.332 23.285 153.8 22.865 154.508 22.865C155.24 22.865 155.72 23.369 155.72 24.113V24.581L154.328 24.749C153.008 24.917 152.072 25.553 152.072 26.657C152.072 27.605 152.828 28.277 153.884 28.277C154.724 28.277 155.384 27.869 155.768 27.233C155.912 27.917 156.356 28.277 157.028 28.277C157.208 28.277 157.352 28.253 157.496 28.217ZM154.16 27.449C153.56 27.449 153.14 27.089 153.14 26.585C153.14 25.973 153.716 25.613 154.508 25.517L155.72 25.373V26.465C155.408 27.041 154.82 27.449 154.16 27.449ZM164.07 25.121C164.07 23.321 163.002 22.013 161.538 22.013C160.854 22.013 160.098 22.397 159.654 22.961V19.673H158.634V28.121H159.594V27.401C160.05 27.917 160.794 28.277 161.442 28.277C162.966 28.277 164.07 26.957 164.07 25.121ZM161.202 27.425C160.578 27.425 159.978 27.101 159.654 26.657V23.693C159.978 23.201 160.614 22.877 161.262 22.877C162.258 22.877 162.99 23.813 162.99 25.109C162.99 26.441 162.234 27.425 161.202 27.425ZM170.925 25.121C170.925 23.321 169.857 22.013 168.393 22.013C167.709 22.013 166.953 22.397 166.509 22.961V19.673H165.489V28.121H166.449V27.401C166.905 27.917 167.649 28.277 168.297 28.277C169.821 28.277 170.925 26.957 170.925 25.121ZM168.057 27.425C167.433 27.425 166.833 27.101 166.509 26.657V23.693C166.833 23.201 167.469 22.877 168.117 22.877C169.113 22.877 169.845 23.813 169.845 25.109C169.845 26.441 169.089 27.425 168.057 27.425ZM173.365 22.169H172.345V28.121H173.365V22.169ZM173.365 19.805H172.345V20.993H173.365V19.805ZM180.148 28.217L180.196 27.437C180.124 27.449 180.004 27.461 179.932 27.461C179.572 27.461 179.392 27.209 179.392 26.885V24.149C179.392 22.769 178.552 22.013 177.256 22.013C176.224 22.013 175.324 22.589 174.892 23.525L175.684 23.849C175.984 23.285 176.452 22.865 177.16 22.865C177.892 22.865 178.372 23.369 178.372 24.113V24.581L176.98 24.749C175.66 24.917 174.724 25.553 174.724 26.657C174.724 27.605 175.48 28.277 176.536 28.277C177.376 28.277 178.036 27.869 178.42 27.233C178.564 27.917 179.008 28.277 179.68 28.277C179.86 28.277 180.004 28.253 180.148 28.217ZM176.812 27.449C176.212 27.449 175.792 27.089 175.792 26.585C175.792 25.973 176.368 25.613 177.16 25.517L178.372 25.373V26.465C178.06 27.041 177.472 27.449 176.812 27.449ZM189.638 28.121V24.185C189.638 22.913 188.774 22.013 187.658 22.013C186.866 22.013 186.17 22.493 185.75 23.129C185.426 22.445 184.802 22.013 184.07 22.013C183.278 22.013 182.618 22.517 182.27 23.081V22.169H181.286V28.121H182.306V23.777C182.642 23.273 183.218 22.877 183.806 22.877C184.466 22.877 184.946 23.429 184.946 24.257V28.121H185.966V24.185C185.966 24.005 185.954 23.837 185.918 23.669C186.278 23.213 186.854 22.877 187.43 22.877C188.114 22.877 188.618 23.429 188.618 24.257V28.121H189.638ZM196.728 25.157C196.728 23.333 195.516 22.013 193.848 22.013C192.18 22.013 190.956 23.333 190.956 25.157C190.956 26.957 192.18 28.277 193.848 28.277C195.516 28.277 196.728 26.957 196.728 25.157ZM192.036 25.157C192.036 23.837 192.792 22.865 193.848 22.865C194.892 22.865 195.648 23.837 195.648 25.157C195.648 26.453 194.892 27.413 193.848 27.413C192.792 27.413 192.036 26.453 192.036 25.157ZM205.824 28.217L205.872 27.437C205.8 27.449 205.68 27.461 205.608 27.461C205.248 27.461 205.068 27.209 205.068 26.885V24.149C205.068 22.769 204.228 22.013 202.932 22.013C201.9 22.013 201 22.589 200.568 23.525L201.36 23.849C201.66 23.285 202.128 22.865 202.836 22.865C203.568 22.865 204.048 23.369 204.048 24.113V24.581L202.656 24.749C201.336 24.917 200.4 25.553 200.4 26.657C200.4 27.605 201.156 28.277 202.212 28.277C203.052 28.277 203.712 27.869 204.096 27.233C204.24 27.917 204.684 28.277 205.356 28.277C205.536 28.277 205.68 28.253 205.824 28.217ZM202.488 27.449C201.888 27.449 201.468 27.089 201.468 26.585C201.468 25.973 202.044 25.613 202.836 25.517L204.048 25.373V26.465C203.736 27.041 203.148 27.449 202.488 27.449ZM206.161 22.169L208.309 28.121H209.365L211.501 22.169H210.469L208.885 26.801H208.849L207.265 22.169H206.161ZM217.492 28.121V22.169H216.472V26.273C216.172 26.933 215.596 27.413 214.888 27.413C214.156 27.413 213.628 26.837 213.628 26.033V22.169H212.608V26.105C212.608 27.365 213.448 28.277 214.6 28.277C215.476 28.277 216.16 27.773 216.508 27.137V28.121H217.492ZM222.721 28.085V27.233C222.469 27.329 222.049 27.401 221.677 27.401C220.921 27.401 220.621 27.029 220.621 26.465V23.009H222.685V22.169H220.621V20.717H219.601V22.169H218.725V23.009H219.601V26.633C219.601 27.677 220.309 28.277 221.497 28.277C221.941 28.277 222.457 28.181 222.721 28.085ZM229.13 25.157C229.13 23.333 227.918 22.013 226.25 22.013C224.582 22.013 223.358 23.333 223.358 25.157C223.358 26.957 224.582 28.277 226.25 28.277C227.918 28.277 229.13 26.957 229.13 25.157ZM224.438 25.157C224.438 23.837 225.194 22.865 226.25 22.865C227.294 22.865 228.05 23.837 228.05 25.157C228.05 26.453 227.294 27.413 226.25 27.413C225.194 27.413 224.438 26.453 224.438 25.157ZM234.314 19.673H233.294V28.121H234.314V19.673ZM237.101 21.485V20.225H235.973V21.665H236.501C236.489 22.253 236.309 22.685 235.865 23.153L236.321 23.477C236.837 22.961 237.101 22.265 237.101 21.485ZM243.685 25.157C243.685 23.333 242.473 22.013 240.805 22.013C239.137 22.013 237.913 23.333 237.913 25.157C237.913 26.957 239.137 28.277 240.805 28.277C242.473 28.277 243.685 26.957 243.685 25.157ZM238.993 25.157C238.993 23.837 239.749 22.865 240.805 22.865C241.849 22.865 242.605 23.837 242.605 25.157C242.605 26.453 241.849 27.413 240.805 27.413C239.749 27.413 238.993 26.453 238.993 25.157ZM249.703 26.657L248.839 26.321C248.551 26.981 248.071 27.401 247.411 27.401C246.439 27.401 245.731 26.477 245.731 25.193C245.731 23.849 246.415 22.877 247.363 22.877C247.963 22.877 248.479 23.249 248.767 23.945L249.655 23.585C249.235 22.625 248.431 22.013 247.339 22.013C245.779 22.013 244.651 23.345 244.651 25.193C244.651 26.981 245.791 28.277 247.375 28.277C248.467 28.277 249.319 27.593 249.703 26.657ZM255.562 26.657L254.698 26.321C254.41 26.981 253.93 27.401 253.27 27.401C252.298 27.401 251.59 26.477 251.59 25.193C251.59 23.849 252.274 22.877 253.222 22.877C253.822 22.877 254.338 23.249 254.626 23.945L255.514 23.585C255.094 22.625 254.29 22.013 253.198 22.013C251.638 22.013 250.51 23.345 250.51 25.193C250.51 26.981 251.65 28.277 253.234 28.277C254.326 28.277 255.178 27.593 255.562 26.657ZM261.734 28.217L261.782 27.437C261.71 27.449 261.59 27.461 261.518 27.461C261.158 27.461 260.978 27.209 260.978 26.885V24.149C260.978 22.769 260.138 22.013 258.842 22.013C257.81 22.013 256.91 22.589 256.478 23.525L257.27 23.849C257.57 23.285 258.038 22.865 258.746 22.865C259.478 22.865 259.958 23.369 259.958 24.113V24.581L258.566 24.749C257.246 24.917 256.31 25.553 256.31 26.657C256.31 27.605 257.066 28.277 258.122 28.277C258.962 28.277 259.622 27.869 260.006 27.233C260.15 27.917 260.594 28.277 261.266 28.277C261.446 28.277 261.59 28.253 261.734 28.217ZM258.398 27.449C257.798 27.449 257.378 27.089 257.378 26.585C257.378 25.973 257.954 25.613 258.746 25.517L259.958 25.373V26.465C259.646 27.041 259.058 27.449 258.398 27.449ZM267.42 26.489C267.42 25.385 266.484 24.929 265.14 24.641C264.132 24.413 263.556 24.233 263.556 23.705C263.556 23.201 264.12 22.853 264.912 22.853C265.74 22.853 266.292 23.201 266.568 23.777L267.384 23.453C267.036 22.721 266.304 22.013 264.924 22.013C263.52 22.013 262.56 22.757 262.56 23.765C262.56 24.797 263.532 25.277 264.852 25.553C265.872 25.769 266.436 25.973 266.436 26.537C266.436 27.077 265.932 27.449 265.056 27.449C264.06 27.449 263.424 27.005 263.124 26.417L262.284 26.741C262.692 27.677 263.652 28.277 265.008 28.277C266.52 28.277 267.42 27.545 267.42 26.489ZM269.834 22.169H268.814V28.121H269.834V22.169ZM269.834 19.805H268.814V20.993H269.834V19.805ZM277.013 25.157C277.013 23.333 275.801 22.013 274.133 22.013C272.465 22.013 271.241 23.333 271.241 25.157C271.241 26.957 272.465 28.277 274.133 28.277C275.801 28.277 277.013 26.957 277.013 25.157ZM272.321 25.157C272.321 23.837 273.077 22.865 274.133 22.865C275.177 22.865 275.933 23.837 275.933 25.157C275.933 26.453 275.177 27.413 274.133 27.413C273.077 27.413 272.321 26.453 272.321 25.157ZM283.415 28.121V24.185C283.415 22.913 282.527 22.013 281.363 22.013C280.511 22.013 279.791 22.517 279.395 23.081V22.169H278.411V28.121H279.431V23.801C279.803 23.273 280.451 22.877 281.123 22.877C281.867 22.877 282.395 23.429 282.395 24.257V28.121H283.415ZM289.972 26.765L289.156 26.453C288.844 27.065 288.268 27.437 287.62 27.437C286.624 27.437 285.904 26.609 285.832 25.361H289.96C289.996 25.205 290.02 24.881 290.02 24.617C290.02 23.093 288.976 22.013 287.524 22.013C285.94 22.013 284.764 23.357 284.764 25.193C284.764 26.993 285.94 28.277 287.56 28.277C288.628 28.277 289.552 27.713 289.972 26.765ZM287.536 22.841C288.376 22.841 288.964 23.513 289 24.545H285.892C286.072 23.513 286.708 22.841 287.536 22.841ZM296.584 27.425C295.588 27.425 294.88 26.477 294.88 25.181C294.88 23.849 295.624 22.877 296.656 22.877C297.292 22.877 297.88 23.165 298.192 23.621V26.561C297.844 27.077 297.208 27.425 296.584 27.425ZM299.212 28.121V19.673H298.192V22.817C297.784 22.337 297.088 22.013 296.44 22.013C294.904 22.013 293.788 23.345 293.788 25.193C293.788 26.981 294.868 28.277 296.356 28.277C297.04 28.277 297.808 27.857 298.252 27.269V28.121H299.212ZM302.084 22.169H301.064V28.121H302.084V22.169ZM302.084 19.805H301.064V20.993H302.084V19.805ZM36.449 41.765L35.633 41.453C35.321 42.065 34.745 42.437 34.097 42.437C33.101 42.437 32.381 41.609 32.309 40.361H36.437C36.473 40.205 36.497 39.881 36.497 39.617C36.497 38.093 35.453 37.013 34.001 37.013C32.417 37.013 31.241 38.357 31.241 40.193C31.241 41.993 32.417 43.277 34.037 43.277C35.105 43.277 36.029 42.713 36.449 41.765ZM34.013 37.841C34.853 37.841 35.441 38.513 35.477 39.545H32.369C32.549 38.513 33.185 37.841 34.013 37.841ZM42.4788 41.489C42.4788 40.385 41.5428 39.929 40.1988 39.641C39.1908 39.413 38.6148 39.233 38.6148 38.705C38.6148 38.201 39.1788 37.853 39.9708 37.853C40.7988 37.853 41.3508 38.201 41.6268 38.777L42.4428 38.453C42.0948 37.721 41.3628 37.013 39.9828 37.013C38.5788 37.013 37.6188 37.757 37.6188 38.765C37.6188 39.797 38.5908 40.277 39.9108 40.553C40.9308 40.769 41.4948 40.973 41.4948 41.537C41.4948 42.077 40.9908 42.449 40.1148 42.449C39.1188 42.449 38.4828 42.005 38.1828 41.417L37.3428 41.741C37.7508 42.677 38.7108 43.277 40.0668 43.277C41.5788 43.277 42.4788 42.545 42.4788 41.489ZM44.8922 37.169H43.8722V43.121H44.8922V37.169ZM44.8922 34.805H43.8722V35.993H44.8922V34.805ZM52.1793 40.121C52.1793 38.321 51.1113 37.013 49.6473 37.013C48.9633 37.013 48.2073 37.397 47.7633 37.961V34.673H46.7433V43.121H47.7033V42.401C48.1593 42.917 48.9033 43.277 49.5513 43.277C51.0753 43.277 52.1793 41.957 52.1793 40.121ZM49.3113 42.425C48.6873 42.425 48.0873 42.101 47.7633 41.657V38.693C48.0873 38.201 48.7233 37.877 49.3713 37.877C50.3673 37.877 51.0993 38.813 51.0993 40.109C51.0993 41.441 50.3433 42.425 49.3113 42.425ZM54.6187 37.169H53.5987V43.121H54.6187V37.169ZM54.6187 34.805H53.5987V35.993H54.6187V34.805ZM57.4898 43.121V39.569C57.5858 38.777 58.0658 38.033 58.9898 38.033C59.1938 38.033 59.4818 38.069 59.6498 38.117V37.109C59.5298 37.061 59.2418 37.013 59.0378 37.013C58.3418 37.013 57.6938 37.625 57.4538 38.381V37.169H56.4698V43.121H57.4898ZM65.2734 41.657L64.4094 41.321C64.1214 41.981 63.6414 42.401 62.9814 42.401C62.0094 42.401 61.3014 41.477 61.3014 40.193C61.3014 38.849 61.9854 37.877 62.9334 37.877C63.5334 37.877 64.0494 38.249 64.3374 38.945L65.2254 38.585C64.8054 37.625 64.0014 37.013 62.9094 37.013C61.3494 37.013 60.2214 38.345 60.2214 40.193C60.2214 41.981 61.3614 43.277 62.9454 43.277C64.0374 43.277 64.8894 42.593 65.2734 41.657ZM67.5328 37.169H66.5128V43.121H67.5328V37.169ZM67.5328 34.805H66.5128V35.993H67.5328V34.805ZM77.0815 43.217L77.1295 42.437C77.0575 42.449 76.9375 42.461 76.8655 42.461C76.5055 42.461 76.3255 42.209 76.3255 41.885V39.149C76.3255 37.769 75.4855 37.013 74.1895 37.013C73.1575 37.013 72.2575 37.589 71.8255 38.525L72.6175 38.849C72.9175 38.285 73.3855 37.865 74.0935 37.865C74.8255 37.865 75.3055 38.369 75.3055 39.113V39.581L73.9135 39.749C72.5935 39.917 71.6575 40.553 71.6575 41.657C71.6575 42.605 72.4135 43.277 73.4695 43.277C74.3095 43.277 74.9695 42.869 75.3535 42.233C75.4975 42.917 75.9415 43.277 76.6135 43.277C76.7935 43.277 76.9375 43.253 77.0815 43.217ZM73.7455 42.449C73.1455 42.449 72.7255 42.089 72.7255 41.585C72.7255 40.973 73.3015 40.613 74.0935 40.517L75.3055 40.373V41.465C74.9935 42.041 74.4055 42.449 73.7455 42.449ZM83.6495 35.225C82.0895 35.225 80.7815 36.185 80.7815 37.493C80.7815 38.861 81.9215 39.353 83.4935 39.737C84.8135 40.061 85.4135 40.337 85.4135 41.057C85.4135 41.825 84.6815 42.329 83.6855 42.329C82.5215 42.329 81.8015 41.789 81.4175 40.913L80.4335 41.273C80.9495 42.497 82.1015 43.265 83.6735 43.265C85.3295 43.265 86.5295 42.341 86.5295 40.949C86.5295 39.617 85.4255 39.077 83.8175 38.681C82.4975 38.357 81.9095 38.105 81.9095 37.409C81.9095 36.689 82.7015 36.161 83.6495 36.161C84.6095 36.161 85.2815 36.653 85.6175 37.457L86.5895 37.073C86.1335 36.053 85.1495 35.225 83.6495 35.225ZM92.9722 43.217L93.0202 42.437C92.9482 42.449 92.8282 42.461 92.7562 42.461C92.3962 42.461 92.2162 42.209 92.2162 41.885V39.149C92.2162 37.769 91.3762 37.013 90.0802 37.013C89.0482 37.013 88.1481 37.589 87.7161 38.525L88.5081 38.849C88.8081 38.285 89.2761 37.865 89.9841 37.865C90.7162 37.865 91.1961 38.369 91.1961 39.113V39.581L89.8041 39.749C88.4841 39.917 87.5481 40.553 87.5481 41.657C87.5481 42.605 88.3041 43.277 89.3601 43.277C90.2001 43.277 90.8601 42.869 91.2442 42.233C91.3881 42.917 91.8321 43.277 92.5042 43.277C92.6842 43.277 92.8282 43.253 92.9722 43.217ZM89.6362 42.449C89.0362 42.449 88.6161 42.089 88.6161 41.585C88.6161 40.973 89.1921 40.613 89.9841 40.517L91.1961 40.373V41.465C90.8842 42.041 90.2962 42.449 89.6362 42.449ZM99.1145 43.121V39.185C99.1145 37.913 98.2265 37.013 97.0625 37.013C96.2105 37.013 95.4905 37.517 95.0945 38.081V37.169H94.1105V43.121H95.1305V38.801C95.5025 38.273 96.1505 37.877 96.8225 37.877C97.5665 37.877 98.0945 38.429 98.0945 39.257V43.121H99.1145ZM101.916 43.121V39.569C102.012 38.777 102.492 38.033 103.416 38.033C103.62 38.033 103.908 38.069 104.076 38.117V37.109C103.956 37.061 103.668 37.013 103.464 37.013C102.768 37.013 102.12 37.625 101.88 38.381V37.169H100.896V43.121H101.916ZM109.855 41.765L109.039 41.453C108.727 42.065 108.151 42.437 107.503 42.437C106.507 42.437 105.787 41.609 105.715 40.361H109.843C109.879 40.205 109.903 39.881 109.903 39.617C109.903 38.093 108.859 37.013 107.407 37.013C105.823 37.013 104.647 38.357 104.647 40.193C104.647 41.993 105.823 43.277 107.443 43.277C108.511 43.277 109.435 42.713 109.855 41.765ZM107.419 37.841C108.259 37.841 108.847 38.513 108.883 39.545H105.775C105.955 38.513 106.591 37.841 107.419 37.841ZM119.689 43.121V39.185C119.689 37.913 118.825 37.013 117.709 37.013C116.917 37.013 116.221 37.493 115.801 38.129C115.477 37.445 114.853 37.013 114.121 37.013C113.329 37.013 112.669 37.517 112.321 38.081V37.169H111.337V43.121H112.357V38.777C112.693 38.273 113.269 37.877 113.857 37.877C114.517 37.877 114.997 38.429 114.997 39.257V43.121H116.017V39.185C116.017 39.005 116.005 38.837 115.969 38.669C116.329 38.213 116.905 37.877 117.481 37.877C118.165 37.877 118.669 38.429 118.669 39.257V43.121H119.689ZM126.778 40.157C126.778 38.333 125.566 37.013 123.898 37.013C122.23 37.013 121.006 38.333 121.006 40.157C121.006 41.957 122.23 43.277 123.898 43.277C125.566 43.277 126.778 41.957 126.778 40.157ZM122.086 40.157C122.086 38.837 122.842 37.865 123.898 37.865C124.942 37.865 125.698 38.837 125.698 40.157C125.698 41.453 124.942 42.413 123.898 42.413C122.842 42.413 122.086 41.453 122.086 40.157ZM129.185 43.121V41.525H127.985V43.121H129.185ZM134.839 43.121V40.613H136.231C137.995 40.613 139.171 39.533 139.171 37.961C139.171 36.425 137.995 35.357 136.219 35.357H133.735V43.121H134.839ZM134.839 36.305H136.123C137.263 36.305 138.043 36.977 138.043 37.961C138.043 38.981 137.263 39.665 136.123 39.665H134.839V36.305ZM145.258 41.765L144.442 41.453C144.13 42.065 143.554 42.437 142.906 42.437C141.91 42.437 141.19 41.609 141.118 40.361H145.246C145.282 40.205 145.306 39.881 145.306 39.617C145.306 38.093 144.262 37.013 142.81 37.013C141.226 37.013 140.05 38.357 140.05 40.193C140.05 41.993 141.226 43.277 142.846 43.277C143.914 43.277 144.838 42.713 145.258 41.765ZM142.822 37.841C143.662 37.841 144.25 38.513 144.286 39.545H141.178C141.358 38.513 141.994 37.841 142.822 37.841ZM151.743 43.121V39.185C151.743 37.913 150.855 37.013 149.691 37.013C148.839 37.013 148.119 37.517 147.723 38.081V37.169H146.739V43.121H147.759V38.801C148.131 38.273 148.779 37.877 149.451 37.877C150.195 37.877 150.723 38.429 150.723 39.257V43.121H151.743ZM158.073 41.489C158.073 40.385 157.137 39.929 155.793 39.641C154.785 39.413 154.209 39.233 154.209 38.705C154.209 38.201 154.773 37.853 155.565 37.853C156.393 37.853 156.945 38.201 157.221 38.777L158.037 38.453C157.689 37.721 156.957 37.013 155.577 37.013C154.173 37.013 153.213 37.757 153.213 38.765C153.213 39.797 154.185 40.277 155.505 40.553C156.525 40.769 157.089 40.973 157.089 41.537C157.089 42.077 156.585 42.449 155.709 42.449C154.713 42.449 154.077 42.005 153.777 41.417L152.937 41.741C153.345 42.677 154.305 43.277 155.661 43.277C157.173 43.277 158.073 42.545 158.073 41.489ZM160.486 37.169H159.466V43.121H160.486V37.169ZM160.486 34.805H159.466V35.993H160.486V34.805ZM167.269 43.217L167.317 42.437C167.245 42.449 167.125 42.461 167.053 42.461C166.693 42.461 166.513 42.209 166.513 41.885V39.149C166.513 37.769 165.673 37.013 164.377 37.013C163.345 37.013 162.445 37.589 162.013 38.525L162.805 38.849C163.105 38.285 163.573 37.865 164.281 37.865C165.013 37.865 165.493 38.369 165.493 39.113V39.581L164.101 39.749C162.781 39.917 161.845 40.553 161.845 41.657C161.845 42.605 162.601 43.277 163.657 43.277C164.497 43.277 165.157 42.869 165.541 42.233C165.685 42.917 166.129 43.277 166.801 43.277C166.981 43.277 167.125 43.253 167.269 43.217ZM163.933 42.449C163.333 42.449 162.913 42.089 162.913 41.585C162.913 40.973 163.489 40.613 164.281 40.517L165.493 40.373V41.465C165.181 42.041 164.593 42.449 163.933 42.449ZM176.759 43.121V39.185C176.759 37.913 175.895 37.013 174.779 37.013C173.987 37.013 173.291 37.493 172.871 38.129C172.547 37.445 171.923 37.013 171.191 37.013C170.399 37.013 169.739 37.517 169.391 38.081V37.169H168.407V43.121H169.427V38.777C169.763 38.273 170.339 37.877 170.927 37.877C171.587 37.877 172.067 38.429 172.067 39.257V43.121H173.087V39.185C173.087 39.005 173.075 38.837 173.039 38.669C173.399 38.213 173.975 37.877 174.551 37.877C175.235 37.877 175.739 38.429 175.739 39.257V43.121H176.759ZM183.849 40.157C183.849 38.333 182.637 37.013 180.969 37.013C179.301 37.013 178.077 38.333 178.077 40.157C178.077 41.957 179.301 43.277 180.969 43.277C182.637 43.277 183.849 41.957 183.849 40.157ZM179.157 40.157C179.157 38.837 179.913 37.865 180.969 37.865C182.013 37.865 182.769 38.837 182.769 40.157C182.769 41.453 182.013 42.413 180.969 42.413C179.913 42.413 179.157 41.453 179.157 40.157ZM192.945 43.217L192.993 42.437C192.921 42.449 192.801 42.461 192.729 42.461C192.369 42.461 192.189 42.209 192.189 41.885V39.149C192.189 37.769 191.349 37.013 190.053 37.013C189.021 37.013 188.121 37.589 187.689 38.525L188.481 38.849C188.781 38.285 189.249 37.865 189.957 37.865C190.689 37.865 191.169 38.369 191.169 39.113V39.581L189.777 39.749C188.457 39.917 187.521 40.553 187.521 41.657C187.521 42.605 188.277 43.277 189.333 43.277C190.173 43.277 190.833 42.869 191.217 42.233C191.361 42.917 191.805 43.277 192.477 43.277C192.657 43.277 192.801 43.253 192.945 43.217ZM189.609 42.449C189.009 42.449 188.589 42.089 188.589 41.585C188.589 40.973 189.165 40.613 189.957 40.517L191.169 40.373V41.465C190.857 42.041 190.269 42.449 189.609 42.449ZM195.103 37.169H194.083V43.121H195.103V37.169ZM195.103 34.805H194.083V35.993H195.103V34.805ZM204.34 41.657L203.476 41.321C203.188 41.981 202.708 42.401 202.048 42.401C201.076 42.401 200.368 41.477 200.368 40.193C200.368 38.849 201.052 37.877 202 37.877C202.6 37.877 203.116 38.249 203.404 38.945L204.292 38.585C203.872 37.625 203.068 37.013 201.976 37.013C200.416 37.013 199.288 38.345 199.288 40.193C199.288 41.981 200.428 43.277 202.012 43.277C203.104 43.277 203.956 42.593 204.34 41.657ZM210.907 40.157C210.907 38.333 209.695 37.013 208.027 37.013C206.359 37.013 205.135 38.333 205.135 40.157C205.135 41.957 206.359 43.277 208.027 43.277C209.695 43.277 210.907 41.957 210.907 40.157ZM206.215 40.157C206.215 38.837 206.971 37.865 208.027 37.865C209.071 37.865 209.827 38.837 209.827 40.157C209.827 41.453 209.071 42.413 208.027 42.413C206.971 42.413 206.215 41.453 206.215 40.157ZM213.326 34.673H212.306V43.121H213.326V34.673ZM216.197 34.673H215.177V43.121H216.197V34.673ZM222.824 41.765L222.008 41.453C221.696 42.065 221.12 42.437 220.472 42.437C219.476 42.437 218.756 41.609 218.684 40.361H222.812C222.848 40.205 222.872 39.881 222.872 39.617C222.872 38.093 221.828 37.013 220.376 37.013C218.792 37.013 217.616 38.357 217.616 40.193C217.616 41.993 218.792 43.277 220.412 43.277C221.48 43.277 222.404 42.713 222.824 41.765ZM220.388 37.841C221.228 37.841 221.816 38.513 221.852 39.545H218.744C218.924 38.513 219.56 37.841 220.388 37.841ZM229.466 43.517C229.466 42.653 228.83 42.197 227.474 42.077L226.634 42.005C225.794 41.933 225.494 41.789 225.494 41.609C225.494 41.465 225.626 41.261 225.746 41.129C225.95 41.177 226.178 41.201 226.394 41.201C227.69 41.201 228.746 40.361 228.746 39.197C228.746 38.765 228.614 38.357 228.362 38.009C228.686 37.841 229.202 37.697 229.682 37.697V36.785C228.95 36.785 228.374 37.133 228.014 37.625C227.582 37.253 226.994 37.013 226.322 37.013C224.99 37.013 223.946 37.925 223.946 39.125C223.946 39.977 224.474 40.625 225.218 40.961C224.834 41.225 224.51 41.633 224.51 41.909C224.51 42.149 224.678 42.353 224.978 42.509C224.234 42.821 223.694 43.361 223.694 43.901C223.694 44.885 224.786 45.461 226.454 45.461C228.302 45.461 229.466 44.645 229.466 43.517ZM226.466 44.681C225.35 44.681 224.714 44.273 224.714 43.745C224.714 43.337 225.086 42.941 225.59 42.725C225.83 42.785 226.106 42.833 226.418 42.857L227.258 42.929C228.218 43.013 228.458 43.241 228.458 43.673C228.458 44.237 227.678 44.681 226.466 44.681ZM224.966 39.137C224.966 38.381 225.542 37.793 226.334 37.793C227.126 37.793 227.726 38.381 227.726 39.137C227.726 39.881 227.126 40.421 226.334 40.421C225.542 40.421 224.966 39.881 224.966 39.137ZM235.814 43.121V39.197C235.814 37.913 234.926 37.013 233.762 37.013C232.934 37.013 232.226 37.481 231.83 38.033V34.673H230.81V43.121H231.83V38.801C232.202 38.273 232.85 37.877 233.522 37.877C234.266 37.877 234.794 38.429 234.794 39.257V43.121H235.814ZM238.615 37.169H237.595V43.121H238.615V37.169ZM238.615 34.805H237.595V35.993H238.615V34.805ZM247.852 41.657L246.988 41.321C246.7 41.981 246.22 42.401 245.56 42.401C244.588 42.401 243.88 41.477 243.88 40.193C243.88 38.849 244.564 37.877 245.512 37.877C246.112 37.877 246.628 38.249 246.916 38.945L247.804 38.585C247.384 37.625 246.58 37.013 245.488 37.013C243.928 37.013 242.8 38.345 242.8 40.193C242.8 41.981 243.94 43.277 245.524 43.277C246.616 43.277 247.468 42.593 247.852 41.657ZM254.095 43.121V39.197C254.095 37.913 253.207 37.013 252.043 37.013C251.215 37.013 250.507 37.481 250.111 38.033V34.673H249.091V43.121H250.111V38.801C250.483 38.273 251.131 37.877 251.803 37.877C252.547 37.877 253.075 38.429 253.075 39.257V43.121H254.095ZM260.652 41.765L259.836 41.453C259.524 42.065 258.948 42.437 258.3 42.437C257.304 42.437 256.584 41.609 256.512 40.361H260.64C260.676 40.205 260.7 39.881 260.7 39.617C260.7 38.093 259.656 37.013 258.204 37.013C256.62 37.013 255.444 38.357 255.444 40.193C255.444 41.993 256.62 43.277 258.24 43.277C259.308 43.277 260.232 42.713 260.652 41.765ZM258.216 37.841C259.056 37.841 259.644 38.513 259.68 39.545H256.572C256.752 38.513 257.388 37.841 258.216 37.841ZM269.904 43.121V39.197C269.904 37.913 269.016 37.013 267.852 37.013C267.024 37.013 266.316 37.481 265.92 38.033V34.673H264.9V43.121H265.92V38.801C266.292 38.273 266.94 37.877 267.612 37.877C268.356 37.877 268.884 38.429 268.884 39.257V43.121H269.904ZM276.617 43.217L276.665 42.437C276.593 42.449 276.473 42.461 276.401 42.461C276.041 42.461 275.861 42.209 275.861 41.885V39.149C275.861 37.769 275.021 37.013 273.725 37.013C272.693 37.013 271.793 37.589 271.361 38.525L272.153 38.849C272.453 38.285 272.921 37.865 273.629 37.865C274.361 37.865 274.841 38.369 274.841 39.113V39.581L273.449 39.749C272.129 39.917 271.193 40.553 271.193 41.657C271.193 42.605 271.949 43.277 273.005 43.277C273.845 43.277 274.505 42.869 274.889 42.233C275.033 42.917 275.477 43.277 276.149 43.277C276.329 43.277 276.473 43.253 276.617 43.217ZM273.281 42.449C272.681 42.449 272.261 42.089 272.261 41.585C272.261 40.973 272.837 40.613 273.629 40.517L274.841 40.373V41.465C274.529 42.041 273.941 42.449 273.281 42.449ZM282.759 43.121V39.185C282.759 37.913 281.871 37.013 280.707 37.013C279.855 37.013 279.135 37.517 278.739 38.081V37.169H277.755V43.121H278.775V38.801C279.147 38.273 279.795 37.877 280.467 37.877C281.211 37.877 281.739 38.429 281.739 39.257V43.121H282.759ZM289.544 43.121V39.185C289.544 37.913 288.656 37.013 287.492 37.013C286.64 37.013 285.92 37.517 285.524 38.081V37.169H284.54V43.121H285.56V38.801C285.932 38.273 286.58 37.877 287.252 37.877C287.996 37.877 288.524 38.429 288.524 39.257V43.121H289.544ZM296.653 40.157C296.653 38.333 295.441 37.013 293.773 37.013C292.105 37.013 290.881 38.333 290.881 40.157C290.881 41.957 292.105 43.277 293.773 43.277C295.441 43.277 296.653 41.957 296.653 40.157ZM291.961 40.157C291.961 38.837 292.717 37.865 293.773 37.865C294.817 37.865 295.573 38.837 295.573 40.157C295.573 41.453 294.817 42.413 293.773 42.413C292.717 42.413 291.961 41.453 291.961 40.157ZM36.605 58.217L36.653 57.437C36.581 57.449 36.461 57.461 36.389 57.461C36.029 57.461 35.849 57.209 35.849 56.885V54.149C35.849 52.769 35.009 52.013 33.713 52.013C32.681 52.013 31.781 52.589 31.349 53.525L32.141 53.849C32.441 53.285 32.909 52.865 33.617 52.865C34.349 52.865 34.829 53.369 34.829 54.113V54.581L33.437 54.749C32.117 54.917 31.181 55.553 31.181 56.657C31.181 57.605 31.937 58.277 32.993 58.277C33.833 58.277 34.493 57.869 34.877 57.233C35.021 57.917 35.465 58.277 36.137 58.277C36.317 58.277 36.461 58.253 36.605 58.217ZM33.269 57.449C32.669 57.449 32.249 57.089 32.249 56.585C32.249 55.973 32.825 55.613 33.617 55.517L34.829 55.373V56.465C34.517 57.041 33.929 57.449 33.269 57.449ZM42.7473 58.121V54.185C42.7473 52.913 41.8593 52.013 40.6953 52.013C39.8433 52.013 39.1233 52.517 38.7273 53.081V52.169H37.7433V58.121H38.7633V53.801C39.1353 53.273 39.7833 52.877 40.4553 52.877C41.1993 52.877 41.7273 53.429 41.7273 54.257V58.121H42.7473ZM49.5324 58.121V54.185C49.5324 52.913 48.6444 52.013 47.4804 52.013C46.6284 52.013 45.9084 52.517 45.5124 53.081V52.169H44.5284V58.121H45.5484V53.801C45.9204 53.273 46.5684 52.877 47.2404 52.877C47.9844 52.877 48.5124 53.429 48.5124 54.257V58.121H49.5324ZM56.1136 58.121V52.169H55.0936V56.273C54.7936 56.933 54.2176 57.413 53.5096 57.413C52.7776 57.413 52.2496 56.837 52.2496 56.033V52.169H51.2296V56.105C51.2296 57.365 52.0696 58.277 53.2216 58.277C54.0976 58.277 54.7816 57.773 55.1296 57.137V58.121H56.1136ZM58.9781 49.673H57.9581V58.121H58.9781V49.673ZM61.8492 49.673H60.8292V58.121H61.8492V49.673ZM68.6323 58.217L68.6803 57.437C68.6083 57.449 68.4883 57.461 68.4163 57.461C68.0563 57.461 67.8763 57.209 67.8763 56.885V54.149C67.8763 52.769 67.0363 52.013 65.7403 52.013C64.7083 52.013 63.8083 52.589 63.3763 53.525L64.1683 53.849C64.4683 53.285 64.9363 52.865 65.6443 52.865C66.3763 52.865 66.8563 53.369 66.8563 54.113V54.581L65.4643 54.749C64.1443 54.917 63.2083 55.553 63.2083 56.657C63.2083 57.605 63.9643 58.277 65.0203 58.277C65.8603 58.277 66.5203 57.869 66.9043 57.233C67.0483 57.917 67.4923 58.277 68.1643 58.277C68.3443 58.277 68.4883 58.253 68.6323 58.217ZM65.2963 57.449C64.6963 57.449 64.2763 57.089 64.2763 56.585C64.2763 55.973 64.8523 55.613 65.6443 55.517L66.8563 55.373V56.465C66.5443 57.041 65.9563 57.449 65.2963 57.449ZM73.1546 58.085V57.233C72.9026 57.329 72.4826 57.401 72.1106 57.401C71.3546 57.401 71.0546 57.029 71.0546 56.465V53.009H73.1186V52.169H71.0546V50.717H70.0346V52.169H69.1586V53.009H70.0346V56.633C70.0346 57.677 70.7426 58.277 71.9306 58.277C72.3746 58.277 72.8906 58.181 73.1546 58.085ZM79.5635 55.157C79.5635 53.333 78.3515 52.013 76.6835 52.013C75.0155 52.013 73.7915 53.333 73.7915 55.157C73.7915 56.957 75.0155 58.277 76.6835 58.277C78.3515 58.277 79.5635 56.957 79.5635 55.157ZM74.8715 55.157C74.8715 53.837 75.6275 52.865 76.6835 52.865C77.7275 52.865 78.4835 53.837 78.4835 55.157C78.4835 56.453 77.7275 57.413 76.6835 57.413C75.6275 57.413 74.8715 56.453 74.8715 55.157ZM87.1117 58.085V57.233C86.8597 57.329 86.4396 57.401 86.0677 57.401C85.3116 57.401 85.0117 57.029 85.0117 56.465V53.009H87.0756V52.169H85.0117V50.717H83.9916V52.169H83.1156V53.009H83.9916V56.633C83.9916 57.677 84.6996 58.277 85.8876 58.277C86.3316 58.277 86.8477 58.181 87.1117 58.085ZM93.5205 55.157C93.5205 53.333 92.3085 52.013 90.6405 52.013C88.9725 52.013 87.7485 53.333 87.7485 55.157C87.7485 56.957 88.9725 58.277 90.6405 58.277C92.3085 58.277 93.5205 56.957 93.5205 55.157ZM88.8285 55.157C88.8285 53.837 89.5845 52.865 90.6405 52.865C91.6845 52.865 92.4405 53.837 92.4405 55.157C92.4405 56.453 91.6845 57.413 90.6405 57.413C89.5845 57.413 88.8285 56.453 88.8285 55.157ZM99.7191 58.121V52.169H98.6991V56.273C98.3991 56.933 97.8231 57.413 97.1151 57.413C96.3831 57.413 95.8551 56.837 95.8551 56.033V52.169H94.8351V56.105C94.8351 57.365 95.6751 58.277 96.8271 58.277C97.7031 58.277 98.3871 57.773 98.7351 57.137V58.121H99.7191ZM102.584 58.121V54.569C102.68 53.777 103.16 53.033 104.084 53.033C104.288 53.033 104.576 53.069 104.744 53.117V52.109C104.624 52.061 104.336 52.013 104.132 52.013C103.436 52.013 102.788 52.625 102.548 53.381V52.169H101.564V58.121H102.584ZM113.172 56.765L112.356 56.453C112.044 57.065 111.468 57.437 110.82 57.437C109.824 57.437 109.104 56.609 109.032 55.361H113.16C113.196 55.205 113.22 54.881 113.22 54.617C113.22 53.093 112.176 52.013 110.724 52.013C109.14 52.013 107.964 53.357 107.964 55.193C107.964 56.993 109.14 58.277 110.76 58.277C111.828 58.277 112.752 57.713 113.172 56.765ZM110.736 52.841C111.576 52.841 112.164 53.513 112.2 54.545H109.092C109.272 53.513 109.908 52.841 110.736 52.841ZM122.351 58.217L122.399 57.437C122.327 57.449 122.207 57.461 122.135 57.461C121.775 57.461 121.595 57.209 121.595 56.885V54.149C121.595 52.769 120.755 52.013 119.459 52.013C118.427 52.013 117.527 52.589 117.095 53.525L117.887 53.849C118.187 53.285 118.655 52.865 119.363 52.865C120.095 52.865 120.575 53.369 120.575 54.113V54.581L119.183 54.749C117.863 54.917 116.927 55.553 116.927 56.657C116.927 57.605 117.683 58.277 118.739 58.277C119.579 58.277 120.239 57.869 120.623 57.233C120.767 57.917 121.211 58.277 121.883 58.277C122.063 58.277 122.207 58.253 122.351 58.217ZM119.015 57.449C118.415 57.449 117.995 57.089 117.995 56.585C117.995 55.973 118.571 55.613 119.363 55.517L120.575 55.373V56.465C120.263 57.041 119.675 57.449 119.015 57.449ZM124.509 52.169H123.489V58.121H124.509V52.169ZM124.509 49.805H123.489V50.993H124.509V49.805ZM133.746 56.657L132.882 56.321C132.594 56.981 132.114 57.401 131.454 57.401C130.482 57.401 129.774 56.477 129.774 55.193C129.774 53.849 130.458 52.877 131.406 52.877C132.006 52.877 132.522 53.249 132.81 53.945L133.698 53.585C133.278 52.625 132.474 52.013 131.382 52.013C129.822 52.013 128.694 53.345 128.694 55.193C128.694 56.981 129.834 58.277 131.418 58.277C132.51 58.277 133.362 57.593 133.746 56.657ZM136.005 49.673H134.985V58.121H136.005V49.673ZM142.657 58.121V52.169H141.637V56.273C141.337 56.933 140.761 57.413 140.053 57.413C139.321 57.413 138.793 56.837 138.793 56.033V52.169H137.773V56.105C137.773 57.365 138.613 58.277 139.765 58.277C140.641 58.277 141.325 57.773 141.673 57.137V58.121H142.657ZM149.937 55.121C149.937 53.321 148.869 52.013 147.405 52.013C146.721 52.013 145.965 52.397 145.521 52.961V49.673H144.501V58.121H145.461V57.401C145.917 57.917 146.661 58.277 147.309 58.277C148.833 58.277 149.937 56.957 149.937 55.121ZM147.069 57.425C146.445 57.425 145.845 57.101 145.521 56.657V53.693C145.845 53.201 146.481 52.877 147.129 52.877C148.125 52.877 148.857 53.813 148.857 55.109C148.857 56.441 148.101 57.425 147.069 57.425ZM156.486 57.425C155.49 57.425 154.782 56.477 154.782 55.181C154.782 53.849 155.526 52.877 156.558 52.877C157.194 52.877 157.782 53.165 158.094 53.621V56.561C157.746 57.077 157.11 57.425 156.486 57.425ZM159.114 58.121V49.673H158.094V52.817C157.686 52.337 156.99 52.013 156.342 52.013C154.806 52.013 153.69 53.345 153.69 55.193C153.69 56.981 154.77 58.277 156.258 58.277C156.942 58.277 157.71 57.857 158.154 57.269V58.121H159.114ZM165.898 58.217L165.946 57.437C165.874 57.449 165.754 57.461 165.682 57.461C165.322 57.461 165.142 57.209 165.142 56.885V54.149C165.142 52.769 164.302 52.013 163.006 52.013C161.974 52.013 161.074 52.589 160.642 53.525L161.434 53.849C161.734 53.285 162.202 52.865 162.91 52.865C163.642 52.865 164.122 53.369 164.122 54.113V54.581L162.73 54.749C161.41 54.917 160.474 55.553 160.474 56.657C160.474 57.605 161.23 58.277 162.286 58.277C163.126 58.277 163.786 57.869 164.17 57.233C164.314 57.917 164.758 58.277 165.43 58.277C165.61 58.277 165.754 58.253 165.898 58.217ZM162.562 57.449C161.962 57.449 161.542 57.089 161.542 56.585C161.542 55.973 162.118 55.613 162.91 55.517L164.122 55.373V56.465C163.81 57.041 163.222 57.449 162.562 57.449ZM166.235 52.169L168.383 58.121H169.439L171.575 52.169H170.543L168.959 56.801H168.923L167.339 52.169H166.235ZM177.558 58.217L177.606 57.437C177.534 57.449 177.414 57.461 177.342 57.461C176.982 57.461 176.802 57.209 176.802 56.885V54.149C176.802 52.769 175.962 52.013 174.666 52.013C173.634 52.013 172.734 52.589 172.302 53.525L173.094 53.849C173.394 53.285 173.862 52.865 174.57 52.865C175.302 52.865 175.782 53.369 175.782 54.113V54.581L174.39 54.749C173.07 54.917 172.134 55.553 172.134 56.657C172.134 57.605 172.89 58.277 173.946 58.277C174.786 58.277 175.446 57.869 175.83 57.233C175.974 57.917 176.418 58.277 177.09 58.277C177.27 58.277 177.414 58.253 177.558 58.217ZM174.222 57.449C173.622 57.449 173.202 57.089 173.202 56.585C173.202 55.973 173.778 55.613 174.57 55.517L175.782 55.373V56.465C175.47 57.041 174.882 57.449 174.222 57.449ZM183.7 58.121V54.185C183.7 52.913 182.812 52.013 181.648 52.013C180.796 52.013 180.076 52.517 179.68 53.081V52.169H178.696V58.121H179.716V53.801C180.088 53.273 180.736 52.877 181.408 52.877C182.152 52.877 182.68 53.429 182.68 54.257V58.121H183.7ZM188.795 58.085V57.233C188.543 57.329 188.123 57.401 187.751 57.401C186.995 57.401 186.695 57.029 186.695 56.465V53.009H188.759V52.169H186.695V50.717H185.675V52.169H184.799V53.009H185.675V56.633C185.675 57.677 186.383 58.277 187.571 58.277C188.015 58.277 188.531 58.181 188.795 58.085ZM190.955 52.169H189.935V58.121H190.955V52.169ZM190.955 49.805H189.935V50.993H190.955V49.805ZM200.503 58.217L200.551 57.437C200.479 57.449 200.359 57.461 200.287 57.461C199.927 57.461 199.747 57.209 199.747 56.885V54.149C199.747 52.769 198.907 52.013 197.611 52.013C196.579 52.013 195.679 52.589 195.247 53.525L196.039 53.849C196.339 53.285 196.807 52.865 197.515 52.865C198.247 52.865 198.727 53.369 198.727 54.113V54.581L197.335 54.749C196.015 54.917 195.079 55.553 195.079 56.657C195.079 57.605 195.835 58.277 196.891 58.277C197.731 58.277 198.391 57.869 198.775 57.233C198.919 57.917 199.363 58.277 200.035 58.277C200.215 58.277 200.359 58.253 200.503 58.217ZM197.167 57.449C196.567 57.449 196.147 57.089 196.147 56.585C196.147 55.973 196.723 55.613 197.515 55.517L198.727 55.373V56.465C198.415 57.041 197.827 57.449 197.167 57.449ZM209.207 58.121V52.169H208.187V56.273C207.887 56.933 207.311 57.413 206.603 57.413C205.871 57.413 205.343 56.837 205.343 56.033V52.169H204.323V56.105C204.323 57.365 205.163 58.277 206.315 58.277C207.191 58.277 207.875 57.773 208.223 57.137V58.121H209.207ZM216.056 58.121V54.185C216.056 52.913 215.168 52.013 214.004 52.013C213.152 52.013 212.432 52.517 212.036 53.081V52.169H211.052V58.121H212.072V53.801C212.444 53.273 213.092 52.877 213.764 52.877C214.508 52.877 215.036 53.429 215.036 54.257V58.121H216.056ZM224.095 53.009V52.169H221.923V51.929C221.923 50.945 222.415 50.369 223.207 50.369C223.531 50.369 223.927 50.429 224.191 50.537L224.215 49.685C223.939 49.601 223.459 49.517 223.099 49.517C221.731 49.517 220.903 50.417 220.903 51.941V52.169H220.135V53.009H220.903V58.121H221.923V53.009H224.095ZM229.95 58.121V52.169H228.93V56.273C228.63 56.933 228.054 57.413 227.346 57.413C226.614 57.413 226.086 56.837 226.086 56.033V52.169H225.066V56.105C225.066 57.365 225.906 58.277 227.058 58.277C227.934 58.277 228.618 57.773 228.966 57.137V58.121H229.95ZM235.178 58.085V57.233C234.926 57.329 234.506 57.401 234.134 57.401C233.378 57.401 233.078 57.029 233.078 56.465V53.009H235.142V52.169H233.078V50.717H232.058V52.169H231.182V53.009H232.058V56.633C232.058 57.677 232.766 58.277 233.954 58.277C234.398 58.277 234.914 58.181 235.178 58.085ZM241.117 58.121V52.169H240.097V56.273C239.797 56.933 239.221 57.413 238.513 57.413C237.781 57.413 237.253 56.837 237.253 56.033V52.169H236.233V56.105C236.233 57.365 237.073 58.277 238.225 58.277C239.101 58.277 239.785 57.773 240.133 57.137V58.121H241.117ZM243.982 58.121V54.569C244.078 53.777 244.558 53.033 245.482 53.033C245.686 53.033 245.974 53.069 246.142 53.117V52.109C246.022 52.061 245.734 52.013 245.53 52.013C244.834 52.013 244.186 52.625 243.946 53.381V52.169H242.962V58.121H243.982ZM252.474 55.157C252.474 53.333 251.262 52.013 249.594 52.013C247.926 52.013 246.702 53.333 246.702 55.157C246.702 56.957 247.926 58.277 249.594 58.277C251.262 58.277 252.474 56.957 252.474 55.157ZM247.782 55.157C247.782 53.837 248.538 52.865 249.594 52.865C250.638 52.865 251.394 53.837 251.394 55.157C251.394 56.453 250.638 57.413 249.594 57.413C248.538 57.413 247.782 56.453 247.782 55.157ZM257.658 52.169H256.638V58.121H257.658V52.169ZM257.658 49.805H256.638V50.993H257.658V49.805ZM264.513 58.121V54.185C264.513 52.913 263.625 52.013 262.461 52.013C261.609 52.013 260.889 52.517 260.493 53.081V52.169H259.509V58.121H260.529V53.801C260.901 53.273 261.549 52.877 262.221 52.877C262.965 52.877 263.493 53.429 263.493 54.257V58.121H264.513ZM270.914 56.657L270.05 56.321C269.762 56.981 269.282 57.401 268.622 57.401C267.65 57.401 266.942 56.477 266.942 55.193C266.942 53.849 267.626 52.877 268.574 52.877C269.174 52.877 269.69 53.249 269.978 53.945L270.866 53.585C270.446 52.625 269.642 52.013 268.55 52.013C266.99 52.013 265.862 53.345 265.862 55.193C265.862 56.981 267.002 58.277 268.586 58.277C269.678 58.277 270.53 57.593 270.914 56.657ZM276.929 56.765L276.113 56.453C275.801 57.065 275.225 57.437 274.577 57.437C273.581 57.437 272.861 56.609 272.789 55.361H276.917C276.953 55.205 276.977 54.881 276.977 54.617C276.977 53.093 275.933 52.013 274.481 52.013C272.897 52.013 271.721 53.357 271.721 55.193C271.721 56.993 272.897 58.277 274.517 58.277C275.585 58.277 276.509 57.713 276.929 56.765ZM274.493 52.841C275.333 52.841 275.921 53.513 275.957 54.545H272.849C273.029 53.513 273.665 52.841 274.493 52.841ZM279.431 58.121V54.569C279.527 53.777 280.007 53.033 280.931 53.033C281.135 53.033 281.423 53.069 281.591 53.117V52.109C281.471 52.061 281.183 52.013 280.979 52.013C280.283 52.013 279.635 52.625 279.395 53.381V52.169H278.411V58.121H279.431ZM286.143 58.085V57.233C285.891 57.329 285.471 57.401 285.099 57.401C284.343 57.401 284.043 57.029 284.043 56.465V53.009H286.107V52.169H284.043V50.717H283.023V52.169H282.147V53.009H283.023V56.633C283.023 57.677 283.731 58.277 284.919 58.277C285.363 58.277 285.879 58.181 286.143 58.085ZM292.552 55.157C292.552 53.333 291.34 52.013 289.672 52.013C288.004 52.013 286.78 53.333 286.78 55.157C286.78 56.957 288.004 58.277 289.672 58.277C291.34 58.277 292.552 56.957 292.552 55.157ZM287.86 55.157C287.86 53.837 288.616 52.865 289.672 52.865C290.716 52.865 291.472 53.837 291.472 55.157C291.472 56.453 290.716 57.413 289.672 57.413C288.616 57.413 287.86 56.453 287.86 55.157ZM299.062 55.613L296.89 58.049L296.326 57.605L297.754 55.409L296.326 53.213L296.89 52.769L299.062 55.205V55.613ZM296.146 55.613L294.13 57.797L293.578 57.341L294.898 55.409L293.578 53.477L294.13 53.021L296.146 55.205V55.613Z" fill="black"/>
<path d="M30.9623 72.1593V77.3353H34.7863V76.0633H32.4823V72.1593H30.9623ZM39.1765 77.3753L39.2406 76.4153C39.1686 76.4233 39.0725 76.4313 39.0086 76.4313C38.8486 76.4313 38.7845 76.3193 38.7845 76.0873V74.8153C38.7845 73.7433 38.1445 73.1993 37.0566 73.1993C36.0805 73.1993 35.4725 73.6953 35.1925 74.3593L36.2085 74.7833C36.3445 74.5033 36.5845 74.2713 36.8965 74.2713C37.1845 74.2713 37.3765 74.4793 37.3765 74.7593V74.9033L36.5605 75.0473C35.5845 75.2233 35.0405 75.6953 35.0405 76.3673C35.0405 77.0153 35.5365 77.4553 36.2245 77.4553C36.7845 77.4553 37.2325 77.1673 37.5045 76.7913C37.7285 77.2793 38.1525 77.4553 38.6405 77.4553C38.8326 77.4553 39.0325 77.4233 39.1765 77.3753ZM36.8565 76.4713C36.6165 76.4713 36.4725 76.3273 36.4725 76.1353C36.4725 75.9033 36.6565 75.7593 36.9605 75.6953L37.3765 75.6233V76.2313C37.2405 76.3753 37.0485 76.4713 36.8565 76.4713ZM42.7557 73.3753H43.2677C43.6757 73.3753 43.9477 73.6153 43.9477 73.9673C43.9477 74.3353 43.6837 74.5913 43.2677 74.5913H42.7557V73.3753ZM42.7557 77.3353V75.7753H43.1957C43.2677 75.7753 43.3397 75.7753 43.4117 75.7673L44.1237 77.3353H45.8037L44.7637 75.3433C45.2517 75.0233 45.5397 74.5273 45.5397 73.9513C45.5397 72.9033 44.6037 72.1593 43.3157 72.1593H41.2357V77.3353H42.7557ZM50.1922 77.3753L50.2562 76.4153C50.1842 76.4233 50.0882 76.4313 50.0242 76.4313C49.8642 76.4313 49.8002 76.3193 49.8002 76.0873V74.8153C49.8002 73.7433 49.1602 73.1993 48.0722 73.1993C47.0962 73.1993 46.4882 73.6953 46.2082 74.3593L47.2242 74.7833C47.3602 74.5033 47.6002 74.2713 47.9122 74.2713C48.2002 74.2713 48.3922 74.4793 48.3922 74.7593V74.9033L47.5762 75.0473C46.6002 75.2233 46.0562 75.6953 46.0562 76.3673C46.0562 77.0153 46.5522 77.4553 47.2402 77.4553C47.8002 77.4553 48.2482 77.1673 48.5202 76.7913C48.7442 77.2793 49.1682 77.4553 49.6562 77.4553C49.8482 77.4553 50.0482 77.4233 50.1922 77.3753ZM47.8722 76.4713C47.6322 76.4713 47.4882 76.3273 47.4882 76.1353C47.4882 75.9033 47.6722 75.7593 47.9762 75.6953L48.3922 75.6233V76.2313C48.2562 76.3753 48.0642 76.4713 47.8722 76.4713ZM52.7102 76.3273C52.5182 76.3273 52.3182 76.2553 52.1662 76.1353V74.5913C52.3182 74.4393 52.5342 74.3353 52.7342 74.3353C53.1502 74.3353 53.4542 74.7353 53.4542 75.3113C53.4542 75.9113 53.1422 76.3273 52.7102 76.3273ZM54.9502 75.3273C54.9502 74.0953 54.2462 73.2073 53.2942 73.2073C52.8062 73.2073 52.3582 73.4713 52.1182 73.8393V73.3273H50.7262V78.7113H52.1662V76.9273C52.3982 77.2393 52.8302 77.4553 53.2542 77.4553C54.2302 77.4553 54.9502 76.5593 54.9502 75.3273ZM57.5306 76.3273C57.3385 76.3273 57.1385 76.2553 56.9865 76.1353V74.5913C57.1385 74.4393 57.3545 74.3353 57.5545 74.3353C57.9705 74.3353 58.2745 74.7353 58.2745 75.3113C58.2745 75.9113 57.9625 76.3273 57.5306 76.3273ZM59.7706 75.3273C59.7706 74.0953 59.0666 73.2073 58.1145 73.2073C57.6265 73.2073 57.1786 73.4713 56.9385 73.8393V73.3273H55.5465V78.7113H56.9865V76.9273C57.2185 77.2393 57.6505 77.4553 58.0745 77.4553C59.0505 77.4553 59.7706 76.5593 59.7706 75.3273ZM61.8069 77.3353V75.5113C61.8789 74.8793 62.1749 74.5353 62.7749 74.5353C62.8869 74.5353 63.0389 74.5593 63.1509 74.5913V73.2633C63.0309 73.2313 62.9109 73.1993 62.7589 73.1993C62.2949 73.1993 61.9109 73.6953 61.7429 74.2393V73.3273H60.3669V77.3353H61.8069ZM67.2891 76.4073L66.281 75.9673C66.113 76.2553 65.841 76.4233 65.569 76.4233C65.169 76.4233 64.897 76.1353 64.825 75.6233H67.337C67.3531 75.5273 67.385 75.2713 67.385 75.0553C67.385 73.9433 66.585 73.1993 65.473 73.1993C64.257 73.1993 63.385 74.1513 63.385 75.3993C63.385 76.6233 64.233 77.4553 65.457 77.4553C66.305 77.4553 67.009 77.0393 67.2891 76.4073ZM65.465 74.2073C65.793 74.2073 65.993 74.4553 66.025 74.8793H64.841C64.929 74.4473 65.145 74.2073 65.465 74.2073ZM71.544 76.1193C71.544 75.3913 70.9281 75.0073 69.976 74.7833C69.448 74.6553 69.128 74.6073 69.128 74.4153C69.128 74.2633 69.304 74.1513 69.632 74.1513C70.048 74.1513 70.376 74.3273 70.6 74.5993L71.5201 74.1913C71.232 73.6553 70.592 73.2073 69.624 73.2073C68.576 73.2073 67.848 73.7673 67.848 74.5593C67.848 75.3113 68.576 75.6793 69.216 75.8233C69.736 75.9433 70.272 76.0313 70.272 76.2633C70.272 76.4393 70.056 76.5193 69.776 76.5193C69.336 76.5193 68.88 76.3433 68.64 76.0393L67.68 76.4553C67.96 77.0073 68.744 77.4553 69.776 77.4553C70.8161 77.4553 71.544 76.9433 71.544 76.1193ZM75.8359 76.4073L74.8279 75.9673C74.6599 76.2553 74.3879 76.4233 74.1159 76.4233C73.7159 76.4233 73.4439 76.1353 73.3719 75.6233H75.8839C75.8999 75.5273 75.9319 75.2713 75.9319 75.0553C75.9319 73.9433 75.1319 73.1993 74.0199 73.1993C72.8039 73.1993 71.9319 74.1513 71.9319 75.3993C71.9319 76.6233 72.7799 77.4553 74.0039 77.4553C74.8519 77.4553 75.5559 77.0393 75.8359 76.4073ZM74.0119 74.2073C74.3399 74.2073 74.5399 74.4553 74.5719 74.8793H73.3879C73.4759 74.4473 73.6919 74.2073 74.0119 74.2073ZM80.4189 77.3353V74.7753C80.4189 73.8713 79.8429 73.1993 79.0909 73.1993C78.6029 73.1993 78.1869 73.4713 77.9069 73.9033V73.3273H76.5309V77.3353H77.9709V74.5833C78.0989 74.4633 78.2989 74.3673 78.4989 74.3673C78.8029 74.3673 78.9789 74.5833 78.9789 74.9193V77.3353H80.4189ZM84.0277 77.3273V76.2233C83.9077 76.2553 83.7317 76.2953 83.4917 76.2953C83.1237 76.2953 82.9317 76.1273 82.9317 75.7913V74.4393H83.9877V73.3273H82.9317V72.3513H81.4917V73.3273H80.8837V74.4393H81.4917V76.1593C81.4917 76.9673 82.0357 77.4553 83.1477 77.4553C83.4757 77.4553 83.8037 77.3993 84.0277 77.3273ZM88.4734 77.3753L88.5374 76.4153C88.4654 76.4233 88.3694 76.4313 88.3054 76.4313C88.1454 76.4313 88.0814 76.3193 88.0814 76.0873V74.8153C88.0814 73.7433 87.4414 73.1993 86.3534 73.1993C85.3774 73.1993 84.7694 73.6953 84.4894 74.3593L85.5054 74.7833C85.6414 74.5033 85.8814 74.2713 86.1934 74.2713C86.4814 74.2713 86.6734 74.4793 86.6734 74.7593V74.9033L85.8574 75.0473C84.8814 75.2233 84.3374 75.6953 84.3374 76.3673C84.3374 77.0153 84.8334 77.4553 85.5214 77.4553C86.0814 77.4553 86.5294 77.1673 86.8014 76.7913C87.0254 77.2793 87.4494 77.4553 87.9374 77.4553C88.1294 77.4553 88.3294 77.4233 88.4734 77.3753ZM86.1534 76.4713C85.9134 76.4713 85.7694 76.3273 85.7694 76.1353C85.7694 75.9033 85.9534 75.7593 86.2574 75.6953L86.6734 75.6233V76.2313C86.5374 76.3753 86.3454 76.4713 86.1534 76.4713ZM92.8955 77.3353V74.7753C92.8955 73.8713 92.3195 73.1993 91.5675 73.1993C91.0795 73.1993 90.6635 73.4713 90.3835 73.9033V73.3273H89.0075V77.3353H90.4475V74.5833C90.5755 74.4633 90.7755 74.3673 90.9755 74.3673C91.2795 74.3673 91.4555 74.5833 91.4555 74.9193V77.3353H92.8955ZM96.5043 77.3273V76.2233C96.3843 76.2553 96.2083 76.2953 95.9683 76.2953C95.6003 76.2953 95.4083 76.1273 95.4083 75.7913V74.4393H96.4643V73.3273H95.4083V72.3513H93.9683V73.3273H93.3603V74.4393H93.9683V76.1593C93.9683 76.9673 94.5123 77.4553 95.6243 77.4553C95.9523 77.4553 96.2803 77.3993 96.5043 77.3273ZM100.711 76.4073L99.7029 75.9673C99.5349 76.2553 99.2629 76.4233 98.9909 76.4233C98.5909 76.4233 98.3189 76.1353 98.2469 75.6233H100.759C100.775 75.5273 100.807 75.2713 100.807 75.0553C100.807 73.9433 100.007 73.1993 98.8949 73.1993C97.6789 73.1993 96.8069 74.1513 96.8069 75.3993C96.8069 76.6233 97.6549 77.4553 98.8789 77.4553C99.7269 77.4553 100.431 77.0393 100.711 76.4073ZM98.8869 74.2073C99.2149 74.2073 99.4149 74.4553 99.4469 74.8793H98.2629C98.3509 74.4473 98.5669 74.2073 98.8869 74.2073ZM104.827 76.3353C104.427 76.3353 104.139 75.9193 104.139 75.3513C104.139 74.7513 104.451 74.3273 104.883 74.3273C105.083 74.3273 105.283 74.3993 105.419 74.5113V76.0873C105.267 76.2393 105.051 76.3353 104.827 76.3353ZM106.859 77.3353V71.8233H105.419V73.7273C105.203 73.4153 104.795 73.1993 104.363 73.1993C103.363 73.1993 102.643 74.1113 102.643 75.3673C102.643 76.5833 103.347 77.4553 104.307 77.4553C104.755 77.4553 105.227 77.1913 105.491 76.8073V77.3353H106.859ZM109.104 73.3273H107.664V77.3353H109.104V73.3273ZM109.104 71.8393H107.664V72.9033H109.104V71.8393ZM111.439 72.1593V77.3353H115.263V76.0633H112.959V72.1593H111.439ZM117.213 73.3273H115.773V77.3353H117.213V73.3273ZM117.213 71.8393H115.773V72.9033H117.213V71.8393ZM121.583 76.1193C121.583 75.3913 120.967 75.0073 120.015 74.7833C119.487 74.6553 119.167 74.6073 119.167 74.4153C119.167 74.2633 119.343 74.1513 119.671 74.1513C120.087 74.1513 120.415 74.3273 120.639 74.5993L121.559 74.1913C121.271 73.6553 120.631 73.2073 119.663 73.2073C118.615 73.2073 117.887 73.7673 117.887 74.5593C117.887 75.3113 118.615 75.6793 119.255 75.8233C119.775 75.9433 120.311 76.0313 120.311 76.2633C120.311 76.4393 120.095 76.5193 119.815 76.5193C119.375 76.5193 118.919 76.3433 118.679 76.0393L117.719 76.4553C117.999 77.0073 118.783 77.4553 119.815 77.4553C120.855 77.4553 121.583 76.9433 121.583 76.1193ZM125.028 77.3273V76.2233C124.908 76.2553 124.732 76.2953 124.492 76.2953C124.124 76.2953 123.932 76.1273 123.932 75.7913V74.4393H124.988V73.3273H123.932V72.3513H122.492V73.3273H121.884V74.4393H122.492V76.1593C122.492 76.9673 123.036 77.4553 124.148 77.4553C124.476 77.4553 124.804 77.3993 125.028 77.3273ZM129.473 77.3753L129.537 76.4153C129.465 76.4233 129.369 76.4313 129.305 76.4313C129.145 76.4313 129.081 76.3193 129.081 76.0873V74.8153C129.081 73.7433 128.441 73.1993 127.353 73.1993C126.377 73.1993 125.769 73.6953 125.489 74.3593L126.505 74.7833C126.641 74.5033 126.881 74.2713 127.193 74.2713C127.481 74.2713 127.673 74.4793 127.673 74.7593V74.9033L126.857 75.0473C125.881 75.2233 125.337 75.6953 125.337 76.3673C125.337 77.0153 125.833 77.4553 126.521 77.4553C127.081 77.4553 127.529 77.1673 127.801 76.7913C128.025 77.2793 128.449 77.4553 128.937 77.4553C129.129 77.4553 129.329 77.4233 129.473 77.3753ZM127.153 76.4713C126.913 76.4713 126.769 76.3273 126.769 76.1353C126.769 75.9033 126.953 75.7593 127.257 75.6953L127.673 75.6233V76.2313C127.537 76.3753 127.345 76.4713 127.153 76.4713ZM130.887 77.1593V76.2713H130.087V77.2873H130.463C130.463 77.6953 130.327 77.9993 130.023 78.3273L130.303 78.5913C130.695 78.1913 130.887 77.7113 130.887 77.1593ZM135.033 73.0713L133.521 73.7033L133.721 74.2473L134.873 73.7993V76.7753H133.617V77.3353H136.641V76.7753H135.553V73.0713H135.033ZM141.598 73.9273V73.3673H140.15V73.2073C140.15 72.5513 140.478 72.1673 141.006 72.1673C141.222 72.1673 141.486 72.2073 141.662 72.2793L141.678 71.7113C141.494 71.6553 141.174 71.5993 140.934 71.5993C140.022 71.5993 139.47 72.1993 139.47 73.2153V73.3673H138.958V73.9273H139.47V77.3353H140.15V73.9273H141.598ZM145.282 76.4313L144.738 76.2233C144.53 76.6313 144.146 76.8793 143.714 76.8793C143.05 76.8793 142.57 76.3273 142.522 75.4953H145.274C145.298 75.3913 145.314 75.1753 145.314 74.9993C145.314 73.9833 144.618 73.2633 143.65 73.2633C142.594 73.2633 141.81 74.1593 141.81 75.3833C141.81 76.5833 142.594 77.4393 143.674 77.4393C144.386 77.4393 145.002 77.0633 145.282 76.4313ZM143.658 73.8153C144.218 73.8153 144.61 74.2633 144.634 74.9513H142.562C142.682 74.2633 143.106 73.8153 143.658 73.8153ZM149.894 75.3353C149.894 74.1353 149.182 73.2633 148.206 73.2633C147.75 73.2633 147.246 73.5193 146.95 73.8953V71.7033H146.27V77.3353H146.91V76.8553C147.214 77.1993 147.71 77.4393 148.142 77.4393C149.158 77.4393 149.894 76.5593 149.894 75.3353ZM147.982 76.8713C147.566 76.8713 147.166 76.6553 146.95 76.3593V74.3833C147.166 74.0553 147.59 73.8393 148.022 73.8393C148.686 73.8393 149.174 74.4633 149.174 75.3273C149.174 76.2153 148.67 76.8713 147.982 76.8713ZM154.464 75.3353C154.464 74.1353 153.752 73.2633 152.776 73.2633C152.32 73.2633 151.816 73.5193 151.52 73.8953V71.7033H150.84V77.3353H151.48V76.8553C151.784 77.1993 152.28 77.4393 152.712 77.4393C153.728 77.4393 154.464 76.5593 154.464 75.3353ZM152.552 76.8713C152.136 76.8713 151.736 76.6553 151.52 76.3593V74.3833C151.736 74.0553 152.16 73.8393 152.592 73.8393C153.256 73.8393 153.744 74.4633 153.744 75.3273C153.744 76.2153 153.24 76.8713 152.552 76.8713ZM156.091 77.3353V74.9673C156.155 74.4393 156.475 73.9433 157.091 73.9433C157.227 73.9433 157.419 73.9673 157.531 73.9993V73.3273C157.451 73.2953 157.259 73.2633 157.123 73.2633C156.659 73.2633 156.227 73.6713 156.067 74.1753V73.3673H155.411V77.3353H156.091ZM161.503 77.3993L161.535 76.8793C161.487 76.8873 161.407 76.8953 161.359 76.8953C161.119 76.8953 160.999 76.7273 160.999 76.5113V74.6873C160.999 73.7673 160.439 73.2633 159.575 73.2633C158.887 73.2633 158.287 73.6473 157.999 74.2713L158.527 74.4873C158.727 74.1113 159.039 73.8313 159.511 73.8313C159.999 73.8313 160.319 74.1673 160.319 74.6633V74.9753L159.391 75.0873C158.511 75.1993 157.887 75.6233 157.887 76.3593C157.887 76.9913 158.391 77.4393 159.095 77.4393C159.655 77.4393 160.095 77.1673 160.351 76.7433C160.447 77.1993 160.743 77.4393 161.191 77.4393C161.311 77.4393 161.407 77.4233 161.503 77.3993ZM159.279 76.8873C158.879 76.8873 158.599 76.6473 158.599 76.3113C158.599 75.9033 158.983 75.6633 159.511 75.5993L160.319 75.5033V76.2313C160.111 76.6153 159.719 76.8873 159.279 76.8873ZM162.942 73.3673H162.262V77.3353H162.942V73.3673ZM162.942 71.7913H162.262V72.5833H162.942V71.7913ZM167.728 75.3593C167.728 74.1433 166.92 73.2633 165.808 73.2633C164.696 73.2633 163.88 74.1433 163.88 75.3593C163.88 76.5593 164.696 77.4393 165.808 77.4393C166.92 77.4393 167.728 76.5593 167.728 75.3593ZM164.6 75.3593C164.6 74.4793 165.104 73.8313 165.808 73.8313C166.504 73.8313 167.008 74.4793 167.008 75.3593C167.008 76.2233 166.504 76.8633 165.808 76.8633C165.104 76.8633 164.6 76.2233 164.6 75.3593ZM173.929 77.3353V76.7353H171.233L172.393 75.9033C172.921 75.5193 173.601 74.9833 173.601 74.2473C173.601 73.5193 172.897 72.9753 172.025 72.9753C171.217 72.9753 170.513 73.4393 170.217 74.1273L170.761 74.3753C170.953 73.8873 171.425 73.5513 171.953 73.5513C172.457 73.5513 172.881 73.8633 172.881 74.3033C172.881 74.7273 172.513 75.0393 172.057 75.3913L170.241 76.7753V77.3353H173.929ZM174.553 75.1993C174.553 76.4953 175.385 77.4393 176.529 77.4393C177.673 77.4393 178.505 76.4953 178.505 75.1993C178.505 73.9113 177.673 72.9753 176.529 72.9753C175.385 72.9753 174.553 73.9113 174.553 75.1993ZM175.273 75.1993C175.273 74.2473 175.801 73.5433 176.529 73.5433C177.257 73.5433 177.785 74.2473 177.785 75.1993C177.785 76.1673 177.257 76.8713 176.529 76.8713C175.801 76.8713 175.273 76.1673 175.273 75.1993ZM182.905 77.3353V76.7353H180.209L181.369 75.9033C181.897 75.5193 182.577 74.9833 182.577 74.2473C182.577 73.5193 181.873 72.9753 181.001 72.9753C180.193 72.9753 179.489 73.4393 179.193 74.1273L179.737 74.3753C179.929 73.8873 180.401 73.5513 180.929 73.5513C181.433 73.5513 181.857 73.8633 181.857 74.3033C181.857 74.7273 181.489 75.0393 181.033 75.3913L179.217 76.7753V77.3353H182.905ZM187.21 77.3353V76.7353H184.514L185.674 75.9033C186.202 75.5193 186.882 74.9833 186.882 74.2473C186.882 73.5193 186.178 72.9753 185.306 72.9753C184.498 72.9753 183.794 73.4393 183.498 74.1273L184.042 74.3753C184.234 73.8873 184.706 73.5513 185.234 73.5513C185.738 73.5513 186.162 73.8633 186.162 74.3033C186.162 74.7273 185.794 75.0393 185.338 75.3913L183.522 76.7753V77.3353H187.21Z" fill="black"/>
</svg>
