<svg width="331" height="91" viewBox="0 0 331 91" fill="none" xmlns="http://www.w3.org/2000/svg">
<path d="M0.444275 15.553V74.2818L14.2931 90.2987H315.409L330.445 74.2818V17.8411L315.409 0.298706H14.2931L0.444275 15.553Z" fill="white"/>
<path d="M32.8508 72.0633C31.6748 72.0633 30.7308 72.7753 30.7308 73.8073C30.7308 74.6153 31.3628 75.0633 32.4508 75.3593C33.2748 75.5833 33.5868 75.6873 33.5868 75.9113C33.5868 76.1433 33.3388 76.2873 32.9468 76.2873C32.3548 76.2873 31.9308 75.9993 31.7068 75.6313L30.5868 76.1913C31.0428 76.9753 31.8028 77.4473 32.9708 77.4473C34.2268 77.4473 35.0908 76.7353 35.0908 75.7273C35.0908 74.8153 34.3388 74.4073 33.2508 74.1273C32.4908 73.9193 32.2428 73.8073 32.2428 73.6073C32.2428 73.3913 32.5148 73.2313 32.8828 73.2313C33.2988 73.2313 33.6988 73.4713 33.9708 73.8713L35.0908 73.2953C34.6428 72.5353 33.8828 72.0633 32.8508 72.0633ZM39.6288 77.3753L39.6928 76.4153C39.6208 76.4233 39.5248 76.4313 39.4608 76.4313C39.3008 76.4313 39.2368 76.3193 39.2368 76.0873V74.8153C39.2368 73.7433 38.5968 73.1993 37.5088 73.1993C36.5328 73.1993 35.9248 73.6953 35.6448 74.3593L36.6608 74.7833C36.7968 74.5033 37.0368 74.2713 37.3488 74.2713C37.6368 74.2713 37.8288 74.4793 37.8288 74.7593V74.9033L37.0128 75.0473C36.0368 75.2233 35.4928 75.6953 35.4928 76.3673C35.4928 77.0153 35.9888 77.4553 36.6768 77.4553C37.2368 77.4553 37.6848 77.1673 37.9568 76.7913C38.1808 77.2793 38.6048 77.4553 39.0928 77.4553C39.2848 77.4553 39.4848 77.4233 39.6288 77.3753ZM37.3088 76.4713C37.0688 76.4713 36.9248 76.3273 36.9248 76.1353C36.9248 75.9033 37.1088 75.7593 37.4128 75.6953L37.8288 75.6233V76.2313C37.6928 76.3753 37.5008 76.4713 37.3088 76.4713ZM41.6029 71.8233H40.1629V77.3353H41.6029V71.8233ZM48.5569 77.3353V74.7913C48.5569 73.8553 47.9729 73.2153 47.2289 73.2153C46.7489 73.2153 46.3169 73.4713 46.0209 73.9433C45.7969 73.4953 45.4049 73.2153 44.9489 73.2153C44.4929 73.2153 44.0689 73.4793 43.7889 73.9193V73.3273H42.4129V77.3353H43.8529V74.6153C43.9649 74.4873 44.1489 74.3833 44.3409 74.3833C44.5889 74.3833 44.7649 74.5913 44.7649 74.9273V77.3353H46.2049V74.7913C46.2049 74.7273 46.2049 74.6633 46.1969 74.6073C46.3089 74.4873 46.5009 74.3833 46.6929 74.3833C46.9409 74.3833 47.1169 74.5913 47.1169 74.9273V77.3353H48.5569ZM53.4628 75.3353C53.4628 74.1033 52.5508 73.2073 51.2948 73.2073C50.0308 73.2073 49.1108 74.1033 49.1108 75.3353C49.1108 76.5593 50.0308 77.4553 51.2948 77.4553C52.5508 77.4553 53.4628 76.5593 53.4628 75.3353ZM50.5988 75.3353C50.5988 74.7593 50.8948 74.3353 51.2948 74.3353C51.6868 74.3353 51.9748 74.7593 51.9748 75.3353C51.9748 75.9033 51.6868 76.3273 51.2948 76.3273C50.8948 76.3273 50.5988 75.9033 50.5988 75.3353ZM54.9335 77.1593V76.2713H54.1335V77.2873H54.5095C54.5095 77.6953 54.3735 77.9993 54.0695 78.3273L54.3495 78.5913C54.7415 78.1913 54.9335 77.7113 54.9335 77.1593ZM59.0787 73.0713L57.5667 73.7033L57.7667 74.2473L58.9187 73.7993V76.7753H57.6627V77.3353H60.6867V76.7753H59.5987V73.0713H59.0787ZM62.9924 75.2953C62.3204 75.2953 61.9524 74.9593 61.9524 74.4953C61.9524 73.9673 62.4564 73.5513 63.0644 73.5513C63.6964 73.5513 64.1604 73.9673 64.3284 74.6393C64.0084 75.0713 63.5364 75.2953 62.9924 75.2953ZM61.2404 74.4793C61.2404 75.2793 61.9204 75.8633 62.8884 75.8633C63.4484 75.8633 64.0324 75.6553 64.4004 75.2553C64.4004 76.2153 63.8964 76.8713 63.0084 76.8713C62.4804 76.8713 61.9844 76.6313 61.6404 76.2873L61.1764 76.6473C61.5684 77.1113 62.2724 77.4393 63.0324 77.4393C64.2884 77.4393 65.1044 76.5273 65.1044 75.2073C65.1044 73.8873 64.2804 72.9833 63.0644 72.9833C62.0484 72.9833 61.2404 73.6233 61.2404 74.4793ZM70.8936 75.1433V74.5273H68.7496V72.7913H71.4376V72.1593H68.0136V77.3353H68.7496V75.1433H70.8936ZM75.2268 76.4313L74.6828 76.2233C74.4748 76.6313 74.0908 76.8793 73.6588 76.8793C72.9948 76.8793 72.5148 76.3273 72.4668 75.4953H75.2188C75.2428 75.3913 75.2588 75.1753 75.2588 74.9993C75.2588 73.9833 74.5628 73.2633 73.5948 73.2633C72.5388 73.2633 71.7548 74.1593 71.7548 75.3833C71.7548 76.5833 72.5388 77.4393 73.6188 77.4393C74.3308 77.4393 74.9468 77.0633 75.2268 76.4313ZM73.6028 73.8153C74.1628 73.8153 74.5548 74.2633 74.5788 74.9513H72.5068C72.6268 74.2633 73.0508 73.8153 73.6028 73.8153ZM79.8386 75.3353C79.8386 74.1353 79.1266 73.2633 78.1506 73.2633C77.6946 73.2633 77.1906 73.5193 76.8946 73.8953V71.7033H76.2146V77.3353H76.8546V76.8553C77.1586 77.1993 77.6546 77.4393 78.0866 77.4393C79.1026 77.4393 79.8386 76.5593 79.8386 75.3353ZM77.9266 76.8713C77.5106 76.8713 77.1106 76.6553 76.8946 76.3593V74.3833C77.1106 74.0553 77.5346 73.8393 77.9666 73.8393C78.6306 73.8393 79.1186 74.4633 79.1186 75.3273C79.1186 76.2153 78.6146 76.8713 77.9266 76.8713ZM84.4089 75.3353C84.4089 74.1353 83.6969 73.2633 82.7209 73.2633C82.2649 73.2633 81.7609 73.5193 81.4649 73.8953V71.7033H80.7849V77.3353H81.4249V76.8553C81.7289 77.1993 82.2249 77.4393 82.6569 77.4393C83.6729 77.4393 84.4089 76.5593 84.4089 75.3353ZM82.4969 76.8713C82.0809 76.8713 81.6809 76.6553 81.4649 76.3593V74.3833C81.6809 74.0553 82.1049 73.8393 82.5369 73.8393C83.2009 73.8393 83.6889 74.4633 83.6889 75.3273C83.6889 76.2153 83.1849 76.8713 82.4969 76.8713ZM86.0353 77.3353V74.9673C86.0993 74.4393 86.4193 73.9433 87.0353 73.9433C87.1713 73.9433 87.3633 73.9673 87.4753 73.9993V73.3273C87.3953 73.2953 87.2033 73.2633 87.0673 73.2633C86.6033 73.2633 86.1713 73.6713 86.0113 74.1753V73.3673H85.3553V77.3353H86.0353ZM91.4479 77.3993L91.4799 76.8793C91.4319 76.8873 91.3519 76.8953 91.3039 76.8953C91.0639 76.8953 90.9439 76.7273 90.9439 76.5113V74.6873C90.9439 73.7673 90.3839 73.2633 89.5199 73.2633C88.8319 73.2633 88.2319 73.6473 87.9439 74.2713L88.4719 74.4873C88.6719 74.1113 88.9839 73.8313 89.4559 73.8313C89.9439 73.8313 90.2639 74.1673 90.2639 74.6633V74.9753L89.3359 75.0873C88.4559 75.1993 87.8319 75.6233 87.8319 76.3593C87.8319 76.9913 88.3359 77.4393 89.0399 77.4393C89.5999 77.4393 90.0399 77.1673 90.2959 76.7433C90.3919 77.1993 90.6879 77.4393 91.1359 77.4393C91.2559 77.4393 91.3519 77.4233 91.4479 77.3993ZM89.2239 76.8873C88.8239 76.8873 88.5439 76.6473 88.5439 76.3113C88.5439 75.9033 88.9279 75.6633 89.4559 75.5993L90.2639 75.5033V76.2313C90.0559 76.6153 89.6639 76.8873 89.2239 76.8873ZM92.8868 73.3673H92.2068V77.3353H92.8868V73.3673ZM92.8868 71.7913H92.2068V72.5833H92.8868V71.7913ZM97.6729 75.3593C97.6729 74.1433 96.8649 73.2633 95.7529 73.2633C94.6409 73.2633 93.8249 74.1433 93.8249 75.3593C93.8249 76.5593 94.6409 77.4393 95.7529 77.4393C96.8649 77.4393 97.6729 76.5593 97.6729 75.3593ZM94.5449 75.3593C94.5449 74.4793 95.0489 73.8313 95.7529 73.8313C96.4489 73.8313 96.9529 74.4793 96.9529 75.3593C96.9529 76.2233 96.4489 76.8633 95.7529 76.8633C95.0489 76.8633 94.5449 76.2233 94.5449 75.3593ZM103.873 77.3353V76.7353H101.177L102.337 75.9033C102.865 75.5193 103.545 74.9833 103.545 74.2473C103.545 73.5193 102.841 72.9753 101.969 72.9753C101.161 72.9753 100.457 73.4393 100.161 74.1273L100.705 74.3753C100.897 73.8873 101.369 73.5513 101.897 73.5513C102.401 73.5513 102.825 73.8633 102.825 74.3033C102.825 74.7273 102.457 75.0393 102.001 75.3913L100.185 76.7753V77.3353H103.873ZM104.498 75.1993C104.498 76.4953 105.33 77.4393 106.474 77.4393C107.618 77.4393 108.45 76.4953 108.45 75.1993C108.45 73.9113 107.618 72.9753 106.474 72.9753C105.33 72.9753 104.498 73.9113 104.498 75.1993ZM105.218 75.1993C105.218 74.2473 105.746 73.5433 106.474 73.5433C107.202 73.5433 107.73 74.2473 107.73 75.1993C107.73 76.1673 107.202 76.8713 106.474 76.8713C105.746 76.8713 105.218 76.1673 105.218 75.1993ZM112.85 77.3353V76.7353H110.154L111.314 75.9033C111.842 75.5193 112.522 74.9833 112.522 74.2473C112.522 73.5193 111.818 72.9753 110.946 72.9753C110.138 72.9753 109.434 73.4393 109.138 74.1273L109.682 74.3753C109.874 73.8873 110.346 73.5513 110.874 73.5513C111.378 73.5513 111.802 73.8633 111.802 74.3033C111.802 74.7273 111.434 75.0393 110.978 75.3913L109.162 76.7753V77.3353H112.85ZM114.93 73.0713L113.418 73.7033L113.618 74.2473L114.77 73.7993V76.7753H113.514V77.3353H116.538V76.7753H115.45V73.0713H114.93Z" fill="black"/>
<path d="M30.8708 27.7907L33.0428 30.2267L33.6068 29.7827L32.1788 27.5867L33.6068 25.3907L33.0428 24.9467L30.8708 27.3827V27.7907ZM33.7868 27.7907L35.8028 29.9747L36.3548 29.5187L35.0348 27.5867L36.3548 25.6547L35.8028 25.1987L33.7868 27.3827V27.7907ZM39.0672 30.2987V27.7907H40.4592C42.2232 27.7907 43.3992 26.7107 43.3992 25.1387C43.3992 23.6027 42.2232 22.5347 40.4472 22.5347H37.9632V30.2987H39.0672ZM39.0672 23.4827H40.3512C41.4912 23.4827 42.2712 24.1547 42.2712 25.1387C42.2712 26.1587 41.4912 26.8427 40.3512 26.8427H39.0672V23.4827ZM49.5101 30.2987V24.3467H48.4901V28.4507C48.1901 29.1107 47.6141 29.5907 46.9061 29.5907C46.1741 29.5907 45.6461 29.0147 45.6461 28.2107V24.3467H44.6261V28.2827C44.6261 29.5427 45.4661 30.4547 46.6181 30.4547C47.4941 30.4547 48.1781 29.9507 48.5261 29.3147V30.2987H49.5101ZM56.7907 27.2987C56.7907 25.4987 55.7227 24.1907 54.2587 24.1907C53.5747 24.1907 52.8187 24.5747 52.3747 25.1387V21.8507H51.3547V30.2987H52.3147V29.5787C52.7707 30.0947 53.5147 30.4547 54.1627 30.4547C55.6867 30.4547 56.7907 29.1347 56.7907 27.2987ZM53.9227 29.6027C53.2987 29.6027 52.6987 29.2787 52.3747 28.8347V25.8707C52.6987 25.3787 53.3347 25.0547 53.9827 25.0547C54.9787 25.0547 55.7107 25.9907 55.7107 27.2867C55.7107 28.6187 54.9547 29.6027 53.9227 29.6027ZM63.6461 27.2987C63.6461 25.4987 62.5781 24.1907 61.1141 24.1907C60.4301 24.1907 59.6741 24.5747 59.2301 25.1387V21.8507H58.2101V30.2987H59.1701V29.5787C59.6261 30.0947 60.3701 30.4547 61.0181 30.4547C62.5421 30.4547 63.6461 29.1347 63.6461 27.2987ZM60.7781 29.6027C60.1541 29.6027 59.5541 29.2787 59.2301 28.8347V25.8707C59.5541 25.3787 60.1901 25.0547 60.8381 25.0547C61.8341 25.0547 62.5661 25.9907 62.5661 27.2867C62.5661 28.6187 61.8101 29.6027 60.7781 29.6027ZM66.0856 21.8507H65.0656V30.2987H66.0856V21.8507ZM68.9567 24.3467H67.9367V30.2987H68.9567V24.3467ZM68.9567 21.9827H67.9367V23.1707H68.9567V21.9827ZM75.4278 28.8347L74.5638 28.4987C74.2758 29.1587 73.7958 29.5787 73.1358 29.5787C72.1638 29.5787 71.4558 28.6547 71.4558 27.3707C71.4558 26.0267 72.1398 25.0547 73.0878 25.0547C73.6878 25.0547 74.2038 25.4267 74.4918 26.1227L75.3798 25.7627C74.9598 24.8027 74.1558 24.1907 73.0638 24.1907C71.5038 24.1907 70.3758 25.5227 70.3758 27.3707C70.3758 29.1587 71.5158 30.4547 73.0998 30.4547C74.1918 30.4547 75.0438 29.7707 75.4278 28.8347ZM81.5992 30.3947L81.6472 29.6147C81.5752 29.6267 81.4552 29.6387 81.3832 29.6387C81.0232 29.6387 80.8432 29.3867 80.8432 29.0627V26.3267C80.8432 24.9467 80.0032 24.1907 78.7072 24.1907C77.6752 24.1907 76.7752 24.7667 76.3432 25.7027L77.1352 26.0267C77.4352 25.4627 77.9032 25.0427 78.6112 25.0427C79.3432 25.0427 79.8232 25.5467 79.8232 26.2907V26.7587L78.4312 26.9267C77.1112 27.0947 76.1752 27.7307 76.1752 28.8347C76.1752 29.7827 76.9312 30.4547 77.9872 30.4547C78.8272 30.4547 79.4872 30.0467 79.8712 29.4107C80.0152 30.0947 80.4592 30.4547 81.1312 30.4547C81.3112 30.4547 81.4552 30.4307 81.5992 30.3947ZM78.2632 29.6267C77.6632 29.6267 77.2432 29.2667 77.2432 28.7627C77.2432 28.1507 77.8192 27.7907 78.6112 27.6947L79.8232 27.5507V28.6427C79.5112 29.2187 78.9232 29.6267 78.2632 29.6267ZM83.7575 30.2987V26.7467C83.8535 25.9547 84.3335 25.2107 85.2575 25.2107C85.4615 25.2107 85.7495 25.2467 85.9175 25.2947V24.2867C85.7975 24.2387 85.5095 24.1907 85.3055 24.1907C84.6095 24.1907 83.9615 24.8027 83.7215 25.5587V24.3467H82.7375V30.2987H83.7575ZM91.6971 28.9427L90.8811 28.6307C90.5691 29.2427 89.9931 29.6147 89.3451 29.6147C88.3491 29.6147 87.6291 28.7867 87.5571 27.5387H91.6851C91.7211 27.3827 91.7451 27.0587 91.7451 26.7947C91.7451 25.2707 90.7011 24.1907 89.2491 24.1907C87.6651 24.1907 86.4891 25.5347 86.4891 27.3707C86.4891 29.1707 87.6651 30.4547 89.2851 30.4547C90.3531 30.4547 91.2771 29.8907 91.6971 28.9427ZM89.2611 25.0187C90.1011 25.0187 90.6891 25.6907 90.7251 26.7227H87.6171C87.7971 25.6907 88.4331 25.0187 89.2611 25.0187ZM100.745 30.2987V24.3467H99.7245V28.4507C99.4245 29.1107 98.8485 29.5907 98.1405 29.5907C97.4085 29.5907 96.8805 29.0147 96.8805 28.2107V24.3467H95.8605V28.2827C95.8605 29.5427 96.7005 30.4547 97.8525 30.4547C98.7285 30.4547 99.4125 29.9507 99.7605 29.3147V30.2987H100.745ZM107.593 30.2987V26.3627C107.593 25.0907 106.705 24.1907 105.541 24.1907C104.689 24.1907 103.969 24.6947 103.573 25.2587V24.3467H102.589V30.2987H103.609V25.9787C103.981 25.4507 104.629 25.0547 105.301 25.0547C106.045 25.0547 106.573 25.6067 106.573 26.4347V30.2987H107.593ZM117.072 30.3947L117.12 29.6147C117.048 29.6267 116.928 29.6387 116.856 29.6387C116.496 29.6387 116.316 29.3867 116.316 29.0627V26.3267C116.316 24.9467 115.476 24.1907 114.18 24.1907C113.148 24.1907 112.248 24.7667 111.816 25.7027L112.608 26.0267C112.908 25.4627 113.376 25.0427 114.084 25.0427C114.816 25.0427 115.296 25.5467 115.296 26.2907V26.7587L113.904 26.9267C112.584 27.0947 111.648 27.7307 111.648 28.8347C111.648 29.7827 112.404 30.4547 113.46 30.4547C114.3 30.4547 114.96 30.0467 115.344 29.4107C115.488 30.0947 115.932 30.4547 116.604 30.4547C116.784 30.4547 116.928 30.4307 117.072 30.3947ZM113.736 29.6267C113.136 29.6267 112.716 29.2667 112.716 28.7627C112.716 28.1507 113.292 27.7907 114.084 27.6947L115.296 27.5507V28.6427C114.984 29.2187 114.396 29.6267 113.736 29.6267ZM119.23 21.8507H118.21V30.2987H119.23V21.8507ZM126.517 27.2987C126.517 25.4987 125.449 24.1907 123.985 24.1907C123.301 24.1907 122.545 24.5747 122.101 25.1387V21.8507H121.081V30.2987H122.041V29.5787C122.497 30.0947 123.241 30.4547 123.889 30.4547C125.413 30.4547 126.517 29.1347 126.517 27.2987ZM123.649 29.6027C123.025 29.6027 122.425 29.2787 122.101 28.8347V25.8707C122.425 25.3787 123.061 25.0547 123.709 25.0547C124.705 25.0547 125.437 25.9907 125.437 27.2867C125.437 28.6187 124.681 29.6027 123.649 29.6027ZM132.737 30.2987V24.3467H131.717V28.4507C131.417 29.1107 130.841 29.5907 130.133 29.5907C129.401 29.5907 128.873 29.0147 128.873 28.2107V24.3467H127.853V28.2827C127.853 29.5427 128.693 30.4547 129.845 30.4547C130.721 30.4547 131.405 29.9507 131.753 29.3147V30.2987H132.737ZM142.933 30.2987V26.3627C142.933 25.0907 142.069 24.1907 140.953 24.1907C140.161 24.1907 139.465 24.6707 139.045 25.3067C138.721 24.6227 138.097 24.1907 137.365 24.1907C136.573 24.1907 135.913 24.6947 135.565 25.2587V24.3467H134.581V30.2987H135.601V25.9547C135.937 25.4507 136.513 25.0547 137.101 25.0547C137.761 25.0547 138.241 25.6067 138.241 26.4347V30.2987H139.261V26.3627C139.261 26.1827 139.249 26.0147 139.213 25.8467C139.573 25.3907 140.149 25.0547 140.725 25.0547C141.409 25.0547 141.913 25.6067 141.913 26.4347V30.2987H142.933ZM152.788 27.3347C152.788 25.5107 151.576 24.1907 149.908 24.1907C148.24 24.1907 147.016 25.5107 147.016 27.3347C147.016 29.1347 148.24 30.4547 149.908 30.4547C151.576 30.4547 152.788 29.1347 152.788 27.3347ZM148.096 27.3347C148.096 26.0147 148.852 25.0427 149.908 25.0427C150.952 25.0427 151.708 26.0147 151.708 27.3347C151.708 28.6307 150.952 29.5907 149.908 29.5907C148.852 29.5907 148.096 28.6307 148.096 27.3347ZM159.347 30.6947C159.347 29.8307 158.711 29.3747 157.355 29.2547L156.515 29.1827C155.675 29.1107 155.375 28.9667 155.375 28.7867C155.375 28.6427 155.507 28.4387 155.627 28.3067C155.831 28.3547 156.059 28.3787 156.275 28.3787C157.571 28.3787 158.627 27.5387 158.627 26.3747C158.627 25.9427 158.495 25.5347 158.243 25.1867C158.567 25.0187 159.083 24.8747 159.563 24.8747V23.9627C158.831 23.9627 158.255 24.3107 157.895 24.8027C157.463 24.4307 156.875 24.1907 156.203 24.1907C154.871 24.1907 153.827 25.1027 153.827 26.3027C153.827 27.1547 154.355 27.8027 155.099 28.1387C154.715 28.4027 154.391 28.8107 154.391 29.0867C154.391 29.3267 154.559 29.5307 154.859 29.6867C154.115 29.9987 153.575 30.5387 153.575 31.0787C153.575 32.0627 154.667 32.6387 156.335 32.6387C158.183 32.6387 159.347 31.8227 159.347 30.6947ZM156.347 31.8587C155.231 31.8587 154.595 31.4507 154.595 30.9227C154.595 30.5147 154.967 30.1187 155.471 29.9027C155.711 29.9627 155.987 30.0107 156.299 30.0347L157.139 30.1067C158.099 30.1907 158.339 30.4187 158.339 30.8507C158.339 31.4147 157.559 31.8587 156.347 31.8587ZM154.847 26.3147C154.847 25.5587 155.423 24.9707 156.215 24.9707C157.007 24.9707 157.607 25.5587 157.607 26.3147C157.607 27.0587 157.007 27.5987 156.215 27.5987C155.423 27.5987 154.847 27.0587 154.847 26.3147ZM165.792 30.6947C165.792 29.8307 165.156 29.3747 163.8 29.2547L162.96 29.1827C162.12 29.1107 161.82 28.9667 161.82 28.7867C161.82 28.6427 161.952 28.4387 162.072 28.3067C162.276 28.3547 162.504 28.3787 162.72 28.3787C164.016 28.3787 165.072 27.5387 165.072 26.3747C165.072 25.9427 164.94 25.5347 164.688 25.1867C165.012 25.0187 165.528 24.8747 166.008 24.8747V23.9627C165.276 23.9627 164.7 24.3107 164.34 24.8027C163.908 24.4307 163.32 24.1907 162.648 24.1907C161.316 24.1907 160.272 25.1027 160.272 26.3027C160.272 27.1547 160.8 27.8027 161.544 28.1387C161.16 28.4027 160.836 28.8107 160.836 29.0867C160.836 29.3267 161.004 29.5307 161.304 29.6867C160.56 29.9987 160.02 30.5387 160.02 31.0787C160.02 32.0627 161.112 32.6387 162.78 32.6387C164.628 32.6387 165.792 31.8227 165.792 30.6947ZM162.792 31.8587C161.676 31.8587 161.04 31.4507 161.04 30.9227C161.04 30.5147 161.412 30.1187 161.916 29.9027C162.156 29.9627 162.432 30.0107 162.744 30.0347L163.584 30.1067C164.544 30.1907 164.784 30.4187 164.784 30.8507C164.784 31.4147 164.004 31.8587 162.792 31.8587ZM161.292 26.3147C161.292 25.5587 161.868 24.9707 162.66 24.9707C163.452 24.9707 164.052 25.5587 164.052 26.3147C164.052 27.0587 163.452 27.5987 162.66 27.5987C161.868 27.5987 161.292 27.0587 161.292 26.3147ZM168.156 24.3467H167.136V30.2987H168.156V24.3467ZM168.156 21.9827H167.136V23.1707H168.156V21.9827ZM177.549 28.9427L176.733 28.6307C176.421 29.2427 175.845 29.6147 175.197 29.6147C174.201 29.6147 173.481 28.7867 173.409 27.5387H177.537C177.573 27.3827 177.597 27.0587 177.597 26.7947C177.597 25.2707 176.553 24.1907 175.101 24.1907C173.517 24.1907 172.341 25.5347 172.341 27.3707C172.341 29.1707 173.517 30.4547 175.137 30.4547C176.205 30.4547 177.129 29.8907 177.549 28.9427ZM175.113 25.0187C175.953 25.0187 176.541 25.6907 176.577 26.7227H173.469C173.649 25.6907 174.285 25.0187 175.113 25.0187ZM175.881 23.0627L174.081 21.4067L173.385 22.2347L175.365 23.6867L175.881 23.0627ZM186.416 28.8347L185.552 28.4987C185.264 29.1587 184.784 29.5787 184.124 29.5787C183.152 29.5787 182.444 28.6547 182.444 27.3707C182.444 26.0267 183.128 25.0547 184.076 25.0547C184.676 25.0547 185.192 25.4267 185.48 26.1227L186.368 25.7627C185.948 24.8027 185.144 24.1907 184.052 24.1907C182.492 24.1907 181.364 25.5227 181.364 27.3707C181.364 29.1587 182.504 30.4547 184.088 30.4547C185.18 30.4547 186.032 29.7707 186.416 28.8347ZM192.983 27.3347C192.983 25.5107 191.771 24.1907 190.103 24.1907C188.435 24.1907 187.211 25.5107 187.211 27.3347C187.211 29.1347 188.435 30.4547 190.103 30.4547C191.771 30.4547 192.983 29.1347 192.983 27.3347ZM188.291 27.3347C188.291 26.0147 189.047 25.0427 190.103 25.0427C191.147 25.0427 191.903 26.0147 191.903 27.3347C191.903 28.6307 191.147 29.5907 190.103 29.5907C189.047 29.5907 188.291 28.6307 188.291 27.3347ZM202.734 30.2987V26.3627C202.734 25.0907 201.87 24.1907 200.754 24.1907C199.962 24.1907 199.266 24.6707 198.846 25.3067C198.522 24.6227 197.898 24.1907 197.166 24.1907C196.374 24.1907 195.714 24.6947 195.366 25.2587V24.3467H194.382V30.2987H195.402V25.9547C195.738 25.4507 196.314 25.0547 196.902 25.0547C197.562 25.0547 198.042 25.6067 198.042 26.4347V30.2987H199.062V26.3627C199.062 26.1827 199.05 26.0147 199.014 25.8467C199.374 25.3907 199.95 25.0547 200.526 25.0547C201.21 25.0547 201.714 25.6067 201.714 26.4347V30.2987H202.734ZM209.271 28.9427L208.455 28.6307C208.143 29.2427 207.567 29.6147 206.919 29.6147C205.923 29.6147 205.203 28.7867 205.131 27.5387H209.259C209.295 27.3827 209.319 27.0587 209.319 26.7947C209.319 25.2707 208.275 24.1907 206.823 24.1907C205.239 24.1907 204.063 25.5347 204.063 27.3707C204.063 29.1707 205.239 30.4547 206.859 30.4547C207.927 30.4547 208.851 29.8907 209.271 28.9427ZM206.835 25.0187C207.675 25.0187 208.263 25.6907 208.299 26.7227H205.191C205.371 25.6907 206.007 25.0187 206.835 25.0187ZM218.067 28.6667C218.067 27.5627 217.131 27.1067 215.787 26.8187C214.779 26.5907 214.203 26.4107 214.203 25.8827C214.203 25.3787 214.767 25.0307 215.559 25.0307C216.387 25.0307 216.939 25.3787 217.215 25.9547L218.031 25.6307C217.683 24.8987 216.951 24.1907 215.571 24.1907C214.167 24.1907 213.207 24.9347 213.207 25.9427C213.207 26.9747 214.179 27.4547 215.499 27.7307C216.519 27.9467 217.083 28.1507 217.083 28.7147C217.083 29.2547 216.579 29.6267 215.703 29.6267C214.707 29.6267 214.071 29.1827 213.771 28.5947L212.931 28.9187C213.339 29.8547 214.299 30.4547 215.655 30.4547C217.167 30.4547 218.067 29.7227 218.067 28.6667ZM222.028 29.6027C221.464 29.6027 220.84 29.3027 220.48 28.8707V25.9787C220.792 25.4987 221.38 25.0307 222.076 25.0307C223.072 25.0307 223.816 25.9307 223.816 27.2987C223.816 28.6547 223.072 29.6027 222.028 29.6027ZM224.896 27.2987C224.896 25.4747 223.744 24.1907 222.34 24.1907C221.428 24.1907 220.756 24.7427 220.444 25.2347V24.3467H219.46V32.4827H220.48V29.6747C220.864 30.1427 221.524 30.4547 222.232 30.4547C223.732 30.4547 224.896 29.1227 224.896 27.2987ZM231.236 30.3947L231.284 29.6147C231.212 29.6267 231.092 29.6387 231.02 29.6387C230.66 29.6387 230.48 29.3867 230.48 29.0627V26.3267C230.48 24.9467 229.64 24.1907 228.344 24.1907C227.312 24.1907 226.412 24.7667 225.98 25.7027L226.772 26.0267C227.072 25.4627 227.54 25.0427 228.248 25.0427C228.98 25.0427 229.46 25.5467 229.46 26.2907V26.7587L228.068 26.9267C226.748 27.0947 225.812 27.7307 225.812 28.8347C225.812 29.7827 226.568 30.4547 227.624 30.4547C228.464 30.4547 229.124 30.0467 229.508 29.4107C229.652 30.0947 230.096 30.4547 230.768 30.4547C230.948 30.4547 231.092 30.4307 231.236 30.3947ZM227.9 29.6267C227.3 29.6267 226.88 29.2667 226.88 28.7627C226.88 28.1507 227.456 27.7907 228.248 27.6947L229.46 27.5507V28.6427C229.148 29.2187 228.56 29.6267 227.9 29.6267ZM233.394 30.2987V26.7467C233.49 25.9547 233.97 25.2107 234.894 25.2107C235.098 25.2107 235.386 25.2467 235.554 25.2947V24.2867C235.434 24.2387 235.146 24.1907 234.942 24.1907C234.246 24.1907 233.598 24.8027 233.358 25.5587V24.3467H232.374V30.2987H233.394ZM241.513 30.3947L241.561 29.6147C241.489 29.6267 241.369 29.6387 241.297 29.6387C240.937 29.6387 240.757 29.3867 240.757 29.0627V26.3267C240.757 24.9467 239.917 24.1907 238.621 24.1907C237.589 24.1907 236.689 24.7667 236.257 25.7027L237.049 26.0267C237.349 25.4627 237.817 25.0427 238.525 25.0427C239.257 25.0427 239.737 25.5467 239.737 26.2907V26.7587L238.345 26.9267C237.025 27.0947 236.089 27.7307 236.089 28.8347C236.089 29.7827 236.845 30.4547 237.901 30.4547C238.741 30.4547 239.401 30.0467 239.785 29.4107C239.929 30.0947 240.373 30.4547 241.045 30.4547C241.225 30.4547 241.369 30.4307 241.513 30.3947ZM238.177 29.6267C237.577 29.6267 237.157 29.2667 237.157 28.7627C237.157 28.1507 237.733 27.7907 238.525 27.6947L239.737 27.5507V28.6427C239.425 29.2187 238.837 29.6267 238.177 29.6267ZM243.672 30.2987V26.7467C243.768 25.9547 244.248 25.2107 245.172 25.2107C245.376 25.2107 245.664 25.2467 245.832 25.2947V24.2867C245.712 24.2387 245.424 24.1907 245.22 24.1907C244.524 24.1907 243.876 24.8027 243.636 25.5587V24.3467H242.652V30.2987H243.672ZM251.611 28.9427L250.795 28.6307C250.483 29.2427 249.907 29.6147 249.259 29.6147C248.263 29.6147 247.543 28.7867 247.471 27.5387H251.599C251.635 27.3827 251.659 27.0587 251.659 26.7947C251.659 25.2707 250.615 24.1907 249.163 24.1907C247.579 24.1907 246.403 25.5347 246.403 27.3707C246.403 29.1707 247.579 30.4547 249.199 30.4547C250.267 30.4547 251.191 29.8907 251.611 28.9427ZM249.175 25.0187C250.015 25.0187 250.603 25.6907 250.639 26.7227H247.531C247.711 25.6907 248.347 25.0187 249.175 25.0187ZM35.8988 43.6667C35.8988 42.5627 34.9628 42.1067 33.6188 41.8187C32.6108 41.5907 32.0348 41.4107 32.0348 40.8827C32.0348 40.3787 32.5988 40.0307 33.3908 40.0307C34.2188 40.0307 34.7708 40.3787 35.0468 40.9547L35.8628 40.6307C35.5148 39.8987 34.7828 39.1907 33.4028 39.1907C31.9988 39.1907 31.0388 39.9347 31.0388 40.9427C31.0388 41.9747 32.0108 42.4547 33.3308 42.7307C34.3508 42.9467 34.9148 43.1507 34.9148 43.7147C34.9148 44.2547 34.4108 44.6267 33.5348 44.6267C32.5388 44.6267 31.9028 44.1827 31.6028 43.5947L30.7628 43.9187C31.1708 44.8547 32.1308 45.4547 33.4868 45.4547C34.9988 45.4547 35.8988 44.7227 35.8988 43.6667ZM42.6202 42.3347C42.6202 40.5107 41.4082 39.1907 39.7402 39.1907C38.0722 39.1907 36.8482 40.5107 36.8482 42.3347C36.8482 44.1347 38.0722 45.4547 39.7402 45.4547C41.4082 45.4547 42.6202 44.1347 42.6202 42.3347ZM37.9282 42.3347C37.9282 41.0147 38.6842 40.0427 39.7402 40.0427C40.7842 40.0427 41.5402 41.0147 41.5402 42.3347C41.5402 43.6307 40.7842 44.5907 39.7402 44.5907C38.6842 44.5907 37.9282 43.6307 37.9282 42.3347ZM47.3207 45.2627V44.4107C47.0687 44.5067 46.6487 44.5787 46.2767 44.5787C45.5207 44.5787 45.2207 44.2067 45.2207 43.6427V40.1867H47.2847V39.3467H45.2207V37.8947H44.2007V39.3467H43.3247V40.1867H44.2007V43.8107C44.2007 44.8547 44.9087 45.4547 46.0967 45.4547C46.5407 45.4547 47.0567 45.3587 47.3207 45.2627ZM51.8441 45.2627V44.4107C51.5921 44.5067 51.1721 44.5787 50.8001 44.5787C50.0441 44.5787 49.7441 44.2067 49.7441 43.6427V40.1867H51.8081V39.3467H49.7441V37.8947H48.7241V39.3467H47.8481V40.1867H48.7241V43.8107C48.7241 44.8547 49.4321 45.4547 50.6201 45.4547C51.0641 45.4547 51.5801 45.3587 51.8441 45.2627ZM53.9196 38.6627V37.4027H52.7916V38.8427H53.3196C53.3076 39.4307 53.1276 39.8627 52.6836 40.3307L53.1396 40.6547C53.6556 40.1387 53.9196 39.4427 53.9196 38.6627ZM60.1773 45.3947L60.2253 44.6147C60.1533 44.6267 60.0333 44.6387 59.9613 44.6387C59.6013 44.6387 59.4213 44.3867 59.4213 44.0627V41.3267C59.4213 39.9467 58.5813 39.1907 57.2853 39.1907C56.2533 39.1907 55.3533 39.7667 54.9213 40.7027L55.7133 41.0267C56.0133 40.4627 56.4813 40.0427 57.1893 40.0427C57.9213 40.0427 58.4013 40.5467 58.4013 41.2907V41.7587L57.0093 41.9267C55.6893 42.0947 54.7533 42.7307 54.7533 43.8347C54.7533 44.7827 55.5093 45.4547 56.5653 45.4547C57.4053 45.4547 58.0653 45.0467 58.4493 44.4107C58.5933 45.0947 59.0373 45.4547 59.7093 45.4547C59.8893 45.4547 60.0333 45.4307 60.1773 45.3947ZM56.8413 44.6267C56.2413 44.6267 55.8213 44.2667 55.8213 43.7627C55.8213 43.1507 56.3973 42.7907 57.1893 42.6947L58.4013 42.5507V43.6427C58.0893 44.2187 57.5013 44.6267 56.8413 44.6267ZM65.9356 43.8347L65.0716 43.4987C64.7836 44.1587 64.3036 44.5787 63.6436 44.5787C62.6716 44.5787 61.9636 43.6547 61.9636 42.3707C61.9636 41.0267 62.6476 40.0547 63.5956 40.0547C64.1956 40.0547 64.7116 40.4267 64.9996 41.1227L65.8876 40.7627C65.4676 39.8027 64.6636 39.1907 63.5716 39.1907C62.0116 39.1907 60.8836 40.5227 60.8836 42.3707C60.8836 44.1587 62.0236 45.4547 63.6076 45.4547C64.6996 45.4547 65.5516 44.7707 65.9356 43.8347ZM69.611 44.6027C68.591 44.6027 67.823 43.7027 67.823 42.3707C67.823 41.0147 68.579 40.0307 69.647 40.0307C70.235 40.0307 70.811 40.3547 71.159 40.8227V43.7507C70.871 44.2187 70.271 44.6027 69.611 44.6027ZM72.179 47.4827V39.3467H71.183V40.1027C70.799 39.5507 70.127 39.1907 69.383 39.1907C67.943 39.1907 66.743 40.4867 66.743 42.3587C66.743 44.1587 67.883 45.4547 69.347 45.4547C70.103 45.4547 70.775 45.0947 71.159 44.5547V47.4827H72.179ZM78.8304 45.2987V39.3467H77.8104V43.4507C77.5104 44.1107 76.9344 44.5907 76.2264 44.5907C75.4944 44.5907 74.9664 44.0147 74.9664 43.2107V39.3467H73.9464V43.2827C73.9464 44.5427 74.7864 45.4547 75.9384 45.4547C76.8144 45.4547 77.4984 44.9507 77.8464 44.3147V45.2987H78.8304ZM85.607 45.3947L85.655 44.6147C85.583 44.6267 85.463 44.6387 85.391 44.6387C85.031 44.6387 84.851 44.3867 84.851 44.0627V41.3267C84.851 39.9467 84.011 39.1907 82.715 39.1907C81.683 39.1907 80.783 39.7667 80.351 40.7027L81.143 41.0267C81.443 40.4627 81.911 40.0427 82.619 40.0427C83.351 40.0427 83.831 40.5467 83.831 41.2907V41.7587L82.439 41.9267C81.119 42.0947 80.183 42.7307 80.183 43.8347C80.183 44.7827 80.939 45.4547 81.995 45.4547C82.835 45.4547 83.495 45.0467 83.879 44.4107C84.023 45.0947 84.467 45.4547 85.139 45.4547C85.319 45.4547 85.463 45.4307 85.607 45.3947ZM82.271 44.6267C81.671 44.6267 81.251 44.2667 81.251 43.7627C81.251 43.1507 81.827 42.7907 82.619 42.6947L83.831 42.5507V43.6427C83.519 44.2187 82.931 44.6267 82.271 44.6267ZM91.8573 42.7907L89.6853 45.2267L89.1213 44.7827L90.5493 42.5867L89.1213 40.3907L89.6853 39.9467L91.8573 42.3827V42.7907ZM88.9413 42.7907L86.9253 44.9747L86.3733 44.5187L87.6933 42.5867L86.3733 40.6547L86.9253 40.1987L88.9413 42.3827V42.7907Z" fill="black"/>
</svg>
