<svg width="44" height="50" viewBox="0 0 44 50" fill="none" xmlns="http://www.w3.org/2000/svg">
<path d="M22.1796 0.149902L23.2064 21.1901C23.2419 21.9163 24.0158 22.3631 24.6624 22.0307L43.3972 12.3999L25.6893 23.8093C25.0781 24.2031 25.0781 25.0967 25.6893 25.4905L43.3972 36.8999L24.6624 27.2691C24.0158 26.9367 23.2419 27.3835 23.2064 28.1097L22.1796 49.1499L21.1527 28.1097C21.1173 27.3835 20.3433 26.9367 19.6967 27.2691L0.961943 36.8999L18.6699 25.4905C19.281 25.0967 19.281 24.2031 18.6699 23.8093L0.961943 12.3999L19.6967 22.0307C20.3433 22.3631 21.1173 21.9163 21.1527 21.1901L22.1796 0.149902Z" fill="white"/>
</svg>
