<svg width="331" height="91" viewBox="0 0 331 91" fill="none" xmlns="http://www.w3.org/2000/svg">
<path d="M0.742615 15.8455L0.742615 74.5743L14.5914 90.5912L315.707 90.5912L330.743 74.5743V18.1336L315.707 0.591187L14.5914 0.591187L0.742615 15.8455Z" fill="white"/>
<path d="M85.7529 24.253V25.303H86.6929V24.103H86.2529C86.2629 23.613 86.4129 23.253 86.7829 22.863L86.4029 22.593C85.9729 23.023 85.7529 23.603 85.7529 24.253ZM84.2929 24.253V25.303H85.2329V24.103H84.7929C84.8029 23.613 84.9529 23.253 85.3229 22.863L84.9429 22.593C84.5129 23.023 84.2929 23.603 84.2929 24.253ZM88.2061 22.763V29.233H92.4361V28.443H89.1261V22.763H88.2061ZM97.5089 29.313L97.5489 28.663C97.4889 28.673 97.3889 28.683 97.3289 28.683C97.0289 28.683 96.8789 28.473 96.8789 28.203V25.923C96.8789 24.773 96.1789 24.143 95.0989 24.143C94.2389 24.143 93.4889 24.623 93.1289 25.403L93.7889 25.673C94.0389 25.203 94.4289 24.853 95.0189 24.853C95.6289 24.853 96.0289 25.273 96.0289 25.893V26.283L94.8689 26.423C93.7689 26.563 92.9889 27.093 92.9889 28.013C92.9889 28.803 93.6189 29.363 94.4989 29.363C95.1989 29.363 95.7489 29.023 96.0689 28.493C96.1889 29.063 96.5589 29.363 97.1189 29.363C97.2689 29.363 97.3889 29.343 97.5089 29.313ZM94.7289 28.673C94.2289 28.673 93.8789 28.373 93.8789 27.953C93.8789 27.443 94.3589 27.143 95.0189 27.063L96.0289 26.943V27.853C95.7689 28.333 95.2789 28.673 94.7289 28.673ZM104.932 29.233V25.953C104.932 24.893 104.192 24.143 103.222 24.143C102.512 24.143 101.912 24.563 101.582 25.033V24.273H100.762V29.233H101.612V25.633C101.922 25.193 102.462 24.863 103.022 24.863C103.642 24.863 104.082 25.323 104.082 26.013V29.233H104.932ZM110.856 26.763C110.856 25.243 109.846 24.143 108.456 24.143C107.066 24.143 106.046 25.243 106.046 26.763C106.046 28.263 107.066 29.363 108.456 29.363C109.846 29.363 110.856 28.263 110.856 26.763ZM106.946 26.763C106.946 25.663 107.576 24.853 108.456 24.853C109.326 24.853 109.956 25.663 109.956 26.763C109.956 27.843 109.326 28.643 108.456 28.643C107.576 28.643 106.946 27.843 106.946 26.763ZM115.812 27.873C115.812 26.953 115.032 26.573 113.912 26.333C113.072 26.143 112.592 25.993 112.592 25.553C112.592 25.133 113.062 24.843 113.722 24.843C114.412 24.843 114.872 25.133 115.102 25.613L115.782 25.343C115.492 24.733 114.882 24.143 113.732 24.143C112.562 24.143 111.762 24.763 111.762 25.603C111.762 26.463 112.572 26.863 113.672 27.093C114.522 27.273 114.992 27.443 114.992 27.913C114.992 28.363 114.572 28.673 113.842 28.673C113.012 28.673 112.482 28.303 112.232 27.813L111.532 28.083C111.872 28.863 112.672 29.363 113.802 29.363C115.062 29.363 115.812 28.753 115.812 27.873ZM119.754 29.203V28.493C119.544 28.573 119.194 28.633 118.884 28.633C118.254 28.633 118.004 28.323 118.004 27.853V24.973H119.724V24.273H118.004V23.063H117.154V24.273H116.424V24.973H117.154V27.993C117.154 28.863 117.744 29.363 118.734 29.363C119.104 29.363 119.534 29.283 119.754 29.203ZM121.554 29.233V26.273C121.634 25.613 122.034 24.993 122.804 24.993C122.974 24.993 123.214 25.023 123.354 25.063V24.223C123.254 24.183 123.014 24.143 122.844 24.143C122.264 24.143 121.724 24.653 121.524 25.283V24.273H120.704V29.233H121.554ZM128.319 29.313L128.359 28.663C128.299 28.673 128.199 28.683 128.139 28.683C127.839 28.683 127.689 28.473 127.689 28.203V25.923C127.689 24.773 126.989 24.143 125.909 24.143C125.049 24.143 124.299 24.623 123.939 25.403L124.599 25.673C124.849 25.203 125.239 24.853 125.829 24.853C126.439 24.853 126.839 25.273 126.839 25.893V26.283L125.679 26.423C124.579 26.563 123.799 27.093 123.799 28.013C123.799 28.803 124.429 29.363 125.309 29.363C126.009 29.363 126.559 29.023 126.879 28.493C126.999 29.063 127.369 29.363 127.929 29.363C128.079 29.363 128.199 29.343 128.319 29.313ZM125.539 28.673C125.039 28.673 124.689 28.373 124.689 27.953C124.689 27.443 125.169 27.143 125.829 27.063L126.839 26.943V27.853C126.579 28.333 126.089 28.673 125.539 28.673ZM135.423 28.013L134.703 27.733C134.463 28.283 134.063 28.633 133.513 28.633C132.703 28.633 132.113 27.863 132.113 26.793C132.113 25.673 132.683 24.863 133.473 24.863C133.973 24.863 134.403 25.173 134.643 25.753L135.383 25.453C135.033 24.653 134.363 24.143 133.453 24.143C132.153 24.143 131.213 25.253 131.213 26.793C131.213 28.283 132.163 29.363 133.483 29.363C134.393 29.363 135.103 28.793 135.423 28.013ZM140.566 29.313L140.606 28.663C140.546 28.673 140.446 28.683 140.386 28.683C140.086 28.683 139.936 28.473 139.936 28.203V25.923C139.936 24.773 139.236 24.143 138.156 24.143C137.296 24.143 136.546 24.623 136.186 25.403L136.846 25.673C137.096 25.203 137.486 24.853 138.076 24.853C138.686 24.853 139.086 25.273 139.086 25.893V26.283L137.926 26.423C136.826 26.563 136.046 27.093 136.046 28.013C136.046 28.803 136.676 29.363 137.556 29.363C138.256 29.363 138.806 29.023 139.126 28.493C139.246 29.063 139.616 29.363 140.176 29.363C140.326 29.363 140.446 29.343 140.566 29.313ZM137.786 28.673C137.286 28.673 136.936 28.373 136.936 27.953C136.936 27.443 137.416 27.143 138.076 27.063L139.086 26.943V27.853C138.826 28.333 138.336 28.673 137.786 28.673ZM144.334 29.203V28.493C144.124 28.573 143.774 28.633 143.464 28.633C142.834 28.633 142.584 28.323 142.584 27.853V24.973H144.304V24.273H142.584V23.063H141.734V24.273H141.004V24.973H141.734V27.993C141.734 28.863 142.324 29.363 143.314 29.363C143.684 29.363 144.114 29.283 144.334 29.203ZM149.215 28.103L148.535 27.843C148.275 28.353 147.795 28.663 147.255 28.663C146.425 28.663 145.825 27.973 145.765 26.933H149.205C149.235 26.803 149.255 26.533 149.255 26.313C149.255 25.043 148.385 24.143 147.175 24.143C145.855 24.143 144.875 25.263 144.875 26.793C144.875 28.293 145.855 29.363 147.205 29.363C148.095 29.363 148.865 28.893 149.215 28.103ZM147.185 24.833C147.885 24.833 148.375 25.393 148.405 26.253H145.815C145.965 25.393 146.495 24.833 147.185 24.833ZM154.75 29.563C154.75 28.843 154.22 28.463 153.09 28.363L152.39 28.303C151.69 28.243 151.44 28.123 151.44 27.973C151.44 27.853 151.55 27.683 151.65 27.573C151.82 27.613 152.01 27.633 152.19 27.633C153.27 27.633 154.15 26.933 154.15 25.963C154.15 25.603 154.04 25.263 153.83 24.973C154.1 24.833 154.53 24.713 154.93 24.713V23.953C154.32 23.953 153.84 24.243 153.54 24.653C153.18 24.343 152.69 24.143 152.13 24.143C151.02 24.143 150.15 24.903 150.15 25.903C150.15 26.613 150.59 27.153 151.21 27.433C150.89 27.653 150.62 27.993 150.62 28.223C150.62 28.423 150.76 28.593 151.01 28.723C150.39 28.983 149.94 29.433 149.94 29.883C149.94 30.703 150.85 31.183 152.24 31.183C153.78 31.183 154.75 30.503 154.75 29.563ZM152.25 30.533C151.32 30.533 150.79 30.193 150.79 29.753C150.79 29.413 151.1 29.083 151.52 28.903C151.72 28.953 151.95 28.993 152.21 29.013L152.91 29.073C153.71 29.143 153.91 29.333 153.91 29.693C153.91 30.163 153.26 30.533 152.25 30.533ZM151 25.913C151 25.283 151.48 24.793 152.14 24.793C152.8 24.793 153.3 25.283 153.3 25.913C153.3 26.533 152.8 26.983 152.14 26.983C151.48 26.983 151 26.533 151 25.913ZM160.183 26.763C160.183 25.243 159.173 24.143 157.783 24.143C156.393 24.143 155.373 25.243 155.373 26.763C155.373 28.263 156.393 29.363 157.783 29.363C159.173 29.363 160.183 28.263 160.183 26.763ZM156.273 26.763C156.273 25.663 156.903 24.853 157.783 24.853C158.653 24.853 159.283 25.663 159.283 26.763C159.283 27.843 158.653 28.643 157.783 28.643C156.903 28.643 156.273 27.843 156.273 26.763ZM162.198 29.233V26.273C162.278 25.613 162.678 24.993 163.448 24.993C163.618 24.993 163.858 25.023 163.998 25.063V24.223C163.898 24.183 163.658 24.143 163.488 24.143C162.908 24.143 162.368 24.653 162.168 25.283V24.273H161.348V29.233H162.198ZM165.821 24.273H164.971V29.233H165.821V24.273ZM165.821 22.303H164.971V23.293H165.821V22.303ZM171.474 29.313L171.514 28.663C171.454 28.673 171.354 28.683 171.294 28.683C170.994 28.683 170.844 28.473 170.844 28.203V25.923C170.844 24.773 170.144 24.143 169.064 24.143C168.204 24.143 167.454 24.623 167.094 25.403L167.754 25.673C168.004 25.203 168.394 24.853 168.984 24.853C169.594 24.853 169.994 25.273 169.994 25.893V26.283L168.834 26.423C167.734 26.563 166.954 27.093 166.954 28.013C166.954 28.803 167.584 29.363 168.464 29.363C169.164 29.363 169.714 29.023 170.034 28.493C170.154 29.063 170.524 29.363 171.084 29.363C171.234 29.363 171.354 29.343 171.474 29.313ZM168.694 28.673C168.194 28.673 167.844 28.373 167.844 27.953C167.844 27.443 168.324 27.143 168.984 27.063L169.994 26.943V27.853C169.734 28.333 169.244 28.673 168.694 28.673ZM178.897 29.233V25.953C178.897 24.893 178.157 24.143 177.187 24.143C176.477 24.143 175.877 24.563 175.547 25.033V24.273H174.727V29.233H175.577V25.633C175.887 25.193 176.427 24.863 176.987 24.863C177.607 24.863 178.047 25.323 178.047 26.013V29.233H178.897ZM184.361 28.103L183.681 27.843C183.421 28.353 182.941 28.663 182.401 28.663C181.571 28.663 180.971 27.973 180.911 26.933H184.351C184.381 26.803 184.401 26.533 184.401 26.313C184.401 25.043 183.531 24.143 182.321 24.143C181.001 24.143 180.021 25.263 180.021 26.793C180.021 28.293 181.001 29.363 182.351 29.363C183.241 29.363 184.011 28.893 184.361 28.103ZM182.331 24.833C183.031 24.833 183.521 25.393 183.551 26.253H180.961C181.111 25.393 181.641 24.833 182.331 24.833ZM186.446 22.193H185.596V29.233H186.446V22.193ZM188.839 22.193H187.989V29.233H188.839V22.193ZM191.161 23.703V22.653H190.221V23.853H190.661C190.651 24.343 190.501 24.703 190.131 25.093L190.511 25.363C190.941 24.933 191.161 24.353 191.161 23.703ZM196.422 29.233V24.273H195.572V27.693C195.322 28.243 194.842 28.643 194.252 28.643C193.642 28.643 193.202 28.163 193.202 27.493V24.273H192.352V27.553C192.352 28.603 193.052 29.363 194.012 29.363C194.742 29.363 195.312 28.943 195.602 28.413V29.233H196.422ZM198.809 22.193H197.959V29.233H198.809V22.193ZM203.172 29.203V28.493C202.962 28.573 202.612 28.633 202.302 28.633C201.672 28.633 201.422 28.323 201.422 27.853V24.973H203.142V24.273H201.422V23.063H200.572V24.273H199.842V24.973H200.572V27.993C200.572 28.863 201.162 29.363 202.152 29.363C202.522 29.363 202.952 29.283 203.172 29.203ZM204.972 24.273H204.122V29.233H204.972V24.273ZM204.972 22.303H204.122V23.293H204.972V22.303ZM213.474 29.233V25.953C213.474 24.893 212.754 24.143 211.824 24.143C211.164 24.143 210.584 24.543 210.234 25.073C209.964 24.503 209.444 24.143 208.834 24.143C208.174 24.143 207.624 24.563 207.334 25.033V24.273H206.514V29.233H207.364V25.613C207.644 25.193 208.124 24.863 208.614 24.863C209.164 24.863 209.564 25.323 209.564 26.013V29.233H210.414V25.953C210.414 25.803 210.404 25.663 210.374 25.523C210.674 25.143 211.154 24.863 211.634 24.863C212.204 24.863 212.624 25.323 212.624 26.013V29.233H213.474ZM219.382 26.763C219.382 25.243 218.372 24.143 216.982 24.143C215.592 24.143 214.572 25.243 214.572 26.763C214.572 28.263 215.592 29.363 216.982 29.363C218.372 29.363 219.382 28.263 219.382 26.763ZM215.472 26.763C215.472 25.663 216.102 24.853 216.982 24.853C217.852 24.853 218.482 25.663 218.482 26.763C218.482 27.843 217.852 28.643 216.982 28.643C216.102 28.643 215.472 27.843 215.472 26.763ZM226.962 29.313L227.002 28.663C226.942 28.673 226.842 28.683 226.782 28.683C226.482 28.683 226.332 28.473 226.332 28.203V25.923C226.332 24.773 225.632 24.143 224.552 24.143C223.692 24.143 222.942 24.623 222.582 25.403L223.242 25.673C223.492 25.203 223.882 24.853 224.472 24.853C225.082 24.853 225.482 25.273 225.482 25.893V26.283L224.322 26.423C223.222 26.563 222.442 27.093 222.442 28.013C222.442 28.803 223.072 29.363 223.952 29.363C224.652 29.363 225.202 29.023 225.522 28.493C225.642 29.063 226.012 29.363 226.572 29.363C226.722 29.363 226.842 29.343 226.962 29.313ZM224.182 28.673C223.682 28.673 223.332 28.373 223.332 27.953C223.332 27.443 223.812 27.143 224.472 27.063L225.482 26.943V27.853C225.222 28.333 224.732 28.673 224.182 28.673ZM232.081 29.233V25.953C232.081 24.893 231.341 24.143 230.371 24.143C229.661 24.143 229.061 24.563 228.731 25.033V24.273H227.911V29.233H228.761V25.633C229.071 25.193 229.611 24.863 230.171 24.863C230.791 24.863 231.231 25.323 231.231 26.013V29.233H232.081ZM237.735 29.233V25.953C237.735 24.893 236.995 24.143 236.025 24.143C235.315 24.143 234.715 24.563 234.385 25.033V24.273H233.565V29.233H234.415V25.633C234.725 25.193 235.265 24.863 235.825 24.863C236.445 24.863 236.885 25.323 236.885 26.013V29.233H237.735ZM243.659 26.763C243.659 25.243 242.649 24.143 241.259 24.143C239.869 24.143 238.849 25.243 238.849 26.763C238.849 28.263 239.869 29.363 241.259 29.363C242.649 29.363 243.659 28.263 243.659 26.763ZM239.749 26.763C239.749 25.663 240.379 24.853 241.259 24.853C242.129 24.853 242.759 25.663 242.759 26.763C242.759 27.843 242.129 28.643 241.259 28.643C240.379 28.643 239.749 27.843 239.749 26.763ZM251.109 28.103L250.429 27.843C250.169 28.353 249.689 28.663 249.149 28.663C248.319 28.663 247.719 27.973 247.659 26.933H251.099C251.129 26.803 251.149 26.533 251.149 26.313C251.149 25.043 250.279 24.143 249.069 24.143C247.749 24.143 246.769 25.263 246.769 26.793C246.769 28.293 247.749 29.363 249.099 29.363C249.989 29.363 250.759 28.893 251.109 28.103ZM249.079 24.833C249.779 24.833 250.269 25.393 250.299 26.253H247.709C247.859 25.393 248.389 24.833 249.079 24.833ZM261.609 29.233V25.953C261.609 24.893 260.889 24.143 259.959 24.143C259.299 24.143 258.719 24.543 258.369 25.073C258.099 24.503 257.579 24.143 256.969 24.143C256.309 24.143 255.759 24.563 255.469 25.033V24.273H254.649V29.233H255.499V25.613C255.779 25.193 256.259 24.863 256.749 24.863C257.299 24.863 257.699 25.323 257.699 26.013V29.233H258.549V25.953C258.549 25.803 258.539 25.663 258.509 25.523C258.809 25.143 259.289 24.863 259.769 24.863C260.339 24.863 260.759 25.323 260.759 26.013V29.233H261.609ZM267.057 28.103L266.377 27.843C266.117 28.353 265.637 28.663 265.097 28.663C264.267 28.663 263.667 27.973 263.607 26.933H267.047C267.077 26.803 267.097 26.533 267.097 26.313C267.097 25.043 266.227 24.143 265.017 24.143C263.697 24.143 262.717 25.263 262.717 26.793C262.717 28.293 263.697 29.363 265.047 29.363C265.937 29.363 266.707 28.893 267.057 28.103ZM265.027 24.833C265.727 24.833 266.217 25.393 266.247 26.253H263.657C263.807 25.393 264.337 24.833 265.027 24.833ZM267.951 25.013H270.621L267.881 28.573V29.233H271.761V28.493H268.901L271.711 24.933V24.273H267.951V25.013ZM272.541 25.013H275.211L272.471 28.573V29.233H276.351V28.493H273.491L276.301 24.933V24.273H272.541V25.013ZM281.853 26.763C281.853 25.243 280.843 24.143 279.453 24.143C278.063 24.143 277.043 25.243 277.043 26.763C277.043 28.263 278.063 29.363 279.453 29.363C280.843 29.363 281.853 28.263 281.853 26.763ZM277.943 26.763C277.943 25.663 278.573 24.853 279.453 24.853C280.323 24.853 280.953 25.663 280.953 26.763C280.953 27.843 280.323 28.643 279.453 28.643C278.573 28.643 277.943 27.843 277.943 26.763ZM289.303 28.103L288.623 27.843C288.363 28.353 287.883 28.663 287.343 28.663C286.513 28.663 285.913 27.973 285.853 26.933H289.293C289.323 26.803 289.343 26.533 289.343 26.313C289.343 25.043 288.473 24.143 287.263 24.143C285.943 24.143 284.963 25.263 284.963 26.793C284.963 28.293 285.943 29.363 287.293 29.363C288.183 29.363 288.953 28.893 289.303 28.103ZM287.273 24.833C287.973 24.833 288.463 25.393 288.493 26.253H285.903C286.053 25.393 286.583 24.833 287.273 24.833ZM287.913 23.203L286.413 21.823L285.833 22.513L287.483 23.723L287.913 23.203ZM88.2729 39.873C88.2729 38.953 87.4929 38.573 86.3729 38.333C85.5329 38.143 85.0529 37.993 85.0529 37.553C85.0529 37.133 85.5229 36.843 86.1829 36.843C86.8729 36.843 87.3329 37.133 87.5629 37.613L88.2429 37.343C87.9529 36.733 87.3429 36.143 86.1929 36.143C85.0229 36.143 84.2229 36.763 84.2229 37.603C84.2229 38.463 85.0329 38.863 86.1329 39.093C86.9829 39.273 87.4529 39.443 87.4529 39.913C87.4529 40.363 87.0329 40.673 86.3029 40.673C85.4729 40.673 84.9429 40.303 84.6929 39.813L83.9929 40.083C84.3329 40.863 85.1329 41.363 86.2629 41.363C87.5229 41.363 88.2729 40.753 88.2729 39.873ZM92.215 41.203V40.493C92.005 40.573 91.655 40.633 91.345 40.633C90.715 40.633 90.465 40.323 90.465 39.853V36.973H92.185V36.273H90.465V35.063H89.615L89.615 36.273H88.885V36.973H89.615V39.993C89.615 40.863 90.205 41.363 91.195 41.363C91.565 41.363 91.995 41.283 92.215 41.203ZM97.2745 41.313L97.3145 40.663C97.2545 40.673 97.1545 40.683 97.0945 40.683C96.7945 40.683 96.6445 40.473 96.6445 40.203V37.923C96.6445 36.773 95.9445 36.143 94.8645 36.143C94.0045 36.143 93.2545 36.623 92.8945 37.403L93.5545 37.673C93.8045 37.203 94.1945 36.853 94.7845 36.853C95.3945 36.853 95.7945 37.273 95.7945 37.893V38.283L94.6345 38.423C93.5345 38.563 92.7545 39.093 92.7545 40.013C92.7545 40.803 93.3845 41.363 94.2645 41.363C94.9645 41.363 95.5145 41.023 95.8345 40.493C95.9545 41.063 96.3245 41.363 96.8845 41.363C97.0345 41.363 97.1545 41.343 97.2745 41.313ZM94.4945 40.673C93.9945 40.673 93.6445 40.373 93.6445 39.953C93.6445 39.443 94.1245 39.143 94.7845 39.063L95.7945 38.943V39.853C95.5345 40.333 95.0445 40.673 94.4945 40.673ZM101.043 41.203V40.493C100.833 40.573 100.483 40.633 100.173 40.633C99.5431 40.633 99.2931 40.323 99.2931 39.853V36.973H101.013V36.273H99.2931V35.063H98.4431V36.273H97.7131V36.973H98.4431V39.993C98.4431 40.863 99.0331 41.363 100.023 41.363C100.393 41.363 100.823 41.283 101.043 41.203ZM106.103 41.313L106.143 40.663C106.083 40.673 105.983 40.683 105.923 40.683C105.623 40.683 105.473 40.473 105.473 40.203V37.923C105.473 36.773 104.773 36.143 103.693 36.143C102.833 36.143 102.083 36.623 101.723 37.403L102.383 37.673C102.633 37.203 103.023 36.853 103.613 36.853C104.223 36.853 104.623 37.273 104.623 37.893V38.283L103.463 38.423C102.363 38.563 101.583 39.093 101.583 40.013C101.583 40.803 102.213 41.363 103.093 41.363C103.793 41.363 104.343 41.023 104.663 40.493C104.783 41.063 105.153 41.363 105.713 41.363C105.863 41.363 105.983 41.343 106.103 41.313ZM103.323 40.673C102.823 40.673 102.473 40.373 102.473 39.953C102.473 39.443 102.953 39.143 103.613 39.063L104.623 38.943V39.853C104.363 40.333 103.873 40.673 103.323 40.673ZM116.316 41.233V37.953C116.316 36.893 115.596 36.143 114.666 36.143C114.006 36.143 113.426 36.543 113.076 37.073C112.806 36.503 112.286 36.143 111.676 36.143C111.016 36.143 110.466 36.563 110.176 37.033V36.273H109.356V41.233H110.206V37.613C110.486 37.193 110.966 36.863 111.456 36.863C112.006 36.863 112.406 37.323 112.406 38.013V41.233H113.256V37.953C113.256 37.803 113.246 37.663 113.216 37.523C113.516 37.143 113.996 36.863 114.476 36.863C115.046 36.863 115.466 37.323 115.466 38.013V41.233H116.316ZM121.894 41.313L121.934 40.663C121.874 40.673 121.774 40.683 121.714 40.683C121.414 40.683 121.264 40.473 121.264 40.203V37.923C121.264 36.773 120.564 36.143 119.484 36.143C118.624 36.143 117.874 36.623 117.514 37.403L118.174 37.673C118.424 37.203 118.814 36.853 119.404 36.853C120.014 36.853 120.414 37.273 120.414 37.893V38.283L119.254 38.423C118.154 38.563 117.374 39.093 117.374 40.013C117.374 40.803 118.004 41.363 118.884 41.363C119.584 41.363 120.134 41.023 120.454 40.493C120.574 41.063 120.944 41.363 121.504 41.363C121.654 41.363 121.774 41.343 121.894 41.313ZM119.114 40.673C118.614 40.673 118.264 40.373 118.264 39.953C118.264 39.443 118.744 39.143 119.404 39.063L120.414 38.943V39.853C120.154 40.333 119.664 40.673 119.114 40.673ZM126.632 39.873C126.632 38.953 125.852 38.573 124.732 38.333C123.892 38.143 123.412 37.993 123.412 37.553C123.412 37.133 123.882 36.843 124.542 36.843C125.232 36.843 125.692 37.133 125.922 37.613L126.602 37.343C126.312 36.733 125.702 36.143 124.552 36.143C123.382 36.143 122.582 36.763 122.582 37.603C122.582 38.463 123.392 38.863 124.492 39.093C125.342 39.273 125.812 39.443 125.812 39.913C125.812 40.363 125.392 40.673 124.662 40.673C123.832 40.673 123.302 40.303 123.052 39.813L122.352 40.083C122.692 40.863 123.492 41.363 124.622 41.363C125.882 41.363 126.632 40.753 126.632 39.873ZM131.583 39.873C131.583 38.953 130.803 38.573 129.683 38.333C128.843 38.143 128.363 37.993 128.363 37.553C128.363 37.133 128.833 36.843 129.493 36.843C130.183 36.843 130.643 37.133 130.873 37.613L131.553 37.343C131.263 36.733 130.653 36.143 129.503 36.143C128.333 36.143 127.533 36.763 127.533 37.603C127.533 38.463 128.343 38.863 129.443 39.093C130.293 39.273 130.763 39.443 130.763 39.913C130.763 40.363 130.343 40.673 129.613 40.673C128.783 40.673 128.253 40.303 128.003 39.813L127.303 40.083C127.643 40.863 128.443 41.363 129.573 41.363C130.833 41.363 131.583 40.753 131.583 39.873ZM136.855 41.313L136.895 40.663C136.835 40.673 136.735 40.683 136.675 40.683C136.375 40.683 136.225 40.473 136.225 40.203V37.923C136.225 36.773 135.525 36.143 134.445 36.143C133.585 36.143 132.835 36.623 132.475 37.403L133.135 37.673C133.385 37.203 133.775 36.853 134.365 36.853C134.975 36.853 135.375 37.273 135.375 37.893V38.283L134.215 38.423C133.115 38.563 132.335 39.093 132.335 40.013C132.335 40.803 132.965 41.363 133.845 41.363C134.545 41.363 135.095 41.023 135.415 40.493C135.535 41.063 135.905 41.363 136.465 41.363C136.615 41.363 136.735 41.343 136.855 41.313ZM134.075 40.673C133.575 40.673 133.225 40.373 133.225 39.953C133.225 39.443 133.705 39.143 134.365 39.063L135.375 38.943V39.853C135.115 40.333 134.625 40.673 134.075 40.673ZM141.653 40.013L140.933 39.733C140.693 40.283 140.293 40.633 139.743 40.633C138.933 40.633 138.343 39.863 138.343 38.793C138.343 37.673 138.913 36.863 139.703 36.863C140.203 36.863 140.633 37.173 140.873 37.753L141.613 37.453C141.263 36.653 140.593 36.143 139.683 36.143C138.383 36.143 137.443 37.253 137.443 38.793C137.443 40.283 138.393 41.363 139.713 41.363C140.623 41.363 141.333 40.793 141.653 40.013ZM143.536 41.233V38.273C143.616 37.613 144.016 36.993 144.786 36.993C144.956 36.993 145.196 37.023 145.336 37.063V36.223C145.236 36.183 144.996 36.143 144.826 36.143C144.246 36.143 143.706 36.653 143.506 37.283V36.273H142.686V41.233H143.536ZM150.302 41.313L150.342 40.663C150.282 40.673 150.182 40.683 150.122 40.683C149.822 40.683 149.672 40.473 149.672 40.203V37.923C149.672 36.773 148.972 36.143 147.892 36.143C147.032 36.143 146.282 36.623 145.922 37.403L146.582 37.673C146.832 37.203 147.222 36.853 147.812 36.853C148.422 36.853 148.822 37.273 148.822 37.893V38.283L147.662 38.423C146.562 38.563 145.782 39.093 145.782 40.013C145.782 40.803 146.412 41.363 147.292 41.363C147.992 41.363 148.542 41.023 148.862 40.493C148.982 41.063 149.352 41.363 149.912 41.363C150.062 41.363 150.182 41.343 150.302 41.313ZM147.522 40.673C147.022 40.673 146.672 40.373 146.672 39.953C146.672 39.443 147.152 39.143 147.812 39.063L148.822 38.943V39.853C148.562 40.333 148.072 40.673 147.522 40.673ZM154.07 41.203V40.493C153.86 40.573 153.51 40.633 153.2 40.633C152.57 40.633 152.32 40.323 152.32 39.853V36.973H154.04V36.273H152.32V35.063H151.47V36.273H150.74V36.973H151.47V39.993C151.47 40.863 152.06 41.363 153.05 41.363C153.42 41.363 153.85 41.283 154.07 41.203ZM159.13 41.313L159.17 40.663C159.11 40.673 159.01 40.683 158.95 40.683C158.65 40.683 158.5 40.473 158.5 40.203V37.923C158.5 36.773 157.8 36.143 156.72 36.143C155.86 36.143 155.11 36.623 154.75 37.403L155.41 37.673C155.66 37.203 156.05 36.853 156.64 36.853C157.25 36.853 157.65 37.273 157.65 37.893V38.283L156.49 38.423C155.39 38.563 154.61 39.093 154.61 40.013C154.61 40.803 155.24 41.363 156.12 41.363C156.82 41.363 157.37 41.023 157.69 40.493C157.81 41.063 158.18 41.363 158.74 41.363C158.89 41.363 159.01 41.343 159.13 41.313ZM156.35 40.673C155.85 40.673 155.5 40.373 155.5 39.953C155.5 39.443 155.98 39.143 156.64 39.063L157.65 38.943V39.853C157.39 40.333 156.9 40.673 156.35 40.673ZM160.919 41.013V39.903H159.919V41.173H160.389C160.389 41.683 160.219 42.063 159.839 42.473L160.189 42.803C160.679 42.303 160.919 41.703 160.919 41.013ZM168.39 39.873C168.39 38.953 167.61 38.573 166.49 38.333C165.65 38.143 165.17 37.993 165.17 37.553C165.17 37.133 165.64 36.843 166.3 36.843C166.99 36.843 167.45 37.133 167.68 37.613L168.36 37.343C168.07 36.733 167.46 36.143 166.31 36.143C165.14 36.143 164.34 36.763 164.34 37.603C164.34 38.463 165.15 38.863 166.25 39.093C167.1 39.273 167.57 39.443 167.57 39.913C167.57 40.363 167.15 40.673 166.42 40.673C165.59 40.673 165.06 40.303 164.81 39.813L164.11 40.083C164.45 40.863 165.25 41.363 166.38 41.363C167.64 41.363 168.39 40.753 168.39 39.873ZM170.401 36.273H169.551V41.233H170.401V36.273ZM170.401 34.303H169.551V35.293H170.401V34.303ZM176.054 41.313L176.094 40.663C176.034 40.673 175.934 40.683 175.874 40.683C175.574 40.683 175.424 40.473 175.424 40.203V37.923C175.424 36.773 174.724 36.143 173.644 36.143C172.784 36.143 172.034 36.623 171.674 37.403L172.334 37.673C172.584 37.203 172.974 36.853 173.564 36.853C174.174 36.853 174.574 37.273 174.574 37.893V38.283L173.414 38.423C172.314 38.563 171.534 39.093 171.534 40.013C171.534 40.803 172.164 41.363 173.044 41.363C173.744 41.363 174.294 41.023 174.614 40.493C174.734 41.063 175.104 41.363 175.664 41.363C175.814 41.363 175.934 41.343 176.054 41.313ZM173.274 40.673C172.774 40.673 172.424 40.373 172.424 39.953C172.424 39.443 172.904 39.143 173.564 39.063L174.574 38.943V39.853C174.314 40.333 173.824 40.673 173.274 40.673ZM183.962 41.233V37.953C183.962 36.893 183.242 36.143 182.312 36.143C181.652 36.143 181.072 36.543 180.722 37.073C180.452 36.503 179.932 36.143 179.322 36.143C178.662 36.143 178.112 36.563 177.822 37.033V36.273H177.002V41.233H177.852V37.613C178.132 37.193 178.612 36.863 179.102 36.863C179.652 36.863 180.052 37.323 180.052 38.013V41.233H180.902V37.953C180.902 37.803 180.892 37.663 180.862 37.523C181.162 37.143 181.642 36.863 182.122 36.863C182.692 36.863 183.112 37.323 183.112 38.013V41.233H183.962ZM189.87 38.763C189.87 37.243 188.86 36.143 187.47 36.143C186.08 36.143 185.06 37.243 185.06 38.763C185.06 40.263 186.08 41.363 187.47 41.363C188.86 41.363 189.87 40.263 189.87 38.763ZM185.96 38.763C185.96 37.663 186.59 36.853 187.47 36.853C188.34 36.853 188.97 37.663 188.97 38.763C188.97 39.843 188.34 40.643 187.47 40.643C186.59 40.643 185.96 39.843 185.96 38.763ZM194.19 36.273H193.34V41.233H194.19V36.273ZM194.19 34.303H193.34V35.293H194.19V34.303ZM199.903 41.233V37.953C199.903 36.893 199.163 36.143 198.193 36.143C197.483 36.143 196.883 36.563 196.553 37.033V36.273H195.733V41.233H196.583V37.633C196.893 37.193 197.433 36.863 197.993 36.863C198.613 36.863 199.053 37.323 199.053 38.013V41.233H199.903ZM200.739 36.273L202.529 41.233H203.409L205.189 36.273H204.329L203.009 40.133H202.979L201.659 36.273H200.739ZM207.032 36.273H206.182V41.233H207.032V36.273ZM207.032 34.303H206.182V35.293H207.032V34.303ZM212.365 39.873C212.365 38.953 211.585 38.573 210.465 38.333C209.625 38.143 209.145 37.993 209.145 37.553C209.145 37.133 209.615 36.843 210.275 36.843C210.965 36.843 211.425 37.133 211.655 37.613L212.335 37.343C212.045 36.733 211.435 36.143 210.285 36.143C209.115 36.143 208.315 36.763 208.315 37.603C208.315 38.463 209.125 38.863 210.225 39.093C211.075 39.273 211.545 39.443 211.545 39.913C211.545 40.363 211.125 40.673 210.395 40.673C209.565 40.673 209.035 40.303 208.785 39.813L208.085 40.083C208.425 40.863 209.225 41.363 210.355 41.363C211.615 41.363 212.365 40.753 212.365 39.873ZM214.376 36.273H213.526V41.233H214.376V36.273ZM214.376 34.303H213.526V35.293H214.376V34.303ZM220.448 38.733C220.448 37.233 219.558 36.143 218.338 36.143C217.768 36.143 217.138 36.463 216.768 36.933V34.193H215.918V41.233H216.718V40.633C217.098 41.063 217.718 41.363 218.258 41.363C219.528 41.363 220.448 40.263 220.448 38.733ZM218.058 40.653C217.538 40.653 217.038 40.383 216.768 40.013V37.543C217.038 37.133 217.568 36.863 218.108 36.863C218.938 36.863 219.548 37.643 219.548 38.723C219.548 39.833 218.918 40.653 218.058 40.653ZM222.481 36.273H221.631V41.233H222.481V36.273ZM222.481 34.303H221.631V35.293H222.481V34.303ZM224.874 34.193H224.024V41.233H224.874V34.193ZM227.266 36.273H226.416V41.233H227.266V36.273ZM227.266 34.303H226.416V35.293H227.266V34.303ZM229.649 41.013V39.903H228.649V41.173H229.119C229.119 41.683 228.949 42.063 228.569 42.473L228.919 42.803C229.409 42.303 229.649 41.703 229.649 41.013ZM237.121 39.873C237.121 38.953 236.341 38.573 235.221 38.333C234.381 38.143 233.901 37.993 233.901 37.553C233.901 37.133 234.371 36.843 235.031 36.843C235.721 36.843 236.181 37.133 236.411 37.613L237.091 37.343C236.801 36.733 236.191 36.143 235.041 36.143C233.871 36.143 233.071 36.763 233.071 37.603C233.071 38.463 233.881 38.863 234.981 39.093C235.831 39.273 236.301 39.443 236.301 39.913C236.301 40.363 235.881 40.673 235.151 40.673C234.321 40.673 233.791 40.303 233.541 39.813L232.841 40.083C233.181 40.863 233.981 41.363 235.111 41.363C236.371 41.363 237.121 40.753 237.121 39.873ZM239.132 36.273H238.282V41.233H239.132V36.273ZM239.132 34.303H238.282V35.293H239.132V34.303ZM244.784 41.313L244.824 40.663C244.764 40.673 244.664 40.683 244.604 40.683C244.304 40.683 244.154 40.473 244.154 40.203V37.923C244.154 36.773 243.454 36.143 242.374 36.143C241.514 36.143 240.764 36.623 240.404 37.403L241.064 37.673C241.314 37.203 241.704 36.853 242.294 36.853C242.904 36.853 243.304 37.273 243.304 37.893V38.283L242.144 38.423C241.044 38.563 240.264 39.093 240.264 40.013C240.264 40.803 240.894 41.363 241.774 41.363C242.474 41.363 243.024 41.023 243.344 40.493C243.464 41.063 243.834 41.363 244.394 41.363C244.544 41.363 244.664 41.343 244.784 41.313ZM242.004 40.673C241.504 40.673 241.154 40.373 241.154 39.953C241.154 39.443 241.634 39.143 242.294 39.063L243.304 38.943V39.853C243.044 40.333 242.554 40.673 242.004 40.673ZM252.693 41.233V37.953C252.693 36.893 251.973 36.143 251.043 36.143C250.383 36.143 249.803 36.543 249.453 37.073C249.183 36.503 248.663 36.143 248.053 36.143C247.393 36.143 246.843 36.563 246.553 37.033V36.273H245.733V41.233H246.583V37.613C246.863 37.193 247.343 36.863 247.833 36.863C248.383 36.863 248.783 37.323 248.783 38.013V41.233H249.633V37.953C249.633 37.803 249.623 37.663 249.593 37.523C249.893 37.143 250.373 36.863 250.853 36.863C251.423 36.863 251.843 37.323 251.843 38.013V41.233H252.693ZM258.601 38.763C258.601 37.243 257.591 36.143 256.201 36.143C254.811 36.143 253.791 37.243 253.791 38.763C253.791 40.263 254.811 41.363 256.201 41.363C257.591 41.363 258.601 40.263 258.601 38.763ZM254.691 38.763C254.691 37.663 255.321 36.853 256.201 36.853C257.071 36.853 257.701 37.663 257.701 38.763C257.701 39.843 257.071 40.643 256.201 40.643C255.321 40.643 254.691 39.843 254.691 38.763ZM265.861 39.873C265.861 38.953 265.081 38.573 263.961 38.333C263.121 38.143 262.641 37.993 262.641 37.553C262.641 37.133 263.111 36.843 263.771 36.843C264.461 36.843 264.921 37.133 265.151 37.613L265.831 37.343C265.541 36.733 264.931 36.143 263.781 36.143C262.611 36.143 261.811 36.763 261.811 37.603C261.811 38.463 262.621 38.863 263.721 39.093C264.571 39.273 265.041 39.443 265.041 39.913C265.041 40.363 264.621 40.673 263.891 40.673C263.061 40.673 262.531 40.303 262.281 39.813L261.581 40.083C261.921 40.863 262.721 41.363 263.851 41.363C265.111 41.363 265.861 40.753 265.861 39.873ZM269.803 41.203V40.493C269.593 40.573 269.243 40.633 268.933 40.633C268.303 40.633 268.053 40.323 268.053 39.853V36.973H269.773V36.273H268.053V35.063H267.203V36.273H266.473V36.973H267.203V39.993C267.203 40.863 267.793 41.363 268.783 41.363C269.153 41.363 269.583 41.283 269.803 41.203ZM274.862 41.313L274.902 40.663C274.842 40.673 274.742 40.683 274.682 40.683C274.382 40.683 274.232 40.473 274.232 40.203V37.923C274.232 36.773 273.532 36.143 272.452 36.143C271.592 36.143 270.842 36.623 270.482 37.403L271.142 37.673C271.392 37.203 271.782 36.853 272.372 36.853C272.982 36.853 273.382 37.273 273.382 37.893V38.283L272.222 38.423C271.122 38.563 270.342 39.093 270.342 40.013C270.342 40.803 270.972 41.363 271.852 41.363C272.552 41.363 273.102 41.023 273.422 40.493C273.542 41.063 273.912 41.363 274.472 41.363C274.622 41.363 274.742 41.343 274.862 41.313ZM272.082 40.673C271.582 40.673 271.232 40.373 271.232 39.953C271.232 39.443 271.712 39.143 272.372 39.063L273.382 38.943V39.853C273.122 40.333 272.632 40.673 272.082 40.673ZM278.631 41.203V40.493C278.421 40.573 278.071 40.633 277.761 40.633C277.131 40.633 276.881 40.323 276.881 39.853V36.973H278.601V36.273H276.881V35.063H276.031V36.273H275.301V36.973H276.031V39.993C276.031 40.863 276.621 41.363 277.611 41.363C277.981 41.363 278.411 41.283 278.631 41.203ZM280.431 36.273H279.581V41.233H280.431V36.273ZM280.431 34.303H279.581V35.293H280.431V34.303ZM88.5929 53.313L88.6329 52.663C88.5729 52.673 88.4729 52.683 88.4129 52.683C88.1129 52.683 87.9629 52.473 87.9629 52.203V49.923C87.9629 48.773 87.2629 48.143 86.1829 48.143C85.3229 48.143 84.5729 48.623 84.2129 49.403L84.8729 49.673C85.1229 49.203 85.5129 48.853 86.1029 48.853C86.7129 48.853 87.1129 49.273 87.1129 49.893V50.283L85.9529 50.423C84.8529 50.563 84.0729 51.093 84.0729 52.013C84.0729 52.803 84.7029 53.363 85.5829 53.363C86.2829 53.363 86.8329 53.023 87.1529 52.493C87.2729 53.063 87.6429 53.363 88.2029 53.363C88.3529 53.363 88.4729 53.343 88.5929 53.313ZM85.8129 52.673C85.3129 52.673 84.9629 52.373 84.9629 51.953C84.9629 51.443 85.4429 51.143 86.1029 51.063L87.1129 50.943V51.853C86.8529 52.333 86.3629 52.673 85.8129 52.673ZM94.0715 50.733C94.0715 49.233 93.1815 48.143 91.9615 48.143C91.3915 48.143 90.7615 48.463 90.3915 48.933V46.193H89.5415V53.233H90.3415V52.633C90.7215 53.063 91.3415 53.363 91.8815 53.363C93.1515 53.363 94.0715 52.263 94.0715 50.733ZM91.6815 52.653C91.1615 52.653 90.6615 52.383 90.3915 52.013V49.543C90.6615 49.133 91.1915 48.863 91.7315 48.863C92.5615 48.863 93.1715 49.643 93.1715 50.723C93.1715 51.833 92.5415 52.653 91.6815 52.653ZM99.7843 50.733C99.7843 49.233 98.8943 48.143 97.6743 48.143C97.1043 48.143 96.4743 48.463 96.1043 48.933V46.193H95.2543V53.233H96.0543V52.633C96.4343 53.063 97.0543 53.363 97.5943 53.363C98.8643 53.363 99.7843 52.263 99.7843 50.733ZM97.3943 52.653C96.8743 52.653 96.3743 52.383 96.1043 52.013V49.543C96.3743 49.133 96.9043 48.863 97.4443 48.863C98.2743 48.863 98.8843 49.643 98.8843 50.723C98.8843 51.833 98.2543 52.653 97.3943 52.653ZM105.077 53.313L105.117 52.663C105.057 52.673 104.957 52.683 104.897 52.683C104.597 52.683 104.447 52.473 104.447 52.203V49.923C104.447 48.773 103.747 48.143 102.667 48.143C101.807 48.143 101.057 48.623 100.697 49.403L101.357 49.673C101.607 49.203 101.997 48.853 102.587 48.853C103.197 48.853 103.597 49.273 103.597 49.893V50.283L102.437 50.423C101.337 50.563 100.557 51.093 100.557 52.013C100.557 52.803 101.187 53.363 102.067 53.363C102.767 53.363 103.317 53.023 103.637 52.493C103.757 53.063 104.127 53.363 104.687 53.363C104.837 53.363 104.957 53.343 105.077 53.313ZM102.297 52.673C101.797 52.673 101.447 52.373 101.447 51.953C101.447 51.443 101.927 51.143 102.587 51.063L103.597 50.943V51.853C103.337 52.333 102.847 52.673 102.297 52.673ZM110.196 53.233V49.953C110.196 48.893 109.456 48.143 108.486 48.143C107.776 48.143 107.176 48.563 106.846 49.033V48.273H106.026V53.233H106.876V49.633C107.186 49.193 107.726 48.863 108.286 48.863C108.906 48.863 109.346 49.323 109.346 50.013V53.233H110.196ZM113.65 52.653C112.82 52.653 112.23 51.863 112.23 50.783C112.23 49.673 112.85 48.863 113.71 48.863C114.24 48.863 114.73 49.103 114.99 49.483V51.933C114.7 52.363 114.17 52.653 113.65 52.653ZM115.84 53.233V46.193H114.99V48.813C114.65 48.413 114.07 48.143 113.53 48.143C112.25 48.143 111.32 49.253 111.32 50.793C111.32 52.283 112.22 53.363 113.46 53.363C114.03 53.363 114.67 53.013 115.04 52.523V53.233H115.84ZM121.823 50.763C121.823 49.243 120.813 48.143 119.423 48.143C118.033 48.143 117.013 49.243 117.013 50.763C117.013 52.263 118.033 53.363 119.423 53.363C120.813 53.363 121.823 52.263 121.823 50.763ZM117.913 50.763C117.913 49.663 118.543 48.853 119.423 48.853C120.293 48.853 120.923 49.663 120.923 50.763C120.923 51.843 120.293 52.643 119.423 52.643C118.543 52.643 117.913 51.843 117.913 50.763ZM127.159 53.233V49.953C127.159 48.893 126.419 48.143 125.449 48.143C124.739 48.143 124.139 48.563 123.809 49.033V48.273H122.989V53.233H123.839V49.633C124.149 49.193 124.689 48.863 125.249 48.863C125.869 48.863 126.309 49.323 126.309 50.013V53.233H127.159ZM132.753 53.313L132.793 52.663C132.733 52.673 132.633 52.683 132.573 52.683C132.273 52.683 132.123 52.473 132.123 52.203V49.923C132.123 48.773 131.423 48.143 130.343 48.143C129.483 48.143 128.733 48.623 128.373 49.403L129.033 49.673C129.283 49.203 129.673 48.853 130.263 48.853C130.873 48.853 131.273 49.273 131.273 49.893V50.283L130.113 50.423C129.013 50.563 128.233 51.093 128.233 52.013C128.233 52.803 128.863 53.363 129.743 53.363C130.443 53.363 130.993 53.023 131.313 52.493C131.433 53.063 131.803 53.363 132.363 53.363C132.513 53.363 132.633 53.343 132.753 53.313ZM129.973 52.673C129.473 52.673 129.123 52.373 129.123 51.953C129.123 51.443 129.603 51.143 130.263 51.063L131.273 50.943V51.853C131.013 52.333 130.523 52.673 129.973 52.673ZM136.522 53.203V52.493C136.312 52.573 135.962 52.633 135.652 52.633C135.022 52.633 134.772 52.323 134.772 51.853V48.973H136.492V48.273H134.772V47.063H133.922V48.273H133.192V48.973H133.922V51.993C133.922 52.863 134.512 53.363 135.502 53.363C135.872 53.363 136.302 53.283 136.522 53.203ZM138.321 48.273H137.471V53.233H138.321V48.273ZM138.321 46.303H137.471V47.293H138.321V46.303ZM146.018 52.013L145.298 51.733C145.058 52.283 144.658 52.633 144.108 52.633C143.298 52.633 142.708 51.863 142.708 50.793C142.708 49.673 143.278 48.863 144.068 48.863C144.568 48.863 144.998 49.173 145.238 49.753L145.978 49.453C145.628 48.653 144.958 48.143 144.048 48.143C142.748 48.143 141.808 49.253 141.808 50.793C141.808 52.283 142.758 53.363 144.078 53.363C144.988 53.363 145.698 52.793 146.018 52.013ZM151.491 50.763C151.491 49.243 150.481 48.143 149.091 48.143C147.701 48.143 146.681 49.243 146.681 50.763C146.681 52.263 147.701 53.363 149.091 53.363C150.481 53.363 151.491 52.263 151.491 50.763ZM147.581 50.763C147.581 49.663 148.211 48.853 149.091 48.853C149.961 48.853 150.591 49.663 150.591 50.763C150.591 51.843 149.961 52.643 149.091 52.643C148.211 52.643 147.581 51.843 147.581 50.763ZM159.617 53.233V49.953C159.617 48.893 158.897 48.143 157.967 48.143C157.307 48.143 156.727 48.543 156.377 49.073C156.107 48.503 155.587 48.143 154.977 48.143C154.317 48.143 153.767 48.563 153.477 49.033V48.273H152.657V53.233H153.507V49.613C153.787 49.193 154.267 48.863 154.757 48.863C155.307 48.863 155.707 49.323 155.707 50.013V53.233H156.557V49.953C156.557 49.803 156.547 49.663 156.517 49.523C156.817 49.143 157.297 48.863 157.777 48.863C158.347 48.863 158.767 49.323 158.767 50.013V53.233H159.617ZM165.064 52.103L164.384 51.843C164.124 52.353 163.644 52.663 163.104 52.663C162.274 52.663 161.674 51.973 161.614 50.933H165.054C165.084 50.803 165.104 50.533 165.104 50.313C165.104 49.043 164.234 48.143 163.024 48.143C161.704 48.143 160.724 49.263 160.724 50.793C160.724 52.293 161.704 53.363 163.054 53.363C163.944 53.363 164.714 52.893 165.064 52.103ZM163.034 48.833C163.734 48.833 164.224 49.393 164.254 50.253H161.664C161.814 49.393 162.344 48.833 163.034 48.833ZM172.394 51.873C172.394 50.953 171.614 50.573 170.494 50.333C169.654 50.143 169.174 49.993 169.174 49.553C169.174 49.133 169.644 48.843 170.304 48.843C170.994 48.843 171.454 49.133 171.684 49.613L172.364 49.343C172.074 48.733 171.464 48.143 170.314 48.143C169.144 48.143 168.344 48.763 168.344 49.603C168.344 50.463 169.154 50.863 170.254 51.093C171.104 51.273 171.574 51.443 171.574 51.913C171.574 52.363 171.154 52.673 170.424 52.673C169.594 52.673 169.064 52.303 168.814 51.813L168.114 52.083C168.454 52.863 169.254 53.363 170.384 53.363C171.644 53.363 172.394 52.753 172.394 51.873ZM177.535 52.103L176.855 51.843C176.595 52.353 176.115 52.663 175.575 52.663C174.745 52.663 174.145 51.973 174.085 50.933H177.525C177.555 50.803 177.575 50.533 177.575 50.313C177.575 49.043 176.705 48.143 175.495 48.143C174.175 48.143 173.195 49.263 173.195 50.793C173.195 52.293 174.175 53.363 175.525 53.363C176.415 53.363 177.185 52.893 177.535 52.103ZM175.505 48.833C176.205 48.833 176.695 49.393 176.725 50.253H174.135C174.285 49.393 174.815 48.833 175.505 48.833ZM183.985 48.973V48.273H182.175V48.073C182.175 47.253 182.585 46.773 183.245 46.773C183.515 46.773 183.845 46.823 184.065 46.913L184.085 46.203C183.855 46.133 183.455 46.063 183.155 46.063C182.015 46.063 181.325 46.813 181.325 48.083V48.273H180.685V48.973H181.325V53.233H182.175V48.973H183.985ZM188.866 53.313L188.906 52.663C188.846 52.673 188.746 52.683 188.686 52.683C188.386 52.683 188.236 52.473 188.236 52.203V49.923C188.236 48.773 187.536 48.143 186.456 48.143C185.596 48.143 184.846 48.623 184.486 49.403L185.146 49.673C185.396 49.203 185.786 48.853 186.376 48.853C186.986 48.853 187.386 49.273 187.386 49.893V50.283L186.226 50.423C185.126 50.563 184.346 51.093 184.346 52.013C184.346 52.803 184.976 53.363 185.856 53.363C186.556 53.363 187.106 53.023 187.426 52.493C187.546 53.063 187.916 53.363 188.476 53.363C188.626 53.363 188.746 53.343 188.866 53.313ZM186.086 52.673C185.586 52.673 185.236 52.373 185.236 51.953C185.236 51.443 185.716 51.143 186.376 51.063L187.386 50.943V51.853C187.126 52.333 186.636 52.673 186.086 52.673ZM190.665 53.233V50.273C190.745 49.613 191.145 48.993 191.915 48.993C192.085 48.993 192.325 49.023 192.465 49.063V48.223C192.365 48.183 192.125 48.143 191.955 48.143C191.375 48.143 190.835 48.653 190.635 49.283V48.273H189.815V53.233H190.665ZM197.281 52.103L196.601 51.843C196.341 52.353 195.861 52.663 195.321 52.663C194.491 52.663 193.891 51.973 193.831 50.933H197.271C197.301 50.803 197.321 50.533 197.321 50.313C197.321 49.043 196.451 48.143 195.241 48.143C193.921 48.143 192.941 49.263 192.941 50.793C192.941 52.293 193.921 53.363 195.271 53.363C196.161 53.363 196.931 52.893 197.281 52.103ZM195.251 48.833C195.951 48.833 196.441 49.393 196.471 50.253H193.881C194.031 49.393 194.561 48.833 195.251 48.833ZM202.851 52.653C202.001 52.653 201.361 51.903 201.361 50.793C201.361 49.663 201.991 48.843 202.881 48.843C203.371 48.843 203.851 49.113 204.141 49.503V51.943C203.901 52.333 203.401 52.653 202.851 52.653ZM204.991 55.053V48.273H204.161V48.903C203.841 48.443 203.281 48.143 202.661 48.143C201.461 48.143 200.461 49.223 200.461 50.783C200.461 52.283 201.411 53.363 202.631 53.363C203.261 53.363 203.821 53.063 204.141 52.613V55.053H204.991ZM210.534 53.233V48.273H209.684V51.693C209.434 52.243 208.954 52.643 208.364 52.643C207.754 52.643 207.314 52.163 207.314 51.493V48.273H206.464V51.553C206.464 52.603 207.164 53.363 208.124 53.363C208.854 53.363 209.424 52.943 209.714 52.413V53.233H210.534ZM216.051 52.103L215.371 51.843C215.111 52.353 214.631 52.663 214.091 52.663C213.261 52.663 212.661 51.973 212.601 50.933H216.041C216.071 50.803 216.091 50.533 216.091 50.313C216.091 49.043 215.221 48.143 214.011 48.143C212.691 48.143 211.711 49.263 211.711 50.793C211.711 52.293 212.691 53.363 214.041 53.363C214.931 53.363 215.701 52.893 216.051 52.103ZM214.021 48.833C214.721 48.833 215.211 49.393 215.241 50.253H212.651C212.801 49.393 213.331 48.833 214.021 48.833ZM221.076 51.873C221.076 50.953 220.296 50.573 219.176 50.333C218.336 50.143 217.856 49.993 217.856 49.553C217.856 49.133 218.326 48.843 218.986 48.843C219.676 48.843 220.136 49.133 220.366 49.613L221.046 49.343C220.756 48.733 220.146 48.143 218.996 48.143C217.826 48.143 217.026 48.763 217.026 49.603C217.026 50.463 217.836 50.863 218.936 51.093C219.786 51.273 220.256 51.443 220.256 51.913C220.256 52.363 219.836 52.673 219.106 52.673C218.276 52.673 217.746 52.303 217.496 51.813L216.796 52.083C217.136 52.863 217.936 53.363 219.066 53.363C220.326 53.363 221.076 52.753 221.076 51.873ZM225.018 53.203V52.493C224.808 52.573 224.458 52.633 224.148 52.633C223.518 52.633 223.268 52.323 223.268 51.853V48.973H224.988V48.273H223.268V47.063H222.418V48.273H221.688V48.973H222.418V51.993C222.418 52.863 223.008 53.363 223.998 53.363C224.368 53.363 224.798 53.283 225.018 53.203ZM230.358 50.763C230.358 49.243 229.348 48.143 227.958 48.143C226.568 48.143 225.548 49.243 225.548 50.763C225.548 52.263 226.568 53.363 227.958 53.363C229.348 53.363 230.358 52.263 230.358 50.763ZM226.448 50.763C226.448 49.663 227.078 48.853 227.958 48.853C228.828 48.853 229.458 49.663 229.458 50.763C229.458 51.843 228.828 52.643 227.958 52.643C227.078 52.643 226.448 51.843 226.448 50.763ZM234.679 46.193H233.829V53.233H234.679V46.193ZM240.331 53.313L240.371 52.663C240.311 52.673 240.211 52.683 240.151 52.683C239.851 52.683 239.701 52.473 239.701 52.203V49.923C239.701 48.773 239.001 48.143 237.921 48.143C237.061 48.143 236.311 48.623 235.951 49.403L236.611 49.673C236.861 49.203 237.251 48.853 237.841 48.853C238.451 48.853 238.851 49.273 238.851 49.893V50.283L237.691 50.423C236.591 50.563 235.811 51.093 235.811 52.013C235.811 52.803 236.441 53.363 237.321 53.363C238.021 53.363 238.571 53.023 238.891 52.493C239.011 53.063 239.381 53.363 239.941 53.363C240.091 53.363 240.211 53.343 240.331 53.313ZM237.551 52.673C237.051 52.673 236.701 52.373 236.701 51.953C236.701 51.443 237.181 51.143 237.841 51.063L238.851 50.943V51.853C238.591 52.333 238.101 52.673 237.551 52.673ZM240.612 48.273L242.402 53.233H243.282L245.062 48.273H244.202L242.882 52.133H242.852L241.532 48.273H240.612ZM250.407 50.763C250.407 49.243 249.397 48.143 248.007 48.143C246.617 48.143 245.597 49.243 245.597 50.763C245.597 52.263 246.617 53.363 248.007 53.363C249.397 53.363 250.407 52.263 250.407 50.763ZM246.497 50.763C246.497 49.663 247.127 48.853 248.007 48.853C248.877 48.853 249.507 49.663 249.507 50.763C249.507 51.843 248.877 52.643 248.007 52.643C247.127 52.643 246.497 51.843 246.497 50.763ZM252.423 53.233V50.273C252.503 49.613 252.903 48.993 253.673 48.993C253.843 48.993 254.083 49.023 254.223 49.063V48.223C254.123 48.183 253.883 48.143 253.713 48.143C253.133 48.143 252.593 48.653 252.393 49.283V48.273H251.573V53.233H252.423ZM259.499 50.763C259.499 49.243 258.489 48.143 257.099 48.143C255.709 48.143 254.689 49.243 254.689 50.763C254.689 52.263 255.709 53.363 257.099 53.363C258.489 53.363 259.499 52.263 259.499 50.763ZM255.589 50.763C255.589 49.663 256.219 48.853 257.099 48.853C257.969 48.853 258.599 49.663 258.599 50.763C258.599 51.843 257.969 52.643 257.099 52.643C256.219 52.643 255.589 51.843 255.589 50.763ZM266.759 51.873C266.759 50.953 265.979 50.573 264.859 50.333C264.019 50.143 263.539 49.993 263.539 49.553C263.539 49.133 264.009 48.843 264.669 48.843C265.359 48.843 265.819 49.133 266.049 49.613L266.729 49.343C266.439 48.733 265.829 48.143 264.679 48.143C263.509 48.143 262.709 48.763 262.709 49.603C262.709 50.463 263.519 50.863 264.619 51.093C265.469 51.273 265.939 51.443 265.939 51.913C265.939 52.363 265.519 52.673 264.789 52.673C263.959 52.673 263.429 52.303 263.179 51.813L262.479 52.083C262.819 52.863 263.619 53.363 264.749 53.363C266.009 53.363 266.759 52.753 266.759 51.873ZM268.77 48.273H267.92V53.233H268.77V48.273ZM268.77 46.303H267.92V47.293H268.77V46.303ZM274.423 53.313L274.463 52.663C274.403 52.673 274.303 52.683 274.243 52.683C273.943 52.683 273.793 52.473 273.793 52.203V49.923C273.793 48.773 273.093 48.143 272.013 48.143C271.153 48.143 270.403 48.623 270.043 49.403L270.703 49.673C270.953 49.203 271.343 48.853 271.933 48.853C272.543 48.853 272.943 49.273 272.943 49.893V50.283L271.783 50.423C270.683 50.563 269.903 51.093 269.903 52.013C269.903 52.803 270.533 53.363 271.413 53.363C272.113 53.363 272.663 53.023 272.983 52.493C273.103 53.063 273.473 53.363 274.033 53.363C274.183 53.363 274.303 53.343 274.423 53.313ZM271.643 52.673C271.143 52.673 270.793 52.373 270.793 51.953C270.793 51.443 271.273 51.143 271.933 51.063L272.943 50.943V51.853C272.683 52.333 272.193 52.673 271.643 52.673ZM281.676 53.233V48.273H280.826V51.693C280.576 52.243 280.096 52.643 279.506 52.643C278.896 52.643 278.456 52.163 278.456 51.493V48.273H277.606V51.553C277.606 52.603 278.306 53.363 279.266 53.363C279.996 53.363 280.566 52.943 280.856 52.413V53.233H281.676ZM287.383 53.233V49.953C287.383 48.893 286.643 48.143 285.673 48.143C284.963 48.143 284.363 48.563 284.033 49.033V48.273H283.213V53.233H284.063V49.633C284.373 49.193 284.913 48.863 285.473 48.863C286.093 48.863 286.533 49.323 286.533 50.013V53.233H287.383ZM88.6529 65.233V61.963C88.6529 60.893 87.9129 60.143 86.9429 60.143C86.2529 60.143 85.6629 60.533 85.3329 60.993V58.193H84.4829V65.233H85.3329V61.633C85.6429 61.193 86.1829 60.863 86.7429 60.863C87.3629 60.863 87.8029 61.323 87.8029 62.013V65.233H88.6529ZM94.5772 62.763C94.5772 61.243 93.5672 60.143 92.1772 60.143C90.7872 60.143 89.7672 61.243 89.7672 62.763C89.7672 64.263 90.7872 65.363 92.1772 65.363C93.5672 65.363 94.5772 64.263 94.5772 62.763ZM90.6672 62.763C90.6672 61.663 91.2972 60.853 92.1772 60.853C93.0472 60.853 93.6772 61.663 93.6772 62.763C93.6772 63.843 93.0472 64.643 92.1772 64.643C91.2972 64.643 90.6672 63.843 90.6672 62.763ZM100.273 62.733C100.273 61.233 99.3826 60.143 98.1626 60.143C97.5926 60.143 96.9626 60.463 96.5926 60.933V58.193H95.7426V65.233H96.5426V64.633C96.9226 65.063 97.5426 65.363 98.0826 65.363C99.3526 65.363 100.273 64.263 100.273 62.733ZM97.8826 64.653C97.3626 64.653 96.8626 64.383 96.5926 64.013V61.543C96.8626 61.133 97.3926 60.863 97.9326 60.863C98.7626 60.863 99.3726 61.643 99.3726 62.723C99.3726 63.833 98.7426 64.653 97.8826 64.653ZM105.986 62.733C105.986 61.233 105.096 60.143 103.876 60.143C103.306 60.143 102.676 60.463 102.306 60.933V58.193H101.456V65.233H102.256V64.633C102.636 65.063 103.256 65.363 103.796 65.363C105.066 65.363 105.986 64.263 105.986 62.733ZM103.596 64.653C103.076 64.653 102.576 64.383 102.306 64.013V61.543C102.576 61.133 103.106 60.863 103.646 60.863C104.476 60.863 105.086 61.643 105.086 62.723C105.086 63.833 104.456 64.653 103.596 64.653ZM109.111 65.293L110.881 60.273H110.021L108.801 63.853H108.771L107.441 60.273H106.511L108.361 65.013L108.351 65.043C107.961 66.173 107.531 66.423 106.361 66.423V67.183C107.941 67.183 108.591 66.753 109.111 65.293ZM117.965 64.103L117.285 63.843C117.025 64.353 116.545 64.663 116.005 64.663C115.175 64.663 114.575 63.973 114.515 62.933H117.955C117.985 62.803 118.005 62.533 118.005 62.313C118.005 61.043 117.135 60.143 115.925 60.143C114.605 60.143 113.625 61.263 113.625 62.793C113.625 64.293 114.605 65.363 115.955 65.363C116.845 65.363 117.615 64.893 117.965 64.103ZM115.935 60.833C116.635 60.833 117.125 61.393 117.155 62.253H114.565C114.715 61.393 115.245 60.833 115.935 60.833ZM125.674 65.233V61.953C125.674 60.893 124.934 60.143 123.964 60.143C123.254 60.143 122.654 60.563 122.324 61.033V60.273H121.504V65.233H122.354V61.633C122.664 61.193 123.204 60.863 123.764 60.863C124.384 60.863 124.824 61.323 124.824 62.013V65.233H125.674ZM131.599 62.763C131.599 61.243 130.589 60.143 129.199 60.143C127.809 60.143 126.789 61.243 126.789 62.763C126.789 64.263 127.809 65.363 129.199 65.363C130.589 65.363 131.599 64.263 131.599 62.763ZM127.689 62.763C127.689 61.663 128.319 60.853 129.199 60.853C130.069 60.853 130.699 61.663 130.699 62.763C130.699 63.843 130.069 64.643 129.199 64.643C128.319 64.643 127.689 63.843 127.689 62.763ZM136.934 65.233V61.953C136.934 60.893 136.194 60.143 135.224 60.143C134.514 60.143 133.914 60.563 133.584 61.033V60.273H132.764V65.233H133.614V61.633C133.924 61.193 134.464 60.863 135.024 60.863C135.644 60.863 136.084 61.323 136.084 62.013V65.233H136.934ZM144.723 65.233V60.273H143.873V63.693C143.623 64.243 143.143 64.643 142.553 64.643C141.943 64.643 141.503 64.163 141.503 63.493V60.273H140.653V63.553C140.653 64.603 141.353 65.363 142.313 65.363C143.043 65.363 143.613 64.943 143.903 64.413V65.233H144.723ZM150.43 65.233V61.953C150.43 60.893 149.69 60.143 148.72 60.143C148.01 60.143 147.41 60.563 147.08 61.033V60.273H146.26V65.233H147.11V61.633C147.42 61.193 147.96 60.863 148.52 60.863C149.14 60.863 149.58 61.323 149.58 62.013V65.233H150.43ZM155.069 58.193H154.219V65.233H155.069V58.193ZM160.722 65.313L160.762 64.663C160.702 64.673 160.602 64.683 160.542 64.683C160.242 64.683 160.092 64.473 160.092 64.203V61.923C160.092 60.773 159.392 60.143 158.312 60.143C157.452 60.143 156.702 60.623 156.342 61.403L157.002 61.673C157.252 61.203 157.642 60.853 158.232 60.853C158.842 60.853 159.242 61.273 159.242 61.893V62.283L158.082 62.423C156.982 62.563 156.202 63.093 156.202 64.013C156.202 64.803 156.832 65.363 157.712 65.363C158.412 65.363 158.962 65.023 159.282 64.493C159.402 65.063 159.772 65.363 160.332 65.363C160.482 65.363 160.602 65.343 160.722 65.313ZM157.942 64.673C157.442 64.673 157.092 64.373 157.092 63.953C157.092 63.443 157.572 63.143 158.232 63.063L159.242 62.943V63.853C158.982 64.333 158.492 64.673 157.942 64.673ZM161.003 60.273L162.793 65.233H163.673L165.453 60.273H164.593L163.273 64.133H163.243L161.923 60.273H161.003ZM170.798 62.763C170.798 61.243 169.788 60.143 168.398 60.143C167.008 60.143 165.988 61.243 165.988 62.763C165.988 64.263 167.008 65.363 168.398 65.363C169.788 65.363 170.798 64.263 170.798 62.763ZM166.888 62.763C166.888 61.663 167.518 60.853 168.398 60.853C169.268 60.853 169.898 61.663 169.898 62.763C169.898 63.843 169.268 64.643 168.398 64.643C167.518 64.643 166.888 63.843 166.888 62.763ZM172.813 65.233V62.273C172.893 61.613 173.293 60.993 174.063 60.993C174.233 60.993 174.473 61.023 174.613 61.063V60.223C174.513 60.183 174.273 60.143 174.103 60.143C173.523 60.143 172.983 60.653 172.783 61.283V60.273H171.963V65.233H172.813ZM179.89 62.763C179.89 61.243 178.88 60.143 177.49 60.143C176.1 60.143 175.08 61.243 175.08 62.763C175.08 64.263 176.1 65.363 177.49 65.363C178.88 65.363 179.89 64.263 179.89 62.763ZM175.98 62.763C175.98 61.663 176.61 60.853 177.49 60.853C178.36 60.853 178.99 61.663 178.99 62.763C178.99 63.843 178.36 64.643 177.49 64.643C176.61 64.643 175.98 63.843 175.98 62.763ZM181.895 65.233V63.903H180.895V65.233H181.895ZM183.046 59.703V58.653H182.106V59.853H182.546C182.536 60.343 182.386 60.703 182.016 61.093L182.396 61.363C182.826 60.933 183.046 60.353 183.046 59.703ZM184.506 59.703V58.653H183.566V59.853H184.006C183.996 60.343 183.846 60.703 183.476 61.093L183.856 61.363C184.286 60.933 184.506 60.353 184.506 59.703Z" fill="black"/>
<circle cx="44.015" cy="45.5912" r="20" fill="#ADFF00"/>
</svg>
