<svg width="138" height="36" viewBox="0 0 138 36" fill="none" xmlns="http://www.w3.org/2000/svg">
<rect x="0.851852" y="1.58061" width="32.3704" height="32.3704" rx="16.1852" stroke="white" stroke-width="1.7037"/>
<path d="M26.0664 13.4212C25.4701 13.6768 24.7886 13.8472 24.1072 13.9324C24.7886 13.5064 25.3849 12.825 25.6405 12.0583C24.959 12.4842 24.2775 12.7398 23.4257 12.9101C22.8294 12.2287 21.8923 11.8027 20.9553 11.8027C19.0812 11.8027 17.5479 13.3361 17.5479 15.2101C17.5479 15.4657 17.5479 15.7212 17.6331 15.9768C14.822 15.8064 12.2664 14.4435 10.5627 12.399C10.3071 12.9101 10.1368 13.5064 10.1368 14.1027C10.1368 15.2953 10.7331 16.3175 11.6701 16.9138C11.0738 16.9138 10.5627 16.7435 10.1368 16.4879C10.1368 18.1064 11.3294 19.5546 12.8627 19.8101C12.6071 19.8953 12.2664 19.8953 11.9257 19.8953C11.6701 19.8953 11.4997 19.8953 11.2442 19.8101C11.6701 21.1731 12.9479 22.1953 14.4812 22.1953C13.2886 23.1324 11.8405 23.6435 10.222 23.6435C9.96641 23.6435 9.71086 23.6435 9.37012 23.5583C10.9035 24.4953 12.6923 25.0916 14.6516 25.0916C20.9553 25.0916 24.3627 19.8953 24.3627 15.3805V14.9546C25.0442 14.699 25.6405 14.1027 26.0664 13.4212Z" fill="white"/>
<rect x="51.9632" y="1.79619" width="32.3704" height="32.3704" rx="16.1852" stroke="white" stroke-width="1.7037"/>
<path d="M74.9633 18.6154V23.314H72.213V18.9019C72.213 17.8132 71.8119 17.0684 70.8378 17.0684C70.0929 17.0684 69.6345 17.584 69.4626 18.0424C69.4053 18.2143 69.348 18.4435 69.348 18.73V23.314H66.5976C66.5976 23.314 66.6549 15.8651 66.5976 15.1202H69.348V16.2662C69.6918 15.6932 70.3794 14.891 71.8119 14.891C73.5881 14.891 74.9633 16.0943 74.9633 18.6154ZM63.7326 11.1665C62.8158 11.1665 62.1855 11.7968 62.1855 12.599C62.1855 13.4012 62.7585 14.0315 63.6753 14.0315C64.6494 14.0315 65.2224 13.4012 65.2224 12.599C65.2797 11.7395 64.7067 11.1665 63.7326 11.1665ZM62.3574 23.314H65.1078V15.1202H62.3574V23.314Z" fill="white"/>
<rect x="104.778" y="1.79619" width="32.3704" height="32.3704" rx="16.1852" stroke="white" stroke-width="1.7037"/>
<path d="M122.374 18.292H125.545L126.043 15.0514H122.374V13.2802C122.374 11.934 122.811 10.7402 124.062 10.7402H126.074V7.91215C125.72 7.86414 124.973 7.75903 123.561 7.75903C120.612 7.75903 118.883 9.32584 118.883 12.8954V15.0514H115.852V18.292H118.883V27.1992C119.483 27.29 120.091 27.3516 120.716 27.3516C121.28 27.3516 121.831 27.2997 122.374 27.2258V18.292Z" fill="white"/>
</svg>
