<svg width="386" height="647" viewBox="0 0 386 647" fill="none" xmlns="http://www.w3.org/2000/svg">
<path fill-rule="evenodd" clip-rule="evenodd" d="M16.2531 0.0761719L370.056 0.0761873L369.898 0.233875L385.43 15.7655L385.43 403.942L371.684 417.687L385.43 433.686L385.43 628.629L370.065 646.513L16.2577 646.513L0.730158 628.44L0.572266 628.624L0.572274 433.692L0.730158 433.876L14.6315 417.695L0.724801 403.788L0.572266 403.941L0.572283 15.7654L0.72596 15.9191L16.411 0.234089L16.2531 0.0761719Z" fill="#ADFF00"/>
<path d="M34.5801 196.411L25.2051 187.036V130.786H34.5801V187.036H62.7051V196.411H34.5801ZM79.1113 196.411L69.7363 187.036V168.286L74.4238 163.598L69.7363 158.911V140.161L79.1113 130.786H107.236V140.161H79.1113V158.911H97.8613V168.286H79.1113V187.036H107.236V196.411H79.1113ZM123.643 196.411L114.268 187.036V140.161L123.643 130.786H151.768V140.161H123.643V187.036H142.393V168.286H133.018V158.911H151.768V187.036L142.393 196.411H123.643ZM168.174 196.411L158.799 187.036V140.161L168.174 130.786H196.299V140.161H168.174V187.036H186.924V168.286H177.549V158.911H196.299V187.036L186.924 196.411H168.174ZM212.705 196.411L203.33 187.036V168.286L208.018 163.598L203.33 158.911V140.161L212.705 130.786H240.83V140.161H212.705V158.911H231.455V168.286H212.705V187.036H240.83V196.411H212.705ZM275.986 158.911V140.161H257.236V158.911H275.986ZM247.861 196.411V130.786H275.986L285.361 140.161V158.911L280.674 163.598L285.361 168.286V196.411H275.986V168.286H257.236V196.411H247.861ZM320.518 158.911V140.161H301.768V158.911H320.518ZM292.393 196.411V140.161L301.768 130.786H320.518L329.893 140.161V196.411H320.518V168.286H301.768V196.411H292.393Z" fill="black"/>
<path d="M28.5488 300.446L22.9238 294.821L22.9238 289.196H28.5488L28.5488 294.821H39.7988L39.7988 283.571H34.1738L34.1738 277.946H39.7988L39.7988 266.696L28.5488 266.696L28.5488 272.321H22.9238L22.9238 266.696L28.5488 261.071H39.7988L45.4238 266.696L45.4238 277.946L42.6113 280.758L45.4238 283.571L45.4238 294.821L39.7988 300.446H28.5488ZM49.6426 300.446L49.6426 289.196L66.5176 272.321V266.696H55.2676L55.2676 272.321H49.6426V266.696L55.2676 261.071H66.5176L72.1426 266.696V272.321L55.2676 289.196L55.2676 294.821L72.1426 294.821L72.1426 300.446L49.6426 300.446ZM76.3613 300.446L76.3613 294.821H81.9863L81.9863 300.446H76.3613ZM91.8301 300.446L86.2051 294.821L86.2051 289.196H91.8301L91.8301 294.821H103.08L103.08 283.571H97.4551L97.4551 277.946H103.08L103.08 266.696H91.8301V272.321H86.2051V266.696L91.8301 261.071H103.08L108.705 266.696L108.705 277.946L105.893 280.758L108.705 283.571L108.705 294.821L103.08 300.446H91.8301ZM129.799 277.946V266.696H118.549L118.549 277.946H129.799ZM112.924 300.446L112.924 294.821H129.799L129.799 283.571H118.549L112.924 277.946L112.924 266.696L118.549 261.071H129.799L135.424 266.696L135.424 294.821L129.799 300.446H112.924ZM139.643 300.446L139.643 289.196L156.518 272.321V266.696H139.643V261.071H162.143L162.143 272.321L145.268 289.196L145.268 300.446H139.643Z" fill="black"/>
<path d="M27.7793 245.077L27.7793 233.827H24.9668L24.9668 231.952H32.4668V233.827H29.6543L29.6543 245.077H27.7793ZM39.498 243.202L39.498 233.827H35.748L35.748 243.202H39.498ZM35.748 245.077L33.873 243.202L33.873 233.827L35.748 231.952H39.498L41.373 233.827L41.373 243.202L39.498 245.077H35.748ZM45.5918 245.077L45.5918 233.827H42.7793V231.952L50.2793 231.952V233.827L47.4668 233.827L47.4668 245.077H45.5918ZM57.3105 237.577L57.3105 233.827H53.5605L53.5605 237.577H57.3105ZM51.6855 245.077L51.6855 233.827L53.5605 231.952H57.3105L59.1855 233.827L59.1855 245.077H57.3105L57.3105 239.452H53.5605L53.5605 245.077H51.6855ZM62.4668 245.077L60.5918 243.202L60.5918 231.952H62.4668L62.4668 243.202L68.0918 243.202V245.077L62.4668 245.077ZM71.373 245.077L69.498 243.202L69.498 239.452L70.4355 238.514L69.498 237.577V233.827L71.373 231.952H76.998V233.827H71.373V237.577H75.123L75.123 239.452H71.373L71.373 243.202H76.998V245.077H71.373ZM85.4355 245.077L83.5605 243.202L83.5605 239.452L84.498 238.514L83.5605 237.577V233.827L85.4355 231.952H91.0605V233.827H85.4355V237.577H89.1855V239.452H85.4355L85.4355 243.202H91.0605L91.0605 245.077H85.4355ZM96.2168 245.077L92.4668 241.327L92.4668 231.952H94.3418L94.3418 241.327L96.2168 243.202L98.0918 241.327L98.0918 231.952L99.9668 231.952L99.9668 241.327L96.2168 245.077ZM103.248 245.077L101.373 243.202V239.452L102.311 238.514L101.373 237.577L101.373 233.827L103.248 231.952H108.873V233.827H103.248L103.248 237.577H106.998V239.452H103.248V243.202H108.873L108.873 245.077H103.248ZM110.279 245.077L110.279 233.827L112.154 231.952H114.029L115.904 233.827L115.904 243.202H117.779L117.779 231.952H119.654L119.654 243.202L117.779 245.077H115.904L114.029 243.202L114.029 233.827H112.154L112.154 245.077H110.279ZM123.873 245.077L123.873 233.827H121.061V231.952H128.561V233.827H125.748L125.748 245.077H123.873ZM129.967 245.077L129.967 243.202H132.779V233.827L129.967 233.827V231.952L137.467 231.952V233.827H134.654V243.202H137.467L137.467 245.077L129.967 245.077Z" fill="black"/>
<path d="M43.2354 456.491L43.2354 452.741H39.4854L39.4854 456.491H43.2354ZM37.6104 463.991L37.6104 452.741L39.4854 450.866H43.2354L45.1104 452.741L45.1104 463.991L43.2354 463.991L43.2354 458.366H39.4854L39.4854 463.991H37.6104ZM46.5166 463.991L46.5166 452.741L48.3916 450.866H50.2666L52.1416 452.741L52.1416 462.116H54.0166L54.0166 450.866H55.8916L55.8916 462.116L54.0166 463.991H52.1416L50.2666 462.116L50.2666 452.741H48.3916L48.3916 463.991H46.5166ZM62.9229 462.116L62.9229 452.741H59.1729L59.1729 462.116H62.9229ZM57.2979 463.991L57.2979 450.866H62.9229L64.7979 452.741L64.7979 462.116L62.9229 463.991H57.2979ZM71.8291 456.491V452.741H68.0791V456.491H71.8291ZM66.2041 463.991L66.2041 452.741L68.0791 450.866H71.8291L73.7041 452.741L73.7041 463.991H71.8291L71.8291 458.366H68.0791L68.0791 463.991H66.2041ZM75.1104 463.991L75.1104 452.741L76.9854 450.866L78.8604 450.866L79.7979 451.803L80.7354 450.866H82.6104L84.4854 452.741L84.4854 463.991H82.6104L82.6104 452.741H80.7354L80.7354 460.241H78.8604L78.8604 452.741H76.9854L76.9854 463.991L75.1104 463.991ZM87.7666 463.991L85.8916 462.116L85.8916 458.366L86.8291 457.428L85.8916 456.491V452.741L87.7666 450.866H93.3916V452.741H87.7666V456.491H91.5166V458.366H87.7666L87.7666 462.116H93.3916L93.3916 463.991H87.7666ZM94.7979 463.991L94.7979 452.741L96.6729 450.866H98.5479L100.423 452.741L100.423 462.116H102.298L102.298 450.866H104.173L104.173 462.116L102.298 463.991H100.423L98.5479 462.116L98.5479 452.741H96.6729L96.6729 463.991H94.7979ZM108.392 463.991L108.392 452.741H105.579V450.866L113.079 450.866V452.741H110.267L110.267 463.991H108.392ZM120.11 462.116L120.11 452.741H116.36L116.36 462.116H120.11ZM116.36 463.991L114.485 462.116L114.485 452.741L116.36 450.866H120.11L121.985 452.741L121.985 462.116L120.11 463.991H116.36ZM305.735 463.991L303.86 462.116V458.366L304.798 457.428L303.86 456.491V452.741L305.735 450.866L311.36 450.866V452.741L305.735 452.741V456.491L309.485 456.491V458.366L305.735 458.366V462.116L311.36 462.116V463.991L305.735 463.991ZM316.517 463.991L312.767 460.241V450.866H314.642V460.241L316.517 462.116L318.392 460.241V450.866H320.267V460.241L316.517 463.991ZM323.548 463.991L321.673 462.116V458.366L322.61 457.428L321.673 456.491V452.741L323.548 450.866H329.173V452.741H323.548V456.491H327.298V458.366H323.548V462.116H329.173V463.991H323.548ZM330.579 463.991V452.741L332.454 450.866H334.329L336.204 452.741V462.116H338.079V450.866H339.954V462.116L338.079 463.991H336.204L334.329 462.116V452.741H332.454V463.991H330.579ZM344.173 463.991V452.741L341.36 452.741V450.866L348.86 450.866V452.741H346.048V463.991H344.173ZM350.267 463.991V462.116H353.079V452.741H350.267V450.866H357.767V452.741H354.954V462.116H357.767V463.991H350.267Z" fill="black"/>
<path d="M268.891 277.711V266.461L257.641 277.711L268.891 277.711ZM268.891 300.211L268.891 283.336H252.016L252.016 277.711L268.891 260.836L274.516 260.836L274.516 300.211L268.891 300.211ZM278.734 300.211L278.734 288.961L295.609 272.086V266.461H278.734V260.836L301.234 260.836V272.086L284.359 288.961L284.359 300.211H278.734ZM305.453 300.211V294.586H313.891L313.891 269.274L311.078 272.086H305.453L316.703 260.836H319.516L319.516 294.586H327.953V300.211H305.453ZM332.172 300.211L332.172 266.461L337.797 260.836H343.422L346.234 263.649L349.047 260.836H354.672L360.297 266.461L360.297 300.211H354.672L354.672 266.461H349.047V288.961H343.422V266.461H337.797L337.797 300.211L332.172 300.211Z" fill="black"/>
<path d="M258.178 245.077V233.827H255.365V231.952H262.865V233.827H260.053V245.077H258.178ZM269.896 243.202V233.827H266.146V243.202H269.896ZM266.146 245.077L264.271 243.202V233.827L266.146 231.952H269.896L271.771 233.827V243.202L269.896 245.077H266.146ZM275.99 245.077V233.827H273.178V231.952L280.678 231.952V233.827L277.865 233.827V245.077H275.99ZM287.709 237.577V233.827H283.959V237.577H287.709ZM282.084 245.077V233.827L283.959 231.952H287.709L289.584 233.827V245.077H287.709V239.452H283.959V245.077H282.084ZM292.865 245.077L290.99 243.202V231.952H292.865V243.202L298.49 243.202V245.077L292.865 245.077ZM301.771 245.077L299.896 243.202V239.452L300.834 238.514L299.896 237.577V233.827L301.771 231.952H307.396V233.827H301.771V237.577H305.521V239.452H301.771V243.202H307.396V245.077H301.771ZM313.959 245.077V243.202H319.584V239.452H315.834L313.959 237.577V233.827L315.834 231.952H321.459V233.827H315.834V237.577H319.584L321.459 239.452V243.202L319.584 245.077H313.959ZM328.49 237.577V233.827H324.74V237.577H328.49ZM322.865 245.077V231.952H328.49L330.365 233.827V237.577L328.49 239.452H324.74V245.077H322.865ZM333.646 245.077L331.771 243.202V239.452L332.709 238.514L331.771 237.577V233.827L333.646 231.952H339.271V233.827H333.646V237.577H337.396V239.452H333.646V243.202H339.271V245.077H333.646ZM340.678 245.077V243.202L346.303 243.202V239.452L342.553 239.452L340.678 237.577V233.827L342.553 231.952L348.178 231.952V233.827L342.553 233.827V237.577L346.303 237.577L348.178 239.452V243.202L346.303 245.077L340.678 245.077ZM351.459 245.077L349.584 243.202V239.452L350.521 238.514L349.584 237.577V233.827L351.459 231.952H357.084V233.827H351.459V237.577H355.209V239.452H351.459V243.202H357.084V245.077H351.459Z" fill="black"/>
<path d="M28.3467 369.577L28.3467 365.827H24.5967L24.5967 369.577H28.3467ZM22.7217 377.077L22.7217 363.952H28.3467L30.2217 365.827L30.2217 369.577L28.3467 371.452H24.5967L24.5967 377.077H22.7217ZM37.2529 369.577V365.827H33.5029V369.577H37.2529ZM31.6279 377.077L31.6279 365.827L33.5029 363.952H37.2529L39.1279 365.827L39.1279 377.077H37.2529L37.2529 371.452H33.5029L33.5029 377.077H31.6279ZM42.4092 377.077L40.5342 375.202L40.5342 371.452L41.4717 370.514L40.5342 369.577V365.827L42.4092 363.952H48.0342L48.0342 365.827H42.4092V369.577H46.1592V371.452H42.4092L42.4092 375.202H48.0342V377.077H42.4092ZM49.4404 377.077V375.202H55.0654L55.0654 371.452H51.3154L49.4404 369.577V365.827L51.3154 363.952H56.9404V365.827H51.3154V369.577H55.0654L56.9404 371.452L56.9404 375.202L55.0654 377.077H49.4404ZM60.2217 377.077L58.3467 375.202L58.3467 371.452L59.2842 370.514L58.3467 369.577L58.3467 365.827L60.2217 363.952H65.8467V365.827H60.2217L60.2217 369.577H63.9717L63.9717 371.452H60.2217L60.2217 375.202H65.8467V377.077H60.2217ZM22.7217 397.077L22.7217 395.202H25.5342L25.5342 385.827H22.7217V383.952H30.2217V385.827H27.4092L27.4092 395.202H30.2217L30.2217 397.077H22.7217ZM34.4404 397.077L34.4404 385.827H31.6279V383.952H39.1279V385.827H36.3154L36.3154 397.077H34.4404ZM46.1592 389.577L46.1592 385.827H42.4092L42.4092 389.577H46.1592ZM40.5342 397.077L40.5342 385.827L42.4092 383.952H46.1592L48.0342 385.827L48.0342 397.077H46.1592L46.1592 391.452H42.4092L42.4092 397.077L40.5342 397.077ZM51.3154 397.077L49.4404 395.202L49.4404 383.952H51.3154L51.3154 395.202H56.9404L56.9404 397.077H51.3154ZM58.3467 397.077L58.3467 395.202H61.1592L61.1592 385.827H58.3467V383.952H65.8467V385.827H63.0342L63.0342 395.202H65.8467V397.077H58.3467ZM72.8779 389.577L72.8779 385.827L69.1279 385.827L69.1279 389.577L72.8779 389.577ZM67.2529 397.077L67.2529 385.827L69.1279 383.952L72.8779 383.952L74.7529 385.827L74.7529 397.077H72.8779V391.452L69.1279 391.452V397.077H67.2529Z" fill="black"/>
<path d="M25.0938 101.077L23.2188 99.2017L23.2188 89.8267L25.0938 87.9517L30.7188 87.9517L30.7188 89.8267L25.0938 89.8267L25.0938 99.2017L28.8438 99.2017L28.8438 95.4517L26.9688 95.4517L26.9688 93.5767L30.7188 93.5767L30.7188 99.2017L28.8438 101.077L25.0938 101.077ZM34 101.077L32.125 99.2017L32.125 95.4517L33.0625 94.5142L32.125 93.5767L32.125 89.8267L34 87.9517L39.625 87.9517V89.8267L34 89.8267L34 93.5767L37.75 93.5767L37.75 95.4517L34 95.4517L34 99.2017L39.625 99.2017L39.625 101.077L34 101.077ZM41.0313 101.077L41.0312 89.8267L42.9062 87.9517L44.7812 87.9517L46.6562 89.8267L46.6563 99.2017H48.5313L48.5312 87.9517H50.4062L50.4063 99.2017L48.5313 101.077H46.6563L44.7813 99.2017L44.7812 89.8267L42.9062 89.8267L42.9063 101.077H41.0313ZM53.6875 101.077L51.8125 99.2017V95.4517L52.75 94.5142L51.8125 93.5767L51.8125 89.8267L53.6875 87.9517H59.3125V89.8267H53.6875L53.6875 93.5767H57.4375L57.4375 95.4517H53.6875V99.2017H59.3125V101.077H53.6875ZM66.3438 93.5767V89.8267H62.5938L62.5938 93.5767H66.3438ZM60.7188 101.077L60.7188 87.9517H66.3438L68.2188 89.8267V93.5767L67.2813 94.5142L68.2188 95.4517L68.2188 101.077H66.3438L66.3438 95.4517H62.5938L62.5938 101.077L60.7188 101.077ZM71.5 101.077L69.625 99.2017L69.625 95.4517L70.5625 94.5142L69.625 93.5767V89.8267L71.5 87.9517L77.125 87.9517V89.8267H71.5V93.5767H75.25L75.25 95.4517H71.5L71.5 99.2017H77.125V101.077H71.5ZM83.6875 101.077L83.6875 89.8267L85.5625 87.9517H87.4375L88.375 88.8892L89.3125 87.9517H91.1875L93.0625 89.8267L93.0625 101.077H91.1875L91.1875 89.8267H89.3125L89.3125 97.3267H87.4375L87.4375 89.8267H85.5625L85.5625 101.077L83.6875 101.077ZM96.3438 101.077L94.4688 99.2017L94.4688 87.9517H96.3438L96.3438 99.2017H100.094L100.094 87.9517L101.969 87.9517L101.969 99.2017L100.094 101.077H96.3438ZM103.375 101.077L103.375 99.2017H109V95.4517H105.25L103.375 93.5767L103.375 89.8267L105.25 87.9517L110.875 87.9517V89.8267L105.25 89.8267L105.25 93.5767H109L110.875 95.4517V99.2017L109 101.077H103.375ZM112.281 101.077L112.281 99.2017H115.094L115.094 89.8267H112.281V87.9517L119.781 87.9517V89.8267L116.969 89.8267L116.969 99.2017L119.781 99.2017L119.781 101.077L112.281 101.077ZM123.063 101.077L121.188 99.2017L121.188 89.8267L123.062 87.9517L128.688 87.9517V89.8267L123.062 89.8267L123.063 99.2017L128.688 99.2017L128.688 101.077L123.063 101.077ZM135.719 93.5767V89.8267L131.969 89.8267V93.5767L135.719 93.5767ZM130.094 101.077L130.094 89.8267L131.969 87.9517L135.719 87.9517L137.594 89.8267L137.594 101.077H135.719L135.719 95.4517L131.969 95.4517L131.969 101.077H130.094ZM140.875 101.077L139 99.2017V87.9517H140.875V99.2017L146.5 99.2017L146.5 101.077L140.875 101.077ZM149.781 101.077L147.906 99.2017V95.4517L148.844 94.5142L147.906 93.5767V89.8267L149.781 87.9517L155.406 87.9517V89.8267L149.781 89.8267V93.5767L153.531 93.5767V95.4517L149.781 95.4517V99.2017L155.406 99.2017V101.077L149.781 101.077Z" fill="black"/>
<path d="M259.82 370.461L259.807 366.711L256.057 366.724L256.07 370.474L259.82 370.461ZM254.221 377.981L254.182 366.731L256.051 364.849L259.801 364.836L261.682 366.705L261.721 377.955L259.846 377.961L259.827 372.336L256.077 372.349L256.096 377.974L254.221 377.981ZM263.128 377.95L263.088 366.7L264.957 364.818L266.832 364.812L268.713 366.68L268.746 376.055L270.621 376.049L270.582 364.799L272.457 364.792L272.496 376.042L270.628 377.924L268.753 377.93L266.871 376.062L266.838 366.687L264.963 366.693L265.003 377.943L263.128 377.95ZM273.909 377.912L273.87 366.662L275.738 364.781L277.613 364.774L279.495 366.643L279.527 376.018L281.402 376.011L281.363 364.761L283.238 364.754L283.277 376.004L281.409 377.886L279.534 377.892L277.652 376.024L277.62 366.649L275.745 366.656L275.784 377.906L273.909 377.912ZM284.69 377.874L284.683 376L287.496 375.99L287.463 366.615L284.651 366.625L284.644 364.75L292.144 364.723L292.151 366.598L289.338 366.608L289.371 375.983L292.183 375.973L292.19 377.848L284.69 377.874ZM254.291 397.981L254.285 396.106L257.097 396.096L257.068 387.658L256.134 388.599L254.259 388.606L257.995 384.843L258.933 384.839L258.972 396.089L261.785 396.08L261.791 397.955L254.291 397.981ZM268.796 390.43L268.783 386.68L265.033 386.693L265.046 390.443L268.796 390.43ZM263.197 397.95L263.191 396.075L268.816 396.055L268.803 392.305L265.053 392.318L263.171 390.45L263.158 386.7L265.027 384.818L268.777 384.805L270.658 386.674L270.691 396.048L268.822 397.93L263.197 397.95ZM272.11 399.794L272.091 394.169L273.959 392.287L273.946 388.537L275.814 386.656L275.801 382.906L277.676 382.899L277.696 388.524L275.827 390.406L275.841 394.155L273.972 396.037L273.985 399.787L272.11 399.794ZM279.135 397.894L279.122 394.144L284.727 388.499L284.721 386.624L280.971 386.638L280.977 388.513L279.102 388.519L279.096 386.644L280.964 384.763L284.714 384.749L286.596 386.618L286.602 388.493L280.997 394.137L281.003 396.012L286.628 395.993L286.635 397.868L279.135 397.894ZM293.659 395.968L293.64 390.343L289.903 394.106L289.91 395.981L293.659 395.968ZM289.896 392.231L293.633 388.468L293.627 386.593L289.877 386.606L289.896 392.231ZM289.916 397.856L288.035 395.988L288.002 386.613L289.87 384.731L293.62 384.718L295.502 386.587L295.534 395.962L293.666 397.843L289.916 397.856ZM296.954 399.707L296.934 394.082L298.803 392.2L298.79 388.45L300.658 386.569L300.645 382.819L302.52 382.812L302.539 388.437L300.671 390.319L300.684 394.069L298.816 395.95L298.829 399.7L296.954 399.707ZM303.978 397.807L303.965 394.057L309.571 388.413L309.564 386.538L305.814 386.551L305.821 388.426L303.946 388.432L303.939 386.557L305.808 384.676L309.558 384.663L311.439 386.531L311.446 388.406L305.84 394.051L305.847 395.926L311.472 395.906L311.478 397.781L303.978 397.807ZM312.885 397.776L312.878 395.901L315.691 395.891L315.661 387.454L314.727 388.395L312.852 388.401L316.589 384.638L317.526 384.635L317.566 395.885L320.378 395.875L320.385 397.75L312.885 397.776Z" fill="black"/>
<path fill-rule="evenodd" clip-rule="evenodd" d="M384.837 54.2149H0.571287L0.571289 15.705L0.725567 15.8589L16.3865 0.233687L16.2286 0.0761719L369.49 0.076186L369.333 0.233489L384.837 15.7025V54.2149Z" fill="#1D4200"/>
<path d="M19.7441 36.7412L17.8691 34.8662L17.8691 31.1162L18.8066 30.1787L17.8691 29.2412L17.8691 25.4912L19.7441 23.6162L25.3691 23.6162L25.3691 25.4912L19.7441 25.4912L19.7441 29.2412L23.4941 29.2412L23.4941 31.1162L19.7441 31.1162L19.7441 34.8662L25.3691 34.8662L25.3691 36.7412L19.7441 36.7412ZM26.7754 36.7412L26.7754 25.4912L28.6504 23.6162L30.5254 23.6162L32.4004 25.4912L32.4004 34.8662H34.2754L34.2754 23.6162L36.1504 23.6162L36.1504 34.8662L34.2754 36.7412H32.4004L30.5254 34.8662L30.5254 25.4912L28.6504 25.4912L28.6504 36.7412H26.7754ZM40.3691 36.7412L40.3691 25.4912L37.5566 25.4912L37.5566 23.6162L45.0566 23.6162L45.0566 25.4912L42.2441 25.4912L42.2441 36.7412H40.3691ZM48.3379 36.7412L46.4629 34.8662L46.4629 31.1162L47.4004 30.1787L46.4629 29.2412V25.4912L48.3379 23.6162L53.9629 23.6162L53.9629 25.4912L48.3379 25.4912V29.2412L52.0879 29.2412V31.1162L48.3379 31.1162L48.3379 34.8662H53.9629V36.7412H48.3379ZM60.9941 29.2412L60.9941 25.4912L57.2441 25.4912L57.2441 29.2412L60.9941 29.2412ZM55.3691 36.7412L55.3691 23.6162L60.9941 23.6162L62.8691 25.4912L62.8691 29.2412L61.9316 30.1787L62.8691 31.1162L62.8691 36.7412L60.9941 36.7412L60.9941 31.1162L57.2441 31.1162L57.2441 36.7412L55.3691 36.7412ZM64.2754 36.7412V34.8662L67.0879 34.8662L67.0879 25.4912L64.2754 25.4912L64.2754 23.6162L71.7754 23.6162L71.7754 25.4912L68.9629 25.4912L68.9629 34.8662L71.7754 34.8662V36.7412L64.2754 36.7412ZM73.1816 36.7412L73.1816 25.4912L75.0566 23.6162H76.9316L78.8066 25.4912L78.8066 34.8662L80.6816 34.8662L80.6816 23.6162L82.5566 23.6162L82.5566 34.8662L80.6816 36.7412L78.8066 36.7412L76.9316 34.8662L76.9316 25.4912H75.0566L75.0566 36.7412H73.1816ZM85.8379 36.7412L83.9629 34.8662L83.9629 25.4912L85.8379 23.6162L91.4629 23.6162V25.4912L85.8379 25.4912L85.8379 34.8662L89.5879 34.8662L89.5879 31.1162H87.7129V29.2412L91.4629 29.2412L91.4629 34.8662L89.5879 36.7412L85.8379 36.7412ZM103.65 29.2412V25.4912L99.9004 25.4912V29.2412L103.65 29.2412ZM98.0254 36.7412L98.0254 23.6162L103.65 23.6162L105.525 25.4912V29.2412L103.65 31.1162L99.9004 31.1162L99.9004 36.7412H98.0254ZM112.557 29.2412V25.4912L108.807 25.4912V29.2412L112.557 29.2412ZM106.932 36.7412L106.932 25.4912L108.807 23.6162L112.557 23.6162L114.432 25.4912L114.432 36.7412L112.557 36.7412L112.557 31.1162L108.807 31.1162L108.807 36.7412H106.932ZM115.838 36.7412V34.8662L121.463 34.8662L121.463 31.1162L117.713 31.1162L115.838 29.2412V25.4912L117.713 23.6162L123.338 23.6162V25.4912L117.713 25.4912V29.2412L121.463 29.2412L123.338 31.1162L123.338 34.8662L121.463 36.7412L115.838 36.7412ZM124.744 36.7412V34.8662L130.369 34.8662L130.369 31.1162L126.619 31.1162L124.744 29.2412V25.4912L126.619 23.6162L132.244 23.6162V25.4912L126.619 25.4912V29.2412L130.369 29.2412L132.244 31.1162L132.244 34.8662L130.369 36.7412L124.744 36.7412ZM138.807 38.6162V32.9912L140.682 31.1162V27.3662L142.557 25.4912V21.7412L144.432 21.7412V27.3662L142.557 29.2412L142.557 32.9912L140.682 34.8662V38.6162L138.807 38.6162ZM152.869 36.7412L150.994 34.8662L150.994 25.4912L152.869 23.6162L158.494 23.6162V25.4912L152.869 25.4912L152.869 34.8662L158.494 34.8662V36.7412L152.869 36.7412ZM165.525 34.8662L165.525 25.4912L161.775 25.4912L161.775 34.8662L165.525 34.8662ZM161.775 36.7412L159.9 34.8662L159.9 25.4912L161.775 23.6162L165.525 23.6162L167.4 25.4912L167.4 34.8662L165.525 36.7412L161.775 36.7412ZM168.807 36.7412L168.807 25.4912L170.682 23.6162L172.557 23.6162L174.432 25.4912L174.432 34.8662H176.307L176.307 23.6162L178.182 23.6162L178.182 34.8662L176.307 36.7412H174.432L172.557 34.8662L172.557 25.4912L170.682 25.4912L170.682 36.7412L168.807 36.7412ZM181.463 36.7412L179.588 34.8662L179.588 25.4912L181.463 23.6162L187.088 23.6162V25.4912L181.463 25.4912L181.463 34.8662L187.088 34.8662V36.7412L181.463 36.7412ZM190.369 36.7412L188.494 34.8662V31.1162L189.432 30.1787L188.494 29.2412L188.494 25.4912L190.369 23.6162L195.994 23.6162V25.4912L190.369 25.4912L190.369 29.2412L194.119 29.2412V31.1162L190.369 31.1162V34.8662L195.994 34.8662V36.7412L190.369 36.7412ZM203.025 29.2412L203.025 25.4912L199.275 25.4912L199.275 29.2412L203.025 29.2412ZM197.4 36.7412L197.4 23.6162L203.025 23.6162L204.9 25.4912L204.9 29.2412L203.963 30.1787L204.9 31.1162V36.7412L203.025 36.7412V31.1162L199.275 31.1162V36.7412H197.4ZM209.119 36.7412L209.119 25.4912L206.307 25.4912V23.6162L213.807 23.6162V25.4912L210.994 25.4912L210.994 36.7412H209.119ZM215.213 36.7412V34.8662H218.025L218.025 25.4912L215.213 25.4912V23.6162L222.713 23.6162V25.4912L219.9 25.4912L219.9 34.8662L222.713 34.8662V36.7412L215.213 36.7412ZM229.275 38.6162V32.9912L231.15 31.1162V27.3662L233.025 25.4912V21.7412L234.9 21.7412L234.9 27.3662L233.025 29.2412V32.9912L231.15 34.8662V38.6162L229.275 38.6162ZM243.338 36.7412L241.463 34.8662L241.463 25.4912L243.338 23.6162L248.963 23.6162V25.4912L243.338 25.4912L243.338 34.8662L248.963 34.8662V36.7412L243.338 36.7412ZM250.369 36.7412V34.8662L253.182 34.8662L253.182 26.4287L252.244 27.3662L250.369 27.3662L254.119 23.6162H255.057L255.057 34.8662H257.869V36.7412L250.369 36.7412ZM264.9 29.2412V25.4912L261.15 25.4912V29.2412L264.9 29.2412ZM259.275 36.7412V34.8662L264.9 34.8662V31.1162L261.15 31.1162L259.275 29.2412V25.4912L261.15 23.6162L264.9 23.6162L266.775 25.4912V34.8662L264.9 36.7412L259.275 36.7412ZM273.338 38.6162V32.9912L275.213 31.1162V27.3662L277.088 25.4912V21.7412L278.963 21.7412V27.3662L277.088 29.2412V32.9912L275.213 34.8662L275.213 38.6162H273.338ZM285.525 36.7412L285.525 25.4912L291.15 25.4912L293.025 27.3662L293.025 36.7412H291.15L291.15 27.3662L287.4 27.3662L287.4 36.7412L285.525 36.7412ZM301.463 36.7412L299.588 34.8662V32.9912H301.463V34.8662L305.213 34.8662V31.1162H303.338V29.2412H305.213V25.4912L301.463 25.4912V27.3662L299.588 27.3662V25.4912L301.463 23.6162L305.213 23.6162L307.088 25.4912V29.2412L306.15 30.1787L307.088 31.1162V34.8662L305.213 36.7412L301.463 36.7412ZM310.369 36.7412L308.494 34.8662V32.9912H310.369V34.8662L314.119 34.8662V31.1162L312.244 31.1162V29.2412L314.119 29.2412V25.4912L310.369 25.4912V27.3662L308.494 27.3662V25.4912L310.369 23.6162L314.119 23.6162L315.994 25.4912V29.2412L315.057 30.1787L315.994 31.1162V34.8662L314.119 36.7412L310.369 36.7412ZM323.025 34.8662V29.2412L319.275 32.9912V34.8662L323.025 34.8662ZM319.275 31.1162L323.025 27.3662V25.4912L319.275 25.4912V31.1162ZM319.275 36.7412L317.4 34.8662V25.4912L319.275 23.6162L323.025 23.6162L324.9 25.4912V34.8662L323.025 36.7412L319.275 36.7412ZM326.307 36.7412L326.307 34.8662L329.119 34.8662V26.4287L328.182 27.3662L326.307 27.3662L330.057 23.6162H330.994V34.8662H333.807L333.807 36.7412L326.307 36.7412ZM335.213 36.7412L335.213 32.9912L340.838 27.3662V25.4912L337.088 25.4912V27.3662L335.213 27.3662V25.4912L337.088 23.6162L340.838 23.6162L342.713 25.4912V27.3662L337.088 32.9912V34.8662L342.713 34.8662L342.713 36.7412L335.213 36.7412ZM349.744 29.2412V25.4912L345.994 25.4912V29.2412L349.744 29.2412ZM344.119 36.7412L344.119 34.8662L349.744 34.8662V31.1162L345.994 31.1162L344.119 29.2412V25.4912L345.994 23.6162L349.744 23.6162L351.619 25.4912V34.8662L349.744 36.7412L344.119 36.7412Z" fill="#ADFF00"/>
<rect x="333.586" y="411.625" width="4.56456" height="12.6052" transform="rotate(90 333.586 411.625)" fill="black" fill-opacity="0.05"/>
<rect x="281.907" y="411.625" width="4.56456" height="12.6052" transform="rotate(90 281.907 411.625)" fill="black" fill-opacity="0.05"/>
<rect x="230.229" y="411.625" width="4.56456" height="12.6052" transform="rotate(90 230.229 411.625)" fill="black" fill-opacity="0.05"/>
<rect x="178.549" y="411.625" width="4.56456" height="12.6052" transform="rotate(90 178.549 411.625)" fill="black" fill-opacity="0.05"/>
<rect x="126.871" y="411.625" width="4.56456" height="12.6052" transform="rotate(90 126.871 411.625)" fill="black" fill-opacity="0.05"/>
<rect x="75.1904" y="411.625" width="4.56456" height="12.6052" transform="rotate(90 75.1904 411.625)" fill="black" fill-opacity="0.05"/>
<path d="M23.5127 411.625L23.5127 416.189L13.1213 416.189L12.1221 415.182L10.9075 413.974L10.9075 411.625L23.5127 411.625Z" fill="black" fill-opacity="0.05"/>
<path d="M372.662 416.189L372.662 416.72L371.686 417.691L372.662 418.828L372.662 420.754L360.057 420.754L360.057 416.189L372.662 416.189Z" fill="black" fill-opacity="0.05"/>
<rect x="320.982" y="416.189" width="4.56456" height="12.6052" transform="rotate(90 320.982 416.189)" fill="black" fill-opacity="0.05"/>
<rect x="269.304" y="416.189" width="4.56456" height="12.6052" transform="rotate(90 269.304 416.189)" fill="black" fill-opacity="0.05"/>
<rect x="217.625" y="416.189" width="4.56456" height="12.6052" transform="rotate(90 217.625 416.189)" fill="black" fill-opacity="0.05"/>
<rect x="165.944" y="416.189" width="4.56456" height="12.6052" transform="rotate(90 165.944 416.189)" fill="black" fill-opacity="0.05"/>
<rect x="114.267" y="416.189" width="4.56456" height="12.6052" transform="rotate(90 114.267 416.189)" fill="black" fill-opacity="0.05"/>
<rect x="62.5879" y="416.189" width="4.56456" height="12.6052" transform="rotate(90 62.5879 416.189)" fill="black" fill-opacity="0.05"/>
<rect x="359.76" y="411.625" width="4.56456" height="12.6052" transform="rotate(90 359.76 411.625)" fill="black" fill-opacity="0.05"/>
<rect x="308.081" y="411.625" width="4.56456" height="12.6052" transform="rotate(90 308.081 411.625)" fill="black" fill-opacity="0.05"/>
<rect x="256.4" y="411.625" width="4.56456" height="12.6052" transform="rotate(90 256.4 411.625)" fill="black" fill-opacity="0.05"/>
<rect x="204.722" y="411.625" width="4.56456" height="12.6052" transform="rotate(90 204.722 411.625)" fill="black" fill-opacity="0.05"/>
<rect x="153.045" y="411.625" width="4.56456" height="12.6052" transform="rotate(90 153.045 411.625)" fill="black" fill-opacity="0.05"/>
<rect x="101.364" y="411.625" width="4.56456" height="12.6052" transform="rotate(90 101.364 411.625)" fill="black" fill-opacity="0.05"/>
<rect x="49.6846" y="411.625" width="4.56456" height="12.6052" transform="rotate(90 49.6846 411.625)" fill="black" fill-opacity="0.05"/>
<rect x="346.195" y="416.189" width="4.56456" height="12.6052" transform="rotate(90 346.195 416.189)" fill="black" fill-opacity="0.05"/>
<rect x="294.517" y="416.189" width="4.56456" height="12.6052" transform="rotate(90 294.517 416.189)" fill="black" fill-opacity="0.05"/>
<rect x="242.836" y="416.189" width="4.56456" height="12.6052" transform="rotate(90 242.836 416.189)" fill="black" fill-opacity="0.05"/>
<rect x="191.157" y="416.189" width="4.56456" height="12.6052" transform="rotate(90 191.157 416.189)" fill="black" fill-opacity="0.05"/>
<rect x="139.476" y="416.189" width="4.56456" height="12.6052" transform="rotate(90 139.476 416.189)" fill="black" fill-opacity="0.05"/>
<rect x="87.7949" y="416.189" width="4.56456" height="12.6052" transform="rotate(90 87.7949 416.189)" fill="black" fill-opacity="0.05"/>
<rect x="36.1172" y="416.189" width="4.56456" height="12.6052" transform="rotate(90 36.1172 416.189)" fill="black" fill-opacity="0.05"/>
<path d="M183.689 623.936V620.811L188.377 616.123V614.561H185.252V616.123H183.689V614.561L185.252 612.998H188.377L189.939 614.561V616.123L185.252 620.811V622.373H189.939V623.936H183.689ZM195.799 622.373L195.799 617.686L192.674 620.811V622.373H195.799ZM192.674 619.248L195.799 616.123V614.561H192.674V619.248ZM192.674 623.936L191.111 622.373L191.111 614.561L192.674 612.998H195.799L197.361 614.561L197.361 622.373L195.799 623.936H192.674ZM198.533 623.936V620.811L203.221 616.123V614.561H200.096V616.123H198.533V614.561L200.096 612.998H203.221L204.783 614.561V616.123L200.096 620.811V622.373H204.783V623.936H198.533ZM210.643 622.373L210.643 617.686L207.518 620.811V622.373H210.643ZM207.518 619.248L210.643 616.123V614.561H207.518V619.248ZM207.518 623.936L205.955 622.373L205.955 614.561L207.518 612.998H210.643L212.205 614.561L212.205 622.373L210.643 623.936H207.518Z" fill="black"/>
<path d="M153.793 539.644H150.02V603.198H153.793V539.644Z" fill="black"/>
<path d="M162.298 543.996H158.524V603.198H162.298V543.996Z" fill="black"/>
<path d="M170.803 602.167H167.029V603.198H170.803V602.167Z" fill="black"/>
<path d="M196.317 598.847H192.543V603.198H196.317V598.847Z" fill="black"/>
<path d="M204.822 553.271H201.048V603.198H204.822V553.271Z" fill="black"/>
<path d="M213.327 532.888H209.553V603.198H213.327V532.888Z" fill="black"/>
<path d="M221.831 554.702H218.058V603.198H221.831V554.702Z" fill="black"/>
<path d="M153.809 478.035H150.02V603.236H153.809V478.035Z" fill="black" fill-opacity="0.05"/>
<path d="M162.313 478.035H158.524V603.236H162.313V478.035Z" fill="black" fill-opacity="0.05"/>
<path d="M179.323 478.035H175.534V603.236H179.323V478.035Z" fill="black" fill-opacity="0.05"/>
<path d="M187.827 478.035H184.038V603.236H187.827V478.035Z" fill="black" fill-opacity="0.05"/>
<path d="M238.856 478.035H235.067V603.236H238.856V478.035Z" fill="black" fill-opacity="0.05"/>
<path d="M247.36 478.035H243.571V603.236H247.36V478.035Z" fill="black" fill-opacity="0.05"/>
<path d="M170.818 478.035H167.029V603.236H170.818V478.035Z" fill="black" fill-opacity="0.05"/>
<path d="M196.332 478.035H192.543V603.236H196.332V478.035Z" fill="black" fill-opacity="0.05"/>
<path d="M204.837 478.035H201.048V603.236H204.837V478.035Z" fill="black" fill-opacity="0.05"/>
<path d="M213.342 478.035H209.553V603.236H213.342V478.035Z" fill="black" fill-opacity="0.05"/>
<path d="M221.847 478.035H218.058V603.236H221.847V478.035Z" fill="black" fill-opacity="0.05"/>
<path d="M230.352 478.035H226.562V603.236H230.352V478.035Z" fill="black" fill-opacity="0.05"/>
<path d="M230.336 580.64H226.562V603.198H230.336V580.64Z" fill="black"/>
<path d="M41.3516 478.035H37.5625V603.156H41.3516V478.035Z" fill="black" fill-opacity="0.05"/>
<path d="M49.8398 478.035H46.0508V603.156H49.8398V478.035Z" fill="black" fill-opacity="0.05"/>
<path d="M58.3281 478.035H54.5391V603.156H58.3281V478.035Z" fill="black" fill-opacity="0.05"/>
<path d="M66.8154 478.035H63.0264V603.156H66.8154V478.035Z" fill="black" fill-opacity="0.05"/>
<path d="M75.3037 478.035H71.5146V603.156H75.3037V478.035Z" fill="black" fill-opacity="0.05"/>
<path d="M83.793 478.035H80.0039V603.156H83.793V478.035Z" fill="black" fill-opacity="0.05"/>
<path d="M100.77 478.035H96.9805V603.156H100.77V478.035Z" fill="black" fill-opacity="0.05"/>
<path d="M92.2812 478.035H88.4922V603.156H92.2812V478.035Z" fill="black" fill-opacity="0.05"/>
<path d="M109.258 478.035H105.469V603.156H109.258V478.035Z" fill="black" fill-opacity="0.05"/>
<path d="M117.745 478.035H113.956V603.156H117.745V478.035Z" fill="black" fill-opacity="0.05"/>
<path d="M126.233 478.035H122.444V603.156H126.233V478.035Z" fill="black" fill-opacity="0.05"/>
<path d="M134.722 478.035H130.933V603.156H134.722V478.035Z" fill="black" fill-opacity="0.05"/>
<path d="M71.2334 623.936L71.2334 620.811L75.9209 616.123L75.9209 614.561H72.7959L72.7959 616.123H71.2334L71.2334 614.561L72.7959 612.998H75.9209L77.4834 614.561L77.4834 616.123L72.7959 620.811V622.373H77.4834L77.4834 623.936H71.2334ZM83.3428 622.373V617.686L80.2178 620.811V622.373H83.3428ZM80.2178 619.248L83.3428 616.123L83.3428 614.561H80.2178L80.2178 619.248ZM80.2178 623.936L78.6553 622.373L78.6553 614.561L80.2178 612.998H83.3428L84.9053 614.561L84.9053 622.373L83.3428 623.936H80.2178ZM86.0771 623.936L86.0771 622.373H88.4209L88.4209 615.342L87.6396 616.123H86.0771L89.2021 612.998H89.9834L89.9834 622.373H92.3271V623.936H86.0771ZM98.1865 617.686L98.1865 614.561H95.0615L95.0615 617.686H98.1865ZM93.499 623.936V622.373H98.1865L98.1865 619.248H95.0615L93.499 617.686L93.499 614.561L95.0615 612.998H98.1865L99.749 614.561L99.749 622.373L98.1865 623.936H93.499Z" fill="black"/>
<path d="M41.3516 603.236L37.5625 603.236L37.5625 545.559L41.3515 545.559L41.3516 603.236Z" fill="black"/>
<path d="M49.8564 603.236L46.0674 603.236L46.0674 532.227L49.8564 532.227L49.8564 603.236Z" fill="black"/>
<path d="M58.3945 603.236L54.6055 603.236L54.6055 490.171L58.3945 490.171L58.3945 603.236Z" fill="black"/>
<path d="M66.8662 603.236L63.0771 603.236L63.0771 516.664L66.8662 516.664L66.8662 603.236Z" fill="black"/>
<path d="M75.3701 603.236L71.5811 603.236L71.581 517.865L75.3701 517.865L75.3701 603.236Z" fill="black"/>
<path d="M83.875 603.236L80.0859 603.236L80.0859 509.969L83.875 509.969L83.875 603.236Z" fill="black"/>
<path d="M92.3476 603.236L88.5586 603.236L88.5586 478.035L92.3476 478.035L92.3476 603.236Z" fill="black"/>
<path d="M100.884 603.236L97.0947 603.236L97.0947 500.356L100.884 500.356L100.884 603.236Z" fill="black"/>
<path d="M109.389 603.236L105.6 603.236L105.6 545.445L109.389 545.445L109.389 603.236Z" fill="black"/>
<path d="M117.894 603.236L114.104 603.236L114.104 532.763L117.894 532.763L117.894 603.236Z" fill="black"/>
<path d="M126.398 603.236L122.609 603.236L122.609 513.86L126.398 513.86L126.398 603.236Z" fill="black"/>
<path d="M134.903 603.236L131.114 603.236L131.114 513.001L134.903 513.001L134.903 603.236Z" fill="black"/>
<path d="M296.266 623.936V620.811L300.953 616.123V614.561H297.828V616.123H296.266V614.561L297.828 612.998H300.953L302.516 614.561V616.123L297.828 620.811V622.373H302.516V623.936H296.266ZM308.375 622.373V617.686L305.25 620.811V622.373H308.375ZM305.25 619.248L308.375 616.123V614.561H305.25V619.248ZM305.25 623.936L303.688 622.373V614.561L305.25 612.998H308.375L309.938 614.561V622.373L308.375 623.936H305.25ZM311.109 623.936V620.811L315.797 616.123V614.561H312.672V616.123H311.109V614.561L312.672 612.998H315.797L317.359 614.561V616.123L312.672 620.811V622.373H317.359V623.936H311.109ZM318.531 623.936V622.373H320.875V615.342L320.094 616.123H318.531L321.656 612.998H322.438V622.373H324.781V623.936H318.531Z" fill="black"/>
<path d="M266.266 478.035H262.477V603.236H266.266V478.035Z" fill="black" fill-opacity="0.05"/>
<path d="M275.006 478.035H271.217V603.236H275.006V478.035Z" fill="black" fill-opacity="0.05"/>
<path d="M283.511 478.035H279.722V603.236H283.511V478.035Z" fill="black" fill-opacity="0.05"/>
<path d="M292.016 478.035H288.227V603.162H292.016V478.035Z" fill="black" fill-opacity="0.05"/>
<path d="M292 602.666H288.227V603.124H292V602.666Z" fill="black"/>
<path d="M300.52 478.035H296.731V603.162H300.52V478.035Z" fill="black" fill-opacity="0.05"/>
<path d="M300.505 595.513H296.731V603.124H300.505V595.513Z" fill="black"/>
<path d="M309.025 478.035H305.236V603.162H309.025V478.035Z" fill="black" fill-opacity="0.05"/>
<path d="M309.01 561.695H305.236V603.124H309.01V561.695Z" fill="black"/>
<path d="M317.531 478.035H313.742V603.162H317.531V478.035Z" fill="black" fill-opacity="0.05"/>
<path d="M317.516 487.879H313.742V603.124H317.516V487.879Z" fill="black"/>
<path d="M326.035 478.035H322.246V603.162H326.035V478.035Z" fill="black" fill-opacity="0.05"/>
<path d="M326.02 507.392H322.246V603.123H326.02V507.392Z" fill="black"/>
<path d="M334.54 478.035H330.751V603.162H334.54V478.035Z" fill="black" fill-opacity="0.05"/>
<path d="M334.525 537.719H330.751V603.124H334.525V537.719Z" fill="black"/>
<path d="M343.045 478.035H339.256V603.162H343.045V478.035Z" fill="black" fill-opacity="0.05"/>
<path d="M343.03 560.837H339.256V603.124H343.03V560.837Z" fill="black"/>
<path d="M351.551 478.035H347.762V603.162H351.551V478.035Z" fill="black" fill-opacity="0.05"/>
<path d="M351.536 548.935H347.762V603.124H351.536V548.935Z" fill="black"/>
<path d="M360.056 478.035H356.267V603.162H360.056V478.035Z" fill="black" fill-opacity="0.05"/>
<path d="M360.04 533.656H356.267V603.123H360.04V533.656Z" fill="black"/>
<path d="M11.8086 484.035V482.535L14.0586 480.285V479.535H12.5586V480.285H11.8086V479.535L12.5586 478.785H14.0586L14.8086 479.535V480.285L12.5586 482.535V483.285H14.8086V484.035H11.8086ZM17.6211 483.285V481.035L16.1211 482.535V483.285H17.6211ZM16.1211 481.785L17.6211 480.285V479.535H16.1211V481.785ZM16.1211 484.035L15.3711 483.285V479.535L16.1211 478.785H17.6211L18.3711 479.535V483.285L17.6211 484.035H16.1211ZM21.1836 483.285V481.035L19.6836 482.535V483.285H21.1836ZM19.6836 481.785L21.1836 480.285V479.535H19.6836V481.785ZM19.6836 484.035L18.9336 483.285V479.535L19.6836 478.785H21.1836L21.9336 479.535V483.285L21.1836 484.035H19.6836ZM24.7461 483.285V481.035L23.2461 482.535V483.285H24.7461ZM23.2461 481.785L24.7461 480.285V479.535H23.2461V481.785ZM23.2461 484.035L22.4961 483.285V479.535L23.2461 478.785H24.7461L25.4961 479.535V483.285L24.7461 484.035H23.2461Z" fill="black"/>
<path d="M24.8984 601.406V599.156L23.3984 600.656V601.406H24.8984ZM23.3984 599.906L24.8984 598.406V597.656H23.3984V599.906ZM23.3984 602.156L22.6484 601.406V597.656L23.3984 596.906H24.8984L25.6484 597.656V601.406L24.8984 602.156H23.3984Z" fill="black"/>
<path d="M11.9609 543.095V542.345H13.0859V538.97L12.7109 539.345H11.9609L13.4609 537.845H13.8359V542.345H14.9609V543.095H11.9609ZM17.7734 542.345V540.095L16.2734 541.595V542.345H17.7734ZM16.2734 540.845L17.7734 539.345V538.595H16.2734V540.845ZM16.2734 543.095L15.5234 542.345V538.595L16.2734 537.845H17.7734L18.5234 538.595V542.345L17.7734 543.095H16.2734ZM21.3359 542.345V540.095L19.8359 541.595V542.345H21.3359ZM19.8359 540.845L21.3359 539.345V538.595H19.8359V540.845ZM19.8359 543.095L19.0859 542.345V538.595L19.8359 537.845H21.3359L22.0859 538.595V542.345L21.3359 543.095H19.8359ZM24.8984 542.345V540.095L23.3984 541.595V542.345H24.8984ZM23.3984 540.845L24.8984 539.345V538.595H23.3984V540.845ZM23.3984 543.095L22.6484 542.345V538.595L23.3984 537.845H24.8984L25.6484 538.595V542.345L24.8984 543.095H23.3984Z" fill="black"/>
<path d="M15.5234 572.625V571.875H17.7734V570.375H15.5234V567.375H18.5234V568.125H16.2734V569.625H17.7734L18.5234 570.375V571.875L17.7734 572.625H15.5234ZM21.3359 571.875V569.625L19.8359 571.125V571.875H21.3359ZM19.8359 570.375L21.3359 568.875V568.125H19.8359V570.375ZM19.8359 572.625L19.0859 571.875V568.125L19.8359 567.375H21.3359L22.0859 568.125V571.875L21.3359 572.625H19.8359ZM24.8984 571.875V569.625L23.3984 571.125V571.875H24.8984ZM23.3984 570.375L24.8984 568.875V568.125H23.3984V570.375ZM23.3984 572.625L22.6484 571.875V568.125L23.3984 567.375H24.8984L25.6484 568.125V571.875L24.8984 572.625H23.3984Z" fill="black"/>
<path d="M11.9609 513.565V512.815H13.0859V509.44L12.7109 509.815H11.9609L13.4609 508.315H13.8359V512.815H14.9609V513.565H11.9609ZM15.5234 513.565V512.815H17.7734V511.315H15.5234V508.315H18.5234V509.065H16.2734V510.565H17.7734L18.5234 511.315V512.815L17.7734 513.565H15.5234ZM21.3359 512.815V510.565L19.8359 512.065V512.815H21.3359ZM19.8359 511.315L21.3359 509.815V509.065H19.8359V511.315ZM19.8359 513.565L19.0859 512.815V509.065L19.8359 508.315H21.3359L22.0859 509.065V512.815L21.3359 513.565H19.8359ZM24.8984 512.815V510.565L23.3984 512.065V512.815H24.8984ZM23.3984 511.315L24.8984 509.815V509.065H23.3984V511.315ZM23.3984 513.565L22.6484 512.815V509.065L23.3984 508.315H24.8984L25.6484 509.065V512.815L24.8984 513.565H23.3984Z" fill="black"/>
</svg>
