<svg width="294" height="493" viewBox="0 0 294 493" fill="none" xmlns="http://www.w3.org/2000/svg">
<path fill-rule="evenodd" clip-rule="evenodd" d="M12.3036 0.489868L281.417 0.48988L281.297 0.609843L293.111 12.4241V307.684L282.657 318.139L293.111 330.308V478.589L281.425 492.192H12.3071L0.496209 478.444L0.375977 478.584L0.375984 330.312L0.496209 330.452L11.0701 318.145L0.492385 307.567L0.376031 307.683L0.376045 12.4235L0.493149 12.5406L12.4237 0.610011L12.3036 0.489868Z" fill="#C852FF"/>
<path d="M26.2442 150.118L19.1133 142.987V135.856H26.2442V142.987H40.5061V107.332H33.3752V100.201H47.637V142.987L40.5061 150.118H26.2442ZM74.3781 121.594V107.332H60.1162V121.594H74.3781ZM52.9852 150.118V107.332L60.1162 100.201H74.3781L81.509 107.332V150.118H74.3781V128.725H60.1162V150.118H52.9852ZM86.8572 150.118V135.856L108.25 114.463V107.332H86.8572V100.201H115.381V114.463L93.9881 135.856V142.987H115.381V150.118H86.8572ZM120.729 150.118V135.856L142.122 114.463V107.332H120.729V100.201H149.253V114.463L127.86 135.856V142.987H149.253V150.118H120.729Z" fill="black"/>
<path d="M17.377 228.382L17.377 224.103H23.7948L23.7948 204.849L21.6555 206.989H17.377L25.9341 198.432H28.0734L28.0734 224.103H34.4912L34.4912 228.382L17.377 228.382ZM50.5358 224.103L50.5358 211.267L41.9787 219.824V224.103H50.5358ZM41.9787 215.546L50.5358 206.989L50.5358 202.71L41.9787 202.71L41.9787 215.546ZM41.9787 228.382L37.7001 224.103L37.7001 202.71L41.9787 198.432H50.5358L54.8144 202.71L54.8144 224.103L50.5358 228.382H41.9787ZM58.0233 228.382L58.0233 224.103L62.3019 224.103L62.3019 228.382L58.0233 228.382ZM78.3465 224.103L78.3465 211.267L69.7894 219.824V224.103L78.3465 224.103ZM69.7894 215.546L78.3465 206.989V202.71L69.7894 202.71L69.7894 215.546ZM69.7894 228.382L65.5108 224.103L65.5108 202.71L69.7894 198.432L78.3465 198.432L82.625 202.71L82.625 224.103L78.3465 228.382L69.7894 228.382ZM98.6697 211.267L98.6697 202.71L90.1125 211.267L98.6697 211.267ZM98.6697 228.382L98.6697 215.546L85.834 215.546V211.267L98.6697 198.432H102.948L102.948 228.382H98.6697ZM106.157 228.382L106.157 219.824L118.993 206.989V202.71L106.157 202.71L106.157 198.432L123.271 198.432L123.271 206.989L110.436 219.824L110.436 228.382L106.157 228.382Z" fill="black"/>
<path d="M21.0709 186.957L21.0709 178.4H18.9316L18.9316 176.973H24.6364L24.6364 178.4H22.4971L22.4971 186.957H21.0709ZM29.9846 185.531L29.9846 178.4L27.1322 178.4L27.1322 185.531L29.9846 185.531ZM27.1322 186.957L25.706 185.531L25.706 178.4L27.1322 176.973L29.9846 176.973L31.4108 178.4L31.4108 185.531L29.9846 186.957L27.1322 186.957ZM34.6197 186.957L34.6197 178.4H32.4804V176.973H38.1852V178.4H36.0459L36.0459 186.957H34.6197ZM43.5334 181.252L43.5334 178.4H40.681L40.681 181.252L43.5334 181.252ZM39.2548 186.957L39.2548 178.4L40.681 176.973H43.5334L44.9596 178.4L44.9596 186.957H43.5334V182.678L40.681 182.678V186.957H39.2548ZM47.4554 186.957L46.0292 185.531L46.0292 176.973H47.4554L47.4554 185.531H51.734V186.957H47.4554ZM54.2298 186.957L52.8036 185.531L52.8036 182.678L53.5167 181.965L52.8036 181.252L52.8036 178.4L54.2298 176.973H58.5084V178.4H54.2298L54.2298 181.252H57.0822V182.678H54.2298L54.2298 185.531H58.5084V186.957H54.2298ZM64.9262 186.957L63.5 185.531L63.5 182.678L64.2131 181.965L63.5 181.252L63.5 178.4L64.9262 176.973H69.2048V178.4H64.9262V181.252H67.7786V182.678H64.9262L64.9262 185.531H69.2048V186.957H64.9262ZM73.1268 186.957L70.2744 184.104L70.2744 176.973H71.7006L71.7006 184.104L73.1268 185.531L74.553 184.104L74.553 176.973H75.9792L75.9792 184.104L73.1268 186.957ZM78.475 186.957L77.0488 185.531L77.0488 182.678L77.7619 181.965L77.0488 181.252V178.4L78.475 176.973H82.7535V178.4H78.475V181.252H81.3274V182.678H78.475L78.475 185.531H82.7535V186.957H78.475ZM83.8232 186.957L83.8232 178.4L85.2494 176.973H86.6756L88.1018 178.4L88.1018 185.531H89.5279L89.5279 176.973H90.9541L90.9541 185.531L89.5279 186.957H88.1018L86.6756 185.531L86.6756 178.4H85.2494L85.2494 186.957H83.8232ZM94.1631 186.957L94.1631 178.4L92.0238 178.4V176.973L97.7285 176.973V178.4H95.5892L95.5892 186.957H94.1631ZM98.7982 186.957V185.531H100.937L100.937 178.4H98.7982V176.973H104.503V178.4H102.364L102.364 185.531H104.503V186.957H98.7982Z" fill="black"/>
<path d="M28.1158 347.765L28.1158 344.913H25.2634L25.2634 347.765H28.1158ZM23.8372 353.47L23.8372 344.913L25.2634 343.487H28.1158L29.5419 344.913L29.5419 353.47H28.1158L28.1158 349.192H25.2634L25.2634 353.47H23.8372ZM30.6116 353.47L30.6116 344.913L32.0378 343.487L33.464 343.487L34.8902 344.913L34.8902 352.044H36.3163L36.3163 343.487H37.7425L37.7425 352.044L36.3163 353.47H34.8902L33.464 352.044L33.464 344.913L32.0378 344.913L32.0378 353.47H30.6116ZM43.0907 352.044L43.0907 344.913H40.2384L40.2384 352.044H43.0907ZM38.8122 353.47L38.8122 343.487H43.0907L44.5169 344.913L44.5169 352.044L43.0907 353.47H38.8122ZM49.8651 347.765L49.8651 344.913H47.0128L47.0128 347.765H49.8651ZM45.5866 353.47L45.5866 344.913L47.0128 343.487H49.8651L51.2913 344.913L51.2913 353.47H49.8651L49.8651 349.192H47.0128V353.47H45.5866ZM52.361 353.47L52.361 344.913L53.7871 343.487H55.2133L55.9264 344.2L56.6395 343.487H58.0657L59.4919 344.913L59.4919 353.47H58.0657L58.0657 344.913H56.6395L56.6395 350.618H55.2133L55.2133 344.913H53.7871L53.7871 353.47H52.361ZM61.9877 353.47L60.5615 352.044L60.5615 349.192L61.2746 348.479L60.5615 347.765L60.5615 344.913L61.9877 343.487L66.2663 343.487V344.913L61.9877 344.913L61.9877 347.765H64.8401V349.192H61.9877L61.9877 352.044L66.2663 352.044V353.47L61.9877 353.47ZM67.3359 353.47L67.3359 344.913L68.7621 343.487H70.1883L71.6145 344.913L71.6145 352.044H73.0407L73.0407 343.487H74.4669L74.4669 352.044L73.0407 353.47H71.6145L70.1883 352.044L70.1883 344.913H68.7621L68.7621 353.47H67.3359ZM77.6758 353.47L77.6758 344.913H75.5365V343.487H81.2413V344.913H79.102L79.102 353.47H77.6758ZM86.5895 352.044L86.5895 344.913H83.7371L83.7371 352.044H86.5895ZM83.7371 353.47L82.3109 352.044L82.3109 344.913L83.7371 343.487H86.5895L88.0157 344.913L88.0157 352.044L86.5895 353.47H83.7371ZM231.704 353.47L230.278 352.044L230.278 349.192L230.991 348.479L230.278 347.765V344.913L231.704 343.487H235.983V344.913H231.704V347.765H234.556V349.192H231.704L231.704 352.044L235.983 352.044V353.47L231.704 353.47ZM239.905 353.47L237.052 350.618V343.487H238.478V350.618L239.905 352.044L241.331 350.618V343.487H242.757V350.618L239.905 353.47ZM245.253 353.47L243.827 352.044L243.827 349.192L244.54 348.479L243.827 347.765V344.913L245.253 343.487H249.531V344.913H245.253V347.765H248.105V349.192H245.253L245.253 352.044H249.531V353.47H245.253ZM250.601 353.47L250.601 344.913L252.027 343.487H253.453L254.88 344.913L254.88 352.044H256.306V343.487H257.732V352.044L256.306 353.47H254.88L253.453 352.044L253.453 344.913H252.027L252.027 353.47H250.601ZM260.941 353.47V344.913H258.802V343.487H264.506V344.913L262.367 344.913V353.47H260.941ZM265.576 353.47V352.044H267.715V344.913H265.576V343.487H271.281V344.913H269.142V352.044H271.281V353.47H265.576Z" fill="black"/>
<path d="M191.632 229.246V224.967H198.05L198.05 205.714L195.91 207.853H191.632L200.189 199.296L202.328 199.296L202.328 224.967H208.746V229.246L191.632 229.246ZM211.955 229.246V220.689L224.791 207.853V203.575L211.955 203.575V199.296L229.069 199.296V207.853L216.234 220.689V229.246L211.955 229.246ZM232.278 229.246L232.278 203.575L236.557 199.296H240.835L242.975 201.435L245.114 199.296L249.392 199.296L253.671 203.575L253.671 229.246H249.392L249.392 203.575L245.114 203.575L245.114 220.689H240.835L240.835 203.575H236.557L236.557 229.246L232.278 229.246Z" fill="black"/>
<path d="M196.319 186.957L196.319 178.4H194.18V176.973H199.884V178.4H197.745L197.745 186.957H196.319ZM205.233 185.531V178.4L202.38 178.4V185.531L205.233 185.531ZM202.38 186.957L200.954 185.531L200.954 178.4L202.38 176.973L205.233 176.973L206.659 178.4V185.531L205.233 186.957L202.38 186.957ZM209.868 186.957L209.868 178.4H207.728V176.973H213.433V178.4H211.294L211.294 186.957H209.868ZM218.781 181.252V178.4H215.929V181.252L218.781 181.252ZM214.503 186.957L214.503 178.4L215.929 176.973H218.781L220.208 178.4L220.208 186.957H218.781L218.781 182.678L215.929 182.678L215.929 186.957H214.503ZM222.703 186.957L221.277 185.531V176.973H222.703V185.531H226.982V186.957H222.703ZM229.478 186.957L228.052 185.531V182.678L228.765 181.965L228.052 181.252V178.4L229.478 176.973H233.756V178.4H229.478V181.252H232.33V182.678H229.478V185.531H233.756V186.957H229.478ZM238.748 186.957V185.531H243.027V182.678H240.174L238.748 181.252V178.4L240.174 176.973H244.453V178.4H240.174V181.252H243.027L244.453 182.678V185.531L243.027 186.957H238.748ZM249.801 181.252V178.4H246.949V181.252H249.801ZM245.522 186.957V176.973H249.801L251.227 178.4V181.252L249.801 182.678H246.949V186.957H245.522ZM253.723 186.957L252.297 185.531V182.678L253.01 181.965L252.297 181.252V178.4L253.723 176.973H258.002V178.4H253.723V181.252H256.575V182.678H253.723V185.531H258.002V186.957H253.723ZM259.071 186.957V185.531H263.35V182.678H260.497L259.071 181.252V178.4L260.497 176.973H264.776V178.4H260.497V181.252H263.35L264.776 182.678V185.531L263.35 186.957H259.071ZM267.272 186.957L265.846 185.531V182.678L266.559 181.965L265.846 181.252V178.4L267.272 176.973L271.55 176.973V178.4L267.272 178.4V181.252L270.124 181.252V182.678L267.272 182.678V185.531L271.55 185.531V186.957L267.272 186.957Z" fill="black"/>
<path d="M21.5022 281.613L21.5022 278.761H18.6498L18.6498 281.613H21.5022ZM17.2236 287.318L17.2236 277.335H21.5022L22.9284 278.761L22.9284 281.613L21.5022 283.04H18.6498L18.6498 287.318H17.2236ZM28.2766 281.613L28.2766 278.761H25.4242L25.4242 281.613H28.2766ZM23.998 287.318L23.998 278.761L25.4242 277.335H28.2766L29.7028 278.761L29.7028 287.318H28.2766L28.2766 283.04H25.4242L25.4242 287.318H23.998ZM32.1986 287.318L30.7724 285.892L30.7724 283.04L31.4855 282.327L30.7724 281.613L30.7724 278.761L32.1986 277.335L36.4772 277.335L36.4772 278.761L32.1986 278.761L32.1986 281.613L35.051 281.613V283.04L32.1986 283.04L32.1986 285.892L36.4772 285.892V287.318L32.1986 287.318ZM37.5468 287.318V285.892H41.8254L41.8254 283.04H38.973L37.5468 281.613L37.5468 278.761L38.973 277.335H43.2516L43.2516 278.761H38.973L38.973 281.613H41.8254L43.2516 283.04L43.2516 285.892L41.8254 287.318H37.5468ZM45.7474 287.318L44.3212 285.892L44.3212 283.04L45.0343 282.327L44.3212 281.613L44.3212 278.761L45.7474 277.335H50.026V278.761H45.7474L45.7474 281.613H48.5998V283.04H45.7474L45.7474 285.892H50.026V287.318H45.7474ZM17.2236 302.318L17.2236 300.892H19.3629L19.3629 293.761H17.2236V292.335H22.9284L22.9284 293.761H20.7891L20.7891 300.892H22.9284L22.9284 302.318H17.2236ZM26.1373 302.318L26.1373 293.761H23.998L23.998 292.335H29.7028L29.7028 293.761H27.5635L27.5635 302.318H26.1373ZM35.051 296.613L35.051 293.761L32.1986 293.761L32.1986 296.613L35.051 296.613ZM30.7724 302.318L30.7724 293.761L32.1986 292.335L35.051 292.335L36.4772 293.761L36.4772 302.318H35.051L35.051 298.04L32.1986 298.04L32.1986 302.318H30.7724ZM38.973 302.318L37.5468 300.892L37.5468 292.335H38.973L38.973 300.892H43.2516L43.2516 302.318H38.973ZM44.3212 302.318L44.3212 300.892H46.4605L46.4605 293.761H44.3212V292.335H50.026L50.026 293.761H47.8867L47.8867 300.892H50.026L50.026 302.318H44.3212ZM55.3742 296.613V293.761H52.5218V296.613H55.3742ZM51.0956 302.318L51.0956 293.761L52.5218 292.335H55.3742L56.8003 293.761L56.8003 302.318H55.3742L55.3742 298.04H52.5218L52.5218 302.318H51.0956Z" fill="black"/>
<path d="M19.0278 77.4255L17.6016 75.9993L17.6016 68.8684L19.0278 67.4422L23.3063 67.4422L23.3063 68.8684L19.0278 68.8684L19.0278 75.9993H21.8801L21.8801 73.147H20.4539L20.4539 71.7208L23.3063 71.7208L23.3063 75.9993L21.8801 77.4255H19.0278ZM25.8021 77.4255L24.376 75.9993L24.376 73.147L25.089 72.4339L24.376 71.7208L24.376 68.8684L25.8021 67.4422L30.0807 67.4422V68.8684L25.8021 68.8684L25.8021 71.7208H28.6545L28.6545 73.147H25.8021L25.8021 75.9993L30.0807 75.9993L30.0807 77.4255L25.8021 77.4255ZM31.1503 77.4255L31.1503 68.8684L32.5765 67.4422H34.0027L35.4289 68.8684L35.4289 75.9993H36.8551L36.8551 67.4422H38.2813L38.2813 75.9993L36.8551 77.4255H35.4289L34.0027 75.9993L34.0027 68.8684H32.5765L32.5765 77.4255H31.1503ZM40.7771 77.4255L39.3509 75.9993V73.147L40.064 72.4339L39.3509 71.7208L39.3509 68.8684L40.7771 67.4422H45.0557V68.8684H40.7771L40.7771 71.7208H43.6295L43.6295 73.147H40.7771V75.9993H45.0557V77.4255H40.7771ZM50.4039 71.7208L50.4039 68.8684H47.5515L47.5515 71.7208H50.4039ZM46.1253 77.4255L46.1253 67.4422L50.4039 67.4422L51.8301 68.8684L51.8301 71.7208L51.117 72.4339L51.8301 73.147L51.8301 77.4255H50.4039L50.4039 73.147H47.5515V77.4255H46.1253ZM54.3259 77.4255L52.8997 75.9993L52.8997 73.147L53.6128 72.4339L52.8997 71.7208L52.8997 68.8684L54.3259 67.4422L58.6045 67.4422V68.8684L54.3259 68.8684L54.3259 71.7208L57.1783 71.7208V73.147L54.3259 73.147L54.3259 75.9993L58.6045 75.9993V77.4255L54.3259 77.4255ZM63.5961 77.4255L63.5961 68.8684L65.0223 67.4422H66.4485L67.1616 68.1553L67.8747 67.4422H69.3009L70.7271 68.8684L70.7271 77.4255H69.3009L69.3009 68.8684H67.8747L67.8747 74.5732H66.4485L66.4485 68.8684H65.0223L65.0223 77.4255H63.5961ZM73.2229 77.4255L71.7967 75.9993L71.7967 67.4422H73.2229L73.2229 75.9993H76.0753L76.0753 67.4422H77.5015L77.5015 75.9993L76.0753 77.4255H73.2229ZM78.5711 77.4255V75.9993L82.8497 75.9993V73.147H79.9973L78.5711 71.7208V68.8684L79.9973 67.4422H84.2758V68.8684H79.9973V71.7208H82.8497L84.2758 73.147V75.9993L82.8497 77.4255L78.5711 77.4255ZM85.3455 77.4255V75.9993H87.4848L87.4848 68.8684H85.3455V67.4422L91.0502 67.4422V68.8684H88.911L88.911 75.9993H91.0502V77.4255L85.3455 77.4255ZM93.5461 77.4255L92.1199 75.9993L92.1199 68.8684L93.5461 67.4422L97.8246 67.4422V68.8684L93.5461 68.8684L93.5461 75.9993L97.8246 75.9993V77.4255L93.5461 77.4255ZM103.173 71.7208L103.173 68.8684H100.32L100.32 71.7208H103.173ZM98.8943 77.4255L98.8943 68.8684L100.32 67.4422H103.173L104.599 68.8684L104.599 77.4255H103.173V73.147H100.32V77.4255H98.8943ZM107.095 77.4255L105.669 75.9993L105.669 67.4422H107.095L107.095 75.9993H111.373V77.4255H107.095ZM113.869 77.4255L112.443 75.9993V73.147L113.156 72.4339L112.443 71.7208L112.443 68.8684L113.869 67.4422H118.148V68.8684H113.869L113.869 71.7208H116.722V73.147H113.869V75.9993H118.148V77.4255H113.869Z" fill="black"/>
<path d="M197.569 282.286L197.559 279.434L194.706 279.444L194.716 282.296L197.569 282.286ZM193.31 288.006L193.28 279.449L194.701 278.017L197.554 278.007L198.985 279.429L199.015 287.986L197.589 287.991L197.574 283.712L194.721 283.722L194.736 288.001L193.31 288.006ZM200.084 287.982L200.055 279.425L201.476 277.994L202.902 277.989L204.333 279.41L204.358 286.541L205.784 286.536L205.754 277.979L207.18 277.974L207.21 286.531L205.789 287.962L204.363 287.967L202.932 286.546L202.907 279.415L201.481 279.42L201.511 287.977L200.084 287.982ZM208.285 287.953L208.255 279.396L209.676 277.965L211.102 277.96L212.534 279.381L212.558 286.512L213.985 286.507L213.955 277.95L215.381 277.945L215.411 286.502L213.99 287.933L212.563 287.938L211.132 286.517L211.107 279.386L209.681 279.391L209.711 287.948L208.285 287.953ZM216.485 287.925L216.48 286.499L218.62 286.491L218.595 279.36L216.456 279.368L216.451 277.942L222.155 277.922L222.16 279.348L220.021 279.355L220.046 286.486L222.185 286.479L222.19 287.905L216.485 287.925ZM193.362 303.006L193.357 301.579L195.497 301.572L195.474 295.154L194.764 295.87L193.337 295.875L196.18 293.012L196.893 293.01L196.923 301.567L199.062 301.559L199.067 302.986L193.362 303.006ZM204.395 297.262L204.385 294.41L201.533 294.42L201.543 297.272L204.395 297.262ZM200.137 302.982L200.132 301.556L204.41 301.541L204.4 298.688L201.548 298.698L200.117 297.277L200.107 294.425L201.528 292.994L204.38 292.984L205.812 294.405L205.836 301.536L204.415 302.967L200.137 302.982ZM206.916 304.384L206.901 300.106L208.322 298.675L208.312 295.822L209.734 294.391L209.724 291.539L211.15 291.534L211.165 295.812L209.744 297.244L209.753 300.096L208.332 301.527L208.342 304.379L206.916 304.384ZM212.259 302.94L212.249 300.087L216.513 295.794L216.508 294.368L213.656 294.378L213.661 295.804L212.234 295.809L212.229 294.383L213.651 292.951L216.503 292.941L217.934 294.363L217.939 295.789L213.675 300.082L213.68 301.508L217.959 301.494L217.964 302.92L212.259 302.94ZM223.307 301.475L223.292 297.196L220.45 300.059L220.455 301.485L223.307 301.475ZM220.445 298.632L223.287 295.77L223.282 294.344L220.43 294.354L220.445 298.632ZM220.46 302.911L219.029 301.49L219.004 294.359L220.425 292.928L223.277 292.918L224.708 294.339L224.733 301.47L223.312 302.901L220.46 302.911ZM225.813 304.318L225.798 300.04L227.219 298.609L227.209 295.756L228.63 294.325L228.62 291.473L230.047 291.468L230.062 295.746L228.64 297.178L228.65 300.03L227.229 301.461L227.239 304.314L225.813 304.318ZM231.156 302.874L231.146 300.021L235.41 295.728L235.405 294.302L232.552 294.312L232.557 295.738L231.131 295.743L231.126 294.317L232.547 292.885L235.4 292.875L236.831 294.297L236.836 295.723L232.572 300.016L232.577 301.442L236.856 301.428L236.861 302.854L231.156 302.874ZM237.93 302.85L237.926 301.424L240.065 301.416L240.042 294.999L239.332 295.714L237.906 295.719L240.748 292.857L241.461 292.854L241.491 301.411L243.63 301.404L243.635 302.83L237.93 302.85Z" fill="black"/>
<path fill-rule="evenodd" clip-rule="evenodd" d="M292.66 41.6695H0.375L0.375001 12.3773L0.492641 12.4946L12.4049 0.609569L12.2848 0.489746L280.987 0.489757L280.867 0.609418L292.66 12.3756V41.6695Z" fill="#250042"/>
<path d="M15.2377 28.687L13.8115 27.2608L13.8115 24.4084L14.5246 23.6954L13.8115 22.9823L13.8115 20.1299L15.2377 18.7037L19.5163 18.7037L19.5163 20.1299L15.2377 20.1299L15.2377 22.9823L18.0901 22.9823L18.0901 24.4084L15.2377 24.4084L15.2377 27.2608L19.5163 27.2608L19.5163 28.687L15.2377 28.687ZM20.5859 28.687L20.5859 20.1299L22.0121 18.7037L23.4383 18.7037L24.8645 20.1299L24.8645 27.2608H26.2907L26.2907 18.7037L27.7169 18.7037L27.7169 27.2608L26.2907 28.687H24.8645L23.4383 27.2608L23.4383 20.1299L22.0121 20.1299L22.0121 28.687H20.5859ZM30.9258 28.687L30.9258 20.1299L28.7865 20.1299V18.7037L34.4912 18.7037L34.4912 20.1299L32.352 20.1299L32.352 28.687L30.9258 28.687ZM36.9871 28.687L35.5609 27.2608L35.5609 24.4084L36.274 23.6954L35.5609 22.9823V20.1299L36.9871 18.7037L41.2656 18.7037L41.2656 20.1299L36.9871 20.1299V22.9823L39.8395 22.9823V24.4084L36.9871 24.4084L36.9871 27.2608L41.2656 27.2608L41.2656 28.687L36.9871 28.687ZM46.6138 22.9823L46.6138 20.1299L43.7615 20.1299V22.9823L46.6138 22.9823ZM42.3353 28.687L42.3353 18.7037L46.6138 18.7037L48.04 20.1299L48.04 22.9823L47.3269 23.6954L48.04 24.4084L48.04 28.687H46.6138L46.6138 24.4084L43.7615 24.4084L43.7615 28.687H42.3353ZM49.1097 28.687V27.2608L51.249 27.2608L51.249 20.1299L49.1097 20.1299V18.7037L54.8144 18.7037V20.1299L52.6751 20.1299L52.6751 27.2608L54.8144 27.2608V28.687L49.1097 28.687ZM55.8841 28.687L55.8841 20.1299L57.3103 18.7037L58.7364 18.7037L60.1626 20.1299L60.1626 27.2608L61.5888 27.2608L61.5888 18.7037L63.015 18.7037L63.015 27.2608L61.5888 28.687L60.1626 28.687L58.7364 27.2608L58.7364 20.1299L57.3103 20.1299L57.3103 28.687L55.8841 28.687ZM65.5108 28.687L64.0846 27.2608L64.0846 20.1299L65.5108 18.7037L69.7894 18.7037V20.1299L65.5108 20.1299L65.5108 27.2608L68.3632 27.2608L68.3632 24.4084H66.937V22.9823L69.7894 22.9823L69.7894 27.2608L68.3632 28.687L65.5108 28.687ZM79.0596 22.9823V20.1299L76.2072 20.1299L76.2072 22.9823L79.0596 22.9823ZM74.7811 28.687L74.7811 18.7037L79.0596 18.7037L80.4858 20.1299V22.9823L79.0596 24.4084L76.2072 24.4084L76.2072 28.687H74.7811ZM85.834 22.9823V20.1299L82.9816 20.1299V22.9823L85.834 22.9823ZM81.5555 28.687L81.5555 20.1299L82.9816 18.7037L85.834 18.7037L87.2602 20.1299L87.2602 28.687L85.834 28.687L85.834 24.4084L82.9816 24.4084L82.9816 28.687L81.5555 28.687ZM88.3298 28.687V27.2608L92.6084 27.2608L92.6084 24.4084L89.756 24.4084L88.3298 22.9823V20.1299L89.756 18.7037L94.0346 18.7037L94.0346 20.1299L89.756 20.1299V22.9823L92.6084 22.9823L94.0346 24.4084L94.0346 27.2608L92.6084 28.687L88.3298 28.687ZM95.1042 28.687V27.2608L99.3828 27.2608L99.3828 24.4084L96.5304 24.4084L95.1042 22.9823V20.1299L96.5304 18.7037L100.809 18.7037L100.809 20.1299L96.5304 20.1299V22.9823L99.3828 22.9823L100.809 24.4084L100.809 27.2608L99.3828 28.687L95.1042 28.687ZM105.801 30.1132L105.801 25.8346L107.227 24.4084V21.5561L108.653 20.1299L108.653 17.2775H110.079L110.079 21.5561L108.653 22.9823V25.8346L107.227 27.2608V30.1132L105.801 30.1132ZM116.497 28.687L115.071 27.2608L115.071 20.1299L116.497 18.7037L120.776 18.7037L120.776 20.1299L116.497 20.1299L116.497 27.2608L120.776 27.2608V28.687L116.497 28.687ZM126.124 27.2608L126.124 20.1299L123.271 20.1299L123.271 27.2608L126.124 27.2608ZM123.271 28.687L121.845 27.2608L121.845 20.1299L123.271 18.7037L126.124 18.7037L127.55 20.1299L127.55 27.2608L126.124 28.687L123.271 28.687ZM128.62 28.687L128.62 20.1299L130.046 18.7037L131.472 18.7037L132.898 20.1299L132.898 27.2608H134.324L134.324 18.7037L135.751 18.7037L135.751 27.2608L134.324 28.687H132.898L131.472 27.2608L131.472 20.1299L130.046 20.1299L130.046 28.687H128.62ZM138.246 28.687L136.82 27.2608L136.82 20.1299L138.246 18.7037L142.525 18.7037V20.1299L138.246 20.1299L138.246 27.2608L142.525 27.2608V28.687L138.246 28.687ZM145.021 28.687L143.595 27.2608V24.4084L144.308 23.6954L143.595 22.9823L143.595 20.1299L145.021 18.7037L149.299 18.7037V20.1299L145.021 20.1299L145.021 22.9823H147.873V24.4084H145.021V27.2608L149.299 27.2608V28.687L145.021 28.687ZM154.648 22.9823L154.648 20.1299L151.795 20.1299L151.795 22.9823L154.648 22.9823ZM150.369 28.687L150.369 18.7037L154.648 18.7037L156.074 20.1299L156.074 22.9823L155.361 23.6954L156.074 24.4084V28.687H154.648V24.4084L151.795 24.4084V28.687H150.369ZM159.283 28.687L159.283 20.1299L157.143 20.1299V18.7037L162.848 18.7037V20.1299L160.709 20.1299L160.709 28.687L159.283 28.687ZM163.918 28.687V27.2608L166.057 27.2608L166.057 20.1299L163.918 20.1299V18.7037L169.623 18.7037V20.1299L167.483 20.1299L167.483 27.2608L169.623 27.2608V28.687L163.918 28.687ZM174.614 30.1132V25.8346L176.04 24.4084L176.04 21.5561L177.467 20.1299V17.2775L178.893 17.2775V21.5561L177.467 22.9823V25.8346L176.04 27.2608V30.1132H174.614ZM185.311 28.687L183.884 27.2608L183.884 20.1299L185.311 18.7037L189.589 18.7037V20.1299L185.311 20.1299L185.311 27.2608L189.589 27.2608V28.687L185.311 28.687ZM190.659 28.687V27.2608H192.798L192.798 20.843L192.085 21.5561H190.659L193.511 18.7037H194.224L194.224 27.2608L196.364 27.2608V28.687L190.659 28.687ZM201.712 22.9823L201.712 20.1299L198.859 20.1299L198.859 22.9823H201.712ZM197.433 28.687V27.2608L201.712 27.2608V24.4084H198.859L197.433 22.9823L197.433 20.1299L198.859 18.7037L201.712 18.7037L203.138 20.1299L203.138 27.2608L201.712 28.687L197.433 28.687ZM208.13 30.1132V25.8346L209.556 24.4084L209.556 21.5561L210.982 20.1299V17.2775L212.408 17.2775V21.5561L210.982 22.9823V25.8346L209.556 27.2608V30.1132H208.13ZM217.4 28.687L217.4 20.1299L221.678 20.1299L223.105 21.5561L223.105 28.687L221.678 28.687L221.678 21.5561L218.826 21.5561L218.826 28.687L217.4 28.687ZM229.522 28.687L228.096 27.2608V25.8346H229.522V27.2608L232.375 27.2608V24.4084L230.949 24.4084V22.9823L232.375 22.9823L232.375 20.1299L229.522 20.1299V21.5561H228.096V20.1299L229.522 18.7037L232.375 18.7037L233.801 20.1299L233.801 22.9823L233.088 23.6954L233.801 24.4084V27.2608L232.375 28.687L229.522 28.687ZM236.297 28.687L234.871 27.2608V25.8346L236.297 25.8346V27.2608L239.149 27.2608V24.4084L237.723 24.4084V22.9823L239.149 22.9823L239.149 20.1299L236.297 20.1299V21.5561L234.871 21.5561V20.1299L236.297 18.7037L239.149 18.7037L240.575 20.1299L240.575 22.9823L239.862 23.6954L240.575 24.4084V27.2608L239.149 28.687L236.297 28.687ZM245.924 27.2608V22.9823L243.071 25.8346V27.2608L245.924 27.2608ZM243.071 24.4084L245.924 21.5561V20.1299L243.071 20.1299L243.071 24.4084ZM243.071 28.687L241.645 27.2608L241.645 20.1299L243.071 18.7037L245.924 18.7037L247.35 20.1299L247.35 27.2608L245.924 28.687L243.071 28.687ZM248.419 28.687V27.2608H250.559L250.559 20.843L249.846 21.5561L248.419 21.5561L251.272 18.7037H251.985L251.985 27.2608L254.124 27.2608V28.687L248.419 28.687ZM255.194 28.687V25.8346L259.472 21.5561V20.1299L256.62 20.1299V21.5561L255.194 21.5561V20.1299L256.62 18.7037L259.472 18.7037L260.899 20.1299V21.5561L256.62 25.8346V27.2608L260.899 27.2608V28.687L255.194 28.687ZM266.247 22.9823V20.1299L263.394 20.1299V22.9823L266.247 22.9823ZM261.968 28.687V27.2608L266.247 27.2608V24.4084L263.394 24.4084L261.968 22.9823V20.1299L263.394 18.7037L266.247 18.7037L267.673 20.1299V27.2608L266.247 28.687L261.968 28.687Z" fill="#C852FF"/>
<path d="M139.151 475.237L139.151 472.86L142.717 469.294V468.106H140.34V469.294H139.151V468.106L140.34 466.917H142.717L143.905 468.106V469.294L140.34 472.86L140.34 474.048H143.905V475.237H139.151ZM148.362 474.048L148.362 470.483L145.985 472.86L145.985 474.048H148.362ZM145.985 471.671L148.362 469.294V468.106H145.985V471.671ZM145.985 475.237L144.797 474.048L144.797 468.106L145.985 466.917H148.362L149.551 468.106L149.551 474.048L148.362 475.237H145.985ZM150.442 475.237L150.442 472.86L154.007 469.294V468.106H151.631V469.294H150.442V468.106L151.631 466.917H154.007L155.196 468.106V469.294L151.631 472.86L151.631 474.048H155.196L155.196 475.237H150.442ZM159.653 474.048V470.483L157.276 472.86V474.048H159.653ZM157.276 471.671L159.653 469.294V468.106H157.276V471.671ZM157.276 475.237L156.087 474.048V468.106L157.276 466.917H159.653L160.841 468.106V474.048L159.653 475.237H157.276Z" fill="black"/>
<path d="M116.347 364.103H113.472V459.335H116.347V364.103Z" fill="black" fill-opacity="0.05"/>
<path d="M122.815 364.103H119.94V459.335H122.815V364.103Z" fill="black" fill-opacity="0.05"/>
<path d="M129.284 364.103H126.409V459.335H129.284V364.103Z" fill="black" fill-opacity="0.05"/>
<path d="M135.803 364.103H132.915V459.335H135.803V364.103Z" fill="black" fill-opacity="0.05"/>
<path d="M142.284 364.103H139.396V459.335H142.284V364.103Z" fill="black" fill-opacity="0.05"/>
<path d="M148.765 364.103H145.878V459.335H148.765V364.103Z" fill="black" fill-opacity="0.05"/>
<path d="M155.247 364.103H152.359V459.335H155.247V364.103Z" fill="black" fill-opacity="0.05"/>
<path d="M161.727 364.103H158.84V459.335H161.727V364.103Z" fill="black" fill-opacity="0.05"/>
<path d="M168.21 364.103H165.322V459.335H168.21V364.103Z" fill="black" fill-opacity="0.05"/>
<path d="M174.69 364.103H171.803V459.335H174.69V364.103Z" fill="black" fill-opacity="0.05"/>
<path d="M181.172 364.103H178.284V459.335H181.172V364.103Z" fill="black" fill-opacity="0.05"/>
<path d="M187.653 364.103H184.766V459.335H187.653V364.103Z" fill="black" fill-opacity="0.05"/>
<path d="M116.359 447.991H113.472V459.334H116.359V447.991Z" fill="black"/>
<path d="M122.841 446.73H119.953V459.334H122.841V446.73Z" fill="black"/>
<path d="M129.297 458.774H126.409V459.335H129.297V458.774Z" fill="black"/>
<path d="M148.764 457.794H145.877V459.334H148.764V457.794Z" fill="black"/>
<path d="M155.246 444.209H152.358V459.334H155.246V444.209Z" fill="black"/>
<path d="M161.727 439.728H158.84V459.334H161.727V439.728Z" fill="black"/>
<path d="M168.208 447.43H165.32V459.334H168.208V447.43Z" fill="black"/>
<path d="M174.689 449.531H171.802V459.334H174.689V449.531Z" fill="black"/>
<path d="M53.5605 475.237V472.86L57.126 469.294V468.106H54.749V469.294H53.5605V468.106L54.749 466.917H57.126L58.3145 468.106V469.294L54.749 472.86V474.048H58.3145V475.237H53.5605ZM62.7713 474.048L62.7713 470.483L60.3944 472.86V474.048H62.7713ZM60.3944 471.671L62.7713 469.294V468.106H60.3944L60.3944 471.671ZM60.3944 475.237L59.2059 474.048L59.2059 468.106L60.3944 466.917H62.7713L63.9598 468.106L63.9598 474.048L62.7713 475.237H60.3944ZM64.8512 475.237V474.048H66.6339L66.6339 468.7L66.0397 469.294H64.8512L67.2282 466.917H67.8224L67.8224 474.048H69.6052V475.237H64.8512ZM74.062 470.483L74.062 468.106H71.685L71.685 470.483H74.062ZM70.4965 475.237V474.048L74.062 474.048V471.671H71.685L70.4965 470.483L70.4965 468.106L71.685 466.917H74.062L75.2505 468.106L75.2505 474.048L74.062 475.237L70.4965 475.237Z" fill="black"/>
<path d="M30.7538 364.103H27.8789V459.335H30.7538V364.103Z" fill="black" fill-opacity="0.05"/>
<path d="M37.2226 364.103H34.3477V459.335H37.2226V364.103Z" fill="black" fill-opacity="0.05"/>
<path d="M43.6913 364.103H40.8164V459.335H43.6913V364.103Z" fill="black" fill-opacity="0.05"/>
<path d="M50.2098 364.103H47.3223V459.335H50.2098V364.103Z" fill="black" fill-opacity="0.05"/>
<path d="M56.6922 364.103H53.8047V459.335H56.6922V364.103Z" fill="black" fill-opacity="0.05"/>
<path d="M63.1727 364.103H60.2852V459.335H63.1727V364.103Z" fill="black" fill-opacity="0.05"/>
<path d="M69.6541 364.103H66.7666V459.335H69.6541V364.103Z" fill="black" fill-opacity="0.05"/>
<path d="M76.1356 364.103H73.248V459.335H76.1356V364.103Z" fill="black" fill-opacity="0.05"/>
<path d="M82.617 364.103H79.7295V459.335H82.617V364.103Z" fill="black" fill-opacity="0.05"/>
<path d="M89.0975 364.103H86.21V459.335H89.0975V364.103Z" fill="black" fill-opacity="0.05"/>
<path d="M95.5789 364.103H92.6914V459.335H95.5789V364.103Z" fill="black" fill-opacity="0.05"/>
<path d="M102.059 364.103H99.1719V459.335H102.059V364.103Z" fill="black" fill-opacity="0.05"/>
<path d="M30.7664 447.291H27.8789V459.335H30.7664V447.291Z" fill="black"/>
<path d="M37.2479 443.509H34.3604V459.335H37.2479V443.509Z" fill="black"/>
<path d="M43.7293 437.487H40.8418V459.335H43.7293V437.487Z" fill="black"/>
<path d="M50.2098 441.129H47.3223V459.335H50.2098V441.129Z" fill="black"/>
<path d="M56.6912 443.369H53.8037V459.335H56.6912V443.369Z" fill="black"/>
<path d="M63.1727 444.63H60.2852V459.335H63.1727V444.63Z" fill="black"/>
<path d="M69.6541 430.765H66.7666V459.335H69.6541V430.765Z" fill="black"/>
<path d="M76.1346 438.608H73.2471V459.335H76.1346V438.608Z" fill="black"/>
<path d="M82.616 448.131H79.7285V459.335H82.616V448.131Z" fill="black"/>
<path d="M89.0975 446.17H86.21V459.334H89.0975V446.17Z" fill="black"/>
<path d="M95.5789 440.989H92.6914V459.335H95.5789V440.989Z" fill="black"/>
<path d="M102.06 444.49H99.1729V459.335H102.06V444.49Z" fill="black"/>
<path d="M224.742 475.237L224.742 472.86L228.308 469.294V468.106H225.931V469.294H224.742V468.106L225.931 466.917H228.308L229.496 468.106V469.294L225.931 472.86L225.931 474.048H229.496V475.237H224.742ZM233.953 474.048L233.953 470.483L231.576 472.86L231.576 474.048H233.953ZM231.576 471.671L233.953 469.294V468.106H231.576V471.671ZM231.576 475.237L230.388 474.048L230.388 468.106L231.576 466.917H233.953L235.141 468.106L235.141 474.048L233.953 475.237H231.576ZM236.033 475.237L236.033 472.86L239.598 469.294V468.106H237.221V469.294H236.033V468.106L237.221 466.917H239.598L240.787 468.106V469.294L237.221 472.86L237.221 474.048H240.787L240.787 475.237H236.033ZM241.678 475.237L241.678 474.048L243.461 474.048V468.7L242.867 469.294H241.678L244.055 466.917H244.649V474.048H246.432L246.432 475.237L241.678 475.237Z" fill="black"/>
<path d="M201.936 364.041H199.062V459.273H201.936V364.041Z" fill="black" fill-opacity="0.05"/>
<path d="M208.405 364.041H205.53V459.273H208.405V364.041Z" fill="black" fill-opacity="0.05"/>
<path d="M214.874 364.041H211.999V459.273H214.874V364.041Z" fill="black" fill-opacity="0.05"/>
<path d="M221.392 364.041H218.505V459.273H221.392V364.041Z" fill="black" fill-opacity="0.05"/>
<path d="M227.874 364.041H224.986V459.273H227.874V364.041Z" fill="black" fill-opacity="0.05"/>
<path d="M234.356 364.041H231.469V459.273H234.356V364.041Z" fill="black" fill-opacity="0.05"/>
<path d="M240.837 364.041H237.949V459.273H240.837V364.041Z" fill="black" fill-opacity="0.05"/>
<path d="M247.318 364.041H244.431V459.273H247.318V364.041Z" fill="black" fill-opacity="0.05"/>
<path d="M253.799 364.041H250.911V459.273H253.799V364.041Z" fill="black" fill-opacity="0.05"/>
<path d="M260.28 364.041H257.393V459.273H260.28V364.041Z" fill="black" fill-opacity="0.05"/>
<path d="M266.761 364.041H263.873V459.273H266.761V364.041Z" fill="black" fill-opacity="0.05"/>
<path d="M273.243 364.041H270.355V459.273H273.243V364.041Z" fill="black" fill-opacity="0.05"/>
<path d="M227.874 456.332H224.986V459.273H227.874V456.332Z" fill="black"/>
<path d="M234.355 446.108H231.468V459.272H234.355V446.108Z" fill="black"/>
<path d="M240.837 425.661H237.949V459.273H240.837V425.661Z" fill="black"/>
<path d="M247.317 432.524H244.43V459.273H247.317V432.524Z" fill="black"/>
<path d="M253.799 436.305H250.911V459.273H253.799V436.305Z" fill="black"/>
<path d="M260.28 443.027H257.393V459.273H260.28V443.027Z" fill="black"/>
<path d="M266.762 442.747H263.874V459.272H266.762V442.747Z" fill="black"/>
<path d="M273.242 442.327H270.354V459.273H273.242V442.327Z" fill="black"/>
<rect x="253.639" y="313.527" width="3.47196" height="9.58791" transform="rotate(90 253.639 313.527)" fill="black" fill-opacity="0.05"/>
<rect x="214.33" y="313.527" width="3.47196" height="9.58791" transform="rotate(90 214.33 313.527)" fill="black" fill-opacity="0.05"/>
<rect x="175.021" y="313.527" width="3.47196" height="9.58791" transform="rotate(90 175.021 313.527)" fill="black" fill-opacity="0.05"/>
<rect x="135.712" y="313.527" width="3.47196" height="9.58791" transform="rotate(90 135.712 313.527)" fill="black" fill-opacity="0.05"/>
<rect x="96.4043" y="313.527" width="3.47196" height="9.58791" transform="rotate(90 96.4043 313.527)" fill="black" fill-opacity="0.05"/>
<rect x="57.0938" y="313.527" width="3.47196" height="9.58791" transform="rotate(90 57.0938 313.527)" fill="black" fill-opacity="0.05"/>
<path d="M17.7861 313.527L17.7861 316.999L9.88206 316.999L9.12204 316.233L8.19822 315.314L8.19822 313.527L17.7861 313.527Z" fill="black" fill-opacity="0.05"/>
<path d="M283.361 316.999L283.361 317.403L282.619 318.141L283.361 319.006L283.361 320.471L273.773 320.471L273.773 316.999L283.361 316.999Z" fill="black" fill-opacity="0.05"/>
<rect x="244.052" y="316.999" width="3.47196" height="9.58791" transform="rotate(90 244.052 316.999)" fill="black" fill-opacity="0.05"/>
<rect x="204.743" y="316.999" width="3.47196" height="9.58791" transform="rotate(90 204.743 316.999)" fill="black" fill-opacity="0.05"/>
<rect x="165.435" y="316.999" width="3.47196" height="9.58791" transform="rotate(90 165.435 316.999)" fill="black" fill-opacity="0.05"/>
<rect x="126.124" y="316.999" width="3.47196" height="9.58791" transform="rotate(90 126.124 316.999)" fill="black" fill-opacity="0.05"/>
<rect x="86.8164" y="316.999" width="3.47196" height="9.58791" transform="rotate(90 86.8164 316.999)" fill="black" fill-opacity="0.05"/>
<rect x="47.5078" y="316.999" width="3.47196" height="9.58791" transform="rotate(90 47.5078 316.999)" fill="black" fill-opacity="0.05"/>
<rect x="273.547" y="313.527" width="3.47196" height="9.58791" transform="rotate(90 273.547 313.527)" fill="black" fill-opacity="0.05"/>
<rect x="234.238" y="313.527" width="3.47196" height="9.58791" transform="rotate(90 234.238 313.527)" fill="black" fill-opacity="0.05"/>
<rect x="194.929" y="313.527" width="3.47196" height="9.58791" transform="rotate(90 194.929 313.527)" fill="black" fill-opacity="0.05"/>
<rect x="155.62" y="313.527" width="3.47196" height="9.58791" transform="rotate(90 155.62 313.527)" fill="black" fill-opacity="0.05"/>
<rect x="116.312" y="313.527" width="3.47196" height="9.58791" transform="rotate(90 116.312 313.527)" fill="black" fill-opacity="0.05"/>
<rect x="77.0029" y="313.527" width="3.47196" height="9.58791" transform="rotate(90 77.0029 313.527)" fill="black" fill-opacity="0.05"/>
<rect x="37.6934" y="313.527" width="3.47196" height="9.58791" transform="rotate(90 37.6934 313.527)" fill="black" fill-opacity="0.05"/>
<rect x="263.229" y="316.999" width="3.47196" height="9.58791" transform="rotate(90 263.229 316.999)" fill="black" fill-opacity="0.05"/>
<rect x="223.921" y="316.999" width="3.47196" height="9.58791" transform="rotate(90 223.921 316.999)" fill="black" fill-opacity="0.05"/>
<rect x="184.61" y="316.999" width="3.47196" height="9.58791" transform="rotate(90 184.61 316.999)" fill="black" fill-opacity="0.05"/>
<rect x="145.302" y="316.999" width="3.47196" height="9.58791" transform="rotate(90 145.302 316.999)" fill="black" fill-opacity="0.05"/>
<rect x="105.991" y="316.999" width="3.47196" height="9.58791" transform="rotate(90 105.991 316.999)" fill="black" fill-opacity="0.05"/>
<rect x="66.6816" y="316.999" width="3.47196" height="9.58791" transform="rotate(90 66.6816 316.999)" fill="black" fill-opacity="0.05"/>
<rect x="27.374" y="316.999" width="3.47196" height="9.58791" transform="rotate(90 27.374 316.999)" fill="black" fill-opacity="0.05"/>
<path d="M8.35263 368.759V367.618L10.0641 365.907V365.336H8.9231V365.907H8.35263V365.336L8.9231 364.766H10.0641L10.6345 365.336V365.907L8.9231 367.618V368.189H10.6345V368.759H8.35263ZM12.7738 368.189V366.477L11.6329 367.618V368.189H12.7738ZM11.6329 367.048L12.7738 365.907V365.336H11.6329V367.048ZM11.6329 368.759L11.0624 368.189V365.336L11.6329 364.766H12.7738L13.3443 365.336V368.189L12.7738 368.759H11.6329ZM15.4836 368.189V366.477L14.3426 367.618V368.189H15.4836ZM14.3426 367.048L15.4836 365.907V365.336H14.3426V367.048ZM14.3426 368.759L13.7721 368.189V365.336L14.3426 364.766H15.4836L16.054 365.336V368.189L15.4836 368.759H14.3426ZM18.1933 368.189V366.477L17.0524 367.618V368.189H18.1933ZM17.0524 367.048L18.1933 365.907V365.336H17.0524V367.048ZM17.0524 368.759L16.4819 368.189V365.336L17.0524 364.766H18.1933L18.7638 365.336V368.189L18.1933 368.759H17.0524Z" fill="black"/>
<path d="M18.3095 458.035V456.324L17.1686 457.465V458.035H18.3095ZM17.1686 456.895L18.3095 455.754V455.183H17.1686V456.895ZM17.1686 458.606L16.5981 458.035V455.183L17.1686 454.613H18.3095L18.88 455.183V458.035L18.3095 458.606H17.1686Z" fill="black"/>
<path d="M8.46884 413.682V413.112H9.32455V410.545L9.03932 410.83H8.46884L9.60979 409.689H9.89503V413.112H10.7507V413.682H8.46884ZM12.89 413.112V411.401L11.7491 412.542V413.112H12.89ZM11.7491 411.971L12.89 410.83V410.26H11.7491V411.971ZM11.7491 413.682L11.1786 413.112V410.26L11.7491 409.689H12.89L13.4605 410.26V413.112L12.89 413.682H11.7491ZM15.5998 413.112V411.401L14.4588 412.542V413.112H15.5998ZM14.4588 411.971L15.5998 410.83V410.26H14.4588V411.971ZM14.4588 413.682L13.8884 413.112V410.26L14.4588 409.689H15.5998L16.1703 410.26V413.112L15.5998 413.682H14.4588ZM18.3095 413.112V411.401L17.1686 412.542V413.112H18.3095ZM17.1686 411.971L18.3095 410.83V410.26H17.1686V411.971ZM17.1686 413.682L16.5981 413.112V410.26L17.1686 409.689H18.3095L18.88 410.26V413.112L18.3095 413.682H17.1686Z" fill="black"/>
<path d="M11.1786 436.144V435.574H12.89V434.433H11.1786V432.151H13.4605V432.721H11.7491V433.862H12.89L13.4605 434.433V435.574L12.89 436.144H11.1786ZM15.5998 435.574V433.862L14.4588 435.003V435.574H15.5998ZM14.4588 434.433L15.5998 433.292V432.721H14.4588V434.433ZM14.4588 436.144L13.8884 435.574V432.721L14.4588 432.151H15.5998L16.1703 432.721V435.574L15.5998 436.144H14.4588ZM18.3095 435.574V433.862L17.1686 435.003V435.574H18.3095ZM17.1686 434.433L18.3095 433.292V432.721H17.1686V434.433ZM17.1686 436.144L16.5981 435.574V432.721L17.1686 432.151H18.3095L18.88 432.721V435.574L18.3095 436.144H17.1686Z" fill="black"/>
<path d="M8.46884 391.221V390.65H9.32455V388.083L9.03932 388.368H8.46884L9.60979 387.227H9.89503V390.65H10.7507V391.221H8.46884ZM11.1786 391.221V390.65H12.89V389.509H11.1786V387.227H13.4605V387.798H11.7491V388.939H12.89L13.4605 389.509V390.65L12.89 391.221H11.1786ZM15.5998 390.65V388.939L14.4588 390.08V390.65H15.5998ZM14.4588 389.509L15.5998 388.368V387.798H14.4588V389.509ZM14.4588 391.221L13.8884 390.65V387.798L14.4588 387.227H15.5998L16.1703 387.798V390.65L15.5998 391.221H14.4588ZM18.3095 390.65V388.939L17.1686 390.08V390.65H18.3095ZM17.1686 389.509L18.3095 388.368V387.798H17.1686V389.509ZM17.1686 391.221L16.5981 390.65V387.798L17.1686 387.227H18.3095L18.88 387.798V390.65L18.3095 391.221H17.1686Z" fill="black"/>
</svg>
