<svg width="331" height="91" viewBox="0 0 331 91" fill="none" xmlns="http://www.w3.org/2000/svg">
<path d="M0.499817 16.0343V74.7631L14.3486 90.78H315.464L330.5 74.7631V18.3224L315.464 0.780029H14.3486L0.499817 16.0343Z" fill="white"/>
<path d="M31.193 26.228L33.365 28.664L33.929 28.22L32.501 26.024L33.929 23.828L33.365 23.384L31.193 25.82V26.228ZM34.109 26.228L36.125 28.412L36.677 27.956L35.357 26.024L36.677 24.092L36.125 23.636L34.109 25.82V26.228ZM43.5654 28.736V27.788H39.3894V25.328H42.7494V24.392H39.3894V21.92H43.4814V20.972H38.2854V28.736H43.5654ZM41.7894 19.508L39.7254 18.176L39.1734 19.124L41.3814 20.204L41.7894 19.508ZM52.5628 28.736V22.784H51.5428V26.888C51.2428 27.548 50.6668 28.028 49.9588 28.028C49.2268 28.028 48.6988 27.452 48.6988 26.648V22.784H47.6788V26.72C47.6788 27.98 48.5188 28.892 49.6708 28.892C50.5468 28.892 51.2308 28.388 51.5788 27.752V28.736H52.5628ZM59.4113 28.736V24.8C59.4113 23.528 58.5233 22.628 57.3593 22.628C56.5073 22.628 55.7873 23.132 55.3913 23.696V22.784H54.4073V28.736H55.4273V24.416C55.7993 23.888 56.4473 23.492 57.1193 23.492C57.8633 23.492 58.3913 24.044 58.3913 24.872V28.736H59.4113ZM69.3941 25.736C69.3941 23.936 68.3261 22.628 66.8621 22.628C66.1781 22.628 65.4221 23.012 64.9781 23.576V20.288H63.9581V28.736H64.9181V28.016C65.3741 28.532 66.1181 28.892 66.7661 28.892C68.2901 28.892 69.3941 27.572 69.3941 25.736ZM66.5261 28.04C65.9021 28.04 65.3021 27.716 64.9781 27.272V24.308C65.3021 23.816 65.9381 23.492 66.5861 23.492C67.5821 23.492 68.3141 24.428 68.3141 25.724C68.3141 27.056 67.5581 28.04 66.5261 28.04ZM71.8336 28.736V25.184C71.9296 24.392 72.4096 23.648 73.3336 23.648C73.5376 23.648 73.8256 23.684 73.9936 23.732V22.724C73.8736 22.676 73.5856 22.628 73.3816 22.628C72.6856 22.628 72.0376 23.24 71.7976 23.996V22.784H70.8136V28.736H71.8336ZM79.9612 28.736V22.784H78.9412V26.888C78.6412 27.548 78.0652 28.028 77.3572 28.028C76.6252 28.028 76.0972 27.452 76.0972 26.648V22.784H75.0772V26.72C75.0772 27.98 75.9172 28.892 77.0692 28.892C77.9452 28.892 78.6292 28.388 78.9772 27.752V28.736H79.9612ZM85.1898 28.7V27.848C84.9378 27.944 84.5178 28.016 84.1458 28.016C83.3898 28.016 83.0898 27.644 83.0898 27.08V23.624H85.1538V22.784H83.0898V21.332H82.0698V22.784H81.1938V23.624H82.0698V27.248C82.0698 28.292 82.7778 28.892 83.9658 28.892C84.4098 28.892 84.9258 28.796 85.1898 28.7ZM89.7132 28.7V27.848C89.4612 27.944 89.0412 28.016 88.6692 28.016C87.9132 28.016 87.6132 27.644 87.6132 27.08V23.624H89.6772V22.784H87.6132V21.332H86.5932V22.784H85.7172V23.624H86.5932V27.248C86.5932 28.292 87.3012 28.892 88.4892 28.892C88.9332 28.892 89.4492 28.796 89.7132 28.7ZM96.1221 25.772C96.1221 23.948 94.9101 22.628 93.2421 22.628C91.5741 22.628 90.3501 23.948 90.3501 25.772C90.3501 27.572 91.5741 28.892 93.2421 28.892C94.9101 28.892 96.1221 27.572 96.1221 25.772ZM91.4301 25.772C91.4301 24.452 92.1861 23.48 93.2421 23.48C94.2861 23.48 95.0421 24.452 95.0421 25.772C95.0421 27.068 94.2861 28.028 93.2421 28.028C92.1861 28.028 91.4301 27.068 91.4301 25.772ZM102.854 28.04C102.29 28.04 101.666 27.74 101.306 27.308V24.416C101.618 23.936 102.206 23.468 102.902 23.468C103.898 23.468 104.642 24.368 104.642 25.736C104.642 27.092 103.898 28.04 102.854 28.04ZM105.722 25.736C105.722 23.912 104.57 22.628 103.166 22.628C102.254 22.628 101.582 23.18 101.27 23.672V22.784H100.286V30.92H101.306V28.112C101.69 28.58 102.35 28.892 103.058 28.892C104.558 28.892 105.722 27.56 105.722 25.736ZM111.906 27.38L111.09 27.068C110.778 27.68 110.202 28.052 109.554 28.052C108.558 28.052 107.838 27.224 107.766 25.976H111.894C111.93 25.82 111.954 25.496 111.954 25.232C111.954 23.708 110.91 22.628 109.458 22.628C107.874 22.628 106.698 23.972 106.698 25.808C106.698 27.608 107.874 28.892 109.494 28.892C110.562 28.892 111.486 28.328 111.906 27.38ZM109.47 23.456C110.31 23.456 110.898 24.128 110.934 25.16H107.826C108.006 24.128 108.642 23.456 109.47 23.456ZM114.408 28.736V25.184C114.504 24.392 114.984 23.648 115.908 23.648C116.112 23.648 116.4 23.684 116.568 23.732V22.724C116.448 22.676 116.16 22.628 115.956 22.628C115.26 22.628 114.612 23.24 114.372 23.996V22.784H113.388V28.736H114.408ZM118.755 22.784H117.735V28.736H118.755V22.784ZM118.755 20.42H117.735V21.608H118.755V20.42ZM125.935 25.772C125.935 23.948 124.723 22.628 123.055 22.628C121.387 22.628 120.163 23.948 120.163 25.772C120.163 27.572 121.387 28.892 123.055 28.892C124.723 28.892 125.935 27.572 125.935 25.772ZM121.243 25.772C121.243 24.452 121.999 23.48 123.055 23.48C124.099 23.48 124.855 24.452 124.855 25.772C124.855 27.068 124.099 28.028 123.055 28.028C121.999 28.028 121.243 27.068 121.243 25.772ZM129.697 28.04C128.701 28.04 127.993 27.092 127.993 25.796C127.993 24.464 128.737 23.492 129.769 23.492C130.405 23.492 130.993 23.78 131.305 24.236V27.176C130.957 27.692 130.321 28.04 129.697 28.04ZM132.325 28.736V20.288H131.305V23.432C130.897 22.952 130.201 22.628 129.553 22.628C128.017 22.628 126.901 23.96 126.901 25.808C126.901 27.596 127.981 28.892 129.469 28.892C130.153 28.892 130.921 28.472 131.365 27.884V28.736H132.325ZM139.505 25.772C139.505 23.948 138.293 22.628 136.625 22.628C134.957 22.628 133.733 23.948 133.733 25.772C133.733 27.572 134.957 28.892 136.625 28.892C138.293 28.892 139.505 27.572 139.505 25.772ZM134.813 25.772C134.813 24.452 135.569 23.48 136.625 23.48C137.669 23.48 138.425 24.452 138.425 25.772C138.425 27.068 137.669 28.028 136.625 28.028C135.569 28.028 134.813 27.068 134.813 25.772ZM146.237 28.04C145.673 28.04 145.049 27.74 144.689 27.308V24.416C145.001 23.936 145.589 23.468 146.285 23.468C147.281 23.468 148.025 24.368 148.025 25.736C148.025 27.092 147.281 28.04 146.237 28.04ZM149.105 25.736C149.105 23.912 147.953 22.628 146.549 22.628C145.637 22.628 144.965 23.18 144.653 23.672V22.784H143.669V30.92H144.689V28.112C145.073 28.58 145.733 28.892 146.441 28.892C147.941 28.892 149.105 27.56 149.105 25.736ZM155.289 27.38L154.473 27.068C154.161 27.68 153.585 28.052 152.937 28.052C151.941 28.052 151.221 27.224 151.149 25.976H155.277C155.313 25.82 155.337 25.496 155.337 25.232C155.337 23.708 154.293 22.628 152.841 22.628C151.257 22.628 150.081 23.972 150.081 25.808C150.081 27.608 151.257 28.892 152.877 28.892C153.945 28.892 154.869 28.328 155.289 27.38ZM152.853 23.456C153.693 23.456 154.281 24.128 154.317 25.16H151.209C151.389 24.128 152.025 23.456 152.853 23.456ZM157.791 28.736V25.184C157.887 24.392 158.367 23.648 159.291 23.648C159.495 23.648 159.783 23.684 159.951 23.732V22.724C159.831 22.676 159.543 22.628 159.339 22.628C158.643 22.628 157.995 23.24 157.755 23.996V22.784H156.771V28.736H157.791ZM166.987 28.7V27.848C166.735 27.944 166.315 28.016 165.943 28.016C165.187 28.016 164.887 27.644 164.887 27.08V23.624H166.951V22.784H164.887V21.332H163.867V22.784H162.991V23.624H163.867V27.248C163.867 28.292 164.575 28.892 165.763 28.892C166.207 28.892 166.723 28.796 166.987 28.7ZM172.926 28.736V22.784H171.906V26.888C171.606 27.548 171.03 28.028 170.322 28.028C169.59 28.028 169.062 27.452 169.062 26.648V22.784H168.042V26.72C168.042 27.98 168.882 28.892 170.034 28.892C170.91 28.892 171.594 28.388 171.942 27.752V28.736H172.926ZM178.155 28.7V27.848C177.903 27.944 177.483 28.016 177.111 28.016C176.355 28.016 176.055 27.644 176.055 27.08V23.624H178.119V22.784H176.055V21.332H175.035V22.784H174.159V23.624H175.035V27.248C175.035 28.292 175.743 28.892 176.931 28.892C177.375 28.892 177.891 28.796 178.155 28.7ZM182.678 28.7V27.848C182.426 27.944 182.006 28.016 181.634 28.016C180.878 28.016 180.578 27.644 180.578 27.08V23.624H182.642V22.784H180.578V21.332H179.558V22.784H178.682V23.624H179.558V27.248C179.558 28.292 180.266 28.892 181.454 28.892C181.898 28.892 182.414 28.796 182.678 28.7ZM184.837 22.784H183.817V28.736H184.837V22.784ZM184.837 20.42H183.817V21.608H184.837V20.42ZM187.697 28.736V27.14H186.497V28.736H187.697ZM198.234 25.82V20.972H197.178V25.856C197.178 27.164 196.47 27.896 195.222 27.896C193.974 27.896 193.266 27.164 193.266 25.856V20.972H192.162V25.82C192.162 27.68 193.278 28.868 195.21 28.868C197.13 28.868 198.234 27.68 198.234 25.82ZM205.064 28.736V24.8C205.064 23.528 204.176 22.628 203.012 22.628C202.16 22.628 201.44 23.132 201.044 23.696V22.784H200.06V28.736H201.08V24.416C201.452 23.888 202.1 23.492 202.772 23.492C203.516 23.492 204.044 24.044 204.044 24.872V28.736H205.064ZM211.777 28.832L211.825 28.052C211.753 28.064 211.633 28.076 211.561 28.076C211.201 28.076 211.021 27.824 211.021 27.5V24.764C211.021 23.384 210.181 22.628 208.885 22.628C207.853 22.628 206.953 23.204 206.521 24.14L207.313 24.464C207.613 23.9 208.081 23.48 208.789 23.48C209.521 23.48 210.001 23.984 210.001 24.728V25.196L208.609 25.364C207.289 25.532 206.353 26.168 206.353 27.272C206.353 28.22 207.109 28.892 208.165 28.892C209.005 28.892 209.665 28.484 210.049 27.848C210.193 28.532 210.637 28.892 211.309 28.892C211.489 28.892 211.633 28.868 211.777 28.832ZM208.441 28.064C207.841 28.064 207.421 27.704 207.421 27.2C207.421 26.588 207.997 26.228 208.789 26.132L210.001 25.988V27.08C209.689 27.656 209.101 28.064 208.441 28.064ZM220.301 27.272L219.437 26.936C219.149 27.596 218.669 28.016 218.009 28.016C217.037 28.016 216.329 27.092 216.329 25.808C216.329 24.464 217.013 23.492 217.961 23.492C218.561 23.492 219.077 23.864 219.365 24.56L220.253 24.2C219.833 23.24 219.029 22.628 217.937 22.628C216.377 22.628 215.249 23.96 215.249 25.808C215.249 27.596 216.389 28.892 217.973 28.892C219.065 28.892 219.917 28.208 220.301 27.272ZM226.472 28.832L226.52 28.052C226.448 28.064 226.328 28.076 226.256 28.076C225.896 28.076 225.716 27.824 225.716 27.5V24.764C225.716 23.384 224.876 22.628 223.58 22.628C222.548 22.628 221.648 23.204 221.216 24.14L222.008 24.464C222.308 23.9 222.776 23.48 223.484 23.48C224.216 23.48 224.696 23.984 224.696 24.728V25.196L223.304 25.364C221.984 25.532 221.048 26.168 221.048 27.272C221.048 28.22 221.804 28.892 222.86 28.892C223.7 28.892 224.36 28.484 224.744 27.848C224.888 28.532 225.332 28.892 226.004 28.892C226.184 28.892 226.328 28.868 226.472 28.832ZM223.136 28.064C222.536 28.064 222.116 27.704 222.116 27.2C222.116 26.588 222.692 26.228 223.484 26.132L224.696 25.988V27.08C224.384 27.656 223.796 28.064 223.136 28.064ZM230.994 28.7V27.848C230.742 27.944 230.322 28.016 229.95 28.016C229.194 28.016 228.894 27.644 228.894 27.08V23.624H230.958V22.784H228.894V21.332H227.874V22.784H226.998V23.624H227.874V27.248C227.874 28.292 228.582 28.892 229.77 28.892C230.214 28.892 230.73 28.796 230.994 28.7ZM237.066 28.832L237.114 28.052C237.042 28.064 236.922 28.076 236.85 28.076C236.49 28.076 236.31 27.824 236.31 27.5V24.764C236.31 23.384 235.47 22.628 234.174 22.628C233.142 22.628 232.242 23.204 231.81 24.14L232.602 24.464C232.902 23.9 233.37 23.48 234.078 23.48C234.81 23.48 235.29 23.984 235.29 24.728V25.196L233.898 25.364C232.578 25.532 231.642 26.168 231.642 27.272C231.642 28.22 232.398 28.892 233.454 28.892C234.294 28.892 234.954 28.484 235.338 27.848C235.482 28.532 235.926 28.892 236.598 28.892C236.778 28.892 236.922 28.868 237.066 28.832ZM233.73 28.064C233.13 28.064 232.71 27.704 232.71 27.2C232.71 26.588 233.286 26.228 234.078 26.132L235.29 25.988V27.08C234.978 27.656 234.39 28.064 233.73 28.064ZM242.752 27.104C242.752 26 241.816 25.544 240.472 25.256C239.464 25.028 238.888 24.848 238.888 24.32C238.888 23.816 239.452 23.468 240.244 23.468C241.072 23.468 241.624 23.816 241.9 24.392L242.716 24.068C242.368 23.336 241.636 22.628 240.256 22.628C238.852 22.628 237.892 23.372 237.892 24.38C237.892 25.412 238.864 25.892 240.184 26.168C241.204 26.384 241.768 26.588 241.768 27.152C241.768 27.692 241.264 28.064 240.388 28.064C239.392 28.064 238.756 27.62 238.456 27.032L237.616 27.356C238.024 28.292 238.984 28.892 240.34 28.892C241.852 28.892 242.752 28.16 242.752 27.104ZM247.483 28.7V27.848C247.231 27.944 246.811 28.016 246.439 28.016C245.683 28.016 245.383 27.644 245.383 27.08V23.624H247.447V22.784H245.383V21.332H244.363V22.784H243.487V23.624H244.363V27.248C244.363 28.292 245.071 28.892 246.259 28.892C246.703 28.892 247.219 28.796 247.483 28.7ZM249.642 28.736V25.184C249.738 24.392 250.218 23.648 251.142 23.648C251.346 23.648 251.634 23.684 251.802 23.732V22.724C251.682 22.676 251.394 22.628 251.19 22.628C250.494 22.628 249.846 23.24 249.606 23.996V22.784H248.622V28.736H249.642ZM258.134 25.772C258.134 23.948 256.922 22.628 255.254 22.628C253.586 22.628 252.362 23.948 252.362 25.772C252.362 27.572 253.586 28.892 255.254 28.892C256.922 28.892 258.134 27.572 258.134 25.772ZM253.442 25.772C253.442 24.452 254.198 23.48 255.254 23.48C256.298 23.48 257.054 24.452 257.054 25.772C257.054 27.068 256.298 28.028 255.254 28.028C254.198 28.028 253.442 27.068 253.442 25.772ZM262.907 23.624V22.784H260.735V22.544C260.735 21.56 261.227 20.984 262.019 20.984C262.343 20.984 262.739 21.044 263.003 21.152L263.027 20.3C262.751 20.216 262.271 20.132 261.911 20.132C260.543 20.132 259.715 21.032 259.715 22.556V22.784H258.947V23.624H259.715V28.736H260.735V23.624H262.907ZM268.433 27.38L267.617 27.068C267.305 27.68 266.729 28.052 266.081 28.052C265.085 28.052 264.365 27.224 264.293 25.976H268.421C268.457 25.82 268.481 25.496 268.481 25.232C268.481 23.708 267.437 22.628 265.985 22.628C264.401 22.628 263.225 23.972 263.225 25.808C263.225 27.608 264.401 28.892 266.021 28.892C267.089 28.892 268.013 28.328 268.433 27.38ZM265.997 23.456C266.837 23.456 267.425 24.128 267.461 25.16H264.353C264.533 24.128 265.169 23.456 265.997 23.456ZM277.301 27.272L276.437 26.936C276.149 27.596 275.669 28.016 275.009 28.016C274.037 28.016 273.329 27.092 273.329 25.808C273.329 24.464 274.013 23.492 274.961 23.492C275.561 23.492 276.077 23.864 276.365 24.56L277.253 24.2C276.833 23.24 276.029 22.628 274.937 22.628C273.377 22.628 272.249 23.96 272.249 25.808C272.249 27.596 273.389 28.892 274.973 28.892C276.065 28.892 276.917 28.208 277.301 27.272ZM283.544 28.736V24.812C283.544 23.528 282.656 22.628 281.492 22.628C280.664 22.628 279.956 23.096 279.56 23.648V20.288H278.54V28.736H279.56V24.416C279.932 23.888 280.58 23.492 281.252 23.492C281.996 23.492 282.524 24.044 282.524 24.872V28.736H283.544ZM290.101 27.38L289.285 27.068C288.973 27.68 288.397 28.052 287.749 28.052C286.753 28.052 286.033 27.224 285.961 25.976H290.089C290.125 25.82 290.149 25.496 290.149 25.232C290.149 23.708 289.105 22.628 287.653 22.628C286.069 22.628 284.893 23.972 284.893 25.808C284.893 27.608 286.069 28.892 287.689 28.892C288.757 28.892 289.681 28.328 290.101 27.38ZM287.665 23.456C288.505 23.456 289.093 24.128 289.129 25.16H286.021C286.201 24.128 286.837 23.456 287.665 23.456ZM36.677 43.736V39.8C36.677 38.528 35.789 37.628 34.625 37.628C33.773 37.628 33.053 38.132 32.657 38.696V37.784H31.673V43.736H32.693V39.416C33.065 38.888 33.713 38.492 34.385 38.492C35.129 38.492 35.657 39.044 35.657 39.872V43.736H36.677ZM43.2341 42.38L42.4181 42.068C42.1061 42.68 41.5301 43.052 40.8821 43.052C39.8861 43.052 39.1661 42.224 39.0941 40.976H43.2221C43.2581 40.82 43.2821 40.496 43.2821 40.232C43.2821 38.708 42.2381 37.628 40.7861 37.628C39.2021 37.628 38.0261 38.972 38.0261 40.808C38.0261 42.608 39.2021 43.892 40.8221 43.892C41.8901 43.892 42.8141 43.328 43.2341 42.38ZM40.7981 38.456C41.6381 38.456 42.2261 39.128 42.2621 40.16H39.1541C39.3341 39.128 39.9701 38.456 40.7981 38.456ZM49.2639 42.104C49.2639 41 48.3279 40.544 46.9839 40.256C45.9759 40.028 45.3999 39.848 45.3999 39.32C45.3999 38.816 45.9639 38.468 46.7559 38.468C47.5839 38.468 48.1359 38.816 48.4119 39.392L49.2279 39.068C48.8799 38.336 48.1479 37.628 46.7679 37.628C45.3639 37.628 44.4039 38.372 44.4039 39.38C44.4039 40.412 45.3759 40.892 46.6959 41.168C47.7159 41.384 48.2799 41.588 48.2799 42.152C48.2799 42.692 47.7759 43.064 46.8999 43.064C45.9039 43.064 45.2679 42.62 44.9679 42.032L44.1279 42.356C44.5359 43.292 45.4959 43.892 46.8519 43.892C48.3639 43.892 49.2639 43.16 49.2639 42.104ZM55.2053 42.104C55.2053 41 54.2693 40.544 52.9253 40.256C51.9173 40.028 51.3413 39.848 51.3413 39.32C51.3413 38.816 51.9053 38.468 52.6973 38.468C53.5253 38.468 54.0773 38.816 54.3533 39.392L55.1693 39.068C54.8213 38.336 54.0893 37.628 52.7093 37.628C51.3053 37.628 50.3453 38.372 50.3453 39.38C50.3453 40.412 51.3173 40.892 52.6373 41.168C53.6573 41.384 54.2213 41.588 54.2213 42.152C54.2213 42.692 53.7173 43.064 52.8413 43.064C51.8453 43.064 51.2093 42.62 50.9093 42.032L50.0693 42.356C50.4773 43.292 51.4373 43.892 52.7933 43.892C54.3053 43.892 55.2053 43.16 55.2053 42.104ZM61.3987 43.736V37.784H60.3787V41.888C60.0787 42.548 59.5027 43.028 58.7947 43.028C58.0627 43.028 57.5347 42.452 57.5347 41.648V37.784H56.5147V41.72C56.5147 42.98 57.3547 43.892 58.5067 43.892C59.3827 43.892 60.0667 43.388 60.4147 42.752V43.736H61.3987ZM68.2473 43.736V39.8C68.2473 38.528 67.3593 37.628 66.1953 37.628C65.3433 37.628 64.6233 38.132 64.2273 38.696V37.784H63.2433V43.736H64.2633V39.416C64.6353 38.888 65.2833 38.492 65.9553 38.492C66.6993 38.492 67.2273 39.044 67.2273 39.872V43.736H68.2473ZM75.3564 40.772C75.3564 38.948 74.1444 37.628 72.4764 37.628C70.8084 37.628 69.5844 38.948 69.5844 40.772C69.5844 42.572 70.8084 43.892 72.4764 43.892C74.1444 43.892 75.3564 42.572 75.3564 40.772ZM70.6644 40.772C70.6644 39.452 71.4204 38.48 72.4764 38.48C73.5204 38.48 74.2764 39.452 74.2764 40.772C74.2764 42.068 73.5204 43.028 72.4764 43.028C71.4204 43.028 70.6644 42.068 70.6644 40.772ZM84.4526 43.832L84.5006 43.052C84.4286 43.064 84.3086 43.076 84.2366 43.076C83.8766 43.076 83.6966 42.824 83.6966 42.5V39.764C83.6966 38.384 82.8566 37.628 81.5606 37.628C80.5286 37.628 79.6286 38.204 79.1966 39.14L79.9886 39.464C80.2886 38.9 80.7566 38.48 81.4646 38.48C82.1966 38.48 82.6766 38.984 82.6766 39.728V40.196L81.2846 40.364C79.9646 40.532 79.0286 41.168 79.0286 42.272C79.0286 43.22 79.7846 43.892 80.8406 43.892C81.6806 43.892 82.3406 43.484 82.7246 42.848C82.8686 43.532 83.3126 43.892 83.9846 43.892C84.1646 43.892 84.3086 43.868 84.4526 43.832ZM81.1166 43.064C80.5166 43.064 80.0966 42.704 80.0966 42.2C80.0966 41.588 80.6726 41.228 81.4646 41.132L82.6766 40.988V42.08C82.3646 42.656 81.7766 43.064 81.1166 43.064ZM84.79 37.784L86.938 43.736H87.994L90.13 37.784H89.098L87.514 42.416H87.478L85.894 37.784H84.79ZM92.3414 43.736V40.184C92.4374 39.392 92.9174 38.648 93.8414 38.648C94.0454 38.648 94.3334 38.684 94.5014 38.732V37.724C94.3814 37.676 94.0934 37.628 93.8894 37.628C93.1934 37.628 92.5454 38.24 92.3054 38.996V37.784H91.3214V43.736H92.3414ZM100.281 42.38L99.465 42.068C99.153 42.68 98.577 43.052 97.929 43.052C96.933 43.052 96.213 42.224 96.141 40.976H100.269C100.305 40.82 100.329 40.496 100.329 40.232C100.329 38.708 99.285 37.628 97.833 37.628C96.249 37.628 95.073 38.972 95.073 40.808C95.073 42.608 96.249 43.892 97.869 43.892C98.937 43.892 99.861 43.328 100.281 42.38ZM97.845 38.456C98.685 38.456 99.273 39.128 99.309 40.16H96.201C96.381 39.128 97.017 38.456 97.845 38.456ZM107.199 40.736C107.199 38.936 106.131 37.628 104.667 37.628C103.983 37.628 103.227 38.012 102.783 38.576V35.288H101.763V43.736H102.723V43.016C103.179 43.532 103.923 43.892 104.571 43.892C106.095 43.892 107.199 42.572 107.199 40.736ZM104.331 43.04C103.707 43.04 103.107 42.716 102.783 42.272V39.308C103.107 38.816 103.743 38.492 104.391 38.492C105.387 38.492 106.119 39.428 106.119 40.724C106.119 42.056 105.363 43.04 104.331 43.04ZM114.054 40.736C114.054 38.936 112.986 37.628 111.522 37.628C110.838 37.628 110.082 38.012 109.638 38.576V35.288H108.618V43.736H109.578V43.016C110.034 43.532 110.778 43.892 111.426 43.892C112.95 43.892 114.054 42.572 114.054 40.736ZM111.186 43.04C110.562 43.04 109.962 42.716 109.638 42.272V39.308C109.962 38.816 110.598 38.492 111.246 38.492C112.242 38.492 112.974 39.428 112.974 40.724C112.974 42.056 112.218 43.04 111.186 43.04ZM120.25 42.38L119.434 42.068C119.122 42.68 118.546 43.052 117.898 43.052C116.902 43.052 116.182 42.224 116.11 40.976H120.238C120.274 40.82 120.298 40.496 120.298 40.232C120.298 38.708 119.254 37.628 117.802 37.628C116.218 37.628 115.042 38.972 115.042 40.808C115.042 42.608 116.218 43.892 117.838 43.892C118.906 43.892 119.83 43.328 120.25 42.38ZM117.814 38.456C118.654 38.456 119.242 39.128 119.278 40.16H116.17C116.35 39.128 116.986 38.456 117.814 38.456ZM127.065 43.04C126.501 43.04 125.877 42.74 125.517 42.308V39.416C125.829 38.936 126.417 38.468 127.113 38.468C128.109 38.468 128.853 39.368 128.853 40.736C128.853 42.092 128.109 43.04 127.065 43.04ZM129.933 40.736C129.933 38.912 128.781 37.628 127.377 37.628C126.465 37.628 125.793 38.18 125.481 38.672V37.784H124.497V45.92H125.517V43.112C125.901 43.58 126.561 43.892 127.269 43.892C128.769 43.892 129.933 42.56 129.933 40.736ZM136.669 40.772C136.669 38.948 135.457 37.628 133.789 37.628C132.121 37.628 130.897 38.948 130.897 40.772C130.897 42.572 132.121 43.892 133.789 43.892C135.457 43.892 136.669 42.572 136.669 40.772ZM131.977 40.772C131.977 39.452 132.733 38.48 133.789 38.48C134.833 38.48 135.589 39.452 135.589 40.772C135.589 42.068 134.833 43.028 133.789 43.028C132.733 43.028 131.977 42.068 131.977 40.772ZM141.369 43.7V42.848C141.117 42.944 140.697 43.016 140.325 43.016C139.569 43.016 139.269 42.644 139.269 42.08V38.624H141.333V37.784H139.269V36.332H138.249V37.784H137.373V38.624H138.249V42.248C138.249 43.292 138.957 43.892 140.145 43.892C140.589 43.892 141.105 43.796 141.369 43.7ZM147.309 43.736V37.784H146.289V41.888C145.989 42.548 145.413 43.028 144.705 43.028C143.973 43.028 143.445 42.452 143.445 41.648V37.784H142.425V41.72C142.425 42.98 143.265 43.892 144.417 43.892C145.293 43.892 145.977 43.388 146.325 42.752V43.736H147.309ZM152.537 43.7V42.848C152.285 42.944 151.865 43.016 151.493 43.016C150.737 43.016 150.437 42.644 150.437 42.08V38.624H152.501V37.784H150.437V36.332H149.417V37.784H148.541V38.624H149.417V42.248C149.417 43.292 150.125 43.892 151.313 43.892C151.757 43.892 152.273 43.796 152.537 43.7ZM158.946 40.772C158.946 38.948 157.734 37.628 156.066 37.628C154.398 37.628 153.174 38.948 153.174 40.772C153.174 42.572 154.398 43.892 156.066 43.892C157.734 43.892 158.946 42.572 158.946 40.772ZM154.254 40.772C154.254 39.452 155.01 38.48 156.066 38.48C157.11 38.48 157.866 39.452 157.866 40.772C157.866 42.068 157.11 43.028 156.066 43.028C155.01 43.028 154.254 42.068 154.254 40.772ZM164.13 37.784H163.11V43.736H164.13V37.784ZM164.13 35.42H163.11V36.608H164.13V35.42ZM174.334 43.736V39.8C174.334 38.528 173.47 37.628 172.354 37.628C171.562 37.628 170.866 38.108 170.446 38.744C170.122 38.06 169.498 37.628 168.766 37.628C167.974 37.628 167.314 38.132 166.966 38.696V37.784H165.982V43.736H167.002V39.392C167.338 38.888 167.914 38.492 168.502 38.492C169.162 38.492 169.642 39.044 169.642 39.872V43.736H170.662V39.8C170.662 39.62 170.65 39.452 170.614 39.284C170.974 38.828 171.55 38.492 172.126 38.492C172.81 38.492 173.314 39.044 173.314 39.872V43.736H174.334ZM184.447 43.736V39.8C184.447 38.528 183.583 37.628 182.467 37.628C181.675 37.628 180.979 38.108 180.559 38.744C180.235 38.06 179.611 37.628 178.879 37.628C178.087 37.628 177.427 38.132 177.079 38.696V37.784H176.095V43.736H177.115V39.392C177.451 38.888 178.027 38.492 178.615 38.492C179.275 38.492 179.755 39.044 179.755 39.872V43.736H180.775V39.8C180.775 39.62 180.763 39.452 180.727 39.284C181.087 38.828 181.663 38.492 182.239 38.492C182.923 38.492 183.427 39.044 183.427 39.872V43.736H184.447ZM191.14 43.832L191.188 43.052C191.116 43.064 190.996 43.076 190.924 43.076C190.564 43.076 190.384 42.824 190.384 42.5V39.764C190.384 38.384 189.544 37.628 188.248 37.628C187.216 37.628 186.316 38.204 185.884 39.14L186.676 39.464C186.976 38.9 187.444 38.48 188.152 38.48C188.884 38.48 189.364 38.984 189.364 39.728V40.196L187.972 40.364C186.652 40.532 185.716 41.168 185.716 42.272C185.716 43.22 186.472 43.892 187.528 43.892C188.368 43.892 189.028 43.484 189.412 42.848C189.556 43.532 190 43.892 190.672 43.892C190.852 43.892 190.996 43.868 191.14 43.832ZM187.804 43.064C187.204 43.064 186.784 42.704 186.784 42.2C186.784 41.588 187.36 41.228 188.152 41.132L189.364 40.988V42.08C189.052 42.656 188.464 43.064 187.804 43.064ZM197.438 44.132C197.438 43.268 196.802 42.812 195.446 42.692L194.606 42.62C193.766 42.548 193.466 42.404 193.466 42.224C193.466 42.08 193.598 41.876 193.718 41.744C193.922 41.792 194.15 41.816 194.366 41.816C195.662 41.816 196.718 40.976 196.718 39.812C196.718 39.38 196.586 38.972 196.334 38.624C196.658 38.456 197.174 38.312 197.654 38.312V37.4C196.922 37.4 196.346 37.748 195.986 38.24C195.554 37.868 194.966 37.628 194.294 37.628C192.962 37.628 191.918 38.54 191.918 39.74C191.918 40.592 192.446 41.24 193.19 41.576C192.806 41.84 192.482 42.248 192.482 42.524C192.482 42.764 192.65 42.968 192.95 43.124C192.206 43.436 191.666 43.976 191.666 44.516C191.666 45.5 192.758 46.076 194.426 46.076C196.274 46.076 197.438 45.26 197.438 44.132ZM194.438 45.296C193.322 45.296 192.686 44.888 192.686 44.36C192.686 43.952 193.058 43.556 193.562 43.34C193.802 43.4 194.078 43.448 194.39 43.472L195.23 43.544C196.19 43.628 196.43 43.856 196.43 44.288C196.43 44.852 195.65 45.296 194.438 45.296ZM192.938 39.752C192.938 38.996 193.514 38.408 194.306 38.408C195.098 38.408 195.698 38.996 195.698 39.752C195.698 40.496 195.098 41.036 194.306 41.036C193.514 41.036 192.938 40.496 192.938 39.752ZM199.802 37.784H198.782V43.736H199.802V37.784ZM199.802 35.42H198.782V36.608H199.802V35.42ZM206.657 43.736V39.8C206.657 38.528 205.769 37.628 204.605 37.628C203.753 37.628 203.033 38.132 202.637 38.696V37.784H201.653V43.736H202.673V39.416C203.045 38.888 203.693 38.492 204.365 38.492C205.109 38.492 205.637 39.044 205.637 39.872V43.736H206.657ZM213.371 43.832L213.419 43.052C213.347 43.064 213.227 43.076 213.155 43.076C212.795 43.076 212.615 42.824 212.615 42.5V39.764C212.615 38.384 211.775 37.628 210.479 37.628C209.447 37.628 208.547 38.204 208.115 39.14L208.907 39.464C209.207 38.9 209.675 38.48 210.383 38.48C211.115 38.48 211.595 38.984 211.595 39.728V40.196L210.203 40.364C208.883 40.532 207.947 41.168 207.947 42.272C207.947 43.22 208.703 43.892 209.759 43.892C210.599 43.892 211.259 43.484 211.643 42.848C211.787 43.532 212.231 43.892 212.903 43.892C213.083 43.892 213.227 43.868 213.371 43.832ZM210.035 43.064C209.435 43.064 209.015 42.704 209.015 42.2C209.015 41.588 209.591 41.228 210.383 41.132L211.595 40.988V42.08C211.283 42.656 210.695 43.064 210.035 43.064ZM215.529 43.736V40.184C215.625 39.392 216.105 38.648 217.029 38.648C217.233 38.648 217.521 38.684 217.689 38.732V37.724C217.569 37.676 217.281 37.628 217.077 37.628C216.381 37.628 215.733 38.24 215.493 38.996V37.784H214.509V43.736H215.529ZM223.468 42.38L222.652 42.068C222.34 42.68 221.764 43.052 221.116 43.052C220.12 43.052 219.4 42.224 219.328 40.976H223.456C223.492 40.82 223.516 40.496 223.516 40.232C223.516 38.708 222.472 37.628 221.02 37.628C219.436 37.628 218.26 38.972 218.26 40.808C218.26 42.608 219.436 43.892 221.056 43.892C222.124 43.892 223.048 43.328 223.468 42.38ZM221.032 38.456C221.872 38.456 222.46 39.128 222.496 40.16H219.388C219.568 39.128 220.204 38.456 221.032 38.456ZM225.958 43.472V42.14H224.758V43.664H225.322C225.322 44.276 225.118 44.732 224.662 45.224L225.082 45.62C225.67 45.02 225.958 44.3 225.958 43.472ZM234.924 42.104C234.924 41 233.988 40.544 232.644 40.256C231.636 40.028 231.06 39.848 231.06 39.32C231.06 38.816 231.624 38.468 232.416 38.468C233.244 38.468 233.796 38.816 234.072 39.392L234.888 39.068C234.54 38.336 233.808 37.628 232.428 37.628C231.024 37.628 230.064 38.372 230.064 39.38C230.064 40.412 231.036 40.892 232.356 41.168C233.376 41.384 233.94 41.588 233.94 42.152C233.94 42.692 233.436 43.064 232.56 43.064C231.564 43.064 230.928 42.62 230.628 42.032L229.788 42.356C230.196 43.292 231.156 43.892 232.512 43.892C234.024 43.892 234.924 43.16 234.924 42.104ZM241.249 43.832L241.297 43.052C241.225 43.064 241.105 43.076 241.033 43.076C240.673 43.076 240.493 42.824 240.493 42.5V39.764C240.493 38.384 239.653 37.628 238.357 37.628C237.325 37.628 236.425 38.204 235.993 39.14L236.785 39.464C237.085 38.9 237.553 38.48 238.261 38.48C238.993 38.48 239.473 38.984 239.473 39.728V40.196L238.081 40.364C236.761 40.532 235.825 41.168 235.825 42.272C235.825 43.22 236.581 43.892 237.637 43.892C238.477 43.892 239.137 43.484 239.521 42.848C239.665 43.532 240.109 43.892 240.781 43.892C240.961 43.892 241.105 43.868 241.249 43.832ZM237.913 43.064C237.313 43.064 236.893 42.704 236.893 42.2C236.893 41.588 237.469 41.228 238.261 41.132L239.473 40.988V42.08C239.161 42.656 238.573 43.064 237.913 43.064ZM243.408 43.736V40.184C243.504 39.392 243.984 38.648 244.908 38.648C245.112 38.648 245.4 38.684 245.568 38.732V37.724C245.448 37.676 245.16 37.628 244.956 37.628C244.26 37.628 243.612 38.24 243.372 38.996V37.784H242.388V43.736H243.408ZM251.347 42.38L250.531 42.068C250.219 42.68 249.643 43.052 248.995 43.052C247.999 43.052 247.279 42.224 247.207 40.976H251.335C251.371 40.82 251.395 40.496 251.395 40.232C251.395 38.708 250.351 37.628 248.899 37.628C247.315 37.628 246.139 38.972 246.139 40.808C246.139 42.608 247.315 43.892 248.935 43.892C250.003 43.892 250.927 43.328 251.347 42.38ZM248.911 38.456C249.751 38.456 250.339 39.128 250.375 40.16H247.267C247.447 39.128 248.083 38.456 248.911 38.456ZM258.265 40.736C258.265 38.936 257.197 37.628 255.733 37.628C255.049 37.628 254.293 38.012 253.849 38.576V35.288H252.829V43.736H253.789V43.016C254.245 43.532 254.989 43.892 255.637 43.892C257.161 43.892 258.265 42.572 258.265 40.736ZM255.397 43.04C254.773 43.04 254.173 42.716 253.849 42.272V39.308C254.173 38.816 254.809 38.492 255.457 38.492C256.453 38.492 257.185 39.428 257.185 40.724C257.185 42.056 256.429 43.04 255.397 43.04ZM265.121 40.736C265.121 38.936 264.053 37.628 262.589 37.628C261.905 37.628 261.149 38.012 260.705 38.576V35.288H259.685V43.736H260.645V43.016C261.101 43.532 261.845 43.892 262.493 43.892C264.017 43.892 265.121 42.572 265.121 40.736ZM262.253 43.04C261.629 43.04 261.029 42.716 260.705 42.272V39.308C261.029 38.816 261.665 38.492 262.313 38.492C263.309 38.492 264.041 39.428 264.041 40.724C264.041 42.056 263.285 43.04 262.253 43.04ZM271.316 42.38L270.5 42.068C270.188 42.68 269.612 43.052 268.964 43.052C267.968 43.052 267.248 42.224 267.176 40.976H271.304C271.34 40.82 271.364 40.496 271.364 40.232C271.364 38.708 270.32 37.628 268.868 37.628C267.284 37.628 266.108 38.972 266.108 40.808C266.108 42.608 267.284 43.892 268.904 43.892C269.972 43.892 270.896 43.328 271.316 42.38ZM268.88 38.456C269.72 38.456 270.308 39.128 270.344 40.16H267.236C267.416 39.128 268.052 38.456 268.88 38.456ZM36.221 57.104C36.221 56 35.285 55.544 33.941 55.256C32.933 55.028 32.357 54.848 32.357 54.32C32.357 53.816 32.921 53.468 33.713 53.468C34.541 53.468 35.093 53.816 35.369 54.392L36.185 54.068C35.837 53.336 35.105 52.628 33.725 52.628C32.321 52.628 31.361 53.372 31.361 54.38C31.361 55.412 32.333 55.892 33.653 56.168C34.673 56.384 35.237 56.588 35.237 57.152C35.237 57.692 34.733 58.064 33.857 58.064C32.861 58.064 32.225 57.62 31.925 57.032L31.085 57.356C31.493 58.292 32.453 58.892 33.809 58.892C35.321 58.892 36.221 58.16 36.221 57.104ZM40.9515 58.7V57.848C40.6995 57.944 40.2795 58.016 39.9075 58.016C39.1515 58.016 38.8515 57.644 38.8515 57.08V53.624H40.9155V52.784H38.8515V51.332H37.8315V52.784H36.9555V53.624H37.8315V57.248C37.8315 58.292 38.5395 58.892 39.7275 58.892C40.1715 58.892 40.6875 58.796 40.9515 58.7ZM47.0229 58.832L47.0709 58.052C46.9989 58.064 46.8789 58.076 46.8069 58.076C46.4469 58.076 46.2669 57.824 46.2669 57.5V54.764C46.2669 53.384 45.4269 52.628 44.1309 52.628C43.0989 52.628 42.1989 53.204 41.7669 54.14L42.5589 54.464C42.8589 53.9 43.3269 53.48 44.0349 53.48C44.7669 53.48 45.2469 53.984 45.2469 54.728V55.196L43.8549 55.364C42.5349 55.532 41.5989 56.168 41.5989 57.272C41.5989 58.22 42.3549 58.892 43.4109 58.892C44.2509 58.892 44.9109 58.484 45.2949 57.848C45.4389 58.532 45.8829 58.892 46.5549 58.892C46.7349 58.892 46.8789 58.868 47.0229 58.832ZM43.6869 58.064C43.0869 58.064 42.6669 57.704 42.6669 57.2C42.6669 56.588 43.2429 56.228 44.0349 56.132L45.2469 55.988V57.08C44.9349 57.656 44.3469 58.064 43.6869 58.064ZM51.5452 58.7V57.848C51.2932 57.944 50.8732 58.016 50.5012 58.016C49.7452 58.016 49.4452 57.644 49.4452 57.08V53.624H51.5092V52.784H49.4452V51.332H48.4252V52.784H47.5492V53.624H48.4252V57.248C48.4252 58.292 49.1332 58.892 50.3212 58.892C50.7652 58.892 51.2812 58.796 51.5452 58.7ZM57.9541 55.772C57.9541 53.948 56.7421 52.628 55.0741 52.628C53.4061 52.628 52.1821 53.948 52.1821 55.772C52.1821 57.572 53.4061 58.892 55.0741 58.892C56.7421 58.892 57.9541 57.572 57.9541 55.772ZM53.2621 55.772C53.2621 54.452 54.0181 53.48 55.0741 53.48C56.1181 53.48 56.8741 54.452 56.8741 55.772C56.8741 57.068 56.1181 58.028 55.0741 58.028C54.0181 58.028 53.2621 57.068 53.2621 55.772ZM64.6863 58.04C64.1223 58.04 63.4983 57.74 63.1383 57.308V54.416C63.4503 53.936 64.0383 53.468 64.7343 53.468C65.7303 53.468 66.4743 54.368 66.4743 55.736C66.4743 57.092 65.7303 58.04 64.6863 58.04ZM67.5543 55.736C67.5543 53.912 66.4023 52.628 64.9983 52.628C64.0863 52.628 63.4143 53.18 63.1023 53.672V52.784H62.1183V60.92H63.1383V58.112C63.5223 58.58 64.1823 58.892 64.8903 58.892C66.3903 58.892 67.5543 57.56 67.5543 55.736ZM73.738 57.38L72.922 57.068C72.61 57.68 72.034 58.052 71.386 58.052C70.39 58.052 69.67 57.224 69.598 55.976H73.726C73.762 55.82 73.786 55.496 73.786 55.232C73.786 53.708 72.742 52.628 71.29 52.628C69.706 52.628 68.53 53.972 68.53 55.808C68.53 57.608 69.706 58.892 71.326 58.892C72.394 58.892 73.318 58.328 73.738 57.38ZM71.302 53.456C72.142 53.456 72.73 54.128 72.766 55.16H69.658C69.838 54.128 70.474 53.456 71.302 53.456ZM80.3798 59.132C80.3798 58.268 79.7438 57.812 78.3878 57.692L77.5478 57.62C76.7078 57.548 76.4078 57.404 76.4078 57.224C76.4078 57.08 76.5398 56.876 76.6598 56.744C76.8638 56.792 77.0918 56.816 77.3078 56.816C78.6038 56.816 79.6598 55.976 79.6598 54.812C79.6598 54.38 79.5278 53.972 79.2758 53.624C79.5998 53.456 80.1158 53.312 80.5958 53.312V52.4C79.8638 52.4 79.2878 52.748 78.9278 53.24C78.4958 52.868 77.9078 52.628 77.2358 52.628C75.9038 52.628 74.8598 53.54 74.8598 54.74C74.8598 55.592 75.3878 56.24 76.1318 56.576C75.7478 56.84 75.4238 57.248 75.4238 57.524C75.4238 57.764 75.5918 57.968 75.8918 58.124C75.1478 58.436 74.6078 58.976 74.6078 59.516C74.6078 60.5 75.6998 61.076 77.3678 61.076C79.2158 61.076 80.3798 60.26 80.3798 59.132ZM77.3798 60.296C76.2638 60.296 75.6278 59.888 75.6278 59.36C75.6278 58.952 75.9998 58.556 76.5038 58.34C76.7438 58.4 77.0198 58.448 77.3318 58.472L78.1718 58.544C79.1318 58.628 79.3718 58.856 79.3718 59.288C79.3718 59.852 78.5918 60.296 77.3798 60.296ZM75.8798 54.752C75.8798 53.996 76.4558 53.408 77.2478 53.408C78.0398 53.408 78.6398 53.996 78.6398 54.752C78.6398 55.496 78.0398 56.036 77.2478 56.036C76.4558 56.036 75.8798 55.496 75.8798 54.752ZM86.8252 59.132C86.8252 58.268 86.1892 57.812 84.8332 57.692L83.9932 57.62C83.1531 57.548 82.8532 57.404 82.8532 57.224C82.8532 57.08 82.9851 56.876 83.1052 56.744C83.3092 56.792 83.5372 56.816 83.7532 56.816C85.0492 56.816 86.1052 55.976 86.1052 54.812C86.1052 54.38 85.9732 53.972 85.7212 53.624C86.0452 53.456 86.5612 53.312 87.0412 53.312V52.4C86.3092 52.4 85.7332 52.748 85.3731 53.24C84.9412 52.868 84.3532 52.628 83.6811 52.628C82.3491 52.628 81.3051 53.54 81.3051 54.74C81.3051 55.592 81.8331 56.24 82.5772 56.576C82.1931 56.84 81.8691 57.248 81.8691 57.524C81.8691 57.764 82.0371 57.968 82.3371 58.124C81.5931 58.436 81.0531 58.976 81.0531 59.516C81.0531 60.5 82.1451 61.076 83.8132 61.076C85.6612 61.076 86.8252 60.26 86.8252 59.132ZM83.8251 60.296C82.7091 60.296 82.0732 59.888 82.0732 59.36C82.0732 58.952 82.4451 58.556 82.9492 58.34C83.1892 58.4 83.4652 58.448 83.7772 58.472L84.6172 58.544C85.5772 58.628 85.8171 58.856 85.8171 59.288C85.8171 59.852 85.0372 60.296 83.8251 60.296ZM82.3251 54.752C82.3251 53.996 82.9011 53.408 83.6931 53.408C84.4851 53.408 85.0852 53.996 85.0852 54.752C85.0852 55.496 84.4851 56.036 83.6931 56.036C82.9011 56.036 82.3251 55.496 82.3251 54.752ZM89.1891 52.784H88.1691V58.736H89.1891V52.784ZM89.1891 50.42H88.1691V51.608H89.1891V50.42ZM96.3682 55.772C96.3682 53.948 95.1562 52.628 93.4882 52.628C91.8201 52.628 90.5961 53.948 90.5961 55.772C90.5961 57.572 91.8201 58.892 93.4882 58.892C95.1562 58.892 96.3682 57.572 96.3682 55.772ZM91.6762 55.772C91.6762 54.452 92.4321 53.48 93.4882 53.48C94.5322 53.48 95.2882 54.452 95.2882 55.772C95.2882 57.068 94.5322 58.028 93.4882 58.028C92.4321 58.028 91.6762 57.068 91.6762 55.772ZM105.08 57.104C105.08 56 104.144 55.544 102.8 55.256C101.792 55.028 101.216 54.848 101.216 54.32C101.216 53.816 101.78 53.468 102.572 53.468C103.4 53.468 103.952 53.816 104.228 54.392L105.044 54.068C104.696 53.336 103.964 52.628 102.584 52.628C101.18 52.628 100.22 53.372 100.22 54.38C100.22 55.412 101.192 55.892 102.512 56.168C103.532 56.384 104.096 56.588 104.096 57.152C104.096 57.692 103.592 58.064 102.716 58.064C101.72 58.064 101.084 57.62 100.784 57.032L99.9443 57.356C100.352 58.292 101.312 58.892 102.668 58.892C104.18 58.892 105.08 58.16 105.08 57.104ZM111.802 55.772C111.802 53.948 110.59 52.628 108.922 52.628C107.254 52.628 106.03 53.948 106.03 55.772C106.03 57.572 107.254 58.892 108.922 58.892C110.59 58.892 111.802 57.572 111.802 55.772ZM107.11 55.772C107.11 54.452 107.866 53.48 108.922 53.48C109.966 53.48 110.722 54.452 110.722 55.772C110.722 57.068 109.966 58.028 108.922 58.028C107.866 58.028 107.11 57.068 107.11 55.772ZM114.22 50.288H113.2V58.736H114.22V50.288ZM121.399 55.772C121.399 53.948 120.187 52.628 118.519 52.628C116.851 52.628 115.627 53.948 115.627 55.772C115.627 57.572 116.851 58.892 118.519 58.892C120.187 58.892 121.399 57.572 121.399 55.772ZM116.707 55.772C116.707 54.452 117.463 53.48 118.519 53.48C119.563 53.48 120.319 54.452 120.319 55.772C120.319 57.068 119.563 58.028 118.519 58.028C117.463 58.028 116.707 57.068 116.707 55.772ZM130.112 57.104C130.112 56 129.176 55.544 127.832 55.256C126.824 55.028 126.248 54.848 126.248 54.32C126.248 53.816 126.812 53.468 127.604 53.468C128.432 53.468 128.984 53.816 129.26 54.392L130.076 54.068C129.728 53.336 128.996 52.628 127.616 52.628C126.212 52.628 125.252 53.372 125.252 54.38C125.252 55.412 126.224 55.892 127.544 56.168C128.564 56.384 129.128 56.588 129.128 57.152C129.128 57.692 128.624 58.064 127.748 58.064C126.752 58.064 126.116 57.62 125.816 57.032L124.976 57.356C125.384 58.292 126.344 58.892 127.7 58.892C129.212 58.892 130.112 58.16 130.112 57.104ZM136.281 57.38L135.465 57.068C135.153 57.68 134.577 58.052 133.929 58.052C132.933 58.052 132.213 57.224 132.141 55.976H136.269C136.305 55.82 136.329 55.496 136.329 55.232C136.329 53.708 135.285 52.628 133.833 52.628C132.249 52.628 131.073 53.972 131.073 55.808C131.073 57.608 132.249 58.892 133.869 58.892C134.937 58.892 135.861 58.328 136.281 57.38ZM133.845 53.456C134.685 53.456 135.273 54.128 135.309 55.16H132.201C132.381 54.128 133.017 53.456 133.845 53.456ZM145.148 57.272L144.284 56.936C143.996 57.596 143.516 58.016 142.856 58.016C141.884 58.016 141.176 57.092 141.176 55.808C141.176 54.464 141.86 53.492 142.808 53.492C143.408 53.492 143.924 53.864 144.212 54.56L145.1 54.2C144.68 53.24 143.876 52.628 142.784 52.628C141.224 52.628 140.096 53.96 140.096 55.808C140.096 57.596 141.236 58.892 142.82 58.892C143.912 58.892 144.764 58.208 145.148 57.272ZM147.408 52.784H146.388V58.736H147.408V52.784ZM147.408 50.42H146.388V51.608H147.408V50.42ZM156.957 58.832L157.005 58.052C156.933 58.064 156.813 58.076 156.741 58.076C156.381 58.076 156.201 57.824 156.201 57.5V54.764C156.201 53.384 155.361 52.628 154.065 52.628C153.033 52.628 152.133 53.204 151.701 54.14L152.493 54.464C152.793 53.9 153.261 53.48 153.969 53.48C154.701 53.48 155.181 53.984 155.181 54.728V55.196L153.789 55.364C152.469 55.532 151.533 56.168 151.533 57.272C151.533 58.22 152.289 58.892 153.345 58.892C154.185 58.892 154.845 58.484 155.229 57.848C155.373 58.532 155.817 58.892 156.489 58.892C156.669 58.892 156.813 58.868 156.957 58.832ZM153.621 58.064C153.021 58.064 152.601 57.704 152.601 57.2C152.601 56.588 153.177 56.228 153.969 56.132L155.181 55.988V57.08C154.869 57.656 154.281 58.064 153.621 58.064ZM157.294 52.784L159.442 58.736H160.498L162.634 52.784H161.602L160.018 57.416H159.982L158.398 52.784H157.294ZM168.496 57.38L167.68 57.068C167.368 57.68 166.792 58.052 166.144 58.052C165.148 58.052 164.428 57.224 164.356 55.976H168.484C168.52 55.82 168.544 55.496 168.544 55.232C168.544 53.708 167.5 52.628 166.048 52.628C164.464 52.628 163.288 53.972 163.288 55.808C163.288 57.608 164.464 58.892 166.084 58.892C167.152 58.892 168.076 58.328 168.496 57.38ZM166.06 53.456C166.9 53.456 167.488 54.128 167.524 55.16H164.416C164.596 54.128 165.232 53.456 166.06 53.456ZM174.526 57.104C174.526 56 173.59 55.544 172.246 55.256C171.238 55.028 170.662 54.848 170.662 54.32C170.662 53.816 171.226 53.468 172.018 53.468C172.846 53.468 173.398 53.816 173.674 54.392L174.49 54.068C174.142 53.336 173.41 52.628 172.03 52.628C170.626 52.628 169.666 53.372 169.666 54.38C169.666 55.412 170.638 55.892 171.958 56.168C172.978 56.384 173.542 56.588 173.542 57.152C173.542 57.692 173.038 58.064 172.162 58.064C171.166 58.064 170.53 57.62 170.23 57.032L169.39 57.356C169.798 58.292 170.758 58.892 172.114 58.892C173.626 58.892 174.526 58.16 174.526 57.104ZM180.467 57.104C180.467 56 179.531 55.544 178.187 55.256C177.179 55.028 176.603 54.848 176.603 54.32C176.603 53.816 177.167 53.468 177.959 53.468C178.787 53.468 179.339 53.816 179.615 54.392L180.431 54.068C180.083 53.336 179.351 52.628 177.971 52.628C176.567 52.628 175.607 53.372 175.607 54.38C175.607 55.412 176.579 55.892 177.899 56.168C178.919 56.384 179.483 56.588 179.483 57.152C179.483 57.692 178.979 58.064 178.103 58.064C177.107 58.064 176.471 57.62 176.171 57.032L175.331 57.356C175.739 58.292 176.699 58.892 178.055 58.892C179.567 58.892 180.467 58.16 180.467 57.104ZM186.636 57.38L185.82 57.068C185.508 57.68 184.932 58.052 184.284 58.052C183.288 58.052 182.568 57.224 182.496 55.976H186.624C186.66 55.82 186.684 55.496 186.684 55.232C186.684 53.708 185.64 52.628 184.188 52.628C182.604 52.628 181.428 53.972 181.428 55.808C181.428 57.608 182.604 58.892 184.224 58.892C185.292 58.892 186.216 58.328 186.636 57.38ZM184.2 53.456C185.04 53.456 185.628 54.128 185.664 55.16H182.556C182.736 54.128 183.372 53.456 184.2 53.456ZM195.504 57.272L194.64 56.936C194.352 57.596 193.872 58.016 193.212 58.016C192.24 58.016 191.532 57.092 191.532 55.808C191.532 54.464 192.216 53.492 193.164 53.492C193.764 53.492 194.28 53.864 194.568 54.56L195.456 54.2C195.036 53.24 194.232 52.628 193.14 52.628C191.58 52.628 190.452 53.96 190.452 55.808C190.452 57.596 191.592 58.892 193.176 58.892C194.268 58.892 195.12 58.208 195.504 57.272ZM202.071 55.772C202.071 53.948 200.859 52.628 199.191 52.628C197.523 52.628 196.299 53.948 196.299 55.772C196.299 57.572 197.523 58.892 199.191 58.892C200.859 58.892 202.071 57.572 202.071 55.772ZM197.379 55.772C197.379 54.452 198.135 53.48 199.191 53.48C200.235 53.48 200.991 54.452 200.991 55.772C200.991 57.068 200.235 58.028 199.191 58.028C198.135 58.028 197.379 57.068 197.379 55.772ZM204.49 50.288H203.47V58.736H204.49V50.288ZM208.909 58.04C208.345 58.04 207.721 57.74 207.361 57.308V54.416C207.673 53.936 208.261 53.468 208.957 53.468C209.953 53.468 210.697 54.368 210.697 55.736C210.697 57.092 209.953 58.04 208.909 58.04ZM211.777 55.736C211.777 53.912 210.625 52.628 209.221 52.628C208.309 52.628 207.637 53.18 207.325 53.672V52.784H206.341V60.92H207.361V58.112C207.745 58.58 208.405 58.892 209.113 58.892C210.613 58.892 211.777 57.56 211.777 55.736ZM214.205 52.784H213.185V58.736H214.205V52.784ZM214.205 50.42H213.185V51.608H214.205V50.42ZM219.44 58.7V57.848C219.188 57.944 218.768 58.016 218.396 58.016C217.64 58.016 217.34 57.644 217.34 57.08V53.624H219.404V52.784H217.34V51.332H216.32V52.784H215.444V53.624H216.32V57.248C216.32 58.292 217.028 58.892 218.216 58.892C218.66 58.892 219.176 58.796 219.44 58.7ZM221.599 52.784H220.579V58.736H221.599V52.784ZM221.599 50.42H220.579V51.608H221.599V50.42ZM231.016 58.736V52.784H229.996V56.888C229.696 57.548 229.12 58.028 228.412 58.028C227.68 58.028 227.152 57.452 227.152 56.648V52.784H226.132V56.72C226.132 57.98 226.972 58.892 228.124 58.892C229 58.892 229.684 58.388 230.032 57.752V58.736H231.016ZM237.864 58.736V54.8C237.864 53.528 236.976 52.628 235.812 52.628C234.96 52.628 234.24 53.132 233.844 53.696V52.784H232.86V58.736H233.88V54.416C234.252 53.888 234.9 53.492 235.572 53.492C236.316 53.492 236.844 54.044 236.844 54.872V58.736H237.864ZM250.763 58.736V54.8C250.763 53.528 249.899 52.628 248.783 52.628C247.991 52.628 247.295 53.108 246.875 53.744C246.551 53.06 245.927 52.628 245.195 52.628C244.403 52.628 243.743 53.132 243.395 53.696V52.784H242.411V58.736H243.431V54.392C243.767 53.888 244.343 53.492 244.931 53.492C245.591 53.492 246.071 54.044 246.071 54.872V58.736H247.091V54.8C247.091 54.62 247.079 54.452 247.043 54.284C247.403 53.828 247.979 53.492 248.555 53.492C249.239 53.492 249.743 54.044 249.743 54.872V58.736H250.763ZM257.301 57.38L256.485 57.068C256.173 57.68 255.597 58.052 254.949 58.052C253.953 58.052 253.233 57.224 253.161 55.976H257.289C257.325 55.82 257.349 55.496 257.349 55.232C257.349 53.708 256.305 52.628 254.853 52.628C253.269 52.628 252.093 53.972 252.093 55.808C252.093 57.608 253.269 58.892 254.889 58.892C255.957 58.892 256.881 58.328 257.301 57.38ZM254.865 53.456C255.705 53.456 256.293 54.128 256.329 55.16H253.221C253.401 54.128 254.037 53.456 254.865 53.456ZM262.108 58.7V57.848C261.856 57.944 261.436 58.016 261.064 58.016C260.308 58.016 260.008 57.644 260.008 57.08V53.624H262.072V52.784H260.008V51.332H258.988V52.784H258.112V53.624H258.988V57.248C258.988 58.292 259.696 58.892 260.884 58.892C261.328 58.892 261.844 58.796 262.108 58.7ZM267.965 57.38L267.149 57.068C266.837 57.68 266.261 58.052 265.613 58.052C264.617 58.052 263.897 57.224 263.825 55.976H267.953C267.989 55.82 268.013 55.496 268.013 55.232C268.013 53.708 266.969 52.628 265.517 52.628C263.933 52.628 262.757 53.972 262.757 55.808C262.757 57.608 263.933 58.892 265.553 58.892C266.621 58.892 267.545 58.328 267.965 57.38ZM265.529 53.456C266.369 53.456 266.957 54.128 266.993 55.16H263.885C264.065 54.128 264.701 53.456 265.529 53.456ZM274.774 55.772C274.774 53.948 273.562 52.628 271.894 52.628C270.226 52.628 269.002 53.948 269.002 55.772C269.002 57.572 270.226 58.892 271.894 58.892C273.562 58.892 274.774 57.572 274.774 55.772ZM270.082 55.772C270.082 54.452 270.838 53.48 271.894 53.48C272.938 53.48 273.694 54.452 273.694 55.772C273.694 57.068 272.938 58.028 271.894 58.028C270.838 58.028 270.082 57.068 270.082 55.772ZM277.193 58.736V55.184C277.289 54.392 277.769 53.648 278.693 53.648C278.897 53.648 279.185 53.684 279.353 53.732V52.724C279.233 52.676 278.945 52.628 278.741 52.628C278.045 52.628 277.397 53.24 277.157 53.996V52.784H276.173V58.736H277.193ZM281.541 52.784H280.521V58.736H281.541V52.784ZM281.541 50.42H280.521V51.608H281.541V50.42ZM286.776 58.7V57.848C286.524 57.944 286.104 58.016 285.732 58.016C284.976 58.016 284.676 57.644 284.676 57.08V53.624H286.74V52.784H284.676V51.332H283.656V52.784H282.78V53.624H283.656V57.248C283.656 58.292 284.364 58.892 285.552 58.892C285.996 58.892 286.512 58.796 286.776 58.7ZM292.633 57.38L291.817 57.068C291.505 57.68 290.929 58.052 290.281 58.052C289.285 58.052 288.565 57.224 288.493 55.976H292.621C292.657 55.82 292.681 55.496 292.681 55.232C292.681 53.708 291.637 52.628 290.185 52.628C288.601 52.628 287.425 53.972 287.425 55.808C287.425 57.608 288.601 58.892 290.221 58.892C291.289 58.892 292.213 58.328 292.633 57.38ZM290.197 53.456C291.037 53.456 291.625 54.128 291.661 55.16H288.553C288.733 54.128 289.369 53.456 290.197 53.456ZM299.226 56.228L297.054 58.664L296.49 58.22L297.918 56.024L296.49 53.828L297.054 53.384L299.226 55.82V56.228ZM296.31 56.228L294.294 58.412L293.742 57.956L295.062 56.024L293.742 54.092L294.294 53.636L296.31 55.82V56.228Z" fill="black"/>
<path d="M33.7223 77.9503L35.4983 72.7743H34.1303L33.0503 76.2703H33.0263L31.9383 72.7743H30.4903L32.2743 77.9503H33.7223ZM39.3469 77.9903L39.4029 77.1023C39.3389 77.1103 39.2429 77.1183 39.1869 77.1183C39.0109 77.1183 38.9389 76.9983 38.9389 76.7663V75.4063C38.9389 74.3663 38.3149 73.8303 37.2589 73.8303C36.3309 73.8303 35.7229 74.2943 35.4429 74.9583L36.3789 75.3503C36.5309 75.0543 36.7789 74.8223 37.1149 74.8223C37.4349 74.8223 37.6429 75.0383 37.6429 75.3583V75.5263L36.8109 75.6623C35.8509 75.8303 35.2989 76.3023 35.2989 76.9823C35.2989 77.6223 35.7949 78.0703 36.4909 78.0703C37.0429 78.0703 37.4829 77.7903 37.7549 77.4063C37.9629 77.8863 38.3709 78.0703 38.8509 78.0703C39.0349 78.0703 39.2109 78.0383 39.3469 77.9903ZM37.0429 77.1503C36.7869 77.1503 36.6189 76.9903 36.6189 76.7743C36.6189 76.5183 36.8349 76.3583 37.1629 76.3023L37.6429 76.2223V76.8623C37.4909 77.0303 37.2749 77.1503 37.0429 77.1503ZM43.4023 76.7583C43.4023 76.0223 42.7783 75.6543 41.8343 75.4303C41.2903 75.3023 40.9543 75.2463 40.9543 75.0223C40.9543 74.8383 41.1623 74.7103 41.5223 74.7103C41.9623 74.7103 42.2983 74.9023 42.5143 75.1903L43.3783 74.8063C43.0983 74.2783 42.4823 73.8303 41.5223 73.8303C40.4903 73.8303 39.7703 74.3743 39.7703 75.1583C39.7703 75.8943 40.4903 76.2543 41.1703 76.4063C41.7143 76.5263 42.2183 76.6223 42.2183 76.8783C42.2183 77.0863 41.9863 77.1903 41.6583 77.1903C41.1863 77.1903 40.7383 76.9903 40.5063 76.6783L39.6023 77.0623C39.8823 77.6303 40.6423 78.0703 41.6503 78.0703C42.6903 78.0703 43.4023 77.5583 43.4023 76.7583ZM47.7033 76.8463L46.5913 76.4223C46.4473 76.7503 46.2473 76.9823 45.9113 76.9823C45.4953 76.9823 45.1913 76.5583 45.1913 75.9743C45.1913 75.3583 45.4953 74.9183 45.9193 74.9183C46.2313 74.9183 46.4393 75.1183 46.5593 75.4543L47.6873 75.0223C47.4073 74.3183 46.7513 73.8303 45.8233 73.8303C44.6553 73.8303 43.8153 74.7263 43.8153 75.9823C43.8153 77.1983 44.6473 78.0703 45.7913 78.0703C46.7193 78.0703 47.4233 77.5503 47.7033 76.8463ZM52.2748 75.9503C52.2748 74.7263 51.3788 73.8303 50.1468 73.8303C48.8988 73.8303 47.9948 74.7263 47.9948 75.9503C47.9948 77.1743 48.8988 78.0623 50.1468 78.0623C51.3788 78.0623 52.2748 77.1743 52.2748 75.9503ZM49.3708 75.9503C49.3708 75.3263 49.6988 74.8703 50.1468 74.8703C50.5868 74.8703 50.8988 75.3263 50.8988 75.9503C50.8988 76.5743 50.5868 77.0223 50.1468 77.0223C49.6988 77.0223 49.3708 76.5743 49.3708 75.9503ZM55.9099 73.9023H56.4939C56.9499 73.9023 57.2539 74.1663 57.2539 74.5503C57.2539 74.9583 56.9499 75.2303 56.5019 75.2303H55.9099V73.9023ZM55.9099 77.9503V76.3343H56.4379C56.5179 76.3343 56.5979 76.3343 56.6779 76.3263L57.4379 77.9503H58.9899L57.9179 75.9423C58.4139 75.6223 58.7099 75.1263 58.7099 74.5343C58.7099 73.5023 57.8059 72.7743 56.5419 72.7743H54.5099V77.9503H55.9099ZM63.4935 75.9503C63.4935 74.7263 62.5975 73.8303 61.3655 73.8303C60.1175 73.8303 59.2135 74.7263 59.2135 75.9503C59.2135 77.1743 60.1175 78.0623 61.3655 78.0623C62.5975 78.0623 63.4935 77.1743 63.4935 75.9503ZM60.5895 75.9503C60.5895 75.3263 60.9175 74.8703 61.3655 74.8703C61.8055 74.8703 62.1175 75.3263 62.1175 75.9503C62.1175 76.5743 61.8055 77.0223 61.3655 77.0223C60.9175 77.0223 60.5895 76.5743 60.5895 75.9503ZM67.5898 76.7583C67.5898 76.0223 66.9658 75.6543 66.0218 75.4303C65.4778 75.3023 65.1418 75.2463 65.1418 75.0223C65.1418 74.8383 65.3498 74.7103 65.7098 74.7103C66.1498 74.7103 66.4858 74.9023 66.7018 75.1903L67.5658 74.8063C67.2858 74.2783 66.6698 73.8303 65.7098 73.8303C64.6778 73.8303 63.9578 74.3743 63.9578 75.1583C63.9578 75.8943 64.6778 76.2543 65.3578 76.4063C65.9018 76.5263 66.4058 76.6223 66.4058 76.8783C66.4058 77.0863 66.1738 77.1903 65.8458 77.1903C65.3738 77.1903 64.9258 76.9903 64.6938 76.6783L63.7898 77.0623C64.0698 77.6303 64.8298 78.0703 65.8378 78.0703C66.8778 78.0703 67.5898 77.5583 67.5898 76.7583ZM71.7148 76.7583C71.7148 76.0223 71.0908 75.6543 70.1468 75.4303C69.6028 75.3023 69.2668 75.2463 69.2668 75.0223C69.2668 74.8383 69.4748 74.7103 69.8348 74.7103C70.2748 74.7103 70.6108 74.9023 70.8268 75.1903L71.6908 74.8063C71.4108 74.2783 70.7948 73.8303 69.8348 73.8303C68.8028 73.8303 68.0828 74.3743 68.0828 75.1583C68.0828 75.8943 68.8028 76.2543 69.4828 76.4063C70.0268 76.5263 70.5308 76.6223 70.5308 76.8783C70.5308 77.0863 70.2988 77.1903 69.9708 77.1903C69.4988 77.1903 69.0508 76.9903 68.8188 76.6783L67.9148 77.0623C68.1948 77.6303 68.9548 78.0703 69.9628 78.0703C71.0028 78.0703 71.7148 77.5583 71.7148 76.7583ZM73.6798 73.9503H72.3598V77.9503H73.6798V73.9503ZM73.6798 72.4463H72.3598V73.4703H73.6798V72.4463ZM75.4109 77.7743V76.8863H74.6109V77.9023H74.9869C74.9869 78.3103 74.8509 78.6143 74.5469 78.9423L74.8269 79.2063C75.2189 78.8063 75.4109 78.3263 75.4109 77.7743ZM79.5561 73.6863L78.0441 74.3183L78.2441 74.8623L79.3961 74.4143V77.3903H78.1401V77.9503H81.1641V77.3903H80.0761V73.6863H79.5561ZM85.7339 76.7823C85.7339 76.3263 85.4859 76.0143 84.8859 75.7903C85.3739 75.5583 85.6299 75.2303 85.6299 74.7903C85.6299 74.1023 84.8219 73.5903 83.7259 73.5903C82.6379 73.5903 81.8379 74.1263 81.8379 74.8383C81.8379 75.2143 82.0299 75.5423 82.5899 75.7903C81.9739 76.0143 81.6779 76.4303 81.6779 76.8303C81.6779 77.5343 82.5739 78.0543 83.7819 78.0543C84.9019 78.0543 85.7339 77.5183 85.7339 76.7823ZM83.8379 75.5263C82.8859 75.3663 82.5579 75.1503 82.5579 74.8303C82.5579 74.4463 83.0459 74.1583 83.7259 74.1583C84.4059 74.1583 84.9099 74.4703 84.9099 74.8943C84.9099 75.1663 84.7179 75.4223 84.3259 75.6223C84.1739 75.5903 84.0139 75.5583 83.8379 75.5263ZM83.7899 77.4863C82.9899 77.4863 82.3979 77.1903 82.3979 76.7743C82.3979 76.5023 82.6379 76.1823 83.1499 75.9743C83.3179 76.0143 83.5019 76.0543 83.7019 76.0863C84.7099 76.2463 85.0139 76.4943 85.0139 76.8143C85.0139 77.2063 84.4859 77.4863 83.7899 77.4863ZM91.8874 77.9503V75.3263C91.8874 74.4783 91.2954 73.8783 90.5194 73.8783C89.9514 73.8783 89.4714 74.2143 89.2074 74.5903V73.9823H88.5514V77.9503H89.2314V75.0703C89.4794 74.7183 89.9114 74.4543 90.3594 74.4543C90.8554 74.4543 91.2074 74.8223 91.2074 75.3743V77.9503H91.8874ZM96.6269 75.9743C96.6269 74.7583 95.8189 73.8783 94.7069 73.8783C93.5949 73.8783 92.7789 74.7583 92.7789 75.9743C92.7789 77.1743 93.5949 78.0543 94.7069 78.0543C95.8189 78.0543 96.6269 77.1743 96.6269 75.9743ZM93.4989 75.9743C93.4989 75.0943 94.0029 74.4463 94.7069 74.4463C95.4029 74.4463 95.9069 75.0943 95.9069 75.9743C95.9069 76.8383 95.4029 77.4783 94.7069 77.4783C94.0029 77.4783 93.4989 76.8383 93.4989 75.9743ZM97.0409 73.9823L98.4729 77.9503H99.1769L100.601 73.9823H99.9129L98.8569 77.0703H98.8329L97.7769 73.9823H97.0409ZM104.509 77.0463L103.965 76.8383C103.757 77.2463 103.373 77.4943 102.941 77.4943C102.277 77.4943 101.797 76.9423 101.749 76.1103H104.501C104.525 76.0063 104.541 75.7903 104.541 75.6143C104.541 74.5983 103.845 73.8783 102.877 73.8783C101.821 73.8783 101.037 74.7743 101.037 75.9983C101.037 77.1983 101.821 78.0543 102.901 78.0543C103.613 78.0543 104.229 77.6783 104.509 77.0463ZM102.885 74.4303C103.445 74.4303 103.837 74.8783 103.861 75.5663H101.789C101.909 74.8783 102.333 74.4303 102.885 74.4303ZM111.065 77.9503V75.3263C111.065 74.4783 110.489 73.8783 109.745 73.8783C109.217 73.8783 108.753 74.1983 108.473 74.6223C108.257 74.1663 107.841 73.8783 107.353 73.8783C106.825 73.8783 106.385 74.2143 106.153 74.5903V73.9823H105.497V77.9503H106.177V75.0543C106.401 74.7183 106.785 74.4543 107.177 74.4543C107.617 74.4543 107.937 74.8223 107.937 75.3743V77.9503H108.617V75.3263C108.617 75.2063 108.609 75.0943 108.585 74.9823C108.825 74.6783 109.209 74.4543 109.593 74.4543C110.049 74.4543 110.385 74.8223 110.385 75.3743V77.9503H111.065ZM115.863 75.9503C115.863 74.7503 115.151 73.8783 114.175 73.8783C113.719 73.8783 113.215 74.1343 112.919 74.5103V72.3183H112.239V77.9503H112.879V77.4703C113.183 77.8143 113.679 78.0543 114.111 78.0543C115.127 78.0543 115.863 77.1743 115.863 75.9503ZM113.951 77.4863C113.535 77.4863 113.135 77.2703 112.919 76.9743V74.9983C113.135 74.6703 113.559 74.4543 113.991 74.4543C114.655 74.4543 115.143 75.0783 115.143 75.9423C115.143 76.8303 114.639 77.4863 113.951 77.4863ZM117.489 77.9503V75.5823C117.553 75.0543 117.873 74.5583 118.489 74.5583C118.625 74.5583 118.817 74.5823 118.929 74.6143V73.9423C118.849 73.9103 118.657 73.8783 118.521 73.8783C118.057 73.8783 117.625 74.2863 117.465 74.7903V73.9823H116.809V77.9503H117.489ZM122.782 77.0463L122.238 76.8383C122.03 77.2463 121.646 77.4943 121.214 77.4943C120.55 77.4943 120.07 76.9423 120.022 76.1103H122.774C122.798 76.0063 122.814 75.7903 122.814 75.6143C122.814 74.5983 122.118 73.8783 121.15 73.8783C120.094 73.8783 119.31 74.7743 119.31 75.9983C119.31 77.1983 120.094 78.0543 121.174 78.0543C121.886 78.0543 122.502 77.6783 122.782 77.0463ZM121.158 74.4303C121.718 74.4303 122.11 74.8783 122.134 75.5663H120.062C120.182 74.8783 120.606 74.4303 121.158 74.4303ZM129.038 77.9503V77.3503H126.342L127.502 76.5183C128.03 76.1343 128.71 75.5983 128.71 74.8623C128.71 74.1343 128.006 73.5903 127.134 73.5903C126.326 73.5903 125.622 74.0543 125.326 74.7423L125.87 74.9903C126.062 74.5023 126.534 74.1663 127.062 74.1663C127.566 74.1663 127.99 74.4783 127.99 74.9183C127.99 75.3423 127.622 75.6543 127.166 76.0063L125.35 77.3903V77.9503H129.038ZM129.663 75.8143C129.663 77.1103 130.495 78.0543 131.639 78.0543C132.783 78.0543 133.615 77.1103 133.615 75.8143C133.615 74.5263 132.783 73.5903 131.639 73.5903C130.495 73.5903 129.663 74.5263 129.663 75.8143ZM130.383 75.8143C130.383 74.8623 130.911 74.1583 131.639 74.1583C132.367 74.1583 132.895 74.8623 132.895 75.8143C132.895 76.7823 132.367 77.4863 131.639 77.4863C130.911 77.4863 130.383 76.7823 130.383 75.8143ZM138.014 77.9503V77.3503H135.318L136.478 76.5183C137.006 76.1343 137.686 75.5983 137.686 74.8623C137.686 74.1343 136.982 73.5903 136.11 73.5903C135.302 73.5903 134.598 74.0543 134.302 74.7423L134.846 74.9903C135.038 74.5023 135.51 74.1663 136.038 74.1663C136.542 74.1663 136.966 74.4783 136.966 74.9183C136.966 75.3423 136.598 75.6543 136.142 76.0063L134.326 77.3903V77.9503H138.014ZM138.639 75.8143C138.639 77.1103 139.471 78.0543 140.615 78.0543C141.759 78.0543 142.591 77.1103 142.591 75.8143C142.591 74.5263 141.759 73.5903 140.615 73.5903C139.471 73.5903 138.639 74.5263 138.639 75.8143ZM139.359 75.8143C139.359 74.8623 139.887 74.1583 140.615 74.1583C141.343 74.1583 141.871 74.8623 141.871 75.8143C141.871 76.7823 141.343 77.4863 140.615 77.4863C139.887 77.4863 139.359 76.7823 139.359 75.8143Z" fill="black"/>
</svg>
