<svg width="331" height="91" viewBox="0 0 331 91" fill="none" xmlns="http://www.w3.org/2000/svg">
<path d="M0.471863 16.0343V74.7631L14.3206 90.78H315.436L330.472 74.7631V18.3224L315.436 0.780029H14.3206L0.471863 16.0343Z" fill="white"/>
<path d="M30.8983 24.8416L33.0703 27.2776L33.6343 26.8336L32.2063 24.6376L33.6343 22.4416L33.0703 21.9976L30.8983 24.4336V24.8416ZM33.8143 24.8416L35.8303 27.0256L36.3823 26.5696L35.0623 24.6376L36.3823 22.7056L35.8303 22.2496L33.8143 24.4336V24.8416ZM39.0468 27.3496V21.6016L43.2708 27.3496H44.2068V19.5856H43.1508V25.3816L38.9388 19.5856H37.9908V27.3496H39.0468ZM51.4485 24.3856C51.4485 22.5616 50.2365 21.2416 48.5685 21.2416C46.9005 21.2416 45.6765 22.5616 45.6765 24.3856C45.6765 26.1856 46.9005 27.5056 48.5685 27.5056C50.2365 27.5056 51.4485 26.1856 51.4485 24.3856ZM46.7565 24.3856C46.7565 23.0656 47.5125 22.0936 48.5685 22.0936C49.6125 22.0936 50.3685 23.0656 50.3685 24.3856C50.3685 25.6816 49.6125 26.6416 48.5685 26.6416C47.5125 26.6416 46.7565 25.6816 46.7565 24.3856ZM57.8511 27.3496V23.4136C57.8511 22.1416 56.9631 21.2416 55.7991 21.2416C54.9471 21.2416 54.2271 21.7456 53.8311 22.3096V21.3976H52.8471V27.3496H53.8671V23.0296C54.2391 22.5016 54.8871 22.1056 55.5591 22.1056C56.3031 22.1056 56.8311 22.6576 56.8311 23.4856V27.3496H57.8511ZM65.7819 27.3136V26.4616C65.5299 26.5576 65.1099 26.6296 64.7379 26.6296C63.9819 26.6296 63.6819 26.2576 63.6819 25.6936V22.2376H65.7459V21.3976H63.6819V19.9456H62.6619V21.3976H61.7859V22.2376H62.6619V25.8616C62.6619 26.9056 63.3699 27.5056 64.5579 27.5056C65.0019 27.5056 65.5179 27.4096 65.7819 27.3136ZM67.9413 27.3496V23.7976C68.0373 23.0056 68.5173 22.2616 69.4413 22.2616C69.6453 22.2616 69.9333 22.2976 70.1013 22.3456V21.3376C69.9813 21.2896 69.6933 21.2416 69.4893 21.2416C68.7933 21.2416 68.1453 21.8536 67.9053 22.6096V21.3976H66.9213V27.3496H67.9413ZM76.4329 24.3856C76.4329 22.5616 75.2209 21.2416 73.5529 21.2416C71.8849 21.2416 70.6609 22.5616 70.6609 24.3856C70.6609 26.1856 71.8849 27.5056 73.5529 27.5056C75.2209 27.5056 76.4329 26.1856 76.4329 24.3856ZM71.7409 24.3856C71.7409 23.0656 72.4969 22.0936 73.5529 22.0936C74.5969 22.0936 75.3529 23.0656 75.3529 24.3856C75.3529 25.6816 74.5969 26.6416 73.5529 26.6416C72.4969 26.6416 71.7409 25.6816 71.7409 24.3856ZM77.054 21.3976L79.202 27.3496H80.258L82.394 21.3976H81.362L79.778 26.0296H79.742L78.158 21.3976H77.054ZM88.3768 27.4456L88.4248 26.6656C88.3528 26.6776 88.2328 26.6896 88.1608 26.6896C87.8008 26.6896 87.6208 26.4376 87.6208 26.1136V23.3776C87.6208 21.9976 86.7808 21.2416 85.4848 21.2416C84.4528 21.2416 83.5528 21.8176 83.1208 22.7536L83.9128 23.0776C84.2128 22.5136 84.6808 22.0936 85.3888 22.0936C86.1208 22.0936 86.6008 22.5976 86.6008 23.3416V23.8096L85.2088 23.9776C83.8888 24.1456 82.9528 24.7816 82.9528 25.8856C82.9528 26.8336 83.7088 27.5056 84.7648 27.5056C85.6048 27.5056 86.2648 27.0976 86.6488 26.4616C86.7928 27.1456 87.2368 27.5056 87.9088 27.5056C88.0888 27.5056 88.2328 27.4816 88.3768 27.4456ZM85.0408 26.6776C84.4408 26.6776 84.0208 26.3176 84.0208 25.8136C84.0208 25.2016 84.5968 24.8416 85.3888 24.7456L86.6008 24.6016V25.6936C86.2888 26.2696 85.7008 26.6776 85.0408 26.6776ZM90.5351 27.3496V23.7976C90.6311 23.0056 91.1111 22.2616 92.0351 22.2616C92.2391 22.2616 92.5271 22.2976 92.6951 22.3456V21.3376C92.5751 21.2896 92.2871 21.2416 92.0831 21.2416C91.3871 21.2416 90.7391 21.8536 90.4991 22.6096V21.3976H89.5151V27.3496H90.5351ZM98.4747 25.9936L97.6587 25.6816C97.3467 26.2936 96.7707 26.6656 96.1227 26.6656C95.1267 26.6656 94.4067 25.8376 94.3347 24.5896H98.4627C98.4987 24.4336 98.5227 24.1096 98.5227 23.8456C98.5227 22.3216 97.4787 21.2416 96.0267 21.2416C94.4427 21.2416 93.2667 22.5856 93.2667 24.4216C93.2667 26.2216 94.4427 27.5056 96.0627 27.5056C97.1307 27.5056 98.0547 26.9416 98.4747 25.9936ZM96.0387 22.0696C96.8787 22.0696 97.4667 22.7416 97.5027 23.7736H94.3947C94.5747 22.7416 95.2107 22.0696 96.0387 22.0696ZM107.522 27.3496V21.3976H106.502V25.5016C106.202 26.1616 105.626 26.6416 104.918 26.6416C104.186 26.6416 103.658 26.0656 103.658 25.2616V21.3976H102.638V25.3336C102.638 26.5936 103.478 27.5056 104.63 27.5056C105.506 27.5056 106.19 27.0016 106.538 26.3656V27.3496H107.522ZM114.371 27.3496V23.4136C114.371 22.1416 113.483 21.2416 112.319 21.2416C111.467 21.2416 110.747 21.7456 110.351 22.3096V21.3976H109.367V27.3496H110.387V23.0296C110.759 22.5016 111.407 22.1056 112.079 22.1056C112.823 22.1056 113.351 22.6576 113.351 23.4856V27.3496H114.371ZM121.084 27.4456L121.132 26.6656C121.06 26.6776 120.94 26.6896 120.868 26.6896C120.508 26.6896 120.328 26.4376 120.328 26.1136V23.3776C120.328 21.9976 119.488 21.2416 118.192 21.2416C117.16 21.2416 116.26 21.8176 115.828 22.7536L116.62 23.0776C116.92 22.5136 117.388 22.0936 118.096 22.0936C118.828 22.0936 119.308 22.5976 119.308 23.3416V23.8096L117.916 23.9776C116.596 24.1456 115.66 24.7816 115.66 25.8856C115.66 26.8336 116.416 27.5056 117.472 27.5056C118.312 27.5056 118.972 27.0976 119.356 26.4616C119.5 27.1456 119.944 27.5056 120.616 27.5056C120.796 27.5056 120.94 27.4816 121.084 27.4456ZM117.748 26.6776C117.148 26.6776 116.728 26.3176 116.728 25.8136C116.728 25.2016 117.304 24.8416 118.096 24.7456L119.308 24.6016V25.6936C118.996 26.2696 118.408 26.6776 117.748 26.6776ZM129.536 25.7176C129.536 24.6136 128.6 24.1576 127.256 23.8696C126.248 23.6416 125.672 23.4616 125.672 22.9336C125.672 22.4296 126.236 22.0816 127.028 22.0816C127.856 22.0816 128.408 22.4296 128.684 23.0056L129.5 22.6816C129.152 21.9496 128.42 21.2416 127.04 21.2416C125.636 21.2416 124.676 21.9856 124.676 22.9936C124.676 24.0256 125.648 24.5056 126.968 24.7816C127.988 24.9976 128.552 25.2016 128.552 25.7656C128.552 26.3056 128.048 26.6776 127.172 26.6776C126.176 26.6776 125.54 26.2336 125.24 25.6456L124.4 25.9696C124.808 26.9056 125.768 27.5056 127.124 27.5056C128.636 27.5056 129.536 26.7736 129.536 25.7176ZM136.257 24.3856C136.257 22.5616 135.045 21.2416 133.377 21.2416C131.709 21.2416 130.485 22.5616 130.485 24.3856C130.485 26.1856 131.709 27.5056 133.377 27.5056C135.045 27.5056 136.257 26.1856 136.257 24.3856ZM131.565 24.3856C131.565 23.0656 132.321 22.0936 133.377 22.0936C134.421 22.0936 135.177 23.0656 135.177 24.3856C135.177 25.6816 134.421 26.6416 133.377 26.6416C132.321 26.6416 131.565 25.6816 131.565 24.3856ZM138.676 18.9016H137.656V27.3496H138.676V18.9016ZM145.327 27.3496V21.3976H144.307V25.5016C144.007 26.1616 143.431 26.6416 142.723 26.6416C141.991 26.6416 141.463 26.0656 141.463 25.2616V21.3976H140.443V25.3336C140.443 26.5936 141.283 27.5056 142.435 27.5056C143.311 27.5056 143.995 27.0016 144.343 26.3656V27.3496H145.327ZM146.763 22.2856H149.967L146.679 26.5576V27.3496H151.335V26.4616H147.903L151.275 22.1896V21.3976H146.763V22.2856ZM153.699 21.3976H152.679V27.3496H153.699V21.3976ZM153.699 19.0336H152.679V20.2216H153.699V19.0336ZM160.878 24.3856C160.878 22.5616 159.666 21.2416 157.998 21.2416C156.33 21.2416 155.106 22.5616 155.106 24.3856C155.106 26.1856 156.33 27.5056 157.998 27.5056C159.666 27.5056 160.878 26.1856 160.878 24.3856ZM156.186 24.3856C156.186 23.0656 156.942 22.0936 157.998 22.0936C159.042 22.0936 159.798 23.0656 159.798 24.3856C159.798 25.6816 159.042 26.6416 157.998 26.6416C156.942 26.6416 156.186 25.6816 156.186 24.3856ZM167.281 27.3496V23.4136C167.281 22.1416 166.393 21.2416 165.229 21.2416C164.377 21.2416 163.657 21.7456 163.261 22.3096V21.3976H162.277V27.3496H163.297V23.0296C163.669 22.5016 164.317 22.1056 164.989 22.1056C165.733 22.1056 166.261 22.6576 166.261 23.4856V27.3496H167.281ZM173.838 25.9936L173.022 25.6816C172.71 26.2936 172.134 26.6656 171.486 26.6656C170.49 26.6656 169.77 25.8376 169.698 24.5896H173.826C173.862 24.4336 173.886 24.1096 173.886 23.8456C173.886 22.3216 172.842 21.2416 171.39 21.2416C169.806 21.2416 168.63 22.5856 168.63 24.4216C168.63 26.2216 169.806 27.5056 171.426 27.5056C172.494 27.5056 173.418 26.9416 173.838 25.9936ZM171.402 22.0696C172.242 22.0696 172.83 22.7416 172.866 23.7736H169.758C169.938 22.7416 170.574 22.0696 171.402 22.0696ZM183.017 27.4456L183.065 26.6656C182.993 26.6776 182.873 26.6896 182.801 26.6896C182.441 26.6896 182.261 26.4376 182.261 26.1136V23.3776C182.261 21.9976 181.421 21.2416 180.125 21.2416C179.093 21.2416 178.193 21.8176 177.761 22.7536L178.553 23.0776C178.853 22.5136 179.321 22.0936 180.029 22.0936C180.761 22.0936 181.241 22.5976 181.241 23.3416V23.8096L179.849 23.9776C178.529 24.1456 177.593 24.7816 177.593 25.8856C177.593 26.8336 178.349 27.5056 179.405 27.5056C180.245 27.5056 180.905 27.0976 181.289 26.4616C181.433 27.1456 181.877 27.5056 182.549 27.5056C182.729 27.5056 182.873 27.4816 183.017 27.4456ZM179.681 26.6776C179.081 26.6776 178.661 26.3176 178.661 25.8136C178.661 25.2016 179.237 24.8416 180.029 24.7456L181.241 24.6016V25.6936C180.929 26.2696 180.341 26.6776 179.681 26.6776ZM195.273 27.3496V23.4136C195.273 22.1416 194.409 21.2416 193.293 21.2416C192.501 21.2416 191.805 21.7216 191.385 22.3576C191.061 21.6736 190.437 21.2416 189.705 21.2416C188.913 21.2416 188.253 21.7456 187.905 22.3096V21.3976H186.921V27.3496H187.941V23.0056C188.277 22.5016 188.853 22.1056 189.441 22.1056C190.101 22.1056 190.581 22.6576 190.581 23.4856V27.3496H191.601V23.4136C191.601 23.2336 191.589 23.0656 191.553 22.8976C191.913 22.4416 192.489 22.1056 193.065 22.1056C193.749 22.1056 194.253 22.6576 194.253 23.4856V27.3496H195.273ZM201.967 27.4456L202.015 26.6656C201.943 26.6776 201.823 26.6896 201.751 26.6896C201.391 26.6896 201.211 26.4376 201.211 26.1136V23.3776C201.211 21.9976 200.371 21.2416 199.075 21.2416C198.043 21.2416 197.143 21.8176 196.711 22.7536L197.503 23.0776C197.803 22.5136 198.271 22.0936 198.979 22.0936C199.711 22.0936 200.191 22.5976 200.191 23.3416V23.8096L198.799 23.9776C197.479 24.1456 196.543 24.7816 196.543 25.8856C196.543 26.8336 197.299 27.5056 198.355 27.5056C199.195 27.5056 199.855 27.0976 200.239 26.4616C200.383 27.1456 200.827 27.5056 201.499 27.5056C201.679 27.5056 201.823 27.4816 201.967 27.4456ZM198.631 26.6776C198.031 26.6776 197.611 26.3176 197.611 25.8136C197.611 25.2016 198.187 24.8416 198.979 24.7456L200.191 24.6016V25.6936C199.879 26.2696 199.291 26.6776 198.631 26.6776ZM204.125 27.3496V23.7976C204.221 23.0056 204.701 22.2616 205.625 22.2616C205.829 22.2616 206.117 22.2976 206.285 22.3456V21.3376C206.165 21.2896 205.877 21.2416 205.673 21.2416C204.977 21.2416 204.329 21.8536 204.089 22.6096V21.3976H203.105V27.3496H204.125ZM207.045 22.2856H210.249L206.961 26.5576V27.3496H211.617V26.4616H208.185L211.557 22.1896V21.3976H207.045V22.2856ZM218.218 24.3856C218.218 22.5616 217.006 21.2416 215.338 21.2416C213.67 21.2416 212.446 22.5616 212.446 24.3856C212.446 26.1856 213.67 27.5056 215.338 27.5056C217.006 27.5056 218.218 26.1856 218.218 24.3856ZM213.526 24.3856C213.526 23.0656 214.282 22.0936 215.338 22.0936C216.382 22.0936 217.138 23.0656 217.138 24.3856C217.138 25.6816 216.382 26.6416 215.338 26.6416C214.282 26.6416 213.526 25.6816 213.526 24.3856ZM227.518 27.3496V26.4496H223.474L225.214 25.2016C226.006 24.6256 227.026 23.8216 227.026 22.7176C227.026 21.6256 225.97 20.8096 224.662 20.8096C223.45 20.8096 222.394 21.5056 221.95 22.5376L222.766 22.9096C223.054 22.1776 223.762 21.6736 224.554 21.6736C225.31 21.6736 225.946 22.1416 225.946 22.8016C225.946 23.4376 225.394 23.9056 224.71 24.4336L221.986 26.5096V27.3496H227.518ZM228.455 24.1456C228.455 26.0896 229.703 27.5056 231.419 27.5056C233.135 27.5056 234.383 26.0896 234.383 24.1456C234.383 22.2136 233.135 20.8096 231.419 20.8096C229.703 20.8096 228.455 22.2136 228.455 24.1456ZM229.535 24.1456C229.535 22.7176 230.327 21.6616 231.419 21.6616C232.511 21.6616 233.303 22.7176 233.303 24.1456C233.303 25.5976 232.511 26.6536 231.419 26.6536C230.327 26.6536 229.535 25.5976 229.535 24.1456ZM240.983 27.3496V26.4496H236.939L238.679 25.2016C239.471 24.6256 240.491 23.8216 240.491 22.7176C240.491 21.6256 239.435 20.8096 238.127 20.8096C236.915 20.8096 235.859 21.5056 235.415 22.5376L236.231 22.9096C236.519 22.1776 237.227 21.6736 238.019 21.6736C238.775 21.6736 239.411 22.1416 239.411 22.8016C239.411 23.4376 238.859 23.9056 238.175 24.4336L235.451 26.5096V27.3496H240.983ZM241.92 24.1456C241.92 26.0896 243.168 27.5056 244.884 27.5056C246.6 27.5056 247.848 26.0896 247.848 24.1456C247.848 22.2136 246.6 20.8096 244.884 20.8096C243.168 20.8096 241.92 22.2136 241.92 24.1456ZM243 24.1456C243 22.7176 243.792 21.6616 244.884 21.6616C245.976 21.6616 246.768 22.7176 246.768 24.1456C246.768 25.5976 245.976 26.6536 244.884 26.6536C243.792 26.6536 243 25.5976 243 24.1456ZM35.9983 40.8856L35.1343 40.5496C34.8463 41.2096 34.3663 41.6296 33.7063 41.6296C32.7343 41.6296 32.0263 40.7056 32.0263 39.4216C32.0263 38.0776 32.7103 37.1056 33.6583 37.1056C34.2583 37.1056 34.7743 37.4776 35.0623 38.1736L35.9503 37.8136C35.5303 36.8536 34.7263 36.2416 33.6343 36.2416C32.0743 36.2416 30.9463 37.5736 30.9463 39.4216C30.9463 41.2096 32.0863 42.5056 33.6703 42.5056C34.7623 42.5056 35.6143 41.8216 35.9983 40.8856ZM38.2577 36.3976H37.2377V42.3496H38.2577V36.3976ZM38.2577 34.0336H37.2377V35.2216H38.2577V34.0336ZM45.4424 41.6536C44.8784 41.6536 44.2544 41.3536 43.8944 40.9216V38.0296C44.2064 37.5496 44.7944 37.0816 45.4904 37.0816C46.4864 37.0816 47.2304 37.9816 47.2304 39.3496C47.2304 40.7056 46.4864 41.6536 45.4424 41.6536ZM48.3104 39.3496C48.3104 37.5256 47.1584 36.2416 45.7544 36.2416C44.8424 36.2416 44.1704 36.7936 43.8584 37.2856V36.3976H42.8744V44.5336H43.8944V41.7256C44.2784 42.1936 44.9384 42.5056 45.6464 42.5056C47.1464 42.5056 48.3104 41.1736 48.3104 39.3496ZM55.0462 39.3856C55.0462 37.5616 53.8342 36.2416 52.1662 36.2416C50.4982 36.2416 49.2742 37.5616 49.2742 39.3856C49.2742 41.1856 50.4982 42.5056 52.1662 42.5056C53.8342 42.5056 55.0462 41.1856 55.0462 39.3856ZM50.3542 39.3856C50.3542 38.0656 51.1102 37.0936 52.1662 37.0936C53.2102 37.0936 53.9662 38.0656 53.9662 39.3856C53.9662 40.6816 53.2102 41.6416 52.1662 41.6416C51.1102 41.6416 50.3542 40.6816 50.3542 39.3856ZM59.7467 42.3136V41.4616C59.4947 41.5576 59.0747 41.6296 58.7027 41.6296C57.9467 41.6296 57.6467 41.2576 57.6467 40.6936V37.2376H59.7107V36.3976H57.6467V34.9456H56.6267V36.3976H55.7507V37.2376H56.6267V40.8616C56.6267 41.9056 57.3347 42.5056 58.5227 42.5056C58.9667 42.5056 59.4827 42.4096 59.7467 42.3136ZM65.6036 40.9936L64.7876 40.6816C64.4756 41.2936 63.8996 41.6656 63.2516 41.6656C62.2556 41.6656 61.5356 40.8376 61.4636 39.5896H65.5916C65.6276 39.4336 65.6516 39.1096 65.6516 38.8456C65.6516 37.3216 64.6076 36.2416 63.1556 36.2416C61.5716 36.2416 60.3956 37.5856 60.3956 39.4216C60.3956 41.2216 61.5716 42.5056 63.1916 42.5056C64.2596 42.5056 65.1836 41.9416 65.6036 40.9936ZM63.1676 37.0696C64.0076 37.0696 64.5956 37.7416 64.6316 38.7736H61.5236C61.7036 37.7416 62.3396 37.0696 63.1676 37.0696ZM66.3431 36.3976L68.4911 42.3496H69.5471L71.6831 36.3976H70.6511L69.0671 41.0296H69.0311L67.4471 36.3976H66.3431ZM77.6658 42.4456L77.7138 41.6656C77.6418 41.6776 77.5218 41.6896 77.4498 41.6896C77.0898 41.6896 76.9098 41.4376 76.9098 41.1136V38.3776C76.9098 36.9976 76.0698 36.2416 74.7738 36.2416C73.7418 36.2416 72.8418 36.8176 72.4098 37.7536L73.2018 38.0776C73.5018 37.5136 73.9698 37.0936 74.6778 37.0936C75.4098 37.0936 75.8898 37.5976 75.8898 38.3416V38.8096L74.4978 38.9776C73.1778 39.1456 72.2418 39.7816 72.2418 40.8856C72.2418 41.8336 72.9978 42.5056 74.0538 42.5056C74.8938 42.5056 75.5538 42.0976 75.9378 41.4616C76.0818 42.1456 76.5258 42.5056 77.1978 42.5056C77.3778 42.5056 77.5218 42.4816 77.6658 42.4456ZM74.3298 41.6776C73.7298 41.6776 73.3098 41.3176 73.3098 40.8136C73.3098 40.2016 73.8858 39.8416 74.6778 39.7456L75.8898 39.6016V40.6936C75.5778 41.2696 74.9898 41.6776 74.3298 41.6776ZM86.1178 40.7176C86.1178 39.6136 85.1818 39.1576 83.8378 38.8696C82.8298 38.6416 82.2538 38.4616 82.2538 37.9336C82.2538 37.4296 82.8178 37.0816 83.6098 37.0816C84.4378 37.0816 84.9898 37.4296 85.2658 38.0056L86.0818 37.6816C85.7338 36.9496 85.0018 36.2416 83.6218 36.2416C82.2178 36.2416 81.2578 36.9856 81.2578 37.9936C81.2578 39.0256 82.2298 39.5056 83.5498 39.7816C84.5698 39.9976 85.1338 40.2016 85.1338 40.7656C85.1338 41.3056 84.6298 41.6776 83.7538 41.6776C82.7578 41.6776 82.1218 41.2336 81.8218 40.6456L80.9818 40.9696C81.3898 41.9056 82.3498 42.5056 83.7058 42.5056C85.2178 42.5056 86.1178 41.7736 86.1178 40.7176ZM90.8483 42.3136V41.4616C90.5963 41.5576 90.1763 41.6296 89.8043 41.6296C89.0483 41.6296 88.7483 41.2576 88.7483 40.6936V37.2376H90.8123V36.3976H88.7483V34.9456H87.7283V36.3976H86.8523V37.2376H87.7283V40.8616C87.7283 41.9056 88.4363 42.5056 89.6243 42.5056C90.0683 42.5056 90.5843 42.4096 90.8483 42.3136ZM96.9197 42.4456L96.9677 41.6656C96.8957 41.6776 96.7757 41.6896 96.7037 41.6896C96.3437 41.6896 96.1637 41.4376 96.1637 41.1136V38.3776C96.1637 36.9976 95.3237 36.2416 94.0277 36.2416C92.9957 36.2416 92.0957 36.8176 91.6637 37.7536L92.4557 38.0776C92.7557 37.5136 93.2237 37.0936 93.9317 37.0936C94.6637 37.0936 95.1437 37.5976 95.1437 38.3416V38.8096L93.7517 38.9776C92.4317 39.1456 91.4957 39.7816 91.4957 40.8856C91.4957 41.8336 92.2517 42.5056 93.3077 42.5056C94.1477 42.5056 94.8077 42.0976 95.1917 41.4616C95.3357 42.1456 95.7797 42.5056 96.4517 42.5056C96.6317 42.5056 96.7757 42.4816 96.9197 42.4456ZM93.5837 41.6776C92.9837 41.6776 92.5637 41.3176 92.5637 40.8136C92.5637 40.2016 93.1397 39.8416 93.9317 39.7456L95.1437 39.6016V40.6936C94.8317 41.2696 94.2437 41.6776 93.5837 41.6776ZM99.078 42.3496V38.7976C99.174 38.0056 99.654 37.2616 100.578 37.2616C100.782 37.2616 101.07 37.2976 101.238 37.3456V36.3376C101.118 36.2896 100.83 36.2416 100.626 36.2416C99.93 36.2416 99.282 36.8536 99.042 37.6096V36.3976H98.058V42.3496H99.078ZM107.018 40.9936L106.202 40.6816C105.89 41.2936 105.314 41.6656 104.666 41.6656C103.67 41.6656 102.95 40.8376 102.878 39.5896H107.006C107.042 39.4336 107.066 39.1096 107.066 38.8456C107.066 37.3216 106.022 36.2416 104.57 36.2416C102.986 36.2416 101.81 37.5856 101.81 39.4216C101.81 41.2216 102.986 42.5056 104.606 42.5056C105.674 42.5056 106.598 41.9416 107.018 40.9936ZM104.582 37.0696C105.422 37.0696 106.01 37.7416 106.046 38.7736H102.938C103.118 37.7416 103.754 37.0696 104.582 37.0696ZM109.507 42.3496V40.7536H108.307V42.3496H109.507ZM115.089 42.3496V36.4216L117.405 39.4216H117.933L120.177 36.3496V42.3496H121.245V34.5856H120.225L117.693 38.1136L115.041 34.5856H114.057V42.3496H115.089ZM128.174 42.4456L128.222 41.6656C128.15 41.6776 128.03 41.6896 127.958 41.6896C127.598 41.6896 127.418 41.4376 127.418 41.1136V38.3776C127.418 36.9976 126.578 36.2416 125.282 36.2416C124.25 36.2416 123.35 36.8176 122.918 37.7536L123.71 38.0776C124.01 37.5136 124.478 37.0936 125.186 37.0936C125.918 37.0936 126.398 37.5976 126.398 38.3416V38.8096L125.006 38.9776C123.686 39.1456 122.75 39.7816 122.75 40.8856C122.75 41.8336 123.506 42.5056 124.562 42.5056C125.402 42.5056 126.062 42.0976 126.446 41.4616C126.59 42.1456 127.034 42.5056 127.706 42.5056C127.886 42.5056 128.03 42.4816 128.174 42.4456ZM124.838 41.6776C124.238 41.6776 123.818 41.3176 123.818 40.8136C123.818 40.2016 124.394 39.8416 125.186 39.7456L126.398 39.6016V40.6936C126.086 41.2696 125.498 41.6776 124.838 41.6776ZM134.442 41.6536C133.446 41.6536 132.738 40.7056 132.738 39.4096C132.738 38.0776 133.482 37.1056 134.514 37.1056C135.15 37.1056 135.738 37.3936 136.05 37.8496V40.7896C135.702 41.3056 135.066 41.6536 134.442 41.6536ZM137.07 42.3496V33.9016H136.05V37.0456C135.642 36.5656 134.946 36.2416 134.298 36.2416C132.762 36.2416 131.646 37.5736 131.646 39.4216C131.646 41.2096 132.726 42.5056 134.214 42.5056C134.898 42.5056 135.666 42.0856 136.11 41.4976V42.3496H137.07ZM144.249 39.3856C144.249 37.5616 143.037 36.2416 141.369 36.2416C139.701 36.2416 138.477 37.5616 138.477 39.3856C138.477 41.1856 139.701 42.5056 141.369 42.5056C143.037 42.5056 144.249 41.1856 144.249 39.3856ZM139.557 39.3856C139.557 38.0656 140.313 37.0936 141.369 37.0936C142.413 37.0936 143.169 38.0656 143.169 39.3856C143.169 40.6816 142.413 41.6416 141.369 41.6416C140.313 41.6416 139.557 40.6816 139.557 39.3856ZM148.216 41.6536C147.652 41.6536 147.028 41.3536 146.668 40.9216V38.0296C146.98 37.5496 147.568 37.0816 148.264 37.0816C149.26 37.0816 150.004 37.9816 150.004 39.3496C150.004 40.7056 149.26 41.6536 148.216 41.6536ZM151.084 39.3496C151.084 37.5256 149.932 36.2416 148.528 36.2416C147.616 36.2416 146.944 36.7936 146.632 37.2856V36.3976H145.648V44.5336H146.668V41.7256C147.052 42.1936 147.712 42.5056 148.42 42.5056C149.92 42.5056 151.084 41.1736 151.084 39.3496ZM157.82 39.3856C157.82 37.5616 156.608 36.2416 154.94 36.2416C153.272 36.2416 152.048 37.5616 152.048 39.3856C152.048 41.1856 153.272 42.5056 154.94 42.5056C156.608 42.5056 157.82 41.1856 157.82 39.3856ZM153.128 39.3856C153.128 38.0656 153.884 37.0936 154.94 37.0936C155.984 37.0936 156.74 38.0656 156.74 39.3856C156.74 40.6816 155.984 41.6416 154.94 41.6416C153.884 41.6416 153.128 40.6816 153.128 39.3856ZM166.784 42.3496V36.3976H165.764V40.5016C165.464 41.1616 164.888 41.6416 164.18 41.6416C163.448 41.6416 162.92 41.0656 162.92 40.2616V36.3976H161.9V40.3336C161.9 41.5936 162.74 42.5056 163.892 42.5056C164.768 42.5056 165.452 42.0016 165.8 41.3656V42.3496H166.784ZM173.632 42.3496V38.4136C173.632 37.1416 172.744 36.2416 171.58 36.2416C170.728 36.2416 170.008 36.7456 169.612 37.3096V36.3976H168.628V42.3496H169.648V38.0296C170.02 37.5016 170.668 37.1056 171.34 37.1056C172.084 37.1056 172.612 37.6576 172.612 38.4856V42.3496H173.632ZM183.111 42.4456L183.159 41.6656C183.087 41.6776 182.967 41.6896 182.895 41.6896C182.535 41.6896 182.355 41.4376 182.355 41.1136V38.3776C182.355 36.9976 181.515 36.2416 180.219 36.2416C179.187 36.2416 178.287 36.8176 177.855 37.7536L178.647 38.0776C178.947 37.5136 179.415 37.0936 180.123 37.0936C180.855 37.0936 181.335 37.5976 181.335 38.3416V38.8096L179.943 38.9776C178.623 39.1456 177.687 39.7816 177.687 40.8856C177.687 41.8336 178.443 42.5056 179.499 42.5056C180.339 42.5056 180.999 42.0976 181.383 41.4616C181.527 42.1456 181.971 42.5056 182.643 42.5056C182.823 42.5056 182.967 42.4816 183.111 42.4456ZM179.775 41.6776C179.175 41.6776 178.755 41.3176 178.755 40.8136C178.755 40.2016 179.331 39.8416 180.123 39.7456L181.335 39.6016V40.6936C181.023 41.2696 180.435 41.6776 179.775 41.6776ZM189.253 42.3496V38.4136C189.253 37.1416 188.365 36.2416 187.201 36.2416C186.349 36.2416 185.629 36.7456 185.233 37.3096V36.3976H184.249V42.3496H185.269V38.0296C185.641 37.5016 186.289 37.1056 186.961 37.1056C187.705 37.1056 188.233 37.6576 188.233 38.4856V42.3496H189.253ZM196.039 42.3496V38.4136C196.039 37.1416 195.151 36.2416 193.987 36.2416C193.135 36.2416 192.415 36.7456 192.019 37.3096V36.3976H191.035V42.3496H192.055V38.0296C192.427 37.5016 193.075 37.1056 193.747 37.1056C194.491 37.1056 195.019 37.6576 195.019 38.4856V42.3496H196.039ZM203.148 39.3856C203.148 37.5616 201.936 36.2416 200.268 36.2416C198.6 36.2416 197.376 37.5616 197.376 39.3856C197.376 41.1856 198.6 42.5056 200.268 42.5056C201.936 42.5056 203.148 41.1856 203.148 39.3856ZM198.456 39.3856C198.456 38.0656 199.212 37.0936 200.268 37.0936C201.312 37.0936 202.068 38.0656 202.068 39.3856C202.068 40.6816 201.312 41.6416 200.268 41.6416C199.212 41.6416 198.456 40.6816 198.456 39.3856ZM211.86 40.7176C211.86 39.6136 210.924 39.1576 209.58 38.8696C208.572 38.6416 207.996 38.4616 207.996 37.9336C207.996 37.4296 208.56 37.0816 209.352 37.0816C210.18 37.0816 210.732 37.4296 211.008 38.0056L211.824 37.6816C211.476 36.9496 210.744 36.2416 209.364 36.2416C207.96 36.2416 207 36.9856 207 37.9936C207 39.0256 207.972 39.5056 209.292 39.7816C210.312 39.9976 210.876 40.2016 210.876 40.7656C210.876 41.3056 210.372 41.6776 209.496 41.6776C208.5 41.6776 207.864 41.2336 207.564 40.6456L206.724 40.9696C207.132 41.9056 208.092 42.5056 209.448 42.5056C210.96 42.5056 211.86 41.7736 211.86 40.7176ZM218.029 40.9936L217.213 40.6816C216.901 41.2936 216.325 41.6656 215.677 41.6656C214.681 41.6656 213.961 40.8376 213.889 39.5896H218.017C218.053 39.4336 218.077 39.1096 218.077 38.8456C218.077 37.3216 217.033 36.2416 215.581 36.2416C213.997 36.2416 212.821 37.5856 212.821 39.4216C212.821 41.2216 213.997 42.5056 215.617 42.5056C216.685 42.5056 217.609 41.9416 218.029 40.9936ZM215.593 37.0696C216.433 37.0696 217.021 37.7416 217.057 38.7736H213.949C214.129 37.7416 214.765 37.0696 215.593 37.0696ZM224.515 42.3496V38.4136C224.515 37.1416 223.627 36.2416 222.463 36.2416C221.611 36.2416 220.891 36.7456 220.495 37.3096V36.3976H219.511V42.3496H220.531V38.0296C220.903 37.5016 221.551 37.1056 222.223 37.1056C222.967 37.1056 223.495 37.6576 223.495 38.4856V42.3496H224.515ZM225.888 37.2856H229.092L225.804 41.5576V42.3496H230.46V41.4616H227.028L230.4 37.1896V36.3976H225.888V37.2856ZM236.736 42.4456L236.784 41.6656C236.712 41.6776 236.592 41.6896 236.52 41.6896C236.16 41.6896 235.98 41.4376 235.98 41.1136V38.3776C235.98 36.9976 235.14 36.2416 233.844 36.2416C232.812 36.2416 231.912 36.8176 231.48 37.7536L232.272 38.0776C232.572 37.5136 233.04 37.0936 233.748 37.0936C234.48 37.0936 234.96 37.5976 234.96 38.3416V38.8096L233.568 38.9776C232.248 39.1456 231.312 39.7816 231.312 40.8856C231.312 41.8336 232.068 42.5056 233.124 42.5056C233.964 42.5056 234.624 42.0976 235.008 41.4616C235.152 42.1456 235.596 42.5056 236.268 42.5056C236.448 42.5056 236.592 42.4816 236.736 42.4456ZM233.4 41.6776C232.8 41.6776 232.38 41.3176 232.38 40.8136C232.38 40.2016 232.956 39.8416 233.748 39.7456L234.96 39.6016V40.6936C234.648 41.2696 234.06 41.6776 233.4 41.6776ZM243.208 41.6536C242.644 41.6536 242.02 41.3536 241.66 40.9216V38.0296C241.972 37.5496 242.56 37.0816 243.256 37.0816C244.252 37.0816 244.996 37.9816 244.996 39.3496C244.996 40.7056 244.252 41.6536 243.208 41.6536ZM246.076 39.3496C246.076 37.5256 244.924 36.2416 243.52 36.2416C242.608 36.2416 241.936 36.7936 241.624 37.2856V36.3976H240.64V44.5336H241.66V41.7256C242.044 42.1936 242.704 42.5056 243.412 42.5056C244.912 42.5056 246.076 41.1736 246.076 39.3496ZM248.504 42.3496V38.7976C248.6 38.0056 249.08 37.2616 250.004 37.2616C250.208 37.2616 250.496 37.2976 250.664 37.3456V36.3376C250.544 36.2896 250.256 36.2416 250.052 36.2416C249.356 36.2416 248.708 36.8536 248.468 37.6096V36.3976H247.484V42.3496H248.504ZM256.995 39.3856C256.995 37.5616 255.783 36.2416 254.115 36.2416C252.447 36.2416 251.223 37.5616 251.223 39.3856C251.223 41.1856 252.447 42.5056 254.115 42.5056C255.783 42.5056 256.995 41.1856 256.995 39.3856ZM252.303 39.3856C252.303 38.0656 253.059 37.0936 254.115 37.0936C255.159 37.0936 255.915 38.0656 255.915 39.3856C255.915 40.6816 255.159 41.6416 254.115 41.6416C253.059 41.6416 252.303 40.6816 252.303 39.3856ZM261.696 42.3136V41.4616C261.444 41.5576 261.024 41.6296 260.652 41.6296C259.896 41.6296 259.596 41.2576 259.596 40.6936V37.2376H261.66V36.3976H259.596V34.9456H258.576V36.3976H257.7V37.2376H258.576V40.8616C258.576 41.9056 259.284 42.5056 260.472 42.5056C260.916 42.5056 261.432 42.4096 261.696 42.3136ZM268.105 39.3856C268.105 37.5616 266.893 36.2416 265.225 36.2416C263.557 36.2416 262.333 37.5616 262.333 39.3856C262.333 41.1856 263.557 42.5056 265.225 42.5056C266.893 42.5056 268.105 41.1856 268.105 39.3856ZM263.413 39.3856C263.413 38.0656 264.169 37.0936 265.225 37.0936C266.269 37.0936 267.025 38.0656 267.025 39.3856C267.025 40.6816 266.269 41.6416 265.225 41.6416C264.169 41.6416 263.413 40.6816 263.413 39.3856ZM274.123 40.8856L273.259 40.5496C272.971 41.2096 272.491 41.6296 271.831 41.6296C270.859 41.6296 270.151 40.7056 270.151 39.4216C270.151 38.0776 270.835 37.1056 271.783 37.1056C272.383 37.1056 272.899 37.4776 273.187 38.1736L274.075 37.8136C273.655 36.8536 272.851 36.2416 271.759 36.2416C270.199 36.2416 269.071 37.5736 269.071 39.4216C269.071 41.2096 270.211 42.5056 271.795 42.5056C272.887 42.5056 273.739 41.8216 274.123 40.8856ZM280.691 39.3856C280.691 37.5616 279.479 36.2416 277.811 36.2416C276.143 36.2416 274.919 37.5616 274.919 39.3856C274.919 41.1856 276.143 42.5056 277.811 42.5056C279.479 42.5056 280.691 41.1856 280.691 39.3856ZM275.999 39.3856C275.999 38.0656 276.755 37.0936 277.811 37.0936C278.855 37.0936 279.611 38.0656 279.611 39.3856C279.611 40.6816 278.855 41.6416 277.811 41.6416C276.755 41.6416 275.999 40.6816 275.999 39.3856ZM283.109 33.9016H282.089V42.3496H283.109V33.9016ZM285.98 33.9016H284.96V42.3496H285.98V33.9016ZM293.159 39.3856C293.159 37.5616 291.947 36.2416 290.279 36.2416C288.611 36.2416 287.387 37.5616 287.387 39.3856C287.387 41.1856 288.611 42.5056 290.279 42.5056C291.947 42.5056 293.159 41.1856 293.159 39.3856ZM288.467 39.3856C288.467 38.0656 289.223 37.0936 290.279 37.0936C291.323 37.0936 292.079 38.0656 292.079 39.3856C292.079 40.6816 291.323 41.6416 290.279 41.6416C289.223 41.6416 288.467 40.6816 288.467 39.3856ZM33.9463 56.6536C33.3823 56.6536 32.7583 56.3536 32.3983 55.9216V53.0296C32.7103 52.5496 33.2983 52.0816 33.9943 52.0816C34.9903 52.0816 35.7343 52.9816 35.7343 54.3496C35.7343 55.7056 34.9903 56.6536 33.9463 56.6536ZM36.8143 54.3496C36.8143 52.5256 35.6623 51.2416 34.2583 51.2416C33.3463 51.2416 32.6743 51.7936 32.3623 52.2856V51.3976H31.3783V59.5336H32.3983V56.7256C32.7823 57.1936 33.4423 57.5056 34.1503 57.5056C35.6503 57.5056 36.8143 56.1736 36.8143 54.3496ZM42.9981 55.9936L42.1821 55.6816C41.8701 56.2936 41.2941 56.6656 40.6461 56.6656C39.6501 56.6656 38.9301 55.8376 38.8581 54.5896H42.9861C43.0221 54.4336 43.0461 54.1096 43.0461 53.8456C43.0461 52.3216 42.0021 51.2416 40.5501 51.2416C38.9661 51.2416 37.7901 52.5856 37.7901 54.4216C37.7901 56.2216 38.9661 57.5056 40.5861 57.5056C41.6541 57.5056 42.5781 56.9416 42.9981 55.9936ZM40.5621 52.0696C41.4021 52.0696 41.9901 52.7416 42.0261 53.7736H38.9181C39.0981 52.7416 39.7341 52.0696 40.5621 52.0696ZM45.4999 57.3496V53.7976C45.5959 53.0056 46.0759 52.2616 46.9999 52.2616C47.2039 52.2616 47.4919 52.2976 47.6599 52.3456V51.3376C47.5399 51.2896 47.2519 51.2416 47.0479 51.2416C46.3519 51.2416 45.7039 51.8536 45.4639 52.6096V51.3976H44.4799V57.3496H45.4999ZM52.3319 57.3496V53.7976C52.4279 53.0056 52.9079 52.2616 53.8319 52.2616C54.0359 52.2616 54.3239 52.2976 54.4919 52.3456V51.3376C54.3719 51.2896 54.0839 51.2416 53.8799 51.2416C53.1839 51.2416 52.5359 51.8536 52.2959 52.6096V51.3976H51.3119V57.3496H52.3319ZM56.6796 51.3976H55.6596V57.3496H56.6796V51.3976ZM56.6796 49.0336H55.6596V50.2216H56.6796V49.0336ZM63.4627 57.4456L63.5107 56.6656C63.4387 56.6776 63.3187 56.6896 63.2467 56.6896C62.8867 56.6896 62.7067 56.4376 62.7067 56.1136V53.3776C62.7067 51.9976 61.8667 51.2416 60.5707 51.2416C59.5387 51.2416 58.6387 51.8176 58.2067 52.7536L58.9987 53.0776C59.2987 52.5136 59.7667 52.0936 60.4747 52.0936C61.2067 52.0936 61.6867 52.5976 61.6867 53.3416V53.8096L60.2947 53.9776C58.9747 54.1456 58.0387 54.7816 58.0387 55.8856C58.0387 56.8336 58.7947 57.5056 59.8507 57.5056C60.6907 57.5056 61.3507 57.0976 61.7347 56.4616C61.8787 57.1456 62.3227 57.5056 62.9947 57.5056C63.1747 57.5056 63.3187 57.4816 63.4627 57.4456ZM60.1267 56.6776C59.5267 56.6776 59.1067 56.3176 59.1067 55.8136C59.1067 55.2016 59.6827 54.8416 60.4747 54.7456L61.6867 54.6016V55.6936C61.3747 56.2696 60.7867 56.6776 60.1267 56.6776ZM67.169 56.6536C66.605 56.6536 65.981 56.3536 65.621 55.9216V53.0296C65.933 52.5496 66.521 52.0816 67.217 52.0816C68.213 52.0816 68.957 52.9816 68.957 54.3496C68.957 55.7056 68.213 56.6536 67.169 56.6536ZM70.037 54.3496C70.037 52.5256 68.885 51.2416 67.481 51.2416C66.569 51.2416 65.897 51.7936 65.585 52.2856V51.3976H64.601V59.5336H65.621V56.7256C66.005 57.1936 66.665 57.5056 67.373 57.5056C68.873 57.5056 70.037 56.1736 70.037 54.3496ZM72.4648 57.3496V53.7976C72.5608 53.0056 73.0408 52.2616 73.9648 52.2616C74.1688 52.2616 74.4568 52.2976 74.6248 52.3456V51.3376C74.5048 51.2896 74.2168 51.2416 74.0128 51.2416C73.3168 51.2416 72.6688 51.8536 72.4288 52.6096V51.3976H71.4448V57.3496H72.4648ZM76.8124 51.3976H75.7924V57.3496H76.8124V51.3976ZM76.8124 49.0336H75.7924V50.2216H76.8124V49.0336ZM79.6835 57.3496V53.7976C79.7795 53.0056 80.2595 52.2616 81.1835 52.2616C81.3875 52.2616 81.6755 52.2976 81.8435 52.3456V51.3376C81.7235 51.2896 81.4355 51.2416 81.2315 51.2416C80.5355 51.2416 79.8875 51.8536 79.6475 52.6096V51.3976H78.6635V57.3496H79.6835ZM87.6231 55.9936L86.8071 55.6816C86.4951 56.2936 85.9191 56.6656 85.2711 56.6656C84.2751 56.6656 83.5551 55.8376 83.4831 54.5896H87.6111C87.6471 54.4336 87.6711 54.1096 87.6711 53.8456C87.6711 52.3216 86.6271 51.2416 85.1751 51.2416C83.5911 51.2416 82.4151 52.5856 82.4151 54.4216C82.4151 56.2216 83.5911 57.5056 85.2111 57.5056C86.2791 57.5056 87.2031 56.9416 87.6231 55.9936ZM85.1871 52.0696C86.0271 52.0696 86.6151 52.7416 86.6511 53.7736H83.5431C83.7231 52.7416 84.3591 52.0696 85.1871 52.0696ZM92.8905 51.3976H91.8705V57.3496H92.8905V51.3976ZM92.8905 49.0336H91.8705V50.2216H92.8905V49.0336ZM99.7456 57.3496V53.4136C99.7456 52.1416 98.8576 51.2416 97.6936 51.2416C96.8416 51.2416 96.1216 51.7456 95.7256 52.3096V51.3976H94.7416V57.3496H95.7616V53.0296C96.1336 52.5016 96.7816 52.1056 97.4536 52.1056C98.1976 52.1056 98.7256 52.6576 98.7256 53.4856V57.3496H99.7456ZM108.84 55.7176C108.84 54.6136 107.904 54.1576 106.56 53.8696C105.552 53.6416 104.976 53.4616 104.976 52.9336C104.976 52.4296 105.54 52.0816 106.332 52.0816C107.16 52.0816 107.712 52.4296 107.988 53.0056L108.804 52.6816C108.456 51.9496 107.724 51.2416 106.344 51.2416C104.94 51.2416 103.98 51.9856 103.98 52.9936C103.98 54.0256 104.952 54.5056 106.272 54.7816C107.292 54.9976 107.856 55.2016 107.856 55.7656C107.856 56.3056 107.352 56.6776 106.476 56.6776C105.48 56.6776 104.844 56.2336 104.544 55.6456L103.704 55.9696C104.112 56.9056 105.072 57.5056 106.428 57.5056C107.94 57.5056 108.84 56.7736 108.84 55.7176ZM111.254 51.3976H110.234V57.3496H111.254V51.3976ZM111.254 49.0336H110.234V50.2216H111.254V49.0336ZM117.725 55.8856L116.861 55.5496C116.573 56.2096 116.093 56.6296 115.433 56.6296C114.461 56.6296 113.753 55.7056 113.753 54.4216C113.753 53.0776 114.437 52.1056 115.385 52.1056C115.985 52.1056 116.501 52.4776 116.789 53.1736L117.677 52.8136C117.257 51.8536 116.453 51.2416 115.361 51.2416C113.801 51.2416 112.673 52.5736 112.673 54.4216C112.673 56.2096 113.813 57.5056 115.397 57.5056C116.489 57.5056 117.341 56.8216 117.725 55.8856ZM123.764 57.3496V51.3976H122.744V55.5016C122.444 56.1616 121.868 56.6416 121.16 56.6416C120.428 56.6416 119.9 56.0656 119.9 55.2616V51.3976H118.88V55.3336C118.88 56.5936 119.72 57.5056 120.872 57.5056C121.748 57.5056 122.432 57.0016 122.78 56.3656V57.3496H123.764ZM126.629 57.3496V53.7976C126.725 53.0056 127.205 52.2616 128.129 52.2616C128.333 52.2616 128.621 52.2976 128.789 52.3456V51.3376C128.669 51.2896 128.381 51.2416 128.177 51.2416C127.481 51.2416 126.833 51.8536 126.593 52.6096V51.3976H125.609V57.3496H126.629ZM134.568 55.9936L133.752 55.6816C133.44 56.2936 132.864 56.6656 132.216 56.6656C131.22 56.6656 130.5 55.8376 130.428 54.5896H134.556C134.592 54.4336 134.616 54.1096 134.616 53.8456C134.616 52.3216 133.572 51.2416 132.12 51.2416C130.536 51.2416 129.36 52.5856 129.36 54.4216C129.36 56.2216 130.536 57.5056 132.156 57.5056C133.224 57.5056 134.148 56.9416 134.568 55.9936ZM132.132 52.0696C132.972 52.0696 133.56 52.7416 133.596 53.7736H130.488C130.668 52.7416 131.304 52.0696 132.132 52.0696ZM135.642 52.2856H138.846L135.558 56.5576V57.3496H140.214V56.4616H136.782L140.154 52.1896V51.3976H135.642V52.2856ZM141.15 52.2856H144.354L141.066 56.5576V57.3496H145.722V56.4616H142.29L145.662 52.1896V51.3976H141.15V52.2856ZM151.998 57.4456L152.046 56.6656C151.974 56.6776 151.854 56.6896 151.782 56.6896C151.422 56.6896 151.242 56.4376 151.242 56.1136V53.3776C151.242 51.9976 150.402 51.2416 149.106 51.2416C148.074 51.2416 147.174 51.8176 146.742 52.7536L147.534 53.0776C147.834 52.5136 148.302 52.0936 149.01 52.0936C149.742 52.0936 150.222 52.5976 150.222 53.3416V53.8096L148.83 53.9776C147.51 54.1456 146.574 54.7816 146.574 55.8856C146.574 56.8336 147.33 57.5056 148.386 57.5056C149.226 57.5056 149.886 57.0976 150.27 56.4616C150.414 57.1456 150.858 57.5056 151.53 57.5056C151.71 57.5056 151.854 57.4816 151.998 57.4456ZM148.662 56.6776C148.062 56.6776 147.642 56.3176 147.642 55.8136C147.642 55.2016 148.218 54.8416 149.01 54.7456L150.222 54.6016V55.6936C149.91 56.2696 149.322 56.6776 148.662 56.6776ZM161.062 57.7456C161.062 56.8816 160.426 56.4256 159.07 56.3056L158.23 56.2336C157.39 56.1616 157.09 56.0176 157.09 55.8376C157.09 55.6936 157.222 55.4896 157.342 55.3576C157.546 55.4056 157.774 55.4296 157.99 55.4296C159.286 55.4296 160.342 54.5896 160.342 53.4256C160.342 52.9936 160.21 52.5856 159.958 52.2376C160.282 52.0696 160.798 51.9256 161.278 51.9256V51.0136C160.546 51.0136 159.97 51.3616 159.61 51.8536C159.178 51.4816 158.59 51.2416 157.918 51.2416C156.586 51.2416 155.542 52.1536 155.542 53.3536C155.542 54.2056 156.07 54.8536 156.814 55.1896C156.43 55.4536 156.106 55.8616 156.106 56.1376C156.106 56.3776 156.274 56.5816 156.574 56.7376C155.83 57.0496 155.29 57.5896 155.29 58.1296C155.29 59.1136 156.382 59.6896 158.05 59.6896C159.898 59.6896 161.062 58.8736 161.062 57.7456ZM158.062 58.9096C156.946 58.9096 156.31 58.5016 156.31 57.9736C156.31 57.5656 156.682 57.1696 157.186 56.9536C157.426 57.0136 157.702 57.0616 158.014 57.0856L158.854 57.1576C159.814 57.2416 160.054 57.4696 160.054 57.9016C160.054 58.4656 159.274 58.9096 158.062 58.9096ZM156.562 53.3656C156.562 52.6096 157.138 52.0216 157.93 52.0216C158.722 52.0216 159.322 52.6096 159.322 53.3656C159.322 54.1096 158.722 54.6496 157.93 54.6496C157.138 54.6496 156.562 54.1096 156.562 53.3656ZM163.426 48.9016H162.406V57.3496H163.426V48.9016ZM166.297 51.3976H165.277V57.3496H166.297V51.3976ZM166.297 49.0336H165.277V50.2216H166.297V49.0336ZM175.462 55.7176C175.462 54.6136 174.526 54.1576 173.182 53.8696C172.174 53.6416 171.598 53.4616 171.598 52.9336C171.598 52.4296 172.162 52.0816 172.954 52.0816C173.782 52.0816 174.334 52.4296 174.61 53.0056L175.426 52.6816C175.078 51.9496 174.346 51.2416 172.966 51.2416C171.562 51.2416 170.602 51.9856 170.602 52.9936C170.602 54.0256 171.574 54.5056 172.894 54.7816C173.914 54.9976 174.478 55.2016 174.478 55.7656C174.478 56.3056 173.974 56.6776 173.098 56.6776C172.102 56.6776 171.466 56.2336 171.166 55.6456L170.326 55.9696C170.734 56.9056 171.694 57.5056 173.05 57.5056C174.562 57.5056 175.462 56.7736 175.462 55.7176ZM179.423 56.6536C178.859 56.6536 178.235 56.3536 177.875 55.9216V53.0296C178.187 52.5496 178.775 52.0816 179.471 52.0816C180.467 52.0816 181.211 52.9816 181.211 54.3496C181.211 55.7056 180.467 56.6536 179.423 56.6536ZM182.291 54.3496C182.291 52.5256 181.139 51.2416 179.735 51.2416C178.823 51.2416 178.151 51.7936 177.839 52.2856V51.3976H176.855V59.5336H177.875V56.7256C178.259 57.1936 178.919 57.5056 179.627 57.5056C181.127 57.5056 182.291 56.1736 182.291 54.3496ZM188.475 55.9936L187.659 55.6816C187.347 56.2936 186.771 56.6656 186.123 56.6656C185.127 56.6656 184.407 55.8376 184.335 54.5896H188.463C188.499 54.4336 188.523 54.1096 188.523 53.8456C188.523 52.3216 187.479 51.2416 186.027 51.2416C184.443 51.2416 183.267 52.5856 183.267 54.4216C183.267 56.2216 184.443 57.5056 186.063 57.5056C187.131 57.5056 188.055 56.9416 188.475 55.9936ZM186.039 52.0696C186.879 52.0696 187.467 52.7416 187.503 53.7736H184.395C184.575 52.7416 185.211 52.0696 186.039 52.0696ZM193.282 57.3136V56.4616C193.03 56.5576 192.61 56.6296 192.238 56.6296C191.482 56.6296 191.182 56.2576 191.182 55.6936V52.2376H193.246V51.3976H191.182V49.9456H190.162V51.3976H189.286V52.2376H190.162V55.8616C190.162 56.9056 190.87 57.5056 192.058 57.5056C192.502 57.5056 193.018 57.4096 193.282 57.3136ZM197.805 57.3136V56.4616C197.553 56.5576 197.133 56.6296 196.761 56.6296C196.005 56.6296 195.705 56.2576 195.705 55.6936V52.2376H197.769V51.3976H195.705V49.9456H194.685V51.3976H193.809V52.2376H194.685V55.8616C194.685 56.9056 195.393 57.5056 196.581 57.5056C197.025 57.5056 197.541 57.4096 197.805 57.3136ZM203.877 57.4456L203.925 56.6656C203.853 56.6776 203.733 56.6896 203.661 56.6896C203.301 56.6896 203.121 56.4376 203.121 56.1136V53.3776C203.121 51.9976 202.281 51.2416 200.985 51.2416C199.953 51.2416 199.053 51.8176 198.621 52.7536L199.413 53.0776C199.713 52.5136 200.181 52.0936 200.889 52.0936C201.621 52.0936 202.101 52.5976 202.101 53.3416V53.8096L200.709 53.9776C199.389 54.1456 198.453 54.7816 198.453 55.8856C198.453 56.8336 199.209 57.5056 200.265 57.5056C201.105 57.5056 201.765 57.0976 202.149 56.4616C202.293 57.1456 202.737 57.5056 203.409 57.5056C203.589 57.5056 203.733 57.4816 203.877 57.4456ZM200.541 56.6776C199.941 56.6776 199.521 56.3176 199.521 55.8136C199.521 55.2016 200.097 54.8416 200.889 54.7456L202.101 54.6016V55.6936C201.789 56.2696 201.201 56.6776 200.541 56.6776ZM209.635 55.8856L208.771 55.5496C208.483 56.2096 208.003 56.6296 207.343 56.6296C206.371 56.6296 205.663 55.7056 205.663 54.4216C205.663 53.0776 206.347 52.1056 207.295 52.1056C207.895 52.1056 208.411 52.4776 208.699 53.1736L209.587 52.8136C209.167 51.8536 208.363 51.2416 207.271 51.2416C205.711 51.2416 204.583 52.5736 204.583 54.4216C204.583 56.2096 205.723 57.5056 207.307 57.5056C208.399 57.5056 209.251 56.8216 209.635 55.8856ZM216.202 54.3856C216.202 52.5616 214.99 51.2416 213.322 51.2416C211.654 51.2416 210.43 52.5616 210.43 54.3856C210.43 56.1856 211.654 57.5056 213.322 57.5056C214.99 57.5056 216.202 56.1856 216.202 54.3856ZM211.51 54.3856C211.51 53.0656 212.266 52.0936 213.322 52.0936C214.366 52.0936 215.122 53.0656 215.122 54.3856C215.122 55.6816 214.366 56.6416 213.322 56.6416C212.266 56.6416 211.51 55.6816 211.51 54.3856ZM218.621 48.9016H217.601V57.3496H218.621V48.9016ZM221.492 51.3976H220.472V57.3496H221.492V51.3976ZM221.492 49.0336H220.472V50.2216H221.492V49.0336ZM231.113 57.3496V53.4136C231.113 52.1416 230.225 51.2416 229.061 51.2416C228.209 51.2416 227.489 51.7456 227.093 52.3096V51.3976H226.109V57.3496H227.129V53.0296C227.501 52.5016 228.149 52.1056 228.821 52.1056C229.565 52.1056 230.093 52.6576 230.093 53.4856V57.3496H231.113ZM238.222 54.3856C238.222 52.5616 237.01 51.2416 235.342 51.2416C233.674 51.2416 232.45 52.5616 232.45 54.3856C232.45 56.1856 233.674 57.5056 235.342 57.5056C237.01 57.5056 238.222 56.1856 238.222 54.3856ZM233.53 54.3856C233.53 53.0656 234.286 52.0936 235.342 52.0936C236.386 52.0936 237.142 53.0656 237.142 54.3856C237.142 55.6816 236.386 56.6416 235.342 56.6416C234.286 56.6416 233.53 55.6816 233.53 54.3856ZM244.733 54.8416L242.561 57.2776L241.997 56.8336L243.425 54.6376L241.997 52.4416L242.561 51.9976L244.733 54.4336V54.8416ZM241.817 54.8416L239.801 57.0256L239.249 56.5696L240.569 54.6376L239.249 52.7056L239.801 52.2496L241.817 54.4336V54.8416Z" fill="black"/>
<path d="M35.6303 78.1769L34.3743 77.7369C34.2063 78.2089 33.7823 78.5529 33.3503 78.5529C32.6783 78.5529 32.1983 77.9449 32.1983 77.0969C32.1983 76.2169 32.6863 75.5849 33.3583 75.5849C33.7663 75.5849 34.1663 75.9049 34.3263 76.3449L35.6143 75.8969C35.2543 74.9849 34.3423 74.3689 33.2703 74.3689C31.7983 74.3689 30.7023 75.5209 30.7023 77.1209C30.7023 78.6569 31.7743 79.7689 33.2623 79.7689C34.3423 79.7689 35.3103 79.0969 35.6303 78.1769ZM40.2156 77.6409C40.2156 76.4169 39.3196 75.5209 38.0876 75.5209C36.8396 75.5209 35.9356 76.4169 35.9356 77.6409C35.9356 78.8649 36.8396 79.7529 38.0876 79.7529C39.3196 79.7529 40.2156 78.8649 40.2156 77.6409ZM37.3116 77.6409C37.3116 77.0169 37.6396 76.5609 38.0876 76.5609C38.5276 76.5609 38.8396 77.0169 38.8396 77.6409C38.8396 78.2649 38.5276 78.7129 38.0876 78.7129C37.6396 78.7129 37.3116 78.2649 37.3116 77.6409ZM42.1753 74.1049H40.8553V79.6409H42.1753V74.1049ZM46.8424 79.6809L46.8984 78.7929C46.8344 78.8009 46.7384 78.8089 46.6824 78.8089C46.5064 78.8089 46.4344 78.6889 46.4344 78.4569V77.0969C46.4344 76.0569 45.8104 75.5209 44.7544 75.5209C43.8264 75.5209 43.2184 75.9849 42.9384 76.6489L43.8744 77.0409C44.0264 76.7449 44.2744 76.5129 44.6104 76.5129C44.9304 76.5129 45.1384 76.7289 45.1384 77.0489V77.2169L44.3064 77.3529C43.3464 77.5209 42.7944 77.9929 42.7944 78.6729C42.7944 79.3129 43.2904 79.7609 43.9864 79.7609C44.5384 79.7609 44.9784 79.4809 45.2504 79.0969C45.4584 79.5769 45.8664 79.7609 46.3464 79.7609C46.5304 79.7609 46.7064 79.7289 46.8424 79.6809ZM44.5384 78.8409C44.2824 78.8409 44.1144 78.6809 44.1144 78.4649C44.1144 78.2089 44.3304 78.0489 44.6584 77.9929L45.1384 77.9129V78.5529C44.9864 78.7209 44.7704 78.8409 44.5384 78.8409ZM49.3538 78.7209C49.1378 78.7209 48.9058 78.6249 48.7378 78.4809V76.8729C48.8978 76.6969 49.1378 76.5609 49.3858 76.5609C49.8418 76.5609 50.1698 76.9929 50.1698 77.6249C50.1698 78.2649 49.8338 78.7209 49.3538 78.7209ZM51.5458 77.6329C51.5458 76.4089 50.8338 75.5209 49.8818 75.5209C49.3778 75.5209 48.9298 75.7929 48.6978 76.1609V75.6409H47.4178V81.0249H48.7378V79.2409C48.9778 79.5529 49.4098 79.7529 49.8418 79.7529C50.8178 79.7529 51.5458 78.8649 51.5458 77.6329ZM55.799 78.7129L54.863 78.3129C54.687 78.6169 54.407 78.8009 54.111 78.8009C53.671 78.8009 53.359 78.4729 53.287 77.9129H55.839C55.855 77.8089 55.887 77.5609 55.887 77.3449C55.887 76.2569 55.111 75.5209 54.015 75.5209C52.823 75.5209 51.967 76.4569 51.967 77.7049C51.967 78.9209 52.807 79.7609 53.999 79.7609C54.831 79.7609 55.519 79.3529 55.799 78.7129ZM54.007 76.4569C54.375 76.4569 54.607 76.7289 54.639 77.1929H53.311C53.407 76.7289 53.663 76.4569 54.007 76.4569ZM60.0228 78.4489C60.0228 77.7129 59.3988 77.3449 58.4548 77.1209C57.9108 76.9929 57.5748 76.9369 57.5748 76.7129C57.5748 76.5289 57.7828 76.4009 58.1428 76.4009C58.5828 76.4009 58.9188 76.5929 59.1348 76.8809L59.9988 76.4969C59.7188 75.9689 59.1028 75.5209 58.1428 75.5209C57.1108 75.5209 56.3908 76.0649 56.3908 76.8489C56.3908 77.5849 57.1108 77.9449 57.7908 78.0969C58.3348 78.2169 58.8388 78.3129 58.8388 78.5689C58.8388 78.7769 58.6068 78.8809 58.2788 78.8809C57.8068 78.8809 57.3588 78.6809 57.1268 78.3689L56.2228 78.7529C56.5028 79.3209 57.2628 79.7609 58.2708 79.7609C59.3108 79.7609 60.0228 79.2489 60.0228 78.4489ZM64.3238 78.5369L63.2118 78.1129C63.0678 78.4409 62.8678 78.6729 62.5318 78.6729C62.1158 78.6729 61.8118 78.2489 61.8118 77.6649C61.8118 77.0489 62.1158 76.6089 62.5398 76.6089C62.8518 76.6089 63.0598 76.8089 63.1798 77.1449L64.3078 76.7129C64.0278 76.0089 63.3718 75.5209 62.4438 75.5209C61.2758 75.5209 60.4358 76.4169 60.4358 77.6729C60.4358 78.8889 61.2678 79.7609 62.4118 79.7609C63.3398 79.7609 64.0438 79.2409 64.3238 78.5369ZM68.4553 78.7129L67.5193 78.3129C67.3433 78.6169 67.0633 78.8009 66.7673 78.8009C66.3273 78.8009 66.0153 78.4729 65.9433 77.9129H68.4953C68.5113 77.8089 68.5433 77.5609 68.5433 77.3449C68.5433 76.2569 67.7673 75.5209 66.6713 75.5209C65.4793 75.5209 64.6233 76.4569 64.6233 77.7049C64.6233 78.9209 65.4633 79.7609 66.6553 79.7609C67.4873 79.7609 68.1753 79.3529 68.4553 78.7129ZM66.6633 76.4569C67.0313 76.4569 67.2633 76.7289 67.2953 77.1929H65.9673C66.0633 76.7289 66.3193 76.4569 66.6633 76.4569ZM74.3225 78.7129L73.3865 78.3129C73.2105 78.6169 72.9305 78.8009 72.6345 78.8009C72.1945 78.8009 71.8825 78.4729 71.8105 77.9129H74.3625C74.3785 77.8089 74.4105 77.5609 74.4105 77.3449C74.4105 76.2569 73.6345 75.5209 72.5385 75.5209C71.3465 75.5209 70.4905 76.4569 70.4905 77.7049C70.4905 78.9209 71.3305 79.7609 72.5225 79.7609C73.3545 79.7609 74.0425 79.3529 74.3225 78.7129ZM72.5305 76.4569C72.8985 76.4569 73.1305 76.7289 73.1625 77.1929H71.8345C71.9305 76.7289 72.1865 76.4569 72.5305 76.4569ZM78.5897 79.6409C80.1817 79.6409 81.3417 78.5449 81.3417 77.0249C81.3417 75.5449 80.1817 74.4649 78.5897 74.4649H76.6617V79.6409H78.5897ZM78.0617 75.6409H78.5737C79.3177 75.6409 79.8457 76.2249 79.8457 77.0249C79.8457 77.8649 79.3177 78.4649 78.5737 78.4649H78.0617V75.6409ZM83.3472 75.6409H82.0272V79.6409H83.3472V75.6409ZM83.3472 74.1369H82.0272V75.1609H83.3472V74.1369ZM90.2863 79.6409V77.0809C90.2863 76.1609 89.7023 75.5289 88.9583 75.5289C88.4703 75.5289 88.0383 75.7929 87.7343 76.2489C87.5183 75.8009 87.1183 75.5289 86.6543 75.5289C86.1903 75.5289 85.7743 75.8009 85.4943 76.2329V75.6409H84.2303V79.6409H85.5503V76.8889C85.6783 76.7289 85.9023 76.6009 86.1263 76.6009C86.3983 76.6009 86.5983 76.8409 86.5983 77.2089V79.6409H87.9183V77.0809C87.9183 77.0089 87.9183 76.9369 87.9103 76.8729C88.0463 76.7209 88.2623 76.6009 88.4863 76.6009C88.7663 76.6009 88.9663 76.8409 88.9663 77.2089V79.6409H90.2863ZM94.9127 79.6809L94.9687 78.7929C94.9047 78.8009 94.8087 78.8089 94.7527 78.8089C94.5767 78.8089 94.5047 78.6889 94.5047 78.4569V77.0969C94.5047 76.0569 93.8807 75.5209 92.8247 75.5209C91.8967 75.5209 91.2887 75.9849 91.0087 76.6489L91.9447 77.0409C92.0967 76.7449 92.3447 76.5129 92.6807 76.5129C93.0007 76.5129 93.2087 76.7289 93.2087 77.0489V77.2169L92.3767 77.3529C91.4167 77.5209 90.8647 77.9929 90.8647 78.6729C90.8647 79.3129 91.3607 79.7609 92.0567 79.7609C92.6087 79.7609 93.0487 79.4809 93.3207 79.0969C93.5287 79.5769 93.9367 79.7609 94.4167 79.7609C94.6007 79.7609 94.7767 79.7289 94.9127 79.6809ZM92.6087 78.8409C92.3527 78.8409 92.1847 78.6809 92.1847 78.4649C92.1847 78.2089 92.4007 78.0489 92.7287 77.9929L93.2087 77.9129V78.5529C93.0567 78.7209 92.8407 78.8409 92.6087 78.8409ZM96.8081 79.6409V77.7289C96.8801 77.1129 97.1841 76.7449 97.7841 76.7449C97.8961 76.7449 98.0561 76.7689 98.1681 76.8009V75.5849C98.0561 75.5449 97.9201 75.5209 97.7681 75.5209C97.3121 75.5209 96.9201 76.0009 96.7521 76.5449V75.6409H95.4881V79.6409H96.8081ZM101.506 79.6329V78.6089C101.378 78.6409 101.186 78.6889 100.946 78.6889C100.562 78.6889 100.37 78.5049 100.37 78.1609V76.6649H101.474V75.6409H100.37V74.6649H99.0501V75.6409H98.4341V76.6649H99.0501V78.4969C99.0501 79.2809 99.5781 79.7609 100.642 79.7609C100.954 79.7609 101.29 79.7049 101.506 79.6329ZM103.425 75.6409H102.105V79.6409H103.425V75.6409ZM103.425 74.1369H102.105V75.1609H103.425V74.1369ZM108.108 79.6409V77.0729C108.108 76.1769 107.532 75.5209 106.78 75.5209C106.276 75.5209 105.844 75.7929 105.572 76.2169V75.6409H104.308V79.6409H105.628V76.8649C105.78 76.7129 106.02 76.5929 106.26 76.5929C106.58 76.5929 106.788 76.8249 106.788 77.1929V79.6409H108.108ZM112.989 77.6409C112.989 76.4169 112.093 75.5209 110.861 75.5209C109.613 75.5209 108.709 76.4169 108.709 77.6409C108.709 78.8649 109.613 79.7529 110.861 79.7529C112.093 79.7529 112.989 78.8649 112.989 77.6409ZM110.085 77.6409C110.085 77.0169 110.413 76.5609 110.861 76.5609C111.301 76.5609 111.613 77.0169 111.613 77.6409C111.613 78.2649 111.301 78.7129 110.861 78.7129C110.413 78.7129 110.085 78.2649 110.085 77.6409ZM114.477 79.4649V78.5769H113.677V79.5929H114.053C114.053 80.0009 113.917 80.3049 113.613 80.6329L113.893 80.8969C114.285 80.4969 114.477 80.0169 114.477 79.4649ZM117.166 77.5049C117.166 78.8009 117.998 79.7449 119.142 79.7449C120.286 79.7449 121.118 78.8009 121.118 77.5049C121.118 76.2169 120.286 75.2809 119.142 75.2809C117.998 75.2809 117.166 76.2169 117.166 77.5049ZM117.886 77.5049C117.886 76.5529 118.414 75.8489 119.142 75.8489C119.87 75.8489 120.398 76.5529 120.398 77.5049C120.398 78.4729 119.87 79.1769 119.142 79.1769C118.414 79.1769 117.886 78.4729 117.886 77.5049ZM125.51 78.4089C125.51 77.8249 125.078 77.4809 124.51 77.3849V77.3689C125.022 77.2249 125.358 76.8409 125.358 76.4009C125.358 75.7689 124.67 75.2729 123.702 75.2729C122.878 75.2729 122.198 75.6649 121.854 76.2569L122.374 76.5449C122.638 76.0649 123.15 75.8409 123.654 75.8409C124.23 75.8409 124.638 76.1049 124.638 76.4969C124.638 76.9289 124.142 77.2169 123.478 77.2169H122.814V77.7769H123.494C124.398 77.7769 124.798 77.9929 124.798 78.4089C124.798 78.8489 124.334 79.1769 123.646 79.1769C123.03 79.1769 122.51 78.9129 122.278 78.4809L121.742 78.7609C122.094 79.4329 122.854 79.7449 123.67 79.7449C124.766 79.7449 125.51 79.1689 125.51 78.4089ZM133.888 79.6409V77.0169C133.888 76.1689 133.312 75.5689 132.568 75.5689C132.04 75.5689 131.576 75.8889 131.296 76.3129C131.08 75.8569 130.664 75.5689 130.176 75.5689C129.648 75.5689 129.208 75.9049 128.976 76.2809V75.6729H128.32V79.6409H129V76.7449C129.224 76.4089 129.608 76.1449 130 76.1449C130.44 76.1449 130.76 76.5129 130.76 77.0649V79.6409H131.44V77.0169C131.44 76.8969 131.432 76.7849 131.408 76.6729C131.648 76.3689 132.032 76.1449 132.416 76.1449C132.872 76.1449 133.208 76.5129 133.208 77.0649V79.6409H133.888ZM138.351 79.7049L138.383 79.1849C138.335 79.1929 138.255 79.2009 138.207 79.2009C137.967 79.2009 137.847 79.0329 137.847 78.8169V76.9929C137.847 76.0729 137.287 75.5689 136.423 75.5689C135.735 75.5689 135.135 75.9529 134.847 76.5769L135.375 76.7929C135.575 76.4169 135.887 76.1369 136.359 76.1369C136.847 76.1369 137.167 76.4729 137.167 76.9689V77.2809L136.239 77.3929C135.359 77.5049 134.735 77.9289 134.735 78.6649C134.735 79.2969 135.239 79.7449 135.943 79.7449C136.503 79.7449 136.943 79.4729 137.199 79.0489C137.295 79.5049 137.591 79.7449 138.039 79.7449C138.159 79.7449 138.255 79.7289 138.351 79.7049ZM136.127 79.1929C135.727 79.1929 135.447 78.9529 135.447 78.6169C135.447 78.2089 135.831 77.9689 136.359 77.9049L137.167 77.8089V78.5369C136.959 78.9209 136.567 79.1929 136.127 79.1929ZM139.789 79.6409V77.2729C139.853 76.7449 140.173 76.2489 140.789 76.2489C140.925 76.2489 141.117 76.2729 141.229 76.3049V75.6329C141.149 75.6009 140.957 75.5689 140.821 75.5689C140.357 75.5689 139.925 75.9769 139.765 76.4809V75.6729H139.109V79.6409H139.789ZM141.736 76.2649H143.872L141.68 79.1129V79.6409H144.784V79.0489H142.496L144.744 76.2009V75.6729H141.736V76.2649ZM149.185 77.6649C149.185 76.4489 148.377 75.5689 147.265 75.5689C146.153 75.5689 145.337 76.4489 145.337 77.6649C145.337 78.8649 146.153 79.7449 147.265 79.7449C148.377 79.7449 149.185 78.8649 149.185 77.6649ZM146.057 77.6649C146.057 76.7849 146.561 76.1369 147.265 76.1369C147.961 76.1369 148.465 76.7849 148.465 77.6649C148.465 78.5289 147.961 79.1689 147.265 79.1689C146.561 79.1689 146.057 78.5289 146.057 77.6649ZM155.385 79.6409V79.0409H152.689L153.849 78.2089C154.377 77.8249 155.057 77.2889 155.057 76.5529C155.057 75.8249 154.353 75.2809 153.481 75.2809C152.673 75.2809 151.969 75.7449 151.673 76.4329L152.217 76.6809C152.409 76.1929 152.881 75.8569 153.409 75.8569C153.913 75.8569 154.337 76.1689 154.337 76.6089C154.337 77.0329 153.969 77.3449 153.513 77.6969L151.697 79.0809V79.6409H155.385ZM156.01 77.5049C156.01 78.8009 156.842 79.7449 157.986 79.7449C159.13 79.7449 159.962 78.8009 159.962 77.5049C159.962 76.2169 159.13 75.2809 157.986 75.2809C156.842 75.2809 156.01 76.2169 156.01 77.5049ZM156.73 77.5049C156.73 76.5529 157.258 75.8489 157.986 75.8489C158.714 75.8489 159.242 76.5529 159.242 77.5049C159.242 78.4729 158.714 79.1769 157.986 79.1769C157.258 79.1769 156.73 78.4729 156.73 77.5049ZM164.362 79.6409V79.0409H161.666L162.826 78.2089C163.354 77.8249 164.034 77.2889 164.034 76.5529C164.034 75.8249 163.33 75.2809 162.458 75.2809C161.65 75.2809 160.946 75.7449 160.65 76.4329L161.194 76.6809C161.386 76.1929 161.858 75.8569 162.386 75.8569C162.89 75.8569 163.314 76.1689 163.314 76.6089C163.314 77.0329 162.946 77.3449 162.49 77.6969L160.674 79.0809V79.6409H164.362ZM166.442 75.3769L164.93 76.0089L165.13 76.5529L166.282 76.1049V79.0809H165.026V79.6409H168.05V79.0809H166.962V75.3769H166.442Z" fill="black"/>
</svg>
