<svg width="331" height="91" viewBox="0 0 331 91" fill="none" xmlns="http://www.w3.org/2000/svg">
<path d="M0.444275 16.0343V74.7631L14.2931 90.78H315.409L330.445 74.7631V18.3224L315.409 0.780029H14.2931L0.444275 16.0343Z" fill="white"/>
<path d="M30.8708 24.8416L33.0428 27.2776L33.6068 26.8336L32.1788 24.6376L33.6068 22.4416L33.0428 21.9976L30.8708 24.4336V24.8416ZM33.7868 24.8416L35.8028 27.0256L36.3548 26.5696L35.0348 24.6376L36.3548 22.7056L35.8028 22.2496L33.7868 24.4336V24.8416ZM40.4952 19.4536C38.9352 19.4536 37.6272 20.4136 37.6272 21.7216C37.6272 23.0896 38.7672 23.5816 40.3392 23.9656C41.6592 24.2896 42.2592 24.5656 42.2592 25.2856C42.2592 26.0536 41.5272 26.5576 40.5312 26.5576C39.3672 26.5576 38.6472 26.0176 38.2632 25.1416L37.2792 25.5016C37.7952 26.7256 38.9472 27.4936 40.5192 27.4936C42.1752 27.4936 43.3752 26.5696 43.3752 25.1776C43.3752 23.8456 42.2712 23.3056 40.6632 22.9096C39.3432 22.5856 38.7552 22.3336 38.7552 21.6376C38.7552 20.9176 39.5472 20.3896 40.4952 20.3896C41.4552 20.3896 42.1272 20.8816 42.4632 21.6856L43.4352 21.3016C42.9792 20.2816 41.9952 19.4536 40.4952 19.4536ZM45.9059 21.3976H44.8859V27.3496H45.9059V21.3976ZM45.9059 19.0336H44.8859V20.2216H45.9059V19.0336ZM55.2986 25.9936L54.4826 25.6816C54.1706 26.2936 53.5946 26.6656 52.9466 26.6656C51.9506 26.6656 51.2306 25.8376 51.1586 24.5896H55.2866C55.3226 24.4336 55.3466 24.1096 55.3466 23.8456C55.3466 22.3216 54.3026 21.2416 52.8506 21.2416C51.2666 21.2416 50.0906 22.5856 50.0906 24.4216C50.0906 26.2216 51.2666 27.5056 52.8866 27.5056C53.9546 27.5056 54.8786 26.9416 55.2986 25.9936ZM52.8626 22.0696C53.7026 22.0696 54.2906 22.7416 54.3266 23.7736H51.2186C51.3986 22.7416 52.0346 22.0696 52.8626 22.0696ZM61.7844 27.3496V23.4136C61.7844 22.1416 60.8964 21.2416 59.7324 21.2416C58.8804 21.2416 58.1604 21.7456 57.7644 22.3096V21.3976H56.7804V27.3496H57.8004V23.0296C58.1724 22.5016 58.8204 22.1056 59.4924 22.1056C60.2364 22.1056 60.7644 22.6576 60.7644 23.4856V27.3496H61.7844ZM66.8793 27.3136V26.4616C66.6273 26.5576 66.2073 26.6296 65.8353 26.6296C65.0793 26.6296 64.7793 26.2576 64.7793 25.6936V22.2376H66.8433V21.3976H64.7793V19.9456H63.7593V21.3976H62.8833V22.2376H63.7593V25.8616C63.7593 26.9056 64.4673 27.5056 65.6553 27.5056C66.0993 27.5056 66.6153 27.4096 66.8793 27.3136ZM69.0387 27.3496V23.7976C69.1347 23.0056 69.6147 22.2616 70.5387 22.2616C70.7427 22.2616 71.0307 22.2976 71.1987 22.3456V21.3376C71.0787 21.2896 70.7907 21.2416 70.5867 21.2416C69.8907 21.2416 69.2427 21.8536 69.0027 22.6096V21.3976H68.0187V27.3496H69.0387ZM77.1578 27.4456L77.2058 26.6656C77.1338 26.6776 77.0138 26.6896 76.9418 26.6896C76.5818 26.6896 76.4018 26.4376 76.4018 26.1136V23.3776C76.4018 21.9976 75.5618 21.2416 74.2658 21.2416C73.2338 21.2416 72.3338 21.8176 71.9018 22.7536L72.6938 23.0776C72.9938 22.5136 73.4618 22.0936 74.1698 22.0936C74.9018 22.0936 75.3818 22.5976 75.3818 23.3416V23.8096L73.9898 23.9776C72.6698 24.1456 71.7338 24.7816 71.7338 25.8856C71.7338 26.8336 72.4898 27.5056 73.5458 27.5056C74.3858 27.5056 75.0458 27.0976 75.4298 26.4616C75.5738 27.1456 76.0178 27.5056 76.6898 27.5056C76.8698 27.5056 77.0138 27.4816 77.1578 27.4456ZM73.8218 26.6776C73.2218 26.6776 72.8018 26.3176 72.8018 25.8136C72.8018 25.2016 73.3778 24.8416 74.1698 24.7456L75.3818 24.6016V25.6936C75.0698 26.2696 74.4818 26.6776 73.8218 26.6776ZM86.0657 27.3496V23.4136C86.0657 22.1416 85.1777 21.2416 84.0137 21.2416C83.1617 21.2416 82.4417 21.7456 82.0457 22.3096V21.3976H81.0617V27.3496H82.0817V23.0296C82.4537 22.5016 83.1017 22.1056 83.7737 22.1056C84.5177 22.1056 85.0457 22.6576 85.0457 23.4856V27.3496H86.0657ZM92.6229 25.9936L91.8069 25.6816C91.4949 26.2936 90.9189 26.6656 90.2709 26.6656C89.2749 26.6656 88.5549 25.8376 88.4829 24.5896H92.6109C92.6469 24.4336 92.6709 24.1096 92.6709 23.8456C92.6709 22.3216 91.6269 21.2416 90.1749 21.2416C88.5909 21.2416 87.4149 22.5856 87.4149 24.4216C87.4149 26.2216 88.5909 27.5056 90.2109 27.5056C91.2789 27.5056 92.2029 26.9416 92.6229 25.9936ZM90.1869 22.0696C91.0269 22.0696 91.6149 22.7416 91.6509 23.7736H88.5429C88.7229 22.7416 89.3589 22.0696 90.1869 22.0696ZM95.1247 21.3976H94.1047V27.3496H95.1247V21.3976ZM95.1247 19.0336H94.1047V20.2216H95.1247V19.0336ZM104.361 25.8856L103.497 25.5496C103.209 26.2096 102.729 26.6296 102.069 26.6296C101.097 26.6296 100.389 25.7056 100.389 24.4216C100.389 23.0776 101.073 22.1056 102.021 22.1056C102.621 22.1056 103.137 22.4776 103.425 23.1736L104.313 22.8136C103.893 21.8536 103.089 21.2416 101.997 21.2416C100.437 21.2416 99.3094 22.5736 99.3094 24.4216C99.3094 26.2096 100.449 27.5056 102.033 27.5056C103.125 27.5056 103.977 26.8216 104.361 25.8856ZM110.377 25.9936L109.561 25.6816C109.249 26.2936 108.673 26.6656 108.025 26.6656C107.029 26.6656 106.309 25.8376 106.237 24.5896H110.365C110.401 24.4336 110.425 24.1096 110.425 23.8456C110.425 22.3216 109.381 21.2416 107.929 21.2416C106.345 21.2416 105.169 22.5856 105.169 24.4216C105.169 26.2216 106.345 27.5056 107.965 27.5056C109.033 27.5056 109.957 26.9416 110.377 25.9936ZM107.941 22.0696C108.781 22.0696 109.369 22.7416 109.405 23.7736H106.297C106.477 22.7416 107.113 22.0696 107.941 22.0696ZM116.863 27.3496V23.4136C116.863 22.1416 115.975 21.2416 114.811 21.2416C113.959 21.2416 113.239 21.7456 112.843 22.3096V21.3976H111.859V27.3496H112.879V23.0296C113.251 22.5016 113.899 22.1056 114.571 22.1056C115.315 22.1056 115.843 22.6576 115.843 23.4856V27.3496H116.863ZM121.957 27.3136V26.4616C121.705 26.5576 121.285 26.6296 120.913 26.6296C120.157 26.6296 119.857 26.2576 119.857 25.6936V22.2376H121.921V21.3976H119.857V19.9456H118.837V21.3976H117.961V22.2376H118.837V25.8616C118.837 26.9056 119.545 27.5056 120.733 27.5056C121.177 27.5056 121.693 27.4096 121.957 27.3136ZM124.117 27.3496V23.7976C124.213 23.0056 124.693 22.2616 125.617 22.2616C125.821 22.2616 126.109 22.2976 126.277 22.3456V21.3376C126.157 21.2896 125.869 21.2416 125.665 21.2416C124.969 21.2416 124.321 21.8536 124.081 22.6096V21.3976H123.097V27.3496H124.117ZM128.465 21.3976H127.445V27.3496H128.465V21.3976ZM128.465 19.0336H127.445V20.2216H128.465V19.0336ZM137.701 25.8856L136.837 25.5496C136.549 26.2096 136.069 26.6296 135.409 26.6296C134.437 26.6296 133.729 25.7056 133.729 24.4216C133.729 23.0776 134.413 22.1056 135.361 22.1056C135.961 22.1056 136.477 22.4776 136.765 23.1736L137.653 22.8136C137.233 21.8536 136.429 21.2416 135.337 21.2416C133.777 21.2416 132.649 22.5736 132.649 24.4216C132.649 26.2096 133.789 27.5056 135.373 27.5056C136.465 27.5056 137.317 26.8216 137.701 25.8856ZM144.269 24.3856C144.269 22.5616 143.057 21.2416 141.389 21.2416C139.721 21.2416 138.497 22.5616 138.497 24.3856C138.497 26.1856 139.721 27.5056 141.389 27.5056C143.057 27.5056 144.269 26.1856 144.269 24.3856ZM139.577 24.3856C139.577 23.0656 140.333 22.0936 141.389 22.0936C142.433 22.0936 143.189 23.0656 143.189 24.3856C143.189 25.6816 142.433 26.6416 141.389 26.6416C140.333 26.6416 139.577 25.6816 139.577 24.3856ZM154.019 27.3496V23.4136C154.019 22.1416 153.155 21.2416 152.039 21.2416C151.247 21.2416 150.551 21.7216 150.131 22.3576C149.807 21.6736 149.183 21.2416 148.451 21.2416C147.659 21.2416 146.999 21.7456 146.651 22.3096V21.3976H145.667V27.3496H146.687V23.0056C147.023 22.5016 147.599 22.1056 148.187 22.1056C148.847 22.1056 149.327 22.6576 149.327 23.4856V27.3496H150.347V23.4136C150.347 23.2336 150.335 23.0656 150.299 22.8976C150.659 22.4416 151.235 22.1056 151.811 22.1056C152.495 22.1056 152.999 22.6576 152.999 23.4856V27.3496H154.019ZM164.132 27.3496V23.4136C164.132 22.1416 163.268 21.2416 162.152 21.2416C161.36 21.2416 160.664 21.7216 160.244 22.3576C159.92 21.6736 159.296 21.2416 158.564 21.2416C157.772 21.2416 157.112 21.7456 156.764 22.3096V21.3976H155.78V27.3496H156.8V23.0056C157.136 22.5016 157.712 22.1056 158.3 22.1056C158.96 22.1056 159.44 22.6576 159.44 23.4856V27.3496H160.46V23.4136C160.46 23.2336 160.448 23.0656 160.412 22.8976C160.772 22.4416 161.348 22.1056 161.924 22.1056C162.608 22.1056 163.112 22.6576 163.112 23.4856V27.3496H164.132ZM170.67 25.9936L169.854 25.6816C169.542 26.2936 168.966 26.6656 168.318 26.6656C167.322 26.6656 166.602 25.8376 166.53 24.5896H170.658C170.694 24.4336 170.718 24.1096 170.718 23.8456C170.718 22.3216 169.674 21.2416 168.222 21.2416C166.638 21.2416 165.462 22.5856 165.462 24.4216C165.462 26.2216 166.638 27.5056 168.258 27.5056C169.326 27.5056 170.25 26.9416 170.67 25.9936ZM168.234 22.0696C169.074 22.0696 169.662 22.7416 169.698 23.7736H166.59C166.77 22.7416 167.406 22.0696 168.234 22.0696ZM173.172 27.3496V23.7976C173.268 23.0056 173.748 22.2616 174.672 22.2616C174.876 22.2616 175.164 22.2976 175.332 22.3456V21.3376C175.212 21.2896 174.924 21.2416 174.72 21.2416C174.024 21.2416 173.376 21.8536 173.136 22.6096V21.3976H172.152V27.3496H173.172ZM180.955 25.8856L180.091 25.5496C179.803 26.2096 179.323 26.6296 178.663 26.6296C177.691 26.6296 176.983 25.7056 176.983 24.4216C176.983 23.0776 177.667 22.1056 178.615 22.1056C179.215 22.1056 179.731 22.4776 180.019 23.1736L180.907 22.8136C180.487 21.8536 179.683 21.2416 178.591 21.2416C177.031 21.2416 175.903 22.5736 175.903 24.4216C175.903 26.2096 177.043 27.5056 178.627 27.5056C179.719 27.5056 180.571 26.8216 180.955 25.8856ZM183.215 21.3976H182.195V27.3496H183.215V21.3976ZM183.215 19.0336H182.195V20.2216H183.215V19.0336ZM189.998 27.4456L190.046 26.6656C189.974 26.6776 189.854 26.6896 189.782 26.6896C189.422 26.6896 189.242 26.4376 189.242 26.1136V23.3776C189.242 21.9976 188.402 21.2416 187.106 21.2416C186.074 21.2416 185.174 21.8176 184.742 22.7536L185.534 23.0776C185.834 22.5136 186.302 22.0936 187.01 22.0936C187.742 22.0936 188.222 22.5976 188.222 23.3416V23.8096L186.83 23.9776C185.51 24.1456 184.574 24.7816 184.574 25.8856C184.574 26.8336 185.33 27.5056 186.386 27.5056C187.226 27.5056 187.886 27.0976 188.27 26.4616C188.414 27.1456 188.858 27.5056 189.53 27.5056C189.71 27.5056 189.854 27.4816 189.998 27.4456ZM186.662 26.6776C186.062 26.6776 185.642 26.3176 185.642 25.8136C185.642 25.2016 186.218 24.8416 187.01 24.7456L188.222 24.6016V25.6936C187.91 26.2696 187.322 26.6776 186.662 26.6776ZM192.156 18.9016H191.136V27.3496H192.156V18.9016ZM195.027 21.3976H194.007V27.3496H195.027V21.3976ZM195.027 19.0336H194.007V20.2216H195.027V19.0336ZM197.886 27.0856V25.7536H196.686V27.2776H197.25C197.25 27.8896 197.046 28.3456 196.59 28.8376L197.01 29.2336C197.598 28.6336 197.886 27.9136 197.886 27.0856ZM210.656 27.3496V23.4136C210.656 22.1416 209.792 21.2416 208.676 21.2416C207.884 21.2416 207.188 21.7216 206.768 22.3576C206.444 21.6736 205.82 21.2416 205.088 21.2416C204.296 21.2416 203.636 21.7456 203.288 22.3096V21.3976H202.304V27.3496H203.324V23.0056C203.66 22.5016 204.236 22.1056 204.824 22.1056C205.484 22.1056 205.964 22.6576 205.964 23.4856V27.3496H206.984V23.4136C206.984 23.2336 206.972 23.0656 206.936 22.8976C207.296 22.4416 207.872 22.1056 208.448 22.1056C209.132 22.1056 209.636 22.6576 209.636 23.4856V27.3496H210.656ZM217.349 27.4456L217.397 26.6656C217.325 26.6776 217.205 26.6896 217.133 26.6896C216.773 26.6896 216.593 26.4376 216.593 26.1136V23.3776C216.593 21.9976 215.753 21.2416 214.457 21.2416C213.425 21.2416 212.525 21.8176 212.093 22.7536L212.885 23.0776C213.185 22.5136 213.653 22.0936 214.361 22.0936C215.093 22.0936 215.573 22.5976 215.573 23.3416V23.8096L214.181 23.9776C212.861 24.1456 211.925 24.7816 211.925 25.8856C211.925 26.8336 212.681 27.5056 213.737 27.5056C214.577 27.5056 215.237 27.0976 215.621 26.4616C215.765 27.1456 216.209 27.5056 216.881 27.5056C217.061 27.5056 217.205 27.4816 217.349 27.4456ZM214.013 26.6776C213.413 26.6776 212.993 26.3176 212.993 25.8136C212.993 25.2016 213.569 24.8416 214.361 24.7456L215.573 24.6016V25.6936C215.261 26.2696 214.673 26.6776 214.013 26.6776ZM226.257 27.3496V23.4136C226.257 22.1416 225.369 21.2416 224.205 21.2416C223.353 21.2416 222.633 21.7456 222.237 22.3096V21.3976H221.253V27.3496H222.273V23.0296C222.645 22.5016 223.293 22.1056 223.965 22.1056C224.709 22.1056 225.237 22.6576 225.237 23.4856V27.3496H226.257ZM233.366 24.3856C233.366 22.5616 232.154 21.2416 230.486 21.2416C228.818 21.2416 227.594 22.5616 227.594 24.3856C227.594 26.1856 228.818 27.5056 230.486 27.5056C232.154 27.5056 233.366 26.1856 233.366 24.3856ZM228.674 24.3856C228.674 23.0656 229.43 22.0936 230.486 22.0936C231.53 22.0936 232.286 23.0656 232.286 24.3856C232.286 25.6816 231.53 26.6416 230.486 26.6416C229.43 26.6416 228.674 25.6816 228.674 24.3856ZM239.769 27.3496V23.4136C239.769 22.1416 238.881 21.2416 237.717 21.2416C236.865 21.2416 236.145 21.7456 235.749 22.3096V21.3976H234.765V27.3496H235.785V23.0296C236.157 22.5016 236.805 22.1056 237.477 22.1056C238.221 22.1056 238.749 22.6576 238.749 23.4856V27.3496H239.769ZM249.248 27.4456L249.296 26.6656C249.224 26.6776 249.104 26.6896 249.032 26.6896C248.672 26.6896 248.492 26.4376 248.492 26.1136V23.3776C248.492 21.9976 247.652 21.2416 246.356 21.2416C245.324 21.2416 244.424 21.8176 243.992 22.7536L244.784 23.0776C245.084 22.5136 245.552 22.0936 246.26 22.0936C246.992 22.0936 247.472 22.5976 247.472 23.3416V23.8096L246.08 23.9776C244.76 24.1456 243.824 24.7816 243.824 25.8856C243.824 26.8336 244.58 27.5056 245.636 27.5056C246.476 27.5056 247.136 27.0976 247.52 26.4616C247.664 27.1456 248.108 27.5056 248.78 27.5056C248.96 27.5056 249.104 27.4816 249.248 27.4456ZM245.912 26.6776C245.312 26.6776 244.892 26.3176 244.892 25.8136C244.892 25.2016 245.468 24.8416 246.26 24.7456L247.472 24.6016V25.6936C247.16 26.2696 246.572 26.6776 245.912 26.6776ZM251.406 21.3976H250.386V27.3496H251.406V21.3976ZM251.406 19.0336H250.386V20.2216H251.406V19.0336ZM35.9708 40.8856L35.1068 40.5496C34.8188 41.2096 34.3388 41.6296 33.6788 41.6296C32.7068 41.6296 31.9988 40.7056 31.9988 39.4216C31.9988 38.0776 32.6828 37.1056 33.6308 37.1056C34.2308 37.1056 34.7468 37.4776 35.0348 38.1736L35.9228 37.8136C35.5028 36.8536 34.6988 36.2416 33.6068 36.2416C32.0468 36.2416 30.9188 37.5736 30.9188 39.4216C30.9188 41.2096 32.0588 42.5056 33.6428 42.5056C34.7348 42.5056 35.5868 41.8216 35.9708 40.8856ZM42.5381 39.3856C42.5381 37.5616 41.3261 36.2416 39.6581 36.2416C37.9901 36.2416 36.7661 37.5616 36.7661 39.3856C36.7661 41.1856 37.9901 42.5056 39.6581 42.5056C41.3261 42.5056 42.5381 41.1856 42.5381 39.3856ZM37.8461 39.3856C37.8461 38.0656 38.6021 37.0936 39.6581 37.0936C40.7021 37.0936 41.4581 38.0656 41.4581 39.3856C41.4581 40.6816 40.7021 41.6416 39.6581 41.6416C38.6021 41.6416 37.8461 40.6816 37.8461 39.3856ZM48.9407 42.3496V38.4136C48.9407 37.1416 48.0527 36.2416 46.8887 36.2416C46.0367 36.2416 45.3167 36.7456 44.9207 37.3096V36.3976H43.9367V42.3496H44.9567V38.0296C45.3287 37.5016 45.9767 37.1056 46.6487 37.1056C47.3927 37.1056 47.9207 37.6576 47.9207 38.4856V42.3496H48.9407ZM55.3419 40.8856L54.4779 40.5496C54.1899 41.2096 53.7099 41.6296 53.0499 41.6296C52.0779 41.6296 51.3699 40.7056 51.3699 39.4216C51.3699 38.0776 52.0539 37.1056 53.0019 37.1056C53.6019 37.1056 54.1179 37.4776 54.4059 38.1736L55.2939 37.8136C54.8739 36.8536 54.0699 36.2416 52.9779 36.2416C51.4179 36.2416 50.2899 37.5736 50.2899 39.4216C50.2899 41.2096 51.4299 42.5056 53.0139 42.5056C54.1059 42.5056 54.9579 41.8216 55.3419 40.8856ZM61.3572 40.9936L60.5412 40.6816C60.2292 41.2936 59.6532 41.6656 59.0052 41.6656C58.0092 41.6656 57.2892 40.8376 57.2172 39.5896H61.3452C61.3812 39.4336 61.4052 39.1096 61.4052 38.8456C61.4052 37.3216 60.3612 36.2416 58.9092 36.2416C57.3252 36.2416 56.1492 37.5856 56.1492 39.4216C56.1492 41.2216 57.3252 42.5056 58.9452 42.5056C60.0132 42.5056 60.9372 41.9416 61.3572 40.9936ZM58.9212 37.0696C59.7612 37.0696 60.3492 37.7416 60.3852 38.7736H57.2772C57.4572 37.7416 58.0932 37.0696 58.9212 37.0696ZM63.859 42.3496V38.7976C63.955 38.0056 64.435 37.2616 65.359 37.2616C65.563 37.2616 65.851 37.2976 66.019 37.3456V36.3376C65.899 36.2896 65.611 36.2416 65.407 36.2416C64.711 36.2416 64.063 36.8536 63.823 37.6096V36.3976H62.839V42.3496H63.859ZM70.5707 42.3136V41.4616C70.3187 41.5576 69.8987 41.6296 69.5267 41.6296C68.7707 41.6296 68.4707 41.2576 68.4707 40.6936V37.2376H70.5347V36.3976H68.4707V34.9456H67.4507V36.3976H66.5747V37.2376H67.4507V40.8616C67.4507 41.9056 68.1587 42.5056 69.3467 42.5056C69.7907 42.5056 70.3067 42.4096 70.5707 42.3136ZM72.7301 36.3976H71.7101V42.3496H72.7301V36.3976ZM72.7301 34.0336H71.7101V35.2216H72.7301V34.0336ZM75.5892 42.3496V40.7536H74.3892V42.3496H75.5892ZM81.171 42.3496V36.4216L83.487 39.4216H84.015L86.259 36.3496V42.3496H87.327V34.5856H86.307L83.775 38.1136L81.123 34.5856H80.139V42.3496H81.171ZM90.3434 36.3976H89.3234V42.3496H90.3434V36.3976ZM90.3434 34.0336H89.3234V35.2216H90.3434V34.0336ZM99.5081 40.7176C99.5081 39.6136 98.5721 39.1576 97.2281 38.8696C96.2201 38.6416 95.6441 38.4616 95.6441 37.9336C95.6441 37.4296 96.2081 37.0816 97.0001 37.0816C97.8281 37.0816 98.3801 37.4296 98.6561 38.0056L99.4721 37.6816C99.1241 36.9496 98.3921 36.2416 97.0121 36.2416C95.6081 36.2416 94.6481 36.9856 94.6481 37.9936C94.6481 39.0256 95.6201 39.5056 96.9401 39.7816C97.9601 39.9976 98.5241 40.2016 98.5241 40.7656C98.5241 41.3056 98.0201 41.6776 97.1441 41.6776C96.1481 41.6776 95.5121 41.2336 95.2121 40.6456L94.3721 40.9696C94.7801 41.9056 95.7401 42.5056 97.0961 42.5056C98.6081 42.5056 99.5081 41.7736 99.5081 40.7176ZM106.23 39.3856C106.23 37.5616 105.018 36.2416 103.35 36.2416C101.682 36.2416 100.458 37.5616 100.458 39.3856C100.458 41.1856 101.682 42.5056 103.35 42.5056C105.018 42.5056 106.23 41.1856 106.23 39.3856ZM101.538 39.3856C101.538 38.0656 102.294 37.0936 103.35 37.0936C104.394 37.0936 105.15 38.0656 105.15 39.3856C105.15 40.6816 104.394 41.6416 103.35 41.6416C102.294 41.6416 101.538 40.6816 101.538 39.3856ZM112.632 42.3496V38.4136C112.632 37.1416 111.744 36.2416 110.58 36.2416C109.728 36.2416 109.008 36.7456 108.612 37.3096V36.3976H107.628V42.3496H108.648V38.0296C109.02 37.5016 109.668 37.1056 110.34 37.1056C111.084 37.1056 111.612 37.6576 111.612 38.4856V42.3496H112.632ZM119.741 39.3856C119.741 37.5616 118.529 36.2416 116.861 36.2416C115.193 36.2416 113.969 37.5616 113.969 39.3856C113.969 41.1856 115.193 42.5056 116.861 42.5056C118.529 42.5056 119.741 41.1856 119.741 39.3856ZM115.049 39.3856C115.049 38.0656 115.805 37.0936 116.861 37.0936C117.905 37.0936 118.661 38.0656 118.661 39.3856C118.661 40.6816 117.905 41.6416 116.861 41.6416C115.805 41.6416 115.049 40.6816 115.049 39.3856ZM128.525 40.8856L127.661 40.5496C127.373 41.2096 126.893 41.6296 126.233 41.6296C125.261 41.6296 124.553 40.7056 124.553 39.4216C124.553 38.0776 125.237 37.1056 126.185 37.1056C126.785 37.1056 127.301 37.4776 127.589 38.1736L128.477 37.8136C128.057 36.8536 127.253 36.2416 126.161 36.2416C124.601 36.2416 123.473 37.5736 123.473 39.4216C123.473 41.2096 124.613 42.5056 126.197 42.5056C127.289 42.5056 128.141 41.8216 128.525 40.8856ZM134.769 42.3496V38.4256C134.769 37.1416 133.881 36.2416 132.717 36.2416C131.889 36.2416 131.181 36.7096 130.785 37.2616V33.9016H129.765V42.3496H130.785V38.0296C131.157 37.5016 131.805 37.1056 132.477 37.1056C133.221 37.1056 133.749 37.6576 133.749 38.4856V42.3496H134.769ZM137.57 36.3976H136.55V42.3496H137.57V36.3976ZM137.57 34.0336H136.55V35.2216H137.57V34.0336ZM144.197 40.9936L143.381 40.6816C143.069 41.2936 142.493 41.6656 141.845 41.6656C140.849 41.6656 140.129 40.8376 140.057 39.5896H144.185C144.221 39.4336 144.245 39.1096 144.245 38.8456C144.245 37.3216 143.201 36.2416 141.749 36.2416C140.165 36.2416 138.989 37.5856 138.989 39.4216C138.989 41.2216 140.165 42.5056 141.785 42.5056C142.853 42.5056 143.777 41.9416 144.197 40.9936ZM141.761 37.0696C142.601 37.0696 143.189 37.7416 143.225 38.7736H140.117C140.297 37.7416 140.933 37.0696 141.761 37.0696ZM150.227 40.7176C150.227 39.6136 149.291 39.1576 147.947 38.8696C146.939 38.6416 146.363 38.4616 146.363 37.9336C146.363 37.4296 146.927 37.0816 147.719 37.0816C148.547 37.0816 149.099 37.4296 149.375 38.0056L150.191 37.6816C149.843 36.9496 149.111 36.2416 147.731 36.2416C146.327 36.2416 145.367 36.9856 145.367 37.9936C145.367 39.0256 146.339 39.5056 147.659 39.7816C148.679 39.9976 149.243 40.2016 149.243 40.7656C149.243 41.3056 148.739 41.6776 147.863 41.6776C146.867 41.6776 146.231 41.2336 145.931 40.6456L145.091 40.9696C145.499 41.9056 146.459 42.5056 147.815 42.5056C149.327 42.5056 150.227 41.7736 150.227 40.7176ZM154.957 42.3136V41.4616C154.705 41.5576 154.285 41.6296 153.913 41.6296C153.157 41.6296 152.857 41.2576 152.857 40.6936V37.2376H154.921V36.3976H152.857V34.9456H151.837V36.3976H150.961V37.2376H151.837V40.8616C151.837 41.9056 152.545 42.5056 153.733 42.5056C154.177 42.5056 154.693 42.4096 154.957 42.3136ZM161.366 39.3856C161.366 37.5616 160.154 36.2416 158.486 36.2416C156.818 36.2416 155.594 37.5616 155.594 39.3856C155.594 41.1856 156.818 42.5056 158.486 42.5056C160.154 42.5056 161.366 41.1856 161.366 39.3856ZM156.674 39.3856C156.674 38.0656 157.43 37.0936 158.486 37.0936C159.53 37.0936 160.286 38.0656 160.286 39.3856C160.286 40.6816 159.53 41.6416 158.486 41.6416C157.43 41.6416 156.674 40.6816 156.674 39.3856ZM163.797 42.3496V40.7536H162.597V42.3496H163.797ZM163.797 38.7856V37.1896H162.597V38.7856H163.797ZM170.662 41.6536C169.642 41.6536 168.874 40.7536 168.874 39.4216C168.874 38.0656 169.63 37.0816 170.698 37.0816C171.286 37.0816 171.862 37.4056 172.21 37.8736V40.8016C171.922 41.2696 171.322 41.6536 170.662 41.6536ZM173.23 44.5336V36.3976H172.234V37.1536C171.85 36.6016 171.178 36.2416 170.434 36.2416C168.994 36.2416 167.794 37.5376 167.794 39.4096C167.794 41.2096 168.934 42.5056 170.398 42.5056C171.154 42.5056 171.826 42.1456 172.21 41.6056V44.5336H173.23ZM179.881 42.3496V36.3976H178.861V40.5016C178.561 41.1616 177.985 41.6416 177.277 41.6416C176.545 41.6416 176.017 41.0656 176.017 40.2616V36.3976H174.997V40.3336C174.997 41.5936 175.837 42.5056 176.989 42.5056C177.865 42.5056 178.549 42.0016 178.897 41.3656V42.3496H179.881ZM186.658 42.4456L186.706 41.6656C186.634 41.6776 186.514 41.6896 186.442 41.6896C186.082 41.6896 185.902 41.4376 185.902 41.1136V38.3776C185.902 36.9976 185.062 36.2416 183.766 36.2416C182.734 36.2416 181.834 36.8176 181.402 37.7536L182.194 38.0776C182.494 37.5136 182.962 37.0936 183.67 37.0936C184.402 37.0936 184.882 37.5976 184.882 38.3416V38.8096L183.49 38.9776C182.17 39.1456 181.234 39.7816 181.234 40.8856C181.234 41.8336 181.99 42.5056 183.046 42.5056C183.886 42.5056 184.546 42.0976 184.93 41.4616C185.074 42.1456 185.518 42.5056 186.19 42.5056C186.37 42.5056 186.514 42.4816 186.658 42.4456ZM183.322 41.6776C182.722 41.6776 182.302 41.3176 182.302 40.8136C182.302 40.2016 182.878 39.8416 183.67 39.7456L184.882 39.6016V40.6936C184.57 41.2696 183.982 41.6776 183.322 41.6776ZM188.816 33.9016H187.796V42.3496H188.816V33.9016ZM198.209 40.9936L197.393 40.6816C197.081 41.2936 196.505 41.6656 195.857 41.6656C194.861 41.6656 194.141 40.8376 194.069 39.5896H198.197C198.233 39.4336 198.257 39.1096 198.257 38.8456C198.257 37.3216 197.213 36.2416 195.761 36.2416C194.177 36.2416 193.001 37.5856 193.001 39.4216C193.001 41.2216 194.177 42.5056 195.797 42.5056C196.865 42.5056 197.789 41.9416 198.209 40.9936ZM195.773 37.0696C196.613 37.0696 197.201 37.7416 197.237 38.7736H194.129C194.309 37.7416 194.945 37.0696 195.773 37.0696ZM196.541 35.1136L194.741 33.4576L194.045 34.2856L196.025 35.7376L196.541 35.1136ZM203.476 33.9016H202.456V42.3496H203.476V33.9016ZM210.259 42.4456L210.307 41.6656C210.235 41.6776 210.115 41.6896 210.043 41.6896C209.683 41.6896 209.503 41.4376 209.503 41.1136V38.3776C209.503 36.9976 208.663 36.2416 207.367 36.2416C206.335 36.2416 205.435 36.8176 205.003 37.7536L205.795 38.0776C206.095 37.5136 206.563 37.0936 207.271 37.0936C208.003 37.0936 208.483 37.5976 208.483 38.3416V38.8096L207.091 38.9776C205.771 39.1456 204.835 39.7816 204.835 40.8856C204.835 41.8336 205.591 42.5056 206.647 42.5056C207.487 42.5056 208.147 42.0976 208.531 41.4616C208.675 42.1456 209.119 42.5056 209.791 42.5056C209.971 42.5056 210.115 42.4816 210.259 42.4456ZM206.923 41.6776C206.323 41.6776 205.903 41.3176 205.903 40.8136C205.903 40.2016 206.479 39.8416 207.271 39.7456L208.483 39.6016V40.6936C208.171 41.2696 207.583 41.6776 206.923 41.6776ZM216.731 41.6536C216.167 41.6536 215.543 41.3536 215.183 40.9216V38.0296C215.495 37.5496 216.083 37.0816 216.779 37.0816C217.775 37.0816 218.519 37.9816 218.519 39.3496C218.519 40.7056 217.775 41.6536 216.731 41.6536ZM219.599 39.3496C219.599 37.5256 218.447 36.2416 217.043 36.2416C216.131 36.2416 215.459 36.7936 215.147 37.2856V36.3976H214.163V44.5336H215.183V41.7256C215.567 42.1936 216.227 42.5056 216.935 42.5056C218.435 42.5056 219.599 41.1736 219.599 39.3496ZM222.027 42.3496V38.7976C222.123 38.0056 222.603 37.2616 223.527 37.2616C223.731 37.2616 224.019 37.2976 224.187 37.3456V36.3376C224.067 36.2896 223.779 36.2416 223.575 36.2416C222.879 36.2416 222.231 36.8536 221.991 37.6096V36.3976H221.007V42.3496H222.027ZM226.375 36.3976H225.355V42.3496H226.375V36.3976ZM226.375 34.0336H225.355V35.2216H226.375V34.0336ZM233.554 39.3856C233.554 37.5616 232.342 36.2416 230.674 36.2416C229.006 36.2416 227.782 37.5616 227.782 39.3856C227.782 41.1856 229.006 42.5056 230.674 42.5056C232.342 42.5056 233.554 41.1856 233.554 39.3856ZM228.862 39.3856C228.862 38.0656 229.618 37.0936 230.674 37.0936C231.718 37.0936 232.474 38.0656 232.474 39.3856C232.474 40.6816 231.718 41.6416 230.674 41.6416C229.618 41.6416 228.862 40.6816 228.862 39.3856ZM235.972 42.3496V38.7976C236.068 38.0056 236.548 37.2616 237.472 37.2616C237.676 37.2616 237.964 37.2976 238.132 37.3456V36.3376C238.012 36.2896 237.724 36.2416 237.52 36.2416C236.824 36.2416 236.176 36.8536 235.936 37.6096V36.3976H234.952V42.3496H235.972ZM240.32 36.3976H239.3V42.3496H240.32V36.3976ZM240.32 34.0336H239.3V35.2216H240.32V34.0336ZM245.555 42.3136V41.4616C245.303 41.5576 244.883 41.6296 244.511 41.6296C243.755 41.6296 243.455 41.2576 243.455 40.6936V37.2376H245.519V36.3976H243.455V34.9456H242.435V36.3976H241.559V37.2376H242.435V40.8616C242.435 41.9056 243.143 42.5056 244.331 42.5056C244.775 42.5056 245.291 42.4096 245.555 42.3136ZM251.627 42.4456L251.675 41.6656C251.603 41.6776 251.483 41.6896 251.411 41.6896C251.051 41.6896 250.871 41.4376 250.871 41.1136V38.3776C250.871 36.9976 250.031 36.2416 248.735 36.2416C247.703 36.2416 246.803 36.8176 246.371 37.7536L247.163 38.0776C247.463 37.5136 247.931 37.0936 248.639 37.0936C249.371 37.0936 249.851 37.5976 249.851 38.3416V38.8096L248.459 38.9776C247.139 39.1456 246.203 39.7816 246.203 40.8856C246.203 41.8336 246.959 42.5056 248.015 42.5056C248.855 42.5056 249.515 42.0976 249.899 41.4616C250.043 42.1456 250.487 42.5056 251.159 42.5056C251.339 42.5056 251.483 42.4816 251.627 42.4456ZM248.291 41.6776C247.691 41.6776 247.271 41.3176 247.271 40.8136C247.271 40.2016 247.847 39.8416 248.639 39.7456L249.851 39.6016V40.6936C249.539 41.2696 248.951 41.6776 248.291 41.6776ZM249.527 35.1136L247.727 33.4576L247.031 34.2856L249.011 35.7376L249.527 35.1136ZM252.594 36.5416C252.87 35.8936 253.542 35.4256 254.214 35.4256C254.958 35.4256 255.51 35.8696 255.51 36.4816C255.51 36.9496 255.246 37.2376 254.586 37.7536L254.094 38.1256C253.53 38.5696 253.362 38.9416 253.362 39.6616V40.1296H254.466V39.6496C254.466 39.1816 254.538 39.0616 255.102 38.6176L255.594 38.2456C256.254 37.7296 256.65 37.2016 256.65 36.3976C256.65 35.2696 255.666 34.4656 254.298 34.4656C253.194 34.4656 252.126 35.1736 251.766 36.1456L252.594 36.5416ZM254.514 42.3496V40.7536H253.314V42.3496H254.514ZM267.009 40.3696L266.073 40.0096C265.713 40.8976 264.825 41.5216 263.985 41.5216C262.581 41.5216 261.561 40.2856 261.561 38.5456C261.561 36.7336 262.581 35.4256 263.997 35.4256C264.789 35.4256 265.617 36.0376 265.977 36.9016L266.961 36.5176C266.481 35.3296 265.233 34.4536 263.949 34.4536C261.885 34.4536 260.397 36.1816 260.397 38.5456C260.397 40.8376 261.873 42.4936 263.937 42.4936C265.257 42.4936 266.565 41.5936 267.009 40.3696ZM273.296 42.3496V38.4256C273.296 37.1416 272.408 36.2416 271.244 36.2416C270.416 36.2416 269.708 36.7096 269.312 37.2616V33.9016H268.292V42.3496H269.312V38.0296C269.684 37.5016 270.332 37.1056 271.004 37.1056C271.748 37.1056 272.276 37.6576 272.276 38.4856V42.3496H273.296ZM279.853 40.9936L279.037 40.6816C278.725 41.2936 278.149 41.6656 277.501 41.6656C276.505 41.6656 275.785 40.8376 275.713 39.5896H279.841C279.877 39.4336 279.901 39.1096 279.901 38.8456C279.901 37.3216 278.857 36.2416 277.405 36.2416C275.821 36.2416 274.645 37.5856 274.645 39.4216C274.645 41.2216 275.821 42.5056 277.441 42.5056C278.509 42.5056 279.433 41.9416 279.853 40.9936ZM277.417 37.0696C278.257 37.0696 278.845 37.7416 278.881 38.7736H275.773C275.953 37.7416 276.589 37.0696 277.417 37.0696ZM35.8988 55.7176C35.8988 54.6136 34.9628 54.1576 33.6188 53.8696C32.6108 53.6416 32.0348 53.4616 32.0348 52.9336C32.0348 52.4296 32.5988 52.0816 33.3908 52.0816C34.2188 52.0816 34.7708 52.4296 35.0468 53.0056L35.8628 52.6816C35.5148 51.9496 34.7828 51.2416 33.4028 51.2416C31.9988 51.2416 31.0388 51.9856 31.0388 52.9936C31.0388 54.0256 32.0108 54.5056 33.3308 54.7816C34.3508 54.9976 34.9148 55.2016 34.9148 55.7656C34.9148 56.3056 34.4108 56.6776 33.5348 56.6776C32.5388 56.6776 31.9028 56.2336 31.6028 55.6456L30.7628 55.9696C31.1708 56.9056 32.1308 57.5056 33.4868 57.5056C34.9988 57.5056 35.8988 56.7736 35.8988 55.7176ZM38.3122 51.3976H37.2922V57.3496H38.3122V51.3976ZM38.3122 49.0336H37.2922V50.2216H38.3122V49.0336ZM45.3233 57.7456C45.3233 56.8816 44.6873 56.4256 43.3313 56.3056L42.4913 56.2336C41.6513 56.1616 41.3513 56.0176 41.3513 55.8376C41.3513 55.6936 41.4833 55.4896 41.6033 55.3576C41.8073 55.4056 42.0353 55.4296 42.2513 55.4296C43.5473 55.4296 44.6033 54.5896 44.6033 53.4256C44.6033 52.9936 44.4713 52.5856 44.2193 52.2376C44.5433 52.0696 45.0593 51.9256 45.5393 51.9256V51.0136C44.8073 51.0136 44.2313 51.3616 43.8713 51.8536C43.4393 51.4816 42.8513 51.2416 42.1793 51.2416C40.8473 51.2416 39.8033 52.1536 39.8033 53.3536C39.8033 54.2056 40.3313 54.8536 41.0753 55.1896C40.6913 55.4536 40.3673 55.8616 40.3673 56.1376C40.3673 56.3776 40.5353 56.5816 40.8353 56.7376C40.0913 57.0496 39.5513 57.5896 39.5513 58.1296C39.5513 59.1136 40.6433 59.6896 42.3113 59.6896C44.1593 59.6896 45.3233 58.8736 45.3233 57.7456ZM42.3233 58.9096C41.2073 58.9096 40.5713 58.5016 40.5713 57.9736C40.5713 57.5656 40.9433 57.1696 41.4473 56.9536C41.6873 57.0136 41.9633 57.0616 42.2753 57.0856L43.1153 57.1576C44.0753 57.2416 44.3153 57.4696 44.3153 57.9016C44.3153 58.4656 43.5353 58.9096 42.3233 58.9096ZM40.8233 53.3656C40.8233 52.6096 41.3993 52.0216 42.1913 52.0216C42.9833 52.0216 43.5833 52.6096 43.5833 53.3656C43.5833 54.1096 42.9833 54.6496 42.1913 54.6496C41.3993 54.6496 40.8233 54.1096 40.8233 53.3656ZM51.6712 57.3496V53.4136C51.6712 52.1416 50.7832 51.2416 49.6192 51.2416C48.7672 51.2416 48.0472 51.7456 47.6512 52.3096V51.3976H46.6672V57.3496H47.6872V53.0296C48.0592 52.5016 48.7072 52.1056 49.3792 52.1056C50.1232 52.1056 50.6512 52.6576 50.6512 53.4856V57.3496H51.6712ZM54.4723 51.3976H53.4523V57.3496H54.4723V51.3976ZM54.4723 49.0336H53.4523V50.2216H54.4723V49.0336ZM59.8154 52.2376V51.3976H57.6434V51.1576C57.6434 50.1736 58.1354 49.5976 58.9274 49.5976C59.2514 49.5976 59.6474 49.6576 59.9114 49.7656L59.9354 48.9136C59.6594 48.8296 59.1794 48.7456 58.8194 48.7456C57.4514 48.7456 56.6234 49.6456 56.6234 51.1696V51.3976H55.8554V52.2376H56.6234V57.3496H57.6434V52.2376H59.8154ZM61.6634 51.3976H60.6434V57.3496H61.6634V51.3976ZM61.6634 49.0336H60.6434V50.2216H61.6634V49.0336ZM68.127 55.8856L67.263 55.5496C66.975 56.2096 66.495 56.6296 65.835 56.6296C64.863 56.6296 64.155 55.7056 64.155 54.4216C64.155 53.0776 64.839 52.1056 65.787 52.1056C66.387 52.1056 66.903 52.4776 67.191 53.1736L68.079 52.8136C67.659 51.8536 66.855 51.2416 65.763 51.2416C64.203 51.2416 63.075 52.5736 63.075 54.4216C63.075 56.2096 64.215 57.5056 65.799 57.5056C66.891 57.5056 67.743 56.8216 68.127 55.8856ZM74.2984 57.4456L74.3464 56.6656C74.2744 56.6776 74.1544 56.6896 74.0824 56.6896C73.7224 56.6896 73.5424 56.4376 73.5424 56.1136V53.3776C73.5424 51.9976 72.7024 51.2416 71.4064 51.2416C70.3744 51.2416 69.4744 51.8176 69.0424 52.7536L69.8344 53.0776C70.1344 52.5136 70.6024 52.0936 71.3104 52.0936C72.0424 52.0936 72.5224 52.5976 72.5224 53.3416V53.8096L71.1304 53.9776C69.8104 54.1456 68.8744 54.7816 68.8744 55.8856C68.8744 56.8336 69.6304 57.5056 70.6864 57.5056C71.5264 57.5056 72.1864 57.0976 72.5704 56.4616C72.7144 57.1456 73.1584 57.5056 73.8304 57.5056C74.0104 57.5056 74.1544 57.4816 74.2984 57.4456ZM70.9624 56.6776C70.3624 56.6776 69.9424 56.3176 69.9424 55.8136C69.9424 55.2016 70.5184 54.8416 71.3104 54.7456L72.5224 54.6016V55.6936C72.2104 56.2696 71.6224 56.6776 70.9624 56.6776ZM79.2223 48.9016H78.2023V57.3496H79.2223V48.9016ZM82.0094 50.7136V49.4536H80.8814V50.8936H81.4094C81.3974 51.4816 81.2174 51.9136 80.7734 52.3816L81.2294 52.7056C81.7454 52.1896 82.0094 51.4936 82.0094 50.7136ZM88.2671 57.4456L88.3151 56.6656C88.2431 56.6776 88.1231 56.6896 88.0511 56.6896C87.6911 56.6896 87.5111 56.4376 87.5111 56.1136V53.3776C87.5111 51.9976 86.6711 51.2416 85.3751 51.2416C84.3431 51.2416 83.4431 51.8176 83.0111 52.7536L83.8031 53.0776C84.1031 52.5136 84.5711 52.0936 85.2791 52.0936C86.0111 52.0936 86.4911 52.5976 86.4911 53.3416V53.8096L85.0991 53.9776C83.7791 54.1456 82.8431 54.7816 82.8431 55.8856C82.8431 56.8336 83.5991 57.5056 84.6551 57.5056C85.4951 57.5056 86.1551 57.0976 86.5391 56.4616C86.6831 57.1456 87.1271 57.5056 87.7991 57.5056C87.9791 57.5056 88.1231 57.4816 88.2671 57.4456ZM84.9311 56.6776C84.3311 56.6776 83.9111 56.3176 83.9111 55.8136C83.9111 55.2016 84.4871 54.8416 85.2791 54.7456L86.4911 54.6016V55.6936C86.1791 56.2696 85.5911 56.6776 84.9311 56.6776ZM90.4254 57.3496V53.7976C90.5214 53.0056 91.0014 52.2616 91.9254 52.2616C92.1294 52.2616 92.4174 52.2976 92.5854 52.3456V51.3376C92.4654 51.2896 92.1774 51.2416 91.9734 51.2416C91.2774 51.2416 90.6294 51.8536 90.3894 52.6096V51.3976H89.4054V57.3496H90.4254ZM97.1371 57.3136V56.4616C96.8851 56.5576 96.4651 56.6296 96.0931 56.6296C95.3371 56.6296 95.0371 56.2576 95.0371 55.6936V52.2376H97.1011V51.3976H95.0371V49.9456H94.0171V51.3976H93.1411V52.2376H94.0171V55.8616C94.0171 56.9056 94.7251 57.5056 95.9131 57.5056C96.3571 57.5056 96.8731 57.4096 97.1371 57.3136ZM102.994 55.9936L102.178 55.6816C101.866 56.2936 101.29 56.6656 100.642 56.6656C99.6459 56.6656 98.9259 55.8376 98.8539 54.5896H102.982C103.018 54.4336 103.042 54.1096 103.042 53.8456C103.042 52.3216 101.998 51.2416 100.546 51.2416C98.9619 51.2416 97.7859 52.5856 97.7859 54.4216C97.7859 56.2216 98.9619 57.5056 100.582 57.5056C101.65 57.5056 102.574 56.9416 102.994 55.9936ZM100.558 52.0696C101.398 52.0696 101.986 52.7416 102.022 53.7736H98.9139C99.0939 52.7416 99.7299 52.0696 100.558 52.0696ZM109.809 56.6536C109.245 56.6536 108.621 56.3536 108.261 55.9216V53.0296C108.573 52.5496 109.161 52.0816 109.857 52.0816C110.853 52.0816 111.597 52.9816 111.597 54.3496C111.597 55.7056 110.853 56.6536 109.809 56.6536ZM112.677 54.3496C112.677 52.5256 111.525 51.2416 110.121 51.2416C109.209 51.2416 108.537 51.7936 108.225 52.2856V51.3976H107.241V59.5336H108.261V56.7256C108.645 57.1936 109.305 57.5056 110.013 57.5056C111.513 57.5056 112.677 56.1736 112.677 54.3496ZM118.861 55.9936L118.045 55.6816C117.733 56.2936 117.157 56.6656 116.509 56.6656C115.513 56.6656 114.793 55.8376 114.721 54.5896H118.849C118.885 54.4336 118.909 54.1096 118.909 53.8456C118.909 52.3216 117.865 51.2416 116.413 51.2416C114.829 51.2416 113.653 52.5856 113.653 54.4216C113.653 56.2216 114.829 57.5056 116.449 57.5056C117.517 57.5056 118.441 56.9416 118.861 55.9936ZM116.425 52.0696C117.265 52.0696 117.853 52.7416 117.889 53.7736H114.781C114.961 52.7416 115.597 52.0696 116.425 52.0696ZM121.363 57.3496V53.7976C121.459 53.0056 121.939 52.2616 122.863 52.2616C123.067 52.2616 123.355 52.2976 123.523 52.3456V51.3376C123.403 51.2896 123.115 51.2416 122.911 51.2416C122.215 51.2416 121.567 51.8536 121.327 52.6096V51.3976H120.343V57.3496H121.363ZM128.195 48.9016H127.175V57.3496H128.195V48.9016ZM135.374 54.3856C135.374 52.5616 134.162 51.2416 132.494 51.2416C130.826 51.2416 129.602 52.5616 129.602 54.3856C129.602 56.1856 130.826 57.5056 132.494 57.5056C134.162 57.5056 135.374 56.1856 135.374 54.3856ZM130.682 54.3856C130.682 53.0656 131.438 52.0936 132.494 52.0936C133.538 52.0936 134.294 53.0656 134.294 54.3856C134.294 55.6816 133.538 56.6416 132.494 56.6416C131.438 56.6416 130.682 55.6816 130.682 54.3856ZM142.202 49.4536C140.642 49.4536 139.334 50.4136 139.334 51.7216C139.334 53.0896 140.474 53.5816 142.046 53.9656C143.366 54.2896 143.966 54.5656 143.966 55.2856C143.966 56.0536 143.234 56.5576 142.238 56.5576C141.074 56.5576 140.354 56.0176 139.97 55.1416L138.986 55.5016C139.502 56.7256 140.654 57.4936 142.226 57.4936C143.882 57.4936 145.082 56.5696 145.082 55.1776C145.082 53.8456 143.978 53.3056 142.37 52.9096C141.05 52.5856 140.462 52.3336 140.462 51.6376C140.462 50.9176 141.254 50.3896 142.202 50.3896C143.162 50.3896 143.834 50.8816 144.17 51.6856L145.142 51.3016C144.686 50.2816 143.702 49.4536 142.202 49.4536ZM149.977 57.3136V56.4616C149.725 56.5576 149.305 56.6296 148.933 56.6296C148.177 56.6296 147.877 56.2576 147.877 55.6936V52.2376H149.941V51.3976H147.877V49.9456H146.857V51.3976H145.981V52.2376H146.857V55.8616C146.857 56.9056 147.565 57.5056 148.753 57.5056C149.197 57.5056 149.713 57.4096 149.977 57.3136ZM156.048 57.4456L156.096 56.6656C156.024 56.6776 155.904 56.6896 155.832 56.6896C155.472 56.6896 155.292 56.4376 155.292 56.1136V53.3776C155.292 51.9976 154.452 51.2416 153.156 51.2416C152.124 51.2416 151.224 51.8176 150.792 52.7536L151.584 53.0776C151.884 52.5136 152.352 52.0936 153.06 52.0936C153.792 52.0936 154.272 52.5976 154.272 53.3416V53.8096L152.88 53.9776C151.56 54.1456 150.624 54.7816 150.624 55.8856C150.624 56.8336 151.38 57.5056 152.436 57.5056C153.276 57.5056 153.936 57.0976 154.32 56.4616C154.464 57.1456 154.908 57.5056 155.58 57.5056C155.76 57.5056 155.904 57.4816 156.048 57.4456ZM152.712 56.6776C152.112 56.6776 151.692 56.3176 151.692 55.8136C151.692 55.2016 152.268 54.8416 153.06 54.7456L154.272 54.6016V55.6936C153.96 56.2696 153.372 56.6776 152.712 56.6776ZM160.571 57.3136V56.4616C160.319 56.5576 159.899 56.6296 159.527 56.6296C158.771 56.6296 158.471 56.2576 158.471 55.6936V52.2376H160.535V51.3976H158.471V49.9456H157.451V51.3976H156.575V52.2376H157.451V55.8616C157.451 56.9056 158.159 57.5056 159.347 57.5056C159.791 57.5056 160.307 57.4096 160.571 57.3136ZM166.98 54.3856C166.98 52.5616 165.768 51.2416 164.1 51.2416C162.432 51.2416 161.208 52.5616 161.208 54.3856C161.208 56.1856 162.432 57.5056 164.1 57.5056C165.768 57.5056 166.98 56.1856 166.98 54.3856ZM162.288 54.3856C162.288 53.0656 163.044 52.0936 164.1 52.0936C165.144 52.0936 165.9 53.0656 165.9 54.3856C165.9 55.6816 165.144 56.6416 164.1 56.6416C163.044 56.6416 162.288 55.6816 162.288 54.3856ZM168.348 51.5416C168.624 50.8936 169.296 50.4256 169.968 50.4256C170.712 50.4256 171.264 50.8696 171.264 51.4816C171.264 51.9496 171 52.2376 170.34 52.7536L169.848 53.1256C169.284 53.5696 169.116 53.9416 169.116 54.6616V55.1296H170.22V54.6496C170.22 54.1816 170.292 54.0616 170.856 53.6176L171.348 53.2456C172.008 52.7296 172.404 52.2016 172.404 51.3976C172.404 50.2696 171.42 49.4656 170.052 49.4656C168.948 49.4656 167.88 50.1736 167.52 51.1456L168.348 51.5416ZM170.268 57.3496V55.7536H169.068V57.3496H170.268ZM181.911 57.3496V56.4016H177.735V53.9416H181.095V53.0056H177.735V50.5336H181.827V49.5856H176.631V57.3496H181.911ZM188.677 56.6536C188.113 56.6536 187.489 56.3536 187.129 55.9216V53.0296C187.441 52.5496 188.029 52.0816 188.725 52.0816C189.721 52.0816 190.465 52.9816 190.465 54.3496C190.465 55.7056 189.721 56.6536 188.677 56.6536ZM191.545 54.3496C191.545 52.5256 190.393 51.2416 188.989 51.2416C188.077 51.2416 187.405 51.7936 187.093 52.2856V51.3976H186.109V59.5336H187.129V56.7256C187.513 57.1936 188.173 57.5056 188.881 57.5056C190.381 57.5056 191.545 56.1736 191.545 54.3496ZM197.728 55.9936L196.912 55.6816C196.6 56.2936 196.024 56.6656 195.376 56.6656C194.38 56.6656 193.66 55.8376 193.588 54.5896H197.716C197.752 54.4336 197.776 54.1096 197.776 53.8456C197.776 52.3216 196.732 51.2416 195.28 51.2416C193.696 51.2416 192.52 52.5856 192.52 54.4216C192.52 56.2216 193.696 57.5056 195.316 57.5056C196.384 57.5056 197.308 56.9416 197.728 55.9936ZM195.292 52.0696C196.132 52.0696 196.72 52.7416 196.756 53.7736H193.648C193.828 52.7416 194.464 52.0696 195.292 52.0696ZM200.23 57.3496V53.7976C200.326 53.0056 200.806 52.2616 201.73 52.2616C201.934 52.2616 202.222 52.2976 202.39 52.3456V51.3376C202.27 51.2896 201.982 51.2416 201.778 51.2416C201.082 51.2416 200.434 51.8536 200.194 52.6096V51.3976H199.21V57.3496H200.23ZM207.062 51.3976H206.042V57.3496H207.062V51.3976ZM207.062 49.0336H206.042V50.2216H207.062V49.0336ZM209.933 48.9016H208.913V57.3496H209.933V48.9016ZM217.118 56.6536C216.554 56.6536 215.93 56.3536 215.57 55.9216V53.0296C215.882 52.5496 216.47 52.0816 217.166 52.0816C218.162 52.0816 218.906 52.9816 218.906 54.3496C218.906 55.7056 218.162 56.6536 217.118 56.6536ZM219.986 54.3496C219.986 52.5256 218.834 51.2416 217.43 51.2416C216.518 51.2416 215.846 51.7936 215.534 52.2856V51.3976H214.55V59.5336H215.57V56.7256C215.954 57.1936 216.614 57.5056 217.322 57.5056C218.822 57.5056 219.986 56.1736 219.986 54.3496ZM226.722 54.3856C226.722 52.5616 225.51 51.2416 223.842 51.2416C222.174 51.2416 220.95 52.5616 220.95 54.3856C220.95 56.1856 222.174 57.5056 223.842 57.5056C225.51 57.5056 226.722 56.1856 226.722 54.3856ZM222.03 54.3856C222.03 53.0656 222.786 52.0936 223.842 52.0936C224.886 52.0936 225.642 53.0656 225.642 54.3856C225.642 55.6816 224.886 56.6416 223.842 56.6416C222.786 56.6416 222.03 55.6816 222.03 54.3856ZM231.422 57.3136V56.4616C231.17 56.5576 230.75 56.6296 230.378 56.6296C229.622 56.6296 229.322 56.2576 229.322 55.6936V52.2376H231.386V51.3976H229.322V49.9456H228.302V51.3976H227.426V52.2376H228.302V55.8616C228.302 56.9056 229.01 57.5056 230.198 57.5056C230.642 57.5056 231.158 57.4096 231.422 57.3136ZM237.279 55.9936L236.463 55.6816C236.151 56.2936 235.575 56.6656 234.927 56.6656C233.931 56.6656 233.211 55.8376 233.139 54.5896H237.267C237.303 54.4336 237.327 54.1096 237.327 53.8456C237.327 52.3216 236.283 51.2416 234.831 51.2416C233.247 51.2416 232.071 52.5856 232.071 54.4216C232.071 56.2216 233.247 57.5056 234.867 57.5056C235.935 57.5056 236.859 56.9416 237.279 55.9936ZM234.843 52.0696C235.683 52.0696 236.271 52.7416 236.307 53.7736H233.199C233.379 52.7416 234.015 52.0696 234.843 52.0696ZM239.781 57.3496V53.7976C239.877 53.0056 240.357 52.2616 241.281 52.2616C241.485 52.2616 241.773 52.2976 241.941 52.3456V51.3376C241.821 51.2896 241.533 51.2416 241.329 51.2416C240.633 51.2416 239.985 51.8536 239.745 52.6096V51.3976H238.761V57.3496H239.781ZM247.721 55.9936L246.905 55.6816C246.593 56.2936 246.017 56.6656 245.369 56.6656C244.373 56.6656 243.653 55.8376 243.581 54.5896H247.709C247.745 54.4336 247.769 54.1096 247.769 53.8456C247.769 52.3216 246.725 51.2416 245.273 51.2416C243.689 51.2416 242.513 52.5856 242.513 54.4216C242.513 56.2216 243.689 57.5056 245.309 57.5056C246.377 57.5056 247.301 56.9416 247.721 55.9936ZM245.285 52.0696C246.125 52.0696 246.713 52.7416 246.749 53.7736H243.641C243.821 52.7416 244.457 52.0696 245.285 52.0696ZM249.242 51.5416C249.518 50.8936 250.19 50.4256 250.862 50.4256C251.606 50.4256 252.158 50.8696 252.158 51.4816C252.158 51.9496 251.894 52.2376 251.234 52.7536L250.742 53.1256C250.178 53.5696 250.01 53.9416 250.01 54.6616V55.1296H251.114V54.6496C251.114 54.1816 251.186 54.0616 251.75 53.6176L252.242 53.2456C252.902 52.7296 253.298 52.2016 253.298 51.3976C253.298 50.2696 252.314 49.4656 250.946 49.4656C249.842 49.4656 248.774 50.1736 248.414 51.1456L249.242 51.5416ZM251.162 57.3496V55.7536H249.962V57.3496H251.162ZM259.74 54.8416L257.568 57.2776L257.004 56.8336L258.432 54.6376L257.004 52.4416L257.568 51.9976L259.74 54.4336V54.8416ZM256.824 54.8416L254.808 57.0256L254.256 56.5696L255.576 54.6376L254.256 52.7056L254.808 52.2496L256.824 54.4336V54.8416Z" fill="black"/>
<path d="M33.0428 75.7995H33.0748L33.6348 77.3995H32.4828L33.0428 75.7995ZM31.7708 79.4315L32.1148 78.4475H34.0028L34.3468 79.4315H35.8028L33.8188 74.2555H32.3868L30.4028 79.4315H31.7708ZM37.5383 73.8955H36.2183V79.4315H37.5383V73.8955ZM42.0214 78.5035L41.0854 78.1035C40.9094 78.4075 40.6294 78.5915 40.3334 78.5915C39.8934 78.5915 39.5814 78.2635 39.5094 77.7035H42.0614C42.0774 77.5995 42.1094 77.3515 42.1094 77.1355C42.1094 76.0475 41.3334 75.3115 40.2374 75.3115C39.0454 75.3115 38.1894 76.2475 38.1894 77.4955C38.1894 78.7115 39.0294 79.5515 40.2214 79.5515C41.0534 79.5515 41.7414 79.1435 42.0214 78.5035ZM40.2294 76.2475C40.5974 76.2475 40.8294 76.5195 40.8614 76.9835H39.5334C39.6294 76.5195 39.8854 76.2475 40.2294 76.2475ZM46.2452 78.2395C46.2452 77.5035 45.6212 77.1355 44.6772 76.9115C44.1332 76.7835 43.7972 76.7275 43.7972 76.5035C43.7972 76.3195 44.0052 76.1915 44.3652 76.1915C44.8052 76.1915 45.1412 76.3835 45.3572 76.6715L46.2212 76.2875C45.9412 75.7595 45.3252 75.3115 44.3652 75.3115C43.3332 75.3115 42.6132 75.8555 42.6132 76.6395C42.6132 77.3755 43.3332 77.7355 44.0132 77.8875C44.5572 78.0075 45.0612 78.1035 45.0612 78.3595C45.0612 78.5675 44.8292 78.6715 44.5012 78.6715C44.0292 78.6715 43.5812 78.4715 43.3492 78.1595L42.4452 78.5435C42.7252 79.1115 43.4852 79.5515 44.4932 79.5515C45.5332 79.5515 46.2452 79.0395 46.2452 78.2395ZM50.3702 78.2395C50.3702 77.5035 49.7462 77.1355 48.8022 76.9115C48.2582 76.7835 47.9222 76.7275 47.9222 76.5035C47.9222 76.3195 48.1302 76.1915 48.4902 76.1915C48.9302 76.1915 49.2662 76.3835 49.4822 76.6715L50.3462 76.2875C50.0662 75.7595 49.4502 75.3115 48.4902 75.3115C47.4582 75.3115 46.7382 75.8555 46.7382 76.6395C46.7382 77.3755 47.4582 77.7355 48.1382 77.8875C48.6822 78.0075 49.1862 78.1035 49.1862 78.3595C49.1862 78.5675 48.9542 78.6715 48.6262 78.6715C48.1542 78.6715 47.7062 78.4715 47.4742 78.1595L46.5702 78.5435C46.8502 79.1115 47.6102 79.5515 48.6182 79.5515C49.6582 79.5515 50.3702 79.0395 50.3702 78.2395ZM54.7992 79.4715L54.8552 78.5835C54.7912 78.5915 54.6952 78.5995 54.6392 78.5995C54.4632 78.5995 54.3912 78.4795 54.3912 78.2475V76.8875C54.3912 75.8475 53.7672 75.3115 52.7112 75.3115C51.7832 75.3115 51.1752 75.7755 50.8952 76.4395L51.8312 76.8315C51.9832 76.5355 52.2312 76.3035 52.5672 76.3035C52.8872 76.3035 53.0952 76.5195 53.0952 76.8395V77.0075L52.2632 77.1435C51.3032 77.3115 50.7512 77.7835 50.7512 78.4635C50.7512 79.1035 51.2472 79.5515 51.9432 79.5515C52.4952 79.5515 52.9352 79.2715 53.2072 78.8875C53.4152 79.3675 53.8232 79.5515 54.3032 79.5515C54.4872 79.5515 54.6632 79.5195 54.7992 79.4715ZM52.4952 78.6315C52.2392 78.6315 52.0712 78.4715 52.0712 78.2555C52.0712 77.9995 52.2872 77.8395 52.6152 77.7835L53.0952 77.7035V78.3435C52.9432 78.5115 52.7272 78.6315 52.4952 78.6315ZM59.1746 79.4315V76.8635C59.1746 75.9675 58.5986 75.3115 57.8466 75.3115C57.3426 75.3115 56.9106 75.5835 56.6386 76.0075V75.4315H55.3746V79.4315H56.6946V76.6555C56.8466 76.5035 57.0866 76.3835 57.3266 76.3835C57.6466 76.3835 57.8546 76.6155 57.8546 76.9835V79.4315H59.1746ZM61.9192 78.5115C61.4792 78.5115 61.1672 78.0715 61.1672 77.4475C61.1672 76.8075 61.5032 76.3435 61.9752 76.3435C62.2152 76.3435 62.4472 76.4395 62.5912 76.5755V78.2155C62.4232 78.3995 62.1752 78.5115 61.9192 78.5115ZM63.9112 79.4315V73.8955H62.5912V75.8315C62.3592 75.5195 61.9432 75.3115 61.5192 75.3115C60.5112 75.3115 59.7912 76.2155 59.7912 77.4635C59.7912 78.6795 60.4952 79.5515 61.4632 79.5515C61.9112 79.5515 62.3912 79.2875 62.6552 78.9035V79.4315H63.9112ZM66.1086 79.4315V77.5195C66.1806 76.9035 66.4846 76.5355 67.0846 76.5355C67.1966 76.5355 67.3566 76.5595 67.4686 76.5915V75.3755C67.3566 75.3355 67.2206 75.3115 67.0686 75.3115C66.6126 75.3115 66.2206 75.7915 66.0526 76.3355V75.4315H64.7886V79.4315H66.1086ZM72.0005 77.4315C72.0005 76.2075 71.1045 75.3115 69.8725 75.3115C68.6245 75.3115 67.7205 76.2075 67.7205 77.4315C67.7205 78.6555 68.6245 79.5435 69.8725 79.5435C71.1045 79.5435 72.0005 78.6555 72.0005 77.4315ZM69.0965 77.4315C69.0965 76.8075 69.4245 76.3515 69.8725 76.3515C70.3125 76.3515 70.6245 76.8075 70.6245 77.4315C70.6245 78.0555 70.3125 78.5035 69.8725 78.5035C69.4245 78.5035 69.0965 78.0555 69.0965 77.4315ZM75.5556 79.4315V76.4155L76.6996 77.8955H77.1556L78.2756 76.3995V79.4315H79.6356V74.2555H78.3316L76.8996 76.2235L75.4036 74.2555H74.2356V79.4315H75.5556ZM84.3695 79.4715L84.4255 78.5835C84.3615 78.5915 84.2655 78.5995 84.2095 78.5995C84.0335 78.5995 83.9615 78.4795 83.9615 78.2475V76.8875C83.9615 75.8475 83.3375 75.3115 82.2815 75.3115C81.3535 75.3115 80.7455 75.7755 80.4655 76.4395L81.4015 76.8315C81.5535 76.5355 81.8015 76.3035 82.1375 76.3035C82.4575 76.3035 82.6655 76.5195 82.6655 76.8395V77.0075L81.8335 77.1435C80.8735 77.3115 80.3215 77.7835 80.3215 78.4635C80.3215 79.1035 80.8175 79.5515 81.5135 79.5515C82.0655 79.5515 82.5055 79.2715 82.7775 78.8875C82.9855 79.3675 83.3935 79.5515 83.8735 79.5515C84.0575 79.5515 84.2335 79.5195 84.3695 79.4715ZM82.0655 78.6315C81.8095 78.6315 81.6415 78.4715 81.6415 78.2555C81.6415 77.9995 81.8575 77.8395 82.1855 77.7835L82.6655 77.7035V78.3435C82.5135 78.5115 82.2975 78.6315 82.0655 78.6315ZM88.7449 79.4315V76.8635C88.7449 75.9675 88.1689 75.3115 87.4169 75.3115C86.9129 75.3115 86.4809 75.5835 86.2089 76.0075V75.4315H84.9449V79.4315H86.2649V76.6555C86.4169 76.5035 86.6569 76.3835 86.8969 76.3835C87.2169 76.3835 87.4249 76.6155 87.4249 76.9835V79.4315H88.7449ZM93.3855 79.4315V76.8635C93.3855 75.9675 92.8095 75.3115 92.0575 75.3115C91.5535 75.3115 91.1215 75.5835 90.8495 76.0075V75.4315H89.5855V79.4315H90.9055V76.6555C91.0575 76.5035 91.2975 76.3835 91.5375 76.3835C91.8575 76.3835 92.0655 76.6155 92.0655 76.9835V79.4315H93.3855ZM98.0101 79.4715L98.0661 78.5835C98.0021 78.5915 97.9061 78.5995 97.8501 78.5995C97.6741 78.5995 97.6021 78.4795 97.6021 78.2475V76.8875C97.6021 75.8475 96.9781 75.3115 95.9221 75.3115C94.9941 75.3115 94.3861 75.7755 94.1061 76.4395L95.0421 76.8315C95.1941 76.5355 95.4421 76.3035 95.7781 76.3035C96.0981 76.3035 96.3061 76.5195 96.3061 76.8395V77.0075L95.4741 77.1435C94.5141 77.3115 93.9621 77.7835 93.9621 78.4635C93.9621 79.1035 94.4581 79.5515 95.1541 79.5515C95.7061 79.5515 96.1461 79.2715 96.4181 78.8875C96.6261 79.3675 97.0341 79.5515 97.5141 79.5515C97.6981 79.5515 97.8741 79.5195 98.0101 79.4715ZM95.7061 78.6315C95.4501 78.6315 95.2821 78.4715 95.2821 78.2555C95.2821 77.9995 95.4981 77.8395 95.8261 77.7835L96.3061 77.7035V78.3435C96.1541 78.5115 95.9381 78.6315 95.7061 78.6315ZM99.9055 79.4315V77.5195C99.9775 76.9035 100.282 76.5355 100.882 76.5355C100.994 76.5355 101.154 76.5595 101.266 76.5915V75.3755C101.154 75.3355 101.018 75.3115 100.866 75.3115C100.41 75.3115 100.018 75.7915 99.8495 76.3355V75.4315H98.5855V79.4315H99.9055ZM103.156 75.4315H101.836V79.4315H103.156V75.4315ZM103.156 73.9275H101.836V74.9515H103.156V73.9275ZM107.839 79.4315V76.8635C107.839 75.9675 107.263 75.3115 106.511 75.3115C106.007 75.3115 105.575 75.5835 105.303 76.0075V75.4315H104.039V79.4315H105.359V76.6555C105.511 76.5035 105.751 76.3835 105.991 76.3835C106.311 76.3835 106.519 76.6155 106.519 76.9835V79.4315H107.839ZM112.719 77.4315C112.719 76.2075 111.823 75.3115 110.591 75.3115C109.343 75.3115 108.439 76.2075 108.439 77.4315C108.439 78.6555 109.343 79.5435 110.591 79.5435C111.823 79.5435 112.719 78.6555 112.719 77.4315ZM109.815 77.4315C109.815 76.8075 110.143 76.3515 110.591 76.3515C111.031 76.3515 111.343 76.8075 111.343 77.4315C111.343 78.0555 111.031 78.5035 110.591 78.5035C110.143 78.5035 109.815 78.0555 109.815 77.4315ZM114.207 79.2555V78.3675H113.407V79.3835H113.783C113.783 79.7915 113.647 80.0955 113.343 80.4235L113.623 80.6875C114.015 80.2875 114.207 79.8075 114.207 79.2555ZM118.352 75.1675L116.84 75.7995L117.04 76.3435L118.192 75.8955V78.8715H116.936V79.4315H119.96V78.8715H118.872V75.1675H118.352ZM124.162 78.1995C124.162 77.6155 123.73 77.2715 123.162 77.1755V77.1595C123.674 77.0155 124.01 76.6315 124.01 76.1915C124.01 75.5595 123.322 75.0635 122.354 75.0635C121.53 75.0635 120.85 75.4555 120.506 76.0475L121.026 76.3355C121.29 75.8555 121.802 75.6315 122.306 75.6315C122.882 75.6315 123.29 75.8955 123.29 76.2875C123.29 76.7195 122.794 77.0075 122.13 77.0075H121.466V77.5675H122.146C123.05 77.5675 123.45 77.7835 123.45 78.1995C123.45 78.6395 122.986 78.9675 122.298 78.9675C121.682 78.9675 121.162 78.7035 120.93 78.2715L120.394 78.5515C120.746 79.2235 121.506 79.5355 122.322 79.5355C123.418 79.5355 124.162 78.9595 124.162 78.1995ZM130.004 78.3435C130.004 77.6075 129.38 77.3035 128.484 77.1115C127.812 76.9595 127.428 76.8395 127.428 76.4875C127.428 76.1515 127.804 75.9195 128.332 75.9195C128.884 75.9195 129.252 76.1515 129.436 76.5355L129.98 76.3195C129.748 75.8315 129.26 75.3595 128.34 75.3595C127.404 75.3595 126.764 75.8555 126.764 76.5275C126.764 77.2155 127.412 77.5355 128.292 77.7195C128.972 77.8635 129.348 77.9995 129.348 78.3755C129.348 78.7355 129.012 78.9835 128.428 78.9835C127.764 78.9835 127.34 78.6875 127.14 78.2955L126.58 78.5115C126.852 79.1355 127.492 79.5355 128.396 79.5355C129.404 79.5355 130.004 79.0475 130.004 78.3435ZM134.117 78.5275L133.573 78.3195C133.365 78.7275 132.981 78.9755 132.549 78.9755C131.885 78.9755 131.405 78.4235 131.357 77.5915H134.109C134.133 77.4875 134.149 77.2715 134.149 77.0955C134.149 76.0795 133.453 75.3595 132.485 75.3595C131.429 75.3595 130.645 76.2555 130.645 77.4795C130.645 78.6795 131.429 79.5355 132.509 79.5355C133.221 79.5355 133.837 79.1595 134.117 78.5275ZM132.493 75.9115C133.053 75.9115 133.445 76.3595 133.469 77.0475H131.397C131.517 76.3595 131.941 75.9115 132.493 75.9115ZM137.322 79.4075V78.8395C137.154 78.9035 136.874 78.9515 136.626 78.9515C136.122 78.9515 135.922 78.7035 135.922 78.3275V76.0235H137.298V75.4635H135.922V74.4955H135.242V75.4635H134.658V76.0235H135.242V78.4395C135.242 79.1355 135.714 79.5355 136.506 79.5355C136.802 79.5355 137.146 79.4715 137.322 79.4075ZM140.338 79.4075V78.8395C140.17 78.9035 139.89 78.9515 139.642 78.9515C139.138 78.9515 138.938 78.7035 138.938 78.3275V76.0235H140.314V75.4635H138.938V74.4955H138.258V75.4635H137.674V76.0235H138.258V78.4395C138.258 79.1355 138.73 79.5355 139.522 79.5355C139.818 79.5355 140.162 79.4715 140.338 79.4075ZM144.242 78.5275L143.698 78.3195C143.49 78.7275 143.106 78.9755 142.674 78.9755C142.01 78.9755 141.53 78.4235 141.482 77.5915H144.234C144.258 77.4875 144.274 77.2715 144.274 77.0955C144.274 76.0795 143.578 75.3595 142.61 75.3595C141.554 75.3595 140.77 76.2555 140.77 77.4795C140.77 78.6795 141.554 79.5355 142.634 79.5355C143.346 79.5355 143.962 79.1595 144.242 78.5275ZM142.618 75.9115C143.178 75.9115 143.57 76.3595 143.594 77.0475H141.522C141.642 76.3595 142.066 75.9115 142.618 75.9115ZM150.798 79.4315V76.8075C150.798 75.9595 150.222 75.3595 149.478 75.3595C148.95 75.3595 148.486 75.6795 148.206 76.1035C147.99 75.6475 147.574 75.3595 147.086 75.3595C146.558 75.3595 146.118 75.6955 145.886 76.0715V75.4635H145.23V79.4315H145.91V76.5355C146.134 76.1995 146.518 75.9355 146.91 75.9355C147.35 75.9355 147.67 76.3035 147.67 76.8555V79.4315H148.35V76.8075C148.35 76.6875 148.342 76.5755 148.318 76.4635C148.558 76.1595 148.942 75.9355 149.326 75.9355C149.782 75.9355 150.118 76.3035 150.118 76.8555V79.4315H150.798ZM155.596 77.4315C155.596 76.2315 154.884 75.3595 153.908 75.3595C153.452 75.3595 152.948 75.6155 152.652 75.9915V73.7995H151.972V79.4315H152.612V78.9515C152.916 79.2955 153.412 79.5355 153.844 79.5355C154.86 79.5355 155.596 78.6555 155.596 77.4315ZM153.684 78.9675C153.268 78.9675 152.868 78.7515 152.652 78.4555V76.4795C152.868 76.1515 153.292 75.9355 153.724 75.9355C154.388 75.9355 154.876 76.5595 154.876 77.4235C154.876 78.3115 154.372 78.9675 153.684 78.9675ZM157.223 79.4315V77.0635C157.287 76.5355 157.607 76.0395 158.223 76.0395C158.359 76.0395 158.551 76.0635 158.663 76.0955V75.4235C158.583 75.3915 158.391 75.3595 158.255 75.3595C157.791 75.3595 157.359 75.7675 157.199 76.2715V75.4635H156.543V79.4315H157.223ZM162.516 78.5275L161.972 78.3195C161.764 78.7275 161.38 78.9755 160.948 78.9755C160.284 78.9755 159.804 78.4235 159.756 77.5915H162.508C162.532 77.4875 162.548 77.2715 162.548 77.0955C162.548 76.0795 161.852 75.3595 160.884 75.3595C159.828 75.3595 159.044 76.2555 159.044 77.4795C159.044 78.6795 159.828 79.5355 160.908 79.5355C161.62 79.5355 162.236 79.1595 162.516 78.5275ZM160.892 75.9115C161.452 75.9115 161.844 76.3595 161.868 77.0475H159.796C159.916 76.3595 160.34 75.9115 160.892 75.9115ZM168.771 79.4315V78.8315H166.075L167.235 77.9995C167.763 77.6155 168.443 77.0795 168.443 76.3435C168.443 75.6155 167.739 75.0715 166.867 75.0715C166.059 75.0715 165.355 75.5355 165.059 76.2235L165.603 76.4715C165.795 75.9835 166.267 75.6475 166.795 75.6475C167.299 75.6475 167.723 75.9595 167.723 76.3995C167.723 76.8235 167.355 77.1355 166.899 77.4875L165.083 78.8715V79.4315H168.771ZM169.396 77.2955C169.396 78.5915 170.228 79.5355 171.372 79.5355C172.516 79.5355 173.348 78.5915 173.348 77.2955C173.348 76.0075 172.516 75.0715 171.372 75.0715C170.228 75.0715 169.396 76.0075 169.396 77.2955ZM170.116 77.2955C170.116 76.3435 170.644 75.6395 171.372 75.6395C172.1 75.6395 172.628 76.3435 172.628 77.2955C172.628 78.2635 172.1 78.9675 171.372 78.9675C170.644 78.9675 170.116 78.2635 170.116 77.2955ZM177.748 79.4315V78.8315H175.052L176.212 77.9995C176.74 77.6155 177.42 77.0795 177.42 76.3435C177.42 75.6155 176.716 75.0715 175.844 75.0715C175.036 75.0715 174.332 75.5355 174.036 76.2235L174.58 76.4715C174.772 75.9835 175.244 75.6475 175.772 75.6475C176.276 75.6475 176.7 75.9595 176.7 76.3995C176.7 76.8235 176.332 77.1355 175.876 77.4875L174.06 78.8715V79.4315H177.748ZM179.829 75.1675L178.317 75.7995L178.517 76.3435L179.669 75.8955V78.8715H178.413V79.4315H181.437V78.8715H180.349V75.1675H179.829Z" fill="black"/>
</svg>
