<svg width="142" height="88" viewBox="0 0 142 88" fill="none" xmlns="http://www.w3.org/2000/svg">
<path d="M0.714111 33.089C0.714111 51.189 15.3141 65.789 33.4141 65.789C51.5141 65.789 66.1141 51.189 66.1141 33.089V0.389038H0.714111V33.089Z" fill="white"/>
<path d="M108.356 65.789C126.456 65.789 141.056 51.189 141.056 33.089C141.056 14.989 126.456 0.389038 108.356 0.389038H75.6565V65.789H108.356Z" fill="white"/>
<path d="M3.04154 86.5634C3.79795 86.9707 4.67072 87.1452 5.65987 87.1452C6.64901 87.1452 7.52179 86.9707 8.2782 86.5634C9.0346 86.1561 9.61645 85.6324 10.0237 84.9342C10.431 84.236 10.6056 83.4796 10.6056 82.6068V74.2281H9.09279V82.4904C9.09279 83.1305 8.97641 83.6541 8.68549 84.1196C8.39456 84.5851 8.04545 84.9924 7.52179 85.2251C6.99812 85.5161 6.41628 85.6324 5.71806 85.6324C5.01984 85.6324 4.3798 85.5161 3.91432 85.2251C3.39065 84.9342 3.04154 84.5851 2.75061 84.1196C2.45969 83.6541 2.34332 83.0723 2.34332 82.4904V74.2281H0.830505V82.6068C0.830505 83.4796 1.00506 84.236 1.41236 84.9342C1.70328 85.6906 2.28513 86.2143 3.04154 86.5634Z" fill="white"/>
<path d="M23.6972 74.2281H22.1844V84.236H22.0681L15.144 74.2281H13.6312V86.9707H15.2022V76.9628H15.3186L22.2426 86.9707H23.6972V74.2281Z" fill="white"/>
<path d="M28.2938 74.2281H26.781V86.9125H28.2938V74.2281Z" fill="white"/>
<path d="M37.6034 81.7341C37.778 81.6759 37.9525 81.6177 38.1271 81.5013C38.7671 81.1522 39.2326 80.7449 39.5235 80.1631C39.8145 79.5812 39.989 78.9412 39.989 78.1848C39.989 77.4284 39.8145 76.7883 39.5235 76.2065C39.2326 75.6246 38.7671 75.1592 38.1271 74.81C37.4871 74.4609 36.6725 74.2864 35.6833 74.2864H31.3776V86.9707H32.8904V82.025H35.6833C35.7997 82.025 35.9161 82.025 35.9742 82.025L38.6508 86.9707H40.4545L37.6034 81.7341ZM32.9486 75.6246H35.6251C36.3234 75.6246 36.847 75.741 37.2543 75.9156C37.6616 76.1483 37.9525 76.4392 38.1853 76.7883C38.3598 77.1956 38.4762 77.6029 38.4762 78.1266C38.4762 78.6503 38.3598 79.0576 38.1853 79.4648C38.0107 79.814 37.7198 80.1049 37.2543 80.3376C36.847 80.5122 36.2652 80.6285 35.6251 80.6285H32.8904V75.6246H32.9486Z" fill="white"/>
<path d="M49.8805 80.9776C49.5314 80.6867 49.1241 80.5122 48.7168 80.3376C48.3095 80.1631 47.9604 80.0467 47.6113 79.9885L46.3312 79.6394C46.0985 79.5812 45.8657 79.523 45.5748 79.4067C45.2839 79.2903 45.0511 79.1739 44.7602 78.9994C44.4693 78.8248 44.2947 78.6502 44.1202 78.4175C43.9456 78.1848 43.8874 77.8938 43.8874 77.5447C43.8874 77.1374 44.0038 76.7883 44.2365 76.4392C44.4693 76.0901 44.8184 75.8574 45.2257 75.6828C45.633 75.5083 46.1567 75.3919 46.6803 75.3919C47.4367 75.3919 48.0768 75.5664 48.6004 75.9155C49.1241 76.2647 49.415 76.7301 49.5314 77.3702H51.0442C51.0442 76.7301 50.8115 76.1483 50.4623 75.6246C50.1132 75.101 49.5896 74.7518 48.9495 74.4027C48.3095 74.0536 47.6113 73.9373 46.7385 73.9373C45.9239 73.9373 45.1675 74.1118 44.5275 74.4027C43.8874 74.6937 43.3638 75.101 42.9565 75.6246C42.5492 76.1483 42.3746 76.7883 42.3746 77.4865C42.3746 78.3593 42.6656 79.0575 43.2474 79.5812C43.8293 80.1049 44.5857 80.5122 45.5748 80.8031L47.1458 81.2686C47.6113 81.3849 48.0186 81.5595 48.3677 81.6759C48.775 81.8504 49.0659 82.0832 49.2986 82.3159C49.5314 82.6068 49.6478 82.8978 49.6478 83.3632C49.6478 83.8287 49.5314 84.236 49.2405 84.5851C48.9495 84.9342 48.6004 85.2252 48.1349 85.3997C47.6695 85.5743 47.1458 85.6906 46.5639 85.6906C46.0403 85.6906 45.5748 85.6325 45.1675 85.4579C44.7602 85.2833 44.3529 85.0506 44.062 84.7597C43.7711 84.4688 43.5965 84.0615 43.5965 83.596H42.0255C42.0837 84.2942 42.3164 84.876 42.6656 85.3997C43.0147 85.9234 43.5383 86.3307 44.2365 86.6216C44.9348 86.9125 45.6912 87.0871 46.6221 87.0871C47.6113 87.0871 48.4259 86.9125 49.1241 86.6216C49.8223 86.2725 50.346 85.8652 50.6951 85.2833C51.0442 84.7015 51.2188 84.1196 51.2188 83.4214C51.2188 82.8396 51.1024 82.3159 50.8696 81.9086C50.6369 81.5013 50.2296 81.2686 49.8805 80.9776Z" fill="white"/>
<path d="M64.3104 74.2281L60.0047 84.8178H59.8301L55.5245 74.2281H53.6625V86.9707H55.1172V77.312H55.2335L59.1901 86.9707H60.5866L64.5431 77.312H64.7177V86.9707H66.1141V74.2281H64.3104Z" fill="white"/>
<path d="M82.5371 74.8682C81.6643 74.3446 80.617 74.1118 79.3951 74.1118H75.3221V86.7962H79.2205C80.5006 86.7962 81.6061 86.5634 82.4789 86.0398C83.3517 85.5161 84.0499 84.8179 84.5154 83.8287C84.9809 82.8396 85.2136 81.7341 85.2136 80.3958C85.2136 79.0575 84.9809 77.952 84.5154 77.0211C84.0499 76.0901 83.4099 75.3337 82.5371 74.8682ZM83.2935 83.0723C82.9444 83.8287 82.4207 84.4106 81.7225 84.8179C81.0243 85.2252 80.1515 85.3997 79.1042 85.3997H76.835V75.4501H79.2787C80.2679 75.4501 81.0825 75.6246 81.7807 76.0319C82.4789 76.4392 82.9444 77.0211 83.2935 77.7193C83.6426 78.4757 83.8172 79.3485 83.8172 80.3958C83.759 81.4431 83.6426 82.3159 83.2935 83.0723Z" fill="white"/>
<path d="M89.4029 81.094H95.105V79.7557H89.4029V75.45H95.5123V74.0536H87.8319V86.7961H95.6287V85.3997H89.4029V81.094Z" fill="white"/>
<path d="M105.578 80.8031C105.229 80.5122 104.822 80.3376 104.415 80.1631C104.007 79.9885 103.658 79.8721 103.309 79.8139L102.029 79.4648C101.796 79.4066 101.564 79.3485 101.273 79.2321C100.982 79.1157 100.749 78.9994 100.458 78.8248C100.167 78.6502 99.9926 78.4757 99.8181 78.2429C99.6435 78.0102 99.5853 77.7193 99.5853 77.3702C99.5853 76.9629 99.7017 76.6138 99.9344 76.2647C100.167 75.9155 100.516 75.6828 100.924 75.5082C101.331 75.3337 101.855 75.2173 102.378 75.2173C103.135 75.2173 103.775 75.3919 104.298 75.741C104.822 76.0901 105.113 76.5556 105.229 77.1956H106.742C106.742 76.5556 106.509 75.9737 106.16 75.4501C105.811 74.9264 105.287 74.5773 104.647 74.2282C104.007 73.8791 103.309 73.7627 102.436 73.7627C101.622 73.7627 100.865 73.9373 100.225 74.2282C99.5853 74.5191 99.0616 74.9264 98.6544 75.4501C98.2471 75.9737 98.0725 76.6138 98.0725 77.312C98.0725 78.1848 98.3634 78.883 98.9453 79.4066C99.5271 79.9303 100.284 80.3376 101.273 80.6285L102.844 81.094C103.309 81.2104 103.716 81.3849 104.066 81.5013C104.473 81.6759 104.764 81.9086 104.997 82.1413C105.229 82.4323 105.346 82.7232 105.346 83.1887C105.346 83.6542 105.229 84.0615 104.938 84.4106C104.647 84.7597 104.298 85.0506 103.833 85.2252C103.367 85.3997 102.844 85.5161 102.262 85.5161C101.738 85.5161 101.273 85.4579 100.865 85.2833C100.458 85.1088 100.051 84.876 99.7599 84.5851C99.4689 84.2942 99.2944 83.8869 99.2944 83.4214H97.7234C97.7816 84.1196 98.0143 84.7015 98.3634 85.2252C98.7125 85.7488 99.2362 86.1561 99.9344 86.447C100.633 86.738 101.389 86.9125 102.32 86.9125C103.309 86.9125 104.124 86.738 104.822 86.447C105.52 86.0979 106.044 85.6906 106.393 85.1088C106.742 84.5269 106.917 83.9451 106.917 83.2469C106.917 82.665 106.8 82.1413 106.568 81.734C106.335 81.3268 105.986 81.094 105.578 80.8031Z" fill="white"/>
<path d="M110.931 74.0536H109.419V86.7379H110.931V74.0536Z" fill="white"/>
<path d="M119.543 81.7922H122.859C122.859 82.5486 122.685 83.1886 122.394 83.7123C122.103 84.2941 121.637 84.7014 121.114 85.0505C120.59 85.3996 119.892 85.516 119.194 85.516C118.437 85.516 117.681 85.3414 117.099 84.9342C116.459 84.5269 115.994 83.945 115.586 83.1886C115.179 82.4322 115.063 81.5012 115.063 80.3957C115.063 79.2902 115.237 78.3592 115.586 77.6028C115.935 76.8464 116.459 76.2646 117.041 75.8573C117.681 75.45 118.321 75.2754 119.077 75.2754C119.543 75.2754 119.95 75.3336 120.357 75.45C120.765 75.5664 121.114 75.7409 121.405 75.9736C121.696 76.2064 121.987 76.4973 122.219 76.8464C122.452 77.1955 122.627 77.5446 122.743 77.9519H124.314C124.198 77.3119 123.965 76.7882 123.674 76.2646C123.383 75.7409 122.976 75.3336 122.51 74.9845C122.045 74.6354 121.521 74.3445 120.939 74.1117C120.357 73.9372 119.717 73.8208 119.077 73.8208C118.263 73.8208 117.506 73.9954 116.866 74.2863C116.226 74.5772 115.586 75.0427 115.121 75.5664C114.655 76.09 114.248 76.8464 113.957 77.6028C113.666 78.4174 113.55 79.2902 113.55 80.3375C113.55 81.6758 113.782 82.8395 114.248 83.8286C114.713 84.8178 115.353 85.5742 116.226 86.0979C117.099 86.6215 118.088 86.9124 119.194 86.9124C120.183 86.9124 121.114 86.6797 121.87 86.2724C122.627 85.8651 123.267 85.2251 123.732 84.4687C124.198 83.7123 124.372 82.7813 124.372 81.734V80.3957H119.543V81.7922V81.7922Z" fill="white"/>
<path d="M135.544 84.0614H135.427L128.503 74.0536H126.99V86.7961H128.561V76.7883H128.678L135.602 86.7961H137.056V74.0536H135.544V84.0614Z" fill="white"/>
</svg>
