<svg width="291" height="489" viewBox="0 0 291 489" fill="none" xmlns="http://www.w3.org/2000/svg">
<path fill-rule="evenodd" clip-rule="evenodd" d="M11.9485 0.489868L279.021 0.48988L278.902 0.608951L290.626 12.3328V305.353L280.25 315.729L290.626 327.806V474.962L279.028 488.462H11.9505L0.229323 474.819L0.111328 474.956L0.111335 327.812L0.229323 327.949L10.7234 315.734L0.226337 305.237L0.111328 305.352L0.111341 12.3328L0.22773 12.4492L12.0678 0.60911L11.9485 0.489868Z" fill="#FF6318"/>
<path d="M17.7038 148.847L10.627 141.77V106.386L17.7038 99.3091H38.9343V106.386H17.7038V141.77H38.9343V148.847H17.7038ZM51.3188 148.847L44.242 141.77V99.3091H51.3188V141.77H72.5493V148.847H51.3188ZM99.0875 120.54V106.386H84.9338V120.54H99.0875ZM77.857 148.847V106.386L84.9338 99.3091H99.0875L106.164 106.386V148.847H99.0875V127.617H84.9338V148.847H77.857ZM111.472 148.847V141.77H132.703V127.617H118.549L111.472 120.54V106.386L118.549 99.3091H139.779V106.386H118.549V120.54H132.703L139.779 127.617V141.77L132.703 148.847H111.472ZM145.087 148.847V141.77H166.318V127.617H152.164L145.087 120.54V106.386L152.164 99.3091H173.394V106.386H152.164V120.54H166.318L173.394 127.617V141.77L166.318 148.847H145.087ZM178.702 148.847V141.77H189.317V106.386H178.702V99.3091H207.009V106.386H196.394V141.77H207.009V148.847H178.702ZM219.394 148.847L212.317 141.77V106.386L219.394 99.3091H240.624V106.386H219.394V141.77H240.624V148.847H219.394ZM267.163 120.54V106.386H253.009V120.54H267.163ZM245.932 148.847V106.386L253.009 99.3091H267.163L274.239 106.386V148.847H267.163V127.617H253.009V148.847H245.932Z" fill="black"/>
<path d="M21.2315 226.827L16.9854 222.581L16.9854 218.335H21.2315L21.2315 222.581L29.7237 222.581L29.7237 214.089L25.4776 214.089L25.4776 209.843L29.7237 209.843L29.7237 201.351L21.2315 201.351L21.2315 205.597H16.9854L16.9854 201.351L21.2315 197.105L29.7237 197.105L33.9698 201.351L33.9698 209.843L31.8467 211.966L33.9698 214.089L33.9698 222.581L29.7237 226.827L21.2315 226.827ZM49.8927 209.843L49.8927 201.351L41.4005 209.843L49.8927 209.843ZM49.8927 226.827L49.8927 214.089L37.1544 214.089V209.843L49.8927 197.105H54.1388L54.1388 226.827H49.8927ZM57.3234 226.827L57.3234 222.581L61.5695 222.581L61.5695 226.827L57.3234 226.827ZM64.754 226.827L64.754 218.335L77.4924 205.597V201.351L69.0002 201.351V205.597H64.754V201.351L69.0002 197.105L77.4924 197.105L81.7385 201.351V205.597L69.0002 218.335V222.581L81.7385 222.581L81.7385 226.827L64.754 226.827ZM84.923 226.827L84.923 218.335L97.6614 205.597V201.351L84.923 201.351L84.923 197.105L101.907 197.105L101.907 205.597L89.1692 218.335L89.1692 226.827H84.923ZM117.83 222.581L117.83 214.089H109.338L109.338 222.581H117.83ZM117.83 209.843L117.83 201.351H109.338L109.338 209.843H117.83ZM109.338 226.827L105.092 222.581L105.092 214.089L107.215 211.966L105.092 209.843L105.092 201.351L109.338 197.105H117.83L122.076 201.351L122.076 209.843L119.953 211.966L122.076 214.089L122.076 222.581L117.83 226.827H109.338Z" fill="black"/>
<path d="M20.6494 185.618L20.6494 177.126H18.5264L18.5264 175.71H24.1878L24.1878 177.126H22.0648L22.0648 185.618H20.6494ZM29.4955 184.203L29.4955 177.126L26.6647 177.126L26.6647 184.203L29.4955 184.203ZM26.6647 185.618L25.2494 184.203L25.2494 177.126L26.6647 175.71L29.4955 175.71L30.9108 177.126L30.9108 184.203L29.4955 185.618L26.6647 185.618ZM34.0954 185.618L34.0954 177.126H31.9724V175.71H37.6338V177.126H35.5108L35.5108 185.618H34.0954ZM42.9415 179.957L42.9415 177.126H40.1107L40.1107 179.957H42.9415ZM38.6954 185.618L38.6954 177.126L40.1107 175.71H42.9415L44.3568 177.126L44.3568 185.618H42.9415V181.372H40.1107V185.618H38.6954ZM46.8337 185.618L45.4184 184.203L45.4184 175.71H46.8337L46.8337 184.203H51.0799V185.618H46.8337ZM53.5567 185.618L52.1414 184.203L52.1414 181.372L52.8491 180.664L52.1414 179.957L52.1414 177.126L53.5567 175.71H57.8029V177.126H53.5567L53.5567 179.957H56.3875V181.372H53.5567L53.5567 184.203H57.8029V185.618H53.5567ZM64.172 185.618L62.7566 184.203L62.7566 181.372L63.4643 180.664L62.7566 179.957L62.7566 177.126L64.172 175.71H68.4181V177.126H64.172V179.957H67.0027V181.372H64.172L64.172 184.203H68.4181V185.618H64.172ZM72.3104 185.618L69.4796 182.787L69.4796 175.71H70.895L70.895 182.787L72.3104 184.203L73.7258 182.787L73.7258 175.71H75.1411L75.1411 182.787L72.3104 185.618ZM77.618 185.618L76.2026 184.203L76.2026 181.372L76.9103 180.664L76.2026 179.957V177.126L77.618 175.71H81.8641V177.126H77.618V179.957H80.4488V181.372H77.618L77.618 184.203H81.8641V185.618H77.618ZM82.9257 185.618L82.9257 177.126L84.341 175.71H85.7564L87.1718 177.126L87.1718 184.203H88.5871L88.5871 175.71H90.0025L90.0025 184.203L88.5871 185.618H87.1718L85.7564 184.203L85.7564 177.126H84.341L84.341 185.618H82.9257ZM93.1871 185.618L93.1871 177.126L91.064 177.126V175.71L96.7255 175.71V177.126H94.6024L94.6024 185.618L93.1871 185.618ZM97.787 185.618V184.203H99.9101L99.9101 177.126H97.787V175.71H103.448V177.126H101.325L101.325 184.203H103.448V185.618H97.787Z" fill="black"/>
<path d="M27.642 345.207L27.642 342.376H24.8112L24.8112 345.207H27.642ZM23.3959 350.868L23.3959 342.376L24.8112 340.961H27.642L29.0573 342.376L29.0573 350.868H27.642L27.642 346.622H24.8112L24.8112 350.868H23.3959ZM30.1189 350.868L30.1189 342.376L31.5342 340.961L32.9496 340.961L34.365 342.376L34.365 349.453H35.7803L35.7803 340.961H37.1957L37.1957 349.453L35.7803 350.868H34.365L32.9496 349.453L32.9496 342.376L31.5342 342.376L31.5342 350.868H30.1189ZM42.5033 349.453L42.5033 342.376H39.6726L39.6726 349.453H42.5033ZM38.2572 350.868L38.2572 340.961H42.5033L43.9187 342.376L43.9187 349.453L42.5033 350.868H38.2572ZM49.2263 345.207L49.2263 342.376H46.3956L46.3956 345.207H49.2263ZM44.9802 350.868L44.9802 342.376L46.3956 340.961H49.2263L50.6417 342.376L50.6417 350.868H49.2263L49.2263 346.622H46.3956V350.868H44.9802ZM51.7032 350.868L51.7032 342.376L53.1186 340.961H54.534L55.2417 341.668L55.9493 340.961H57.3647L58.7801 342.376L58.7801 350.868H57.3647L57.3647 342.376H55.9493L55.9493 348.038H54.534L54.534 342.376H53.1186L53.1186 350.868H51.7032ZM61.257 350.868L59.8416 349.453L59.8416 346.622L60.5493 345.914L59.8416 345.207L59.8416 342.376L61.257 340.961L65.5031 340.961V342.376L61.257 342.376L61.257 345.207H64.0877V346.622H61.257L61.257 349.453L65.5031 349.453V350.868L61.257 350.868ZM66.5646 350.868L66.5646 342.376L67.98 340.961H69.3953L70.8107 342.376L70.8107 349.453H72.2261L72.2261 340.961H73.6414L73.6414 349.453L72.2261 350.868H70.8107L69.3953 349.453L69.3953 342.376H67.98L67.98 350.868H66.5646ZM76.826 350.868L76.826 342.376H74.703V340.961H80.3645V342.376H78.2414L78.2414 350.868H76.826ZM85.6721 349.453L85.6721 342.376H82.8413L82.8413 349.453H85.6721ZM82.8413 350.868L81.426 349.453L81.426 342.376L82.8413 340.961H85.6721L87.0875 342.376L87.0875 349.453L85.6721 350.868H82.8413ZM233.578 350.868L232.163 349.453L232.163 346.622L232.87 345.914L232.163 345.207V342.376L233.578 340.961H237.824V342.376H233.578V345.207H236.409V346.622H233.578L233.578 349.453H237.824V350.868H233.578ZM241.716 350.868L238.886 348.038V340.961H240.301V348.038L241.716 349.453L243.132 348.038V340.961H244.547V348.038L241.716 350.868ZM247.024 350.868L245.609 349.453L245.609 346.622L246.316 345.914L245.609 345.207V342.376L247.024 340.961H251.27V342.376H247.024V345.207H249.855V346.622H247.024L247.024 349.453H251.27V350.868H247.024ZM252.332 350.868L252.332 342.376L253.747 340.961H255.162L256.578 342.376V349.453H257.993V340.961H259.409V349.453L257.993 350.868H256.578L255.162 349.453L255.162 342.376H253.747L253.747 350.868H252.332ZM262.593 350.868V342.376H260.47V340.961L266.132 340.961V342.376L264.009 342.376V350.868L262.593 350.868ZM267.193 350.868V349.453H269.316V342.376H267.193V340.961H272.855V342.376H270.732V349.453H272.855V350.868H267.193Z" fill="black"/>
<path d="M202.655 223.424L202.655 214.932L194.163 214.932L194.163 223.424L202.655 223.424ZM202.655 210.686V202.193L194.163 202.193V210.686L202.655 210.686ZM194.163 227.67L189.917 223.424L189.917 214.932L192.04 212.809L189.917 210.686V202.193L194.163 197.947L202.655 197.947L206.901 202.193V210.686L204.778 212.809L206.901 214.932L206.901 223.424L202.655 227.67L194.163 227.67ZM222.824 223.424L222.824 210.686L214.332 219.178V223.424H222.824ZM214.332 214.932L222.824 206.44V202.193L214.332 202.193V214.932ZM214.332 227.67L210.086 223.424L210.086 202.193L214.332 197.947H222.824L227.07 202.193L227.07 223.424L222.824 227.67H214.332ZM230.255 227.67L230.255 202.193L234.501 197.947H238.747L240.87 200.07L242.993 197.947H247.239L251.486 202.193L251.486 227.67H247.239L247.239 202.193H242.993L242.993 219.178H238.747L238.747 202.193H234.501L234.501 227.67L230.255 227.67Z" fill="black"/>
<path d="M194.569 185.618L194.569 177.126H192.446V175.71H198.108V177.126H195.985L195.985 185.618H194.569ZM203.415 184.203V177.126L200.585 177.126V184.203L203.415 184.203ZM200.585 185.618L199.169 184.203L199.169 177.126L200.585 175.71L203.415 175.71L204.831 177.126V184.203L203.415 185.618L200.585 185.618ZM208.015 185.618L208.015 177.126H205.892V175.71H211.554V177.126H209.431L209.431 185.618H208.015ZM216.861 179.957V177.126H214.031V179.957H216.861ZM212.615 185.618L212.615 177.126L214.031 175.71H216.861L218.277 177.126L218.277 185.618H216.861L216.861 181.372H214.031L214.031 185.618H212.615ZM220.754 185.618L219.338 184.203V175.71H220.754V184.203H225V185.618H220.754ZM227.477 185.618L226.061 184.203V181.372L226.769 180.664L226.061 179.957V177.126L227.477 175.71H231.723V177.126H227.477V179.957H230.307V181.372H227.477V184.203H231.723V185.618H227.477ZM236.677 185.618V184.203H240.923V181.372H238.092L236.677 179.957V177.126L238.092 175.71H242.338V177.126H238.092V179.957H240.923L242.338 181.372V184.203L240.923 185.618H236.677ZM247.646 179.957V177.126H244.815V179.957H247.646ZM243.4 185.618V175.71H247.646L249.061 177.126V179.957L247.646 181.372H244.815V185.618H243.4ZM251.538 185.618L250.123 184.203V181.372L250.83 180.664L250.123 179.957V177.126L251.538 175.71H255.784V177.126H251.538V179.957H254.369V181.372H251.538V184.203H255.784V185.618H251.538ZM256.846 185.618V184.203H261.092V181.372H258.261L256.846 179.957V177.126L258.261 175.71H262.507V177.126H258.261V179.957H261.092L262.507 181.372V184.203L261.092 185.618H256.846ZM264.984 185.618L263.569 184.203V181.372L264.276 180.664L263.569 179.957V177.126L264.984 175.71L269.23 175.71V177.126L264.984 177.126V179.957L267.815 179.957V181.372L264.984 181.372V184.203L269.23 184.203V185.618L264.984 185.618Z" fill="black"/>
<path d="M21.0781 279.579L21.0781 276.749H18.2474L18.2474 279.579H21.0781ZM16.832 285.241L16.832 275.333H21.0781L22.4935 276.749L22.4935 279.579L21.0781 280.995H18.2474L18.2474 285.241H16.832ZM27.8011 279.579L27.8011 276.749H24.9704L24.9704 279.579H27.8011ZM23.555 285.241L23.555 276.749L24.9704 275.333H27.8011L29.2165 276.749L29.2165 285.241H27.8011L27.8011 280.995H24.9704L24.9704 285.241H23.555ZM31.6934 285.241L30.278 283.825L30.278 280.995L30.9857 280.287L30.278 279.579L30.278 276.749L31.6934 275.333L35.9395 275.333L35.9395 276.749L31.6934 276.749L31.6934 279.579L34.5241 279.579V280.995L31.6934 280.995L31.6934 283.825L35.9395 283.825V285.241L31.6934 285.241ZM37.001 285.241V283.825H41.2471L41.2471 280.995H38.4164L37.001 279.579L37.001 276.749L38.4164 275.333H42.6625L42.6625 276.749H38.4164L38.4164 279.579H41.2471L42.6625 280.995L42.6625 283.825L41.2471 285.241H37.001ZM45.1394 285.241L43.724 283.825L43.724 280.995L44.4317 280.287L43.724 279.579L43.724 276.749L45.1394 275.333H49.3855V276.749H45.1394L45.1394 279.579H47.9701V280.995H45.1394L45.1394 283.825H49.3855V285.241H45.1394ZM16.832 300.241L16.832 298.825H18.9551L18.9551 291.749H16.832V290.333H22.4935L22.4935 291.749H20.3705L20.3705 298.825H22.4935L22.4935 300.241H16.832ZM25.6781 300.241L25.6781 291.749H23.555L23.555 290.333H29.2165L29.2165 291.749H27.0935L27.0935 300.241H25.6781ZM34.5241 294.579L34.5241 291.749L31.6934 291.749L31.6934 294.579L34.5241 294.579ZM30.278 300.241L30.278 291.749L31.6934 290.333L34.5241 290.333L35.9395 291.749L35.9395 300.241H34.5241L34.5241 295.995L31.6934 295.995L31.6934 300.241H30.278ZM38.4164 300.241L37.001 298.825L37.001 290.333H38.4164L38.4164 298.825H42.6625L42.6625 300.241H38.4164ZM43.724 300.241L43.724 298.825H45.8471L45.8471 291.749H43.724V290.333H49.3855L49.3855 291.749H47.2625L47.2625 298.825H49.3855L49.3855 300.241H43.724ZM54.6931 294.579V291.749H51.8624V294.579H54.6931ZM50.447 300.241L50.447 291.749L51.8624 290.333H54.6931L56.1085 291.749L56.1085 300.241H54.6931L54.6931 295.995H51.8624L51.8624 300.241H50.447Z" fill="black"/>
<path d="M18.6224 76.9177L17.207 75.5024L17.207 68.4255L18.6224 67.0101L22.8685 67.0101L22.8685 68.4255L18.6224 68.4255L18.6224 75.5024H21.4531L21.4531 72.6716H20.0378L20.0378 71.2562L22.8685 71.2562L22.8685 75.5024L21.4531 76.9177H18.6224ZM25.3454 76.9177L23.93 75.5024L23.93 72.6716L24.6377 71.9639L23.93 71.2562L23.93 68.4255L25.3454 67.0101H29.5915V68.4255L25.3454 68.4255L25.3454 71.2562H28.1761L28.1761 72.6716H25.3454L25.3454 75.5024L29.5915 75.5024L29.5915 76.9177L25.3454 76.9177ZM30.653 76.9177L30.653 68.4255L32.0684 67.0101H33.4838L34.8991 68.4255L34.8991 75.5024H36.3145L36.3145 67.0101H37.7299L37.7299 75.5024L36.3145 76.9177H34.8991L33.4838 75.5024L33.4838 68.4255H32.0684L32.0684 76.9177H30.653ZM40.2068 76.9177L38.7914 75.5024V72.6716L39.4991 71.9639L38.7914 71.2562L38.7914 68.4255L40.2068 67.0101H44.4529V68.4255H40.2068L40.2068 71.2562H43.0375L43.0375 72.6716H40.2068V75.5024H44.4529V76.9177H40.2068ZM49.7605 71.2562L49.7605 68.4255H46.9298L46.9298 71.2562H49.7605ZM45.5144 76.9177L45.5144 67.0101L49.7605 67.0101L51.1759 68.4255L51.1759 71.2562L50.4682 71.9639L51.1759 72.6716L51.1759 76.9177H49.7605L49.7605 72.6716H46.9298V76.9177L45.5144 76.9177ZM53.6528 76.9177L52.2374 75.5024L52.2374 72.6716L52.9451 71.9639L52.2374 71.2562L52.2374 68.4255L53.6528 67.0101L57.8989 67.0101V68.4255L53.6528 68.4255L53.6528 71.2562L56.4835 71.2562V72.6716L53.6528 72.6716L53.6528 75.5024L57.8989 75.5024V76.9177L53.6528 76.9177ZM62.8527 76.9177L62.8527 68.4255L64.268 67.0101H65.6834L66.3911 67.7178L67.0988 67.0101H68.5142L69.9295 68.4255L69.9295 76.9177H68.5142L68.5142 68.4255H67.0988L67.0988 74.087H65.6834L65.6834 68.4255H64.268L64.268 76.9177H62.8527ZM72.4064 76.9177L70.991 75.5024L70.991 67.0101L72.4064 67.0101L72.4064 75.5024H75.2372L75.2372 67.0101H76.6525L76.6525 75.5024L75.2372 76.9177H72.4064ZM77.714 76.9177V75.5024L81.9602 75.5024V72.6716H79.1294L77.714 71.2562V68.4255L79.1294 67.0101L83.3755 67.0101V68.4255L79.1294 68.4255V71.2562H81.9602L83.3755 72.6716V75.5024L81.9602 76.9177L77.714 76.9177ZM84.437 76.9177V75.5024H86.5601L86.5601 68.4255H84.437V67.0101L90.0985 67.0101V68.4255H87.9755L87.9755 75.5024L90.0985 75.5024V76.9177L84.437 76.9177ZM92.5754 76.9177L91.16 75.5024L91.16 68.4255L92.5754 67.0101L96.8215 67.0101V68.4255L92.5754 68.4255L92.5754 75.5024L96.8215 75.5024V76.9177L92.5754 76.9177ZM102.129 71.2562L102.129 68.4255H99.2984L99.2984 71.2562H102.129ZM97.8831 76.9177L97.8831 68.4255L99.2984 67.0101H102.129L103.545 68.4255L103.545 76.9177H102.129V72.6716H99.2984V76.9177H97.8831ZM106.021 76.9177L104.606 75.5024L104.606 67.0101H106.021L106.021 75.5024H110.268V76.9177H106.021ZM112.744 76.9177L111.329 75.5024V72.6716L112.037 71.9639L111.329 71.2562L111.329 68.4255L112.744 67.0101H116.991V68.4255H112.744L112.744 71.2562H115.575V72.6716H112.744V75.5024H116.991V76.9177H112.744Z" fill="black"/>
<path d="M195.81 280.247L195.8 277.416L192.969 277.426L192.979 280.257L195.81 280.247ZM191.583 285.923L191.554 277.431L192.964 276.011L195.795 276.001L197.215 277.411L197.245 285.903L195.83 285.908L195.815 281.662L192.984 281.672L192.999 285.918L191.583 285.923ZM198.306 285.9L198.277 277.408L199.687 275.987L201.103 275.982L202.523 277.393L202.548 284.469L203.963 284.465L203.933 275.972L205.349 275.967L205.378 284.46L203.968 285.88L202.553 285.885L201.132 284.474L201.108 277.398L199.692 277.403L199.722 285.895L198.306 285.9ZM206.445 285.871L206.415 277.379L207.826 275.959L209.241 275.954L210.661 277.364L210.686 284.441L212.101 284.436L212.072 275.944L213.487 275.939L213.517 284.431L212.106 285.852L210.691 285.856L209.271 284.446L209.246 277.369L207.83 277.374L207.86 285.866L206.445 285.871ZM214.583 285.843L214.578 284.427L216.701 284.42L216.676 277.343L214.553 277.351L214.548 275.935L220.21 275.916L220.215 277.331L218.092 277.338L218.117 284.415L220.24 284.408L220.245 285.823L214.583 285.843ZM191.636 300.923L191.631 299.508L193.754 299.5L193.732 293.131L193.026 293.841L191.611 293.846L194.432 291.006L195.14 291.003L195.169 299.495L197.292 299.488L197.297 300.903L191.636 300.923ZM202.585 295.223L202.575 292.393L199.745 292.402L199.754 295.233L202.585 295.223ZM198.359 300.9L198.354 299.484L202.6 299.469L202.59 296.639L199.759 296.649L198.339 295.238L198.329 292.407L199.74 290.987L202.57 290.977L203.991 292.388L204.015 299.464L202.605 300.885L198.359 300.9ZM205.087 302.291L205.072 298.045L206.482 296.625L206.472 293.794L207.883 292.374L207.873 289.543L209.288 289.538L209.303 293.784L207.893 295.205L207.903 298.036L206.492 299.456L206.502 302.287L205.087 302.291ZM210.389 300.858L210.379 298.027L214.611 293.766L214.606 292.351L211.775 292.36L211.78 293.776L210.365 293.781L210.36 292.365L211.77 290.945L214.601 290.935L216.021 292.346L216.026 293.761L211.795 298.022L211.8 299.437L216.046 299.422L216.051 300.838L210.389 300.858ZM221.353 299.404L221.339 295.158L218.518 297.998L218.523 299.414L221.353 299.404ZM218.513 296.583L221.334 293.742L221.329 292.327L218.498 292.337L218.513 296.583ZM218.528 300.829L217.107 299.419L217.083 292.342L218.493 290.922L221.324 290.912L222.744 292.322L222.769 299.399L221.358 300.819L218.528 300.829ZM223.84 302.226L223.825 297.98L225.236 296.56L225.226 293.729L226.636 292.309L226.626 289.478L228.042 289.473L228.057 293.719L226.646 295.139L226.656 297.97L225.246 299.39L225.256 302.221L223.84 302.226ZM229.143 300.792L229.133 297.961L233.364 293.701L233.359 292.285L230.529 292.295L230.534 293.71L229.118 293.715L229.113 292.3L230.524 290.88L233.354 290.87L234.775 292.28L234.78 293.696L230.548 297.956L230.553 299.372L234.799 299.357L234.804 300.772L229.143 300.792ZM235.866 300.769L235.861 299.353L237.984 299.346L237.962 292.977L237.256 293.687L235.841 293.692L238.662 290.851L239.37 290.849L239.399 299.341L241.522 299.334L241.527 300.749L235.866 300.769Z" fill="black"/>
<path fill-rule="evenodd" clip-rule="evenodd" d="M290.18 41.3571H0.111328L0.11133 12.2872L0.228012 12.4036L12.0499 0.608663L11.9307 0.489746L278.595 0.489757L278.476 0.608532L290.18 12.2855V41.3571Z" fill="#422800"/>
<path d="M14.2503 28.5793L12.835 27.164L12.835 24.3332L13.5426 23.6256L12.835 22.9179L12.835 20.0871L14.2503 18.6718L18.4964 18.6718L18.4964 20.0871L14.2503 20.0871L14.2503 22.9179L17.0811 22.9179L17.0811 24.3332L14.2503 24.3332L14.2503 27.164L18.4964 27.164L18.4964 28.5793L14.2503 28.5793ZM19.558 28.5793L19.558 20.0871L20.9733 18.6718H22.3887L23.8041 20.0871L23.8041 27.164H25.2194L25.2194 18.6718L26.6348 18.6718L26.6348 27.164L25.2194 28.5793H23.8041L22.3887 27.164L22.3887 20.0871H20.9733L20.9733 28.5793L19.558 28.5793ZM29.8194 28.5793L29.8194 20.0871L27.6963 20.0871V18.6718L33.3578 18.6718L33.3578 20.0871L31.2348 20.0871L31.2348 28.5793L29.8194 28.5793ZM35.8347 28.5793L34.4193 27.164L34.4193 24.3332L35.127 23.6256L34.4193 22.9179V20.0871L35.8347 18.6718L40.0808 18.6718L40.0808 20.0871L35.8347 20.0871V22.9179L38.6654 22.9179V24.3332L35.8347 24.3332L35.8347 27.164L40.0808 27.164L40.0808 28.5793L35.8347 28.5793ZM45.3884 22.9179L45.3884 20.0871L42.5577 20.0871V22.9179L45.3884 22.9179ZM41.1423 28.5793L41.1423 18.6718L45.3884 18.6718L46.8038 20.0871L46.8038 22.9179L46.0961 23.6256L46.8038 24.3332L46.8038 28.5793H45.3884L45.3884 24.3332L42.5577 24.3332L42.5577 28.5793H41.1423ZM47.8653 28.5793V27.164L49.9884 27.164L49.9884 20.0871L47.8653 20.0871V18.6718L53.5268 18.6718V20.0871L51.4038 20.0871L51.4038 27.164L53.5268 27.164V28.5793L47.8653 28.5793ZM54.5883 28.5793L54.5883 20.0871L56.0037 18.6718L57.4191 18.6718L58.8344 20.0871L58.8344 27.164L60.2498 27.164L60.2498 18.6718L61.6652 18.6718L61.6652 27.164L60.2498 28.5793L58.8344 28.5793L57.4191 27.164L57.4191 20.0871L56.0037 20.0871L56.0037 28.5793L54.5883 28.5793ZM64.1421 28.5793L62.7267 27.164L62.7267 20.0871L64.1421 18.6718L68.3882 18.6718V20.0871L64.1421 20.0871L64.1421 27.164L66.9728 27.164L66.9728 24.3332H65.5574V22.9179L68.3882 22.9179L68.3882 27.164L66.9728 28.5793L64.1421 28.5793ZM77.5881 22.9179V20.0871L74.7573 20.0871L74.7573 22.9179L77.5881 22.9179ZM73.342 28.5793L73.342 18.6718L77.5881 18.6718L79.0035 20.0871V22.9179L77.5881 24.3332L74.7573 24.3332L74.7573 28.5793L73.342 28.5793ZM84.3111 22.9179V20.0871L81.4803 20.0871V22.9179L84.3111 22.9179ZM80.065 28.5793L80.065 20.0871L81.4803 18.6718L84.3111 18.6718L85.7265 20.0871L85.7265 28.5793L84.3111 28.5793L84.3111 24.3332L81.4803 24.3332L81.4803 28.5793L80.065 28.5793ZM86.788 28.5793V27.164L91.0341 27.164L91.0341 24.3332L88.2033 24.3332L86.788 22.9179V20.0871L88.2033 18.6718L92.4495 18.6718L92.4495 20.0871L88.2033 20.0871V22.9179L91.0341 22.9179L92.4495 24.3332L92.4495 27.164L91.0341 28.5793L86.788 28.5793ZM93.511 28.5793V27.164L97.7571 27.164L97.7571 24.3332L94.9264 24.3332L93.511 22.9179V20.0871L94.9264 18.6718L99.1725 18.6718L99.1725 20.0871L94.9264 20.0871V22.9179L97.7571 22.9179L99.1725 24.3332L99.1725 27.164L97.7571 28.5793L93.511 28.5793ZM104.126 29.9947L104.126 25.7486L105.542 24.3332V21.5025L106.957 20.0871L106.957 17.2564H108.372L108.372 21.5025L106.957 22.9179V25.7486L105.542 27.164V29.9947L104.126 29.9947ZM114.742 28.5793L113.326 27.164L113.326 20.0871L114.742 18.6718L118.988 18.6718L118.988 20.0871L114.742 20.0871L114.742 27.164L118.988 27.164V28.5793L114.742 28.5793ZM124.295 27.164L124.295 20.0871L121.465 20.0871L121.465 27.164L124.295 27.164ZM121.465 28.5793L120.049 27.164L120.049 20.0871L121.465 18.6718L124.295 18.6718L125.711 20.0871L125.711 27.164L124.295 28.5793L121.465 28.5793ZM126.772 28.5793L126.772 20.0871L128.188 18.6718H129.603L131.018 20.0871L131.018 27.164L132.434 27.164L132.434 18.6718H133.849L133.849 27.164L132.434 28.5793L131.018 28.5793L129.603 27.164L129.603 20.0871H128.188L128.188 28.5793L126.772 28.5793ZM136.326 28.5793L134.911 27.164L134.911 20.0871L136.326 18.6718L140.572 18.6718V20.0871L136.326 20.0871L136.326 27.164L140.572 27.164V28.5793L136.326 28.5793ZM143.049 28.5793L141.634 27.164V24.3332L142.341 23.6256L141.634 22.9179L141.634 20.0871L143.049 18.6718L147.295 18.6718V20.0871L143.049 20.0871L143.049 22.9179L145.88 22.9179V24.3332L143.049 24.3332V27.164L147.295 27.164V28.5793L143.049 28.5793ZM152.603 22.9179L152.603 20.0871L149.772 20.0871L149.772 22.9179L152.603 22.9179ZM148.357 28.5793L148.357 18.6718L152.603 18.6718L154.018 20.0871L154.018 22.9179L153.31 23.6256L154.018 24.3332V28.5793H152.603V24.3332L149.772 24.3332V28.5793H148.357ZM157.203 28.5793L157.203 20.0871L155.08 20.0871V18.6718L160.741 18.6718V20.0871L158.618 20.0871L158.618 28.5793H157.203ZM161.803 28.5793V27.164L163.926 27.164L163.926 20.0871L161.803 20.0871V18.6718L167.464 18.6718V20.0871L165.341 20.0871L165.341 27.164H167.464V28.5793L161.803 28.5793ZM172.418 29.9947V25.7486L173.833 24.3332L173.833 21.5025L175.249 20.0871V17.2564L176.664 17.2564V21.5025L175.249 22.9179V25.7486L173.833 27.164V29.9947L172.418 29.9947ZM183.033 28.5793L181.618 27.164L181.618 20.0871L183.033 18.6718L187.279 18.6718V20.0871L183.033 20.0871L183.033 27.164L187.279 27.164V28.5793L183.033 28.5793ZM188.341 28.5793V27.164L190.464 27.164L190.464 20.7948L189.756 21.5025L188.341 21.5025L191.171 18.6718H191.879L191.879 27.164L194.002 27.164V28.5793L188.341 28.5793ZM199.31 22.9179L199.31 20.0871L196.479 20.0871L196.479 22.9179L199.31 22.9179ZM195.064 28.5793V27.164L199.31 27.164V24.3332L196.479 24.3332L195.064 22.9179L195.064 20.0871L196.479 18.6718L199.31 18.6718L200.725 20.0871L200.725 27.164L199.31 28.5793L195.064 28.5793ZM205.679 29.9947V25.7486L207.094 24.3332L207.094 21.5025L208.51 20.0871V17.2564L209.925 17.2564V21.5025L208.51 22.9179V25.7486L207.094 27.164V29.9947L205.679 29.9947ZM214.879 28.5793L214.879 20.0871L219.125 20.0871L220.54 21.5025L220.54 28.5793H219.125L219.125 21.5025L216.294 21.5025L216.294 28.5793H214.879ZM226.909 28.5793L225.494 27.164V25.7486L226.909 25.7486V27.164H229.74V24.3332H228.325V22.9179H229.74L229.74 20.0871L226.909 20.0871V21.5025H225.494V20.0871L226.909 18.6718L229.74 18.6718L231.156 20.0871L231.156 22.9179L230.448 23.6256L231.156 24.3332V27.164L229.74 28.5793H226.909ZM233.633 28.5793L232.217 27.164V25.7486H233.633V27.164L236.463 27.164V24.3332H235.048V22.9179H236.463L236.463 20.0871L233.633 20.0871V21.5025H232.217V20.0871L233.633 18.6718L236.463 18.6718L237.879 20.0871L237.879 22.9179L237.171 23.6256L237.879 24.3332V27.164L236.463 28.5793L233.633 28.5793ZM243.186 27.164V22.9179L240.355 25.7486V27.164L243.186 27.164ZM240.355 24.3332L243.186 21.5025V20.0871L240.355 20.0871L240.355 24.3332ZM240.355 28.5793L238.94 27.164L238.94 20.0871L240.355 18.6718L243.186 18.6718L244.602 20.0871L244.602 27.164L243.186 28.5793L240.355 28.5793ZM245.663 28.5793V27.164L247.786 27.164L247.786 20.7948L247.079 21.5025L245.663 21.5025L248.494 18.6718H249.202L249.202 27.164L251.325 27.164V28.5793L245.663 28.5793ZM252.386 28.5793V25.7486L256.632 21.5025V20.0871L253.802 20.0871V21.5025H252.386V20.0871L253.802 18.6718L256.632 18.6718L258.048 20.0871V21.5025L253.802 25.7486V27.164L258.048 27.164V28.5793L252.386 28.5793ZM263.355 22.9179V20.0871L260.524 20.0871V22.9179L263.355 22.9179ZM259.109 28.5793V27.164L263.355 27.164V24.3332L260.524 24.3332L259.109 22.9179V20.0871L260.524 18.6718L263.355 18.6718L264.771 20.0871V27.164L263.355 28.5793L259.109 28.5793Z" fill="#FF6318"/>
<path d="M223.558 471.711L223.558 469.352L227.096 465.814V464.634H224.737V465.814H223.558V464.634L224.737 463.455H227.096L228.276 464.634V465.814L224.737 469.352L224.737 470.532H228.276V471.711H223.558ZM232.699 470.532L232.699 466.993L230.34 469.352L230.34 470.532H232.699ZM230.34 468.173L232.699 465.814V464.634H230.34V468.173ZM230.34 471.711L229.16 470.532L229.16 464.634L230.34 463.455H232.699L233.878 464.634L233.878 470.532L232.699 471.711H230.34ZM234.763 471.711L234.763 469.352L238.301 465.814V464.634H235.942V465.814H234.763V464.634L235.942 463.455H238.301L239.481 464.634V465.814L235.942 469.352L235.942 470.532H239.481V471.711H234.763ZM240.365 471.711L240.365 470.532L242.134 470.532V465.224L241.545 465.814L240.365 465.814L242.724 463.455H243.314V470.532H245.083L245.083 471.711L240.365 471.711Z" fill="black"/>
<path d="M220.234 455.143H217.368V455.792H220.234V455.143Z" fill="black"/>
<path d="M226.666 425.61H223.801V455.793H226.666V425.61Z" fill="black"/>
<path d="M233.098 397.546H230.232V455.792H233.098V397.546Z" fill="black"/>
<path d="M239.531 382.066H236.665V455.792H239.531V382.066Z" fill="black"/>
<path d="M245.962 387.903H243.097V455.792H245.962V387.903Z" fill="black"/>
<path d="M252.394 380.336H249.528V455.792H252.394V380.336Z" fill="black"/>
<path d="M258.826 394H255.96V455.792H258.826V394Z" fill="black"/>
<path d="M265.259 400.486H262.394V455.792H265.259V400.486Z" fill="black"/>
<path d="M271.69 400.961H268.824V455.791H271.69V400.961Z" fill="black"/>
<path d="M200.924 361.283H198.071V455.792H200.924V361.283Z" fill="black" fill-opacity="0.05"/>
<path d="M207.344 361.283H204.491V455.792H207.344V361.283Z" fill="black" fill-opacity="0.05"/>
<path d="M213.762 361.283H210.909V455.792H213.762V361.283Z" fill="black" fill-opacity="0.05"/>
<path d="M220.233 361.283H217.367V455.792H220.233V361.283Z" fill="black" fill-opacity="0.05"/>
<path d="M226.664 361.283H223.799V455.792H226.664V361.283Z" fill="black" fill-opacity="0.05"/>
<path d="M233.097 361.283H230.231V455.792H233.097V361.283Z" fill="black" fill-opacity="0.05"/>
<path d="M239.53 361.283H236.664V455.792H239.53V361.283Z" fill="black" fill-opacity="0.05"/>
<path d="M245.961 361.283H243.096V455.792H245.961V361.283Z" fill="black" fill-opacity="0.05"/>
<path d="M252.393 361.283H249.527V455.792H252.393V361.283Z" fill="black" fill-opacity="0.05"/>
<path d="M258.826 361.283H255.96V455.792H258.826V361.283Z" fill="black" fill-opacity="0.05"/>
<path d="M265.257 361.283H262.392V455.792H265.257V361.283Z" fill="black" fill-opacity="0.05"/>
<path d="M271.689 361.283H268.823V455.792H271.689V361.283Z" fill="black" fill-opacity="0.05"/>
<path d="M53.6768 471.711V469.352L57.2152 465.814V464.634H54.8562V465.814H53.6768V464.634L54.8562 463.455H57.2152L58.3947 464.634V465.814L54.8562 469.352V470.532H58.3947V471.711H53.6768ZM62.8177 470.532L62.8177 466.993L60.4587 469.352V470.532H62.8177ZM60.4587 468.173L62.8177 465.814V464.634H60.4587L60.4587 468.173ZM60.4587 471.711L59.2793 470.532L59.2793 464.634L60.4587 463.455H62.8177L63.9972 464.634L63.9972 470.532L62.8177 471.711H60.4587ZM64.8818 471.711V470.532H66.651L66.651 465.224L66.0612 465.814H64.8818L67.2407 463.455H67.8304L67.8304 470.532H69.5997V471.711H64.8818ZM74.0227 466.993L74.0227 464.634H71.6637L71.6637 466.993H74.0227ZM70.4843 471.711V470.532L74.0227 470.532V468.173H71.6637L70.4843 466.993L70.4843 464.634L71.6637 463.455H74.0227L75.2022 464.634L75.2022 470.532L74.0227 471.711L70.4843 471.711Z" fill="black"/>
<path d="M31.056 408.313H28.1904V455.793H31.056V408.313Z" fill="black"/>
<path d="M37.4877 399.319H34.6221V455.793H37.4877V399.319Z" fill="black"/>
<path d="M50.3509 393.093H47.4854V455.793H50.3509V393.093Z" fill="black"/>
<path d="M43.9212 379.472H41.0557V455.793H43.9212V379.472Z" fill="black"/>
<path d="M56.7836 380.164H53.918V455.793H56.7836V380.164Z" fill="black"/>
<path d="M63.2171 400.357H60.3516V455.793H63.2171V400.357Z" fill="black"/>
<path d="M69.6488 395.644H66.7832V455.792H69.6488V395.644Z" fill="black"/>
<path d="M76.0794 407.276H73.2139V455.793H76.0794V407.276Z" fill="black"/>
<path d="M82.5121 400.53H79.6465V455.793H82.5121V400.53Z" fill="black"/>
<path d="M88.9447 386.52H86.0791V455.792H88.9447V386.52Z" fill="black"/>
<path d="M95.3763 392.401H92.5107V455.793H95.3763V392.401Z" fill="black"/>
<path d="M101.807 395.557H98.9414V455.793H101.807V395.557Z" fill="black"/>
<path d="M31.0435 361.283H28.1904V455.792H31.0435V361.283Z" fill="black" fill-opacity="0.05"/>
<path d="M37.4635 361.283H34.6104V455.792H37.4635V361.283Z" fill="black" fill-opacity="0.05"/>
<path d="M43.8814 361.283H41.0283V455.792H43.8814V361.283Z" fill="black" fill-opacity="0.05"/>
<path d="M50.3529 361.283H47.4873V455.792H50.3529V361.283Z" fill="black" fill-opacity="0.05"/>
<path d="M56.7845 361.283H53.9189V455.792H56.7845V361.283Z" fill="black" fill-opacity="0.05"/>
<path d="M63.2142 361.283H60.3486V455.792H63.2142V361.283Z" fill="black" fill-opacity="0.05"/>
<path d="M69.6468 361.283H66.7812V455.792H69.6468V361.283Z" fill="black" fill-opacity="0.05"/>
<path d="M76.0804 361.283H73.2148V455.792H76.0804V361.283Z" fill="black" fill-opacity="0.05"/>
<path d="M82.5111 361.283H79.6455V455.792H82.5111V361.283Z" fill="black" fill-opacity="0.05"/>
<path d="M88.9437 361.283H86.0781V455.792H88.9437V361.283Z" fill="black" fill-opacity="0.05"/>
<path d="M95.3763 361.283H92.5107V455.792H95.3763V361.283Z" fill="black" fill-opacity="0.05"/>
<path d="M101.808 361.283H98.9424V455.792H101.808V361.283Z" fill="black" fill-opacity="0.05"/>
<path d="M138.617 471.711L138.617 469.352L142.156 465.814V464.634H139.797V465.814H138.617V464.634L139.797 463.455H142.156L143.335 464.634V465.814L139.797 469.352L139.797 470.532H143.335V471.711H138.617ZM147.758 470.532L147.758 466.993L145.399 469.352L145.399 470.532H147.758ZM145.399 468.173L147.758 465.814V464.634H145.399V468.173ZM145.399 471.711L144.22 470.532L144.22 464.634L145.399 463.455H147.758L148.938 464.634L148.938 470.532L147.758 471.711H145.399ZM149.822 471.711L149.822 469.352L153.361 465.814V464.634H151.002V465.814H149.822V464.634L151.002 463.455H153.361L154.54 464.634V465.814L151.002 469.352L151.002 470.532H154.54V471.711H149.822ZM158.963 470.532V466.993L156.604 469.352V470.532H158.963ZM156.604 468.173L158.963 465.814V464.634H156.604V468.173ZM156.604 471.711L155.425 470.532V464.634L156.604 463.455H158.963L160.143 464.634V470.532L158.963 471.711H156.604Z" fill="black"/>
<path d="M115.996 405.231H113.131V455.78H115.996V405.231Z" fill="black"/>
<path d="M122.428 403.545H119.562V455.78H122.428V403.545Z" fill="black"/>
<path d="M128.862 453.835H125.996V455.78H128.862V453.835Z" fill="black"/>
<path d="M148.158 450.041H145.292V455.792H148.158V450.041Z" fill="black"/>
<path d="M154.589 419.945H151.724V455.792H154.589V419.945Z" fill="black"/>
<path d="M161.02 412.983H158.154V455.792H161.02V412.983Z" fill="black"/>
<path d="M167.452 408.702H164.587V455.792H167.452V408.702Z" fill="black"/>
<path d="M173.885 419.426H171.02V455.792H173.885V419.426Z" fill="black"/>
<path d="M180.317 455.316H177.451V455.792H180.317V455.316Z" fill="black"/>
<path d="M186.748 455.576H183.882V455.792H186.748V455.576Z" fill="black"/>
<path d="M115.984 361.283H113.131V455.792H115.984V361.283Z" fill="black" fill-opacity="0.05"/>
<path d="M122.404 361.283H119.551V455.792H122.404V361.283Z" fill="black" fill-opacity="0.05"/>
<path d="M128.822 361.283H125.969V455.792H128.822V361.283Z" fill="black" fill-opacity="0.05"/>
<path d="M135.292 361.283H132.427V455.792H135.292V361.283Z" fill="black" fill-opacity="0.05"/>
<path d="M141.726 361.283H138.86V455.792H141.726V361.283Z" fill="black" fill-opacity="0.05"/>
<path d="M148.157 361.283H145.291V455.792H148.157V361.283Z" fill="black" fill-opacity="0.05"/>
<path d="M154.588 361.283H151.723V455.792H154.588V361.283Z" fill="black" fill-opacity="0.05"/>
<path d="M161.02 361.283H158.154V455.792H161.02V361.283Z" fill="black" fill-opacity="0.05"/>
<path d="M167.453 361.283H164.588V455.792H167.453V361.283Z" fill="black" fill-opacity="0.05"/>
<path d="M173.885 361.283H171.02V455.792H173.885V361.283Z" fill="black" fill-opacity="0.05"/>
<path d="M180.317 361.283H177.451V455.792H180.317V361.283Z" fill="black" fill-opacity="0.05"/>
<path d="M186.748 361.283H183.883V455.792H186.748V361.283Z" fill="black" fill-opacity="0.05"/>
<rect x="251.479" y="311.153" width="3.44562" height="9.51518" transform="rotate(90 251.479 311.153)" fill="black" fill-opacity="0.05"/>
<rect x="212.469" y="311.153" width="3.44562" height="9.51518" transform="rotate(90 212.469 311.153)" fill="black" fill-opacity="0.05"/>
<rect x="173.459" y="311.153" width="3.44562" height="9.51518" transform="rotate(90 173.459 311.153)" fill="black" fill-opacity="0.05"/>
<rect x="134.448" y="311.153" width="3.44562" height="9.51518" transform="rotate(90 134.448 311.153)" fill="black" fill-opacity="0.05"/>
<rect x="95.4385" y="311.153" width="3.44562" height="9.51518" transform="rotate(90 95.4385 311.153)" fill="black" fill-opacity="0.05"/>
<rect x="56.4258" y="311.153" width="3.44562" height="9.51518" transform="rotate(90 56.4258 311.153)" fill="black" fill-opacity="0.05"/>
<path d="M17.417 311.153L17.417 314.598L9.57287 314.598L8.81863 313.838L7.90181 312.926L7.90181 311.153L17.417 311.153Z" fill="black" fill-opacity="0.05"/>
<path d="M280.976 314.598L280.976 314.999L280.238 315.732L280.976 316.59L280.976 318.044L271.46 318.044L271.46 314.598L280.976 314.598Z" fill="black" fill-opacity="0.05"/>
<rect x="241.966" y="314.598" width="3.44562" height="9.51518" transform="rotate(90 241.966 314.598)" fill="black" fill-opacity="0.05"/>
<rect x="202.955" y="314.598" width="3.44562" height="9.51518" transform="rotate(90 202.955 314.598)" fill="black" fill-opacity="0.05"/>
<rect x="163.944" y="314.598" width="3.44562" height="9.51518" transform="rotate(90 163.944 314.598)" fill="black" fill-opacity="0.05"/>
<rect x="124.933" y="314.598" width="3.44562" height="9.51518" transform="rotate(90 124.933 314.598)" fill="black" fill-opacity="0.05"/>
<rect x="85.9238" y="314.598" width="3.44562" height="9.51518" transform="rotate(90 85.9238 314.598)" fill="black" fill-opacity="0.05"/>
<rect x="46.9121" y="314.598" width="3.44562" height="9.51518" transform="rotate(90 46.9121 314.598)" fill="black" fill-opacity="0.05"/>
<rect x="271.237" y="311.153" width="3.44562" height="9.51518" transform="rotate(90 271.237 311.153)" fill="black" fill-opacity="0.05"/>
<rect x="232.228" y="311.153" width="3.44562" height="9.51518" transform="rotate(90 232.228 311.153)" fill="black" fill-opacity="0.05"/>
<rect x="193.216" y="311.153" width="3.44562" height="9.51518" transform="rotate(90 193.216 311.153)" fill="black" fill-opacity="0.05"/>
<rect x="154.205" y="311.153" width="3.44562" height="9.51518" transform="rotate(90 154.205 311.153)" fill="black" fill-opacity="0.05"/>
<rect x="115.195" y="311.153" width="3.44562" height="9.51518" transform="rotate(90 115.195 311.153)" fill="black" fill-opacity="0.05"/>
<rect x="76.1846" y="311.153" width="3.44562" height="9.51518" transform="rotate(90 76.1846 311.153)" fill="black" fill-opacity="0.05"/>
<rect x="37.1729" y="311.153" width="3.44562" height="9.51518" transform="rotate(90 37.1729 311.153)" fill="black" fill-opacity="0.05"/>
<rect x="260.997" y="314.598" width="3.44562" height="9.51518" transform="rotate(90 260.997 314.598)" fill="black" fill-opacity="0.05"/>
<rect x="221.988" y="314.598" width="3.44562" height="9.51518" transform="rotate(90 221.988 314.598)" fill="black" fill-opacity="0.05"/>
<rect x="182.975" y="314.598" width="3.44562" height="9.51518" transform="rotate(90 182.975 314.598)" fill="black" fill-opacity="0.05"/>
<rect x="143.965" y="314.598" width="3.44562" height="9.51518" transform="rotate(90 143.965 314.598)" fill="black" fill-opacity="0.05"/>
<rect x="104.952" y="314.598" width="3.44562" height="9.51518" transform="rotate(90 104.952 314.598)" fill="black" fill-opacity="0.05"/>
<rect x="65.9414" y="314.598" width="3.44562" height="9.51518" transform="rotate(90 65.9414 314.598)" fill="black" fill-opacity="0.05"/>
<rect x="26.9307" y="314.598" width="3.44562" height="9.51518" transform="rotate(90 26.9307 314.598)" fill="black" fill-opacity="0.05"/>
<path d="M9.01511 366.018V364.886L10.7136 363.188V362.622H9.58126V363.188H9.01511V362.622L9.58126 362.055H10.7136L11.2797 362.622V363.188L9.58126 364.886V365.452H11.2797V366.018H9.01511ZM13.4028 365.452V363.754L12.2705 364.886V365.452H13.4028ZM12.2705 364.32L13.4028 363.188V362.622H12.2705V364.32ZM12.2705 366.018L11.7043 365.452V362.622L12.2705 362.055H13.4028L13.9689 362.622V365.452L13.4028 366.018H12.2705ZM16.092 365.452V363.754L14.9597 364.886V365.452H16.092ZM14.9597 364.32L16.092 363.188V362.622H14.9597V364.32ZM14.9597 366.018L14.3935 365.452V362.622L14.9597 362.055H16.092L16.6581 362.622V365.452L16.092 366.018H14.9597ZM18.7812 365.452V363.754L17.6489 364.886V365.452H18.7812ZM17.6489 364.32L18.7812 363.188V362.622H17.6489V364.32ZM17.6489 366.018L17.0827 365.452V362.622L17.6489 362.055H18.7812L19.3473 362.622V365.452L18.7812 366.018H17.6489Z" fill="black"/>
<path d="M18.8964 454.618V452.919L17.7641 454.051V454.618H18.8964ZM17.7641 453.485L18.8964 452.353V451.787H17.7641V453.485ZM17.7641 455.184L17.1979 454.618V451.787L17.7641 451.221H18.8964L19.4625 451.787V454.618L18.8964 455.184H17.7641Z" fill="black"/>
<path d="M9.13034 410.601V410.035H9.97957V407.487L9.69649 407.77H9.13034L10.2626 406.638H10.5457V410.035H11.3949V410.601H9.13034ZM13.518 410.035V408.337L12.3857 409.469V410.035H13.518ZM12.3857 408.903L13.518 407.77V407.204H12.3857V408.903ZM12.3857 410.601L11.8195 410.035V407.204L12.3857 406.638H13.518L14.0841 407.204V410.035L13.518 410.601H12.3857ZM16.2072 410.035V408.337L15.0749 409.469V410.035H16.2072ZM15.0749 408.903L16.2072 407.77V407.204H15.0749V408.903ZM15.0749 410.601L14.5087 410.035V407.204L15.0749 406.638H16.2072L16.7733 407.204V410.035L16.2072 410.601H15.0749ZM18.8964 410.035V408.337L17.7641 409.469V410.035H18.8964ZM17.7641 408.903L18.8964 407.77V407.204H17.7641V408.903ZM17.7641 410.601L17.1979 410.035V407.204L17.7641 406.638H18.8964L19.4625 407.204V410.035L18.8964 410.601H17.7641Z" fill="black"/>
<path d="M11.8195 432.892V432.326H13.518V431.194H11.8195V428.929H14.0841V429.496H12.3857V430.628H13.518L14.0841 431.194V432.326L13.518 432.892H11.8195ZM16.2072 432.326V430.628L15.0749 431.76V432.326H16.2072ZM15.0749 431.194L16.2072 430.062V429.496H15.0749V431.194ZM15.0749 432.892L14.5087 432.326V429.496L15.0749 428.929H16.2072L16.7733 429.496V432.326L16.2072 432.892H15.0749ZM18.8964 432.326V430.628L17.7641 431.76V432.326H18.8964ZM17.7641 431.194L18.8964 430.062V429.496H17.7641V431.194ZM17.7641 432.892L17.1979 432.326V429.496L17.7641 428.929H18.8964L19.4625 429.496V432.326L18.8964 432.892H17.7641Z" fill="black"/>
<path d="M9.13034 388.31V387.744H9.97957V385.196L9.69649 385.479H9.13034L10.2626 384.347H10.5457V387.744H11.3949V388.31H9.13034ZM11.8195 388.31V387.744H13.518V386.611H11.8195V384.347H14.0841V384.913H12.3857V386.045H13.518L14.0841 386.611V387.744L13.518 388.31H11.8195ZM16.2072 387.744V386.045L15.0749 387.178V387.744H16.2072ZM15.0749 386.611L16.2072 385.479V384.913H15.0749V386.611ZM15.0749 388.31L14.5087 387.744V384.913L15.0749 384.347H16.2072L16.7733 384.913V387.744L16.2072 388.31H15.0749ZM18.8964 387.744V386.045L17.7641 387.178V387.744H18.8964ZM17.7641 386.611L18.8964 385.479V384.913H17.7641V386.611ZM17.7641 388.31L17.1979 387.744V384.913L17.7641 384.347H18.8964L19.4625 384.913V387.744L18.8964 388.31H17.7641Z" fill="black"/>
</svg>
