<svg width="301" height="181" viewBox="0 0 301 181" fill="none" xmlns="http://www.w3.org/2000/svg">
<path fill-rule="evenodd" clip-rule="evenodd" d="M300.587 8.04418L300.587 173.517L300.516 173.445L293.312 180.706L113.159 180.706L106.783 174.28L99.3601 180.707L8.88962 180.707L0.587191 173.518L0.587206 8.04525L8.9753 0.782491L8.88869 0.707503L99.359 0.707519L99.2703 0.784248L106.776 7.28271L113.229 0.778801L113.158 0.706527L293.31 0.706557L293.236 0.780854L300.515 8.11679L300.587 8.04418Z" fill="#FF6318"/>
<rect x="91.3396" y="165.507" width="75.0908" height="2.94767" transform="rotate(-180 91.3396 165.507)" fill="#121212"/>
<rect x="91.3401" y="54.438" width="75.0908" height="1.53292" transform="rotate(-180 91.3401 54.438)" fill="#121212"/>
<rect x="91.339" y="159.163" width="75.0908" height="11.7914" transform="rotate(-180 91.339 159.163)" fill="#121212"/>
<rect x="91.3386" y="51.1362" width="75.0908" height="6.13204" transform="rotate(-180 91.3386 51.1362)" fill="#121212"/>
<rect x="91.3386" y="32.4478" width="75.0908" height="6.13204" transform="rotate(-180 91.3386 32.4478)" fill="#121212"/>
<rect x="91.3394" y="144.423" width="75.0908" height="11.7914" transform="rotate(-180 91.3394 144.423)" fill="#121212"/>
<rect x="91.3394" y="117.615" width="75.0908" height="18.2725" transform="rotate(-180 91.3394 117.615)" fill="#121212"/>
<rect x="91.3403" y="43.4736" width="75.0908" height="6.13204" transform="rotate(-180 91.3403 43.4736)" fill="#121212"/>
<rect x="91.3401" y="24.7837" width="75.0908" height="6.13204" transform="rotate(-180 91.3401 24.7837)" fill="#121212"/>
<rect x="91.3392" y="124.411" width="75.0908" height="3.16013" transform="rotate(-180 91.3392 124.411)" fill="#121212"/>
<rect x="91.3395" y="129.684" width="75.0908" height="2.32622" transform="rotate(-180 91.3395 129.684)" fill="#121212"/>
<rect x="91.3393" y="35.8071" width="75.0908" height="1.20974" transform="rotate(-180 91.3393 35.8071)" fill="#121212"/>
<rect x="91.3392" y="17.1167" width="75.0908" height="1.20974" transform="rotate(-180 91.3392 17.1167)" fill="#121212"/>
<rect x="91.3395" y="96.0811" width="75.0908" height="2.32622" transform="rotate(-180 91.3395 96.0811)" fill="#121212"/>
<rect x="91.3383" y="91.2104" width="75.0908" height="2.32622" transform="rotate(-180 91.3383 91.2104)" fill="#121212"/>
<rect x="91.338" y="86.6489" width="75.0908" height="8.11533" transform="rotate(-180 91.338 86.6489)" fill="#121212"/>
<rect x="91.3387" y="76.9404" width="75.0908" height="14.4603" transform="rotate(-180 91.3387 76.9404)" fill="#121212"/>
<rect x="91.338" y="60.8828" width="75.0908" height="4.30054" transform="rotate(-180 91.338 60.8828)" fill="#121212"/>
</svg>
