<svg width="301" height="181" viewBox="0 0 301 181" fill="none" xmlns="http://www.w3.org/2000/svg">
<path fill-rule="evenodd" clip-rule="evenodd" d="M300.587 8.06908L300.587 173.542L300.516 173.47L293.312 180.731L113.159 180.73L106.783 174.305L99.3601 180.731L8.88962 180.731L0.587191 173.543L0.587206 8.07015L8.9753 0.807393L8.88869 0.732406L99.359 0.732421L99.2703 0.809151L106.776 7.30761L113.229 0.803703L113.158 0.731429L293.31 0.73146L293.236 0.805756L300.515 8.1417L300.587 8.06908Z" fill="#C852FF"/>
<rect x="91.3396" y="165.532" width="75.0908" height="2.94767" transform="rotate(-180 91.3396 165.532)" fill="#121212"/>
<rect x="91.3401" y="54.4631" width="75.0908" height="1.53292" transform="rotate(-180 91.3401 54.4631)" fill="#121212"/>
<rect x="91.339" y="159.188" width="75.0908" height="11.7914" transform="rotate(-180 91.339 159.188)" fill="#121212"/>
<rect x="91.3386" y="51.1611" width="75.0908" height="6.13204" transform="rotate(-180 91.3386 51.1611)" fill="#121212"/>
<rect x="91.3386" y="32.4729" width="75.0908" height="6.13204" transform="rotate(-180 91.3386 32.4729)" fill="#121212"/>
<rect x="91.3394" y="144.448" width="75.0908" height="11.7914" transform="rotate(-180 91.3394 144.448)" fill="#121212"/>
<rect x="91.3394" y="117.64" width="75.0908" height="18.2725" transform="rotate(-180 91.3394 117.64)" fill="#121212"/>
<rect x="91.3403" y="43.4988" width="75.0908" height="6.13204" transform="rotate(-180 91.3403 43.4988)" fill="#121212"/>
<rect x="91.3401" y="24.8091" width="75.0908" height="6.13204" transform="rotate(-180 91.3401 24.8091)" fill="#121212"/>
<rect x="91.3392" y="124.436" width="75.0908" height="3.16013" transform="rotate(-180 91.3392 124.436)" fill="#121212"/>
<rect x="91.3395" y="129.709" width="75.0908" height="2.32622" transform="rotate(-180 91.3395 129.709)" fill="#121212"/>
<rect x="91.3393" y="35.832" width="75.0908" height="1.20974" transform="rotate(-180 91.3393 35.832)" fill="#121212"/>
<rect x="91.3392" y="17.1416" width="75.0908" height="1.20974" transform="rotate(-180 91.3392 17.1416)" fill="#121212"/>
<rect x="91.3395" y="96.1062" width="75.0908" height="2.32622" transform="rotate(-180 91.3395 96.1062)" fill="#121212"/>
<rect x="91.3383" y="91.2358" width="75.0908" height="2.32622" transform="rotate(-180 91.3383 91.2358)" fill="#121212"/>
<rect x="91.338" y="86.6743" width="75.0908" height="8.11533" transform="rotate(-180 91.338 86.6743)" fill="#121212"/>
<rect x="91.3387" y="76.9653" width="75.0908" height="14.4603" transform="rotate(-180 91.3387 76.9653)" fill="#121212"/>
<rect x="91.338" y="60.9077" width="75.0908" height="4.30054" transform="rotate(-180 91.338 60.9077)" fill="#121212"/>
</svg>
