<svg width="816" height="732" viewBox="0 0 816 732" fill="none" xmlns="http://www.w3.org/2000/svg">
<path d="M316.801 701.005V700.09H312.601V696.49H317.761V695.545H311.506V705.25H312.601V701.005H316.801ZM327.892 700.405C327.892 697.525 325.957 695.38 323.317 695.38C320.677 695.38 318.742 697.525 318.742 700.39C318.742 703.27 320.677 705.415 323.317 705.415C325.957 705.415 327.892 703.285 327.892 700.405ZM319.882 700.39C319.882 698.065 321.352 696.355 323.317 696.355C325.282 696.355 326.752 698.08 326.752 700.405C326.752 702.73 325.282 704.455 323.317 704.455C321.352 704.455 319.882 702.73 319.882 700.39ZM331.101 705.25V697.54L336.666 705.25H337.596V695.545H336.546V703.3L330.981 695.545H330.051V705.25H331.101ZM346.858 696.49V695.545H339.283V696.49H342.538V705.25H343.618V696.49H346.858ZM354.987 705.25V704.305H349.632V700.855H353.982V699.925H349.632V696.49H354.882V695.545H348.537V705.25H354.987ZM357.814 705.25V703.36H356.614V705.25H357.814ZM357.814 700.765V698.875H356.614V700.765H357.814ZM369.812 696.49V695.545H362.237V696.49H365.492V705.25H366.572V696.49H369.812ZM372.586 695.545H371.491V705.25H372.586V695.545ZM382.873 702.865L381.943 702.49C381.478 703.63 380.263 704.455 379.123 704.455C377.278 704.455 375.898 702.76 375.898 700.465C375.898 698.11 377.293 696.355 379.168 696.355C380.218 696.355 381.358 697.18 381.838 698.29L382.798 697.9C382.213 696.475 380.668 695.395 379.123 695.395C376.603 695.395 374.743 697.555 374.743 700.465C374.743 703.315 376.573 705.415 379.078 705.415C380.698 705.415 382.318 704.32 382.873 702.865ZM385.858 705.25V702.265L387.208 700.705L390.913 705.25H392.263L387.943 699.895L391.738 695.545H390.463L385.858 700.87V695.545H384.763V705.25H385.858ZM400.075 705.25V704.305H394.72V700.855H399.07V699.925H394.72V696.49H399.97V695.545H393.625V705.25H400.075ZM408.571 696.49V695.545H400.996V696.49H404.251V705.25H405.331V696.49H408.571ZM418.302 700.405C418.302 697.525 416.367 695.38 413.727 695.38C411.087 695.38 409.152 697.525 409.152 700.39C409.152 703.27 411.087 705.415 413.727 705.415C416.367 705.415 418.302 703.285 418.302 700.405ZM410.292 700.39C410.292 698.065 411.762 696.355 413.727 696.355C415.692 696.355 417.162 698.08 417.162 700.405C417.162 702.73 415.692 704.455 413.727 704.455C411.762 704.455 410.292 702.73 410.292 700.39ZM421.511 705.25V697.54L427.076 705.25H428.006V695.545H426.956V703.3L421.391 695.545H420.461V705.25H421.511ZM437.253 705.25V704.305H431.898V700.855H436.248V699.925H431.898V696.49H437.148V695.545H430.803V705.25H437.253Z" fill="black" fill-opacity="0.4"/>
<path opacity="0.15" d="M139.469 706.543L130.514 710.143L132.179 714.733L138.029 712.573V725.353H131.414V730.483H150.359V725.353H144.554V706.543H139.469ZM176.791 723.598C176.791 721.033 175.441 719.278 172.156 717.973C174.811 716.803 176.251 715.138 176.251 712.798C176.251 708.883 171.571 705.913 164.911 705.913C158.251 705.913 153.391 708.973 153.391 713.338C153.391 715.723 154.831 717.478 157.666 718.738C154.291 719.863 152.581 721.888 152.581 724.228C152.581 728.143 157.576 731.113 164.866 731.113C171.931 731.113 176.791 728.053 176.791 723.598ZM166.261 716.488C161.401 715.678 160.006 714.688 160.006 713.338C160.006 711.718 161.941 710.548 164.686 710.548C167.521 710.548 169.636 711.808 169.636 713.743C169.636 714.868 169.006 715.903 167.791 716.758C167.296 716.668 166.801 716.578 166.261 716.488ZM164.956 726.478C161.671 726.478 159.286 725.308 159.286 723.463C159.286 722.338 160.186 720.988 161.986 720.088C162.661 720.223 163.336 720.358 164.101 720.493C168.646 721.213 170.086 722.293 170.086 723.733C170.086 725.353 167.881 726.478 164.956 726.478ZM201.699 730.483V725.173H189.009L193.779 722.203C196.884 720.268 200.169 717.613 200.169 713.518C200.169 709.108 196.029 705.913 190.539 705.913C185.499 705.913 181.404 708.658 179.559 712.753L184.149 715.003C185.049 712.798 187.209 711.088 189.639 711.088C191.709 711.088 193.374 712.393 193.374 714.148C193.374 716.038 191.574 717.568 189.054 719.368L179.919 725.983V730.483H201.699Z" fill="white"/>
<path d="M39.7438 730.231V724.921H27.0538L31.8238 721.951C34.9288 720.016 38.2138 717.361 38.2138 713.266C38.2138 708.856 34.0738 705.661 28.5838 705.661C23.5438 705.661 19.4488 708.406 17.6038 712.501L22.1938 714.751C23.0938 712.546 25.2538 710.836 27.6838 710.836C29.7538 710.836 31.4188 712.141 31.4188 713.896C31.4188 715.786 29.6188 717.316 27.0988 719.116L17.9638 725.731V730.231H39.7438ZM64.485 730.231V724.921H51.795L56.565 721.951C59.67 720.016 62.955 717.361 62.955 713.266C62.955 708.856 58.815 705.661 53.325 705.661C48.285 705.661 44.19 708.406 42.345 712.501L46.935 714.751C47.835 712.546 49.995 710.836 52.425 710.836C54.495 710.836 56.16 712.141 56.16 713.896C56.16 715.786 54.36 717.316 51.84 719.116L42.705 725.731V730.231H64.485ZM89.2262 730.231V724.921H76.5362L81.3062 721.951C84.4112 720.016 87.6962 717.361 87.6962 713.266C87.6962 708.856 83.5562 705.661 78.0662 705.661C73.0262 705.661 68.9312 708.406 67.0862 712.501L71.6762 714.751C72.5762 712.546 74.7362 710.836 77.1662 710.836C79.2362 710.836 80.9012 712.141 80.9012 713.896C80.9012 715.786 79.1012 717.316 76.5812 719.116L67.4462 725.731V730.231H89.2262Z" fill="white"/>
<path opacity="0.15" d="M251.469 706.543L242.514 710.143L244.179 714.733L250.029 712.573V725.353H243.414V730.483H262.359V725.353H256.554V706.543H251.469ZM264.671 718.468C264.671 725.758 269.576 731.113 276.416 731.113C283.256 731.113 288.206 725.758 288.206 718.468C288.206 711.223 283.256 705.913 276.416 705.913C269.576 705.913 264.671 711.223 264.671 718.468ZM271.466 718.468C271.466 714.058 273.536 711.088 276.416 711.088C279.386 711.088 281.411 714.058 281.411 718.468C281.411 722.923 279.386 725.938 276.416 725.938C273.536 725.938 271.466 722.923 271.466 718.468ZM299.853 706.543L290.898 710.143L292.563 714.733L298.413 712.573V725.353H291.798V730.483H310.743V725.353H304.938V706.543H299.853Z" fill="white"/>
<path opacity="0.15" d="M375.994 723.599C375.994 721.034 374.644 719.279 371.359 717.974C374.014 716.804 375.454 715.139 375.454 712.799C375.454 708.884 370.774 705.914 364.114 705.914C357.454 705.914 352.594 708.974 352.594 713.339C352.594 715.724 354.034 717.479 356.869 718.739C353.494 719.864 351.784 721.889 351.784 724.229C351.784 728.144 356.779 731.114 364.069 731.114C371.134 731.114 375.994 728.054 375.994 723.599ZM365.464 716.489C360.604 715.679 359.209 714.689 359.209 713.339C359.209 711.719 361.144 710.549 363.889 710.549C366.724 710.549 368.839 711.809 368.839 713.744C368.839 714.869 368.209 715.904 366.994 716.759C366.499 716.669 366.004 716.579 365.464 716.489ZM364.159 726.479C360.874 726.479 358.489 725.309 358.489 723.464C358.489 722.339 359.389 720.989 361.189 720.089C361.864 720.224 362.539 720.359 363.304 720.494C367.849 721.214 369.289 722.294 369.289 723.734C369.289 725.354 367.084 726.479 364.159 726.479ZM401.532 722.654C401.532 717.929 397.527 714.779 391.677 714.779C388.752 714.779 386.367 715.589 384.657 716.624L385.107 711.764H400.362V706.499H380.427L379.707 720.359L383.892 721.394C385.107 720.359 387.492 719.594 389.742 719.594C392.757 719.594 394.737 720.989 394.737 722.924C394.737 724.859 392.712 726.344 389.652 726.344C386.952 726.344 384.567 725.264 383.262 723.509L378.717 725.939C380.922 729.224 385.152 731.114 390.237 731.114C396.807 731.114 401.532 727.514 401.532 722.654Z" fill="white"/>
<path opacity="0.15" d="M549.589 722.004C549.589 717.504 545.584 714.264 540.049 714.264C537.214 714.264 534.514 715.164 532.624 716.604C533.119 712.599 535.369 710.124 538.879 710.124C541.219 710.124 543.334 711.159 544.684 712.779L548.914 710.079C547.069 707.514 543.379 705.444 538.609 705.444C531.049 705.444 525.874 710.799 525.874 718.269C525.829 725.784 530.959 730.599 538.294 730.599C544.639 730.599 549.589 726.954 549.589 722.004ZM538.249 725.919C535.504 725.919 533.524 724.074 532.804 720.969C534.199 719.529 536.224 718.809 538.339 718.809C541.219 718.809 542.794 720.249 542.794 722.184C542.794 724.344 540.814 725.919 538.249 725.919ZM574.331 729.969V724.659H561.641L566.411 721.689C569.516 719.754 572.801 717.099 572.801 713.004C572.801 708.594 568.661 705.399 563.171 705.399C558.131 705.399 554.036 708.144 552.191 712.239L556.781 714.489C557.681 712.284 559.841 710.574 562.271 710.574C564.341 710.574 566.006 711.879 566.006 713.634C566.006 715.524 564.206 717.054 561.686 718.854L552.551 725.469V729.969H574.331Z" fill="white"/>
<path opacity="0.15" d="M639.589 722.004C639.589 717.504 635.584 714.264 630.049 714.264C627.214 714.264 624.514 715.164 622.624 716.604C623.119 712.599 625.369 710.124 628.879 710.124C631.219 710.124 633.334 711.159 634.684 712.779L638.914 710.079C637.069 707.514 633.379 705.444 628.609 705.444C621.049 705.444 615.874 710.799 615.874 718.269C615.829 725.784 620.959 730.599 628.294 730.599C634.639 730.599 639.589 726.954 639.589 722.004ZM628.249 725.919C625.504 725.919 623.524 724.074 622.804 720.969C624.199 719.529 626.224 718.809 628.339 718.809C631.219 718.809 632.794 720.249 632.794 722.184C632.794 724.344 630.814 725.919 628.249 725.919ZM664.331 729.969V724.659H651.641L656.411 721.689C659.516 719.754 662.801 717.099 662.801 713.004C662.801 708.594 658.661 705.399 653.171 705.399C648.131 705.399 644.036 708.144 642.191 712.239L646.781 714.489C647.681 712.284 649.841 710.574 652.271 710.574C654.341 710.574 656.006 711.879 656.006 713.634C656.006 715.524 654.206 717.054 651.686 718.854L642.551 725.469V729.969H664.331Z" fill="white"/>
<path opacity="0.15" d="M728.014 723.644C728.014 720.449 725.584 718.469 722.299 717.839V717.659C725.314 716.894 727.204 714.824 727.204 712.349C727.204 708.614 722.929 705.869 717.079 705.869C712.129 705.869 708.079 707.894 705.874 711.494L710.419 713.924C711.499 711.989 713.839 710.954 716.134 710.954C718.609 710.954 720.409 712.034 720.409 713.654C720.409 715.229 718.699 716.354 716.044 716.354H711.814V720.539H716.224C719.554 720.539 721.219 721.259 721.219 722.969C721.219 724.769 719.284 726.029 716.224 726.029C713.254 726.029 710.959 724.859 709.834 723.059L705.244 725.534C707.314 729.269 711.904 731.114 716.989 731.114C723.514 731.114 728.014 728.009 728.014 723.644ZM753.51 722.654C753.51 717.929 749.505 714.779 743.655 714.779C740.73 714.779 738.345 715.589 736.635 716.624L737.085 711.764H752.34V706.499H732.405L731.685 720.359L735.87 721.394C737.085 720.359 739.47 719.594 741.72 719.594C744.735 719.594 746.715 720.989 746.715 722.924C746.715 724.859 744.69 726.344 741.63 726.344C738.93 726.344 736.545 725.264 735.24 723.509L730.695 725.939C732.9 729.224 737.13 731.114 742.215 731.114C748.785 731.114 753.51 727.514 753.51 722.654Z" fill="white"/>
<path opacity="0.15" d="M463.214 711.475V706.48H442.289V712.06H456.329L445.304 730.42H452.549L463.214 711.475ZM474.364 706.48L465.409 710.08L467.074 714.67L472.924 712.51V725.29H466.309V730.42H485.254V725.29H479.449V706.48H474.364Z" fill="white"/>
<path opacity="0.1" d="M631.302 38.2607L572.621 693.261H706.621L631.302 38.2607Z" fill="url(#paint0_linear_524_802)"/>
<path opacity="0.1" d="M427.162 38.2607L484.202 691.89H618.202L427.162 38.2607Z" fill="url(#paint1_linear_524_802)"/>
<path opacity="0.1" d="M526.883 38.2607L398.967 695.56H532.967L526.883 38.2607Z" fill="url(#paint2_linear_524_802)"/>
<path opacity="0.1" d="M324.15 38.2607L312.322 694.075H446.322L324.15 38.2607Z" fill="url(#paint3_linear_524_802)"/>
<path d="M221.777 38.2607L0.689453 692.842H128.689L221.777 38.2607Z" fill="url(#paint4_linear_524_802)"/>
<path opacity="0.1" d="M119.406 38.2607L217.589 685.614H351.589L119.406 38.2607Z" fill="url(#paint5_linear_524_802)"/>
<path opacity="0.1" d="M16.0254 38.2607L95.4152 693.078H231.416L16.0254 38.2607Z" fill="url(#paint6_linear_524_802)"/>
<path opacity="0.1" d="M740.681 38.2607L682 693.261H816L740.681 38.2607Z" fill="url(#paint7_linear_524_802)"/>
<line x1="16.3437" y1="41.1372" x2="740.344" y2="41.1371" stroke="#C9C7C7" stroke-width="2"/>
<rect x="115.046" y="38.2607" width="7.90812" height="7.90812" fill="white"/>
<rect x="12.3438" y="38.2607" width="7.90812" height="7.90812" fill="white"/>
<rect x="214.353" y="34.7625" width="15" height="15" fill="white"/>
<rect x="320.657" y="38.2607" width="7.90812" height="7.90812" fill="white"/>
<rect x="423.463" y="38.2607" width="7.90812" height="7.90812" fill="white"/>
<rect x="523.303" y="38.2607" width="7.90812" height="7.90812" fill="white"/>
<rect x="627.097" y="38.2607" width="7.90812" height="7.90812" fill="white"/>
<rect x="736.822" y="38.2607" width="7.90812" height="7.90812" fill="white"/>
<path opacity="0.2" d="M6.19547 17.6973V8.59727L9.71547 13.1573H10.6955L14.1355 8.47727V17.6973H16.4355V4.75727H14.2355L10.2355 10.3173L6.01547 4.75727H3.97547V17.6973H6.19547ZM24.2986 7.37726H24.3386L26.1786 12.4973H22.4586L24.2986 7.37726ZM20.5786 17.6973L21.7586 14.3973H26.8786L28.0586 17.6973H30.4986L25.6386 4.75727H23.1386L18.2786 17.6973H20.5786ZM43.2433 17.6973V10.9373H38.5433V12.7973H41.0233V14.0973C40.7233 14.9773 39.3033 15.9373 37.6433 15.9373C35.3633 15.9373 33.7033 14.0373 33.7033 11.3773C33.7033 8.57727 35.3633 6.57726 37.6433 6.57726C39.0433 6.57726 40.4433 7.53727 41.0033 8.87727L43.0633 8.11726C42.2833 6.03727 39.9633 4.53726 37.5833 4.53726C33.8633 4.53726 31.1833 7.41727 31.2033 11.3973C31.2233 15.1973 33.8033 17.9573 37.3433 17.9573C39.1633 17.9573 40.6033 17.1773 41.2833 16.1573L41.4033 17.6973H43.2433Z" fill="white"/>
<path opacity="0.2" d="M116.064 17.6973V10.9373H111.364V12.7973H113.844V14.0973C113.544 14.9773 112.124 15.9373 110.464 15.9373C108.184 15.9373 106.524 14.0373 106.524 11.3773C106.524 8.57727 108.184 6.57726 110.464 6.57726C111.864 6.57726 113.264 7.53727 113.824 8.87727L115.884 8.11726C115.104 6.03727 112.784 4.53726 110.404 4.53726C106.684 4.53726 104.004 7.41727 104.024 11.3973C104.044 15.1973 106.624 17.9573 110.164 17.9573C111.984 17.9573 113.424 17.1773 114.104 16.1573L114.224 17.6973H116.064ZM121.11 4.75727H118.75V17.6973H121.11V4.75727ZM134.655 12.8373V4.75727H132.415V12.8373C132.415 14.7773 131.355 15.8773 129.495 15.8773C127.635 15.8773 126.575 14.7773 126.575 12.8373V4.75727H124.215V12.8373C124.215 15.9373 126.175 17.9373 129.455 17.9373C132.735 17.9373 134.655 15.9373 134.655 12.8373Z" fill="white"/>
<path d="M204.224 4.75727V17.6973H213.784V14.5173H208.024V4.75727H204.224ZM226.206 12.7973V4.75727H222.646V12.5773C222.646 13.8973 221.826 14.6573 220.646 14.6573C219.466 14.6573 218.626 13.8973 218.626 12.5773V4.75727H214.826V12.7973C214.826 15.9773 217.126 17.9573 220.586 17.9573C223.946 17.9573 226.206 15.9773 226.206 12.7973ZM240.782 17.6973V10.6373H235.202V13.3173H237.262V13.9173C236.982 14.3773 235.902 14.9373 234.722 14.9373C233.062 14.9373 231.902 13.4373 231.902 11.3973C231.902 9.27726 233.062 7.73727 234.722 7.73727C235.822 7.73727 236.882 8.53726 237.202 9.61727L240.562 8.41727C239.762 6.13727 237.302 4.49727 234.662 4.49727C230.702 4.49727 227.842 7.45727 227.842 11.5173C227.842 15.2973 230.542 18.0373 234.102 18.0373C235.842 18.0373 237.102 17.3973 237.822 16.4573L237.902 17.6973H240.782Z" fill="white"/>
<path opacity="0.2" d="M311.082 7.37726H311.122L312.962 12.4973H309.242L311.082 7.37726ZM307.362 17.6973L308.542 14.3973H313.662L314.842 17.6973H317.282L312.422 4.75727H309.922L305.062 17.6973H307.362ZM330.026 17.6973V10.9373H325.326V12.7973H327.806V14.0973C327.506 14.9773 326.086 15.9373 324.426 15.9373C322.146 15.9373 320.486 14.0373 320.486 11.3773C320.486 8.57727 322.146 6.57726 324.426 6.57726C325.826 6.57726 327.226 7.53727 327.786 8.87727L329.846 8.11726C329.066 6.03727 326.746 4.53726 324.366 4.53726C320.646 4.53726 317.966 7.41727 317.986 11.3973C318.006 15.1973 320.586 17.9573 324.126 17.9573C325.946 17.9573 327.386 17.1773 328.066 16.1573L328.186 17.6973H330.026ZM344.672 11.2373C344.672 7.35727 342.012 4.53726 338.312 4.53726C334.612 4.53726 331.932 7.33727 331.932 11.2173C331.932 15.1173 334.612 17.9573 338.312 17.9573C342.012 17.9573 344.672 15.1373 344.672 11.2373ZM334.432 11.2173C334.432 8.53726 336.052 6.59727 338.312 6.59727C340.552 6.59727 342.172 8.53726 342.172 11.2173C342.172 13.9373 340.552 15.8973 338.312 15.8973C336.052 15.8973 334.432 13.9373 334.432 11.2173Z" fill="white"/>
<path opacity="0.2" d="M410.701 4.53726C407.981 4.53726 405.761 6.17726 405.761 8.45727C405.761 10.6973 407.621 11.5973 410.261 12.2573C412.381 12.7773 413.321 13.1773 413.321 14.2173C413.321 15.3173 412.261 16.0173 410.801 16.0173C408.961 16.0173 407.841 15.1573 407.221 13.8573L405.241 14.6573C406.161 16.6773 408.081 17.9573 410.781 17.9573C413.661 17.9573 415.701 16.3373 415.701 13.9773C415.701 11.7173 413.821 10.7973 411.161 10.1173C409.021 9.59727 408.141 9.21727 408.141 8.23727C408.141 7.21726 409.301 6.45726 410.721 6.45726C412.161 6.45726 413.261 7.21726 413.841 8.45727L415.781 7.61727C414.941 5.85727 413.221 4.53726 410.701 4.53726ZM427.316 17.6973V15.7173H420.556V12.1973H425.936V10.2773H420.556V6.73726H427.176V4.75727H418.196V17.6973H427.316ZM438.959 6.77727V4.75727H428.459V6.77727H432.519V17.6973H434.879V6.77727H438.959ZM450.111 6.77727V4.75727H439.611V6.77727H443.671V17.6973H446.031V6.77727H450.111Z" fill="white"/>
<path opacity="0.2" d="M523.044 11.2373C523.044 7.35727 520.384 4.53726 516.684 4.53726C512.984 4.53726 510.304 7.33727 510.304 11.2173C510.304 15.1173 512.984 17.9573 516.684 17.9573C520.384 17.9573 523.044 15.1373 523.044 11.2373ZM512.804 11.2173C512.804 8.53726 514.424 6.59727 516.684 6.59727C518.924 6.59727 520.544 8.53726 520.544 11.2173C520.544 13.9373 518.924 15.8973 516.684 15.8973C514.424 15.8973 512.804 13.9373 512.804 11.2173ZM534.171 6.77727V4.75727H523.671V6.77727H527.731V17.6973H530.091V6.77727H534.171ZM545.323 6.77727V4.75727H534.823V6.77727H538.883V17.6973H541.243V6.77727H545.323Z" fill="white"/>
<path opacity="0.2" d="M614.132 17.6973V8.89727L620.652 17.6973H622.692V4.75727H620.472V13.6373L613.952 4.75727H611.912V17.6973H614.132ZM637.896 11.2373C637.896 7.35727 635.236 4.53726 631.536 4.53726C627.836 4.53726 625.156 7.33727 625.156 11.2173C625.156 15.1173 627.836 17.9573 631.536 17.9573C635.236 17.9573 637.896 15.1373 637.896 11.2373ZM627.656 11.2173C627.656 8.53726 629.276 6.59727 631.536 6.59727C633.776 6.59727 635.396 8.53726 635.396 11.2173C635.396 13.9373 633.776 15.8973 631.536 15.8973C629.276 15.8973 627.656 13.9373 627.656 11.2173ZM645.737 17.6973L650.197 4.75727H647.937L644.597 14.9373H644.537L641.137 4.75727H638.677L643.197 17.6973H645.737Z" fill="white"/>
<path opacity="0.2" d="M720.835 17.6973C724.735 17.6973 727.575 14.9373 727.575 11.1373C727.575 7.43727 724.735 4.75727 720.835 4.75727H716.695V17.6973H720.835ZM719.055 6.77727H720.755C723.255 6.77727 725.075 8.59727 725.075 11.1373C725.075 13.7773 723.255 15.6773 720.755 15.6773H719.055V6.77727ZM732.394 4.75727H730.034V17.6973H732.394V4.75727ZM746.28 14.2773L744.24 13.5173C743.68 14.9173 742.34 15.8973 741.06 15.8973C738.92 15.8973 737.38 14.0173 737.38 11.3573C737.38 8.57727 738.92 6.57726 741.06 6.57726C742.28 6.57726 743.54 7.55727 744.08 8.87727L746.22 8.09727C745.38 6.01726 743.26 4.53726 740.94 4.53726C737.42 4.53726 734.88 7.41727 734.88 11.3773C734.88 15.2173 737.4 17.9573 740.94 17.9573C743.28 17.9573 745.52 16.4173 746.28 14.2773Z" fill="white"/>
<defs>
<linearGradient id="paint0_linear_524_802" x1="639.621" y1="38.2607" x2="639.621" y2="693.261" gradientUnits="userSpaceOnUse">
<stop stop-color="white"/>
<stop offset="0.977382" stop-color="white" stop-opacity="0"/>
</linearGradient>
<linearGradient id="paint1_linear_524_802" x1="435.48" y1="38.2607" x2="551.244" y2="705.282" gradientUnits="userSpaceOnUse">
<stop stop-color="white"/>
<stop offset="0.958307" stop-color="white" stop-opacity="0"/>
</linearGradient>
<linearGradient id="paint2_linear_524_802" x1="535.199" y1="38.2607" x2="459.66" y2="704.636" gradientUnits="userSpaceOnUse">
<stop stop-color="white"/>
<stop offset="0.983066" stop-color="white" stop-opacity="0"/>
</linearGradient>
<linearGradient id="paint3_linear_524_802" x1="332.48" y1="38.2607" x2="386.1" y2="703.447" gradientUnits="userSpaceOnUse">
<stop stop-color="#F6F6F6"/>
<stop offset="0.958936" stop-color="white" stop-opacity="0"/>
</linearGradient>
<linearGradient id="paint4_linear_524_802" x1="230.102" y1="38.2607" x2="230.102" y2="693.261" gradientUnits="userSpaceOnUse">
<stop stop-color="white"/>
<stop offset="1" stop-color="white" stop-opacity="0"/>
</linearGradient>
<linearGradient id="paint5_linear_524_802" x1="127.723" y1="38.2607" x2="323.346" y2="808.99" gradientUnits="userSpaceOnUse">
<stop stop-color="white"/>
<stop offset="0.859787" stop-color="white" stop-opacity="0"/>
</linearGradient>
<linearGradient id="paint6_linear_524_802" x1="24.3437" y1="38.2607" x2="176.187" y2="706.424" gradientUnits="userSpaceOnUse">
<stop stop-color="white"/>
<stop offset="0.984037" stop-color="white" stop-opacity="0"/>
</linearGradient>
<linearGradient id="paint7_linear_524_802" x1="749" y1="38.2607" x2="749" y2="693.261" gradientUnits="userSpaceOnUse">
<stop stop-color="#F6F6F6"/>
<stop offset="0.976587" stop-color="white" stop-opacity="0"/>
</linearGradient>
</defs>
</svg>
