<svg width="70" height="82" viewBox="0 0 70 82" fill="none" xmlns="http://www.w3.org/2000/svg">
<path fill-rule="evenodd" clip-rule="evenodd" d="M66.1203 64.4336L67.8425 60.5229L67.8843 60.5342L40.5044 3.29601L40.487 3.33551L36.3196 2.21081L36.3372 2.17104L4.80085 17.2564L4.8428 17.2677L3.12048 21.1785L30.5004 78.4168L34.5841 79.5189L66.1203 64.4336Z" fill="#ADFF00"/>
<path d="M10.0392 21.229L36.2019 8.71405L36.6894 9.73311L10.5267 22.2481L10.0392 21.229Z" fill="#121212"/>
<path d="M28.4064 59.6272L54.5691 47.1122L54.8226 47.6422L28.6599 60.1571L28.4064 59.6272Z" fill="#121212"/>
<path d="M11.0875 23.4216L37.2502 10.9067L39.2002 14.9832L13.0375 27.4981L11.0875 23.4216Z" fill="#121212"/>
<path d="M28.9522 60.7683L55.1149 48.2534L56.129 50.3733L29.9663 62.8883L28.9522 60.7683Z" fill="#121212"/>
<path d="M32.0426 67.2289L58.2054 54.714L59.2194 56.8339L33.0567 69.3489L32.0426 67.2289Z" fill="#121212"/>
<path d="M13.5257 28.5174L39.6885 16.0025L41.6385 20.079L15.4757 32.5939L13.5257 28.5174Z" fill="#121212"/>
<path d="M17.9591 37.7857L44.1218 25.2708L47.1436 31.5879L20.9809 44.1029L17.9591 37.7857Z" fill="#121212"/>
<path d="M30.2197 63.4179L56.3824 50.903L57.3965 53.0229L31.2337 65.5379L30.2197 63.4179Z" fill="#121212"/>
<path d="M33.3112 69.8795L59.4739 57.3645L60.488 59.4845L34.3253 71.9994L33.3112 69.8795Z" fill="#121212"/>
<path d="M16.8344 35.4359L42.9972 22.9209L43.5198 24.0134L17.357 36.5284L16.8344 35.4359Z" fill="#121212"/>
<path d="M15.9622 33.6126L42.125 21.0977L42.5097 21.9019L16.3469 34.4168L15.9622 33.6126Z" fill="#121212"/>
<path d="M31.4871 66.0675L57.6499 53.5525L57.8499 53.9707L31.6872 66.4857L31.4871 66.0675Z" fill="#121212"/>
<path d="M34.5782 72.5295L60.7409 60.0145L60.941 60.4328L34.7782 72.9477L34.5782 72.5295Z" fill="#121212"/>
<path d="M21.5194 45.2299L47.6822 32.715L48.0669 33.5192L21.9041 46.0341L21.5194 45.2299Z" fill="#121212"/>
<path d="M22.3256 46.9139L48.4884 34.3989L48.8731 35.2032L22.7103 47.7181L22.3256 46.9139Z" fill="#121212"/>
<path d="M23.0797 48.4902L49.2424 35.9753L50.5845 38.7809L24.4217 51.2958L23.0797 48.4902Z" fill="#121212"/>
<path d="M24.6847 51.847L50.8475 39.3321L53.2388 44.3312L27.0761 56.8462L24.6847 51.847Z" fill="#121212"/>
<path d="M27.34 57.3979L53.5027 44.883L54.2139 46.3697L28.0512 58.8847L27.34 57.3979Z" fill="#121212"/>
<rect x="4.25957" y="21.2055" width="5.38342" height="2.0311" transform="rotate(64.4359 4.25957 21.2055)" fill="#ADFF00"/>
<rect x="7.8019" y="28.611" width="5.38342" height="2.0311" transform="rotate(64.4359 7.8019 28.611)" fill="#ADFF00"/>
<rect x="11.3443" y="36.0164" width="5.38342" height="2.0311" transform="rotate(64.4359 11.3443 36.0164)" fill="#ADFF00"/>
<rect x="14.8867" y="43.4219" width="5.38342" height="2.0311" transform="rotate(64.4359 14.8867 43.4219)" fill="#ADFF00"/>
<rect x="18.4291" y="50.8273" width="5.38342" height="2.0311" transform="rotate(64.4359 18.4291 50.8273)" fill="#ADFF00"/>
<rect x="21.9715" y="58.2328" width="5.38342" height="2.0311" transform="rotate(64.4359 21.9715 58.2328)" fill="#ADFF00"/>
<rect x="25.5138" y="65.6382" width="5.38342" height="2.0311" transform="rotate(64.4359 25.5138 65.6382)" fill="#ADFF00"/>
<rect x="29.0563" y="73.0437" width="5.38342" height="2.0311" transform="rotate(64.4359 29.0563 73.0437)" fill="#ADFF00"/>
</svg>
