<svg width="720" height="47" viewBox="0 0 720 47" fill="none" xmlns="http://www.w3.org/2000/svg">
<g opacity="0.6">
<path d="M20.6627 14.1824V30.8809H31.5799V28.8419H23.0371V14.1824H20.6627ZM44.0089 27.9644L42.2539 27.2934C41.5829 28.6097 40.344 29.4097 38.9504 29.4097C36.8082 29.4097 35.2597 27.6289 35.1048 24.9448H43.9831C44.0605 24.6093 44.1122 23.9124 44.1122 23.3446C44.1122 20.0669 41.8668 17.7441 38.7439 17.7441C35.3371 17.7441 32.8078 20.6347 32.8078 24.5835C32.8078 28.4548 35.3371 31.2164 38.8213 31.2164C41.1183 31.2164 43.1056 30.0034 44.0089 27.9644ZM38.7697 19.5249C40.5763 19.5249 41.841 20.9702 41.9184 23.1898H35.2339C35.621 20.9702 36.9889 19.5249 38.7697 19.5249ZM58.2938 31.7326C58.2938 29.8743 56.9259 28.8936 54.0095 28.6355L52.2029 28.4806C50.3962 28.3258 49.751 28.0161 49.751 27.6289C49.751 27.3192 50.0349 26.8805 50.293 26.5966C50.7318 26.6998 51.2221 26.7514 51.6867 26.7514C54.4741 26.7514 56.7453 24.9448 56.7453 22.4413C56.7453 21.5122 56.4614 20.6347 55.9194 19.8862C56.6162 19.5249 57.726 19.2152 58.7584 19.2152V17.2537C57.184 17.2537 55.9452 18.0022 55.1709 19.0603C54.2418 18.2603 52.9771 17.7441 51.5318 17.7441C48.667 17.7441 46.4217 19.7056 46.4217 22.2865C46.4217 24.1189 47.5573 25.5126 49.1574 26.2352C48.3315 26.803 47.6347 27.6805 47.6347 28.2742C47.6347 28.7903 47.996 29.2291 48.6412 29.5646C47.0411 30.2356 45.8797 31.397 45.8797 32.5584C45.8797 34.6748 48.2283 35.9136 51.8157 35.9136C55.7903 35.9136 58.2938 34.1586 58.2938 31.7326ZM51.8416 34.236C49.4413 34.236 48.0734 33.3585 48.0734 32.2229C48.0734 31.3454 48.8735 30.4937 49.9575 30.0292C50.4737 30.1582 51.0673 30.2614 51.7383 30.3131L53.5449 30.4679C55.6097 30.6486 56.1258 31.1389 56.1258 32.0681C56.1258 33.2811 54.4483 34.236 51.8416 34.236ZM48.6154 22.3123C48.6154 20.6863 49.8543 19.4217 51.5577 19.4217C53.261 19.4217 54.5515 20.6863 54.5515 22.3123C54.5515 23.9124 53.261 25.0738 51.5577 25.0738C49.8543 25.0738 48.6154 23.9124 48.6154 22.3123ZM72.1561 31.7326C72.1561 29.8743 70.7882 28.8936 67.8718 28.6355L66.0651 28.4806C64.2585 28.3258 63.6133 28.0161 63.6133 27.6289C63.6133 27.3192 63.8972 26.8805 64.1553 26.5966C64.594 26.6998 65.0844 26.7514 65.549 26.7514C68.3363 26.7514 70.6075 24.9448 70.6075 22.4413C70.6075 21.5122 70.3236 20.6347 69.7816 19.8862C70.4785 19.5249 71.5883 19.2152 72.6206 19.2152V17.2537C71.0463 17.2537 69.8074 18.0022 69.0332 19.0603C68.104 18.2603 66.8394 17.7441 65.3941 17.7441C62.5293 17.7441 60.2839 19.7056 60.2839 22.2865C60.2839 24.1189 61.4195 25.5126 63.0197 26.2352C62.1938 26.803 61.4969 27.6805 61.4969 28.2742C61.4969 28.7903 61.8583 29.2291 62.5035 29.5646C60.9033 30.2356 59.7419 31.397 59.7419 32.5584C59.7419 34.6748 62.0905 35.9136 65.678 35.9136C69.6526 35.9136 72.1561 34.1586 72.1561 31.7326ZM65.7038 34.236C63.3036 34.236 61.9357 33.3585 61.9357 32.2229C61.9357 31.3454 62.7358 30.4937 63.8197 30.0292C64.3359 30.1582 64.9295 30.2614 65.6006 30.3131L67.4072 30.4679C69.4719 30.6486 69.9881 31.1389 69.9881 32.0681C69.9881 33.2811 68.3105 34.236 65.7038 34.236ZM62.4777 22.3123C62.4777 20.6863 63.7165 19.4217 65.4199 19.4217C67.1233 19.4217 68.4137 20.6863 68.4137 22.3123C68.4137 23.9124 67.1233 25.0738 65.4199 25.0738C63.7165 25.0738 62.4777 23.9124 62.4777 22.3123ZM84.9908 27.9644L83.2358 27.2934C82.5647 28.6097 81.3259 29.4097 79.9322 29.4097C77.7901 29.4097 76.2415 27.6289 76.0867 24.9448H84.965C85.0424 24.6093 85.094 23.9124 85.094 23.3446C85.094 20.0669 82.8486 17.7441 79.7258 17.7441C76.319 17.7441 73.7897 20.6347 73.7897 24.5835C73.7897 28.4548 76.319 31.2164 79.8032 31.2164C82.1002 31.2164 84.0875 30.0034 84.9908 27.9644ZM79.7516 19.5249C81.5582 19.5249 82.8228 20.9702 82.9003 23.1898H76.2157C76.6029 20.9702 77.9707 19.5249 79.7516 19.5249ZM90.3716 30.8809V23.2414C90.578 21.538 91.6104 19.9378 93.5977 19.9378C94.0364 19.9378 94.6559 20.0153 95.0172 20.1185V17.9506C94.7591 17.8473 94.1397 17.7441 93.7009 17.7441C92.204 17.7441 90.8103 19.0603 90.2941 20.6863V18.0796H88.1778V30.8809H90.3716ZM107.834 31.0873L107.937 29.4097C107.782 29.4356 107.524 29.4614 107.369 29.4614C106.595 29.4614 106.208 28.9194 106.208 28.2225V22.3381C106.208 19.37 104.401 17.7441 101.614 17.7441C99.394 17.7441 97.4583 18.9829 96.5292 20.996L98.2326 21.6929C98.8778 20.4798 99.8844 19.5765 101.407 19.5765C102.981 19.5765 104.014 20.6605 104.014 22.2607V23.2672L101.02 23.6285C98.181 23.9899 96.1679 25.3577 96.1679 27.7322C96.1679 29.7711 97.7939 31.2164 100.065 31.2164C101.872 31.2164 103.291 30.3389 104.117 28.971C104.427 30.4421 105.382 31.2164 106.827 31.2164C107.214 31.2164 107.524 31.1648 107.834 31.0873ZM100.659 29.4356C99.3682 29.4356 98.4649 28.6613 98.4649 27.5773C98.4649 26.261 99.7037 25.4868 101.407 25.2803L104.014 24.9706V27.3192C103.343 28.558 102.078 29.4356 100.659 29.4356Z" fill="white"/>
<path d="M593.58 30.8809V28.9452H584.882L588.625 26.261C590.328 25.0222 592.522 23.293 592.522 20.9186C592.522 18.57 590.251 16.815 587.437 16.815C584.831 16.815 582.56 18.3119 581.605 20.5315L583.36 21.3315C583.979 19.7572 585.502 18.6732 587.205 18.6732C588.831 18.6732 590.199 19.6798 590.199 21.0992C590.199 22.4671 589.012 23.4737 587.541 24.6093L581.682 29.0742V30.8809H593.58ZM595.595 23.9899C595.595 28.1709 598.279 31.2164 601.97 31.2164C605.661 31.2164 608.345 28.1709 608.345 23.9899C608.345 19.8346 605.661 16.815 601.97 16.815C598.279 16.815 595.595 19.8346 595.595 23.9899ZM597.918 23.9899C597.918 20.9186 599.622 18.6474 601.97 18.6474C604.319 18.6474 606.022 20.9186 606.022 23.9899C606.022 27.1127 604.319 29.3839 601.97 29.3839C599.622 29.3839 597.918 27.1127 597.918 23.9899ZM615.365 17.1247L610.487 19.1636L611.132 20.9186L614.848 19.4733V29.0742H610.796V30.8809H620.552V29.0742H617.042V17.1247H615.365ZM627.991 24.2996C625.823 24.2996 624.636 23.2156 624.636 21.7187C624.636 20.0153 626.262 18.6732 628.223 18.6732C630.262 18.6732 631.759 20.0153 632.301 22.1832C631.269 23.5769 629.746 24.2996 627.991 24.2996ZM622.339 21.667C622.339 24.2479 624.532 26.132 627.655 26.132C629.462 26.132 631.346 25.461 632.533 24.1705C632.533 27.2676 630.907 29.3839 628.042 29.3839C626.339 29.3839 624.739 28.6097 623.629 27.4999L622.132 28.6613C623.397 30.1582 625.668 31.2164 628.12 31.2164C632.172 31.2164 634.804 28.2742 634.804 24.0157C634.804 19.7572 632.146 16.8408 628.223 16.8408C624.945 16.8408 622.339 18.9055 622.339 21.667Z" fill="white"/>
<rect x="0.926758" y="1.38086" width="155.567" height="44.346" stroke="white"/>
<rect x="563.082" y="1.38086" width="155.567" height="44.346" stroke="white"/>
<path d="M137.523 29.3848L132.473 20.6386L142.572 20.6386L137.523 29.3848Z" fill="white"/>
<path d="M699.678 28.2116L694.628 19.4655L704.727 19.4655L699.678 28.2116Z" fill="white"/>
</g>
</svg>
