<svg width="721" height="640" viewBox="0 0 721 640" fill="none" xmlns="http://www.w3.org/2000/svg">
<rect x="3.99994" y="99.478" width="10.3867" height="10.3867" fill="#ADFF00"/>
<rect x="427.908" y="99.478" width="10.3867" height="10.3867" fill="#ADFF00"/>
<rect x="32.3857" y="99.478" width="10.3867" height="10.3867" fill="#ADFF00"/>
<rect x="453.294" y="99.478" width="10.3867" height="10.3867" fill="#ADFF00"/>
<rect x="60.7714" y="98.8813" width="10.3867" height="10.3867" fill="#ADFF00"/>
<rect x="481.68" y="98.8813" width="10.3867" height="10.3867" fill="#ADFF00"/>
<rect x="89.1562" y="98.8813" width="10.3867" height="10.3867" fill="#ADFF00"/>
<rect x="510.065" y="98.8813" width="10.3867" height="10.3867" fill="#ADFF00"/>
<rect x="117.541" y="98.8813" width="10.3867" height="10.3867" fill="#ADFF00"/>
<rect x="538.45" y="98.8813" width="10.3867" height="10.3867" fill="#ADFF00"/>
<rect x="145.927" y="98.8813" width="10.3867" height="10.3867" fill="#ADFF00"/>
<rect x="566.835" y="98.8813" width="10.3867" height="10.3867" fill="#ADFF00"/>
<rect x="174.312" y="98.8813" width="10.3867" height="10.3867" fill="#ADFF00"/>
<rect x="595.221" y="98.8813" width="10.3867" height="10.3867" fill="#ADFF00"/>
<rect x="202.697" y="98.8813" width="10.3867" height="10.3867" fill="#ADFF00"/>
<rect x="623.606" y="98.8813" width="10.3867" height="10.3867" fill="#ADFF00"/>
<rect x="231.082" y="98.8813" width="10.3867" height="10.3867" fill="#ADFF00"/>
<rect x="651.991" y="98.8813" width="10.3867" height="10.3867" fill="#ADFF00"/>
<rect x="259.467" y="98.8813" width="10.3867" height="10.3867" fill="#ADFF00"/>
<rect x="680.376" y="98.8813" width="10.3867" height="10.3867" fill="#ADFF00"/>
<rect x="287.853" y="98.8813" width="10.3867" height="10.3867" fill="#ADFF00"/>
<rect x="708.762" y="98.8813" width="10.3867" height="10.3867" fill="#ADFF00"/>
<rect x="316.238" y="98.8813" width="10.3867" height="10.3867" fill="#ADFF00"/>
<rect x="344.622" y="98.8813" width="10.3867" height="10.3867" fill="#ADFF00"/>
<rect x="373.008" y="98.8813" width="10.3867" height="10.3867" fill="#ADFF00"/>
<rect x="401.394" y="98.8813" width="10.3867" height="10.3867" fill="#ADFF00"/>
<rect x="3.99994" y="124.435" width="10.3867" height="10.3867" fill="#ADFF00"/>
<rect x="427.908" y="124.435" width="10.3867" height="10.3867" fill="#ADFF00"/>
<rect x="3.99994" y="149.392" width="10.3867" height="10.3867" fill="#ADFF00"/>
<rect x="427.908" y="149.392" width="10.3867" height="10.3867" fill="#ADFF00"/>
<rect x="3.99994" y="174.35" width="10.3867" height="10.3867" fill="#ADFF00"/>
<rect x="427.908" y="174.35" width="10.3867" height="10.3867" fill="#ADFF00"/>
<rect x="3.99994" y="199.307" width="10.3867" height="10.3867" fill="#ADFF00"/>
<rect x="427.908" y="199.307" width="10.3867" height="10.3867" fill="#ADFF00"/>
<rect x="3.99994" y="224.264" width="10.3867" height="10.3867" fill="#ADFF00"/>
<rect x="427.908" y="224.264" width="10.3867" height="10.3867" fill="#ADFF00"/>
<rect x="3.99994" y="249.222" width="10.3867" height="10.3867" fill="#ADFF00"/>
<rect x="427.908" y="249.222" width="10.3867" height="10.3867" fill="#ADFF00"/>
<rect x="3.99994" y="274.179" width="10.3867" height="10.3867" fill="#ADFF00"/>
<rect x="427.908" y="274.179" width="10.3867" height="10.3867" fill="#ADFF00"/>
<rect x="3.99994" y="299.137" width="10.3867" height="10.3867" fill="#ADFF00"/>
<rect x="427.908" y="299.137" width="10.3867" height="10.3867" fill="#ADFF00"/>
<rect x="3.99994" y="324.094" width="10.3867" height="10.3867" fill="#ADFF00"/>
<rect x="427.908" y="324.094" width="10.3867" height="10.3867" fill="#ADFF00"/>
<rect x="3.99994" y="349.051" width="10.3867" height="10.3867" fill="#ADFF00"/>
<rect x="427.908" y="349.051" width="10.3867" height="10.3867" fill="#ADFF00"/>
<rect x="3.99994" y="374.009" width="10.3867" height="10.3867" fill="#ADFF00"/>
<rect x="427.908" y="374.009" width="10.3867" height="10.3867" fill="#ADFF00"/>
<rect x="3.99994" y="398.966" width="10.3867" height="10.3867" fill="#ADFF00"/>
<rect x="427.908" y="398.966" width="10.3867" height="10.3867" fill="#ADFF00"/>
<rect x="3.99994" y="423.924" width="10.3867" height="10.3867" fill="#ADFF00"/>
<rect x="427.908" y="423.924" width="10.3867" height="10.3867" fill="#ADFF00"/>
<rect opacity="0.4" x="3.99994" y="448.881" width="10.3867" height="10.3867" fill="white"/>
<rect opacity="0.4" x="427.908" y="448.881" width="10.3867" height="10.3867" fill="white"/>
<rect opacity="0.4" x="3.99994" y="473.839" width="10.3867" height="10.3867" fill="white"/>
<rect opacity="0.4" x="427.908" y="473.839" width="10.3867" height="10.3867" fill="white"/>
<rect x="32.3857" y="124.435" width="10.3867" height="10.3867" fill="#ADFF00"/>
<rect x="453.294" y="124.435" width="10.3867" height="10.3867" fill="#ADFF00"/>
<rect x="32.3857" y="149.392" width="10.3867" height="10.3867" fill="#ADFF00"/>
<rect x="453.294" y="149.392" width="10.3867" height="10.3867" fill="#ADFF00"/>
<rect x="32.3857" y="174.35" width="10.3867" height="10.3867" fill="#ADFF00"/>
<rect x="453.294" y="174.35" width="10.3867" height="10.3867" fill="#ADFF00"/>
<rect x="32.3857" y="199.307" width="10.3867" height="10.3867" fill="#ADFF00"/>
<rect x="453.294" y="199.307" width="10.3867" height="10.3867" fill="#ADFF00"/>
<rect x="32.3857" y="224.264" width="10.3867" height="10.3867" fill="#ADFF00"/>
<rect x="453.294" y="224.264" width="10.3867" height="10.3867" fill="#ADFF00"/>
<rect x="32.3857" y="249.222" width="10.3867" height="10.3867" fill="#ADFF00"/>
<rect x="453.294" y="249.222" width="10.3867" height="10.3867" fill="#ADFF00"/>
<rect x="32.3857" y="274.179" width="10.3867" height="10.3867" fill="#ADFF00"/>
<rect x="453.294" y="274.179" width="10.3867" height="10.3867" fill="#ADFF00"/>
<rect x="32.3857" y="299.137" width="10.3867" height="10.3867" fill="#ADFF00"/>
<rect x="453.294" y="299.137" width="10.3867" height="10.3867" fill="#ADFF00"/>
<rect x="32.3857" y="324.094" width="10.3867" height="10.3867" fill="#ADFF00"/>
<rect x="453.294" y="324.094" width="10.3867" height="10.3867" fill="#ADFF00"/>
<rect x="32.3857" y="349.051" width="10.3867" height="10.3867" fill="#ADFF00"/>
<rect x="453.294" y="349.051" width="10.3867" height="10.3867" fill="#ADFF00"/>
<rect x="32.3857" y="374.009" width="10.3867" height="10.3867" fill="#ADFF00"/>
<rect x="453.294" y="374.009" width="10.3867" height="10.3867" fill="#ADFF00"/>
<rect x="32.3857" y="398.966" width="10.3867" height="10.3867" fill="#ADFF00"/>
<rect x="453.294" y="398.966" width="10.3867" height="10.3867" fill="#ADFF00"/>
<rect x="32.3857" y="423.924" width="10.3867" height="10.3867" fill="#ADFF00"/>
<rect opacity="0.4" x="453.294" y="423.924" width="10.3867" height="10.3867" fill="white"/>
<rect opacity="0.4" x="32.3857" y="448.881" width="10.3867" height="10.3867" fill="white"/>
<rect opacity="0.4" x="453.294" y="448.881" width="10.3867" height="10.3867" fill="white"/>
<rect opacity="0.4" x="32.3857" y="473.839" width="10.3867" height="10.3867" fill="white"/>
<rect opacity="0.4" x="453.294" y="473.839" width="10.3867" height="10.3867" fill="white"/>
<rect x="60.7714" y="123.839" width="10.3867" height="10.3867" fill="#ADFF00"/>
<rect x="481.68" y="123.839" width="10.3867" height="10.3867" fill="#ADFF00"/>
<rect x="60.7714" y="148.796" width="10.3867" height="10.3867" fill="#ADFF00"/>
<rect x="481.68" y="148.796" width="10.3867" height="10.3867" fill="#ADFF00"/>
<rect x="60.7714" y="173.753" width="10.3867" height="10.3867" fill="#ADFF00"/>
<rect x="481.68" y="173.753" width="10.3867" height="10.3867" fill="#ADFF00"/>
<rect x="60.7714" y="198.711" width="10.3867" height="10.3867" fill="#ADFF00"/>
<rect x="481.68" y="198.711" width="10.3867" height="10.3867" fill="#ADFF00"/>
<rect x="60.7714" y="223.668" width="10.3867" height="10.3867" fill="#ADFF00"/>
<rect x="481.68" y="223.668" width="10.3867" height="10.3867" fill="#ADFF00"/>
<rect x="60.7714" y="248.626" width="10.3867" height="10.3867" fill="#ADFF00"/>
<rect x="481.68" y="248.626" width="10.3867" height="10.3867" fill="#ADFF00"/>
<rect x="60.7714" y="273.583" width="10.3867" height="10.3867" fill="#ADFF00"/>
<rect x="481.68" y="273.583" width="10.3867" height="10.3867" fill="#ADFF00"/>
<rect x="60.7714" y="298.541" width="10.3867" height="10.3867" fill="#ADFF00"/>
<rect x="481.68" y="298.541" width="10.3867" height="10.3867" fill="#ADFF00"/>
<rect x="60.7714" y="323.499" width="10.3867" height="10.3867" fill="#ADFF00"/>
<rect x="481.68" y="323.499" width="10.3867" height="10.3867" fill="#ADFF00"/>
<rect x="60.7714" y="348.456" width="10.3867" height="10.3867" fill="#ADFF00"/>
<rect x="481.68" y="348.456" width="10.3867" height="10.3867" fill="#ADFF00"/>
<rect x="60.7714" y="373.414" width="10.3867" height="10.3867" fill="#ADFF00"/>
<rect x="481.68" y="373.414" width="10.3867" height="10.3867" fill="#ADFF00"/>
<rect x="60.7714" y="398.371" width="10.3867" height="10.3867" fill="#ADFF00"/>
<rect x="481.68" y="398.371" width="10.3867" height="10.3867" fill="#ADFF00"/>
<rect x="60.7714" y="423.329" width="10.3867" height="10.3867" fill="#ADFF00"/>
<rect opacity="0.4" x="481.68" y="423.329" width="10.3867" height="10.3867" fill="white"/>
<rect opacity="0.4" x="60.7714" y="448.286" width="10.3867" height="10.3867" fill="white"/>
<rect opacity="0.4" x="481.68" y="448.286" width="10.3867" height="10.3867" fill="white"/>
<rect opacity="0.4" x="60.7714" y="473.243" width="10.3867" height="10.3867" fill="white"/>
<rect opacity="0.4" x="481.68" y="473.243" width="10.3867" height="10.3867" fill="white"/>
<rect x="89.1562" y="123.839" width="10.3867" height="10.3867" fill="#ADFF00"/>
<rect x="510.065" y="123.839" width="10.3867" height="10.3867" fill="#ADFF00"/>
<rect x="89.1562" y="148.796" width="10.3867" height="10.3867" fill="#ADFF00"/>
<rect x="510.065" y="148.796" width="10.3867" height="10.3867" fill="#ADFF00"/>
<rect x="89.1562" y="173.753" width="10.3867" height="10.3867" fill="#ADFF00"/>
<rect x="510.065" y="173.753" width="10.3867" height="10.3867" fill="#ADFF00"/>
<rect x="89.1562" y="198.711" width="10.3867" height="10.3867" fill="#ADFF00"/>
<rect x="510.065" y="198.711" width="10.3867" height="10.3867" fill="#ADFF00"/>
<rect x="89.1562" y="223.668" width="10.3867" height="10.3867" fill="#ADFF00"/>
<rect x="510.065" y="223.668" width="10.3867" height="10.3867" fill="#ADFF00"/>
<rect x="89.1562" y="248.626" width="10.3867" height="10.3867" fill="#ADFF00"/>
<rect x="510.065" y="248.626" width="10.3867" height="10.3867" fill="#ADFF00"/>
<rect x="89.1562" y="273.583" width="10.3867" height="10.3867" fill="#ADFF00"/>
<rect x="510.065" y="273.583" width="10.3867" height="10.3867" fill="#ADFF00"/>
<rect x="89.1562" y="298.541" width="10.3867" height="10.3867" fill="#ADFF00"/>
<rect x="510.065" y="298.541" width="10.3867" height="10.3867" fill="#ADFF00"/>
<rect x="89.1562" y="323.499" width="10.3867" height="10.3867" fill="#ADFF00"/>
<rect x="510.065" y="323.499" width="10.3867" height="10.3867" fill="#ADFF00"/>
<rect x="89.1562" y="348.456" width="10.3867" height="10.3867" fill="#ADFF00"/>
<rect x="510.065" y="348.456" width="10.3867" height="10.3867" fill="#ADFF00"/>
<rect x="89.1562" y="373.414" width="10.3867" height="10.3867" fill="#ADFF00"/>
<rect x="510.065" y="373.414" width="10.3867" height="10.3867" fill="#ADFF00"/>
<rect x="89.1562" y="398.371" width="10.3867" height="10.3867" fill="#ADFF00"/>
<rect x="510.065" y="398.371" width="10.3867" height="10.3867" fill="#ADFF00"/>
<rect x="89.1562" y="423.329" width="10.3867" height="10.3867" fill="#ADFF00"/>
<rect opacity="0.4" x="510.065" y="423.329" width="10.3867" height="10.3867" fill="white"/>
<rect opacity="0.4" x="89.1562" y="448.286" width="10.3867" height="10.3867" fill="white"/>
<rect opacity="0.4" x="510.065" y="448.286" width="10.3867" height="10.3867" fill="white"/>
<rect opacity="0.4" x="89.1562" y="473.243" width="10.3867" height="10.3867" fill="white"/>
<rect opacity="0.4" x="510.065" y="473.243" width="10.3867" height="10.3867" fill="white"/>
<rect x="117.541" y="123.839" width="10.3867" height="10.3867" fill="#ADFF00"/>
<rect x="538.45" y="123.839" width="10.3867" height="10.3867" fill="#ADFF00"/>
<rect x="117.541" y="148.796" width="10.3867" height="10.3867" fill="#ADFF00"/>
<rect x="538.45" y="148.796" width="10.3867" height="10.3867" fill="#ADFF00"/>
<rect x="117.541" y="173.753" width="10.3867" height="10.3867" fill="#ADFF00"/>
<rect x="538.45" y="173.753" width="10.3867" height="10.3867" fill="#ADFF00"/>
<rect x="117.541" y="198.711" width="10.3867" height="10.3867" fill="#ADFF00"/>
<rect x="538.45" y="198.711" width="10.3867" height="10.3867" fill="#ADFF00"/>
<rect x="117.541" y="223.668" width="10.3867" height="10.3867" fill="#ADFF00"/>
<rect x="538.45" y="223.668" width="10.3867" height="10.3867" fill="#ADFF00"/>
<rect x="117.541" y="248.626" width="10.3867" height="10.3867" fill="#ADFF00"/>
<rect x="538.45" y="248.626" width="10.3867" height="10.3867" fill="#ADFF00"/>
<rect x="117.541" y="273.583" width="10.3867" height="10.3867" fill="#ADFF00"/>
<rect x="538.45" y="273.583" width="10.3867" height="10.3867" fill="#ADFF00"/>
<rect x="117.541" y="298.541" width="10.3867" height="10.3867" fill="#ADFF00"/>
<rect x="538.45" y="298.541" width="10.3867" height="10.3867" fill="#ADFF00"/>
<rect x="117.541" y="323.499" width="10.3867" height="10.3867" fill="#ADFF00"/>
<rect x="538.45" y="323.499" width="10.3867" height="10.3867" fill="#ADFF00"/>
<rect x="117.541" y="348.456" width="10.3867" height="10.3867" fill="#ADFF00"/>
<rect x="538.45" y="348.456" width="10.3867" height="10.3867" fill="#ADFF00"/>
<rect x="117.541" y="373.414" width="10.3867" height="10.3867" fill="#ADFF00"/>
<rect x="538.45" y="373.414" width="10.3867" height="10.3867" fill="#ADFF00"/>
<rect x="117.541" y="398.371" width="10.3867" height="10.3867" fill="#ADFF00"/>
<rect x="538.45" y="398.371" width="10.3867" height="10.3867" fill="#ADFF00"/>
<rect x="117.541" y="423.329" width="10.3867" height="10.3867" fill="#ADFF00"/>
<rect opacity="0.4" x="538.45" y="423.329" width="10.3867" height="10.3867" fill="white"/>
<rect opacity="0.4" x="117.541" y="448.286" width="10.3867" height="10.3867" fill="white"/>
<rect opacity="0.4" x="538.45" y="448.286" width="10.3867" height="10.3867" fill="white"/>
<rect opacity="0.4" x="117.541" y="473.243" width="10.3867" height="10.3867" fill="white"/>
<rect opacity="0.4" x="538.45" y="473.243" width="10.3867" height="10.3867" fill="white"/>
<rect x="145.927" y="123.839" width="10.3867" height="10.3867" fill="#ADFF00"/>
<rect x="566.835" y="123.839" width="10.3867" height="10.3867" fill="#ADFF00"/>
<rect x="145.927" y="148.796" width="10.3867" height="10.3867" fill="#ADFF00"/>
<rect x="566.835" y="148.796" width="10.3867" height="10.3867" fill="#ADFF00"/>
<rect x="145.927" y="173.753" width="10.3867" height="10.3867" fill="#ADFF00"/>
<rect x="566.835" y="173.753" width="10.3867" height="10.3867" fill="#ADFF00"/>
<rect x="145.927" y="198.711" width="10.3867" height="10.3867" fill="#ADFF00"/>
<rect x="566.835" y="198.711" width="10.3867" height="10.3867" fill="#ADFF00"/>
<rect x="145.927" y="223.668" width="10.3867" height="10.3867" fill="#ADFF00"/>
<rect x="566.835" y="223.668" width="10.3867" height="10.3867" fill="#ADFF00"/>
<rect x="145.927" y="248.626" width="10.3867" height="10.3867" fill="#ADFF00"/>
<rect x="566.835" y="248.626" width="10.3867" height="10.3867" fill="#ADFF00"/>
<rect x="145.927" y="273.583" width="10.3867" height="10.3867" fill="#ADFF00"/>
<rect x="566.835" y="273.583" width="10.3867" height="10.3867" fill="#ADFF00"/>
<rect x="145.927" y="298.541" width="10.3867" height="10.3867" fill="#ADFF00"/>
<rect x="566.835" y="298.541" width="10.3867" height="10.3867" fill="#ADFF00"/>
<rect x="145.927" y="323.499" width="10.3867" height="10.3867" fill="#ADFF00"/>
<rect x="566.835" y="323.499" width="10.3867" height="10.3867" fill="#ADFF00"/>
<rect x="145.927" y="348.456" width="10.3867" height="10.3867" fill="#ADFF00"/>
<rect x="566.835" y="348.456" width="10.3867" height="10.3867" fill="#ADFF00"/>
<rect x="145.927" y="373.414" width="10.3867" height="10.3867" fill="#ADFF00"/>
<rect x="566.835" y="373.414" width="10.3867" height="10.3867" fill="#ADFF00"/>
<rect x="145.927" y="398.371" width="10.3867" height="10.3867" fill="#ADFF00"/>
<rect x="566.835" y="398.371" width="10.3867" height="10.3867" fill="#ADFF00"/>
<rect x="145.927" y="423.329" width="10.3867" height="10.3867" fill="#ADFF00"/>
<rect opacity="0.4" x="566.835" y="423.329" width="10.3867" height="10.3867" fill="white"/>
<rect opacity="0.4" x="145.927" y="448.286" width="10.3867" height="10.3867" fill="white"/>
<rect opacity="0.4" x="566.835" y="448.286" width="10.3867" height="10.3867" fill="white"/>
<rect opacity="0.4" x="145.927" y="473.243" width="10.3867" height="10.3867" fill="white"/>
<rect opacity="0.4" x="566.835" y="473.243" width="10.3867" height="10.3867" fill="white"/>
<rect x="174.312" y="123.839" width="10.3867" height="10.3867" fill="#ADFF00"/>
<rect x="595.221" y="123.839" width="10.3867" height="10.3867" fill="#ADFF00"/>
<rect x="174.312" y="148.796" width="10.3867" height="10.3867" fill="#ADFF00"/>
<rect x="595.221" y="148.796" width="10.3867" height="10.3867" fill="#ADFF00"/>
<rect x="174.312" y="173.753" width="10.3867" height="10.3867" fill="#ADFF00"/>
<rect x="595.221" y="173.753" width="10.3867" height="10.3867" fill="#ADFF00"/>
<rect x="174.312" y="198.711" width="10.3867" height="10.3867" fill="#ADFF00"/>
<rect x="595.221" y="198.711" width="10.3867" height="10.3867" fill="#ADFF00"/>
<rect x="174.312" y="223.668" width="10.3867" height="10.3867" fill="#ADFF00"/>
<rect x="595.221" y="223.668" width="10.3867" height="10.3867" fill="#ADFF00"/>
<rect x="174.312" y="248.626" width="10.3867" height="10.3867" fill="#ADFF00"/>
<rect x="595.221" y="248.626" width="10.3867" height="10.3867" fill="#ADFF00"/>
<rect x="174.312" y="273.583" width="10.3867" height="10.3867" fill="#ADFF00"/>
<rect x="595.221" y="273.583" width="10.3867" height="10.3867" fill="#ADFF00"/>
<rect x="174.312" y="298.541" width="10.3867" height="10.3867" fill="#ADFF00"/>
<rect x="595.221" y="298.541" width="10.3867" height="10.3867" fill="#ADFF00"/>
<rect x="174.312" y="323.499" width="10.3867" height="10.3867" fill="#ADFF00"/>
<rect x="595.221" y="323.499" width="10.3867" height="10.3867" fill="#ADFF00"/>
<rect x="174.312" y="348.456" width="10.3867" height="10.3867" fill="#ADFF00"/>
<rect x="595.221" y="348.456" width="10.3867" height="10.3867" fill="#ADFF00"/>
<rect x="174.312" y="373.414" width="10.3867" height="10.3867" fill="#ADFF00"/>
<rect x="595.221" y="373.414" width="10.3867" height="10.3867" fill="#ADFF00"/>
<rect x="174.312" y="398.371" width="10.3867" height="10.3867" fill="#ADFF00"/>
<rect x="595.221" y="398.371" width="10.3867" height="10.3867" fill="#ADFF00"/>
<rect x="174.312" y="423.329" width="10.3867" height="10.3867" fill="#ADFF00"/>
<rect opacity="0.4" x="595.221" y="423.329" width="10.3867" height="10.3867" fill="white"/>
<rect opacity="0.4" x="174.312" y="448.286" width="10.3867" height="10.3867" fill="white"/>
<rect opacity="0.4" x="595.221" y="448.286" width="10.3867" height="10.3867" fill="white"/>
<rect opacity="0.4" x="174.312" y="473.243" width="10.3867" height="10.3867" fill="white"/>
<rect opacity="0.4" x="595.221" y="473.243" width="10.3867" height="10.3867" fill="white"/>
<rect x="202.697" y="123.839" width="10.3867" height="10.3867" fill="#ADFF00"/>
<rect x="623.606" y="123.839" width="10.3867" height="10.3867" fill="#ADFF00"/>
<rect x="202.697" y="148.796" width="10.3867" height="10.3867" fill="#ADFF00"/>
<rect x="623.606" y="148.796" width="10.3867" height="10.3867" fill="#ADFF00"/>
<rect x="202.697" y="173.753" width="10.3867" height="10.3867" fill="#ADFF00"/>
<rect x="623.606" y="173.753" width="10.3867" height="10.3867" fill="#ADFF00"/>
<rect x="202.697" y="198.711" width="10.3867" height="10.3867" fill="#ADFF00"/>
<rect x="623.606" y="198.711" width="10.3867" height="10.3867" fill="#ADFF00"/>
<rect x="202.697" y="223.668" width="10.3867" height="10.3867" fill="#ADFF00"/>
<rect x="623.606" y="223.668" width="10.3867" height="10.3867" fill="#ADFF00"/>
<rect x="202.697" y="248.626" width="10.3867" height="10.3867" fill="#ADFF00"/>
<rect x="623.606" y="248.626" width="10.3867" height="10.3867" fill="#ADFF00"/>
<rect x="202.697" y="273.583" width="10.3867" height="10.3867" fill="#ADFF00"/>
<rect x="623.606" y="273.583" width="10.3867" height="10.3867" fill="#ADFF00"/>
<rect x="202.697" y="298.541" width="10.3867" height="10.3867" fill="#ADFF00"/>
<rect x="623.606" y="298.541" width="10.3867" height="10.3867" fill="#ADFF00"/>
<rect x="202.697" y="323.499" width="10.3867" height="10.3867" fill="#ADFF00"/>
<rect x="623.606" y="323.499" width="10.3867" height="10.3867" fill="#ADFF00"/>
<rect x="202.697" y="348.456" width="10.3867" height="10.3867" fill="#ADFF00"/>
<rect x="623.606" y="348.456" width="10.3867" height="10.3867" fill="#ADFF00"/>
<rect x="202.697" y="373.414" width="10.3867" height="10.3867" fill="#ADFF00"/>
<rect x="623.606" y="373.414" width="10.3867" height="10.3867" fill="#ADFF00"/>
<rect x="202.697" y="398.371" width="10.3867" height="10.3867" fill="#ADFF00"/>
<rect x="623.606" y="398.371" width="10.3867" height="10.3867" fill="#ADFF00"/>
<rect x="202.697" y="423.329" width="10.3867" height="10.3867" fill="#ADFF00"/>
<rect opacity="0.4" x="623.606" y="423.329" width="10.3867" height="10.3867" fill="white"/>
<rect opacity="0.4" x="202.697" y="448.286" width="10.3867" height="10.3867" fill="white"/>
<rect opacity="0.4" x="623.606" y="448.286" width="10.3867" height="10.3867" fill="white"/>
<rect opacity="0.4" x="202.697" y="473.243" width="10.3867" height="10.3867" fill="white"/>
<rect opacity="0.4" x="623.606" y="473.243" width="10.3867" height="10.3867" fill="white"/>
<rect x="231.082" y="123.839" width="10.3867" height="10.3867" fill="#ADFF00"/>
<rect x="651.991" y="123.839" width="10.3867" height="10.3867" fill="#ADFF00"/>
<rect x="231.082" y="148.796" width="10.3867" height="10.3867" fill="#ADFF00"/>
<rect x="651.991" y="148.796" width="10.3867" height="10.3867" fill="#ADFF00"/>
<rect x="231.082" y="173.753" width="10.3867" height="10.3867" fill="#ADFF00"/>
<rect x="651.991" y="173.753" width="10.3867" height="10.3867" fill="#ADFF00"/>
<rect x="231.082" y="198.711" width="10.3867" height="10.3867" fill="#ADFF00"/>
<rect x="651.991" y="198.711" width="10.3867" height="10.3867" fill="#ADFF00"/>
<rect x="231.082" y="223.668" width="10.3867" height="10.3867" fill="#ADFF00"/>
<rect x="651.991" y="223.668" width="10.3867" height="10.3867" fill="#ADFF00"/>
<rect x="231.082" y="248.626" width="10.3867" height="10.3867" fill="#ADFF00"/>
<rect x="651.991" y="248.626" width="10.3867" height="10.3867" fill="#ADFF00"/>
<rect x="231.082" y="273.583" width="10.3867" height="10.3867" fill="#ADFF00"/>
<rect x="651.991" y="273.583" width="10.3867" height="10.3867" fill="#ADFF00"/>
<rect x="231.082" y="298.541" width="10.3867" height="10.3867" fill="#ADFF00"/>
<rect x="651.991" y="298.541" width="10.3867" height="10.3867" fill="#ADFF00"/>
<rect x="231.082" y="323.499" width="10.3867" height="10.3867" fill="#ADFF00"/>
<rect x="651.991" y="323.499" width="10.3867" height="10.3867" fill="#ADFF00"/>
<rect x="231.082" y="348.456" width="10.3867" height="10.3867" fill="#ADFF00"/>
<rect x="651.991" y="348.456" width="10.3867" height="10.3867" fill="#ADFF00"/>
<rect x="231.082" y="373.414" width="10.3867" height="10.3867" fill="#ADFF00"/>
<rect x="651.991" y="373.414" width="10.3867" height="10.3867" fill="#ADFF00"/>
<rect x="231.082" y="398.371" width="10.3867" height="10.3867" fill="#ADFF00"/>
<rect x="651.991" y="398.371" width="10.3867" height="10.3867" fill="#ADFF00"/>
<rect x="231.082" y="423.329" width="10.3867" height="10.3867" fill="#ADFF00"/>
<rect opacity="0.4" x="651.991" y="423.329" width="10.3867" height="10.3867" fill="white"/>
<rect opacity="0.4" x="231.082" y="448.286" width="10.3867" height="10.3867" fill="white"/>
<rect opacity="0.4" x="651.991" y="448.286" width="10.3867" height="10.3867" fill="white"/>
<rect opacity="0.4" x="231.082" y="473.243" width="10.3867" height="10.3867" fill="white"/>
<rect opacity="0.4" x="651.991" y="473.243" width="10.3867" height="10.3867" fill="white"/>
<rect x="259.467" y="123.839" width="10.3867" height="10.3867" fill="#ADFF00"/>
<rect x="680.376" y="123.839" width="10.3867" height="10.3867" fill="#ADFF00"/>
<rect x="259.467" y="148.796" width="10.3867" height="10.3867" fill="#ADFF00"/>
<rect x="680.376" y="148.796" width="10.3867" height="10.3867" fill="#ADFF00"/>
<rect x="259.467" y="173.753" width="10.3867" height="10.3867" fill="#ADFF00"/>
<rect x="680.376" y="173.753" width="10.3867" height="10.3867" fill="#ADFF00"/>
<rect x="259.467" y="198.711" width="10.3867" height="10.3867" fill="#ADFF00"/>
<rect x="680.376" y="198.711" width="10.3867" height="10.3867" fill="#ADFF00"/>
<rect x="259.467" y="223.668" width="10.3867" height="10.3867" fill="#ADFF00"/>
<rect x="680.376" y="223.668" width="10.3867" height="10.3867" fill="#ADFF00"/>
<rect x="259.467" y="248.626" width="10.3867" height="10.3867" fill="#ADFF00"/>
<rect x="680.376" y="248.626" width="10.3867" height="10.3867" fill="#ADFF00"/>
<rect x="259.467" y="273.583" width="10.3867" height="10.3867" fill="#ADFF00"/>
<rect x="680.376" y="273.583" width="10.3867" height="10.3867" fill="#ADFF00"/>
<rect x="259.467" y="298.541" width="10.3867" height="10.3867" fill="#ADFF00"/>
<rect x="680.376" y="298.541" width="10.3867" height="10.3867" fill="#ADFF00"/>
<rect x="259.467" y="323.499" width="10.3867" height="10.3867" fill="#ADFF00"/>
<rect x="680.376" y="323.499" width="10.3867" height="10.3867" fill="#ADFF00"/>
<rect x="259.467" y="348.456" width="10.3867" height="10.3867" fill="#ADFF00"/>
<rect x="680.376" y="348.456" width="10.3867" height="10.3867" fill="#ADFF00"/>
<rect x="259.467" y="373.414" width="10.3867" height="10.3867" fill="#ADFF00"/>
<rect x="680.376" y="373.414" width="10.3867" height="10.3867" fill="#ADFF00"/>
<rect x="259.467" y="398.371" width="10.3867" height="10.3867" fill="#ADFF00"/>
<rect x="680.376" y="398.371" width="10.3867" height="10.3867" fill="#ADFF00"/>
<rect x="259.467" y="423.329" width="10.3867" height="10.3867" fill="#ADFF00"/>
<rect opacity="0.4" x="680.376" y="423.329" width="10.3867" height="10.3867" fill="white"/>
<rect opacity="0.4" x="259.467" y="448.286" width="10.3867" height="10.3867" fill="white"/>
<rect opacity="0.4" x="680.376" y="448.286" width="10.3867" height="10.3867" fill="white"/>
<rect opacity="0.4" x="259.467" y="473.243" width="10.3867" height="10.3867" fill="white"/>
<rect opacity="0.4" x="680.376" y="473.243" width="10.3867" height="10.3867" fill="white"/>
<rect x="287.853" y="123.839" width="10.3867" height="10.3867" fill="#ADFF00"/>
<rect x="708.762" y="123.839" width="10.3867" height="10.3867" fill="#ADFF00"/>
<rect x="287.853" y="148.796" width="10.3867" height="10.3867" fill="#ADFF00"/>
<rect x="708.762" y="148.796" width="10.3867" height="10.3867" fill="#ADFF00"/>
<rect x="287.853" y="173.753" width="10.3867" height="10.3867" fill="#ADFF00"/>
<rect x="708.762" y="173.753" width="10.3867" height="10.3867" fill="#ADFF00"/>
<rect x="287.853" y="198.711" width="10.3867" height="10.3867" fill="#ADFF00"/>
<rect x="708.762" y="198.711" width="10.3867" height="10.3867" fill="#ADFF00"/>
<rect x="287.853" y="223.668" width="10.3867" height="10.3867" fill="#ADFF00"/>
<rect x="708.762" y="223.668" width="10.3867" height="10.3867" fill="#ADFF00"/>
<rect x="287.853" y="248.626" width="10.3867" height="10.3867" fill="#ADFF00"/>
<rect x="708.762" y="248.626" width="10.3867" height="10.3867" fill="#ADFF00"/>
<rect x="287.853" y="273.583" width="10.3867" height="10.3867" fill="#ADFF00"/>
<rect x="708.762" y="273.583" width="10.3867" height="10.3867" fill="#ADFF00"/>
<rect x="287.853" y="298.541" width="10.3867" height="10.3867" fill="#ADFF00"/>
<rect x="708.762" y="298.541" width="10.3867" height="10.3867" fill="#ADFF00"/>
<rect x="287.853" y="323.499" width="10.3867" height="10.3867" fill="#ADFF00"/>
<rect x="708.762" y="323.499" width="10.3867" height="10.3867" fill="#ADFF00"/>
<rect x="287.853" y="348.456" width="10.3867" height="10.3867" fill="#ADFF00"/>
<rect x="708.762" y="348.456" width="10.3867" height="10.3867" fill="#ADFF00"/>
<rect x="287.853" y="373.414" width="10.3867" height="10.3867" fill="#ADFF00"/>
<rect x="708.762" y="373.414" width="10.3867" height="10.3867" fill="#ADFF00"/>
<rect x="287.853" y="398.371" width="10.3867" height="10.3867" fill="#ADFF00"/>
<rect x="708.762" y="398.371" width="10.3867" height="10.3867" fill="#ADFF00"/>
<rect x="287.853" y="423.329" width="10.3867" height="10.3867" fill="#ADFF00"/>
<rect opacity="0.4" x="708.762" y="423.329" width="10.3867" height="10.3867" fill="white"/>
<rect opacity="0.4" x="287.853" y="448.286" width="10.3867" height="10.3867" fill="white"/>
<rect opacity="0.4" x="708.762" y="448.286" width="10.3867" height="10.3867" fill="white"/>
<rect opacity="0.4" x="287.853" y="473.243" width="10.3867" height="10.3867" fill="white"/>
<rect opacity="0.4" x="708.762" y="473.243" width="10.3867" height="10.3867" fill="white"/>
<rect x="316.238" y="123.839" width="10.3867" height="10.3867" fill="#ADFF00"/>
<rect x="316.238" y="148.796" width="10.3867" height="10.3867" fill="#ADFF00"/>
<rect x="316.238" y="173.753" width="10.3867" height="10.3867" fill="#ADFF00"/>
<rect x="316.238" y="198.711" width="10.3867" height="10.3867" fill="#ADFF00"/>
<rect x="316.238" y="223.668" width="10.3867" height="10.3867" fill="#ADFF00"/>
<rect x="316.238" y="248.626" width="10.3867" height="10.3867" fill="#ADFF00"/>
<rect x="316.238" y="273.583" width="10.3867" height="10.3867" fill="#ADFF00"/>
<rect x="316.238" y="298.541" width="10.3867" height="10.3867" fill="#ADFF00"/>
<rect x="316.238" y="323.499" width="10.3867" height="10.3867" fill="#ADFF00"/>
<rect x="316.238" y="348.456" width="10.3867" height="10.3867" fill="#ADFF00"/>
<rect x="316.238" y="373.414" width="10.3867" height="10.3867" fill="#ADFF00"/>
<rect x="316.238" y="398.371" width="10.3867" height="10.3867" fill="#ADFF00"/>
<rect x="316.238" y="423.329" width="10.3867" height="10.3867" fill="#ADFF00"/>
<rect opacity="0.4" x="316.238" y="448.286" width="10.3867" height="10.3867" fill="white"/>
<rect opacity="0.4" x="316.238" y="473.243" width="10.3867" height="10.3867" fill="white"/>
<rect x="344.622" y="123.839" width="10.3867" height="10.3867" fill="#ADFF00"/>
<rect x="344.622" y="148.796" width="10.3867" height="10.3867" fill="#ADFF00"/>
<rect x="344.622" y="173.753" width="10.3867" height="10.3867" fill="#ADFF00"/>
<rect x="344.622" y="198.711" width="10.3867" height="10.3867" fill="#ADFF00"/>
<rect x="344.622" y="223.668" width="10.3867" height="10.3867" fill="#ADFF00"/>
<rect x="344.622" y="248.626" width="10.3867" height="10.3867" fill="#ADFF00"/>
<rect x="344.622" y="273.583" width="10.3867" height="10.3867" fill="#ADFF00"/>
<rect x="344.622" y="298.541" width="10.3867" height="10.3867" fill="#ADFF00"/>
<rect x="344.622" y="323.499" width="10.3867" height="10.3867" fill="#ADFF00"/>
<rect x="344.622" y="348.456" width="10.3867" height="10.3867" fill="#ADFF00"/>
<rect x="344.622" y="373.414" width="10.3867" height="10.3867" fill="#ADFF00"/>
<rect x="344.622" y="398.371" width="10.3867" height="10.3867" fill="#ADFF00"/>
<rect x="344.622" y="423.329" width="10.3867" height="10.3867" fill="#ADFF00"/>
<rect opacity="0.4" x="344.622" y="448.286" width="10.3867" height="10.3867" fill="white"/>
<rect opacity="0.4" x="344.622" y="473.243" width="10.3867" height="10.3867" fill="white"/>
<rect x="373.008" y="123.839" width="10.3867" height="10.3867" fill="#ADFF00"/>
<rect x="373.008" y="148.796" width="10.3867" height="10.3867" fill="#ADFF00"/>
<rect x="373.008" y="173.753" width="10.3867" height="10.3867" fill="#ADFF00"/>
<rect x="373.008" y="198.711" width="10.3867" height="10.3867" fill="#ADFF00"/>
<rect x="373.008" y="223.668" width="10.3867" height="10.3867" fill="#ADFF00"/>
<rect x="373.008" y="248.626" width="10.3867" height="10.3867" fill="#ADFF00"/>
<rect x="373.008" y="273.583" width="10.3867" height="10.3867" fill="#ADFF00"/>
<rect x="373.008" y="298.541" width="10.3867" height="10.3867" fill="#ADFF00"/>
<rect x="373.008" y="323.499" width="10.3867" height="10.3867" fill="#ADFF00"/>
<rect x="373.008" y="348.456" width="10.3867" height="10.3867" fill="#ADFF00"/>
<rect x="373.008" y="373.414" width="10.3867" height="10.3867" fill="#ADFF00"/>
<rect x="373.008" y="398.371" width="10.3867" height="10.3867" fill="#ADFF00"/>
<rect x="373.008" y="423.329" width="10.3867" height="10.3867" fill="#ADFF00"/>
<rect opacity="0.4" x="373.008" y="448.286" width="10.3867" height="10.3867" fill="white"/>
<rect opacity="0.4" x="373.008" y="473.243" width="10.3867" height="10.3867" fill="white"/>
<rect x="401.394" y="123.839" width="10.3867" height="10.3867" fill="#ADFF00"/>
<rect x="401.394" y="148.796" width="10.3867" height="10.3867" fill="#ADFF00"/>
<rect x="401.394" y="173.753" width="10.3867" height="10.3867" fill="#ADFF00"/>
<rect x="401.394" y="198.711" width="10.3867" height="10.3867" fill="#ADFF00"/>
<rect x="401.394" y="223.668" width="10.3867" height="10.3867" fill="#ADFF00"/>
<rect x="401.394" y="248.626" width="10.3867" height="10.3867" fill="#ADFF00"/>
<rect x="401.394" y="273.583" width="10.3867" height="10.3867" fill="#ADFF00"/>
<rect x="401.394" y="298.541" width="10.3867" height="10.3867" fill="#ADFF00"/>
<rect x="401.394" y="323.499" width="10.3867" height="10.3867" fill="#ADFF00"/>
<rect x="401.394" y="348.456" width="10.3867" height="10.3867" fill="#ADFF00"/>
<rect x="401.394" y="373.414" width="10.3867" height="10.3867" fill="#ADFF00"/>
<rect x="401.394" y="398.371" width="10.3867" height="10.3867" fill="#ADFF00"/>
<rect x="401.394" y="423.329" width="10.3867" height="10.3867" fill="#ADFF00"/>
<rect opacity="0.4" x="401.394" y="448.286" width="10.3867" height="10.3867" fill="white"/>
<rect opacity="0.4" x="401.394" y="473.243" width="10.3867" height="10.3867" fill="white"/>
<g opacity="0.6">
<path d="M20.6627 14.1824V30.8809H31.5799V28.8419H23.0371V14.1824H20.6627ZM44.0089 27.9644L42.2539 27.2934C41.5829 28.6097 40.344 29.4097 38.9504 29.4097C36.8082 29.4097 35.2597 27.6289 35.1048 24.9448H43.9831C44.0605 24.6093 44.1122 23.9124 44.1122 23.3446C44.1122 20.0669 41.8668 17.7441 38.7439 17.7441C35.3371 17.7441 32.8078 20.6347 32.8078 24.5835C32.8078 28.4548 35.3371 31.2164 38.8213 31.2164C41.1183 31.2164 43.1056 30.0034 44.0089 27.9644ZM38.7697 19.5249C40.5763 19.5249 41.841 20.9702 41.9184 23.1898H35.2339C35.621 20.9702 36.9889 19.5249 38.7697 19.5249ZM58.2938 31.7326C58.2938 29.8743 56.9259 28.8936 54.0095 28.6355L52.2029 28.4806C50.3962 28.3258 49.751 28.0161 49.751 27.6289C49.751 27.3192 50.0349 26.8805 50.293 26.5966C50.7318 26.6998 51.2221 26.7514 51.6867 26.7514C54.4741 26.7514 56.7453 24.9448 56.7453 22.4413C56.7453 21.5122 56.4614 20.6347 55.9194 19.8862C56.6162 19.5249 57.726 19.2152 58.7584 19.2152V17.2537C57.184 17.2537 55.9452 18.0022 55.1709 19.0603C54.2418 18.2603 52.9771 17.7441 51.5318 17.7441C48.667 17.7441 46.4217 19.7056 46.4217 22.2865C46.4217 24.1189 47.5573 25.5126 49.1574 26.2352C48.3315 26.803 47.6347 27.6805 47.6347 28.2742C47.6347 28.7903 47.996 29.2291 48.6412 29.5646C47.0411 30.2356 45.8797 31.397 45.8797 32.5584C45.8797 34.6748 48.2283 35.9136 51.8157 35.9136C55.7903 35.9136 58.2938 34.1586 58.2938 31.7326ZM51.8416 34.236C49.4413 34.236 48.0734 33.3585 48.0734 32.2229C48.0734 31.3454 48.8735 30.4937 49.9575 30.0292C50.4737 30.1582 51.0673 30.2614 51.7383 30.3131L53.5449 30.4679C55.6097 30.6486 56.1258 31.1389 56.1258 32.0681C56.1258 33.2811 54.4483 34.236 51.8416 34.236ZM48.6154 22.3123C48.6154 20.6863 49.8543 19.4217 51.5577 19.4217C53.261 19.4217 54.5515 20.6863 54.5515 22.3123C54.5515 23.9124 53.261 25.0738 51.5577 25.0738C49.8543 25.0738 48.6154 23.9124 48.6154 22.3123ZM72.1561 31.7326C72.1561 29.8743 70.7882 28.8936 67.8718 28.6355L66.0651 28.4806C64.2585 28.3258 63.6133 28.0161 63.6133 27.6289C63.6133 27.3192 63.8972 26.8805 64.1553 26.5966C64.594 26.6998 65.0844 26.7514 65.549 26.7514C68.3363 26.7514 70.6075 24.9448 70.6075 22.4413C70.6075 21.5122 70.3236 20.6347 69.7816 19.8862C70.4785 19.5249 71.5883 19.2152 72.6206 19.2152V17.2537C71.0463 17.2537 69.8074 18.0022 69.0332 19.0603C68.104 18.2603 66.8394 17.7441 65.3941 17.7441C62.5293 17.7441 60.2839 19.7056 60.2839 22.2865C60.2839 24.1189 61.4195 25.5126 63.0197 26.2352C62.1938 26.803 61.4969 27.6805 61.4969 28.2742C61.4969 28.7903 61.8583 29.2291 62.5035 29.5646C60.9033 30.2356 59.7419 31.397 59.7419 32.5584C59.7419 34.6748 62.0905 35.9136 65.678 35.9136C69.6526 35.9136 72.1561 34.1586 72.1561 31.7326ZM65.7038 34.236C63.3036 34.236 61.9357 33.3585 61.9357 32.2229C61.9357 31.3454 62.7358 30.4937 63.8197 30.0292C64.3359 30.1582 64.9295 30.2614 65.6006 30.3131L67.4072 30.4679C69.4719 30.6486 69.9881 31.1389 69.9881 32.0681C69.9881 33.2811 68.3105 34.236 65.7038 34.236ZM62.4777 22.3123C62.4777 20.6863 63.7165 19.4217 65.4199 19.4217C67.1233 19.4217 68.4137 20.6863 68.4137 22.3123C68.4137 23.9124 67.1233 25.0738 65.4199 25.0738C63.7165 25.0738 62.4777 23.9124 62.4777 22.3123ZM84.9908 27.9644L83.2358 27.2934C82.5647 28.6097 81.3259 29.4097 79.9322 29.4097C77.7901 29.4097 76.2415 27.6289 76.0867 24.9448H84.965C85.0424 24.6093 85.094 23.9124 85.094 23.3446C85.094 20.0669 82.8486 17.7441 79.7258 17.7441C76.319 17.7441 73.7897 20.6347 73.7897 24.5835C73.7897 28.4548 76.319 31.2164 79.8032 31.2164C82.1002 31.2164 84.0875 30.0034 84.9908 27.9644ZM79.7516 19.5249C81.5582 19.5249 82.8228 20.9702 82.9003 23.1898H76.2157C76.6029 20.9702 77.9707 19.5249 79.7516 19.5249ZM90.3716 30.8809V23.2414C90.578 21.538 91.6104 19.9378 93.5977 19.9378C94.0364 19.9378 94.6559 20.0153 95.0172 20.1185V17.9506C94.7591 17.8473 94.1397 17.7441 93.7009 17.7441C92.204 17.7441 90.8103 19.0603 90.2941 20.6863V18.0796H88.1778V30.8809H90.3716ZM107.834 31.0873L107.937 29.4097C107.782 29.4356 107.524 29.4614 107.369 29.4614C106.595 29.4614 106.208 28.9194 106.208 28.2225V22.3381C106.208 19.37 104.401 17.7441 101.614 17.7441C99.394 17.7441 97.4583 18.9829 96.5292 20.996L98.2326 21.6929C98.8778 20.4798 99.8844 19.5765 101.407 19.5765C102.981 19.5765 104.014 20.6605 104.014 22.2607V23.2672L101.02 23.6285C98.181 23.9899 96.1679 25.3577 96.1679 27.7322C96.1679 29.7711 97.7939 31.2164 100.065 31.2164C101.872 31.2164 103.291 30.3389 104.117 28.971C104.427 30.4421 105.382 31.2164 106.827 31.2164C107.214 31.2164 107.524 31.1648 107.834 31.0873ZM100.659 29.4356C99.3682 29.4356 98.4649 28.6613 98.4649 27.5773C98.4649 26.261 99.7037 25.4868 101.407 25.2803L104.014 24.9706V27.3192C103.343 28.558 102.078 29.4356 100.659 29.4356Z" fill="white"/>
<path d="M593.58 30.8809V28.9452H584.882L588.625 26.261C590.328 25.0222 592.522 23.293 592.522 20.9186C592.522 18.57 590.251 16.815 587.437 16.815C584.831 16.815 582.56 18.3119 581.605 20.5315L583.36 21.3315C583.979 19.7572 585.502 18.6732 587.205 18.6732C588.831 18.6732 590.199 19.6798 590.199 21.0992C590.199 22.4671 589.012 23.4737 587.541 24.6093L581.682 29.0742V30.8809H593.58ZM595.595 23.9899C595.595 28.1709 598.279 31.2164 601.97 31.2164C605.661 31.2164 608.345 28.1709 608.345 23.9899C608.345 19.8346 605.661 16.815 601.97 16.815C598.279 16.815 595.595 19.8346 595.595 23.9899ZM597.918 23.9899C597.918 20.9186 599.622 18.6474 601.97 18.6474C604.319 18.6474 606.022 20.9186 606.022 23.9899C606.022 27.1127 604.319 29.3839 601.97 29.3839C599.622 29.3839 597.918 27.1127 597.918 23.9899ZM615.365 17.1247L610.487 19.1636L611.132 20.9186L614.848 19.4733V29.0742H610.796V30.8809H620.552V29.0742H617.042V17.1247H615.365ZM627.991 24.2996C625.823 24.2996 624.636 23.2156 624.636 21.7187C624.636 20.0153 626.262 18.6732 628.223 18.6732C630.262 18.6732 631.759 20.0153 632.301 22.1832C631.269 23.5769 629.746 24.2996 627.991 24.2996ZM622.339 21.667C622.339 24.2479 624.532 26.132 627.655 26.132C629.462 26.132 631.346 25.461 632.533 24.1705C632.533 27.2676 630.907 29.3839 628.042 29.3839C626.339 29.3839 624.739 28.6097 623.629 27.4999L622.132 28.6613C623.397 30.1582 625.668 31.2164 628.12 31.2164C632.172 31.2164 634.804 28.2742 634.804 24.0157C634.804 19.7572 632.146 16.8408 628.223 16.8408C624.945 16.8408 622.339 18.9055 622.339 21.667Z" fill="white"/>
<rect x="0.926758" y="1.38086" width="155.567" height="44.346" stroke="white"/>
<rect x="563.082" y="1.38086" width="155.567" height="44.346" stroke="white"/>
<path d="M137.523 29.3848L132.473 20.6386L142.572 20.6386L137.523 29.3848Z" fill="white"/>
<path d="M699.678 28.2116L694.628 19.4655L704.727 19.4655L699.678 28.2116Z" fill="white"/>
</g>
<path d="M25.2 608.621V605.461H4.72V608.621H13.12V631.341H16.8V608.621H25.2ZM43.59 621.461C43.59 615.381 39.55 610.981 33.99 610.981C28.43 610.981 24.35 615.381 24.35 621.461C24.35 627.461 28.43 631.861 33.99 631.861C39.55 631.861 43.59 627.461 43.59 621.461ZM27.95 621.461C27.95 617.061 30.47 613.821 33.99 613.821C37.47 613.821 39.99 617.061 39.99 621.461C39.99 625.781 37.47 628.981 33.99 628.981C30.47 628.981 27.95 625.781 27.95 621.461ZM59.2584 631.221V628.381C58.4184 628.701 57.0184 628.941 55.7784 628.941C53.2584 628.941 52.2584 627.701 52.2584 625.821V614.301H59.1384V611.501H52.2584V606.661H48.8584V611.501H45.9384V614.301H48.8584V626.381C48.8584 629.861 51.2184 631.861 55.1784 631.861C56.6584 631.861 58.3784 631.541 59.2584 631.221ZM79.4966 631.661L79.6566 629.061C79.4166 629.101 79.0166 629.141 78.7766 629.141C77.5766 629.141 76.9766 628.301 76.9766 627.221V618.101C76.9766 613.501 74.1766 610.981 69.8566 610.981C66.4166 610.981 63.4166 612.901 61.9766 616.021L64.6166 617.101C65.6166 615.221 67.1766 613.821 69.5366 613.821C71.9766 613.821 73.5766 615.501 73.5766 617.981V619.541L68.9366 620.101C64.5366 620.661 61.4166 622.781 61.4166 626.461C61.4166 629.621 63.9366 631.861 67.4566 631.861C70.2566 631.861 72.4566 630.501 73.7366 628.381C74.2166 630.661 75.6966 631.861 77.9366 631.861C78.5366 631.861 79.0166 631.781 79.4966 631.661ZM68.3766 629.101C66.3766 629.101 64.9766 627.901 64.9766 626.221C64.9766 624.181 66.8966 622.981 69.5366 622.661L73.5766 622.181V625.821C72.5366 627.741 70.5766 629.101 68.3766 629.101ZM86.6909 603.181H83.2909V631.341H86.6909V603.181ZM108.781 626.821L106.061 625.781C105.021 627.821 103.101 629.061 100.941 629.061C97.6213 629.061 95.2213 626.301 94.9813 622.141H108.741C108.861 621.621 108.941 620.541 108.941 619.661C108.941 614.581 105.461 610.981 100.621 610.981C95.3413 610.981 91.4213 615.461 91.4213 621.581C91.4213 627.581 95.3413 631.861 100.741 631.861C104.301 631.861 107.381 629.981 108.781 626.821ZM100.661 613.741C103.461 613.741 105.421 615.981 105.541 619.421H95.1813C95.7813 615.981 97.9013 613.741 100.661 613.741ZM126.339 611.501H122.939V631.341H126.339V611.501ZM126.339 603.621H122.939V607.581H126.339V603.621ZM149.19 631.341V618.221C149.19 613.981 146.23 610.981 142.35 610.981C139.51 610.981 137.11 612.661 135.79 614.541V611.501H132.51V631.341H135.91V616.941C137.15 615.181 139.31 613.861 141.55 613.861C144.03 613.861 145.79 615.701 145.79 618.461V631.341H149.19ZM172.327 632.661C172.327 629.781 170.207 628.261 165.687 627.861L162.887 627.621C160.087 627.381 159.087 626.901 159.087 626.301C159.087 625.821 159.527 625.141 159.927 624.701C160.607 624.861 161.367 624.941 162.087 624.941C166.407 624.941 169.927 622.141 169.927 618.261C169.927 616.821 169.487 615.461 168.647 614.301C169.727 613.741 171.447 613.261 173.047 613.261V610.221C170.607 610.221 168.687 611.381 167.487 613.021C166.047 611.781 164.087 610.981 161.847 610.981C157.407 610.981 153.927 614.021 153.927 618.021C153.927 620.861 155.687 623.021 158.167 624.141C156.887 625.021 155.807 626.381 155.807 627.301C155.807 628.101 156.367 628.781 157.367 629.301C154.887 630.341 153.087 632.141 153.087 633.941C153.087 637.221 156.727 639.141 162.287 639.141C168.447 639.141 172.327 636.421 172.327 632.661ZM162.327 636.541C158.607 636.541 156.487 635.181 156.487 633.421C156.487 632.061 157.727 630.741 159.407 630.021C160.207 630.221 161.127 630.381 162.167 630.461L164.967 630.701C168.167 630.981 168.967 631.741 168.967 633.181C168.967 635.061 166.367 636.541 162.327 636.541ZM157.327 618.061C157.327 615.541 159.247 613.581 161.887 613.581C164.527 613.581 166.527 615.541 166.527 618.061C166.527 620.541 164.527 622.341 161.887 622.341C159.247 622.341 157.327 620.541 157.327 618.061ZM180.207 631.341V619.501C180.527 616.861 182.127 614.381 185.207 614.381C185.887 614.381 186.847 614.501 187.407 614.661V611.301C187.007 611.141 186.047 610.981 185.367 610.981C183.047 610.981 180.887 613.021 180.087 615.541V611.501H176.807V631.341H180.207ZM206.672 626.821L203.952 625.781C202.912 627.821 200.992 629.061 198.832 629.061C195.512 629.061 193.112 626.301 192.872 622.141H206.632C206.752 621.621 206.832 620.541 206.832 619.661C206.832 614.581 203.352 610.981 198.512 610.981C193.232 610.981 189.312 615.461 189.312 621.581C189.312 627.581 193.232 631.861 198.632 631.861C202.192 631.861 205.272 629.981 206.672 626.821ZM198.552 613.741C201.352 613.741 203.312 615.981 203.432 619.421H193.072C193.672 615.981 195.792 613.741 198.552 613.741ZM226.771 625.901C226.771 622.221 223.651 620.701 219.171 619.741C215.811 618.981 213.891 618.381 213.891 616.621C213.891 614.941 215.771 613.781 218.411 613.781C221.171 613.781 223.011 614.941 223.931 616.861L226.651 615.781C225.491 613.341 223.051 610.981 218.451 610.981C213.771 610.981 210.571 613.461 210.571 616.821C210.571 620.261 213.811 621.861 218.211 622.781C221.611 623.501 223.491 624.181 223.491 626.061C223.491 627.861 221.811 629.101 218.891 629.101C215.571 629.101 213.451 627.621 212.451 625.661L209.651 626.741C211.011 629.861 214.211 631.861 218.731 631.861C223.771 631.861 226.771 629.421 226.771 625.901ZM246.576 625.901C246.576 622.221 243.456 620.701 238.976 619.741C235.616 618.981 233.696 618.381 233.696 616.621C233.696 614.941 235.576 613.781 238.216 613.781C240.976 613.781 242.816 614.941 243.736 616.861L246.456 615.781C245.296 613.341 242.856 610.981 238.256 610.981C233.576 610.981 230.376 613.461 230.376 616.821C230.376 620.261 233.616 621.861 238.016 622.781C241.416 623.501 243.296 624.181 243.296 626.061C243.296 627.861 241.616 629.101 238.696 629.101C235.376 629.101 233.256 627.621 232.256 625.661L229.456 626.741C230.816 629.861 234.016 631.861 238.536 631.861C243.576 631.861 246.576 629.421 246.576 625.901ZM254.621 611.501H251.221V631.341H254.621V611.501ZM254.621 603.621H251.221V607.581H254.621V603.621ZM264.231 631.341V626.021H260.231V631.341H264.231ZM264.231 619.461V614.141H260.231V619.461H264.231Z" fill="white"/>
<path d="M507.555 585.779L490.335 592.976L492.613 599.172L505.733 594.07V627.963H491.429V634.341H525.869V627.963H513.478V585.779H507.555ZM548.485 585.779L531.265 592.976L533.542 599.172L546.662 594.07V627.963H532.358V634.341H566.798V627.963H554.407V585.779H548.485ZM584.585 634.341V589.332L602.17 612.11H606.178L623.216 588.785V634.341H631.325V575.392H623.581L604.356 602.179L584.221 575.392H576.749V634.341H584.585Z" fill="white"/>
<path fill-rule="evenodd" clip-rule="evenodd" d="M717.12 617.434L718.843 613.523L718.884 613.534L691.505 556.296L691.487 556.335L687.32 555.211L687.337 555.171L655.801 570.256L655.843 570.268L654.121 574.179L681.5 631.417L685.584 632.519L717.12 617.434Z" fill="#ADFF00"/>
<path d="M661.039 574.229L687.202 561.714L687.689 562.733L661.527 575.248L661.039 574.229Z" fill="#121212"/>
<path d="M679.406 612.627L705.569 600.112L705.823 600.642L679.66 613.157L679.406 612.627Z" fill="#121212"/>
<path d="M662.087 576.422L688.25 563.907L690.2 567.983L664.037 580.498L662.087 576.422Z" fill="#121212"/>
<path d="M679.952 613.768L706.115 601.253L707.129 603.373L680.966 615.888L679.952 613.768Z" fill="#121212"/>
<path d="M683.043 620.229L709.205 607.714L710.219 609.834L684.057 622.349L683.043 620.229Z" fill="#121212"/>
<path d="M664.526 581.517L690.688 569.002L692.638 573.079L666.476 585.594L664.526 581.517Z" fill="#121212"/>
<path d="M668.959 590.786L695.122 578.271L698.144 584.588L671.981 597.103L668.959 590.786Z" fill="#121212"/>
<path d="M681.22 616.418L707.382 603.903L708.396 606.023L682.234 618.538L681.22 616.418Z" fill="#121212"/>
<path d="M684.311 622.879L710.474 610.365L711.488 612.485L685.325 624.999L684.311 622.879Z" fill="#121212"/>
<path d="M667.834 588.436L693.997 575.921L694.52 577.013L668.357 589.528L667.834 588.436Z" fill="#121212"/>
<path d="M666.962 586.613L693.125 574.098L693.51 574.902L667.347 587.417L666.962 586.613Z" fill="#121212"/>
<path d="M682.487 619.067L708.65 606.553L708.85 606.971L682.687 619.486L682.487 619.067Z" fill="#121212"/>
<path d="M685.578 625.529L711.741 613.015L711.941 613.433L685.778 625.948L685.578 625.529Z" fill="#121212"/>
<path d="M672.519 598.23L698.682 585.715L699.067 586.519L672.904 599.034L672.519 598.23Z" fill="#121212"/>
<path d="M673.326 599.914L699.488 587.399L699.873 588.203L673.71 600.718L673.326 599.914Z" fill="#121212"/>
<path d="M674.08 601.49L700.242 588.975L701.584 591.781L675.422 604.296L674.08 601.49Z" fill="#121212"/>
<path d="M675.685 604.847L701.847 592.332L704.239 597.331L678.076 609.846L675.685 604.847Z" fill="#121212"/>
<path d="M678.34 610.398L704.503 597.883L705.214 599.37L679.051 611.885L678.34 610.398Z" fill="#121212"/>
<rect x="655.26" y="574.206" width="5.38342" height="2.0311" transform="rotate(64.4359 655.26 574.206)" fill="#ADFF00"/>
<rect x="658.802" y="581.611" width="5.38342" height="2.0311" transform="rotate(64.4359 658.802 581.611)" fill="#ADFF00"/>
<rect x="662.344" y="589.016" width="5.38342" height="2.0311" transform="rotate(64.4359 662.344 589.016)" fill="#ADFF00"/>
<rect x="665.887" y="596.422" width="5.38342" height="2.0311" transform="rotate(64.4359 665.887 596.422)" fill="#ADFF00"/>
<rect x="669.429" y="603.827" width="5.38342" height="2.0311" transform="rotate(64.4359 669.429 603.827)" fill="#ADFF00"/>
<rect x="672.972" y="611.233" width="5.38342" height="2.0311" transform="rotate(64.4359 672.972 611.233)" fill="#ADFF00"/>
<rect x="676.514" y="618.638" width="5.38342" height="2.0311" transform="rotate(64.4359 676.514 618.638)" fill="#ADFF00"/>
<rect x="680.056" y="626.044" width="5.38342" height="2.0311" transform="rotate(64.4359 680.056 626.044)" fill="#ADFF00"/>
</svg>
