<svg width="715" height="438" viewBox="0 0 715 438" fill="none" xmlns="http://www.w3.org/2000/svg">
<path d="M75.7549 29.6898V31.7298H77.2749V29.4498H76.5749C76.5749 28.4898 76.8949 27.7298 77.5949 26.9898L76.9749 26.5498C76.1749 27.3498 75.7549 28.4498 75.7549 29.6898ZM73.0149 29.6898V31.7298H74.5349V29.4498H73.8349C73.8349 28.4898 74.1549 27.7298 74.8549 26.9898L74.2349 26.5498C73.4349 27.3498 73.0149 28.4498 73.0149 29.6898ZM90.5094 36.5898L89.2694 36.0898C88.6494 37.6098 87.0294 38.7098 85.5094 38.7098C83.0494 38.7098 81.2094 36.4498 81.2094 33.3898C81.2094 30.2498 83.0694 27.9098 85.5694 27.9098C86.9694 27.9098 88.4894 29.0098 89.1294 30.4898L90.4094 29.9698C89.6294 28.0698 87.5694 26.6298 85.5094 26.6298C82.1494 26.6298 79.6694 29.5098 79.6694 33.3898C79.6694 37.1898 82.1094 39.9898 85.4494 39.9898C87.6094 39.9898 89.7694 38.5298 90.5094 36.5898ZM101.429 34.8498C101.429 31.8898 99.4289 29.6898 96.7489 29.6898C94.0489 29.6898 92.0289 31.8898 92.0289 34.8498C92.0289 37.8098 94.0489 40.0098 96.7489 40.0098C99.4289 40.0098 101.429 37.8098 101.429 34.8498ZM93.4489 34.8498C93.4489 32.5498 94.8489 30.8298 96.7489 30.8298C98.6289 30.8298 100.009 32.5498 100.009 34.8498C100.009 37.1498 98.6289 38.8498 96.7489 38.8498C94.8489 38.8498 93.4489 37.1498 93.4489 34.8498ZM111.982 39.7698V33.2498C111.982 31.1698 110.502 29.6898 108.562 29.6898C107.182 29.6898 105.922 30.4898 105.222 31.4698V29.9298H103.922V39.7698H105.262V32.4898C105.922 31.5698 107.102 30.8498 108.262 30.8498C109.642 30.8498 110.642 31.8498 110.642 33.3298V39.7698H111.982ZM122.594 37.3898L121.434 36.9498C120.954 38.0898 119.994 38.8498 118.834 38.8498C117.054 38.8498 115.754 37.2098 115.754 34.9498C115.754 32.5698 117.034 30.8498 118.794 30.8498C119.854 30.8498 120.834 31.5298 121.314 32.7098L122.494 32.2298C121.814 30.6898 120.474 29.6898 118.774 29.6898C116.194 29.6898 114.334 31.8898 114.334 34.9498C114.334 37.8898 116.194 40.0098 118.774 40.0098C120.534 40.0098 121.954 38.9098 122.594 37.3898ZM132.521 37.6098L131.421 37.1698C130.901 38.2498 129.881 38.8898 128.681 38.8898C126.861 38.8898 125.521 37.3298 125.461 35.0298H132.521C132.561 34.7898 132.601 34.3298 132.601 33.9698C132.601 31.4698 130.921 29.6898 128.581 29.6898C125.981 29.6898 124.061 31.8698 124.061 34.8898C124.061 37.8698 125.981 40.0098 128.621 40.0098C130.361 40.0098 131.841 39.1098 132.521 37.6098ZM128.581 30.7898C130.141 30.7898 131.241 32.0498 131.261 33.9498H125.521C125.821 32.0498 127.021 30.7898 128.581 30.7898ZM136.473 39.7698V33.7898C136.633 32.3098 137.553 31.0298 139.073 31.0298C139.433 31.0298 139.893 31.0898 140.153 31.1698V29.8498C139.953 29.7698 139.473 29.6898 139.133 29.6898C137.893 29.6898 136.793 30.7298 136.413 32.0298L136.433 29.9298H135.133V39.7698H136.473ZM147.484 39.7098V38.5498C147.064 38.7098 146.344 38.8498 145.724 38.8498C144.484 38.8498 143.904 38.1898 143.904 37.1898V31.0498H147.424V29.9298H143.904V27.5098H142.564V29.9298H141.144V31.0498H142.564V37.4098C142.564 39.0698 143.684 40.0098 145.504 40.0098C146.224 40.0098 147.044 39.8498 147.484 39.7098ZM150.79 29.9498H149.45V39.7698H150.79V29.9498ZM150.79 25.9298H149.45V27.7298H150.79V25.9298ZM155.339 28.7098V26.6698H153.819V28.9498H154.519C154.519 29.9098 154.199 30.6698 153.499 31.4098L154.119 31.8498C154.919 31.0498 155.339 29.9498 155.339 28.7098ZM158.079 28.7098V26.6698H156.559V28.9498H157.259C157.259 29.9098 156.939 30.6698 156.239 31.4098L156.859 31.8498C157.659 31.0498 158.079 29.9498 158.079 28.7098Z" fill="white"/>
<line x1="1" y1="62.6172" x2="713.931" y2="62.6172" stroke="white" stroke-width="1.5"/>
<line x1="1.70508" y1="251.838" x2="713.932" y2="251.838" stroke="white" stroke-width="1.5"/>
<path d="M1.70508 375.197L712.309 375.197" stroke="white" stroke-width="1.5"/>
<line x1="1.70508" y1="312.775" x2="712.31" y2="312.775" stroke="white" stroke-width="1.5"/>
<line x1="1.78223" y1="189.604" x2="713.155" y2="189.604" stroke="white" stroke-width="1.5"/>
<line x1="1" y1="127.401" x2="714" y2="127.401" stroke="white" stroke-width="1.5"/>
<rect x="1" y="63" width="413" height="64" fill="#242424"/>
<rect x="1" y="128" width="413" height="61" fill="#242424"/>
<rect x="1" y="190" width="483" height="61" fill="#242424"/>
<rect x="1" y="253" width="560" height="59" fill="#242424"/>
<rect x="2" y="314" width="16" height="61" fill="#242424"/>
<path d="M1 375.887H50.7646V436.869H18.2109L9.50089 427.667L1 419.213V375.887Z" fill="#242424"/>
<path d="M713.154 62.196L635.314 62.196L635.314 1.21424L695.943 1.21424L704.653 10.4163L713.154 18.8701L713.154 62.196Z" fill="white"/>
<path d="M82.2949 163.073C82.2949 161.033 80.5549 159.533 78.0749 159.533C76.5749 159.533 75.0549 160.113 74.1349 161.213C74.1749 158.693 75.5949 156.813 77.8349 156.813C79.1549 156.813 80.3149 157.413 81.0349 158.293L81.9549 157.593C81.0949 156.453 79.5149 155.673 77.7949 155.673C74.8149 155.673 72.7549 158.113 72.7349 161.293C72.7349 164.453 74.7149 166.793 77.8149 166.793C80.3349 166.793 82.2949 165.233 82.2949 163.073ZM77.8149 165.653C75.9749 165.653 74.6749 164.393 74.2749 162.533C75.0549 161.353 76.3549 160.673 77.8949 160.673C79.7549 160.673 80.8749 161.653 80.8749 163.053C80.8749 164.573 79.5149 165.653 77.8149 165.653ZM84.1411 161.213C84.1411 164.433 86.1811 166.793 89.0011 166.793C91.8011 166.793 93.8411 164.433 93.8411 161.213C93.8411 158.013 91.8011 155.673 89.0011 155.673C86.1811 155.673 84.1411 158.013 84.1411 161.213ZM85.5611 161.213C85.5611 158.673 87.0011 156.813 89.0011 156.813C91.0011 156.813 92.4211 158.673 92.4211 161.213C92.4211 163.793 91.0011 165.653 89.0011 165.653C87.0011 165.653 85.5611 163.793 85.5611 161.213ZM108.021 154.053L107.341 153.373C106.581 154.133 105.001 154.713 103.601 154.713C102.561 154.713 101.181 154.473 100.361 154.133C99.8613 153.653 99.2013 153.373 98.4413 153.373C96.7813 153.373 95.5813 154.733 95.5813 156.613C95.5813 158.513 96.7813 159.873 98.4413 159.873C100.101 159.873 101.301 158.513 101.301 156.613C101.301 156.053 101.201 155.533 101.001 155.093C101.781 155.413 102.761 155.633 103.541 155.633C104.341 155.633 105.201 155.393 105.921 155.013L96.2813 166.113L96.9813 166.793L108.021 154.053ZM108.761 163.533C108.761 161.633 107.561 160.293 105.921 160.293C104.261 160.293 103.061 161.653 103.061 163.533C103.061 165.413 104.261 166.793 105.921 166.793C107.561 166.793 108.761 165.413 108.761 163.533ZM104.241 163.533C104.241 162.213 104.941 161.273 105.921 161.273C106.881 161.273 107.581 162.213 107.581 163.533C107.581 164.833 106.881 165.793 105.921 165.793C104.941 165.793 104.241 164.833 104.241 163.533ZM96.7613 156.613C96.7613 155.313 97.4813 154.373 98.4413 154.373C99.4213 154.373 100.121 155.313 100.121 156.613C100.121 157.933 99.4213 158.893 98.4413 158.893C97.4813 158.893 96.7613 157.933 96.7613 156.613Z" fill="white"/>
<path d="M82.2949 100.324C82.2949 98.2844 80.5549 96.7844 78.0749 96.7844C76.5749 96.7844 75.0549 97.3644 74.1349 98.4644C74.1749 95.9444 75.5949 94.0644 77.8349 94.0644C79.1549 94.0644 80.3149 94.6644 81.0349 95.5444L81.9549 94.8444C81.0949 93.7044 79.5149 92.9244 77.7949 92.9244C74.8149 92.9244 72.7549 95.3644 72.7349 98.5444C72.7349 101.704 74.7149 104.044 77.8149 104.044C80.3349 104.044 82.2949 102.484 82.2949 100.324ZM77.8149 102.904C75.9749 102.904 74.6749 101.644 74.2749 99.7844C75.0549 98.6044 76.3549 97.9244 77.8949 97.9244C79.7549 97.9244 80.8749 98.9044 80.8749 100.304C80.8749 101.824 79.5149 102.904 77.8149 102.904ZM84.1411 98.4644C84.1411 101.684 86.1811 104.044 89.0011 104.044C91.8011 104.044 93.8411 101.684 93.8411 98.4644C93.8411 95.2644 91.8011 92.9244 89.0011 92.9244C86.1811 92.9244 84.1411 95.2644 84.1411 98.4644ZM85.5611 98.4644C85.5611 95.9244 87.0011 94.0644 89.0011 94.0644C91.0011 94.0644 92.4211 95.9244 92.4211 98.4644C92.4211 101.044 91.0011 102.904 89.0011 102.904C87.0011 102.904 85.5611 101.044 85.5611 98.4644ZM108.021 91.3044L107.341 90.6244C106.581 91.3844 105.001 91.9644 103.601 91.9644C102.561 91.9644 101.181 91.7244 100.361 91.3844C99.8613 90.9044 99.2013 90.6244 98.4413 90.6244C96.7813 90.6244 95.5813 91.9844 95.5813 93.8644C95.5813 95.7644 96.7813 97.1244 98.4413 97.1244C100.101 97.1244 101.301 95.7644 101.301 93.8644C101.301 93.3044 101.201 92.7844 101.001 92.3444C101.781 92.6644 102.761 92.8844 103.541 92.8844C104.341 92.8844 105.201 92.6444 105.921 92.2644L96.2813 103.364L96.9813 104.044L108.021 91.3044ZM108.761 100.784C108.761 98.8844 107.561 97.5444 105.921 97.5444C104.261 97.5444 103.061 98.9044 103.061 100.784C103.061 102.664 104.261 104.044 105.921 104.044C107.561 104.044 108.761 102.664 108.761 100.784ZM104.241 100.784C104.241 99.4644 104.941 98.5244 105.921 98.5244C106.881 98.5244 107.581 99.4644 107.581 100.784C107.581 102.084 106.881 103.044 105.921 103.044C104.941 103.044 104.241 102.084 104.241 100.784ZM96.7613 93.8644C96.7613 92.5644 97.4813 91.6244 98.4413 91.6244C99.4213 91.6244 100.121 92.5644 100.121 93.8644C100.121 95.1844 99.4213 96.1444 98.4413 96.1444C97.4813 96.1444 96.7613 95.1844 96.7613 93.8644Z" fill="white"/>
<path d="M662 160.333V158.833H655.26L658.16 156.753C659.48 155.793 661.18 154.453 661.18 152.613C661.18 150.793 659.42 149.433 657.24 149.433C655.22 149.433 653.46 150.593 652.72 152.313L654.08 152.933C654.56 151.713 655.74 150.873 657.06 150.873C658.32 150.873 659.38 151.653 659.38 152.753C659.38 153.813 658.46 154.593 657.32 155.473L652.78 158.933V160.333H662ZM663.562 154.993C663.562 158.233 665.642 160.593 668.502 160.593C671.362 160.593 673.442 158.233 673.442 154.993C673.442 151.773 671.362 149.433 668.502 149.433C665.642 149.433 663.562 151.773 663.562 154.993ZM665.362 154.993C665.362 152.613 666.682 150.853 668.502 150.853C670.322 150.853 671.642 152.613 671.642 154.993C671.642 157.413 670.322 159.173 668.502 159.173C666.682 159.173 665.362 157.413 665.362 154.993ZM678.882 149.673L675.102 151.253L675.602 152.613L678.482 151.493V158.933H675.342V160.333H682.902V158.933H680.182V149.673H678.882ZM692.586 150.973V149.673H683.846V151.233H690.666L685.146 160.333H687.006L692.586 150.973Z" fill="white"/>
<path d="M660.36 102.508V101.008H653.62L656.52 98.9283C657.84 97.9683 659.54 96.6283 659.54 94.7883C659.54 92.9683 657.78 91.6083 655.6 91.6083C653.58 91.6083 651.82 92.7683 651.08 94.4883L652.44 95.1083C652.92 93.8883 654.1 93.0483 655.42 93.0483C656.68 93.0483 657.74 93.8283 657.74 94.9283C657.74 95.9883 656.82 96.7683 655.68 97.6483L651.14 101.108V102.508H660.36ZM661.921 97.1683C661.921 100.408 664.001 102.768 666.861 102.768C669.721 102.768 671.801 100.408 671.801 97.1683C671.801 93.9483 669.721 91.6083 666.861 91.6083C664.001 91.6083 661.921 93.9483 661.921 97.1683ZM663.721 97.1683C663.721 94.7883 665.041 93.0283 666.861 93.0283C668.681 93.0283 670.001 94.7883 670.001 97.1683C670.001 99.5883 668.681 101.348 666.861 101.348C665.041 101.348 663.721 99.5883 663.721 97.1683ZM677.241 91.8483L673.461 93.4283L673.961 94.7883L676.841 93.6683V101.108H673.701V102.508H681.261V101.108H678.541V91.8483H677.241ZM692.326 99.0083C692.326 96.9883 690.586 95.5083 688.126 95.5083C686.746 95.5083 685.306 96.0083 684.366 97.0083C684.466 94.7083 685.766 93.0483 687.826 93.0483C689.046 93.0483 690.146 93.6283 690.866 94.4683L692.026 93.6083C691.166 92.4483 689.546 91.6283 687.766 91.6283C684.726 91.6283 682.606 94.0283 682.586 97.2883C682.566 100.488 684.626 102.768 687.726 102.768C690.286 102.768 692.326 101.188 692.326 99.0083ZM687.726 101.348C686.106 101.348 684.926 100.248 684.526 98.6083C685.326 97.4883 686.506 96.9283 687.886 96.9283C689.586 96.9283 690.526 97.7883 690.526 98.9683C690.526 100.348 689.266 101.348 687.726 101.348Z" fill="white"/>
<path d="M80.9149 218.052V216.992H72.2749V218.232H79.3949L73.6149 227.652H75.0949L80.9149 218.052ZM82.4419 222.312C82.4419 225.532 84.4819 227.892 87.3019 227.892C90.1019 227.892 92.1419 225.532 92.1419 222.312C92.1419 219.112 90.1019 216.772 87.3019 216.772C84.4819 216.772 82.4419 219.112 82.4419 222.312ZM83.8619 222.312C83.8619 219.772 85.3019 217.912 87.3019 217.912C89.3019 217.912 90.7219 219.772 90.7219 222.312C90.7219 224.892 89.3019 226.752 87.3019 226.752C85.3019 226.752 83.8619 224.892 83.8619 222.312ZM106.322 215.152L105.642 214.472C104.882 215.232 103.302 215.812 101.902 215.812C100.862 215.812 99.4821 215.572 98.6621 215.232C98.1621 214.752 97.5021 214.472 96.7421 214.472C95.0821 214.472 93.8821 215.832 93.8821 217.712C93.8821 219.612 95.0821 220.972 96.7421 220.972C98.4021 220.972 99.6021 219.612 99.6021 217.712C99.6021 217.152 99.5021 216.632 99.3021 216.192C100.082 216.512 101.062 216.732 101.842 216.732C102.642 216.732 103.502 216.492 104.222 216.112L94.5821 227.212L95.2821 227.892L106.322 215.152ZM107.062 224.632C107.062 222.732 105.862 221.392 104.222 221.392C102.562 221.392 101.362 222.752 101.362 224.632C101.362 226.512 102.562 227.892 104.222 227.892C105.862 227.892 107.062 226.512 107.062 224.632ZM102.542 224.632C102.542 223.312 103.242 222.372 104.222 222.372C105.182 222.372 105.882 223.312 105.882 224.632C105.882 225.932 105.182 226.892 104.222 226.892C103.242 226.892 102.542 225.932 102.542 224.632ZM95.0621 217.712C95.0621 216.412 95.7821 215.472 96.7421 215.472C97.7221 215.472 98.4221 216.412 98.4221 217.712C98.4221 219.032 97.7221 219.992 96.7421 219.992C95.7821 219.992 95.0621 219.032 95.0621 217.712Z" fill="white"/>
<path d="M660.483 223.081V221.581H653.743L656.643 219.501C657.963 218.541 659.663 217.201 659.663 215.361C659.663 213.541 657.903 212.181 655.723 212.181C653.703 212.181 651.943 213.341 651.203 215.061L652.563 215.681C653.043 214.461 654.223 213.621 655.543 213.621C656.803 213.621 657.863 214.401 657.863 215.501C657.863 216.561 656.943 217.341 655.803 218.221L651.263 221.681V223.081H660.483ZM662.045 217.741C662.045 220.981 664.125 223.341 666.985 223.341C669.845 223.341 671.925 220.981 671.925 217.741C671.925 214.521 669.845 212.181 666.985 212.181C664.125 212.181 662.045 214.521 662.045 217.741ZM663.845 217.741C663.845 215.361 665.165 213.601 666.985 213.601C668.805 213.601 670.125 215.361 670.125 217.741C670.125 220.161 668.805 221.921 666.985 221.921C665.165 221.921 663.845 220.161 663.845 217.741ZM677.364 212.421L673.584 214.001L674.084 215.361L676.964 214.241V221.681H673.824V223.081H681.384V221.681H678.664V212.421H677.364ZM692.809 220.161C692.809 219.021 692.189 218.241 690.689 217.681C691.909 217.101 692.549 216.281 692.549 215.181C692.549 213.461 690.529 212.181 687.789 212.181C685.069 212.181 683.069 213.521 683.069 215.301C683.069 216.241 683.549 217.061 684.949 217.681C683.409 218.241 682.669 219.281 682.669 220.281C682.669 222.041 684.909 223.341 687.929 223.341C690.729 223.341 692.809 222.001 692.809 220.161ZM688.069 217.021C685.689 216.621 684.869 216.081 684.869 215.281C684.869 214.321 686.089 213.601 687.789 213.601C689.489 213.601 690.749 214.381 690.749 215.441C690.749 216.121 690.269 216.761 689.289 217.261C688.909 217.181 688.509 217.101 688.069 217.021ZM687.949 221.921C685.949 221.921 684.469 221.181 684.469 220.141C684.469 219.461 685.069 218.661 686.349 218.141C686.769 218.241 687.229 218.341 687.729 218.421C690.249 218.821 691.009 219.441 691.009 220.241C691.009 221.221 689.689 221.921 687.949 221.921Z" fill="white"/>
<path d="M82.6549 285.544C82.6549 284.364 81.9749 283.604 80.4549 283.084C81.6949 282.504 82.4149 281.644 82.4149 280.504C82.4149 278.784 80.4349 277.544 77.7149 277.544C75.0549 277.544 73.0949 278.844 73.0949 280.604C73.0949 281.584 73.6549 282.404 75.1149 282.984C73.5349 283.544 72.7149 284.584 72.7149 285.644C72.7149 287.384 74.8949 288.664 77.8549 288.664C80.6149 288.664 82.6549 287.344 82.6549 285.544ZM77.9749 282.504C75.5349 282.144 74.4949 281.544 74.4949 280.604C74.4949 279.484 75.8549 278.684 77.7349 278.684C79.6149 278.684 80.9949 279.524 80.9949 280.684C80.9949 281.504 80.4149 282.224 79.2549 282.744C78.8749 282.664 78.4349 282.584 77.9749 282.504ZM77.8549 287.524C75.7149 287.524 74.1349 286.704 74.1349 285.524C74.1349 284.744 74.8749 283.884 76.2549 283.344C76.6949 283.444 77.1749 283.544 77.6949 283.624C80.2949 284.004 81.2349 284.604 81.2349 285.604C81.2349 286.724 79.7949 287.524 77.8549 287.524ZM84.6294 283.084C84.6294 286.304 86.6694 288.664 89.4894 288.664C92.2894 288.664 94.3294 286.304 94.3294 283.084C94.3294 279.884 92.2894 277.544 89.4894 277.544C86.6694 277.544 84.6294 279.884 84.6294 283.084ZM86.0494 283.084C86.0494 280.544 87.4894 278.684 89.4894 278.684C91.4894 278.684 92.9094 280.544 92.9094 283.084C92.9094 285.664 91.4894 287.524 89.4894 287.524C87.4894 287.524 86.0494 285.664 86.0494 283.084ZM108.51 275.924L107.83 275.244C107.07 276.004 105.49 276.584 104.09 276.584C103.05 276.584 101.67 276.344 100.85 276.004C100.35 275.524 99.6896 275.244 98.9296 275.244C97.2696 275.244 96.0696 276.604 96.0696 278.484C96.0696 280.384 97.2696 281.744 98.9296 281.744C100.59 281.744 101.79 280.384 101.79 278.484C101.79 277.924 101.69 277.404 101.49 276.964C102.27 277.284 103.25 277.504 104.03 277.504C104.83 277.504 105.69 277.264 106.41 276.884L96.7696 287.984L97.4696 288.664L108.51 275.924ZM109.25 285.404C109.25 283.504 108.05 282.164 106.41 282.164C104.75 282.164 103.55 283.524 103.55 285.404C103.55 287.284 104.75 288.664 106.41 288.664C108.05 288.664 109.25 287.284 109.25 285.404ZM104.73 285.404C104.73 284.084 105.43 283.144 106.41 283.144C107.37 283.144 108.07 284.084 108.07 285.404C108.07 286.704 107.37 287.664 106.41 287.664C105.43 287.664 104.73 286.704 104.73 285.404ZM97.2496 278.484C97.2496 277.184 97.9696 276.244 98.9296 276.244C99.9096 276.244 100.61 277.184 100.61 278.484C100.61 279.804 99.9096 280.764 98.9296 280.764C97.9696 280.764 97.2496 279.804 97.2496 278.484Z" fill="white"/>
<path d="M661.288 285.831V284.331H654.548L657.448 282.251C658.768 281.291 660.468 279.951 660.468 278.111C660.468 276.291 658.708 274.931 656.528 274.931C654.508 274.931 652.748 276.091 652.008 277.811L653.368 278.431C653.848 277.211 655.028 276.371 656.348 276.371C657.608 276.371 658.668 277.151 658.668 278.251C658.668 279.311 657.748 280.091 656.608 280.971L652.068 284.431V285.831H661.288ZM662.85 280.491C662.85 283.731 664.93 286.091 667.79 286.091C670.65 286.091 672.73 283.731 672.73 280.491C672.73 277.271 670.65 274.931 667.79 274.931C664.93 274.931 662.85 277.271 662.85 280.491ZM664.65 280.491C664.65 278.111 665.97 276.351 667.79 276.351C669.61 276.351 670.93 278.111 670.93 280.491C670.93 282.911 669.61 284.671 667.79 284.671C665.97 284.671 664.65 282.911 664.65 280.491ZM678.17 275.171L674.39 276.751L674.89 278.111L677.77 276.991V284.431H674.63V285.831H682.19V284.431H679.47V275.171H678.17ZM687.954 280.731C686.274 280.731 685.354 279.891 685.354 278.731C685.354 277.411 686.614 276.371 688.134 276.371C689.714 276.371 690.874 277.411 691.294 279.091C690.494 280.171 689.314 280.731 687.954 280.731ZM683.574 278.691C683.574 280.691 685.274 282.151 687.694 282.151C689.094 282.151 690.554 281.631 691.474 280.631C691.474 283.031 690.214 284.671 687.994 284.671C686.674 284.671 685.434 284.071 684.574 283.211L683.414 284.111C684.394 285.271 686.154 286.091 688.054 286.091C691.194 286.091 693.234 283.811 693.234 280.511C693.234 277.211 691.174 274.951 688.134 274.951C685.594 274.951 683.574 276.551 683.574 278.691Z" fill="white"/>
<path d="M81.7949 349.487V348.307H74.5949L77.9149 345.807C79.3949 344.687 80.9349 343.447 80.9349 341.667C80.9349 339.927 79.2349 338.607 77.0749 338.607C75.0549 338.607 73.3749 339.727 72.6549 341.427L73.7349 341.907C74.2549 340.627 75.4949 339.767 76.9549 339.767C78.3749 339.767 79.5149 340.607 79.5149 341.767C79.5149 342.927 78.5749 343.747 77.2349 344.807L72.6749 348.367V349.487H81.7949ZM95.6775 336.987L94.9975 336.307C94.2375 337.067 92.6575 337.647 91.2575 337.647C90.2175 337.647 88.8375 337.407 88.0175 337.067C87.5175 336.587 86.8575 336.307 86.0975 336.307C84.4375 336.307 83.2375 337.667 83.2375 339.547C83.2375 341.447 84.4375 342.807 86.0975 342.807C87.7575 342.807 88.9575 341.447 88.9575 339.547C88.9575 338.987 88.8575 338.467 88.6575 338.027C89.4375 338.347 90.4175 338.567 91.1975 338.567C91.9975 338.567 92.8575 338.327 93.5775 337.947L83.9375 349.047L84.6375 349.727L95.6775 336.987ZM96.4175 346.467C96.4175 344.567 95.2175 343.227 93.5775 343.227C91.9175 343.227 90.7175 344.587 90.7175 346.467C90.7175 348.347 91.9175 349.727 93.5775 349.727C95.2175 349.727 96.4175 348.347 96.4175 346.467ZM91.8975 346.467C91.8975 345.147 92.5975 344.207 93.5775 344.207C94.5375 344.207 95.2375 345.147 95.2375 346.467C95.2375 347.767 94.5375 348.727 93.5775 348.727C92.5975 348.727 91.8975 347.767 91.8975 346.467ZM84.4175 339.547C84.4175 338.247 85.1375 337.307 86.0975 337.307C87.0775 337.307 87.7775 338.247 87.7775 339.547C87.7775 340.867 87.0775 341.827 86.0975 341.827C85.1375 341.827 84.4175 340.867 84.4175 339.547Z" fill="white"/>
<path d="M658.591 345.597V344.097H651.851L654.751 342.017C656.071 341.057 657.771 339.717 657.771 337.877C657.771 336.057 656.011 334.697 653.831 334.697C651.811 334.697 650.051 335.857 649.311 337.577L650.671 338.197C651.151 336.977 652.331 336.137 653.651 336.137C654.911 336.137 655.971 336.917 655.971 338.017C655.971 339.077 655.051 339.857 653.911 340.737L649.371 344.197V345.597H658.591ZM660.153 340.257C660.153 343.497 662.233 345.857 665.093 345.857C667.953 345.857 670.033 343.497 670.033 340.257C670.033 337.037 667.953 334.697 665.093 334.697C662.233 334.697 660.153 337.037 660.153 340.257ZM661.953 340.257C661.953 337.877 663.273 336.117 665.093 336.117C666.913 336.117 668.233 337.877 668.233 340.257C668.233 342.677 666.913 344.437 665.093 344.437C663.273 344.437 661.953 342.677 661.953 340.257ZM681.033 345.597V344.097H674.293L677.193 342.017C678.513 341.057 680.213 339.717 680.213 337.877C680.213 336.057 678.453 334.697 676.273 334.697C674.253 334.697 672.493 335.857 671.753 337.577L673.113 338.197C673.593 336.977 674.773 336.137 676.093 336.137C677.353 336.137 678.413 336.917 678.413 338.017C678.413 339.077 677.493 339.857 676.353 340.737L671.813 344.197V345.597H681.033ZM682.594 340.257C682.594 343.497 684.674 345.857 687.534 345.857C690.394 345.857 692.474 343.497 692.474 340.257C692.474 337.037 690.394 334.697 687.534 334.697C684.674 334.697 682.594 337.037 682.594 340.257ZM684.394 340.257C684.394 337.877 685.714 336.117 687.534 336.117C689.354 336.117 690.674 337.877 690.674 340.257C690.674 342.677 689.354 344.437 687.534 344.437C685.714 344.437 684.394 342.677 684.394 340.257Z" fill="white"/>
<path d="M81.8149 406.848C81.8149 404.748 79.9749 403.268 77.5749 403.268C76.2149 403.268 74.9149 403.728 74.1549 404.348L74.3949 400.948H81.3349V399.708H73.2949L72.9749 405.568L73.9149 405.828C74.6149 404.988 75.9549 404.408 77.2749 404.408C79.0949 404.408 80.3949 405.448 80.3949 406.888C80.3949 408.388 78.9749 409.468 77.1349 409.468C75.6149 409.468 74.3349 408.768 73.6549 407.708L72.5949 408.288C73.4549 409.708 75.2149 410.608 77.1749 410.608C79.7749 410.608 81.8149 409.008 81.8149 406.848ZM95.8533 397.868L95.1733 397.188C94.4133 397.948 92.8333 398.528 91.4333 398.528C90.3933 398.528 89.0133 398.288 88.1933 397.948C87.6933 397.468 87.0333 397.188 86.2733 397.188C84.6133 397.188 83.4133 398.548 83.4133 400.428C83.4133 402.328 84.6133 403.688 86.2733 403.688C87.9333 403.688 89.1333 402.328 89.1333 400.428C89.1333 399.868 89.0333 399.348 88.8333 398.908C89.6133 399.228 90.5933 399.448 91.3733 399.448C92.1733 399.448 93.0333 399.208 93.7533 398.828L84.1133 409.928L84.8133 410.608L95.8533 397.868ZM96.5933 407.348C96.5933 405.448 95.3933 404.108 93.7533 404.108C92.0933 404.108 90.8933 405.468 90.8933 407.348C90.8933 409.228 92.0933 410.608 93.7533 410.608C95.3933 410.608 96.5933 409.228 96.5933 407.348ZM92.0733 407.348C92.0733 406.028 92.7733 405.088 93.7533 405.088C94.7133 405.088 95.4133 406.028 95.4133 407.348C95.4133 408.648 94.7133 409.608 93.7533 409.608C92.7733 409.608 92.0733 408.648 92.0733 407.348ZM84.5933 400.428C84.5933 399.128 85.3133 398.188 86.2733 398.188C87.2533 398.188 87.9533 399.128 87.9533 400.428C87.9533 401.748 87.2533 402.708 86.2733 402.708C85.3133 402.708 84.5933 401.748 84.5933 400.428Z" fill="white"/>
<path d="M662.287 407.775V406.275H655.547L658.447 404.195C659.767 403.235 661.467 401.895 661.467 400.055C661.467 398.235 659.707 396.875 657.527 396.875C655.507 396.875 653.747 398.035 653.007 399.755L654.367 400.375C654.847 399.155 656.027 398.315 657.347 398.315C658.607 398.315 659.667 399.095 659.667 400.195C659.667 401.255 658.747 402.035 657.607 402.915L653.067 406.375V407.775H662.287ZM663.848 402.435C663.848 405.675 665.928 408.035 668.788 408.035C671.648 408.035 673.728 405.675 673.728 402.435C673.728 399.215 671.648 396.875 668.788 396.875C665.928 396.875 663.848 399.215 663.848 402.435ZM665.648 402.435C665.648 400.055 666.968 398.295 668.788 398.295C670.608 398.295 671.928 400.055 671.928 402.435C671.928 404.855 670.608 406.615 668.788 406.615C666.968 406.615 665.648 404.855 665.648 402.435ZM684.728 407.775V406.275H677.988L680.888 404.195C682.208 403.235 683.908 401.895 683.908 400.055C683.908 398.235 682.148 396.875 679.968 396.875C677.948 396.875 676.188 398.035 675.448 399.755L676.808 400.375C677.288 399.155 678.468 398.315 679.788 398.315C681.048 398.315 682.108 399.095 682.108 400.195C682.108 401.255 681.188 402.035 680.048 402.915L675.508 406.375V407.775H684.728ZM689.93 397.115L686.15 398.695L686.65 400.055L689.53 398.935V406.375H686.39V407.775H693.95V406.375H691.23V397.115H689.93Z" fill="white"/>
<path d="M44.4655 162.856H43.4683L43.1148 162.496C44.3519 160.977 45.0967 159.005 45.0967 156.86C45.0967 152.076 41.4233 148.199 36.8916 148.199C32.3599 148.199 28.6865 152.076 28.6865 156.86C28.6865 161.643 32.3599 165.521 36.8916 165.521C38.9239 165.521 40.7922 164.735 42.2312 163.429L42.572 163.802V164.855L48.8836 171.503L50.7645 169.518L44.4655 162.856ZM36.8916 162.856C33.7484 162.856 31.2112 160.178 31.2112 156.86C31.2112 153.542 33.7484 150.864 36.8916 150.864C40.0348 150.864 42.572 153.542 42.572 156.86C42.572 160.178 40.0348 162.856 36.8916 162.856Z" fill="white" fill-opacity="0.2"/>
<path d="M44.4655 100.212H43.4683L43.1148 99.8519C44.3519 98.3329 45.0967 96.3608 45.0967 94.2156C45.0967 89.4321 41.4233 85.5547 36.8916 85.5547C32.3599 85.5547 28.6865 89.4321 28.6865 94.2156C28.6865 98.9991 32.3599 102.877 36.8916 102.877C38.9239 102.877 40.7922 102.09 42.2312 100.785L42.572 101.158V102.21L48.8836 108.859L50.7645 106.874L44.4655 100.212ZM36.8916 100.212C33.7484 100.212 31.2112 97.5334 31.2112 94.2156C31.2112 90.8978 33.7484 88.2196 36.8916 88.2196C40.0348 88.2196 42.572 90.8978 42.572 94.2156C42.572 97.5334 40.0348 100.212 36.8916 100.212Z" fill="white" fill-opacity="0.2"/>
<path d="M44.4655 225.926H43.4683L43.1148 225.566C44.3519 224.047 45.0967 222.075 45.0967 219.93C45.0967 215.147 41.4233 211.269 36.8916 211.269C32.3599 211.269 28.6865 215.147 28.6865 219.93C28.6865 224.714 32.3599 228.591 36.8916 228.591C38.9239 228.591 40.7922 227.805 42.2312 226.499L42.572 226.872V227.925L48.8836 234.574L50.7645 232.588L44.4655 225.926ZM36.8916 225.926C33.7484 225.926 31.2112 223.248 31.2112 219.93C31.2112 216.612 33.7484 213.934 36.8916 213.934C40.0348 213.934 42.572 216.612 42.572 219.93C42.572 223.248 40.0348 225.926 36.8916 225.926Z" fill="white" fill-opacity="0.2"/>
<path d="M44.4655 409.978H43.4683L43.1148 409.618C44.3519 408.099 45.0967 406.127 45.0967 403.982C45.0967 399.198 41.4233 395.321 36.8916 395.321C32.3599 395.321 28.6865 399.198 28.6865 403.982C28.6865 408.765 32.3599 412.643 36.8916 412.643C38.9239 412.643 40.7922 411.857 42.2312 410.551L42.572 410.924V411.977L48.8836 418.626L50.7645 416.64L44.4655 409.978ZM36.8916 409.978C33.7484 409.978 31.2112 407.3 31.2112 403.982C31.2112 400.664 33.7484 397.986 36.8916 397.986C40.0348 397.986 42.572 400.664 42.572 403.982C42.572 407.3 40.0348 409.978 36.8916 409.978Z" fill="white" fill-opacity="0.2"/>
<path d="M44.4655 288.254H43.4683L43.1148 287.894C44.3519 286.375 45.0967 284.403 45.0967 282.258C45.0967 277.474 41.4233 273.597 36.8916 273.597C32.3599 273.597 28.6865 277.474 28.6865 282.258C28.6865 287.041 32.3599 290.919 36.8916 290.919C38.9239 290.919 40.7922 290.132 42.2312 288.827L42.572 289.2V290.252L48.8836 296.901L50.7645 294.916L44.4655 288.254ZM36.8916 288.254C33.7484 288.254 31.2112 285.575 31.2112 282.258C31.2112 278.94 33.7484 276.262 36.8916 276.262C40.0348 276.262 42.572 278.94 42.572 282.258C42.572 285.575 40.0348 288.254 36.8916 288.254Z" fill="white" fill-opacity="0.2"/>
<path d="M44.4655 349.096H43.4683L43.1148 348.737C44.3519 347.218 45.0967 345.246 45.0967 343.1C45.0967 338.317 41.4233 334.439 36.8916 334.439C32.3599 334.439 28.6865 338.317 28.6865 343.1C28.6865 347.884 32.3599 351.761 36.8916 351.761C38.9239 351.761 40.7922 350.975 42.2312 349.669L42.572 350.042V351.095L48.8836 357.744L50.7645 355.759L44.4655 349.096ZM36.8916 349.096C33.7484 349.096 31.2112 346.418 31.2112 343.1C31.2112 339.783 33.7484 337.104 36.8916 337.104C40.0348 337.104 42.572 339.783 42.572 343.1C42.572 346.418 40.0348 349.096 36.8916 349.096Z" fill="white" fill-opacity="0.2"/>
<path d="M677.411 34.7099H676.414L676.06 34.3501C677.297 32.8312 678.042 30.8591 678.042 28.7139C678.042 23.9304 674.369 20.053 669.837 20.053C665.305 20.053 661.632 23.9304 661.632 28.7139C661.632 33.4974 665.305 37.3748 669.837 37.3748C671.869 37.3748 673.737 36.5887 675.177 35.2829L675.517 35.6559V36.7086L681.829 43.3575L683.71 41.3721L677.411 34.7099ZM669.837 34.7099C666.694 34.7099 664.156 32.0317 664.156 28.7139C664.156 25.3961 666.694 22.7179 669.837 22.7179C672.98 22.7179 675.517 25.3961 675.517 28.7139C675.517 32.0317 672.98 34.7099 669.837 34.7099Z" fill="black"/>
<path d="M37.9457 31.9527V36.2114H44.0145C43.2209 38.7916 41.0642 40.6384 37.9457 40.6384C34.232 40.6384 31.2215 37.628 31.2215 33.9154C31.2215 30.2028 34.232 27.1924 37.9457 27.1924C39.6153 27.1924 41.14 27.8043 42.3159 28.8118L45.4523 25.6754C43.4717 23.871 40.8369 22.7698 37.9457 22.7698C31.7889 22.7698 26.7979 27.7597 26.7979 33.9154C26.7979 40.0711 31.7889 45.061 37.9457 45.061C47.3036 45.061 49.3688 36.3117 48.4516 31.9671L37.9457 31.9527Z" fill="white"/>
<path d="M19.0771 1.55688L1.29199 19.3418L1.52125 419.628L18.3953 436.461H695.515L714 418.373V19.1085L695.515 1.55688H19.0771Z" stroke="white" stroke-width="1.5"/>
</svg>
