<svg width="1301" height="868" viewBox="0 0 1301 868" fill="none" xmlns="http://www.w3.org/2000/svg">
<path d="M154.136 262.385L107.251 215.278L80.7354 276.222L98.0881 212.065L32.0518 219.573L96.2893 202.523L56.7688 149.088L103.654 196.194L130.169 135.251L112.817 199.407L178.853 191.899L114.615 208.95L154.136 262.385Z" fill="#ADFF00"/>
<path d="M1247.35 690.864L1203.1 646.409L1178.08 703.923L1194.45 643.377L1132.13 650.462L1192.76 634.372L1155.46 583.944L1199.71 628.399L1224.73 570.885L1208.35 631.431L1270.67 624.346L1210.05 640.436L1247.35 690.864Z" fill="#ADFF00"/>
<path d="M525.016 97.8273L495.172 69.4626L461.401 93.0171L489.766 63.1727L466.212 29.4024L496.056 57.7671L529.826 34.2126L501.461 64.057L525.016 97.8273Z" fill="#FF6318"/>
<path d="M1127.02 181.827L1098.7 153.378L1082.69 190.184L1093.17 151.437L1053.28 155.972L1092.08 145.674L1068.21 113.402L1096.53 141.852L1112.54 105.045L1102.06 143.793L1141.94 139.258L1103.15 149.555L1127.02 181.827Z" fill="#C852FF"/>
<path d="M395.016 837.827L365.172 809.462L331.401 833.017L359.766 803.172L336.212 769.402L366.056 797.767L399.826 774.212L371.461 804.057L395.016 837.827Z" fill="#C852FF"/>
</svg>
