<svg width="1398" height="905" viewBox="0 0 1398 905" fill="none" xmlns="http://www.w3.org/2000/svg">
<path fill-rule="evenodd" clip-rule="evenodd" d="M664.044 380.53L555.583 470.975L555.591 470.885L546.862 470.094L447.629 351.095L448.329 343.367L440.023 341.976L390.19 282.217L390.329 272.804L498.788 182.361L508.168 183.932L508.169 183.832L558.004 243.593L557.905 243.576L557.78 252.09L565.601 252.799L565.609 252.711L664.843 371.712L664.754 371.704L663.955 380.522L664.044 380.53Z" fill="#ADFF00"/>
<rect x="445.571" y="328.372" width="64.5854" height="2.51567" transform="rotate(-129.825 445.571 328.372)" fill="#121212"/>
<rect x="518.371" y="267.664" width="64.5854" height="1.30825" transform="rotate(-129.825 518.371 267.664)" fill="#121212"/>
<rect x="449.73" y="324.905" width="64.5854" height="10.0633" transform="rotate(-129.825 449.73 324.905)" fill="#121212"/>
<rect x="520.536" y="265.86" width="64.5854" height="5.23333" transform="rotate(-129.825 520.536 265.86)" fill="#121212"/>
<rect x="532.784" y="255.646" width="64.5854" height="5.23333" transform="rotate(-129.825 532.784 255.646)" fill="#121212"/>
<rect x="459.389" y="316.849" width="64.5854" height="10.0633" transform="rotate(-129.825 459.389 316.849)" fill="#121212"/>
<rect x="476.963" y="302.196" width="64.5854" height="15.5945" transform="rotate(-129.825 476.963 302.196)" fill="#121212"/>
<rect x="525.557" y="261.671" width="64.5854" height="5.23333" transform="rotate(-129.825 525.557 261.671)" fill="#121212"/>
<rect x="537.809" y="251.456" width="64.5854" height="5.23333" transform="rotate(-129.825 537.809 251.456)" fill="#121212"/>
<rect x="472.507" y="305.91" width="64.5854" height="2.69698" transform="rotate(-129.825 472.507 305.91)" fill="#121212"/>
<rect x="469.051" y="308.793" width="64.5854" height="1.9853" transform="rotate(-129.825 469.051 308.793)" fill="#121212"/>
<rect x="530.582" y="257.481" width="64.5854" height="1.03244" transform="rotate(-129.825 530.582 257.481)" fill="#121212"/>
<rect x="542.834" y="247.266" width="64.5854" height="1.03244" transform="rotate(-129.825 542.834 247.266)" fill="#121212"/>
<rect x="491.074" y="290.427" width="64.5854" height="1.9853" transform="rotate(-129.825 491.074 290.427)" fill="#121212"/>
<rect x="494.27" y="287.764" width="64.5854" height="1.9853" transform="rotate(-129.825 494.27 287.764)" fill="#121212"/>
<rect x="497.256" y="285.272" width="64.5854" height="6.92596" transform="rotate(-129.825 497.256 285.272)" fill="#121212"/>
<rect x="503.623" y="279.964" width="64.5854" height="12.341" transform="rotate(-129.825 503.623 279.964)" fill="#121212"/>
<rect x="514.146" y="271.189" width="64.5854" height="3.67026" transform="rotate(-129.825 514.146 271.189)" fill="#121212"/>
<path fill-rule="evenodd" clip-rule="evenodd" d="M956.611 17.5362L1067.41 105.104L1067.32 105.114L1068.34 113.817L972.259 235.382L964.554 236.285L964.898 244.697L916.65 305.743L907.411 307.541L796.616 219.973L796.227 210.469L796.13 210.488L844.379 149.441L844.383 149.54L852.741 147.914L851.828 140.118L851.738 140.128L947.817 18.5643L947.828 18.6536L956.622 17.6239L956.611 17.5362Z" fill="#ADFF00"/>
<rect x="950.444" y="242.062" width="64.5854" height="2.51567" transform="rotate(128.322 950.444 242.062)" fill="#121212"/>
<rect x="876.078" y="183.284" width="64.5854" height="1.30825" transform="rotate(128.322 876.078 183.284)" fill="#121212"/>
<rect x="946.196" y="238.705" width="64.5854" height="10.0633" transform="rotate(128.322 946.196 238.705)" fill="#121212"/>
<rect x="873.868" y="181.539" width="64.5854" height="5.23333" transform="rotate(128.322 873.868 181.539)" fill="#121212"/>
<rect x="861.353" y="171.648" width="64.5854" height="5.23333" transform="rotate(128.322 861.353 171.648)" fill="#121212"/>
<rect x="936.329" y="230.905" width="64.5854" height="10.0633" transform="rotate(128.322 936.329 230.905)" fill="#121212"/>
<rect x="918.379" y="216.719" width="64.5854" height="15.5945" transform="rotate(128.322 918.379 216.719)" fill="#121212"/>
<rect x="868.735" y="177.482" width="64.5854" height="5.23333" transform="rotate(128.322 868.735 177.482)" fill="#121212"/>
<rect x="856.22" y="167.592" width="64.5854" height="5.23333" transform="rotate(128.322 856.22 167.592)" fill="#121212"/>
<rect x="922.928" y="220.314" width="64.5854" height="2.69698" transform="rotate(128.322 922.928 220.314)" fill="#121212"/>
<rect x="926.461" y="223.105" width="64.5854" height="1.9853" transform="rotate(128.322 926.461 223.105)" fill="#121212"/>
<rect x="863.604" y="173.426" width="64.5854" height="1.03244" transform="rotate(128.322 863.604 173.426)" fill="#121212"/>
<rect x="851.087" y="163.535" width="64.5854" height="1.03244" transform="rotate(128.322 851.087 163.535)" fill="#121212"/>
<rect x="903.962" y="205.323" width="64.5854" height="1.9853" transform="rotate(128.322 903.962 205.323)" fill="#121212"/>
<rect x="900.7" y="202.746" width="64.5854" height="1.9853" transform="rotate(128.322 900.7 202.746)" fill="#121212"/>
<rect x="897.647" y="200.333" width="64.5854" height="6.92596" transform="rotate(128.322 897.647 200.333)" fill="#121212"/>
<rect x="891.145" y="195.194" width="64.5854" height="12.341" transform="rotate(128.322 891.145 195.194)" fill="#121212"/>
<rect x="880.396" y="186.697" width="64.5854" height="3.67026" transform="rotate(128.322 880.396 186.697)" fill="#121212"/>
<path d="M197.319 490.699L215.126 500.311L228.111 484.792L218.499 502.598L234.018 515.583L216.212 505.972L203.227 521.491L212.838 503.684L197.319 490.699Z" fill="#FCF9FF"/>
<path d="M188.46 600.858L214.749 600.634L219.798 574.834L220.022 601.123L245.823 606.172L219.534 606.396L214.485 632.196L214.261 605.907L188.46 600.858Z" fill="#FCF9FF"/>
<path d="M1081.26 392.442L1069.36 423.131L1097.04 440.932L1066.36 429.039L1048.56 456.722L1060.45 426.033L1032.77 408.232L1063.45 420.125L1081.26 392.442Z" fill="#FCF9FF"/>
<path fill-rule="evenodd" clip-rule="evenodd" d="M1342.16 241.909L1211.47 295.421L1211.5 295.338L1203.42 291.95L1144.7 148.559L1147.7 141.403L1140.21 137.572L1110.72 65.5612L1113.69 56.6323L1244.38 3.12095L1252.85 7.44861L1252.88 7.3521L1282.37 79.3645L1282.28 79.3189L1279.59 87.3979L1286.83 90.431L1286.87 90.3489L1345.58 233.743L1345.5 233.709L1342.08 241.875L1342.16 241.909Z" fill="#C852FF"/>
<rect x="1149.6" y="126.275" width="64.5854" height="2.51567" transform="rotate(-112.267 1149.6 126.275)" fill="#121212"/>
<rect x="1237.32" y="90.3579" width="64.5854" height="1.30825" transform="rotate(-112.267 1237.32 90.3579)" fill="#121212"/>
<rect x="1154.61" y="124.225" width="64.5854" height="10.0633" transform="rotate(-112.267 1154.61 124.225)" fill="#121212"/>
<rect x="1239.93" y="89.291" width="64.5854" height="5.23333" transform="rotate(-112.267 1239.93 89.291)" fill="#121212"/>
<rect x="1254.69" y="83.2466" width="64.5854" height="5.23333" transform="rotate(-112.267 1254.69 83.2466)" fill="#121212"/>
<rect x="1166.25" y="119.458" width="64.5854" height="10.0633" transform="rotate(-112.267 1166.25 119.458)" fill="#121212"/>
<rect x="1187.42" y="110.789" width="64.5854" height="15.5945" transform="rotate(-112.267 1187.42 110.789)" fill="#121212"/>
<rect x="1245.98" y="86.812" width="64.5854" height="5.23333" transform="rotate(-112.267 1245.98 86.812)" fill="#121212"/>
<rect x="1260.74" y="80.7686" width="64.5854" height="5.23333" transform="rotate(-112.267 1260.74 80.7686)" fill="#121212"/>
<rect x="1182.05" y="112.986" width="64.5854" height="2.69698" transform="rotate(-112.267 1182.05 112.986)" fill="#121212"/>
<rect x="1177.89" y="114.691" width="64.5854" height="1.9853" transform="rotate(-112.267 1177.89 114.691)" fill="#121212"/>
<rect x="1252.03" y="84.333" width="64.5854" height="1.03244" transform="rotate(-112.267 1252.03 84.333)" fill="#121212"/>
<rect x="1266.79" y="78.2896" width="64.5854" height="1.03244" transform="rotate(-112.267 1266.79 78.2896)" fill="#121212"/>
<rect x="1204.43" y="103.826" width="64.5854" height="1.9853" transform="rotate(-112.267 1204.43 103.826)" fill="#121212"/>
<rect x="1208.27" y="102.25" width="64.5854" height="1.9853" transform="rotate(-112.267 1208.27 102.25)" fill="#121212"/>
<rect x="1211.87" y="100.775" width="64.5854" height="6.92596" transform="rotate(-112.267 1211.87 100.775)" fill="#121212"/>
<rect x="1219.54" y="97.6353" width="64.5854" height="12.341" transform="rotate(-112.267 1219.54 97.6353)" fill="#121212"/>
<rect x="1232.23" y="92.4434" width="64.5854" height="3.67026" transform="rotate(-112.267 1232.23 92.4434)" fill="#121212"/>
<path fill-rule="evenodd" clip-rule="evenodd" d="M1289.88 866.921L1160.17 811.054L1160.26 811.021L1157.02 802.875L1218.31 660.57L1225.52 657.701L1223 649.664L1253.78 578.203L1262.24 574.071L1391.95 629.936L1394.79 639.014L1394.87 638.972L1364.09 710.433L1364.06 710.341L1356.41 714.077L1359.32 721.37L1359.4 721.338L1298.1 863.643L1298.07 863.563L1289.85 866.836L1289.88 866.921Z" fill="#ADFF00"/>
<rect x="1237.65" y="648.464" width="64.5854" height="2.51567" transform="rotate(-66.6975 1237.65 648.464)" fill="#121212"/>
<rect x="1324.71" y="685.963" width="64.5854" height="1.30825" transform="rotate(-66.6975 1324.71 685.963)" fill="#121212"/>
<rect x="1242.62" y="650.606" width="64.5854" height="10.0633" transform="rotate(-66.6975 1242.62 650.606)" fill="#121212"/>
<rect x="1327.29" y="687.077" width="64.5854" height="5.23333" transform="rotate(-66.6975 1327.29 687.077)" fill="#121212"/>
<rect x="1341.94" y="693.386" width="64.5854" height="5.23333" transform="rotate(-66.6975 1341.94 693.386)" fill="#121212"/>
<rect x="1254.17" y="655.582" width="64.5854" height="10.0633" transform="rotate(-66.6975 1254.17 655.582)" fill="#121212"/>
<rect x="1275.19" y="664.633" width="64.5854" height="15.5945" transform="rotate(-66.6975 1275.19 664.633)" fill="#121212"/>
<rect x="1333.3" y="689.664" width="64.5854" height="5.23333" transform="rotate(-66.6975 1333.3 689.664)" fill="#121212"/>
<rect x="1347.95" y="695.974" width="64.5854" height="5.23333" transform="rotate(-66.6975 1347.95 695.974)" fill="#121212"/>
<rect x="1269.86" y="662.339" width="64.5854" height="2.69698" transform="rotate(-66.6975 1269.86 662.339)" fill="#121212"/>
<rect x="1265.73" y="660.559" width="64.5854" height="1.9853" transform="rotate(-66.6975 1265.73 660.559)" fill="#121212"/>
<rect x="1339.31" y="692.252" width="64.5854" height="1.03244" transform="rotate(-66.6975 1339.31 692.252)" fill="#121212"/>
<rect x="1353.96" y="698.562" width="64.5854" height="1.03244" transform="rotate(-66.6975 1353.96 698.562)" fill="#121212"/>
<rect x="1292.07" y="671.903" width="64.5854" height="1.9853" transform="rotate(-66.6975 1292.07 671.903)" fill="#121212"/>
<rect x="1295.88" y="673.547" width="64.5854" height="1.9853" transform="rotate(-66.6975 1295.88 673.547)" fill="#121212"/>
<rect x="1299.46" y="675.086" width="64.5854" height="6.92596" transform="rotate(-66.6975 1299.46 675.086)" fill="#121212"/>
<rect x="1307.07" y="678.365" width="64.5854" height="12.341" transform="rotate(-66.6975 1307.07 678.365)" fill="#121212"/>
<rect x="1319.65" y="683.786" width="64.5854" height="3.67026" transform="rotate(-66.6975 1319.65 683.786)" fill="#121212"/>
<path fill-rule="evenodd" clip-rule="evenodd" d="M602.122 633.773L471.429 687.285L471.464 687.201L463.379 683.814L404.667 540.422L407.665 533.266L400.17 529.436L370.685 457.425L373.656 448.496L504.347 394.984L512.816 399.312L512.848 399.216L542.334 471.228L542.244 471.182L539.557 479.262L546.795 482.294L546.83 482.211L605.543 625.606L605.461 625.572L602.039 633.738L602.122 633.773Z" fill="#C852FF"/>
<rect x="409.561" y="518.139" width="64.5854" height="2.51567" transform="rotate(-112.267 409.561 518.139)" fill="#121212"/>
<rect x="497.284" y="482.221" width="64.5854" height="1.30825" transform="rotate(-112.267 497.284 482.221)" fill="#121212"/>
<rect x="414.572" y="516.087" width="64.5854" height="10.0633" transform="rotate(-112.267 414.572 516.087)" fill="#121212"/>
<rect x="499.891" y="481.154" width="64.5854" height="5.23333" transform="rotate(-112.267 499.891 481.154)" fill="#121212"/>
<rect x="514.649" y="475.11" width="64.5854" height="5.23333" transform="rotate(-112.267 514.649 475.11)" fill="#121212"/>
<rect x="426.213" y="511.321" width="64.5854" height="10.0633" transform="rotate(-112.267 426.213 511.321)" fill="#121212"/>
<rect x="447.384" y="502.651" width="64.5854" height="15.5945" transform="rotate(-112.267 447.384 502.651)" fill="#121212"/>
<rect x="505.942" y="478.675" width="64.5854" height="5.23333" transform="rotate(-112.267 505.942 478.675)" fill="#121212"/>
<rect x="520.704" y="472.631" width="64.5854" height="5.23333" transform="rotate(-112.267 520.704 472.631)" fill="#121212"/>
<rect x="442.017" y="504.849" width="64.5854" height="2.69698" transform="rotate(-112.267 442.017 504.849)" fill="#121212"/>
<rect x="437.855" y="506.555" width="64.5854" height="1.9853" transform="rotate(-112.267 437.855 506.555)" fill="#121212"/>
<rect x="511.997" y="476.196" width="64.5854" height="1.03244" transform="rotate(-112.267 511.997 476.196)" fill="#121212"/>
<rect x="526.76" y="470.152" width="64.5854" height="1.03244" transform="rotate(-112.267 526.76 470.152)" fill="#121212"/>
<rect x="464.393" y="495.689" width="64.5854" height="1.9853" transform="rotate(-112.267 464.393 495.689)" fill="#121212"/>
<rect x="468.239" y="494.113" width="64.5854" height="1.9853" transform="rotate(-112.267 468.239 494.113)" fill="#121212"/>
<rect x="471.839" y="492.639" width="64.5854" height="6.92596" transform="rotate(-112.267 471.839 492.639)" fill="#121212"/>
<rect x="479.509" y="489.499" width="64.5854" height="12.341" transform="rotate(-112.267 479.509 489.499)" fill="#121212"/>
<rect x="492.192" y="484.307" width="64.5854" height="3.67026" transform="rotate(-112.267 492.192 484.307)" fill="#121212"/>
<path fill-rule="evenodd" clip-rule="evenodd" d="M451.945 313.846L321.253 367.357L321.288 367.274L313.202 363.887L254.49 220.494L257.489 213.338L249.994 209.508L220.51 137.499L223.481 128.568L354.171 75.0569L362.641 79.3848L362.673 79.2894L392.158 151.3L392.069 151.255L389.381 159.335L396.618 162.367L396.653 162.284L455.366 305.679L455.284 305.645L451.863 313.811L451.945 313.846Z" fill="#C852FF"/>
<rect x="259.385" y="198.212" width="64.5854" height="2.51567" transform="rotate(-112.267 259.385 198.212)" fill="#121212"/>
<rect x="347.107" y="162.294" width="64.5854" height="1.30825" transform="rotate(-112.267 347.107 162.294)" fill="#121212"/>
<rect x="264.395" y="196.161" width="64.5854" height="10.0633" transform="rotate(-112.267 264.395 196.161)" fill="#121212"/>
<rect x="349.715" y="161.227" width="64.5854" height="5.23333" transform="rotate(-112.267 349.715 161.227)" fill="#121212"/>
<rect x="364.473" y="155.183" width="64.5854" height="5.23333" transform="rotate(-112.267 364.473 155.183)" fill="#121212"/>
<rect x="276.036" y="191.394" width="64.5854" height="10.0633" transform="rotate(-112.267 276.036 191.394)" fill="#121212"/>
<rect x="297.208" y="182.725" width="64.5854" height="15.5945" transform="rotate(-112.267 297.208 182.725)" fill="#121212"/>
<rect x="355.766" y="158.748" width="64.5854" height="5.23333" transform="rotate(-112.267 355.766 158.748)" fill="#121212"/>
<rect x="370.528" y="152.705" width="64.5854" height="5.23333" transform="rotate(-112.267 370.528 152.705)" fill="#121212"/>
<rect x="291.841" y="184.922" width="64.5854" height="2.69698" transform="rotate(-112.267 291.841 184.922)" fill="#121212"/>
<rect x="287.678" y="186.628" width="64.5854" height="1.9853" transform="rotate(-112.267 287.678 186.628)" fill="#121212"/>
<rect x="361.821" y="156.269" width="64.5854" height="1.03244" transform="rotate(-112.267 361.821 156.269)" fill="#121212"/>
<rect x="376.584" y="150.226" width="64.5854" height="1.03244" transform="rotate(-112.267 376.584 150.226)" fill="#121212"/>
<rect x="314.216" y="175.762" width="64.5854" height="1.9853" transform="rotate(-112.267 314.216 175.762)" fill="#121212"/>
<rect x="318.062" y="174.187" width="64.5854" height="1.9853" transform="rotate(-112.267 318.062 174.187)" fill="#121212"/>
<rect x="321.663" y="172.712" width="64.5854" height="6.92596" transform="rotate(-112.267 321.663 172.712)" fill="#121212"/>
<rect x="329.332" y="169.572" width="64.5854" height="12.341" transform="rotate(-112.267 329.332 169.572)" fill="#121212"/>
<rect x="342.016" y="164.38" width="64.5854" height="3.67026" transform="rotate(-112.267 342.016 164.38)" fill="#121212"/>
<path fill-rule="evenodd" clip-rule="evenodd" d="M101.489 583.143L222.588 510.477L222.565 510.566L231.066 512.691L310.792 645.554L308.911 653.081L316.9 655.733L356.937 722.454L355.351 731.732L234.258 804.396L225.231 801.399L225.214 801.497L185.177 734.776L185.271 734.807L186.705 726.413L179.092 724.511L179.07 724.599L99.3425 591.733L99.4291 591.755L101.576 583.165L101.489 583.143Z" fill="#C852FF"/>
<rect x="309.324" y="668.32" width="64.5854" height="2.51567" transform="rotate(59.0335 309.324 668.32)" fill="#121212"/>
<rect x="228.04" y="717.094" width="64.5854" height="1.30825" transform="rotate(59.0335 228.04 717.094)" fill="#121212"/>
<rect x="304.682" y="671.106" width="64.5854" height="10.0633" transform="rotate(59.0335 304.682 671.106)" fill="#121212"/>
<rect x="225.626" y="718.542" width="64.5854" height="5.23333" transform="rotate(59.0335 225.626 718.542)" fill="#121212"/>
<rect x="211.951" y="726.75" width="64.5854" height="5.23333" transform="rotate(59.0335 211.951 726.75)" fill="#121212"/>
<rect x="293.896" y="677.578" width="64.5854" height="10.0633" transform="rotate(59.0335 293.896 677.578)" fill="#121212"/>
<rect x="274.276" y="689.351" width="64.5854" height="15.5945" transform="rotate(59.0335 274.276 689.351)" fill="#121212"/>
<rect x="220.017" y="721.909" width="64.5854" height="5.23333" transform="rotate(59.0335 220.017 721.909)" fill="#121212"/>
<rect x="206.341" y="730.116" width="64.5854" height="5.23333" transform="rotate(59.0335 206.341 730.116)" fill="#121212"/>
<rect x="279.249" y="686.367" width="64.5854" height="2.69698" transform="rotate(59.0335 279.249 686.367)" fill="#121212"/>
<rect x="283.11" y="684.051" width="64.5854" height="1.9853" transform="rotate(59.0335 283.11 684.051)" fill="#121212"/>
<rect x="214.409" y="725.275" width="64.5854" height="1.03244" transform="rotate(59.0335 214.409 725.275)" fill="#121212"/>
<rect x="200.732" y="733.481" width="64.5854" height="1.03244" transform="rotate(59.0335 200.732 733.481)" fill="#121212"/>
<rect x="258.517" y="698.806" width="64.5854" height="1.9853" transform="rotate(59.0335 258.517 698.806)" fill="#121212"/>
<rect x="254.954" y="700.945" width="64.5854" height="1.9853" transform="rotate(59.0335 254.954 700.945)" fill="#121212"/>
<rect x="251.618" y="702.948" width="64.5854" height="6.92596" transform="rotate(59.0335 251.618 702.948)" fill="#121212"/>
<rect x="244.51" y="707.211" width="64.5854" height="12.341" transform="rotate(59.0335 244.51 707.211)" fill="#121212"/>
<rect x="232.76" y="714.262" width="64.5854" height="3.67026" transform="rotate(59.0335 232.76 714.262)" fill="#121212"/>
<path fill-rule="evenodd" clip-rule="evenodd" d="M559.499 180.86L639.398 64.4171L639.414 64.5026L648.035 62.898L775.794 150.562L777.214 158.192L785.585 157.281L849.742 201.303L852.16 210.404L772.26 326.848L762.806 327.877L762.832 327.973L698.671 283.948L698.769 283.937L696.583 275.708L688.864 277.144L688.879 277.229L561.119 189.564L561.205 189.548L559.585 180.844L559.499 180.86Z" fill="#C852FF"/>
<rect x="783.928" y="171.879" width="64.5854" height="2.51567" transform="rotate(34.4566 783.928 171.879)" fill="#121212"/>
<rect x="730.298" y="250.04" width="64.5854" height="1.30825" transform="rotate(34.4566 730.298 250.04)" fill="#121212"/>
<rect x="780.867" y="176.343" width="64.5854" height="10.0633" transform="rotate(34.4566 780.867 176.343)" fill="#121212"/>
<rect x="728.706" y="252.362" width="64.5854" height="5.23333" transform="rotate(34.4566 728.706 252.362)" fill="#121212"/>
<rect x="719.679" y="265.513" width="64.5854" height="5.23333" transform="rotate(34.4566 719.679 265.513)" fill="#121212"/>
<rect x="773.748" y="186.715" width="64.5854" height="10.0633" transform="rotate(34.4566 773.748 186.715)" fill="#121212"/>
<rect x="760.805" y="205.58" width="64.5854" height="15.5945" transform="rotate(34.4566 760.805 205.58)" fill="#121212"/>
<rect x="725.005" y="257.755" width="64.5854" height="5.23333" transform="rotate(34.4566 725.005 257.755)" fill="#121212"/>
<rect x="715.978" y="270.907" width="64.5854" height="5.23333" transform="rotate(34.4566 715.978 270.907)" fill="#121212"/>
<rect x="764.085" y="200.799" width="64.5854" height="2.69698" transform="rotate(34.4566 764.085 200.799)" fill="#121212"/>
<rect x="766.633" y="197.087" width="64.5854" height="1.9853" transform="rotate(34.4566 766.633 197.087)" fill="#121212"/>
<rect x="721.301" y="263.149" width="64.5854" height="1.03244" transform="rotate(34.4566 721.301 263.149)" fill="#121212"/>
<rect x="712.278" y="276.302" width="64.5854" height="1.03244" transform="rotate(34.4566 712.278 276.302)" fill="#121212"/>
<rect x="750.405" y="220.733" width="64.5854" height="1.9853" transform="rotate(34.4566 750.405 220.733)" fill="#121212"/>
<rect x="748.055" y="224.161" width="64.5854" height="1.9853" transform="rotate(34.4566 748.055 224.161)" fill="#121212"/>
<rect x="745.853" y="227.37" width="64.5854" height="6.92596" transform="rotate(34.4566 745.853 227.37)" fill="#121212"/>
<rect x="741.162" y="234.203" width="64.5854" height="12.341" transform="rotate(34.4566 741.162 234.203)" fill="#121212"/>
<rect x="733.411" y="245.501" width="64.5854" height="3.67026" transform="rotate(34.4566 733.411 245.501)" fill="#121212"/>
<path fill-rule="evenodd" clip-rule="evenodd" d="M1131.79 823.797L1001.1 877.309L1001.13 877.226L993.046 873.838L934.334 730.446L937.333 723.289L929.839 719.46L900.355 647.451L903.326 638.52L1034.02 585.009L1042.49 589.336L1042.52 589.241L1072 661.252L1071.91 661.207L1069.23 669.287L1076.46 672.318L1076.5 672.235L1135.21 815.63L1135.13 815.596L1131.71 823.762L1131.79 823.797Z" fill="#ADFF00"/>
<rect x="939.23" y="708.163" width="64.5854" height="2.51567" transform="rotate(-112.267 939.23 708.163)" fill="#121212"/>
<rect x="1026.95" y="672.245" width="64.5854" height="1.30825" transform="rotate(-112.267 1026.95 672.245)" fill="#121212"/>
<rect x="944.24" y="706.112" width="64.5854" height="10.0633" transform="rotate(-112.267 944.24 706.112)" fill="#121212"/>
<rect x="1029.56" y="671.178" width="64.5854" height="5.23333" transform="rotate(-112.267 1029.56 671.178)" fill="#121212"/>
<rect x="1044.32" y="665.134" width="64.5854" height="5.23333" transform="rotate(-112.267 1044.32 665.134)" fill="#121212"/>
<rect x="955.882" y="701.345" width="64.5854" height="10.0633" transform="rotate(-112.267 955.882 701.345)" fill="#121212"/>
<rect x="977.052" y="692.676" width="64.5854" height="15.5945" transform="rotate(-112.267 977.052 692.676)" fill="#121212"/>
<rect x="1035.61" y="668.699" width="64.5854" height="5.23333" transform="rotate(-112.267 1035.61 668.699)" fill="#121212"/>
<rect x="1050.37" y="662.656" width="64.5854" height="5.23333" transform="rotate(-112.267 1050.37 662.656)" fill="#121212"/>
<rect x="971.685" y="694.873" width="64.5854" height="2.69698" transform="rotate(-112.267 971.685 694.873)" fill="#121212"/>
<rect x="967.524" y="696.579" width="64.5854" height="1.9853" transform="rotate(-112.267 967.524 696.579)" fill="#121212"/>
<rect x="1041.67" y="666.22" width="64.5854" height="1.03244" transform="rotate(-112.267 1041.67 666.22)" fill="#121212"/>
<rect x="1056.43" y="660.177" width="64.5854" height="1.03244" transform="rotate(-112.267 1056.43 660.177)" fill="#121212"/>
<rect x="994.061" y="685.713" width="64.5854" height="1.9853" transform="rotate(-112.267 994.061 685.713)" fill="#121212"/>
<rect x="997.907" y="684.138" width="64.5854" height="1.9853" transform="rotate(-112.267 997.907 684.138)" fill="#121212"/>
<rect x="1001.51" y="682.663" width="64.5854" height="6.92596" transform="rotate(-112.267 1001.51 682.663)" fill="#121212"/>
<rect x="1009.18" y="679.523" width="64.5854" height="12.341" transform="rotate(-112.267 1009.18 679.523)" fill="#121212"/>
<rect x="1021.86" y="674.331" width="64.5854" height="3.67026" transform="rotate(-112.267 1021.86 674.331)" fill="#121212"/>
<path fill-rule="evenodd" clip-rule="evenodd" d="M357.036 436.142L303.137 566.681L303.101 566.594L295.007 569.957L151.787 510.823L148.811 503.66L140.817 506.293L68.8947 476.597L64.6369 468.204L118.533 337.67L127.565 334.695L127.519 334.605L199.445 364.302L199.349 364.333L203.201 371.926L210.45 368.914L210.417 368.833L353.635 427.967L353.552 428.001L356.95 436.178L357.036 436.142Z" fill="#ADFF00"/>
<rect x="139.39" y="491.671" width="64.5854" height="2.51567" transform="rotate(-157.565 139.39 491.671)" fill="#121212"/>
<rect x="175.568" y="404.055" width="64.5854" height="1.30825" transform="rotate(-157.565 175.568 404.055)" fill="#121212"/>
<rect x="141.457" y="486.667" width="64.5854" height="10.0633" transform="rotate(-157.565 141.457 486.667)" fill="#121212"/>
<rect x="176.643" y="401.452" width="64.5854" height="5.23333" transform="rotate(-157.565 176.643 401.452)" fill="#121212"/>
<rect x="182.728" y="386.709" width="64.5854" height="5.23333" transform="rotate(-157.565 182.728 386.709)" fill="#121212"/>
<rect x="146.259" y="475.041" width="64.5854" height="10.0633" transform="rotate(-157.565 146.259 475.041)" fill="#121212"/>
<rect x="154.989" y="453.893" width="64.5854" height="15.5945" transform="rotate(-157.565 154.989 453.893)" fill="#121212"/>
<rect x="179.139" y="395.405" width="64.5854" height="5.23333" transform="rotate(-157.565 179.139 395.405)" fill="#121212"/>
<rect x="185.227" y="380.662" width="64.5854" height="5.23333" transform="rotate(-157.565 185.227 380.662)" fill="#121212"/>
<rect x="152.775" y="459.252" width="64.5854" height="2.69698" transform="rotate(-157.565 152.775 459.252)" fill="#121212"/>
<rect x="151.057" y="463.413" width="64.5854" height="1.9853" transform="rotate(-157.565 151.057 463.413)" fill="#121212"/>
<rect x="181.635" y="389.358" width="64.5854" height="1.03244" transform="rotate(-157.565 181.635 389.358)" fill="#121212"/>
<rect x="187.723" y="374.615" width="64.5854" height="1.03244" transform="rotate(-157.565 187.723 374.615)" fill="#121212"/>
<rect x="162.003" y="436.907" width="64.5854" height="1.9853" transform="rotate(-157.565 162.003 436.907)" fill="#121212"/>
<rect x="163.588" y="433.064" width="64.5854" height="1.9853" transform="rotate(-157.565 163.588 433.064)" fill="#121212"/>
<rect x="165.076" y="429.467" width="64.5854" height="6.92596" transform="rotate(-157.565 165.076 429.467)" fill="#121212"/>
<rect x="168.237" y="421.807" width="64.5854" height="12.341" transform="rotate(-157.565 168.237 421.807)" fill="#121212"/>
<rect x="173.466" y="409.142" width="64.5854" height="3.67026" transform="rotate(-157.565 173.466 409.142)" fill="#121212"/>
<path fill-rule="evenodd" clip-rule="evenodd" d="M791.941 357.215L926.085 401.362L926.006 401.402L929.956 409.227L881.518 556.409L874.593 559.904L877.806 567.68L853.48 641.597L845.422 646.461L711.279 602.314L707.646 593.523L707.561 593.575L731.887 519.658L731.926 519.754L739.215 515.354L735.678 508.346L735.598 508.386L784.036 361.204L784.077 361.284L791.981 357.294L791.941 357.215Z" fill="#FF6318"/>
<rect x="863.326" y="570.179" width="64.5854" height="2.51567" transform="rotate(108.217 863.326 570.179)" fill="#121212"/>
<rect x="773.286" y="540.547" width="64.5854" height="1.30825" transform="rotate(108.217 773.286 540.547)" fill="#121212"/>
<rect x="858.185" y="568.487" width="64.5854" height="10.0633" transform="rotate(108.217 858.185 568.487)" fill="#121212"/>
<rect x="770.612" y="539.667" width="64.5854" height="5.23333" transform="rotate(108.217 770.612 539.667)" fill="#121212"/>
<rect x="755.459" y="534.681" width="64.5854" height="5.23333" transform="rotate(108.217 755.459 534.681)" fill="#121212"/>
<rect x="846.235" y="564.555" width="64.5854" height="10.0633" transform="rotate(108.217 846.235 564.555)" fill="#121212"/>
<rect x="824.502" y="557.402" width="64.5854" height="15.5945" transform="rotate(108.217 824.502 557.402)" fill="#121212"/>
<rect x="764.397" y="537.622" width="64.5854" height="5.23333" transform="rotate(108.217 764.397 537.622)" fill="#121212"/>
<rect x="749.248" y="532.636" width="64.5854" height="5.23333" transform="rotate(108.217 749.248 532.636)" fill="#121212"/>
<rect x="830.011" y="559.215" width="64.5854" height="2.69698" transform="rotate(108.217 830.011 559.215)" fill="#121212"/>
<rect x="834.288" y="560.623" width="64.5854" height="1.9853" transform="rotate(108.217 834.288 560.623)" fill="#121212"/>
<rect x="758.182" y="535.577" width="64.5854" height="1.03244" transform="rotate(108.217 758.182 535.577)" fill="#121212"/>
<rect x="743.033" y="530.59" width="64.5854" height="1.03244" transform="rotate(108.217 743.033 530.59)" fill="#121212"/>
<rect x="807.047" y="551.657" width="64.5854" height="1.9853" transform="rotate(108.217 807.047 551.657)" fill="#121212"/>
<rect x="803.097" y="550.358" width="64.5854" height="1.9853" transform="rotate(108.217 803.097 550.358)" fill="#121212"/>
<rect x="799.4" y="549.142" width="64.5854" height="6.92596" transform="rotate(108.217 799.4 549.142)" fill="#121212"/>
<rect x="791.53" y="546.551" width="64.5854" height="12.341" transform="rotate(108.217 791.53 546.551)" fill="#121212"/>
<rect x="778.512" y="542.267" width="64.5854" height="3.67026" transform="rotate(108.217 778.512 542.267)" fill="#121212"/>
<path fill-rule="evenodd" clip-rule="evenodd" d="M284.841 785.743L266.632 645.703L266.701 645.756L272.049 638.81L425.702 618.83L431.848 623.562L437.472 617.3L514.634 607.266L522.505 612.428L540.715 752.469L534.358 759.548L534.441 759.603L457.281 769.636L457.347 769.563L450.229 764.895L445.442 771.112L445.512 771.166L291.856 791.146L291.911 791.075L284.895 785.674L284.841 785.743Z" fill="#FF6318"/>
<rect x="445.984" y="629.275" width="64.5854" height="2.51567" transform="rotate(-7.40871 445.984 629.275)" fill="#121212"/>
<rect x="458.206" y="723.274" width="64.5854" height="1.30825" transform="rotate(-7.40871 458.206 723.274)" fill="#121212"/>
<rect x="446.683" y="634.643" width="64.5854" height="10.0633" transform="rotate(-7.40871 446.683 634.643)" fill="#121212"/>
<rect x="458.57" y="726.067" width="64.5854" height="5.23333" transform="rotate(-7.40871 458.57 726.067)" fill="#121212"/>
<rect x="460.628" y="741.884" width="64.5854" height="5.23333" transform="rotate(-7.40871 460.628 741.884)" fill="#121212"/>
<rect x="448.305" y="647.117" width="64.5854" height="10.0633" transform="rotate(-7.40871 448.305 647.117)" fill="#121212"/>
<rect x="451.255" y="669.806" width="64.5854" height="15.5945" transform="rotate(-7.40871 451.255 669.806)" fill="#121212"/>
<rect x="459.414" y="732.554" width="64.5854" height="5.23333" transform="rotate(-7.40871 459.414 732.554)" fill="#121212"/>
<rect x="461.472" y="748.371" width="64.5854" height="5.23333" transform="rotate(-7.40871 461.472 748.371)" fill="#121212"/>
<rect x="450.506" y="664.055" width="64.5854" height="2.69698" transform="rotate(-7.40871 450.506 664.055)" fill="#121212"/>
<rect x="449.927" y="659.591" width="64.5854" height="1.9853" transform="rotate(-7.40871 449.927 659.591)" fill="#121212"/>
<rect x="460.259" y="739.041" width="64.5854" height="1.03244" transform="rotate(-7.40871 460.259 739.041)" fill="#121212"/>
<rect x="462.312" y="754.858" width="64.5854" height="1.03244" transform="rotate(-7.40871 462.312 754.858)" fill="#121212"/>
<rect x="453.624" y="688.029" width="64.5854" height="1.9853" transform="rotate(-7.40871 453.624 688.029)" fill="#121212"/>
<rect x="454.16" y="692.151" width="64.5854" height="1.9853" transform="rotate(-7.40871 454.16 692.151)" fill="#121212"/>
<rect x="454.661" y="696.011" width="64.5854" height="6.92596" transform="rotate(-7.40871 454.661 696.011)" fill="#121212"/>
<rect x="455.729" y="704.229" width="64.5854" height="12.341" transform="rotate(-7.40871 455.729 704.229)" fill="#121212"/>
<rect x="457.496" y="717.817" width="64.5854" height="3.67026" transform="rotate(-7.40871 457.496 717.817)" fill="#121212"/>
<path fill-rule="evenodd" clip-rule="evenodd" d="M81.9471 452.002L4.21072 334.103L4.2966 334.121L6.05934 325.534L135.418 240.242L143.019 241.803L145.33 233.707L210.293 190.874L219.63 192.065L297.368 309.966L294.756 319.112L294.854 319.124L229.896 361.955L229.922 361.862L221.472 360.784L219.893 368.474L219.98 368.491L90.6199 453.785L90.6381 453.697L81.9649 451.916L81.9471 452.002Z" fill="#FF6318"/>
<rect x="158.228" y="240.742" width="64.5854" height="2.51567" transform="rotate(-33.3988 158.228 240.742)" fill="#121212"/>
<rect x="210.407" y="319.879" width="64.5854" height="1.30825" transform="rotate(-33.3988 210.407 319.879)" fill="#121212"/>
<rect x="161.211" y="245.262" width="64.5854" height="10.0633" transform="rotate(-33.3988 161.211 245.262)" fill="#121212"/>
<rect x="211.958" y="322.23" width="64.5854" height="5.23333" transform="rotate(-33.3988 211.958 322.23)" fill="#121212"/>
<rect x="220.74" y="335.546" width="64.5854" height="5.23333" transform="rotate(-33.3988 220.74 335.546)" fill="#121212"/>
<rect x="168.132" y="255.763" width="64.5854" height="10.0633" transform="rotate(-33.3988 168.132 255.763)" fill="#121212"/>
<rect x="180.727" y="274.865" width="64.5854" height="15.5945" transform="rotate(-33.3988 180.727 274.865)" fill="#121212"/>
<rect x="215.558" y="327.691" width="64.5854" height="5.23333" transform="rotate(-33.3988 215.558 327.691)" fill="#121212"/>
<rect x="224.34" y="341.008" width="64.5854" height="5.23333" transform="rotate(-33.3988 224.34 341.008)" fill="#121212"/>
<rect x="177.535" y="270.023" width="64.5854" height="2.69698" transform="rotate(-33.3988 177.535 270.023)" fill="#121212"/>
<rect x="175.058" y="266.266" width="64.5854" height="1.9853" transform="rotate(-33.3988 175.058 266.266)" fill="#121212"/>
<rect x="219.16" y="333.153" width="64.5854" height="1.03244" transform="rotate(-33.3988 219.16 333.153)" fill="#121212"/>
<rect x="227.941" y="346.47" width="64.5854" height="1.03244" transform="rotate(-33.3988 227.941 346.47)" fill="#121212"/>
<rect x="190.844" y="290.207" width="64.5854" height="1.9853" transform="rotate(-33.3988 190.844 290.207)" fill="#121212"/>
<rect x="193.131" y="293.677" width="64.5854" height="1.9853" transform="rotate(-33.3988 193.131 293.677)" fill="#121212"/>
<rect x="195.273" y="296.926" width="64.5854" height="6.92596" transform="rotate(-33.3988 195.273 296.926)" fill="#121212"/>
<rect x="199.837" y="303.845" width="64.5854" height="12.341" transform="rotate(-33.3988 199.837 303.845)" fill="#121212"/>
<rect x="207.38" y="315.285" width="64.5854" height="3.67026" transform="rotate(-33.3988 207.38 315.285)" fill="#121212"/>
<path fill-rule="evenodd" clip-rule="evenodd" d="M591.981 753.04L671.88 636.597L671.896 636.683L680.517 635.078L808.277 722.743L809.697 730.372L818.069 729.461L882.227 773.484L884.644 782.584L804.744 899.028L795.29 900.057L795.316 900.154L731.155 856.128L731.253 856.118L729.067 847.887L721.346 849.324L721.362 849.409L593.601 761.744L593.688 761.728L592.068 753.024L591.981 753.04Z" fill="#C852FF"/>
<rect x="816.412" y="744.059" width="64.5854" height="2.51567" transform="rotate(34.4566 816.412 744.059)" fill="#121212"/>
<rect x="762.782" y="822.219" width="64.5854" height="1.30825" transform="rotate(34.4566 762.782 822.219)" fill="#121212"/>
<rect x="813.352" y="748.522" width="64.5854" height="10.0633" transform="rotate(34.4566 813.352 748.522)" fill="#121212"/>
<rect x="761.191" y="824.542" width="64.5854" height="5.23333" transform="rotate(34.4566 761.191 824.542)" fill="#121212"/>
<rect x="752.164" y="837.693" width="64.5854" height="5.23333" transform="rotate(34.4566 752.164 837.693)" fill="#121212"/>
<rect x="806.232" y="758.895" width="64.5854" height="10.0633" transform="rotate(34.4566 806.232 758.895)" fill="#121212"/>
<rect x="793.289" y="777.76" width="64.5854" height="15.5945" transform="rotate(34.4566 793.289 777.76)" fill="#121212"/>
<rect x="757.49" y="829.935" width="64.5854" height="5.23333" transform="rotate(34.4566 757.49 829.935)" fill="#121212"/>
<rect x="748.463" y="843.087" width="64.5854" height="5.23333" transform="rotate(34.4566 748.463 843.087)" fill="#121212"/>
<rect x="796.57" y="772.979" width="64.5854" height="2.69698" transform="rotate(34.4566 796.57 772.979)" fill="#121212"/>
<rect x="799.117" y="769.267" width="64.5854" height="1.9853" transform="rotate(34.4566 799.117 769.267)" fill="#121212"/>
<rect x="753.786" y="835.329" width="64.5854" height="1.03244" transform="rotate(34.4566 753.786 835.329)" fill="#121212"/>
<rect x="744.763" y="848.481" width="64.5854" height="1.03244" transform="rotate(34.4566 744.763 848.481)" fill="#121212"/>
<rect x="782.89" y="792.913" width="64.5854" height="1.9853" transform="rotate(34.4566 782.89 792.913)" fill="#121212"/>
<rect x="780.539" y="796.341" width="64.5854" height="1.9853" transform="rotate(34.4566 780.539 796.341)" fill="#121212"/>
<rect x="778.337" y="799.549" width="64.5854" height="6.92596" transform="rotate(34.4566 778.337 799.549)" fill="#121212"/>
<rect x="773.647" y="806.383" width="64.5854" height="12.341" transform="rotate(34.4566 773.647 806.383)" fill="#121212"/>
<rect x="765.896" y="817.681" width="64.5854" height="3.67026" transform="rotate(34.4566 765.896 817.681)" fill="#121212"/>
<path fill-rule="evenodd" clip-rule="evenodd" d="M1075.83 257.185L1191.59 338.086L1191.5 338.102L1193.03 346.73L1104.26 473.734L1096.63 475.087L1097.46 483.462L1052.89 547.241L1043.77 549.58L928.018 468.677L927.07 459.213L926.975 459.238L971.553 395.458L971.563 395.559L979.806 393.445L978.436 385.715L978.35 385.73L1067.12 258.727L1067.13 258.816L1075.85 257.271L1075.83 257.185Z" fill="#FF6318"/>
<rect x="1082.88" y="481.684" width="64.5854" height="2.51567" transform="rotate(124.951 1082.88 481.684)" fill="#121212"/>
<rect x="1005.19" y="427.381" width="64.5854" height="1.30825" transform="rotate(124.951 1005.19 427.381)" fill="#121212"/>
<rect x="1078.44" y="478.583" width="64.5854" height="10.0633" transform="rotate(124.951 1078.44 478.583)" fill="#121212"/>
<rect x="1002.88" y="425.768" width="64.5854" height="5.23333" transform="rotate(124.951 1002.88 425.768)" fill="#121212"/>
<rect x="989.803" y="416.63" width="64.5854" height="5.23333" transform="rotate(124.951 989.803 416.63)" fill="#121212"/>
<rect x="1068.13" y="471.376" width="64.5854" height="10.0633" transform="rotate(124.951 1068.13 471.376)" fill="#121212"/>
<rect x="1049.38" y="458.27" width="64.5854" height="15.5945" transform="rotate(124.951 1049.38 458.27)" fill="#121212"/>
<rect x="997.517" y="422.02" width="64.5854" height="5.23333" transform="rotate(124.951 997.517 422.02)" fill="#121212"/>
<rect x="984.443" y="412.883" width="64.5854" height="5.23333" transform="rotate(124.951 984.443 412.883)" fill="#121212"/>
<rect x="1054.13" y="461.592" width="64.5854" height="2.69698" transform="rotate(124.951 1054.13 461.592)" fill="#121212"/>
<rect x="1057.82" y="464.17" width="64.5854" height="1.9853" transform="rotate(124.951 1057.82 464.17)" fill="#121212"/>
<rect x="992.153" y="418.272" width="64.5854" height="1.03244" transform="rotate(124.951 992.153 418.272)" fill="#121212"/>
<rect x="979.079" y="409.135" width="64.5854" height="1.03244" transform="rotate(124.951 979.079 409.135)" fill="#121212"/>
<rect x="1034.32" y="447.741" width="64.5854" height="1.9853" transform="rotate(124.951 1034.32 447.741)" fill="#121212"/>
<rect x="1030.91" y="445.361" width="64.5854" height="1.9853" transform="rotate(124.951 1030.91 445.361)" fill="#121212"/>
<rect x="1027.72" y="443.131" width="64.5854" height="6.92596" transform="rotate(124.951 1027.72 443.131)" fill="#121212"/>
<rect x="1020.93" y="438.383" width="64.5854" height="12.341" transform="rotate(124.951 1020.93 438.383)" fill="#121212"/>
<rect x="1009.69" y="430.533" width="64.5854" height="3.67026" transform="rotate(124.951 1009.69 430.533)" fill="#121212"/>
</svg>
