<svg width="301" height="181" viewBox="0 0 301 181" fill="none" xmlns="http://www.w3.org/2000/svg">
<path fill-rule="evenodd" clip-rule="evenodd" d="M300.587 7.58763L300.587 173.061L300.516 172.989L293.312 180.249L113.159 180.249L106.783 173.823L99.3601 180.25L8.88962 180.25L0.587191 173.061L0.587206 7.58871L8.9753 0.325948L8.88869 0.25096L99.359 0.250976L99.2703 0.327705L106.776 6.82617L113.229 0.322258L113.158 0.249984L293.31 0.250014L293.236 0.324311L300.515 7.66025L300.587 7.58763Z" fill="#ADFF00"/>
<rect x="91.3396" y="165.051" width="75.0908" height="2.94767" transform="rotate(-180 91.3396 165.051)" fill="#121212"/>
<rect x="91.3401" y="53.9814" width="75.0908" height="1.53292" transform="rotate(-180 91.3401 53.9814)" fill="#121212"/>
<rect x="91.339" y="158.707" width="75.0908" height="11.7914" transform="rotate(-180 91.339 158.707)" fill="#121212"/>
<rect x="91.3386" y="50.6797" width="75.0908" height="6.13204" transform="rotate(-180 91.3386 50.6797)" fill="#121212"/>
<rect x="91.3386" y="31.9912" width="75.0908" height="6.13204" transform="rotate(-180 91.3386 31.9912)" fill="#121212"/>
<rect x="91.3394" y="143.966" width="75.0908" height="11.7914" transform="rotate(-180 91.3394 143.966)" fill="#121212"/>
<rect x="91.3394" y="117.158" width="75.0908" height="18.2725" transform="rotate(-180 91.3394 117.158)" fill="#121212"/>
<rect x="91.3403" y="43.0171" width="75.0908" height="6.13204" transform="rotate(-180 91.3403 43.0171)" fill="#121212"/>
<rect x="91.3401" y="24.3271" width="75.0908" height="6.13204" transform="rotate(-180 91.3401 24.3271)" fill="#121212"/>
<rect x="91.3392" y="123.954" width="75.0908" height="3.16013" transform="rotate(-180 91.3392 123.954)" fill="#121212"/>
<rect x="91.3395" y="129.228" width="75.0908" height="2.32622" transform="rotate(-180 91.3395 129.228)" fill="#121212"/>
<rect x="91.3393" y="35.3506" width="75.0908" height="1.20974" transform="rotate(-180 91.3393 35.3506)" fill="#121212"/>
<rect x="91.3392" y="16.6602" width="75.0908" height="1.20974" transform="rotate(-180 91.3392 16.6602)" fill="#121212"/>
<rect x="91.3395" y="95.6245" width="75.0908" height="2.32622" transform="rotate(-180 91.3395 95.6245)" fill="#121212"/>
<rect x="91.3383" y="90.7539" width="75.0908" height="2.32622" transform="rotate(-180 91.3383 90.7539)" fill="#121212"/>
<rect x="91.338" y="86.1924" width="75.0908" height="8.11533" transform="rotate(-180 91.338 86.1924)" fill="#121212"/>
<rect x="91.3387" y="76.4839" width="75.0908" height="14.4603" transform="rotate(-180 91.3387 76.4839)" fill="#121212"/>
<rect x="91.338" y="60.4263" width="75.0908" height="4.30054" transform="rotate(-180 91.338 60.4263)" fill="#121212"/>
</svg>
